M48
; DRILL file {KiCad 9.0.7} date 2026-03-04T17:13:16+0100
; FORMAT={-:-/ absolute / metric / decimal}
; #@! TF.CreationDate,2026-03-04T17:13:16+01:00
; #@! TF.GenerationSoftware,Kicad,Pcbnew,9.0.7
; #@! TF.FileFunction,Plated,1,2,PTH
FMAT,2
METRIC
; #@! TA.AperFunction,Plated,PTH,ViaDrill
T1C0.300
; #@! TA.AperFunction,Plated,PTH,ComponentDrill
T2C0.500
; #@! TA.AperFunction,Plated,PTH,ComponentDrill
T3C1.000
; #@! TA.AperFunction,Plated,PTH,ComponentDrill
T4C1.020
; #@! TA.AperFunction,Plated,PTH,ComponentDrill
T5C2.700
%
G90
G05
T1
X3.75Y8.5
X3.75Y6.5
X4.6Y64.7
X4.75Y46.65
X4.8Y62.3
X5.0Y7.25
X5.1Y44.7
X5.1Y41.5
X5.2Y70.0
X6.2Y72.475
X6.2Y63.3
X6.25Y68.0
X7.4Y59.9
X7.6Y62.1
X7.8Y64.7
X7.8Y58.1
X7.8Y57.1
X7.8Y55.7
X8.0Y68.5
X8.2Y72.5
X8.2Y31.3
X8.2Y30.1
X8.2Y28.7
X9.04Y12.54
X9.25Y52.25
X9.5Y40.0
X9.625Y66.875
X10.25Y55.5
X11.25Y29.7
X15.4Y64.0
X15.5Y72.75
X16.4Y64.9
X16.625Y74.125
X17.25Y70.75
X17.5Y72.65
X17.69Y28.81
X17.91Y26.49
X18.5Y55.3
X19.3Y73.6
X19.3Y64.0
X20.1Y61.9
X20.25Y64.0
X20.75Y63.0
X21.3Y64.0
X22.25Y61.5
X22.25Y55.75
X22.8Y64.0
X23.71Y32.29
X23.75Y57.75
X24.3Y64.0
X24.875Y75.25
X25.2Y52.0
X26.2Y57.5
X26.75Y73.0
X26.8Y45.8
X27.75Y68.0
X28.0Y74.5
X28.5Y64.0
X29.0Y52.6
X29.5Y61.25
X30.439Y64.014
X30.5Y51.25
X30.75Y72.7
X31.75Y51.25
X32.0Y60.1
X33.0Y64.0
X33.0Y60.1
X33.0Y51.25
X33.75Y61.0
X33.8Y62.3
X34.25Y51.25
X34.5Y64.0
X34.9Y57.4
X35.2Y62.3
X35.6Y52.6
X36.0Y64.0
X36.0Y46.1
X36.3Y57.3
X36.6Y62.3
X37.5Y64.0
X37.9Y57.3
X38.0Y62.75
X39.0Y64.0
X39.5Y55.9
X40.4Y53.2
X40.6Y57.3
X41.75Y2.75
X42.75Y3.75
X43.0Y48.5
X43.0Y47.25
X43.0Y46.0
X43.25Y37.25
X44.4Y7.7
X44.5Y36.0
X44.7Y53.4
X45.25Y67.5
X45.75Y37.25
X46.0Y48.5
X46.0Y47.25
X46.0Y46.0
X46.2Y9.5
X46.25Y66.5
X48.0Y61.25
X48.0Y31.9
X48.0Y28.5
X49.0Y62.25
X49.5Y67.5
X49.75Y63.5
X51.25Y26.0
X51.4Y30.5
X52.0Y60.5
X52.25Y33.0
X52.3Y48.6
X52.4Y45.7
X52.8Y29.7
X53.5Y69.0
X54.0Y61.25
X54.2Y45.6
X54.5Y68.0
X54.5Y8.0
X55.0Y62.25
X55.5Y45.6
X56.0Y61.25
T2
X20.7Y5.9
X21.293Y7.332
X21.293Y4.468
X22.725Y7.925
X22.725Y3.875
X24.157Y7.332
X24.157Y4.468
X24.75Y5.9
X40.475Y73.8
X41.068Y75.232
X41.068Y72.368
X42.5Y75.825
X42.5Y71.775
X43.932Y75.232
X43.932Y72.368
X44.525Y73.8
T3
X2.0Y57.08
X2.0Y54.54
X2.0Y52.0
X2.0Y49.46
X2.0Y46.92
X2.0Y44.38
X2.0Y35.5
X2.0Y32.96
X2.0Y29.16
X2.0Y26.62
X2.0Y24.08
X2.0Y21.54
X2.0Y19.0
X2.0Y16.46
X2.0Y12.54
X2.0Y10.0
X2.0Y7.46
X2.0Y4.92
X14.0Y50.52
X14.0Y47.98
X14.0Y45.44
X14.0Y42.9
X14.0Y40.36
X14.0Y37.82
X14.0Y35.28
X14.0Y32.74
X14.0Y30.2
X14.0Y27.66
X14.0Y25.12
X14.0Y22.58
X14.0Y20.04
X14.0Y17.5
X14.0Y14.96
X14.0Y12.42
X14.0Y9.88
X14.0Y7.34
X14.0Y4.8
X39.0Y50.52
X39.0Y47.98
X39.0Y45.44
X39.0Y42.9
X39.0Y40.36
X39.0Y37.82
X39.0Y35.28
X39.0Y32.74
X39.0Y30.2
X39.0Y27.66
X39.0Y25.12
X39.0Y22.58
X39.0Y20.04
X39.0Y17.5
X39.0Y14.96
X39.0Y12.42
X39.0Y9.88
X39.0Y7.34
X39.0Y4.8
X44.0Y14.5
X50.46Y3.0
X51.6Y14.5
X53.0Y3.0
X54.5Y50.0
X54.5Y47.46
X54.54Y29.0
X54.54Y26.46
T4
X53.34Y43.54
X53.34Y41.0
X53.34Y38.46
X53.34Y35.92
T5
X22.725Y5.9
X42.5Y73.8
M30
