%TF.GenerationSoftware,KiCad,Pcbnew,9.0.7*%
%TF.CreationDate,2026-03-04T17:13:05+01:00*%
%TF.ProjectId,haboxesp,6861626f-7865-4737-902e-6b696361645f,rev?*%
%TF.SameCoordinates,PX76bb820PY77afa60*%
%TF.FileFunction,Soldermask,Bot*%
%TF.FilePolarity,Negative*%
%FSLAX46Y46*%
G04 Gerber Fmt 4.6, Leading zero omitted, Abs format (unit mm)*
G04 Created by KiCad (PCBNEW 9.0.7) date 2026-03-04 17:13:05*
%MOMM*%
%LPD*%
G01*
G04 APERTURE LIST*
G04 APERTURE END LIST*
G36*
X53888268Y3942388D02*
G01*
X53920711Y3920711D01*
X53942388Y3888268D01*
X53950000Y3850000D01*
X53950000Y2150000D01*
X53942388Y2111732D01*
X53920711Y2079289D01*
X53888268Y2057612D01*
X53850000Y2050000D01*
X52150000Y2050000D01*
X52111732Y2057612D01*
X52079289Y2079289D01*
X52057612Y2111732D01*
X52050000Y2150000D01*
X52050000Y3850000D01*
X52057612Y3888268D01*
X52079289Y3920711D01*
X52111732Y3942388D01*
X52150000Y3950000D01*
X53850000Y3950000D01*
X53888268Y3942388D01*
G37*
G36*
X50735770Y3909093D02*
G01*
X50907827Y3837825D01*
X51062674Y3734360D01*
X51194360Y3602674D01*
X51297825Y3447827D01*
X51369093Y3275770D01*
X51405425Y3093116D01*
X51405425Y2906884D01*
X51369093Y2724230D01*
X51297825Y2552173D01*
X51194360Y2397326D01*
X51062674Y2265640D01*
X50907827Y2162175D01*
X50735770Y2090907D01*
X50553116Y2054575D01*
X50366884Y2054575D01*
X50184230Y2090907D01*
X50012173Y2162175D01*
X49857326Y2265640D01*
X49725640Y2397326D01*
X49622175Y2552173D01*
X49550907Y2724230D01*
X49514575Y2906884D01*
X49514575Y3093116D01*
X49550907Y3275770D01*
X49622175Y3447827D01*
X49725640Y3602674D01*
X49857326Y3734360D01*
X50012173Y3837825D01*
X50184230Y3909093D01*
X50366884Y3945425D01*
X50553116Y3945425D01*
X50735770Y3909093D01*
G37*
G36*
X23194017Y8660439D02*
G01*
X23500139Y8590569D01*
X23796514Y8486863D01*
X24079413Y8350626D01*
X24345280Y8183570D01*
X24590770Y7987798D01*
X24812798Y7765770D01*
X25008570Y7520280D01*
X25175626Y7254413D01*
X25311863Y6971514D01*
X25415569Y6675139D01*
X25485439Y6369017D01*
X25520595Y6056997D01*
X25520595Y5743003D01*
X25485439Y5430983D01*
X25415569Y5124861D01*
X25311863Y4828486D01*
X25175626Y4545587D01*
X25008570Y4279720D01*
X24812798Y4034230D01*
X24590770Y3812202D01*
X24345280Y3616430D01*
X24079413Y3449374D01*
X23796514Y3313137D01*
X23500139Y3209431D01*
X23194017Y3139561D01*
X22881997Y3104405D01*
X22568003Y3104405D01*
X22255983Y3139561D01*
X21949861Y3209431D01*
X21653486Y3313137D01*
X21370587Y3449374D01*
X21104720Y3616430D01*
X20859230Y3812202D01*
X20637202Y4034230D01*
X20441430Y4279720D01*
X20274374Y4545587D01*
X20138137Y4828486D01*
X20034431Y5124861D01*
X19964561Y5430983D01*
X19929405Y5743003D01*
X19929405Y6056997D01*
X19964561Y6369017D01*
X20034431Y6675139D01*
X20138137Y6971514D01*
X20274374Y7254413D01*
X20441430Y7520280D01*
X20637202Y7765770D01*
X20859230Y7987798D01*
X21104720Y8183570D01*
X21370587Y8350626D01*
X21653486Y8486863D01*
X21949861Y8590569D01*
X22255983Y8660439D01*
X22568003Y8695595D01*
X22881997Y8695595D01*
X23194017Y8660439D01*
G37*
G36*
X14888268Y5742388D02*
G01*
X14920711Y5720711D01*
X14942388Y5688268D01*
X14950000Y5650000D01*
X14950000Y3950000D01*
X14942388Y3911732D01*
X14920711Y3879289D01*
X14888268Y3857612D01*
X14850000Y3850000D01*
X13150000Y3850000D01*
X13111732Y3857612D01*
X13079289Y3879289D01*
X13057612Y3911732D01*
X13050000Y3950000D01*
X13050000Y5650000D01*
X13057612Y5688268D01*
X13079289Y5720711D01*
X13111732Y5742388D01*
X13150000Y5750000D01*
X14850000Y5750000D01*
X14888268Y5742388D01*
G37*
G36*
X39888268Y5742388D02*
G01*
X39920711Y5720711D01*
X39942388Y5688268D01*
X39950000Y5650000D01*
X39950000Y3950000D01*
X39942388Y3911732D01*
X39920711Y3879289D01*
X39888268Y3857612D01*
X39850000Y3850000D01*
X38150000Y3850000D01*
X38111732Y3857612D01*
X38079289Y3879289D01*
X38057612Y3911732D01*
X38050000Y3950000D01*
X38050000Y5650000D01*
X38057612Y5688268D01*
X38079289Y5720711D01*
X38111732Y5742388D01*
X38150000Y5750000D01*
X39850000Y5750000D01*
X39888268Y5742388D01*
G37*
G36*
X2888268Y5862388D02*
G01*
X2920711Y5840711D01*
X2942388Y5808268D01*
X2950000Y5770000D01*
X2950000Y4070000D01*
X2942388Y4031732D01*
X2920711Y3999289D01*
X2888268Y3977612D01*
X2850000Y3970000D01*
X1150000Y3970000D01*
X1111732Y3977612D01*
X1079289Y3999289D01*
X1057612Y4031732D01*
X1050000Y4070000D01*
X1050000Y5770000D01*
X1057612Y5808268D01*
X1079289Y5840711D01*
X1111732Y5862388D01*
X1150000Y5870000D01*
X2850000Y5870000D01*
X2888268Y5862388D01*
G37*
G36*
X14275770Y8249093D02*
G01*
X14447827Y8177825D01*
X14602674Y8074360D01*
X14734360Y7942674D01*
X14837825Y7787827D01*
X14909093Y7615770D01*
X14945425Y7433116D01*
X14945425Y7246884D01*
X14909093Y7064230D01*
X14837825Y6892173D01*
X14734360Y6737326D01*
X14602674Y6605640D01*
X14447827Y6502175D01*
X14275770Y6430907D01*
X14093116Y6394575D01*
X13906884Y6394575D01*
X13724230Y6430907D01*
X13552173Y6502175D01*
X13397326Y6605640D01*
X13265640Y6737326D01*
X13162175Y6892173D01*
X13090907Y7064230D01*
X13054575Y7246884D01*
X13054575Y7433116D01*
X13090907Y7615770D01*
X13162175Y7787827D01*
X13265640Y7942674D01*
X13397326Y8074360D01*
X13552173Y8177825D01*
X13724230Y8249093D01*
X13906884Y8285425D01*
X14093116Y8285425D01*
X14275770Y8249093D01*
G37*
G36*
X39275770Y8249093D02*
G01*
X39447827Y8177825D01*
X39602674Y8074360D01*
X39734360Y7942674D01*
X39837825Y7787827D01*
X39909093Y7615770D01*
X39945425Y7433116D01*
X39945425Y7246884D01*
X39909093Y7064230D01*
X39837825Y6892173D01*
X39734360Y6737326D01*
X39602674Y6605640D01*
X39447827Y6502175D01*
X39275770Y6430907D01*
X39093116Y6394575D01*
X38906884Y6394575D01*
X38724230Y6430907D01*
X38552173Y6502175D01*
X38397326Y6605640D01*
X38265640Y6737326D01*
X38162175Y6892173D01*
X38090907Y7064230D01*
X38054575Y7246884D01*
X38054575Y7433116D01*
X38090907Y7615770D01*
X38162175Y7787827D01*
X38265640Y7942674D01*
X38397326Y8074360D01*
X38552173Y8177825D01*
X38724230Y8249093D01*
X38906884Y8285425D01*
X39093116Y8285425D01*
X39275770Y8249093D01*
G37*
G36*
X2275770Y8369093D02*
G01*
X2447827Y8297825D01*
X2602674Y8194360D01*
X2734360Y8062674D01*
X2837825Y7907827D01*
X2909093Y7735770D01*
X2945425Y7553116D01*
X2945425Y7366884D01*
X2909093Y7184230D01*
X2837825Y7012173D01*
X2734360Y6857326D01*
X2602674Y6725640D01*
X2447827Y6622175D01*
X2275770Y6550907D01*
X2093116Y6514575D01*
X1906884Y6514575D01*
X1724230Y6550907D01*
X1552173Y6622175D01*
X1397326Y6725640D01*
X1265640Y6857326D01*
X1162175Y7012173D01*
X1090907Y7184230D01*
X1054575Y7366884D01*
X1054575Y7553116D01*
X1090907Y7735770D01*
X1162175Y7907827D01*
X1265640Y8062674D01*
X1397326Y8194360D01*
X1552173Y8297825D01*
X1724230Y8369093D01*
X1906884Y8405425D01*
X2093116Y8405425D01*
X2275770Y8369093D01*
G37*
G36*
X14275770Y10789093D02*
G01*
X14447827Y10717825D01*
X14602674Y10614360D01*
X14734360Y10482674D01*
X14837825Y10327827D01*
X14909093Y10155770D01*
X14945425Y9973116D01*
X14945425Y9786884D01*
X14909093Y9604230D01*
X14837825Y9432173D01*
X14734360Y9277326D01*
X14602674Y9145640D01*
X14447827Y9042175D01*
X14275770Y8970907D01*
X14093116Y8934575D01*
X13906884Y8934575D01*
X13724230Y8970907D01*
X13552173Y9042175D01*
X13397326Y9145640D01*
X13265640Y9277326D01*
X13162175Y9432173D01*
X13090907Y9604230D01*
X13054575Y9786884D01*
X13054575Y9973116D01*
X13090907Y10155770D01*
X13162175Y10327827D01*
X13265640Y10482674D01*
X13397326Y10614360D01*
X13552173Y10717825D01*
X13724230Y10789093D01*
X13906884Y10825425D01*
X14093116Y10825425D01*
X14275770Y10789093D01*
G37*
G36*
X39275770Y10789093D02*
G01*
X39447827Y10717825D01*
X39602674Y10614360D01*
X39734360Y10482674D01*
X39837825Y10327827D01*
X39909093Y10155770D01*
X39945425Y9973116D01*
X39945425Y9786884D01*
X39909093Y9604230D01*
X39837825Y9432173D01*
X39734360Y9277326D01*
X39602674Y9145640D01*
X39447827Y9042175D01*
X39275770Y8970907D01*
X39093116Y8934575D01*
X38906884Y8934575D01*
X38724230Y8970907D01*
X38552173Y9042175D01*
X38397326Y9145640D01*
X38265640Y9277326D01*
X38162175Y9432173D01*
X38090907Y9604230D01*
X38054575Y9786884D01*
X38054575Y9973116D01*
X38090907Y10155770D01*
X38162175Y10327827D01*
X38265640Y10482674D01*
X38397326Y10614360D01*
X38552173Y10717825D01*
X38724230Y10789093D01*
X38906884Y10825425D01*
X39093116Y10825425D01*
X39275770Y10789093D01*
G37*
G36*
X2275770Y10909093D02*
G01*
X2447827Y10837825D01*
X2602674Y10734360D01*
X2734360Y10602674D01*
X2837825Y10447827D01*
X2909093Y10275770D01*
X2945425Y10093116D01*
X2945425Y9906884D01*
X2909093Y9724230D01*
X2837825Y9552173D01*
X2734360Y9397326D01*
X2602674Y9265640D01*
X2447827Y9162175D01*
X2275770Y9090907D01*
X2093116Y9054575D01*
X1906884Y9054575D01*
X1724230Y9090907D01*
X1552173Y9162175D01*
X1397326Y9265640D01*
X1265640Y9397326D01*
X1162175Y9552173D01*
X1090907Y9724230D01*
X1054575Y9906884D01*
X1054575Y10093116D01*
X1090907Y10275770D01*
X1162175Y10447827D01*
X1265640Y10602674D01*
X1397326Y10734360D01*
X1552173Y10837825D01*
X1724230Y10909093D01*
X1906884Y10945425D01*
X2093116Y10945425D01*
X2275770Y10909093D01*
G37*
G36*
X14275770Y13329093D02*
G01*
X14447827Y13257825D01*
X14602674Y13154360D01*
X14734360Y13022674D01*
X14837825Y12867827D01*
X14909093Y12695770D01*
X14945425Y12513116D01*
X14945425Y12326884D01*
X14909093Y12144230D01*
X14837825Y11972173D01*
X14734360Y11817326D01*
X14602674Y11685640D01*
X14447827Y11582175D01*
X14275770Y11510907D01*
X14093116Y11474575D01*
X13906884Y11474575D01*
X13724230Y11510907D01*
X13552173Y11582175D01*
X13397326Y11685640D01*
X13265640Y11817326D01*
X13162175Y11972173D01*
X13090907Y12144230D01*
X13054575Y12326884D01*
X13054575Y12513116D01*
X13090907Y12695770D01*
X13162175Y12867827D01*
X13265640Y13022674D01*
X13397326Y13154360D01*
X13552173Y13257825D01*
X13724230Y13329093D01*
X13906884Y13365425D01*
X14093116Y13365425D01*
X14275770Y13329093D01*
G37*
G36*
X39275770Y13329093D02*
G01*
X39447827Y13257825D01*
X39602674Y13154360D01*
X39734360Y13022674D01*
X39837825Y12867827D01*
X39909093Y12695770D01*
X39945425Y12513116D01*
X39945425Y12326884D01*
X39909093Y12144230D01*
X39837825Y11972173D01*
X39734360Y11817326D01*
X39602674Y11685640D01*
X39447827Y11582175D01*
X39275770Y11510907D01*
X39093116Y11474575D01*
X38906884Y11474575D01*
X38724230Y11510907D01*
X38552173Y11582175D01*
X38397326Y11685640D01*
X38265640Y11817326D01*
X38162175Y11972173D01*
X38090907Y12144230D01*
X38054575Y12326884D01*
X38054575Y12513116D01*
X38090907Y12695770D01*
X38162175Y12867827D01*
X38265640Y13022674D01*
X38397326Y13154360D01*
X38552173Y13257825D01*
X38724230Y13329093D01*
X38906884Y13365425D01*
X39093116Y13365425D01*
X39275770Y13329093D01*
G37*
G36*
X2275770Y13449093D02*
G01*
X2447827Y13377825D01*
X2602674Y13274360D01*
X2734360Y13142674D01*
X2837825Y12987827D01*
X2909093Y12815770D01*
X2945425Y12633116D01*
X2945425Y12446884D01*
X2909093Y12264230D01*
X2837825Y12092173D01*
X2734360Y11937326D01*
X2602674Y11805640D01*
X2447827Y11702175D01*
X2275770Y11630907D01*
X2093116Y11594575D01*
X1906884Y11594575D01*
X1724230Y11630907D01*
X1552173Y11702175D01*
X1397326Y11805640D01*
X1265640Y11937326D01*
X1162175Y12092173D01*
X1090907Y12264230D01*
X1054575Y12446884D01*
X1054575Y12633116D01*
X1090907Y12815770D01*
X1162175Y12987827D01*
X1265640Y13142674D01*
X1397326Y13274360D01*
X1552173Y13377825D01*
X1724230Y13449093D01*
X1906884Y13485425D01*
X2093116Y13485425D01*
X2275770Y13449093D01*
G37*
G36*
X45038268Y15592388D02*
G01*
X45070711Y15570711D01*
X45092388Y15538268D01*
X45100000Y15500000D01*
X45100000Y13500000D01*
X45092388Y13461732D01*
X45070711Y13429289D01*
X45038268Y13407612D01*
X45000000Y13400000D01*
X43000000Y13400000D01*
X42961732Y13407612D01*
X42929289Y13429289D01*
X42907612Y13461732D01*
X42900000Y13500000D01*
X42900000Y15500000D01*
X42907612Y15538268D01*
X42929289Y15570711D01*
X42961732Y15592388D01*
X43000000Y15600000D01*
X45000000Y15600000D01*
X45038268Y15592388D01*
G37*
G36*
X51856790Y15569607D02*
G01*
X52020952Y15516267D01*
X52174748Y15437904D01*
X52314393Y15336447D01*
X52436447Y15214393D01*
X52537904Y15074748D01*
X52616267Y14920952D01*
X52669607Y14756790D01*
X52696609Y14586305D01*
X52696609Y14413695D01*
X52669607Y14243210D01*
X52616267Y14079048D01*
X52537904Y13925252D01*
X52436447Y13785607D01*
X52314393Y13663553D01*
X52174748Y13562096D01*
X52020952Y13483733D01*
X51856790Y13430393D01*
X51686305Y13403391D01*
X51513695Y13403391D01*
X51343210Y13430393D01*
X51179048Y13483733D01*
X51025252Y13562096D01*
X50885607Y13663553D01*
X50763553Y13785607D01*
X50662096Y13925252D01*
X50583733Y14079048D01*
X50530393Y14243210D01*
X50503391Y14413695D01*
X50503391Y14586305D01*
X50530393Y14756790D01*
X50583733Y14920952D01*
X50662096Y15074748D01*
X50763553Y15214393D01*
X50885607Y15336447D01*
X51025252Y15437904D01*
X51179048Y15516267D01*
X51343210Y15569607D01*
X51513695Y15596609D01*
X51686305Y15596609D01*
X51856790Y15569607D01*
G37*
G36*
X14275770Y15869093D02*
G01*
X14447827Y15797825D01*
X14602674Y15694360D01*
X14734360Y15562674D01*
X14837825Y15407827D01*
X14909093Y15235770D01*
X14945425Y15053116D01*
X14945425Y14866884D01*
X14909093Y14684230D01*
X14837825Y14512173D01*
X14734360Y14357326D01*
X14602674Y14225640D01*
X14447827Y14122175D01*
X14275770Y14050907D01*
X14093116Y14014575D01*
X13906884Y14014575D01*
X13724230Y14050907D01*
X13552173Y14122175D01*
X13397326Y14225640D01*
X13265640Y14357326D01*
X13162175Y14512173D01*
X13090907Y14684230D01*
X13054575Y14866884D01*
X13054575Y15053116D01*
X13090907Y15235770D01*
X13162175Y15407827D01*
X13265640Y15562674D01*
X13397326Y15694360D01*
X13552173Y15797825D01*
X13724230Y15869093D01*
X13906884Y15905425D01*
X14093116Y15905425D01*
X14275770Y15869093D01*
G37*
G36*
X39275770Y15869093D02*
G01*
X39447827Y15797825D01*
X39602674Y15694360D01*
X39734360Y15562674D01*
X39837825Y15407827D01*
X39909093Y15235770D01*
X39945425Y15053116D01*
X39945425Y14866884D01*
X39909093Y14684230D01*
X39837825Y14512173D01*
X39734360Y14357326D01*
X39602674Y14225640D01*
X39447827Y14122175D01*
X39275770Y14050907D01*
X39093116Y14014575D01*
X38906884Y14014575D01*
X38724230Y14050907D01*
X38552173Y14122175D01*
X38397326Y14225640D01*
X38265640Y14357326D01*
X38162175Y14512173D01*
X38090907Y14684230D01*
X38054575Y14866884D01*
X38054575Y15053116D01*
X38090907Y15235770D01*
X38162175Y15407827D01*
X38265640Y15562674D01*
X38397326Y15694360D01*
X38552173Y15797825D01*
X38724230Y15869093D01*
X38906884Y15905425D01*
X39093116Y15905425D01*
X39275770Y15869093D01*
G37*
G36*
X2888268Y17402388D02*
G01*
X2920711Y17380711D01*
X2942388Y17348268D01*
X2950000Y17310000D01*
X2950000Y15610000D01*
X2942388Y15571732D01*
X2920711Y15539289D01*
X2888268Y15517612D01*
X2850000Y15510000D01*
X1150000Y15510000D01*
X1111732Y15517612D01*
X1079289Y15539289D01*
X1057612Y15571732D01*
X1050000Y15610000D01*
X1050000Y17310000D01*
X1057612Y17348268D01*
X1079289Y17380711D01*
X1111732Y17402388D01*
X1150000Y17410000D01*
X2850000Y17410000D01*
X2888268Y17402388D01*
G37*
G36*
X14275770Y18409093D02*
G01*
X14447827Y18337825D01*
X14602674Y18234360D01*
X14734360Y18102674D01*
X14837825Y17947827D01*
X14909093Y17775770D01*
X14945425Y17593116D01*
X14945425Y17406884D01*
X14909093Y17224230D01*
X14837825Y17052173D01*
X14734360Y16897326D01*
X14602674Y16765640D01*
X14447827Y16662175D01*
X14275770Y16590907D01*
X14093116Y16554575D01*
X13906884Y16554575D01*
X13724230Y16590907D01*
X13552173Y16662175D01*
X13397326Y16765640D01*
X13265640Y16897326D01*
X13162175Y17052173D01*
X13090907Y17224230D01*
X13054575Y17406884D01*
X13054575Y17593116D01*
X13090907Y17775770D01*
X13162175Y17947827D01*
X13265640Y18102674D01*
X13397326Y18234360D01*
X13552173Y18337825D01*
X13724230Y18409093D01*
X13906884Y18445425D01*
X14093116Y18445425D01*
X14275770Y18409093D01*
G37*
G36*
X39275770Y18409093D02*
G01*
X39447827Y18337825D01*
X39602674Y18234360D01*
X39734360Y18102674D01*
X39837825Y17947827D01*
X39909093Y17775770D01*
X39945425Y17593116D01*
X39945425Y17406884D01*
X39909093Y17224230D01*
X39837825Y17052173D01*
X39734360Y16897326D01*
X39602674Y16765640D01*
X39447827Y16662175D01*
X39275770Y16590907D01*
X39093116Y16554575D01*
X38906884Y16554575D01*
X38724230Y16590907D01*
X38552173Y16662175D01*
X38397326Y16765640D01*
X38265640Y16897326D01*
X38162175Y17052173D01*
X38090907Y17224230D01*
X38054575Y17406884D01*
X38054575Y17593116D01*
X38090907Y17775770D01*
X38162175Y17947827D01*
X38265640Y18102674D01*
X38397326Y18234360D01*
X38552173Y18337825D01*
X38724230Y18409093D01*
X38906884Y18445425D01*
X39093116Y18445425D01*
X39275770Y18409093D01*
G37*
G36*
X2275770Y19909093D02*
G01*
X2447827Y19837825D01*
X2602674Y19734360D01*
X2734360Y19602674D01*
X2837825Y19447827D01*
X2909093Y19275770D01*
X2945425Y19093116D01*
X2945425Y18906884D01*
X2909093Y18724230D01*
X2837825Y18552173D01*
X2734360Y18397326D01*
X2602674Y18265640D01*
X2447827Y18162175D01*
X2275770Y18090907D01*
X2093116Y18054575D01*
X1906884Y18054575D01*
X1724230Y18090907D01*
X1552173Y18162175D01*
X1397326Y18265640D01*
X1265640Y18397326D01*
X1162175Y18552173D01*
X1090907Y18724230D01*
X1054575Y18906884D01*
X1054575Y19093116D01*
X1090907Y19275770D01*
X1162175Y19447827D01*
X1265640Y19602674D01*
X1397326Y19734360D01*
X1552173Y19837825D01*
X1724230Y19909093D01*
X1906884Y19945425D01*
X2093116Y19945425D01*
X2275770Y19909093D01*
G37*
G36*
X14275770Y20949093D02*
G01*
X14447827Y20877825D01*
X14602674Y20774360D01*
X14734360Y20642674D01*
X14837825Y20487827D01*
X14909093Y20315770D01*
X14945425Y20133116D01*
X14945425Y19946884D01*
X14909093Y19764230D01*
X14837825Y19592173D01*
X14734360Y19437326D01*
X14602674Y19305640D01*
X14447827Y19202175D01*
X14275770Y19130907D01*
X14093116Y19094575D01*
X13906884Y19094575D01*
X13724230Y19130907D01*
X13552173Y19202175D01*
X13397326Y19305640D01*
X13265640Y19437326D01*
X13162175Y19592173D01*
X13090907Y19764230D01*
X13054575Y19946884D01*
X13054575Y20133116D01*
X13090907Y20315770D01*
X13162175Y20487827D01*
X13265640Y20642674D01*
X13397326Y20774360D01*
X13552173Y20877825D01*
X13724230Y20949093D01*
X13906884Y20985425D01*
X14093116Y20985425D01*
X14275770Y20949093D01*
G37*
G36*
X39275770Y20949093D02*
G01*
X39447827Y20877825D01*
X39602674Y20774360D01*
X39734360Y20642674D01*
X39837825Y20487827D01*
X39909093Y20315770D01*
X39945425Y20133116D01*
X39945425Y19946884D01*
X39909093Y19764230D01*
X39837825Y19592173D01*
X39734360Y19437326D01*
X39602674Y19305640D01*
X39447827Y19202175D01*
X39275770Y19130907D01*
X39093116Y19094575D01*
X38906884Y19094575D01*
X38724230Y19130907D01*
X38552173Y19202175D01*
X38397326Y19305640D01*
X38265640Y19437326D01*
X38162175Y19592173D01*
X38090907Y19764230D01*
X38054575Y19946884D01*
X38054575Y20133116D01*
X38090907Y20315770D01*
X38162175Y20487827D01*
X38265640Y20642674D01*
X38397326Y20774360D01*
X38552173Y20877825D01*
X38724230Y20949093D01*
X38906884Y20985425D01*
X39093116Y20985425D01*
X39275770Y20949093D01*
G37*
G36*
X2275770Y22449093D02*
G01*
X2447827Y22377825D01*
X2602674Y22274360D01*
X2734360Y22142674D01*
X2837825Y21987827D01*
X2909093Y21815770D01*
X2945425Y21633116D01*
X2945425Y21446884D01*
X2909093Y21264230D01*
X2837825Y21092173D01*
X2734360Y20937326D01*
X2602674Y20805640D01*
X2447827Y20702175D01*
X2275770Y20630907D01*
X2093116Y20594575D01*
X1906884Y20594575D01*
X1724230Y20630907D01*
X1552173Y20702175D01*
X1397326Y20805640D01*
X1265640Y20937326D01*
X1162175Y21092173D01*
X1090907Y21264230D01*
X1054575Y21446884D01*
X1054575Y21633116D01*
X1090907Y21815770D01*
X1162175Y21987827D01*
X1265640Y22142674D01*
X1397326Y22274360D01*
X1552173Y22377825D01*
X1724230Y22449093D01*
X1906884Y22485425D01*
X2093116Y22485425D01*
X2275770Y22449093D01*
G37*
G36*
X14275770Y23489093D02*
G01*
X14447827Y23417825D01*
X14602674Y23314360D01*
X14734360Y23182674D01*
X14837825Y23027827D01*
X14909093Y22855770D01*
X14945425Y22673116D01*
X14945425Y22486884D01*
X14909093Y22304230D01*
X14837825Y22132173D01*
X14734360Y21977326D01*
X14602674Y21845640D01*
X14447827Y21742175D01*
X14275770Y21670907D01*
X14093116Y21634575D01*
X13906884Y21634575D01*
X13724230Y21670907D01*
X13552173Y21742175D01*
X13397326Y21845640D01*
X13265640Y21977326D01*
X13162175Y22132173D01*
X13090907Y22304230D01*
X13054575Y22486884D01*
X13054575Y22673116D01*
X13090907Y22855770D01*
X13162175Y23027827D01*
X13265640Y23182674D01*
X13397326Y23314360D01*
X13552173Y23417825D01*
X13724230Y23489093D01*
X13906884Y23525425D01*
X14093116Y23525425D01*
X14275770Y23489093D01*
G37*
G36*
X39275770Y23489093D02*
G01*
X39447827Y23417825D01*
X39602674Y23314360D01*
X39734360Y23182674D01*
X39837825Y23027827D01*
X39909093Y22855770D01*
X39945425Y22673116D01*
X39945425Y22486884D01*
X39909093Y22304230D01*
X39837825Y22132173D01*
X39734360Y21977326D01*
X39602674Y21845640D01*
X39447827Y21742175D01*
X39275770Y21670907D01*
X39093116Y21634575D01*
X38906884Y21634575D01*
X38724230Y21670907D01*
X38552173Y21742175D01*
X38397326Y21845640D01*
X38265640Y21977326D01*
X38162175Y22132173D01*
X38090907Y22304230D01*
X38054575Y22486884D01*
X38054575Y22673116D01*
X38090907Y22855770D01*
X38162175Y23027827D01*
X38265640Y23182674D01*
X38397326Y23314360D01*
X38552173Y23417825D01*
X38724230Y23489093D01*
X38906884Y23525425D01*
X39093116Y23525425D01*
X39275770Y23489093D01*
G37*
G36*
X2275770Y24989093D02*
G01*
X2447827Y24917825D01*
X2602674Y24814360D01*
X2734360Y24682674D01*
X2837825Y24527827D01*
X2909093Y24355770D01*
X2945425Y24173116D01*
X2945425Y23986884D01*
X2909093Y23804230D01*
X2837825Y23632173D01*
X2734360Y23477326D01*
X2602674Y23345640D01*
X2447827Y23242175D01*
X2275770Y23170907D01*
X2093116Y23134575D01*
X1906884Y23134575D01*
X1724230Y23170907D01*
X1552173Y23242175D01*
X1397326Y23345640D01*
X1265640Y23477326D01*
X1162175Y23632173D01*
X1090907Y23804230D01*
X1054575Y23986884D01*
X1054575Y24173116D01*
X1090907Y24355770D01*
X1162175Y24527827D01*
X1265640Y24682674D01*
X1397326Y24814360D01*
X1552173Y24917825D01*
X1724230Y24989093D01*
X1906884Y25025425D01*
X2093116Y25025425D01*
X2275770Y24989093D01*
G37*
G36*
X14275770Y26029093D02*
G01*
X14447827Y25957825D01*
X14602674Y25854360D01*
X14734360Y25722674D01*
X14837825Y25567827D01*
X14909093Y25395770D01*
X14945425Y25213116D01*
X14945425Y25026884D01*
X14909093Y24844230D01*
X14837825Y24672173D01*
X14734360Y24517326D01*
X14602674Y24385640D01*
X14447827Y24282175D01*
X14275770Y24210907D01*
X14093116Y24174575D01*
X13906884Y24174575D01*
X13724230Y24210907D01*
X13552173Y24282175D01*
X13397326Y24385640D01*
X13265640Y24517326D01*
X13162175Y24672173D01*
X13090907Y24844230D01*
X13054575Y25026884D01*
X13054575Y25213116D01*
X13090907Y25395770D01*
X13162175Y25567827D01*
X13265640Y25722674D01*
X13397326Y25854360D01*
X13552173Y25957825D01*
X13724230Y26029093D01*
X13906884Y26065425D01*
X14093116Y26065425D01*
X14275770Y26029093D01*
G37*
G36*
X39275770Y26029093D02*
G01*
X39447827Y25957825D01*
X39602674Y25854360D01*
X39734360Y25722674D01*
X39837825Y25567827D01*
X39909093Y25395770D01*
X39945425Y25213116D01*
X39945425Y25026884D01*
X39909093Y24844230D01*
X39837825Y24672173D01*
X39734360Y24517326D01*
X39602674Y24385640D01*
X39447827Y24282175D01*
X39275770Y24210907D01*
X39093116Y24174575D01*
X38906884Y24174575D01*
X38724230Y24210907D01*
X38552173Y24282175D01*
X38397326Y24385640D01*
X38265640Y24517326D01*
X38162175Y24672173D01*
X38090907Y24844230D01*
X38054575Y25026884D01*
X38054575Y25213116D01*
X38090907Y25395770D01*
X38162175Y25567827D01*
X38265640Y25722674D01*
X38397326Y25854360D01*
X38552173Y25957825D01*
X38724230Y26029093D01*
X38906884Y26065425D01*
X39093116Y26065425D01*
X39275770Y26029093D01*
G37*
G36*
X54815770Y27369093D02*
G01*
X54987827Y27297825D01*
X55142674Y27194360D01*
X55274360Y27062674D01*
X55377825Y26907827D01*
X55449093Y26735770D01*
X55485425Y26553116D01*
X55485425Y26366884D01*
X55449093Y26184230D01*
X55377825Y26012173D01*
X55274360Y25857326D01*
X55142674Y25725640D01*
X54987827Y25622175D01*
X54815770Y25550907D01*
X54633116Y25514575D01*
X54446884Y25514575D01*
X54264230Y25550907D01*
X54092173Y25622175D01*
X53937326Y25725640D01*
X53805640Y25857326D01*
X53702175Y26012173D01*
X53630907Y26184230D01*
X53594575Y26366884D01*
X53594575Y26553116D01*
X53630907Y26735770D01*
X53702175Y26907827D01*
X53805640Y27062674D01*
X53937326Y27194360D01*
X54092173Y27297825D01*
X54264230Y27369093D01*
X54446884Y27405425D01*
X54633116Y27405425D01*
X54815770Y27369093D01*
G37*
G36*
X2275770Y27529093D02*
G01*
X2447827Y27457825D01*
X2602674Y27354360D01*
X2734360Y27222674D01*
X2837825Y27067827D01*
X2909093Y26895770D01*
X2945425Y26713116D01*
X2945425Y26526884D01*
X2909093Y26344230D01*
X2837825Y26172173D01*
X2734360Y26017326D01*
X2602674Y25885640D01*
X2447827Y25782175D01*
X2275770Y25710907D01*
X2093116Y25674575D01*
X1906884Y25674575D01*
X1724230Y25710907D01*
X1552173Y25782175D01*
X1397326Y25885640D01*
X1265640Y26017326D01*
X1162175Y26172173D01*
X1090907Y26344230D01*
X1054575Y26526884D01*
X1054575Y26713116D01*
X1090907Y26895770D01*
X1162175Y27067827D01*
X1265640Y27222674D01*
X1397326Y27354360D01*
X1552173Y27457825D01*
X1724230Y27529093D01*
X1906884Y27565425D01*
X2093116Y27565425D01*
X2275770Y27529093D01*
G37*
G36*
X14275770Y28569093D02*
G01*
X14447827Y28497825D01*
X14602674Y28394360D01*
X14734360Y28262674D01*
X14837825Y28107827D01*
X14909093Y27935770D01*
X14945425Y27753116D01*
X14945425Y27566884D01*
X14909093Y27384230D01*
X14837825Y27212173D01*
X14734360Y27057326D01*
X14602674Y26925640D01*
X14447827Y26822175D01*
X14275770Y26750907D01*
X14093116Y26714575D01*
X13906884Y26714575D01*
X13724230Y26750907D01*
X13552173Y26822175D01*
X13397326Y26925640D01*
X13265640Y27057326D01*
X13162175Y27212173D01*
X13090907Y27384230D01*
X13054575Y27566884D01*
X13054575Y27753116D01*
X13090907Y27935770D01*
X13162175Y28107827D01*
X13265640Y28262674D01*
X13397326Y28394360D01*
X13552173Y28497825D01*
X13724230Y28569093D01*
X13906884Y28605425D01*
X14093116Y28605425D01*
X14275770Y28569093D01*
G37*
G36*
X39275770Y28569093D02*
G01*
X39447827Y28497825D01*
X39602674Y28394360D01*
X39734360Y28262674D01*
X39837825Y28107827D01*
X39909093Y27935770D01*
X39945425Y27753116D01*
X39945425Y27566884D01*
X39909093Y27384230D01*
X39837825Y27212173D01*
X39734360Y27057326D01*
X39602674Y26925640D01*
X39447827Y26822175D01*
X39275770Y26750907D01*
X39093116Y26714575D01*
X38906884Y26714575D01*
X38724230Y26750907D01*
X38552173Y26822175D01*
X38397326Y26925640D01*
X38265640Y27057326D01*
X38162175Y27212173D01*
X38090907Y27384230D01*
X38054575Y27566884D01*
X38054575Y27753116D01*
X38090907Y27935770D01*
X38162175Y28107827D01*
X38265640Y28262674D01*
X38397326Y28394360D01*
X38552173Y28497825D01*
X38724230Y28569093D01*
X38906884Y28605425D01*
X39093116Y28605425D01*
X39275770Y28569093D01*
G37*
G36*
X55428268Y29942388D02*
G01*
X55460711Y29920711D01*
X55482388Y29888268D01*
X55490000Y29850000D01*
X55490000Y28150000D01*
X55482388Y28111732D01*
X55460711Y28079289D01*
X55428268Y28057612D01*
X55390000Y28050000D01*
X53690000Y28050000D01*
X53651732Y28057612D01*
X53619289Y28079289D01*
X53597612Y28111732D01*
X53590000Y28150000D01*
X53590000Y29850000D01*
X53597612Y29888268D01*
X53619289Y29920711D01*
X53651732Y29942388D01*
X53690000Y29950000D01*
X55390000Y29950000D01*
X55428268Y29942388D01*
G37*
G36*
X2275770Y30069093D02*
G01*
X2447827Y29997825D01*
X2602674Y29894360D01*
X2734360Y29762674D01*
X2837825Y29607827D01*
X2909093Y29435770D01*
X2945425Y29253116D01*
X2945425Y29066884D01*
X2909093Y28884230D01*
X2837825Y28712173D01*
X2734360Y28557326D01*
X2602674Y28425640D01*
X2447827Y28322175D01*
X2275770Y28250907D01*
X2093116Y28214575D01*
X1906884Y28214575D01*
X1724230Y28250907D01*
X1552173Y28322175D01*
X1397326Y28425640D01*
X1265640Y28557326D01*
X1162175Y28712173D01*
X1090907Y28884230D01*
X1054575Y29066884D01*
X1054575Y29253116D01*
X1090907Y29435770D01*
X1162175Y29607827D01*
X1265640Y29762674D01*
X1397326Y29894360D01*
X1552173Y29997825D01*
X1724230Y30069093D01*
X1906884Y30105425D01*
X2093116Y30105425D01*
X2275770Y30069093D01*
G37*
G36*
X14275770Y31109093D02*
G01*
X14447827Y31037825D01*
X14602674Y30934360D01*
X14734360Y30802674D01*
X14837825Y30647827D01*
X14909093Y30475770D01*
X14945425Y30293116D01*
X14945425Y30106884D01*
X14909093Y29924230D01*
X14837825Y29752173D01*
X14734360Y29597326D01*
X14602674Y29465640D01*
X14447827Y29362175D01*
X14275770Y29290907D01*
X14093116Y29254575D01*
X13906884Y29254575D01*
X13724230Y29290907D01*
X13552173Y29362175D01*
X13397326Y29465640D01*
X13265640Y29597326D01*
X13162175Y29752173D01*
X13090907Y29924230D01*
X13054575Y30106884D01*
X13054575Y30293116D01*
X13090907Y30475770D01*
X13162175Y30647827D01*
X13265640Y30802674D01*
X13397326Y30934360D01*
X13552173Y31037825D01*
X13724230Y31109093D01*
X13906884Y31145425D01*
X14093116Y31145425D01*
X14275770Y31109093D01*
G37*
G36*
X39275770Y31109093D02*
G01*
X39447827Y31037825D01*
X39602674Y30934360D01*
X39734360Y30802674D01*
X39837825Y30647827D01*
X39909093Y30475770D01*
X39945425Y30293116D01*
X39945425Y30106884D01*
X39909093Y29924230D01*
X39837825Y29752173D01*
X39734360Y29597326D01*
X39602674Y29465640D01*
X39447827Y29362175D01*
X39275770Y29290907D01*
X39093116Y29254575D01*
X38906884Y29254575D01*
X38724230Y29290907D01*
X38552173Y29362175D01*
X38397326Y29465640D01*
X38265640Y29597326D01*
X38162175Y29752173D01*
X38090907Y29924230D01*
X38054575Y30106884D01*
X38054575Y30293116D01*
X38090907Y30475770D01*
X38162175Y30647827D01*
X38265640Y30802674D01*
X38397326Y30934360D01*
X38552173Y31037825D01*
X38724230Y31109093D01*
X38906884Y31145425D01*
X39093116Y31145425D01*
X39275770Y31109093D01*
G37*
G36*
X14275770Y33649093D02*
G01*
X14447827Y33577825D01*
X14602674Y33474360D01*
X14734360Y33342674D01*
X14837825Y33187827D01*
X14909093Y33015770D01*
X14945425Y32833116D01*
X14945425Y32646884D01*
X14909093Y32464230D01*
X14837825Y32292173D01*
X14734360Y32137326D01*
X14602674Y32005640D01*
X14447827Y31902175D01*
X14275770Y31830907D01*
X14093116Y31794575D01*
X13906884Y31794575D01*
X13724230Y31830907D01*
X13552173Y31902175D01*
X13397326Y32005640D01*
X13265640Y32137326D01*
X13162175Y32292173D01*
X13090907Y32464230D01*
X13054575Y32646884D01*
X13054575Y32833116D01*
X13090907Y33015770D01*
X13162175Y33187827D01*
X13265640Y33342674D01*
X13397326Y33474360D01*
X13552173Y33577825D01*
X13724230Y33649093D01*
X13906884Y33685425D01*
X14093116Y33685425D01*
X14275770Y33649093D01*
G37*
G36*
X39275770Y33649093D02*
G01*
X39447827Y33577825D01*
X39602674Y33474360D01*
X39734360Y33342674D01*
X39837825Y33187827D01*
X39909093Y33015770D01*
X39945425Y32833116D01*
X39945425Y32646884D01*
X39909093Y32464230D01*
X39837825Y32292173D01*
X39734360Y32137326D01*
X39602674Y32005640D01*
X39447827Y31902175D01*
X39275770Y31830907D01*
X39093116Y31794575D01*
X38906884Y31794575D01*
X38724230Y31830907D01*
X38552173Y31902175D01*
X38397326Y32005640D01*
X38265640Y32137326D01*
X38162175Y32292173D01*
X38090907Y32464230D01*
X38054575Y32646884D01*
X38054575Y32833116D01*
X38090907Y33015770D01*
X38162175Y33187827D01*
X38265640Y33342674D01*
X38397326Y33474360D01*
X38552173Y33577825D01*
X38724230Y33649093D01*
X38906884Y33685425D01*
X39093116Y33685425D01*
X39275770Y33649093D01*
G37*
G36*
X2888268Y33902388D02*
G01*
X2920711Y33880711D01*
X2942388Y33848268D01*
X2950000Y33810000D01*
X2950000Y32110000D01*
X2942388Y32071732D01*
X2920711Y32039289D01*
X2888268Y32017612D01*
X2850000Y32010000D01*
X1150000Y32010000D01*
X1111732Y32017612D01*
X1079289Y32039289D01*
X1057612Y32071732D01*
X1050000Y32110000D01*
X1050000Y33810000D01*
X1057612Y33848268D01*
X1079289Y33880711D01*
X1111732Y33902388D01*
X1150000Y33910000D01*
X2850000Y33910000D01*
X2888268Y33902388D01*
G37*
G36*
X14275770Y36189093D02*
G01*
X14447827Y36117825D01*
X14602674Y36014360D01*
X14734360Y35882674D01*
X14837825Y35727827D01*
X14909093Y35555770D01*
X14945425Y35373116D01*
X14945425Y35186884D01*
X14909093Y35004230D01*
X14837825Y34832173D01*
X14734360Y34677326D01*
X14602674Y34545640D01*
X14447827Y34442175D01*
X14275770Y34370907D01*
X14093116Y34334575D01*
X13906884Y34334575D01*
X13724230Y34370907D01*
X13552173Y34442175D01*
X13397326Y34545640D01*
X13265640Y34677326D01*
X13162175Y34832173D01*
X13090907Y35004230D01*
X13054575Y35186884D01*
X13054575Y35373116D01*
X13090907Y35555770D01*
X13162175Y35727827D01*
X13265640Y35882674D01*
X13397326Y36014360D01*
X13552173Y36117825D01*
X13724230Y36189093D01*
X13906884Y36225425D01*
X14093116Y36225425D01*
X14275770Y36189093D01*
G37*
G36*
X39275770Y36189093D02*
G01*
X39447827Y36117825D01*
X39602674Y36014360D01*
X39734360Y35882674D01*
X39837825Y35727827D01*
X39909093Y35555770D01*
X39945425Y35373116D01*
X39945425Y35186884D01*
X39909093Y35004230D01*
X39837825Y34832173D01*
X39734360Y34677326D01*
X39602674Y34545640D01*
X39447827Y34442175D01*
X39275770Y34370907D01*
X39093116Y34334575D01*
X38906884Y34334575D01*
X38724230Y34370907D01*
X38552173Y34442175D01*
X38397326Y34545640D01*
X38265640Y34677326D01*
X38162175Y34832173D01*
X38090907Y35004230D01*
X38054575Y35186884D01*
X38054575Y35373116D01*
X38090907Y35555770D01*
X38162175Y35727827D01*
X38265640Y35882674D01*
X38397326Y36014360D01*
X38552173Y36117825D01*
X38724230Y36189093D01*
X38906884Y36225425D01*
X39093116Y36225425D01*
X39275770Y36189093D01*
G37*
G36*
X2275770Y36409093D02*
G01*
X2447827Y36337825D01*
X2602674Y36234360D01*
X2734360Y36102674D01*
X2837825Y35947827D01*
X2909093Y35775770D01*
X2945425Y35593116D01*
X2945425Y35406884D01*
X2909093Y35224230D01*
X2837825Y35052173D01*
X2734360Y34897326D01*
X2602674Y34765640D01*
X2447827Y34662175D01*
X2275770Y34590907D01*
X2093116Y34554575D01*
X1906884Y34554575D01*
X1724230Y34590907D01*
X1552173Y34662175D01*
X1397326Y34765640D01*
X1265640Y34897326D01*
X1162175Y35052173D01*
X1090907Y35224230D01*
X1054575Y35406884D01*
X1054575Y35593116D01*
X1090907Y35775770D01*
X1162175Y35947827D01*
X1265640Y36102674D01*
X1397326Y36234360D01*
X1552173Y36337825D01*
X1724230Y36409093D01*
X1906884Y36445425D01*
X2093116Y36445425D01*
X2275770Y36409093D01*
G37*
G36*
X53584587Y36880353D02*
G01*
X53770125Y36843447D01*
X53944898Y36771054D01*
X54102190Y36665955D01*
X54235955Y36532190D01*
X54341054Y36374898D01*
X54413447Y36200125D01*
X54450353Y36014587D01*
X54450353Y35825413D01*
X54413447Y35639875D01*
X54341054Y35465102D01*
X54235955Y35307810D01*
X54102190Y35174045D01*
X53944898Y35068946D01*
X53770125Y34996553D01*
X53584587Y34959647D01*
X53490000Y34955000D01*
X53488768Y34955000D01*
X53191232Y34955000D01*
X53190000Y34955000D01*
X53095413Y34959647D01*
X52909875Y34996553D01*
X52735102Y35068946D01*
X52577810Y35174045D01*
X52444045Y35307810D01*
X52338946Y35465102D01*
X52266553Y35639875D01*
X52229647Y35825413D01*
X52229647Y36014587D01*
X52266553Y36200125D01*
X52338946Y36374898D01*
X52444045Y36532190D01*
X52577810Y36665955D01*
X52735102Y36771054D01*
X52909875Y36843447D01*
X53095413Y36880353D01*
X53190000Y36885000D01*
X53490000Y36885000D01*
X53584587Y36880353D01*
G37*
G36*
X14275770Y38729093D02*
G01*
X14447827Y38657825D01*
X14602674Y38554360D01*
X14734360Y38422674D01*
X14837825Y38267827D01*
X14909093Y38095770D01*
X14945425Y37913116D01*
X14945425Y37726884D01*
X14909093Y37544230D01*
X14837825Y37372173D01*
X14734360Y37217326D01*
X14602674Y37085640D01*
X14447827Y36982175D01*
X14275770Y36910907D01*
X14093116Y36874575D01*
X13906884Y36874575D01*
X13724230Y36910907D01*
X13552173Y36982175D01*
X13397326Y37085640D01*
X13265640Y37217326D01*
X13162175Y37372173D01*
X13090907Y37544230D01*
X13054575Y37726884D01*
X13054575Y37913116D01*
X13090907Y38095770D01*
X13162175Y38267827D01*
X13265640Y38422674D01*
X13397326Y38554360D01*
X13552173Y38657825D01*
X13724230Y38729093D01*
X13906884Y38765425D01*
X14093116Y38765425D01*
X14275770Y38729093D01*
G37*
G36*
X39275770Y38729093D02*
G01*
X39447827Y38657825D01*
X39602674Y38554360D01*
X39734360Y38422674D01*
X39837825Y38267827D01*
X39909093Y38095770D01*
X39945425Y37913116D01*
X39945425Y37726884D01*
X39909093Y37544230D01*
X39837825Y37372173D01*
X39734360Y37217326D01*
X39602674Y37085640D01*
X39447827Y36982175D01*
X39275770Y36910907D01*
X39093116Y36874575D01*
X38906884Y36874575D01*
X38724230Y36910907D01*
X38552173Y36982175D01*
X38397326Y37085640D01*
X38265640Y37217326D01*
X38162175Y37372173D01*
X38090907Y37544230D01*
X38054575Y37726884D01*
X38054575Y37913116D01*
X38090907Y38095770D01*
X38162175Y38267827D01*
X38265640Y38422674D01*
X38397326Y38554360D01*
X38552173Y38657825D01*
X38724230Y38729093D01*
X38906884Y38765425D01*
X39093116Y38765425D01*
X39275770Y38729093D01*
G37*
G36*
X53584587Y39420353D02*
G01*
X53770125Y39383447D01*
X53944898Y39311054D01*
X54102190Y39205955D01*
X54235955Y39072190D01*
X54341054Y38914898D01*
X54413447Y38740125D01*
X54450353Y38554587D01*
X54450353Y38365413D01*
X54413447Y38179875D01*
X54341054Y38005102D01*
X54235955Y37847810D01*
X54102190Y37714045D01*
X53944898Y37608946D01*
X53770125Y37536553D01*
X53584587Y37499647D01*
X53490000Y37495000D01*
X53488768Y37495000D01*
X53191232Y37495000D01*
X53190000Y37495000D01*
X53095413Y37499647D01*
X52909875Y37536553D01*
X52735102Y37608946D01*
X52577810Y37714045D01*
X52444045Y37847810D01*
X52338946Y38005102D01*
X52266553Y38179875D01*
X52229647Y38365413D01*
X52229647Y38554587D01*
X52266553Y38740125D01*
X52338946Y38914898D01*
X52444045Y39072190D01*
X52577810Y39205955D01*
X52735102Y39311054D01*
X52909875Y39383447D01*
X53095413Y39420353D01*
X53190000Y39425000D01*
X53490000Y39425000D01*
X53584587Y39420353D01*
G37*
G36*
X55688685Y39082011D02*
G01*
X55806408Y39033249D01*
X55912356Y38962457D01*
X56002457Y38872356D01*
X56073249Y38766408D01*
X56122011Y38648685D01*
X56146870Y38523711D01*
X56146870Y38396289D01*
X56122011Y38271315D01*
X56073249Y38153592D01*
X56002457Y38047644D01*
X55912356Y37957543D01*
X55806408Y37886751D01*
X55688685Y37837989D01*
X55563711Y37813130D01*
X55436289Y37813130D01*
X55311315Y37837989D01*
X55193592Y37886751D01*
X55087644Y37957543D01*
X54997543Y38047644D01*
X54926751Y38153592D01*
X54877989Y38271315D01*
X54853130Y38396289D01*
X54853130Y38523711D01*
X54877989Y38648685D01*
X54926751Y38766408D01*
X54997543Y38872356D01*
X55087644Y38962457D01*
X55193592Y39033249D01*
X55311315Y39082011D01*
X55436289Y39106870D01*
X55563711Y39106870D01*
X55688685Y39082011D01*
G37*
G36*
X14275770Y41269093D02*
G01*
X14447827Y41197825D01*
X14602674Y41094360D01*
X14734360Y40962674D01*
X14837825Y40807827D01*
X14909093Y40635770D01*
X14945425Y40453116D01*
X14945425Y40266884D01*
X14909093Y40084230D01*
X14837825Y39912173D01*
X14734360Y39757326D01*
X14602674Y39625640D01*
X14447827Y39522175D01*
X14275770Y39450907D01*
X14093116Y39414575D01*
X13906884Y39414575D01*
X13724230Y39450907D01*
X13552173Y39522175D01*
X13397326Y39625640D01*
X13265640Y39757326D01*
X13162175Y39912173D01*
X13090907Y40084230D01*
X13054575Y40266884D01*
X13054575Y40453116D01*
X13090907Y40635770D01*
X13162175Y40807827D01*
X13265640Y40962674D01*
X13397326Y41094360D01*
X13552173Y41197825D01*
X13724230Y41269093D01*
X13906884Y41305425D01*
X14093116Y41305425D01*
X14275770Y41269093D01*
G37*
G36*
X39275770Y41269093D02*
G01*
X39447827Y41197825D01*
X39602674Y41094360D01*
X39734360Y40962674D01*
X39837825Y40807827D01*
X39909093Y40635770D01*
X39945425Y40453116D01*
X39945425Y40266884D01*
X39909093Y40084230D01*
X39837825Y39912173D01*
X39734360Y39757326D01*
X39602674Y39625640D01*
X39447827Y39522175D01*
X39275770Y39450907D01*
X39093116Y39414575D01*
X38906884Y39414575D01*
X38724230Y39450907D01*
X38552173Y39522175D01*
X38397326Y39625640D01*
X38265640Y39757326D01*
X38162175Y39912173D01*
X38090907Y40084230D01*
X38054575Y40266884D01*
X38054575Y40453116D01*
X38090907Y40635770D01*
X38162175Y40807827D01*
X38265640Y40962674D01*
X38397326Y41094360D01*
X38552173Y41197825D01*
X38724230Y41269093D01*
X38906884Y41305425D01*
X39093116Y41305425D01*
X39275770Y41269093D01*
G37*
G36*
X53584587Y41960353D02*
G01*
X53770125Y41923447D01*
X53944898Y41851054D01*
X54102190Y41745955D01*
X54235955Y41612190D01*
X54341054Y41454898D01*
X54413447Y41280125D01*
X54450353Y41094587D01*
X54450353Y40905413D01*
X54413447Y40719875D01*
X54341054Y40545102D01*
X54235955Y40387810D01*
X54102190Y40254045D01*
X53944898Y40148946D01*
X53770125Y40076553D01*
X53584587Y40039647D01*
X53490000Y40035000D01*
X53488768Y40035000D01*
X53191232Y40035000D01*
X53190000Y40035000D01*
X53095413Y40039647D01*
X52909875Y40076553D01*
X52735102Y40148946D01*
X52577810Y40254045D01*
X52444045Y40387810D01*
X52338946Y40545102D01*
X52266553Y40719875D01*
X52229647Y40905413D01*
X52229647Y41094587D01*
X52266553Y41280125D01*
X52338946Y41454898D01*
X52444045Y41612190D01*
X52577810Y41745955D01*
X52735102Y41851054D01*
X52909875Y41923447D01*
X53095413Y41960353D01*
X53190000Y41965000D01*
X53490000Y41965000D01*
X53584587Y41960353D01*
G37*
G36*
X14275770Y43809093D02*
G01*
X14447827Y43737825D01*
X14602674Y43634360D01*
X14734360Y43502674D01*
X14837825Y43347827D01*
X14909093Y43175770D01*
X14945425Y42993116D01*
X14945425Y42806884D01*
X14909093Y42624230D01*
X14837825Y42452173D01*
X14734360Y42297326D01*
X14602674Y42165640D01*
X14447827Y42062175D01*
X14275770Y41990907D01*
X14093116Y41954575D01*
X13906884Y41954575D01*
X13724230Y41990907D01*
X13552173Y42062175D01*
X13397326Y42165640D01*
X13265640Y42297326D01*
X13162175Y42452173D01*
X13090907Y42624230D01*
X13054575Y42806884D01*
X13054575Y42993116D01*
X13090907Y43175770D01*
X13162175Y43347827D01*
X13265640Y43502674D01*
X13397326Y43634360D01*
X13552173Y43737825D01*
X13724230Y43809093D01*
X13906884Y43845425D01*
X14093116Y43845425D01*
X14275770Y43809093D01*
G37*
G36*
X39275770Y43809093D02*
G01*
X39447827Y43737825D01*
X39602674Y43634360D01*
X39734360Y43502674D01*
X39837825Y43347827D01*
X39909093Y43175770D01*
X39945425Y42993116D01*
X39945425Y42806884D01*
X39909093Y42624230D01*
X39837825Y42452173D01*
X39734360Y42297326D01*
X39602674Y42165640D01*
X39447827Y42062175D01*
X39275770Y41990907D01*
X39093116Y41954575D01*
X38906884Y41954575D01*
X38724230Y41990907D01*
X38552173Y42062175D01*
X38397326Y42165640D01*
X38265640Y42297326D01*
X38162175Y42452173D01*
X38090907Y42624230D01*
X38054575Y42806884D01*
X38054575Y42993116D01*
X38090907Y43175770D01*
X38162175Y43347827D01*
X38265640Y43502674D01*
X38397326Y43634360D01*
X38552173Y43737825D01*
X38724230Y43809093D01*
X38906884Y43845425D01*
X39093116Y43845425D01*
X39275770Y43809093D01*
G37*
G36*
X54393268Y44497388D02*
G01*
X54425711Y44475711D01*
X54447388Y44443268D01*
X54455000Y44405000D01*
X54455000Y42675000D01*
X54447388Y42636732D01*
X54425711Y42604289D01*
X54393268Y42582612D01*
X54355000Y42575000D01*
X52325000Y42575000D01*
X52286732Y42582612D01*
X52254289Y42604289D01*
X52232612Y42636732D01*
X52225000Y42675000D01*
X52225000Y44405000D01*
X52232612Y44443268D01*
X52254289Y44475711D01*
X52286732Y44497388D01*
X52325000Y44505000D01*
X54355000Y44505000D01*
X54393268Y44497388D01*
G37*
G36*
X2888268Y45322388D02*
G01*
X2920711Y45300711D01*
X2942388Y45268268D01*
X2950000Y45230000D01*
X2950000Y43530000D01*
X2942388Y43491732D01*
X2920711Y43459289D01*
X2888268Y43437612D01*
X2850000Y43430000D01*
X1150000Y43430000D01*
X1111732Y43437612D01*
X1079289Y43459289D01*
X1057612Y43491732D01*
X1050000Y43530000D01*
X1050000Y45230000D01*
X1057612Y45268268D01*
X1079289Y45300711D01*
X1111732Y45322388D01*
X1150000Y45330000D01*
X2850000Y45330000D01*
X2888268Y45322388D01*
G37*
G36*
X14275770Y46349093D02*
G01*
X14447827Y46277825D01*
X14602674Y46174360D01*
X14734360Y46042674D01*
X14837825Y45887827D01*
X14909093Y45715770D01*
X14945425Y45533116D01*
X14945425Y45346884D01*
X14909093Y45164230D01*
X14837825Y44992173D01*
X14734360Y44837326D01*
X14602674Y44705640D01*
X14447827Y44602175D01*
X14275770Y44530907D01*
X14093116Y44494575D01*
X13906884Y44494575D01*
X13724230Y44530907D01*
X13552173Y44602175D01*
X13397326Y44705640D01*
X13265640Y44837326D01*
X13162175Y44992173D01*
X13090907Y45164230D01*
X13054575Y45346884D01*
X13054575Y45533116D01*
X13090907Y45715770D01*
X13162175Y45887827D01*
X13265640Y46042674D01*
X13397326Y46174360D01*
X13552173Y46277825D01*
X13724230Y46349093D01*
X13906884Y46385425D01*
X14093116Y46385425D01*
X14275770Y46349093D01*
G37*
G36*
X39275770Y46349093D02*
G01*
X39447827Y46277825D01*
X39602674Y46174360D01*
X39734360Y46042674D01*
X39837825Y45887827D01*
X39909093Y45715770D01*
X39945425Y45533116D01*
X39945425Y45346884D01*
X39909093Y45164230D01*
X39837825Y44992173D01*
X39734360Y44837326D01*
X39602674Y44705640D01*
X39447827Y44602175D01*
X39275770Y44530907D01*
X39093116Y44494575D01*
X38906884Y44494575D01*
X38724230Y44530907D01*
X38552173Y44602175D01*
X38397326Y44705640D01*
X38265640Y44837326D01*
X38162175Y44992173D01*
X38090907Y45164230D01*
X38054575Y45346884D01*
X38054575Y45533116D01*
X38090907Y45715770D01*
X38162175Y45887827D01*
X38265640Y46042674D01*
X38397326Y46174360D01*
X38552173Y46277825D01*
X38724230Y46349093D01*
X38906884Y46385425D01*
X39093116Y46385425D01*
X39275770Y46349093D01*
G37*
G36*
X2275770Y47829093D02*
G01*
X2447827Y47757825D01*
X2602674Y47654360D01*
X2734360Y47522674D01*
X2837825Y47367827D01*
X2909093Y47195770D01*
X2945425Y47013116D01*
X2945425Y46826884D01*
X2909093Y46644230D01*
X2837825Y46472173D01*
X2734360Y46317326D01*
X2602674Y46185640D01*
X2447827Y46082175D01*
X2275770Y46010907D01*
X2093116Y45974575D01*
X1906884Y45974575D01*
X1724230Y46010907D01*
X1552173Y46082175D01*
X1397326Y46185640D01*
X1265640Y46317326D01*
X1162175Y46472173D01*
X1090907Y46644230D01*
X1054575Y46826884D01*
X1054575Y47013116D01*
X1090907Y47195770D01*
X1162175Y47367827D01*
X1265640Y47522674D01*
X1397326Y47654360D01*
X1552173Y47757825D01*
X1724230Y47829093D01*
X1906884Y47865425D01*
X2093116Y47865425D01*
X2275770Y47829093D01*
G37*
G36*
X54775770Y48369093D02*
G01*
X54947827Y48297825D01*
X55102674Y48194360D01*
X55234360Y48062674D01*
X55337825Y47907827D01*
X55409093Y47735770D01*
X55445425Y47553116D01*
X55445425Y47366884D01*
X55409093Y47184230D01*
X55337825Y47012173D01*
X55234360Y46857326D01*
X55102674Y46725640D01*
X54947827Y46622175D01*
X54775770Y46550907D01*
X54593116Y46514575D01*
X54406884Y46514575D01*
X54224230Y46550907D01*
X54052173Y46622175D01*
X53897326Y46725640D01*
X53765640Y46857326D01*
X53662175Y47012173D01*
X53590907Y47184230D01*
X53554575Y47366884D01*
X53554575Y47553116D01*
X53590907Y47735770D01*
X53662175Y47907827D01*
X53765640Y48062674D01*
X53897326Y48194360D01*
X54052173Y48297825D01*
X54224230Y48369093D01*
X54406884Y48405425D01*
X54593116Y48405425D01*
X54775770Y48369093D01*
G37*
G36*
X14275770Y48889093D02*
G01*
X14447827Y48817825D01*
X14602674Y48714360D01*
X14734360Y48582674D01*
X14837825Y48427827D01*
X14909093Y48255770D01*
X14945425Y48073116D01*
X14945425Y47886884D01*
X14909093Y47704230D01*
X14837825Y47532173D01*
X14734360Y47377326D01*
X14602674Y47245640D01*
X14447827Y47142175D01*
X14275770Y47070907D01*
X14093116Y47034575D01*
X13906884Y47034575D01*
X13724230Y47070907D01*
X13552173Y47142175D01*
X13397326Y47245640D01*
X13265640Y47377326D01*
X13162175Y47532173D01*
X13090907Y47704230D01*
X13054575Y47886884D01*
X13054575Y48073116D01*
X13090907Y48255770D01*
X13162175Y48427827D01*
X13265640Y48582674D01*
X13397326Y48714360D01*
X13552173Y48817825D01*
X13724230Y48889093D01*
X13906884Y48925425D01*
X14093116Y48925425D01*
X14275770Y48889093D01*
G37*
G36*
X39275770Y48889093D02*
G01*
X39447827Y48817825D01*
X39602674Y48714360D01*
X39734360Y48582674D01*
X39837825Y48427827D01*
X39909093Y48255770D01*
X39945425Y48073116D01*
X39945425Y47886884D01*
X39909093Y47704230D01*
X39837825Y47532173D01*
X39734360Y47377326D01*
X39602674Y47245640D01*
X39447827Y47142175D01*
X39275770Y47070907D01*
X39093116Y47034575D01*
X38906884Y47034575D01*
X38724230Y47070907D01*
X38552173Y47142175D01*
X38397326Y47245640D01*
X38265640Y47377326D01*
X38162175Y47532173D01*
X38090907Y47704230D01*
X38054575Y47886884D01*
X38054575Y48073116D01*
X38090907Y48255770D01*
X38162175Y48427827D01*
X38265640Y48582674D01*
X38397326Y48714360D01*
X38552173Y48817825D01*
X38724230Y48889093D01*
X38906884Y48925425D01*
X39093116Y48925425D01*
X39275770Y48889093D01*
G37*
G36*
X2275770Y50369093D02*
G01*
X2447827Y50297825D01*
X2602674Y50194360D01*
X2734360Y50062674D01*
X2837825Y49907827D01*
X2909093Y49735770D01*
X2945425Y49553116D01*
X2945425Y49366884D01*
X2909093Y49184230D01*
X2837825Y49012173D01*
X2734360Y48857326D01*
X2602674Y48725640D01*
X2447827Y48622175D01*
X2275770Y48550907D01*
X2093116Y48514575D01*
X1906884Y48514575D01*
X1724230Y48550907D01*
X1552173Y48622175D01*
X1397326Y48725640D01*
X1265640Y48857326D01*
X1162175Y49012173D01*
X1090907Y49184230D01*
X1054575Y49366884D01*
X1054575Y49553116D01*
X1090907Y49735770D01*
X1162175Y49907827D01*
X1265640Y50062674D01*
X1397326Y50194360D01*
X1552173Y50297825D01*
X1724230Y50369093D01*
X1906884Y50405425D01*
X2093116Y50405425D01*
X2275770Y50369093D01*
G37*
G36*
X55388268Y50942388D02*
G01*
X55420711Y50920711D01*
X55442388Y50888268D01*
X55450000Y50850000D01*
X55450000Y49150000D01*
X55442388Y49111732D01*
X55420711Y49079289D01*
X55388268Y49057612D01*
X55350000Y49050000D01*
X53650000Y49050000D01*
X53611732Y49057612D01*
X53579289Y49079289D01*
X53557612Y49111732D01*
X53550000Y49150000D01*
X53550000Y50850000D01*
X53557612Y50888268D01*
X53579289Y50920711D01*
X53611732Y50942388D01*
X53650000Y50950000D01*
X55350000Y50950000D01*
X55388268Y50942388D01*
G37*
G36*
X14275770Y51429093D02*
G01*
X14447827Y51357825D01*
X14602674Y51254360D01*
X14734360Y51122674D01*
X14837825Y50967827D01*
X14909093Y50795770D01*
X14945425Y50613116D01*
X14945425Y50426884D01*
X14909093Y50244230D01*
X14837825Y50072173D01*
X14734360Y49917326D01*
X14602674Y49785640D01*
X14447827Y49682175D01*
X14275770Y49610907D01*
X14093116Y49574575D01*
X13906884Y49574575D01*
X13724230Y49610907D01*
X13552173Y49682175D01*
X13397326Y49785640D01*
X13265640Y49917326D01*
X13162175Y50072173D01*
X13090907Y50244230D01*
X13054575Y50426884D01*
X13054575Y50613116D01*
X13090907Y50795770D01*
X13162175Y50967827D01*
X13265640Y51122674D01*
X13397326Y51254360D01*
X13552173Y51357825D01*
X13724230Y51429093D01*
X13906884Y51465425D01*
X14093116Y51465425D01*
X14275770Y51429093D01*
G37*
G36*
X39275770Y51429093D02*
G01*
X39447827Y51357825D01*
X39602674Y51254360D01*
X39734360Y51122674D01*
X39837825Y50967827D01*
X39909093Y50795770D01*
X39945425Y50613116D01*
X39945425Y50426884D01*
X39909093Y50244230D01*
X39837825Y50072173D01*
X39734360Y49917326D01*
X39602674Y49785640D01*
X39447827Y49682175D01*
X39275770Y49610907D01*
X39093116Y49574575D01*
X38906884Y49574575D01*
X38724230Y49610907D01*
X38552173Y49682175D01*
X38397326Y49785640D01*
X38265640Y49917326D01*
X38162175Y50072173D01*
X38090907Y50244230D01*
X38054575Y50426884D01*
X38054575Y50613116D01*
X38090907Y50795770D01*
X38162175Y50967827D01*
X38265640Y51122674D01*
X38397326Y51254360D01*
X38552173Y51357825D01*
X38724230Y51429093D01*
X38906884Y51465425D01*
X39093116Y51465425D01*
X39275770Y51429093D01*
G37*
G36*
X2275770Y52909093D02*
G01*
X2447827Y52837825D01*
X2602674Y52734360D01*
X2734360Y52602674D01*
X2837825Y52447827D01*
X2909093Y52275770D01*
X2945425Y52093116D01*
X2945425Y51906884D01*
X2909093Y51724230D01*
X2837825Y51552173D01*
X2734360Y51397326D01*
X2602674Y51265640D01*
X2447827Y51162175D01*
X2275770Y51090907D01*
X2093116Y51054575D01*
X1906884Y51054575D01*
X1724230Y51090907D01*
X1552173Y51162175D01*
X1397326Y51265640D01*
X1265640Y51397326D01*
X1162175Y51552173D01*
X1090907Y51724230D01*
X1054575Y51906884D01*
X1054575Y52093116D01*
X1090907Y52275770D01*
X1162175Y52447827D01*
X1265640Y52602674D01*
X1397326Y52734360D01*
X1552173Y52837825D01*
X1724230Y52909093D01*
X1906884Y52945425D01*
X2093116Y52945425D01*
X2275770Y52909093D01*
G37*
G36*
X2275770Y55449093D02*
G01*
X2447827Y55377825D01*
X2602674Y55274360D01*
X2734360Y55142674D01*
X2837825Y54987827D01*
X2909093Y54815770D01*
X2945425Y54633116D01*
X2945425Y54446884D01*
X2909093Y54264230D01*
X2837825Y54092173D01*
X2734360Y53937326D01*
X2602674Y53805640D01*
X2447827Y53702175D01*
X2275770Y53630907D01*
X2093116Y53594575D01*
X1906884Y53594575D01*
X1724230Y53630907D01*
X1552173Y53702175D01*
X1397326Y53805640D01*
X1265640Y53937326D01*
X1162175Y54092173D01*
X1090907Y54264230D01*
X1054575Y54446884D01*
X1054575Y54633116D01*
X1090907Y54815770D01*
X1162175Y54987827D01*
X1265640Y55142674D01*
X1397326Y55274360D01*
X1552173Y55377825D01*
X1724230Y55449093D01*
X1906884Y55485425D01*
X2093116Y55485425D01*
X2275770Y55449093D01*
G37*
G36*
X2275770Y57989093D02*
G01*
X2447827Y57917825D01*
X2602674Y57814360D01*
X2734360Y57682674D01*
X2837825Y57527827D01*
X2909093Y57355770D01*
X2945425Y57173116D01*
X2945425Y56986884D01*
X2909093Y56804230D01*
X2837825Y56632173D01*
X2734360Y56477326D01*
X2602674Y56345640D01*
X2447827Y56242175D01*
X2275770Y56170907D01*
X2093116Y56134575D01*
X1906884Y56134575D01*
X1724230Y56170907D01*
X1552173Y56242175D01*
X1397326Y56345640D01*
X1265640Y56477326D01*
X1162175Y56632173D01*
X1090907Y56804230D01*
X1054575Y56986884D01*
X1054575Y57173116D01*
X1090907Y57355770D01*
X1162175Y57527827D01*
X1265640Y57682674D01*
X1397326Y57814360D01*
X1552173Y57917825D01*
X1724230Y57989093D01*
X1906884Y58025425D01*
X2093116Y58025425D01*
X2275770Y57989093D01*
G37*
G36*
X42969017Y76560439D02*
G01*
X43275139Y76490569D01*
X43571514Y76386863D01*
X43854413Y76250626D01*
X44120280Y76083570D01*
X44365770Y75887798D01*
X44587798Y75665770D01*
X44783570Y75420280D01*
X44950626Y75154413D01*
X45086863Y74871514D01*
X45190569Y74575139D01*
X45260439Y74269017D01*
X45295595Y73956997D01*
X45295595Y73643003D01*
X45260439Y73330983D01*
X45190569Y73024861D01*
X45086863Y72728486D01*
X44950626Y72445587D01*
X44783570Y72179720D01*
X44587798Y71934230D01*
X44365770Y71712202D01*
X44120280Y71516430D01*
X43854413Y71349374D01*
X43571514Y71213137D01*
X43275139Y71109431D01*
X42969017Y71039561D01*
X42656997Y71004405D01*
X42343003Y71004405D01*
X42030983Y71039561D01*
X41724861Y71109431D01*
X41428486Y71213137D01*
X41145587Y71349374D01*
X40879720Y71516430D01*
X40634230Y71712202D01*
X40412202Y71934230D01*
X40216430Y72179720D01*
X40049374Y72445587D01*
X39913137Y72728486D01*
X39809431Y73024861D01*
X39739561Y73330983D01*
X39704405Y73643003D01*
X39704405Y73956997D01*
X39739561Y74269017D01*
X39809431Y74575139D01*
X39913137Y74871514D01*
X40049374Y75154413D01*
X40216430Y75420280D01*
X40412202Y75665770D01*
X40634230Y75887798D01*
X40879720Y76083570D01*
X41145587Y76250626D01*
X41428486Y76386863D01*
X41724861Y76490569D01*
X42030983Y76560439D01*
X42343003Y76595595D01*
X42656997Y76595595D01*
X42969017Y76560439D01*
G37*
M02*
