%TF.GenerationSoftware,KiCad,Pcbnew,9.0.7*%
%TF.CreationDate,2026-03-04T17:13:05+01:00*%
%TF.ProjectId,haboxesp,6861626f-7865-4737-902e-6b696361645f,rev?*%
%TF.SameCoordinates,PX76bb820PY77afa60*%
%TF.FileFunction,Copper,L2,Bot*%
%TF.FilePolarity,Positive*%
%FSLAX46Y46*%
G04 Gerber Fmt 4.6, Leading zero omitted, Abs format (unit mm)*
G04 Created by KiCad (PCBNEW 9.0.7) date 2026-03-04 17:13:05*
%MOMM*%
%LPD*%
G01*
G04 APERTURE LIST*
%TA.AperFunction,ComponentPad*%
%ADD10R,2.000000X2.000000*%
%TD*%
%TA.AperFunction,ComponentPad*%
%ADD11C,2.000000*%
%TD*%
%TA.AperFunction,ComponentPad*%
%ADD12R,1.700000X1.700000*%
%TD*%
%TA.AperFunction,ComponentPad*%
%ADD13C,1.700000*%
%TD*%
%TA.AperFunction,ComponentPad*%
%ADD14R,2.030000X1.730000*%
%TD*%
%TA.AperFunction,ComponentPad*%
%ADD15O,2.030000X1.730000*%
%TD*%
%TA.AperFunction,ComponentPad*%
%ADD16C,0.800000*%
%TD*%
%TA.AperFunction,ComponentPad*%
%ADD17C,5.400000*%
%TD*%
%TA.AperFunction,ViaPad*%
%ADD18C,0.700000*%
%TD*%
%TA.AperFunction,ViaPad*%
%ADD19C,0.600000*%
%TD*%
%TA.AperFunction,Conductor*%
%ADD20C,0.750000*%
%TD*%
%TA.AperFunction,Conductor*%
%ADD21C,0.300000*%
%TD*%
%TA.AperFunction,Conductor*%
%ADD22C,0.500000*%
%TD*%
G04 APERTURE END LIST*
D10*
%TO.P,BZ1,1,+*%
%TO.N,/Buzzer*%
X44000000Y14500000D03*
D11*
%TO.P,BZ1,2,-*%
%TO.N,GND*%
X51600000Y14500000D03*
%TD*%
D12*
%TO.P,J1,1,Pin_1*%
%TO.N,/Button*%
X53000000Y3000000D03*
D13*
%TO.P,J1,2,Pin_2*%
%TO.N,GND*%
X50460000Y3000000D03*
%TD*%
D12*
%TO.P,J4,1,TX*%
%TO.N,/UART-TX0*%
X2000000Y16460000D03*
D13*
%TO.P,J4,2,RX*%
%TO.N,/UART-RX0*%
X2000000Y19000000D03*
%TO.P,J4,3,EN*%
%TO.N,/EN*%
X2000000Y21540000D03*
%TO.P,J4,4,G00*%
%TO.N,/G00*%
X2000000Y24080000D03*
%TO.P,J4,5,3V3*%
%TO.N,+3.3V*%
X2000000Y26620000D03*
%TO.P,J4,6,GND*%
%TO.N,GND*%
X2000000Y29160000D03*
%TD*%
D14*
%TO.P,M1,1,-*%
%TO.N,GND*%
X53340000Y43540000D03*
D15*
%TO.P,M1,2,+*%
%TO.N,+5V*%
X53340000Y41000000D03*
%TO.P,M1,3,Tacho*%
%TO.N,/Fan vit*%
X53340000Y38460000D03*
%TO.P,M1,4,PWM*%
%TO.N,/Fan PWM*%
X53340000Y35920000D03*
%TD*%
D12*
%TO.P,Jesp2,1,GND*%
%TO.N,GND*%
X14000000Y4800000D03*
D13*
%TO.P,Jesp2,2,G23*%
%TO.N,/EP-MOSI*%
X14000000Y7340000D03*
%TO.P,Jesp2,3,G22*%
%TO.N,/I2C-SCL*%
X14000000Y9880000D03*
%TO.P,Jesp2,4,G01*%
%TO.N,/UART-TX0*%
X14000000Y12420000D03*
%TO.P,Jesp2,5,G03*%
%TO.N,/UART-RX0*%
X14000000Y14960000D03*
%TO.P,Jesp2,6,G21*%
%TO.N,/I2C-SDA*%
X14000000Y17500000D03*
%TO.P,Jesp2,7,GND*%
%TO.N,GND*%
X14000000Y20040000D03*
%TO.P,Jesp2,8,G19*%
%TO.N,/DIM*%
X14000000Y22580000D03*
%TO.P,Jesp2,9,G18*%
%TO.N,/EP-SCK*%
X14000000Y25120000D03*
%TO.P,Jesp2,10,G05*%
%TO.N,/VEN*%
X14000000Y27660000D03*
%TO.P,Jesp2,11,G17*%
%TO.N,/UART-TX*%
X14000000Y30200000D03*
%TO.P,Jesp2,12,G16*%
%TO.N,/UART-RX*%
X14000000Y32740000D03*
%TO.P,Jesp2,13,G04*%
%TO.N,/G04*%
X14000000Y35280000D03*
%TO.P,Jesp2,14,G00*%
%TO.N,/G00*%
X14000000Y37820000D03*
%TO.P,Jesp2,15,G02*%
%TO.N,/G02*%
X14000000Y40360000D03*
%TO.P,Jesp2,16,G15*%
%TO.N,/TP-RST*%
X14000000Y42900000D03*
%TO.P,Jesp2,17,SD1*%
%TO.N,unconnected-(Jesp2-SD1-Pad17)*%
X14000000Y45440000D03*
%TO.P,Jesp2,18,SD0*%
%TO.N,unconnected-(Jesp2-SD0-Pad18)*%
X14000000Y47980000D03*
%TO.P,Jesp2,19,CLK*%
%TO.N,unconnected-(Jesp2-CLK-Pad19)*%
X14000000Y50520000D03*
%TD*%
D16*
%TO.P,MH1,1,1*%
%TO.N,GND*%
X40475000Y73800000D03*
X41068109Y75231891D03*
X41068109Y72368109D03*
X42500000Y75825000D03*
D17*
X42500000Y73800000D03*
D16*
X42500000Y71775000D03*
X43931891Y75231891D03*
X43931891Y72368109D03*
X44525000Y73800000D03*
%TD*%
D12*
%TO.P,Jesp1,1,+3.3V*%
%TO.N,+3.3V*%
X39000000Y4800000D03*
D13*
%TO.P,Jesp1,2,EN*%
%TO.N,/EN*%
X39000000Y7340000D03*
%TO.P,Jesp1,3,VP*%
%TO.N,/IRQ*%
X39000000Y9880000D03*
%TO.P,Jesp1,4,SN*%
%TO.N,/SN*%
X39000000Y12420000D03*
%TO.P,Jesp1,5,G34*%
%TO.N,/Button*%
X39000000Y14960000D03*
%TO.P,Jesp1,6,G35*%
%TO.N,/TP-INT*%
X39000000Y17500000D03*
%TO.P,Jesp1,7,G32*%
%TO.N,/Buzzer*%
X39000000Y20040000D03*
%TO.P,Jesp1,8,G33*%
%TO.N,/J2 Jump*%
X39000000Y22580000D03*
%TO.P,Jesp1,9,G25*%
%TO.N,/Fan PWM*%
X39000000Y25120000D03*
%TO.P,Jesp1,10,G26*%
%TO.N,/Fan vit*%
X39000000Y27660000D03*
%TO.P,Jesp1,11,G27*%
%TO.N,/EP-CS*%
X39000000Y30200000D03*
%TO.P,Jesp1,12,G14*%
%TO.N,/EP-D{slash}C*%
X39000000Y32740000D03*
%TO.P,Jesp1,13,G12*%
%TO.N,/EP-RES*%
X39000000Y35280000D03*
%TO.P,Jesp1,14,GND*%
%TO.N,GND*%
X39000000Y37820000D03*
%TO.P,Jesp1,15,G13*%
%TO.N,/EP-BUSY*%
X39000000Y40360000D03*
%TO.P,Jesp1,16,SD2*%
%TO.N,unconnected-(Jesp1-SD2-Pad16)*%
X39000000Y42900000D03*
%TO.P,Jesp1,17,SD3*%
%TO.N,unconnected-(Jesp1-SD3-Pad17)*%
X39000000Y45440000D03*
%TO.P,Jesp1,18,CMD*%
%TO.N,unconnected-(Jesp1-CMD-Pad18)*%
X39000000Y47980000D03*
%TO.P,Jesp1,19,VIN*%
%TO.N,+5V*%
X39000000Y50520000D03*
%TD*%
D12*
%TO.P,J_NFC1,1,SDA*%
%TO.N,/I2C-SDA*%
X2000000Y44380000D03*
D13*
%TO.P,J_NFC1,2,SCL*%
%TO.N,/I2C-SCL*%
X2000000Y46920000D03*
%TO.P,J_NFC1,3,IRQ*%
%TO.N,/IRQ*%
X2000000Y49460000D03*
%TO.P,J_NFC1,4,VEN*%
%TO.N,/VEN*%
X2000000Y52000000D03*
%TO.P,J_NFC1,5,VDD*%
%TO.N,+3.3V*%
X2000000Y54540000D03*
%TO.P,J_NFC1,6,GND*%
%TO.N,GND*%
X2000000Y57080000D03*
%TD*%
D12*
%TO.P,J_BME1,1,VCC*%
%TO.N,+3.3V*%
X2000000Y4920000D03*
D13*
%TO.P,J_BME1,2,GND*%
%TO.N,GND*%
X2000000Y7460000D03*
%TO.P,J_BME1,3,SCL*%
%TO.N,/I2C-SCL*%
X2000000Y10000000D03*
%TO.P,J_BME1,4,SDA*%
%TO.N,/I2C-SDA*%
X2000000Y12540000D03*
%TD*%
D12*
%TO.P,J6,1,Pin_1*%
%TO.N,+5V*%
X54500000Y50000000D03*
D13*
%TO.P,J6,2,Pin_2*%
%TO.N,GND*%
X54500000Y47460000D03*
%TD*%
D12*
%TO.P,J2,1,Pin_1*%
%TO.N,Net-(J2-Pin_1)*%
X54540000Y29000000D03*
D13*
%TO.P,J2,2,Pin_2*%
%TO.N,Net-(J2-Pin_2)*%
X54540000Y26460000D03*
%TD*%
D16*
%TO.P,MH2,1,1*%
%TO.N,GND*%
X20700000Y5900000D03*
X21293109Y7331891D03*
X21293109Y4468109D03*
X22725000Y7925000D03*
D17*
X22725000Y5900000D03*
D16*
X22725000Y3875000D03*
X24156891Y7331891D03*
X24156891Y4468109D03*
X24750000Y5900000D03*
%TD*%
D12*
%TO.P,J5,1,Pin_1*%
%TO.N,/UART-TX*%
X2000000Y32960000D03*
D13*
%TO.P,J5,2,Pin_2*%
%TO.N,/UART-RX*%
X2000000Y35500000D03*
%TD*%
D18*
%TO.N,GND*%
X3750000Y6500000D03*
X3750000Y8500000D03*
X20750000Y63000000D03*
X20250000Y64000000D03*
X33750000Y61000000D03*
X38000000Y62750000D03*
%TO.N,+3.3V*%
X26800000Y45800000D03*
%TO.N,GND*%
X55500000Y45600000D03*
X54200000Y45600000D03*
X52300000Y48600000D03*
X52400000Y45700000D03*
X29000000Y52600000D03*
X35600000Y52600000D03*
X26200000Y57500000D03*
X24300000Y64000000D03*
X22800000Y64000000D03*
X21300000Y64000000D03*
X19300000Y64000000D03*
X20100000Y61900000D03*
X40600000Y57300000D03*
X39500000Y55900000D03*
X40400000Y53200000D03*
X44700000Y53400000D03*
X34900000Y57400000D03*
X36300000Y57300000D03*
X37900000Y57300000D03*
%TO.N,/DIM*%
X17910000Y26490000D03*
X23710000Y32290000D03*
X36000000Y46100000D03*
%TO.N,/EP-SCK*%
X17690000Y28810000D03*
X18500000Y55300000D03*
%TO.N,GND*%
X8200000Y31300000D03*
X8200000Y30100000D03*
X8200000Y28700000D03*
%TO.N,+3.3V*%
X46200000Y9500000D03*
X44400000Y7700000D03*
X48000000Y31900000D03*
X48000000Y28500000D03*
%TO.N,GND*%
X7800000Y55700000D03*
X7800000Y57100000D03*
X7800000Y58100000D03*
X33000000Y60100000D03*
X32000000Y60100000D03*
X36600000Y62300000D03*
X35200000Y62300000D03*
X33800000Y62300000D03*
X6200000Y63300000D03*
X4600000Y64700000D03*
X7800000Y64700000D03*
X7600000Y62100000D03*
X4800000Y62300000D03*
X7400000Y59900000D03*
X45750000Y37250000D03*
X43250000Y37250000D03*
X43000000Y46000000D03*
X46000000Y46000000D03*
X46000000Y48500000D03*
X43000000Y48500000D03*
X44500000Y36000000D03*
X51250000Y26000000D03*
X51400000Y30500000D03*
X48000000Y61250000D03*
X49750000Y63500000D03*
X30750000Y72700000D03*
X41750000Y2750000D03*
X56000000Y61250000D03*
X49000000Y62250000D03*
X37500000Y64000000D03*
X33000000Y64000000D03*
X46250000Y66500000D03*
X43000000Y47250000D03*
X36000000Y64000000D03*
X23750000Y57750000D03*
X52250000Y33000000D03*
X15400000Y64000000D03*
X52000000Y60500000D03*
X5200000Y70000000D03*
X54000000Y61250000D03*
X54500000Y68000000D03*
X39000000Y64000000D03*
D19*
X17500000Y72650000D03*
D18*
X55000000Y62250000D03*
X49500000Y67500000D03*
X53500000Y69000000D03*
X46000000Y47250000D03*
X45250000Y67500000D03*
D19*
X16625000Y74125000D03*
D18*
X54500000Y8000000D03*
X52800000Y29700000D03*
X34500000Y64000000D03*
X42750000Y3750000D03*
X30439491Y64013783D03*
X16400000Y64900000D03*
D19*
X15500000Y72750000D03*
D18*
%TO.N,+3.3V*%
X5100000Y44700000D03*
X8200000Y72500000D03*
X17250000Y70750000D03*
X19300000Y73600000D03*
X22250000Y61500000D03*
X6200000Y72475000D03*
X22250000Y55750000D03*
X5100000Y41500000D03*
D19*
%TO.N,/G00*%
X11250000Y29700000D03*
D18*
%TO.N,/EN*%
X5000000Y7250000D03*
D19*
%TO.N,/EP-CS*%
X26750000Y73000000D03*
X30500000Y51250000D03*
%TO.N,/EP-D{slash}C*%
X31750000Y51250000D03*
X28500000Y64000000D03*
%TO.N,/EP-BUSY*%
X29500000Y61250000D03*
X34250000Y51250000D03*
D18*
%TO.N,/TP-INT*%
X8000000Y68500000D03*
X9625000Y66875000D03*
%TO.N,/IRQ*%
X10250000Y55500000D03*
%TO.N,/TP-RST*%
X6250000Y68000000D03*
D19*
%TO.N,/EP-RES*%
X33000000Y51250000D03*
X27750000Y68000000D03*
D18*
%TO.N,/EP-MOSI*%
X25200000Y52000000D03*
D19*
X28000000Y74500000D03*
%TO.N,/I2C-SCL*%
X9250000Y52250000D03*
D18*
%TO.N,/I2C-SDA*%
X9040000Y12540000D03*
D19*
%TO.N,/EP-SCK*%
X24875000Y75250000D03*
D18*
%TO.N,/VEN*%
X9500000Y40000000D03*
X4750000Y46650000D03*
%TD*%
D20*
%TO.N,+3.3V*%
X22250000Y50350000D02*
X22250000Y55750000D01*
X26800000Y45800000D02*
X22250000Y50350000D01*
D21*
%TO.N,/EP-MOSI*%
X25750000Y74500000D02*
X28000000Y74500000D01*
X24000000Y70300000D02*
X24000000Y72750000D01*
X25200000Y69100000D02*
X24000000Y70300000D01*
X25200000Y52000000D02*
X25200000Y69100000D01*
X24000000Y72750000D02*
X25750000Y74500000D01*
%TO.N,/DIM*%
X17910000Y26490000D02*
X14000000Y22580000D01*
%TO.N,/EP-SCK*%
X17690000Y28810000D02*
X14000000Y25120000D01*
%TO.N,/EP-CS*%
X25900000Y73000000D02*
X26750000Y73000000D01*
X25200000Y70500000D02*
X25200000Y72300000D01*
X26500000Y58750000D02*
X26500000Y69200000D01*
X30500000Y54750000D02*
X26500000Y58750000D01*
X25200000Y72300000D02*
X25900000Y73000000D01*
X30500000Y51250000D02*
X30500000Y54750000D01*
X26500000Y69200000D02*
X25200000Y70500000D01*
%TO.N,/G00*%
X4920000Y27000000D02*
X2000000Y24080000D01*
X11250000Y29700000D02*
X11250000Y28500000D01*
X9750000Y27000000D02*
X4920000Y27000000D01*
X11250000Y28500000D02*
X9750000Y27000000D01*
%TO.N,/UART-TX*%
X2000000Y32960000D02*
X11240000Y32960000D01*
X11240000Y32960000D02*
X14000000Y30200000D01*
%TO.N,/UART-RX*%
X11240000Y35500000D02*
X14000000Y32740000D01*
X2000000Y35500000D02*
X11240000Y35500000D01*
D22*
%TO.N,+3.3V*%
X44400000Y7700000D02*
X46200000Y9500000D01*
X48000000Y28500000D02*
X48000000Y31900000D01*
D21*
%TO.N,/Button*%
X39000000Y14960000D02*
X39040000Y14960000D01*
%TO.N,+3.3V*%
X8175000Y72475000D02*
X8200000Y72500000D01*
D20*
X5100000Y41500000D02*
X5100000Y44700000D01*
X22250000Y55750000D02*
X22250000Y61500000D01*
D21*
X6200000Y72475000D02*
X8175000Y72475000D01*
D22*
X19300000Y73600000D02*
X19300000Y72800000D01*
X19300000Y72800000D02*
X17250000Y70750000D01*
D21*
%TO.N,/EN*%
X10250000Y2000000D02*
X29750000Y2000000D01*
X29750000Y2000000D02*
X35090000Y7340000D01*
X35090000Y7340000D02*
X39000000Y7340000D01*
X5000000Y7250000D02*
X10250000Y2000000D01*
%TO.N,/UART-TX0*%
X9960000Y16460000D02*
X14000000Y12420000D01*
X2000000Y16460000D02*
X9960000Y16460000D01*
%TO.N,/UART-RX0*%
X2000000Y19000000D02*
X9960000Y19000000D01*
X9960000Y19000000D02*
X14000000Y14960000D01*
%TO.N,/EP-D{slash}C*%
X31750000Y55500000D02*
X27750000Y59500000D01*
X31750000Y51250000D02*
X31750000Y55500000D01*
X28500000Y63000000D02*
X28500000Y64000000D01*
X27750000Y59500000D02*
X27750000Y62250000D01*
X27750000Y62250000D02*
X28500000Y63000000D01*
%TO.N,/EP-BUSY*%
X34250000Y56500000D02*
X29500000Y61250000D01*
X34250000Y51250000D02*
X34250000Y56500000D01*
%TO.N,/TP-INT*%
X9625000Y66875000D02*
X8000000Y68500000D01*
%TO.N,/IRQ*%
X4210000Y49460000D02*
X2000000Y49460000D01*
X10250000Y55500000D02*
X4210000Y49460000D01*
%TO.N,/TP-RST*%
X6250000Y68000000D02*
X11500000Y62750000D01*
X11500000Y62750000D02*
X11500000Y45400000D01*
X11500000Y45400000D02*
X14000000Y42900000D01*
%TO.N,/EP-RES*%
X33000000Y56000000D02*
X28750000Y60250000D01*
X28750000Y62000000D02*
X29299000Y62549000D01*
X29299000Y62549000D02*
X29299000Y66451000D01*
X33000000Y51250000D02*
X33000000Y56000000D01*
X29299000Y66451000D02*
X27750000Y68000000D01*
X28750000Y60250000D02*
X28750000Y62000000D01*
%TO.N,/DIM*%
X27335000Y35915000D02*
X23710000Y32290000D01*
X27335000Y35915000D02*
X36000000Y44580000D01*
X36000000Y44580000D02*
X36000000Y46100000D01*
%TO.N,/I2C-SCL*%
X14000000Y9880000D02*
X2120000Y9880000D01*
X2120000Y9880000D02*
X2000000Y10000000D01*
X9250000Y52250000D02*
X3920000Y46920000D01*
X3920000Y46920000D02*
X2000000Y46920000D01*
%TO.N,/I2C-SDA*%
X2880000Y44380000D02*
X2000000Y44380000D01*
X9040000Y12540000D02*
X2000000Y12540000D01*
%TO.N,/EP-SCK*%
X24875000Y75250000D02*
X18500000Y68875000D01*
X18500000Y68875000D02*
X18500000Y55300000D01*
%TO.N,/VEN*%
X4750000Y46550000D02*
X9500000Y41800000D01*
X4750000Y46650000D02*
X4750000Y46550000D01*
X9500000Y41800000D02*
X9500000Y40000000D01*
%TD*%
%TA.AperFunction,Conductor*%
%TO.N,GND*%
G36*
X55004418Y77499184D02*
G01*
X55204561Y77484870D01*
X55222063Y77482353D01*
X55413797Y77440645D01*
X55430755Y77435666D01*
X55614609Y77367091D01*
X55630701Y77359741D01*
X55802904Y77265712D01*
X55817784Y77256151D01*
X55974867Y77138559D01*
X55988237Y77126973D01*
X56126972Y76988238D01*
X56138558Y76974868D01*
X56256146Y76817790D01*
X56265711Y76802905D01*
X56359740Y76630702D01*
X56367090Y76614610D01*
X56435662Y76430764D01*
X56440646Y76413788D01*
X56482351Y76222069D01*
X56484869Y76204558D01*
X56488682Y76151252D01*
X56498088Y76019736D01*
X56499184Y76004420D01*
X56499500Y75995573D01*
X56499500Y38772645D01*
X56479815Y38705606D01*
X56427011Y38659851D01*
X56357853Y38649907D01*
X56294297Y38678932D01*
X56260939Y38725192D01*
X56212940Y38841072D01*
X56212935Y38841081D01*
X56124896Y38972840D01*
X56012842Y39084894D01*
X56012838Y39084897D01*
X55881080Y39172936D01*
X55881071Y39172941D01*
X55734664Y39233584D01*
X55734656Y39233586D01*
X55579240Y39264500D01*
X55579236Y39264500D01*
X55420764Y39264500D01*
X55420759Y39264500D01*
X55265343Y39233586D01*
X55265335Y39233584D01*
X55118928Y39172941D01*
X55118919Y39172936D01*
X54987161Y39084897D01*
X54920350Y39018086D01*
X54859026Y38984602D01*
X54789335Y38989587D01*
X54733401Y39031458D01*
X54722184Y39049474D01*
X54657881Y39175677D01*
X54636611Y39204952D01*
X54531545Y39349563D01*
X54379563Y39501545D01*
X54205678Y39627880D01*
X54203198Y39629682D01*
X54160532Y39685012D01*
X54154553Y39754625D01*
X54187159Y39816420D01*
X54203198Y39830318D01*
X54231381Y39850795D01*
X54379563Y39958455D01*
X54531545Y40110437D01*
X54657880Y40284322D01*
X54755458Y40475830D01*
X54755459Y40475833D01*
X54821875Y40680241D01*
X54821875Y40680242D01*
X54821876Y40680245D01*
X54855500Y40892533D01*
X54855500Y41107467D01*
X54821876Y41319755D01*
X54821875Y41319759D01*
X54821875Y41319760D01*
X54755459Y41524168D01*
X54755458Y41524171D01*
X54669685Y41692509D01*
X54657880Y41715678D01*
X54531545Y41889563D01*
X54436630Y41984478D01*
X54403145Y42045801D01*
X54408129Y42115493D01*
X54450001Y42171426D01*
X54480979Y42188341D01*
X54597084Y42231645D01*
X54597093Y42231650D01*
X54712187Y42317810D01*
X54712190Y42317813D01*
X54798350Y42432907D01*
X54798354Y42432914D01*
X54848596Y42567621D01*
X54848598Y42567628D01*
X54854999Y42627156D01*
X54855000Y42627173D01*
X54855000Y43290000D01*
X53784560Y43290000D01*
X53815245Y43343147D01*
X53850000Y43472857D01*
X53850000Y43607143D01*
X53815245Y43736853D01*
X53784560Y43790000D01*
X54855000Y43790000D01*
X54855000Y44452828D01*
X54854999Y44452845D01*
X54848598Y44512373D01*
X54848596Y44512380D01*
X54798354Y44647087D01*
X54798350Y44647094D01*
X54712190Y44762188D01*
X54712187Y44762191D01*
X54597093Y44848351D01*
X54597086Y44848355D01*
X54462379Y44898597D01*
X54462372Y44898599D01*
X54402844Y44905000D01*
X53590000Y44905000D01*
X53590000Y43984561D01*
X53536853Y44015245D01*
X53407143Y44050000D01*
X53272857Y44050000D01*
X53143147Y44015245D01*
X53090000Y43984561D01*
X53090000Y44905000D01*
X52277155Y44905000D01*
X52217627Y44898599D01*
X52217620Y44898597D01*
X52082913Y44848355D01*
X52082906Y44848351D01*
X51967812Y44762191D01*
X51967809Y44762188D01*
X51881649Y44647094D01*
X51881645Y44647087D01*
X51831403Y44512380D01*
X51831401Y44512373D01*
X51825000Y44452845D01*
X51825000Y43790000D01*
X52895440Y43790000D01*
X52864755Y43736853D01*
X52830000Y43607143D01*
X52830000Y43472857D01*
X52864755Y43343147D01*
X52895440Y43290000D01*
X51825000Y43290000D01*
X51825000Y42627156D01*
X51831401Y42567628D01*
X51831403Y42567621D01*
X51881645Y42432914D01*
X51881649Y42432907D01*
X51967809Y42317813D01*
X51967812Y42317810D01*
X52082906Y42231650D01*
X52082913Y42231646D01*
X52199021Y42188341D01*
X52254954Y42146470D01*
X52279372Y42081006D01*
X52264521Y42012733D01*
X52243370Y41984478D01*
X52148454Y41889562D01*
X52022120Y41715679D01*
X51924541Y41524171D01*
X51924540Y41524168D01*
X51858124Y41319760D01*
X51858124Y41319757D01*
X51824500Y41107466D01*
X51824500Y40892535D01*
X51858124Y40680244D01*
X51858124Y40680241D01*
X51924540Y40475833D01*
X51924541Y40475830D01*
X51961720Y40402863D01*
X52022120Y40284322D01*
X52148455Y40110437D01*
X52300437Y39958455D01*
X52446181Y39852566D01*
X52476802Y39830318D01*
X52519467Y39774988D01*
X52525446Y39705374D01*
X52492840Y39643579D01*
X52476802Y39629682D01*
X52474322Y39627880D01*
X52300437Y39501545D01*
X52300435Y39501543D01*
X52300434Y39501543D01*
X52148457Y39349566D01*
X52148457Y39349565D01*
X52148455Y39349563D01*
X52094198Y39274886D01*
X52022120Y39175679D01*
X51924541Y38984171D01*
X51924540Y38984168D01*
X51858124Y38779760D01*
X51858124Y38779757D01*
X51842155Y38678932D01*
X51824500Y38567467D01*
X51824500Y38352533D01*
X51829653Y38320000D01*
X51858124Y38140244D01*
X51858124Y38140241D01*
X51924540Y37935833D01*
X51924541Y37935830D01*
X51983560Y37820000D01*
X52022120Y37744322D01*
X52148455Y37570437D01*
X52300437Y37418455D01*
X52435949Y37320000D01*
X52476802Y37290318D01*
X52519467Y37234988D01*
X52525446Y37165374D01*
X52492840Y37103579D01*
X52476802Y37089682D01*
X52474322Y37087880D01*
X52300437Y36961545D01*
X52300435Y36961543D01*
X52300434Y36961543D01*
X52148457Y36809566D01*
X52148457Y36809565D01*
X52148455Y36809563D01*
X52094198Y36734886D01*
X52022120Y36635679D01*
X51924541Y36444171D01*
X51924540Y36444168D01*
X51858124Y36239760D01*
X51858124Y36239757D01*
X51824500Y36027466D01*
X51824500Y35812535D01*
X51858124Y35600244D01*
X51858124Y35600241D01*
X51924540Y35395833D01*
X51924541Y35395830D01*
X52002530Y35242770D01*
X52022120Y35204322D01*
X52148455Y35030437D01*
X52300437Y34878455D01*
X52474322Y34752120D01*
X52568251Y34704261D01*
X52665829Y34654542D01*
X52665832Y34654541D01*
X52856494Y34592592D01*
X52870245Y34588124D01*
X53082533Y34554500D01*
X53082534Y34554500D01*
X53597466Y34554500D01*
X53597467Y34554500D01*
X53809755Y34588124D01*
X53809758Y34588125D01*
X53809759Y34588125D01*
X54014167Y34654541D01*
X54014170Y34654542D01*
X54205678Y34752120D01*
X54379563Y34878455D01*
X54531545Y35030437D01*
X54657880Y35204322D01*
X54755458Y35395830D01*
X54821876Y35600245D01*
X54855500Y35812533D01*
X54855500Y36027467D01*
X54821876Y36239755D01*
X54821875Y36239759D01*
X54821875Y36239760D01*
X54755459Y36444168D01*
X54755458Y36444171D01*
X54669541Y36612792D01*
X54657880Y36635678D01*
X54531545Y36809563D01*
X54379563Y36961545D01*
X54246415Y37058283D01*
X54203198Y37089682D01*
X54160532Y37145012D01*
X54154553Y37214625D01*
X54187159Y37276420D01*
X54203198Y37290318D01*
X54244051Y37320000D01*
X54379563Y37418455D01*
X54531545Y37570437D01*
X54657880Y37744322D01*
X54722185Y37870529D01*
X54770158Y37921323D01*
X54837979Y37938119D01*
X54904114Y37915582D01*
X54920350Y37901914D01*
X54987157Y37835107D01*
X54987161Y37835104D01*
X55118919Y37747065D01*
X55118928Y37747060D01*
X55152095Y37733322D01*
X55265336Y37686416D01*
X55420759Y37655501D01*
X55420763Y37655500D01*
X55420764Y37655500D01*
X55579237Y37655500D01*
X55579238Y37655501D01*
X55734664Y37686416D01*
X55881074Y37747061D01*
X56012839Y37835104D01*
X56124896Y37947161D01*
X56212939Y38078926D01*
X56236679Y38136240D01*
X56260939Y38194808D01*
X56304780Y38249212D01*
X56371074Y38271277D01*
X56438773Y38253998D01*
X56486384Y38202861D01*
X56499500Y38147356D01*
X56499500Y2004428D01*
X56499184Y1995582D01*
X56499184Y1995581D01*
X56484869Y1795443D01*
X56482351Y1777932D01*
X56440646Y1586213D01*
X56435662Y1569237D01*
X56367090Y1385391D01*
X56359740Y1369299D01*
X56265711Y1197096D01*
X56256146Y1182211D01*
X56138558Y1025133D01*
X56126972Y1011763D01*
X55988237Y873028D01*
X55974867Y861442D01*
X55817789Y743854D01*
X55802904Y734289D01*
X55630701Y640260D01*
X55614609Y632910D01*
X55430763Y564338D01*
X55413787Y559354D01*
X55222068Y517649D01*
X55204557Y515131D01*
X55023779Y502201D01*
X55004417Y500816D01*
X54995572Y500500D01*
X2004428Y500500D01*
X1995582Y500816D01*
X1973622Y502387D01*
X1795442Y515131D01*
X1777931Y517649D01*
X1586212Y559354D01*
X1569236Y564338D01*
X1385390Y632910D01*
X1369298Y640260D01*
X1197095Y734289D01*
X1182210Y743854D01*
X1025132Y861442D01*
X1011762Y873028D01*
X873027Y1011763D01*
X861441Y1025133D01*
X743849Y1182216D01*
X734288Y1197096D01*
X640259Y1369299D01*
X632909Y1385391D01*
X592130Y1494723D01*
X564334Y1569245D01*
X559355Y1586203D01*
X517647Y1777937D01*
X515130Y1795444D01*
X507103Y1907672D01*
X500816Y1995582D01*
X500500Y2004428D01*
X500500Y3729898D01*
X520185Y3796937D01*
X572989Y3842692D01*
X642147Y3852636D01*
X705703Y3823611D01*
X723762Y3804214D01*
X792454Y3712454D01*
X838643Y3677877D01*
X907664Y3626207D01*
X907671Y3626203D01*
X1042517Y3575909D01*
X1042516Y3575909D01*
X1049444Y3575165D01*
X1102127Y3569500D01*
X2897872Y3569501D01*
X2957483Y3575909D01*
X3092331Y3626204D01*
X3207546Y3712454D01*
X3293796Y3827669D01*
X3344091Y3962517D01*
X3350500Y4022127D01*
X3350499Y5817872D01*
X3344091Y5877483D01*
X3338641Y5892094D01*
X3293797Y6012329D01*
X3293793Y6012336D01*
X3207547Y6127545D01*
X3207544Y6127548D01*
X3092335Y6213794D01*
X3092328Y6213798D01*
X2957482Y6264092D01*
X2957483Y6264092D01*
X2897883Y6270499D01*
X2897881Y6270500D01*
X2897873Y6270500D01*
X2897865Y6270500D01*
X2887309Y6270500D01*
X2820270Y6290185D01*
X2799628Y6306819D01*
X2129408Y6977038D01*
X2192993Y6994075D01*
X2307007Y7059901D01*
X2400099Y7152993D01*
X2465925Y7267007D01*
X2482962Y7330592D01*
X3115270Y6698283D01*
X3115270Y6698284D01*
X3154622Y6752446D01*
X3251095Y6941783D01*
X3316757Y7143870D01*
X3316757Y7143873D01*
X3346835Y7333772D01*
X4149500Y7333772D01*
X4149500Y7166229D01*
X4182182Y7001926D01*
X4182184Y7001918D01*
X4246295Y6847140D01*
X4339373Y6707838D01*
X4457837Y6589374D01*
X4550494Y6527463D01*
X4597137Y6496297D01*
X4751918Y6432184D01*
X4836011Y6415457D01*
X4897218Y6403282D01*
X4959129Y6370898D01*
X4960708Y6369346D01*
X9744724Y1585331D01*
X9835327Y1494728D01*
X9835332Y1494723D01*
X9941866Y1423539D01*
X9941872Y1423536D01*
X9941873Y1423535D01*
X10060256Y1374499D01*
X10060260Y1374499D01*
X10060261Y1374498D01*
X10185928Y1349500D01*
X10185931Y1349500D01*
X29814071Y1349500D01*
X29898615Y1366318D01*
X29939744Y1374499D01*
X30058127Y1423535D01*
X30164669Y1494723D01*
X30418851Y1748905D01*
X30689617Y2019670D01*
X31776194Y3106247D01*
X49110000Y3106247D01*
X49110000Y2893754D01*
X49143242Y2683873D01*
X49143242Y2683870D01*
X49208904Y2481783D01*
X49305375Y2292450D01*
X49344728Y2238284D01*
X49977037Y2870592D01*
X49994075Y2807007D01*
X50059901Y2692993D01*
X50152993Y2599901D01*
X50267007Y2534075D01*
X50330590Y2517038D01*
X49698282Y1884731D01*
X49698282Y1884730D01*
X49752449Y1845376D01*
X49941782Y1748905D01*
X50143870Y1683243D01*
X50353754Y1650000D01*
X50566246Y1650000D01*
X50776127Y1683243D01*
X50776130Y1683243D01*
X50978217Y1748905D01*
X51167554Y1845378D01*
X51221716Y1884730D01*
X51221717Y1884730D01*
X50589408Y2517038D01*
X50652993Y2534075D01*
X50767007Y2599901D01*
X50860099Y2692993D01*
X50925925Y2807007D01*
X50942962Y2870592D01*
X51613181Y2200372D01*
X51646666Y2139049D01*
X51649500Y2112700D01*
X51649500Y2102135D01*
X51649501Y2102124D01*
X51655908Y2042517D01*
X51706202Y1907672D01*
X51706206Y1907665D01*
X51792452Y1792456D01*
X51792455Y1792453D01*
X51907664Y1706207D01*
X51907671Y1706203D01*
X52042517Y1655909D01*
X52042516Y1655909D01*
X52049444Y1655165D01*
X52102127Y1649500D01*
X53897872Y1649501D01*
X53957483Y1655909D01*
X54092331Y1706204D01*
X54207546Y1792454D01*
X54293796Y1907669D01*
X54344091Y2042517D01*
X54350500Y2102127D01*
X54350499Y3897872D01*
X54344091Y3957483D01*
X54342213Y3962517D01*
X54293797Y4092329D01*
X54293793Y4092336D01*
X54207547Y4207545D01*
X54207544Y4207548D01*
X54092335Y4293794D01*
X54092328Y4293798D01*
X53957482Y4344092D01*
X53957483Y4344092D01*
X53897883Y4350499D01*
X53897881Y4350500D01*
X53897873Y4350500D01*
X53897864Y4350500D01*
X52102129Y4350500D01*
X52102123Y4350499D01*
X52042516Y4344092D01*
X51907671Y4293798D01*
X51907664Y4293794D01*
X51792455Y4207548D01*
X51792452Y4207545D01*
X51706206Y4092336D01*
X51706202Y4092329D01*
X51655908Y3957483D01*
X51649957Y3902128D01*
X51649501Y3897877D01*
X51649500Y3897865D01*
X51649500Y3887310D01*
X51629815Y3820271D01*
X51613181Y3799629D01*
X50942962Y3129410D01*
X50925925Y3192993D01*
X50860099Y3307007D01*
X50767007Y3400099D01*
X50652993Y3465925D01*
X50589409Y3482963D01*
X51221716Y4115272D01*
X51167550Y4154625D01*
X50978217Y4251096D01*
X50776129Y4316758D01*
X50566246Y4350000D01*
X50353754Y4350000D01*
X50143872Y4316758D01*
X50143869Y4316758D01*
X49941782Y4251096D01*
X49752439Y4154620D01*
X49698282Y4115273D01*
X49698282Y4115272D01*
X50330591Y3482963D01*
X50267007Y3465925D01*
X50152993Y3400099D01*
X50059901Y3307007D01*
X49994075Y3192993D01*
X49977037Y3129409D01*
X49344728Y3761718D01*
X49344727Y3761718D01*
X49305380Y3707561D01*
X49208904Y3518218D01*
X49143242Y3316131D01*
X49143242Y3316128D01*
X49110000Y3106247D01*
X31776194Y3106247D01*
X31868747Y3198800D01*
X35323127Y6653181D01*
X35384450Y6686666D01*
X35410808Y6689500D01*
X37740382Y6689500D01*
X37807421Y6669815D01*
X37841099Y6635409D01*
X37842085Y6636125D01*
X37969890Y6460214D01*
X38083430Y6346674D01*
X38116915Y6285351D01*
X38111931Y6215659D01*
X38070059Y6159726D01*
X38039083Y6142811D01*
X37907669Y6093797D01*
X37907664Y6093794D01*
X37792455Y6007548D01*
X37792452Y6007545D01*
X37706206Y5892336D01*
X37706202Y5892329D01*
X37655908Y5757483D01*
X37649501Y5697884D01*
X37649501Y5697877D01*
X37649500Y5697865D01*
X37649500Y3902130D01*
X37649501Y3902124D01*
X37655908Y3842517D01*
X37706202Y3707672D01*
X37706206Y3707665D01*
X37792452Y3592456D01*
X37792455Y3592453D01*
X37907664Y3506207D01*
X37907671Y3506203D01*
X38042517Y3455909D01*
X38042516Y3455909D01*
X38049444Y3455165D01*
X38102127Y3449500D01*
X39897872Y3449501D01*
X39957483Y3455909D01*
X40092331Y3506204D01*
X40207546Y3592454D01*
X40293796Y3707669D01*
X40344091Y3842517D01*
X40350500Y3902127D01*
X40350499Y4865826D01*
X40350499Y5697871D01*
X40350498Y5697877D01*
X40350497Y5697884D01*
X40344091Y5757483D01*
X40321567Y5817872D01*
X40293797Y5892329D01*
X40293793Y5892336D01*
X40207547Y6007545D01*
X40207544Y6007548D01*
X40092335Y6093794D01*
X40092328Y6093798D01*
X39960917Y6142811D01*
X39904983Y6184682D01*
X39880566Y6250147D01*
X39895418Y6318420D01*
X39916563Y6346668D01*
X40030104Y6460208D01*
X40155051Y6632184D01*
X40251557Y6821588D01*
X40317246Y7023757D01*
X40350500Y7233713D01*
X40350500Y7446287D01*
X40317246Y7656243D01*
X40275809Y7783772D01*
X43549500Y7783772D01*
X43549500Y7616229D01*
X43582182Y7451926D01*
X43582184Y7451918D01*
X43646295Y7297140D01*
X43739373Y7157838D01*
X43857837Y7039374D01*
X43950494Y6977463D01*
X43997137Y6946297D01*
X43997138Y6946297D01*
X43997139Y6946296D01*
X44008044Y6941779D01*
X44151918Y6882184D01*
X44316228Y6849501D01*
X44316232Y6849500D01*
X44316233Y6849500D01*
X44483768Y6849500D01*
X44483769Y6849501D01*
X44648082Y6882184D01*
X44802863Y6946297D01*
X44942162Y7039374D01*
X45060626Y7157838D01*
X45153703Y7297137D01*
X45211582Y7436870D01*
X45238458Y7477093D01*
X46422907Y8661541D01*
X46463130Y8688418D01*
X46602863Y8746297D01*
X46742162Y8839374D01*
X46860626Y8957838D01*
X46953703Y9097137D01*
X47017816Y9251918D01*
X47050500Y9416233D01*
X47050500Y9583767D01*
X47017816Y9748082D01*
X46953703Y9902863D01*
X46897961Y9986287D01*
X46860626Y10042163D01*
X46742162Y10160627D01*
X46602860Y10253705D01*
X46448082Y10317816D01*
X46448074Y10317818D01*
X46283771Y10350500D01*
X46283767Y10350500D01*
X46116233Y10350500D01*
X46116228Y10350500D01*
X45951925Y10317818D01*
X45951917Y10317816D01*
X45797139Y10253705D01*
X45657837Y10160627D01*
X45539373Y10042163D01*
X45446296Y9902863D01*
X45388419Y9763136D01*
X45361539Y9722909D01*
X44177092Y8538461D01*
X44136864Y8511581D01*
X43997139Y8453705D01*
X43857837Y8360627D01*
X43739373Y8242163D01*
X43646295Y8102861D01*
X43582184Y7948083D01*
X43582182Y7948075D01*
X43549500Y7783772D01*
X40275809Y7783772D01*
X40251557Y7858412D01*
X40155051Y8047816D01*
X40155049Y8047819D01*
X40155048Y8047821D01*
X40030109Y8219787D01*
X39879786Y8370110D01*
X39707820Y8495049D01*
X39707115Y8495409D01*
X39699054Y8499515D01*
X39648259Y8547488D01*
X39631463Y8615308D01*
X39653999Y8681444D01*
X39699054Y8720485D01*
X39707816Y8724949D01*
X39800427Y8792234D01*
X39879786Y8849891D01*
X39879788Y8849894D01*
X39879792Y8849896D01*
X40030104Y9000208D01*
X40030106Y9000212D01*
X40030109Y9000214D01*
X40155048Y9172180D01*
X40155047Y9172180D01*
X40155051Y9172184D01*
X40251557Y9361588D01*
X40317246Y9563757D01*
X40350500Y9773713D01*
X40350500Y9986287D01*
X40317246Y10196243D01*
X40251557Y10398412D01*
X40155051Y10587816D01*
X40155049Y10587819D01*
X40155048Y10587821D01*
X40030109Y10759787D01*
X39879786Y10910110D01*
X39707820Y11035049D01*
X39707115Y11035409D01*
X39699054Y11039515D01*
X39648259Y11087488D01*
X39631463Y11155308D01*
X39653999Y11221444D01*
X39699054Y11260485D01*
X39707816Y11264949D01*
X39800805Y11332509D01*
X39879786Y11389891D01*
X39879788Y11389894D01*
X39879792Y11389896D01*
X40030104Y11540208D01*
X40030106Y11540212D01*
X40030109Y11540214D01*
X40155048Y11712180D01*
X40155047Y11712180D01*
X40155051Y11712184D01*
X40251557Y11901588D01*
X40317246Y12103757D01*
X40350500Y12313713D01*
X40350500Y12526287D01*
X40317246Y12736243D01*
X40251557Y12938412D01*
X40155051Y13127816D01*
X40155049Y13127819D01*
X40155048Y13127821D01*
X40030109Y13299787D01*
X39879786Y13450110D01*
X39707820Y13575049D01*
X39707115Y13575409D01*
X39699054Y13579515D01*
X39648259Y13627488D01*
X39631463Y13695308D01*
X39653999Y13761444D01*
X39699054Y13800485D01*
X39707816Y13804949D01*
X39825568Y13890500D01*
X39879786Y13929891D01*
X39879788Y13929894D01*
X39879792Y13929896D01*
X40030104Y14080208D01*
X40030106Y14080212D01*
X40030109Y14080214D01*
X40155048Y14252180D01*
X40155047Y14252180D01*
X40155051Y14252184D01*
X40251557Y14441588D01*
X40317246Y14643757D01*
X40350500Y14853713D01*
X40350500Y15066287D01*
X40317246Y15276243D01*
X40251557Y15478412D01*
X40251555Y15478416D01*
X40243156Y15494901D01*
X40216169Y15547865D01*
X42499500Y15547865D01*
X42499500Y13452130D01*
X42499501Y13452124D01*
X42505908Y13392517D01*
X42556202Y13257672D01*
X42556206Y13257665D01*
X42642452Y13142456D01*
X42642455Y13142453D01*
X42757664Y13056207D01*
X42757671Y13056203D01*
X42892517Y13005909D01*
X42892516Y13005909D01*
X42899444Y13005165D01*
X42952127Y12999500D01*
X45047872Y12999501D01*
X45107483Y13005909D01*
X45242331Y13056204D01*
X45357546Y13142454D01*
X45443796Y13257669D01*
X45494091Y13392517D01*
X45500500Y13452127D01*
X45500499Y14618053D01*
X50100000Y14618053D01*
X50100000Y14381948D01*
X50136934Y14148753D01*
X50209897Y13924198D01*
X50317087Y13713826D01*
X50377338Y13630896D01*
X50377340Y13630895D01*
X51117037Y14370592D01*
X51134075Y14307007D01*
X51199901Y14192993D01*
X51292993Y14099901D01*
X51407007Y14034075D01*
X51470590Y14017038D01*
X50730893Y13277342D01*
X50813828Y13217086D01*
X51024197Y13109898D01*
X51248752Y13036935D01*
X51248751Y13036935D01*
X51481948Y13000000D01*
X51718052Y13000000D01*
X51951247Y13036935D01*
X52175802Y13109898D01*
X52386163Y13217082D01*
X52386169Y13217086D01*
X52469104Y13277342D01*
X52469105Y13277342D01*
X51729408Y14017038D01*
X51792993Y14034075D01*
X51907007Y14099901D01*
X52000099Y14192993D01*
X52065925Y14307007D01*
X52082962Y14370592D01*
X52822658Y13630895D01*
X52822658Y13630896D01*
X52882914Y13713831D01*
X52882918Y13713837D01*
X52990102Y13924198D01*
X53063065Y14148753D01*
X53100000Y14381948D01*
X53100000Y14618053D01*
X53063065Y14851248D01*
X52990102Y15075803D01*
X52882914Y15286172D01*
X52822658Y15369106D01*
X52822658Y15369107D01*
X52082962Y14629410D01*
X52065925Y14692993D01*
X52000099Y14807007D01*
X51907007Y14900099D01*
X51792993Y14965925D01*
X51729409Y14982963D01*
X52469105Y15722660D01*
X52469104Y15722662D01*
X52386174Y15782913D01*
X52175802Y15890103D01*
X51951247Y15963066D01*
X51951248Y15963066D01*
X51718052Y16000000D01*
X51481948Y16000000D01*
X51248752Y15963066D01*
X51024197Y15890103D01*
X50813830Y15782916D01*
X50730894Y15722660D01*
X51470591Y14982963D01*
X51407007Y14965925D01*
X51292993Y14900099D01*
X51199901Y14807007D01*
X51134075Y14692993D01*
X51117037Y14629409D01*
X50377340Y15369106D01*
X50317084Y15286170D01*
X50209897Y15075803D01*
X50136934Y14851248D01*
X50100000Y14618053D01*
X45500499Y14618053D01*
X45500499Y15547872D01*
X45494091Y15607483D01*
X45494090Y15607486D01*
X45484922Y15632069D01*
X45443797Y15742329D01*
X45443793Y15742336D01*
X45357547Y15857545D01*
X45357544Y15857548D01*
X45242335Y15943794D01*
X45242328Y15943798D01*
X45107482Y15994092D01*
X45107483Y15994092D01*
X45047883Y16000499D01*
X45047881Y16000500D01*
X45047873Y16000500D01*
X45047864Y16000500D01*
X42952129Y16000500D01*
X42952123Y16000499D01*
X42892516Y15994092D01*
X42757671Y15943798D01*
X42757664Y15943794D01*
X42642455Y15857548D01*
X42642452Y15857545D01*
X42556206Y15742336D01*
X42556202Y15742329D01*
X42505908Y15607483D01*
X42501031Y15562117D01*
X42499501Y15547877D01*
X42499500Y15547865D01*
X40216169Y15547865D01*
X40185792Y15607483D01*
X40155051Y15667816D01*
X40115205Y15722660D01*
X40030109Y15839787D01*
X39879786Y15990110D01*
X39707820Y16115049D01*
X39707115Y16115409D01*
X39699054Y16119515D01*
X39648259Y16167488D01*
X39631463Y16235308D01*
X39653999Y16301444D01*
X39699054Y16340485D01*
X39707816Y16344949D01*
X39729789Y16360914D01*
X39879786Y16469891D01*
X39879788Y16469894D01*
X39879792Y16469896D01*
X40030104Y16620208D01*
X40030106Y16620212D01*
X40030109Y16620214D01*
X40155048Y16792180D01*
X40155047Y16792180D01*
X40155051Y16792184D01*
X40251557Y16981588D01*
X40317246Y17183757D01*
X40350500Y17393713D01*
X40350500Y17606287D01*
X40317246Y17816243D01*
X40251557Y18018412D01*
X40155051Y18207816D01*
X40155049Y18207819D01*
X40155048Y18207821D01*
X40030109Y18379787D01*
X39879786Y18530110D01*
X39707820Y18655049D01*
X39707115Y18655409D01*
X39699054Y18659515D01*
X39648259Y18707488D01*
X39631463Y18775308D01*
X39653999Y18841444D01*
X39699054Y18880485D01*
X39707816Y18884949D01*
X39762572Y18924731D01*
X39879786Y19009891D01*
X39879788Y19009894D01*
X39879792Y19009896D01*
X40030104Y19160208D01*
X40030106Y19160212D01*
X40030109Y19160214D01*
X40155048Y19332180D01*
X40155047Y19332180D01*
X40155051Y19332184D01*
X40251557Y19521588D01*
X40317246Y19723757D01*
X40350500Y19933713D01*
X40350500Y20146287D01*
X40317246Y20356243D01*
X40251557Y20558412D01*
X40155051Y20747816D01*
X40155049Y20747819D01*
X40155048Y20747821D01*
X40030109Y20919787D01*
X39879786Y21070110D01*
X39707820Y21195049D01*
X39699600Y21199237D01*
X39699054Y21199515D01*
X39648259Y21247488D01*
X39631463Y21315308D01*
X39653999Y21381444D01*
X39699054Y21420485D01*
X39707816Y21424949D01*
X39729789Y21440914D01*
X39879786Y21549891D01*
X39879788Y21549894D01*
X39879792Y21549896D01*
X40030104Y21700208D01*
X40030106Y21700212D01*
X40030109Y21700214D01*
X40155048Y21872180D01*
X40155047Y21872180D01*
X40155051Y21872184D01*
X40251557Y22061588D01*
X40317246Y22263757D01*
X40350500Y22473713D01*
X40350500Y22686287D01*
X40317246Y22896243D01*
X40251557Y23098412D01*
X40155051Y23287816D01*
X40155049Y23287819D01*
X40155048Y23287821D01*
X40030109Y23459787D01*
X39879786Y23610110D01*
X39707820Y23735049D01*
X39707115Y23735409D01*
X39699054Y23739515D01*
X39648259Y23787488D01*
X39631463Y23855308D01*
X39653999Y23921444D01*
X39699054Y23960485D01*
X39707816Y23964949D01*
X39729789Y23980914D01*
X39879786Y24089891D01*
X39879788Y24089894D01*
X39879792Y24089896D01*
X40030104Y24240208D01*
X40030106Y24240212D01*
X40030109Y24240214D01*
X40155048Y24412180D01*
X40155047Y24412180D01*
X40155051Y24412184D01*
X40251557Y24601588D01*
X40317246Y24803757D01*
X40350500Y25013713D01*
X40350500Y25226287D01*
X40317246Y25436243D01*
X40251557Y25638412D01*
X40155051Y25827816D01*
X40155049Y25827819D01*
X40155048Y25827821D01*
X40030109Y25999787D01*
X39879786Y26150110D01*
X39707820Y26275049D01*
X39707115Y26275409D01*
X39699054Y26279515D01*
X39648259Y26327488D01*
X39631463Y26395308D01*
X39653999Y26461444D01*
X39699054Y26500485D01*
X39707816Y26504949D01*
X39741322Y26529292D01*
X39879786Y26629891D01*
X39879788Y26629894D01*
X39879792Y26629896D01*
X40030104Y26780208D01*
X40030106Y26780212D01*
X40030109Y26780214D01*
X40155048Y26952180D01*
X40155047Y26952180D01*
X40155051Y26952184D01*
X40251557Y27141588D01*
X40317246Y27343757D01*
X40350500Y27553713D01*
X40350500Y27766287D01*
X40317246Y27976243D01*
X40251557Y28178412D01*
X40155051Y28367816D01*
X40155049Y28367819D01*
X40155048Y28367821D01*
X40030109Y28539787D01*
X39879786Y28690110D01*
X39707820Y28815049D01*
X39707115Y28815409D01*
X39699054Y28819515D01*
X39648259Y28867488D01*
X39631463Y28935308D01*
X39653999Y29001444D01*
X39699054Y29040485D01*
X39707816Y29044949D01*
X39775569Y29094174D01*
X39879786Y29169891D01*
X39879788Y29169894D01*
X39879792Y29169896D01*
X40030104Y29320208D01*
X40030106Y29320212D01*
X40030109Y29320214D01*
X40155048Y29492180D01*
X40155047Y29492180D01*
X40155051Y29492184D01*
X40251557Y29681588D01*
X40317246Y29883757D01*
X40350500Y30093713D01*
X40350500Y30306287D01*
X40317246Y30516243D01*
X40251557Y30718412D01*
X40155051Y30907816D01*
X40155049Y30907819D01*
X40155048Y30907821D01*
X40030109Y31079787D01*
X39879786Y31230110D01*
X39707820Y31355049D01*
X39707115Y31355409D01*
X39699054Y31359515D01*
X39648259Y31407488D01*
X39631463Y31475308D01*
X39653999Y31541444D01*
X39699054Y31580485D01*
X39707816Y31584949D01*
X39800003Y31651926D01*
X39879786Y31709891D01*
X39879788Y31709894D01*
X39879792Y31709896D01*
X40030104Y31860208D01*
X40030106Y31860212D01*
X40030109Y31860214D01*
X40119875Y31983768D01*
X40119878Y31983772D01*
X47149500Y31983772D01*
X47149500Y31816229D01*
X47182182Y31651926D01*
X47182184Y31651918D01*
X47209922Y31584952D01*
X47240061Y31512192D01*
X47249500Y31464739D01*
X47249500Y28935261D01*
X47240061Y28887808D01*
X47182184Y28748083D01*
X47182182Y28748075D01*
X47149500Y28583772D01*
X47149500Y28416229D01*
X47182182Y28251926D01*
X47182184Y28251918D01*
X47246295Y28097140D01*
X47339373Y27957838D01*
X47457837Y27839374D01*
X47528055Y27792456D01*
X47597137Y27746297D01*
X47751918Y27682184D01*
X47916228Y27649501D01*
X47916232Y27649500D01*
X47916233Y27649500D01*
X48083768Y27649500D01*
X48083769Y27649501D01*
X48248082Y27682184D01*
X48402863Y27746297D01*
X48542162Y27839374D01*
X48660626Y27957838D01*
X48753703Y28097137D01*
X48817816Y28251918D01*
X48850500Y28416233D01*
X48850500Y28583767D01*
X48817816Y28748082D01*
X48759938Y28887809D01*
X48750500Y28935261D01*
X48750500Y29897865D01*
X53189500Y29897865D01*
X53189500Y28102130D01*
X53189501Y28102124D01*
X53195908Y28042517D01*
X53246202Y27907672D01*
X53246206Y27907665D01*
X53332452Y27792456D01*
X53332455Y27792453D01*
X53447664Y27706207D01*
X53447671Y27706203D01*
X53579082Y27657190D01*
X53635016Y27615319D01*
X53659433Y27549855D01*
X53644582Y27481582D01*
X53623431Y27453327D01*
X53509889Y27339785D01*
X53384951Y27167821D01*
X53288444Y26978415D01*
X53222753Y26776240D01*
X53189500Y26566287D01*
X53189500Y26353714D01*
X53221748Y26150104D01*
X53222754Y26143757D01*
X53286412Y25947838D01*
X53288444Y25941586D01*
X53384951Y25752180D01*
X53509890Y25580214D01*
X53660213Y25429891D01*
X53832179Y25304952D01*
X53832181Y25304951D01*
X53832184Y25304949D01*
X54021588Y25208443D01*
X54223757Y25142754D01*
X54433713Y25109500D01*
X54433714Y25109500D01*
X54646286Y25109500D01*
X54646287Y25109500D01*
X54856243Y25142754D01*
X55058412Y25208443D01*
X55247816Y25304949D01*
X55284439Y25331557D01*
X55419786Y25429891D01*
X55419788Y25429894D01*
X55419792Y25429896D01*
X55570104Y25580208D01*
X55570106Y25580212D01*
X55570109Y25580214D01*
X55695048Y25752180D01*
X55695047Y25752180D01*
X55695051Y25752184D01*
X55791557Y25941588D01*
X55857246Y26143757D01*
X55890500Y26353713D01*
X55890500Y26566287D01*
X55857246Y26776243D01*
X55791557Y26978412D01*
X55695051Y27167816D01*
X55695049Y27167819D01*
X55695048Y27167821D01*
X55570109Y27339787D01*
X55456569Y27453327D01*
X55423084Y27514650D01*
X55428068Y27584342D01*
X55469940Y27640275D01*
X55500915Y27657190D01*
X55632331Y27706204D01*
X55747546Y27792454D01*
X55833796Y27907669D01*
X55884091Y28042517D01*
X55890500Y28102127D01*
X55890499Y29897872D01*
X55884091Y29957483D01*
X55838701Y30079179D01*
X55833797Y30092329D01*
X55833793Y30092336D01*
X55747547Y30207545D01*
X55747544Y30207548D01*
X55632335Y30293794D01*
X55632328Y30293798D01*
X55497482Y30344092D01*
X55497483Y30344092D01*
X55437883Y30350499D01*
X55437881Y30350500D01*
X55437873Y30350500D01*
X55437864Y30350500D01*
X53642129Y30350500D01*
X53642123Y30350499D01*
X53582516Y30344092D01*
X53447671Y30293798D01*
X53447664Y30293794D01*
X53332455Y30207548D01*
X53332452Y30207545D01*
X53246206Y30092336D01*
X53246202Y30092329D01*
X53195908Y29957483D01*
X53189501Y29897884D01*
X53189501Y29897877D01*
X53189500Y29897865D01*
X48750500Y29897865D01*
X48750500Y31464739D01*
X48759939Y31512192D01*
X48769924Y31536297D01*
X48817816Y31651918D01*
X48850500Y31816233D01*
X48850500Y31983767D01*
X48817816Y32148082D01*
X48753703Y32302863D01*
X48706323Y32373772D01*
X48660626Y32442163D01*
X48542162Y32560627D01*
X48402860Y32653705D01*
X48248082Y32717816D01*
X48248074Y32717818D01*
X48083771Y32750500D01*
X48083767Y32750500D01*
X47916233Y32750500D01*
X47916228Y32750500D01*
X47751925Y32717818D01*
X47751917Y32717816D01*
X47597139Y32653705D01*
X47457837Y32560627D01*
X47339373Y32442163D01*
X47246295Y32302861D01*
X47182184Y32148083D01*
X47182182Y32148075D01*
X47149500Y31983772D01*
X40119878Y31983772D01*
X40155051Y32032184D01*
X40251557Y32221588D01*
X40317246Y32423757D01*
X40350500Y32633713D01*
X40350500Y32846287D01*
X40317246Y33056243D01*
X40251557Y33258412D01*
X40155051Y33447816D01*
X40155049Y33447819D01*
X40155048Y33447821D01*
X40030109Y33619787D01*
X39879786Y33770110D01*
X39707820Y33895049D01*
X39707115Y33895409D01*
X39699054Y33899515D01*
X39648259Y33947488D01*
X39631463Y34015308D01*
X39653999Y34081444D01*
X39699054Y34120485D01*
X39707816Y34124949D01*
X39766449Y34167548D01*
X39879786Y34249891D01*
X39879788Y34249894D01*
X39879792Y34249896D01*
X40030104Y34400208D01*
X40030106Y34400212D01*
X40030109Y34400214D01*
X40155048Y34572180D01*
X40155047Y34572180D01*
X40155051Y34572184D01*
X40251557Y34761588D01*
X40317246Y34963757D01*
X40350500Y35173713D01*
X40350500Y35386287D01*
X40317246Y35596243D01*
X40251557Y35798412D01*
X40155051Y35987816D01*
X40155049Y35987819D01*
X40155048Y35987821D01*
X40030109Y36159787D01*
X39879786Y36310110D01*
X39707817Y36435051D01*
X39698504Y36439796D01*
X39647707Y36487770D01*
X39630912Y36555591D01*
X39653449Y36621726D01*
X39698507Y36660768D01*
X39707555Y36665378D01*
X39761716Y36704730D01*
X39761717Y36704730D01*
X39129408Y37337038D01*
X39192993Y37354075D01*
X39307007Y37419901D01*
X39400099Y37512993D01*
X39465925Y37627007D01*
X39482962Y37690592D01*
X40115270Y37058283D01*
X40115270Y37058284D01*
X40154622Y37112446D01*
X40251095Y37301783D01*
X40316757Y37503870D01*
X40316757Y37503873D01*
X40350000Y37713754D01*
X40350000Y37926247D01*
X40316757Y38136128D01*
X40316757Y38136131D01*
X40251095Y38338218D01*
X40154624Y38527551D01*
X40115270Y38581718D01*
X40115269Y38581718D01*
X39482962Y37949410D01*
X39465925Y38012993D01*
X39400099Y38127007D01*
X39307007Y38220099D01*
X39192993Y38285925D01*
X39129409Y38302963D01*
X39761716Y38935272D01*
X39707547Y38974627D01*
X39707547Y38974628D01*
X39698500Y38979237D01*
X39647706Y39027212D01*
X39630912Y39095034D01*
X39653451Y39161168D01*
X39698508Y39200207D01*
X39707816Y39204949D01*
X39787007Y39262485D01*
X39879786Y39329891D01*
X39879788Y39329894D01*
X39879792Y39329896D01*
X40030104Y39480208D01*
X40030106Y39480212D01*
X40030109Y39480214D01*
X40155048Y39652180D01*
X40155047Y39652180D01*
X40155051Y39652184D01*
X40251557Y39841588D01*
X40317246Y40043757D01*
X40350500Y40253713D01*
X40350500Y40466287D01*
X40317246Y40676243D01*
X40251557Y40878412D01*
X40155051Y41067816D01*
X40155049Y41067819D01*
X40155048Y41067821D01*
X40030109Y41239787D01*
X39879786Y41390110D01*
X39707820Y41515049D01*
X39707115Y41515409D01*
X39699054Y41519515D01*
X39648259Y41567488D01*
X39631463Y41635308D01*
X39653999Y41701444D01*
X39699054Y41740485D01*
X39707816Y41744949D01*
X39729789Y41760914D01*
X39879786Y41869891D01*
X39879788Y41869894D01*
X39879792Y41869896D01*
X40030104Y42020208D01*
X40030106Y42020212D01*
X40030109Y42020214D01*
X40155048Y42192180D01*
X40155047Y42192180D01*
X40155051Y42192184D01*
X40251557Y42381588D01*
X40317246Y42583757D01*
X40350500Y42793713D01*
X40350500Y43006287D01*
X40317246Y43216243D01*
X40251557Y43418412D01*
X40155051Y43607816D01*
X40155049Y43607819D01*
X40155048Y43607821D01*
X40030109Y43779787D01*
X39879786Y43930110D01*
X39707820Y44055049D01*
X39707115Y44055409D01*
X39699054Y44059515D01*
X39648259Y44107488D01*
X39631463Y44175308D01*
X39653999Y44241444D01*
X39699054Y44280485D01*
X39707816Y44284949D01*
X39750459Y44315931D01*
X39879786Y44409891D01*
X39879788Y44409894D01*
X39879792Y44409896D01*
X40030104Y44560208D01*
X40030106Y44560212D01*
X40030109Y44560214D01*
X40155048Y44732180D01*
X40155047Y44732180D01*
X40155051Y44732184D01*
X40251557Y44921588D01*
X40317246Y45123757D01*
X40350500Y45333713D01*
X40350500Y45546287D01*
X40317246Y45756243D01*
X40251557Y45958412D01*
X40155051Y46147816D01*
X40155049Y46147819D01*
X40155048Y46147821D01*
X40030605Y46319104D01*
X40030107Y46319789D01*
X39879786Y46470110D01*
X39707820Y46595049D01*
X39707115Y46595409D01*
X39699054Y46599515D01*
X39648259Y46647488D01*
X39631463Y46715308D01*
X39653999Y46781444D01*
X39699054Y46820485D01*
X39707816Y46824949D01*
X39808477Y46898083D01*
X39879786Y46949891D01*
X39879788Y46949894D01*
X39879792Y46949896D01*
X40030104Y47100208D01*
X40030106Y47100212D01*
X40030109Y47100214D01*
X40155048Y47272180D01*
X40155047Y47272180D01*
X40155051Y47272184D01*
X40251557Y47461588D01*
X40317246Y47663757D01*
X40350500Y47873713D01*
X40350500Y48086287D01*
X40317246Y48296243D01*
X40251557Y48498412D01*
X40155051Y48687816D01*
X40155049Y48687819D01*
X40155048Y48687821D01*
X40030109Y48859787D01*
X39879786Y49010110D01*
X39707820Y49135049D01*
X39707115Y49135409D01*
X39699054Y49139515D01*
X39648259Y49187488D01*
X39631463Y49255308D01*
X39653999Y49321444D01*
X39699054Y49360485D01*
X39707816Y49364949D01*
X39729789Y49380914D01*
X39879786Y49489891D01*
X39879788Y49489894D01*
X39879792Y49489896D01*
X40030104Y49640208D01*
X40030106Y49640212D01*
X40030109Y49640214D01*
X40155048Y49812180D01*
X40155047Y49812180D01*
X40155051Y49812184D01*
X40251557Y50001588D01*
X40317246Y50203757D01*
X40350500Y50413713D01*
X40350500Y50626287D01*
X40317246Y50836243D01*
X40297224Y50897865D01*
X53149500Y50897865D01*
X53149500Y49102130D01*
X53149501Y49102124D01*
X53155908Y49042517D01*
X53206202Y48907672D01*
X53206206Y48907665D01*
X53292452Y48792456D01*
X53292455Y48792453D01*
X53407664Y48706207D01*
X53407671Y48706203D01*
X53452618Y48689439D01*
X53542517Y48655909D01*
X53602127Y48649500D01*
X53612685Y48649501D01*
X53679723Y48629821D01*
X53700372Y48613182D01*
X54370591Y47942963D01*
X54307007Y47925925D01*
X54192993Y47860099D01*
X54099901Y47767007D01*
X54034075Y47652993D01*
X54017037Y47589409D01*
X53384728Y48221718D01*
X53384727Y48221718D01*
X53345380Y48167561D01*
X53248904Y47978218D01*
X53183242Y47776131D01*
X53183242Y47776128D01*
X53150000Y47566247D01*
X53150000Y47353754D01*
X53183242Y47143873D01*
X53183242Y47143870D01*
X53248904Y46941783D01*
X53345375Y46752450D01*
X53384728Y46698284D01*
X54017036Y47330593D01*
X54034075Y47267007D01*
X54099901Y47152993D01*
X54192993Y47059901D01*
X54307007Y46994075D01*
X54370590Y46977038D01*
X53738282Y46344731D01*
X53738282Y46344730D01*
X53792449Y46305376D01*
X53981782Y46208905D01*
X54183870Y46143243D01*
X54393754Y46110000D01*
X54606246Y46110000D01*
X54816127Y46143243D01*
X54816130Y46143243D01*
X55018217Y46208905D01*
X55207554Y46305378D01*
X55261716Y46344730D01*
X55261717Y46344730D01*
X54629408Y46977038D01*
X54692993Y46994075D01*
X54807007Y47059901D01*
X54900099Y47152993D01*
X54965925Y47267007D01*
X54982962Y47330592D01*
X55615270Y46698283D01*
X55615270Y46698284D01*
X55654622Y46752446D01*
X55751095Y46941783D01*
X55816757Y47143870D01*
X55816757Y47143873D01*
X55850000Y47353754D01*
X55850000Y47566247D01*
X55816757Y47776128D01*
X55816757Y47776131D01*
X55751095Y47978218D01*
X55654624Y48167551D01*
X55615270Y48221718D01*
X55615269Y48221718D01*
X54982962Y47589410D01*
X54965925Y47652993D01*
X54900099Y47767007D01*
X54807007Y47860099D01*
X54692993Y47925925D01*
X54629409Y47942963D01*
X55299627Y48613182D01*
X55360950Y48646667D01*
X55387307Y48649501D01*
X55397872Y48649501D01*
X55457483Y48655909D01*
X55592331Y48706204D01*
X55707546Y48792454D01*
X55793796Y48907669D01*
X55844091Y49042517D01*
X55850500Y49102127D01*
X55850499Y50897872D01*
X55844091Y50957483D01*
X55839461Y50969896D01*
X55793797Y51092329D01*
X55793793Y51092336D01*
X55707547Y51207545D01*
X55707544Y51207548D01*
X55592335Y51293794D01*
X55592328Y51293798D01*
X55457482Y51344092D01*
X55457483Y51344092D01*
X55397883Y51350499D01*
X55397881Y51350500D01*
X55397873Y51350500D01*
X55397864Y51350500D01*
X53602129Y51350500D01*
X53602123Y51350499D01*
X53542516Y51344092D01*
X53407671Y51293798D01*
X53407664Y51293794D01*
X53292455Y51207548D01*
X53292452Y51207545D01*
X53206206Y51092336D01*
X53206202Y51092329D01*
X53155908Y50957483D01*
X53149501Y50897884D01*
X53149501Y50897877D01*
X53149500Y50897865D01*
X40297224Y50897865D01*
X40251557Y51038412D01*
X40155051Y51227816D01*
X40155049Y51227819D01*
X40155048Y51227821D01*
X40030109Y51399787D01*
X39879786Y51550110D01*
X39707820Y51675049D01*
X39518414Y51771556D01*
X39518413Y51771557D01*
X39518412Y51771557D01*
X39316243Y51837246D01*
X39316241Y51837247D01*
X39316240Y51837247D01*
X39154957Y51862792D01*
X39106287Y51870500D01*
X38893713Y51870500D01*
X38845042Y51862792D01*
X38683760Y51837247D01*
X38481585Y51771556D01*
X38292179Y51675049D01*
X38120213Y51550110D01*
X37969890Y51399787D01*
X37844951Y51227821D01*
X37748444Y51038415D01*
X37682753Y50836240D01*
X37649500Y50626287D01*
X37649500Y50413714D01*
X37673248Y50263771D01*
X37682754Y50203757D01*
X37718214Y50094622D01*
X37748444Y50001586D01*
X37844951Y49812180D01*
X37969890Y49640214D01*
X38120213Y49489891D01*
X38292182Y49364950D01*
X38300946Y49360484D01*
X38351742Y49312509D01*
X38368536Y49244688D01*
X38345998Y49178553D01*
X38300946Y49139516D01*
X38292182Y49135051D01*
X38120213Y49010110D01*
X37969890Y48859787D01*
X37844951Y48687821D01*
X37748444Y48498415D01*
X37682753Y48296240D01*
X37649500Y48086287D01*
X37649500Y47873714D01*
X37682753Y47663761D01*
X37682753Y47663759D01*
X37682754Y47663757D01*
X37713055Y47570500D01*
X37748444Y47461586D01*
X37844951Y47272180D01*
X37969890Y47100214D01*
X38120213Y46949891D01*
X38292182Y46824950D01*
X38300946Y46820484D01*
X38351742Y46772509D01*
X38368536Y46704688D01*
X38345998Y46638553D01*
X38300946Y46599516D01*
X38292182Y46595051D01*
X38120213Y46470110D01*
X37969890Y46319787D01*
X37844951Y46147821D01*
X37748444Y45958415D01*
X37682753Y45756240D01*
X37649500Y45546287D01*
X37649500Y45333714D01*
X37680225Y45139721D01*
X37682754Y45123757D01*
X37737467Y44955367D01*
X37748444Y44921586D01*
X37844951Y44732180D01*
X37969890Y44560214D01*
X38120213Y44409891D01*
X38292182Y44284950D01*
X38300946Y44280484D01*
X38351742Y44232509D01*
X38368536Y44164688D01*
X38345998Y44098553D01*
X38300946Y44059516D01*
X38292182Y44055051D01*
X38120213Y43930110D01*
X37969890Y43779787D01*
X37844951Y43607821D01*
X37748444Y43418415D01*
X37682753Y43216240D01*
X37649500Y43006287D01*
X37649500Y42793714D01*
X37675877Y42627173D01*
X37682754Y42583757D01*
X37731768Y42432907D01*
X37748444Y42381586D01*
X37844951Y42192180D01*
X37969890Y42020214D01*
X38120213Y41869891D01*
X38292182Y41744950D01*
X38300946Y41740484D01*
X38351742Y41692509D01*
X38368536Y41624688D01*
X38345998Y41558553D01*
X38300946Y41519516D01*
X38292182Y41515051D01*
X38120213Y41390110D01*
X37969890Y41239787D01*
X37844951Y41067821D01*
X37748444Y40878415D01*
X37682753Y40676240D01*
X37658964Y40526041D01*
X37649500Y40466287D01*
X37649500Y40253713D01*
X37682754Y40043757D01*
X37724189Y39916233D01*
X37748444Y39841586D01*
X37844951Y39652180D01*
X37969890Y39480214D01*
X38120213Y39329891D01*
X38292179Y39204952D01*
X38292181Y39204951D01*
X38292184Y39204949D01*
X38301493Y39200206D01*
X38352290Y39152234D01*
X38369087Y39084413D01*
X38346552Y39018278D01*
X38301505Y38979240D01*
X38292446Y38974624D01*
X38292440Y38974620D01*
X38238282Y38935273D01*
X38238282Y38935272D01*
X38870591Y38302963D01*
X38807007Y38285925D01*
X38692993Y38220099D01*
X38599901Y38127007D01*
X38534075Y38012993D01*
X38517037Y37949409D01*
X37884728Y38581718D01*
X37884727Y38581718D01*
X37845380Y38527561D01*
X37748904Y38338218D01*
X37683242Y38136131D01*
X37683242Y38136128D01*
X37650000Y37926247D01*
X37650000Y37713754D01*
X37683242Y37503873D01*
X37683242Y37503870D01*
X37748904Y37301783D01*
X37845375Y37112450D01*
X37884728Y37058284D01*
X38517037Y37690592D01*
X38534075Y37627007D01*
X38599901Y37512993D01*
X38692993Y37419901D01*
X38807007Y37354075D01*
X38870590Y37337038D01*
X38238282Y36704731D01*
X38238282Y36704730D01*
X38292452Y36665374D01*
X38292451Y36665374D01*
X38301495Y36660766D01*
X38352292Y36612792D01*
X38369087Y36544971D01*
X38346550Y36478836D01*
X38301499Y36439798D01*
X38292182Y36435051D01*
X38120213Y36310110D01*
X37969890Y36159787D01*
X37844951Y35987821D01*
X37748444Y35798415D01*
X37682753Y35596240D01*
X37649500Y35386287D01*
X37649500Y35173714D01*
X37680225Y34979721D01*
X37682754Y34963757D01*
X37737538Y34795149D01*
X37748444Y34761586D01*
X37844951Y34572180D01*
X37969890Y34400214D01*
X38120213Y34249891D01*
X38292182Y34124950D01*
X38300946Y34120484D01*
X38351742Y34072509D01*
X38368536Y34004688D01*
X38345998Y33938553D01*
X38300946Y33899516D01*
X38292182Y33895051D01*
X38120213Y33770110D01*
X37969890Y33619787D01*
X37844951Y33447821D01*
X37748444Y33258415D01*
X37682753Y33056240D01*
X37649500Y32846287D01*
X37649500Y32633714D01*
X37682753Y32423761D01*
X37682753Y32423759D01*
X37682754Y32423757D01*
X37738386Y32252539D01*
X37748444Y32221586D01*
X37844951Y32032180D01*
X37969890Y31860214D01*
X38120213Y31709891D01*
X38292182Y31584950D01*
X38300946Y31580484D01*
X38351742Y31532509D01*
X38368536Y31464688D01*
X38345998Y31398553D01*
X38300946Y31359516D01*
X38292182Y31355051D01*
X38120213Y31230110D01*
X37969890Y31079787D01*
X37844951Y30907821D01*
X37748444Y30718415D01*
X37682753Y30516240D01*
X37649500Y30306287D01*
X37649500Y30093714D01*
X37680518Y29897871D01*
X37682754Y29883757D01*
X37743561Y29696612D01*
X37748444Y29681586D01*
X37844951Y29492180D01*
X37969890Y29320214D01*
X38120213Y29169891D01*
X38292182Y29044950D01*
X38300946Y29040484D01*
X38351742Y28992509D01*
X38368536Y28924688D01*
X38345998Y28858553D01*
X38300946Y28819516D01*
X38292182Y28815051D01*
X38120213Y28690110D01*
X37969890Y28539787D01*
X37844951Y28367821D01*
X37748444Y28178415D01*
X37682753Y27976240D01*
X37649500Y27766287D01*
X37649500Y27553714D01*
X37680225Y27359721D01*
X37682754Y27343757D01*
X37745506Y27150626D01*
X37748444Y27141586D01*
X37844951Y26952180D01*
X37969890Y26780214D01*
X38120213Y26629891D01*
X38292182Y26504950D01*
X38300946Y26500484D01*
X38351742Y26452509D01*
X38368536Y26384688D01*
X38345998Y26318553D01*
X38300946Y26279516D01*
X38292182Y26275051D01*
X38120213Y26150110D01*
X37969890Y25999787D01*
X37844951Y25827821D01*
X37748444Y25638415D01*
X37748443Y25638413D01*
X37748443Y25638412D01*
X37729533Y25580214D01*
X37682753Y25436240D01*
X37649500Y25226287D01*
X37649500Y25013714D01*
X37682753Y24803761D01*
X37748444Y24601586D01*
X37844951Y24412180D01*
X37969890Y24240214D01*
X38120213Y24089891D01*
X38292182Y23964950D01*
X38300946Y23960484D01*
X38351742Y23912509D01*
X38368536Y23844688D01*
X38345998Y23778553D01*
X38300946Y23739516D01*
X38292182Y23735051D01*
X38120213Y23610110D01*
X37969890Y23459787D01*
X37844951Y23287821D01*
X37748444Y23098415D01*
X37748443Y23098413D01*
X37748443Y23098412D01*
X37719948Y23010713D01*
X37682753Y22896240D01*
X37649500Y22686287D01*
X37649500Y22473714D01*
X37682753Y22263761D01*
X37748444Y22061586D01*
X37844951Y21872180D01*
X37969890Y21700214D01*
X38120213Y21549891D01*
X38292182Y21424950D01*
X38300946Y21420484D01*
X38351742Y21372509D01*
X38368536Y21304688D01*
X38345998Y21238553D01*
X38300946Y21199516D01*
X38292182Y21195051D01*
X38120213Y21070110D01*
X37969890Y20919787D01*
X37844951Y20747821D01*
X37748444Y20558415D01*
X37748443Y20558413D01*
X37748443Y20558412D01*
X37731389Y20505925D01*
X37682753Y20356240D01*
X37649500Y20146287D01*
X37649500Y19933714D01*
X37682735Y19723873D01*
X37682754Y19723757D01*
X37730612Y19576465D01*
X37748444Y19521586D01*
X37844951Y19332180D01*
X37969890Y19160214D01*
X38120213Y19009891D01*
X38292182Y18884950D01*
X38300946Y18880484D01*
X38351742Y18832509D01*
X38368536Y18764688D01*
X38345998Y18698553D01*
X38300946Y18659516D01*
X38292182Y18655051D01*
X38120213Y18530110D01*
X37969890Y18379787D01*
X37844951Y18207821D01*
X37748444Y18018415D01*
X37682753Y17816240D01*
X37649500Y17606287D01*
X37649500Y17393714D01*
X37680225Y17199721D01*
X37682754Y17183757D01*
X37730612Y17036465D01*
X37748444Y16981586D01*
X37844951Y16792180D01*
X37969890Y16620214D01*
X38120213Y16469891D01*
X38292182Y16344950D01*
X38300946Y16340484D01*
X38351742Y16292509D01*
X38368536Y16224688D01*
X38345998Y16158553D01*
X38300946Y16119516D01*
X38292182Y16115051D01*
X38120213Y15990110D01*
X37969890Y15839787D01*
X37844951Y15667821D01*
X37748444Y15478415D01*
X37682753Y15276240D01*
X37681749Y15269898D01*
X37649500Y15066287D01*
X37649500Y14853713D01*
X37656898Y14807007D01*
X37680225Y14659721D01*
X37682754Y14643757D01*
X37729463Y14500001D01*
X37748444Y14441586D01*
X37844951Y14252180D01*
X37969890Y14080214D01*
X38120213Y13929891D01*
X38292182Y13804950D01*
X38300946Y13800484D01*
X38351742Y13752509D01*
X38368536Y13684688D01*
X38345998Y13618553D01*
X38300946Y13579516D01*
X38292182Y13575051D01*
X38120213Y13450110D01*
X37969890Y13299787D01*
X37844951Y13127821D01*
X37748444Y12938415D01*
X37682753Y12736240D01*
X37649500Y12526287D01*
X37649500Y12313714D01*
X37681041Y12114568D01*
X37682754Y12103757D01*
X37717169Y11997838D01*
X37748444Y11901586D01*
X37844951Y11712180D01*
X37969890Y11540214D01*
X38120213Y11389891D01*
X38292182Y11264950D01*
X38300946Y11260484D01*
X38351742Y11212509D01*
X38368536Y11144688D01*
X38345998Y11078553D01*
X38300946Y11039516D01*
X38292182Y11035051D01*
X38120213Y10910110D01*
X37969890Y10759787D01*
X37844951Y10587821D01*
X37748444Y10398415D01*
X37682753Y10196240D01*
X37668506Y10106287D01*
X37649500Y9986287D01*
X37649500Y9773713D01*
X37653560Y9748082D01*
X37681041Y9574568D01*
X37682754Y9563757D01*
X37715890Y9461774D01*
X37748444Y9361586D01*
X37844951Y9172180D01*
X37969890Y9000214D01*
X38120213Y8849891D01*
X38292182Y8724950D01*
X38300946Y8720484D01*
X38351742Y8672509D01*
X38368536Y8604688D01*
X38345998Y8538553D01*
X38300946Y8499516D01*
X38292182Y8495051D01*
X38120213Y8370110D01*
X37969890Y8219787D01*
X37842085Y8043875D01*
X37840740Y8044852D01*
X37794295Y8002834D01*
X37740382Y7990500D01*
X35025929Y7990500D01*
X34900261Y7965503D01*
X34900255Y7965501D01*
X34781870Y7916465D01*
X34675331Y7845278D01*
X34675324Y7845272D01*
X29516873Y2686819D01*
X29455550Y2653334D01*
X29429192Y2650500D01*
X10570807Y2650500D01*
X10503768Y2670185D01*
X10483126Y2686819D01*
X8656264Y4513681D01*
X8176952Y4992993D01*
X5880654Y7289292D01*
X5847169Y7350615D01*
X5846718Y7352782D01*
X5829992Y7436867D01*
X5817816Y7498082D01*
X5753703Y7652863D01*
X5687768Y7751542D01*
X5660626Y7792163D01*
X5542162Y7910627D01*
X5402860Y8003705D01*
X5248082Y8067816D01*
X5248074Y8067818D01*
X5083771Y8100500D01*
X5083767Y8100500D01*
X4916233Y8100500D01*
X4916228Y8100500D01*
X4751925Y8067818D01*
X4751917Y8067816D01*
X4597139Y8003705D01*
X4457837Y7910627D01*
X4339373Y7792163D01*
X4246295Y7652861D01*
X4182184Y7498083D01*
X4182182Y7498075D01*
X4149500Y7333772D01*
X3346835Y7333772D01*
X3349998Y7353745D01*
X3350000Y7353764D01*
X3350000Y7566247D01*
X3316757Y7776128D01*
X3316757Y7776131D01*
X3251095Y7978218D01*
X3154624Y8167551D01*
X3115270Y8221718D01*
X3115269Y8221718D01*
X2482962Y7589410D01*
X2465925Y7652993D01*
X2400099Y7767007D01*
X2307007Y7860099D01*
X2192993Y7925925D01*
X2129409Y7942963D01*
X2761716Y8575272D01*
X2707547Y8614627D01*
X2707547Y8614628D01*
X2698500Y8619237D01*
X2647706Y8667212D01*
X2630912Y8735034D01*
X2653451Y8801168D01*
X2698508Y8840207D01*
X2707816Y8844949D01*
X2787007Y8902485D01*
X2879786Y8969891D01*
X2879788Y8969894D01*
X2879792Y8969896D01*
X3030104Y9120208D01*
X3072371Y9178385D01*
X3127701Y9221051D01*
X3172690Y9229500D01*
X12740382Y9229500D01*
X12807421Y9209815D01*
X12841099Y9175409D01*
X12842085Y9176125D01*
X12969890Y9000214D01*
X13120213Y8849891D01*
X13292182Y8724950D01*
X13300946Y8720484D01*
X13351742Y8672509D01*
X13368536Y8604688D01*
X13345998Y8538553D01*
X13300946Y8499516D01*
X13292182Y8495051D01*
X13120213Y8370110D01*
X12969890Y8219787D01*
X12844951Y8047821D01*
X12748444Y7858415D01*
X12748443Y7858413D01*
X12748443Y7858412D01*
X12744175Y7845276D01*
X12682753Y7656240D01*
X12649500Y7446287D01*
X12649500Y7233714D01*
X12661517Y7157838D01*
X12682754Y7023757D01*
X12739373Y6849501D01*
X12748444Y6821586D01*
X12844951Y6632180D01*
X12969890Y6460214D01*
X13083818Y6346286D01*
X13117303Y6284963D01*
X13112319Y6215271D01*
X13070447Y6159338D01*
X13039471Y6142423D01*
X12907912Y6093354D01*
X12907906Y6093351D01*
X12792812Y6007191D01*
X12792809Y6007188D01*
X12706649Y5892094D01*
X12706645Y5892087D01*
X12656403Y5757380D01*
X12656401Y5757373D01*
X12650000Y5697845D01*
X12650000Y5050000D01*
X13566988Y5050000D01*
X13534075Y4992993D01*
X13500000Y4865826D01*
X13500000Y4734174D01*
X13534075Y4607007D01*
X13566988Y4550000D01*
X12650000Y4550000D01*
X12650000Y3902156D01*
X12656401Y3842628D01*
X12656403Y3842621D01*
X12706645Y3707914D01*
X12706649Y3707907D01*
X12792809Y3592813D01*
X12792812Y3592810D01*
X12907906Y3506650D01*
X12907913Y3506646D01*
X13042620Y3456404D01*
X13042627Y3456402D01*
X13102155Y3450001D01*
X13102172Y3450000D01*
X13750000Y3450000D01*
X13750000Y4366988D01*
X13807007Y4334075D01*
X13934174Y4300000D01*
X14065826Y4300000D01*
X14192993Y4334075D01*
X14250000Y4366988D01*
X14250000Y3450000D01*
X14897828Y3450000D01*
X14897844Y3450001D01*
X14957372Y3456402D01*
X14957379Y3456404D01*
X15092086Y3506646D01*
X15092093Y3506650D01*
X15207187Y3592810D01*
X15207190Y3592813D01*
X15293350Y3707907D01*
X15293354Y3707914D01*
X15343596Y3842621D01*
X15343598Y3842628D01*
X15349999Y3902156D01*
X15350000Y3902173D01*
X15350000Y4550000D01*
X14433012Y4550000D01*
X14465925Y4607007D01*
X14500000Y4734174D01*
X14500000Y4865826D01*
X14465925Y4992993D01*
X14433012Y5050000D01*
X15350000Y5050000D01*
X15350000Y5697828D01*
X15349999Y5697845D01*
X15343598Y5757373D01*
X15343596Y5757380D01*
X15293354Y5892087D01*
X15293350Y5892094D01*
X15207190Y6007188D01*
X15207187Y6007191D01*
X15092093Y6093351D01*
X15092088Y6093354D01*
X14960528Y6142423D01*
X14904595Y6184295D01*
X14880178Y6249759D01*
X14895030Y6318032D01*
X14916175Y6346280D01*
X15030104Y6460208D01*
X15155051Y6632184D01*
X15251557Y6821588D01*
X15317246Y7023757D01*
X15350500Y7233713D01*
X15350500Y7446287D01*
X15317246Y7656243D01*
X15251557Y7858412D01*
X15155051Y8047816D01*
X15155049Y8047819D01*
X15155048Y8047821D01*
X15030109Y8219787D01*
X14879786Y8370110D01*
X14707820Y8495049D01*
X14707115Y8495409D01*
X14699054Y8499515D01*
X14648259Y8547488D01*
X14631463Y8615308D01*
X14653999Y8681444D01*
X14699054Y8720485D01*
X14707816Y8724949D01*
X14800427Y8792234D01*
X14879786Y8849891D01*
X14879788Y8849894D01*
X14879792Y8849896D01*
X15030104Y9000208D01*
X15030106Y9000212D01*
X15030109Y9000214D01*
X15155048Y9172180D01*
X15155047Y9172180D01*
X15155051Y9172184D01*
X15251557Y9361588D01*
X15317246Y9563757D01*
X15350500Y9773713D01*
X15350500Y9986287D01*
X15317246Y10196243D01*
X15251557Y10398412D01*
X15155051Y10587816D01*
X15155049Y10587819D01*
X15155048Y10587821D01*
X15030109Y10759787D01*
X14879786Y10910110D01*
X14707820Y11035049D01*
X14707115Y11035409D01*
X14699054Y11039515D01*
X14648259Y11087488D01*
X14631463Y11155308D01*
X14653999Y11221444D01*
X14699054Y11260485D01*
X14707816Y11264949D01*
X14800805Y11332509D01*
X14879786Y11389891D01*
X14879788Y11389894D01*
X14879792Y11389896D01*
X15030104Y11540208D01*
X15030106Y11540212D01*
X15030109Y11540214D01*
X15155048Y11712180D01*
X15155047Y11712180D01*
X15155051Y11712184D01*
X15251557Y11901588D01*
X15317246Y12103757D01*
X15350500Y12313713D01*
X15350500Y12526287D01*
X15317246Y12736243D01*
X15251557Y12938412D01*
X15155051Y13127816D01*
X15155049Y13127819D01*
X15155048Y13127821D01*
X15030109Y13299787D01*
X14879786Y13450110D01*
X14707820Y13575049D01*
X14707115Y13575409D01*
X14699054Y13579515D01*
X14648259Y13627488D01*
X14631463Y13695308D01*
X14653999Y13761444D01*
X14699054Y13800485D01*
X14707816Y13804949D01*
X14825568Y13890500D01*
X14879786Y13929891D01*
X14879788Y13929894D01*
X14879792Y13929896D01*
X15030104Y14080208D01*
X15030106Y14080212D01*
X15030109Y14080214D01*
X15155048Y14252180D01*
X15155047Y14252180D01*
X15155051Y14252184D01*
X15251557Y14441588D01*
X15317246Y14643757D01*
X15350500Y14853713D01*
X15350500Y15066287D01*
X15317246Y15276243D01*
X15251557Y15478412D01*
X15155051Y15667816D01*
X15155049Y15667819D01*
X15155048Y15667821D01*
X15030109Y15839787D01*
X14879786Y15990110D01*
X14707820Y16115049D01*
X14707115Y16115409D01*
X14699054Y16119515D01*
X14648259Y16167488D01*
X14631463Y16235308D01*
X14653999Y16301444D01*
X14699054Y16340485D01*
X14707816Y16344949D01*
X14729789Y16360914D01*
X14879786Y16469891D01*
X14879788Y16469894D01*
X14879792Y16469896D01*
X15030104Y16620208D01*
X15030106Y16620212D01*
X15030109Y16620214D01*
X15155048Y16792180D01*
X15155047Y16792180D01*
X15155051Y16792184D01*
X15251557Y16981588D01*
X15317246Y17183757D01*
X15350500Y17393713D01*
X15350500Y17606287D01*
X15317246Y17816243D01*
X15251557Y18018412D01*
X15155051Y18207816D01*
X15155049Y18207819D01*
X15155048Y18207821D01*
X15030109Y18379787D01*
X14879786Y18530110D01*
X14707817Y18655051D01*
X14698504Y18659796D01*
X14647707Y18707770D01*
X14630912Y18775591D01*
X14653449Y18841726D01*
X14698507Y18880768D01*
X14707555Y18885378D01*
X14761716Y18924730D01*
X14761717Y18924730D01*
X14129408Y19557038D01*
X14192993Y19574075D01*
X14307007Y19639901D01*
X14400099Y19732993D01*
X14465925Y19847007D01*
X14482962Y19910592D01*
X15115270Y19278283D01*
X15115270Y19278284D01*
X15154622Y19332446D01*
X15251095Y19521783D01*
X15316757Y19723870D01*
X15316757Y19723873D01*
X15350000Y19933754D01*
X15350000Y20146247D01*
X15316757Y20356128D01*
X15316757Y20356131D01*
X15251095Y20558218D01*
X15154624Y20747551D01*
X15115270Y20801718D01*
X15115269Y20801718D01*
X14482962Y20169410D01*
X14465925Y20232993D01*
X14400099Y20347007D01*
X14307007Y20440099D01*
X14192993Y20505925D01*
X14129409Y20522963D01*
X14761716Y21155272D01*
X14707547Y21194627D01*
X14707547Y21194628D01*
X14698500Y21199237D01*
X14647706Y21247212D01*
X14630912Y21315034D01*
X14653451Y21381168D01*
X14698508Y21420207D01*
X14707816Y21424949D01*
X14787007Y21482485D01*
X14879786Y21549891D01*
X14879788Y21549894D01*
X14879792Y21549896D01*
X15030104Y21700208D01*
X15030106Y21700212D01*
X15030109Y21700214D01*
X15155048Y21872180D01*
X15155047Y21872180D01*
X15155051Y21872184D01*
X15251557Y22061588D01*
X15317246Y22263757D01*
X15350500Y22473713D01*
X15350500Y22686287D01*
X15319590Y22881444D01*
X15316484Y22901055D01*
X15318123Y22901315D01*
X15321257Y22963874D01*
X15350655Y23010711D01*
X17949293Y25609348D01*
X18010614Y25642831D01*
X18012781Y25643282D01*
X18031360Y25646978D01*
X18158082Y25672184D01*
X18312863Y25736297D01*
X18452162Y25829374D01*
X18570626Y25947838D01*
X18663703Y26087137D01*
X18727816Y26241918D01*
X18760500Y26406233D01*
X18760500Y26573767D01*
X18727816Y26738082D01*
X18663703Y26892863D01*
X18632537Y26939506D01*
X18570626Y27032163D01*
X18452162Y27150627D01*
X18312860Y27243705D01*
X18158082Y27307816D01*
X18158074Y27307818D01*
X17993771Y27340500D01*
X17993767Y27340500D01*
X17826233Y27340500D01*
X17826228Y27340500D01*
X17661925Y27307818D01*
X17661917Y27307816D01*
X17507139Y27243705D01*
X17367837Y27150627D01*
X17249373Y27032163D01*
X17156295Y26892861D01*
X17092184Y26738083D01*
X17092182Y26738077D01*
X17063281Y26592781D01*
X17030896Y26530870D01*
X17029345Y26529292D01*
X15562181Y25062128D01*
X15500858Y25028643D01*
X15431166Y25033627D01*
X15375233Y25075499D01*
X15350816Y25140963D01*
X15350500Y25149809D01*
X15350500Y25226287D01*
X15316484Y25441055D01*
X15318123Y25441315D01*
X15321257Y25503874D01*
X15350655Y25550711D01*
X17729293Y27929348D01*
X17790614Y27962831D01*
X17792781Y27963282D01*
X17829068Y27970500D01*
X17938082Y27992184D01*
X18092863Y28056297D01*
X18232162Y28149374D01*
X18350626Y28267838D01*
X18443703Y28407137D01*
X18507816Y28561918D01*
X18540500Y28726233D01*
X18540500Y28893767D01*
X18507816Y29058082D01*
X18443703Y29212863D01*
X18408033Y29266247D01*
X18350626Y29352163D01*
X18232162Y29470627D01*
X18092860Y29563705D01*
X17938082Y29627816D01*
X17938074Y29627818D01*
X17773771Y29660500D01*
X17773767Y29660500D01*
X17606233Y29660500D01*
X17606228Y29660500D01*
X17441925Y29627818D01*
X17441917Y29627816D01*
X17287139Y29563705D01*
X17147837Y29470627D01*
X17029373Y29352163D01*
X16936295Y29212861D01*
X16872184Y29058083D01*
X16872182Y29058077D01*
X16843281Y28912781D01*
X16810896Y28850870D01*
X16809345Y28849292D01*
X15562181Y27602128D01*
X15500858Y27568643D01*
X15431166Y27573627D01*
X15375233Y27615499D01*
X15350816Y27680963D01*
X15350500Y27689809D01*
X15350500Y27766287D01*
X15346356Y27792453D01*
X15317246Y27976243D01*
X15251557Y28178412D01*
X15155051Y28367816D01*
X15155049Y28367819D01*
X15155048Y28367821D01*
X15030109Y28539787D01*
X14879786Y28690110D01*
X14707820Y28815049D01*
X14707115Y28815409D01*
X14699054Y28819515D01*
X14648259Y28867488D01*
X14631463Y28935308D01*
X14653999Y29001444D01*
X14699054Y29040485D01*
X14707816Y29044949D01*
X14775569Y29094174D01*
X14879786Y29169891D01*
X14879788Y29169894D01*
X14879792Y29169896D01*
X15030104Y29320208D01*
X15030106Y29320212D01*
X15030109Y29320214D01*
X15155048Y29492180D01*
X15155047Y29492180D01*
X15155051Y29492184D01*
X15251557Y29681588D01*
X15317246Y29883757D01*
X15350500Y30093713D01*
X15350500Y30306287D01*
X15317246Y30516243D01*
X15251557Y30718412D01*
X15155051Y30907816D01*
X15155049Y30907819D01*
X15155048Y30907821D01*
X15030109Y31079787D01*
X14879786Y31230110D01*
X14707820Y31355049D01*
X14707115Y31355409D01*
X14699054Y31359515D01*
X14648259Y31407488D01*
X14631463Y31475308D01*
X14653999Y31541444D01*
X14699054Y31580485D01*
X14707816Y31584949D01*
X14800003Y31651926D01*
X14879786Y31709891D01*
X14879788Y31709894D01*
X14879792Y31709896D01*
X15030104Y31860208D01*
X15030106Y31860212D01*
X15030109Y31860214D01*
X15155048Y32032180D01*
X15155049Y32032181D01*
X15155051Y32032184D01*
X15251557Y32221588D01*
X15301005Y32373772D01*
X22859500Y32373772D01*
X22859500Y32206229D01*
X22892182Y32041926D01*
X22892184Y32041918D01*
X22956295Y31887140D01*
X23049373Y31747838D01*
X23167837Y31629374D01*
X23197581Y31609500D01*
X23307137Y31536297D01*
X23461918Y31472184D01*
X23626228Y31439501D01*
X23626232Y31439500D01*
X23626233Y31439500D01*
X23793768Y31439500D01*
X23793769Y31439501D01*
X23958082Y31472184D01*
X24112863Y31536297D01*
X24252162Y31629374D01*
X24370626Y31747838D01*
X24463703Y31887137D01*
X24527816Y32041918D01*
X24556718Y32187224D01*
X24589102Y32249131D01*
X24590597Y32250653D01*
X27739459Y35399516D01*
X27739464Y35399519D01*
X27749667Y35409723D01*
X27749669Y35409723D01*
X36505277Y44165331D01*
X36576466Y44271874D01*
X36625501Y44390257D01*
X36625823Y44391873D01*
X36625826Y44391887D01*
X36650500Y44515929D01*
X36650500Y45505069D01*
X36670185Y45572108D01*
X36671398Y45573960D01*
X36753703Y45697137D01*
X36817816Y45851918D01*
X36850500Y46016233D01*
X36850500Y46183767D01*
X36817816Y46348082D01*
X36753703Y46502863D01*
X36722537Y46549506D01*
X36660626Y46642163D01*
X36542162Y46760627D01*
X36402860Y46853705D01*
X36248082Y46917816D01*
X36248074Y46917818D01*
X36083771Y46950500D01*
X36083767Y46950500D01*
X35916233Y46950500D01*
X35916228Y46950500D01*
X35751925Y46917818D01*
X35751917Y46917816D01*
X35597139Y46853705D01*
X35457837Y46760627D01*
X35339373Y46642163D01*
X35246295Y46502861D01*
X35182184Y46348083D01*
X35182182Y46348075D01*
X35149500Y46183772D01*
X35149500Y46016229D01*
X35182182Y45851926D01*
X35182184Y45851918D01*
X35246295Y45697140D01*
X35246296Y45697138D01*
X35246297Y45697137D01*
X35319524Y45587545D01*
X35328602Y45573960D01*
X35349480Y45507283D01*
X35349500Y45505069D01*
X35349500Y44900808D01*
X35329815Y44833769D01*
X35313181Y44813127D01*
X26829721Y36329667D01*
X23670708Y33170655D01*
X23609385Y33137170D01*
X23607219Y33136719D01*
X23461923Y33107818D01*
X23461917Y33107816D01*
X23307139Y33043705D01*
X23167837Y32950627D01*
X23049373Y32832163D01*
X22956295Y32692861D01*
X22892184Y32538083D01*
X22892182Y32538075D01*
X22859500Y32373772D01*
X15301005Y32373772D01*
X15317246Y32423757D01*
X15350500Y32633713D01*
X15350500Y32846287D01*
X15317246Y33056243D01*
X15251557Y33258412D01*
X15155051Y33447816D01*
X15155049Y33447819D01*
X15155048Y33447821D01*
X15030109Y33619787D01*
X14879786Y33770110D01*
X14707820Y33895049D01*
X14707115Y33895409D01*
X14699054Y33899515D01*
X14648259Y33947488D01*
X14631463Y34015308D01*
X14653999Y34081444D01*
X14699054Y34120485D01*
X14707816Y34124949D01*
X14766449Y34167548D01*
X14879786Y34249891D01*
X14879788Y34249894D01*
X14879792Y34249896D01*
X15030104Y34400208D01*
X15030106Y34400212D01*
X15030109Y34400214D01*
X15155048Y34572180D01*
X15155047Y34572180D01*
X15155051Y34572184D01*
X15251557Y34761588D01*
X15317246Y34963757D01*
X15350500Y35173713D01*
X15350500Y35386287D01*
X15317246Y35596243D01*
X15251557Y35798412D01*
X15155051Y35987816D01*
X15155049Y35987819D01*
X15155048Y35987821D01*
X15030109Y36159787D01*
X14879786Y36310110D01*
X14707820Y36435049D01*
X14707115Y36435409D01*
X14699054Y36439515D01*
X14648259Y36487488D01*
X14631463Y36555308D01*
X14653999Y36621444D01*
X14699054Y36660485D01*
X14707816Y36664949D01*
X14762572Y36704731D01*
X14879786Y36789891D01*
X14879788Y36789894D01*
X14879792Y36789896D01*
X15030104Y36940208D01*
X15030106Y36940212D01*
X15030109Y36940214D01*
X15155048Y37112180D01*
X15155047Y37112180D01*
X15155051Y37112184D01*
X15251557Y37301588D01*
X15317246Y37503757D01*
X15350500Y37713713D01*
X15350500Y37926287D01*
X15317246Y38136243D01*
X15251557Y38338412D01*
X15155051Y38527816D01*
X15155049Y38527819D01*
X15155048Y38527821D01*
X15030109Y38699787D01*
X14879786Y38850110D01*
X14707820Y38975049D01*
X14699600Y38979237D01*
X14699054Y38979515D01*
X14648259Y39027488D01*
X14631463Y39095308D01*
X14653999Y39161444D01*
X14699054Y39200485D01*
X14707816Y39204949D01*
X14764727Y39246297D01*
X14879786Y39329891D01*
X14879788Y39329894D01*
X14879792Y39329896D01*
X15030104Y39480208D01*
X15030106Y39480212D01*
X15030109Y39480214D01*
X15155048Y39652180D01*
X15155047Y39652180D01*
X15155051Y39652184D01*
X15251557Y39841588D01*
X15317246Y40043757D01*
X15350500Y40253713D01*
X15350500Y40466287D01*
X15317246Y40676243D01*
X15251557Y40878412D01*
X15155051Y41067816D01*
X15155049Y41067819D01*
X15155048Y41067821D01*
X15030109Y41239787D01*
X14879786Y41390110D01*
X14707820Y41515049D01*
X14707115Y41515409D01*
X14699054Y41519515D01*
X14648259Y41567488D01*
X14631463Y41635308D01*
X14653999Y41701444D01*
X14699054Y41740485D01*
X14707816Y41744949D01*
X14729789Y41760914D01*
X14879786Y41869891D01*
X14879788Y41869894D01*
X14879792Y41869896D01*
X15030104Y42020208D01*
X15030106Y42020212D01*
X15030109Y42020214D01*
X15155048Y42192180D01*
X15155047Y42192180D01*
X15155051Y42192184D01*
X15251557Y42381588D01*
X15317246Y42583757D01*
X15350500Y42793713D01*
X15350500Y43006287D01*
X15317246Y43216243D01*
X15251557Y43418412D01*
X15155051Y43607816D01*
X15155049Y43607819D01*
X15155048Y43607821D01*
X15030109Y43779787D01*
X14879786Y43930110D01*
X14707820Y44055049D01*
X14707115Y44055409D01*
X14699054Y44059515D01*
X14648259Y44107488D01*
X14631463Y44175308D01*
X14653999Y44241444D01*
X14699054Y44280485D01*
X14707816Y44284949D01*
X14750459Y44315931D01*
X14879786Y44409891D01*
X14879788Y44409894D01*
X14879792Y44409896D01*
X15030104Y44560208D01*
X15030106Y44560212D01*
X15030109Y44560214D01*
X15155048Y44732180D01*
X15155047Y44732180D01*
X15155051Y44732184D01*
X15251557Y44921588D01*
X15317246Y45123757D01*
X15350500Y45333713D01*
X15350500Y45546287D01*
X15317246Y45756243D01*
X15251557Y45958412D01*
X15155051Y46147816D01*
X15155049Y46147819D01*
X15155048Y46147821D01*
X15030109Y46319787D01*
X14879786Y46470110D01*
X14707820Y46595049D01*
X14707115Y46595409D01*
X14699054Y46599515D01*
X14648259Y46647488D01*
X14631463Y46715308D01*
X14653999Y46781444D01*
X14699054Y46820485D01*
X14707816Y46824949D01*
X14808477Y46898083D01*
X14879786Y46949891D01*
X14879788Y46949894D01*
X14879792Y46949896D01*
X15030104Y47100208D01*
X15030106Y47100212D01*
X15030109Y47100214D01*
X15155048Y47272180D01*
X15155047Y47272180D01*
X15155051Y47272184D01*
X15251557Y47461588D01*
X15317246Y47663757D01*
X15350500Y47873713D01*
X15350500Y48086287D01*
X15317246Y48296243D01*
X15251557Y48498412D01*
X15155051Y48687816D01*
X15155049Y48687819D01*
X15155048Y48687821D01*
X15030109Y48859787D01*
X14879786Y49010110D01*
X14707820Y49135049D01*
X14707115Y49135409D01*
X14699054Y49139515D01*
X14648259Y49187488D01*
X14631463Y49255308D01*
X14653999Y49321444D01*
X14699054Y49360485D01*
X14707816Y49364949D01*
X14729789Y49380914D01*
X14879786Y49489891D01*
X14879788Y49489894D01*
X14879792Y49489896D01*
X15030104Y49640208D01*
X15030106Y49640212D01*
X15030109Y49640214D01*
X15155048Y49812180D01*
X15155047Y49812180D01*
X15155051Y49812184D01*
X15251557Y50001588D01*
X15317246Y50203757D01*
X15350500Y50413713D01*
X15350500Y50626287D01*
X15317246Y50836243D01*
X15251557Y51038412D01*
X15155051Y51227816D01*
X15155049Y51227819D01*
X15155048Y51227821D01*
X15030109Y51399787D01*
X14879786Y51550110D01*
X14707820Y51675049D01*
X14518414Y51771556D01*
X14518413Y51771557D01*
X14518412Y51771557D01*
X14316243Y51837246D01*
X14316241Y51837247D01*
X14316240Y51837247D01*
X14154957Y51862792D01*
X14106287Y51870500D01*
X13893713Y51870500D01*
X13845042Y51862792D01*
X13683760Y51837247D01*
X13481585Y51771556D01*
X13292179Y51675049D01*
X13120213Y51550110D01*
X12969890Y51399787D01*
X12844951Y51227821D01*
X12748444Y51038415D01*
X12682753Y50836240D01*
X12649500Y50626287D01*
X12649500Y50413714D01*
X12673248Y50263771D01*
X12682754Y50203757D01*
X12718214Y50094622D01*
X12748444Y50001586D01*
X12844951Y49812180D01*
X12969890Y49640214D01*
X13120213Y49489891D01*
X13292182Y49364950D01*
X13300946Y49360484D01*
X13351742Y49312509D01*
X13368536Y49244688D01*
X13345998Y49178553D01*
X13300946Y49139516D01*
X13292182Y49135051D01*
X13120213Y49010110D01*
X12969890Y48859787D01*
X12844951Y48687821D01*
X12748444Y48498415D01*
X12682753Y48296240D01*
X12649500Y48086287D01*
X12649500Y47873714D01*
X12682753Y47663761D01*
X12682753Y47663759D01*
X12682754Y47663757D01*
X12713055Y47570500D01*
X12748444Y47461586D01*
X12844951Y47272180D01*
X12969890Y47100214D01*
X13120213Y46949891D01*
X13292182Y46824950D01*
X13300946Y46820484D01*
X13351742Y46772509D01*
X13368536Y46704688D01*
X13345998Y46638553D01*
X13300946Y46599516D01*
X13292182Y46595051D01*
X13120213Y46470110D01*
X12969890Y46319787D01*
X12844951Y46147821D01*
X12748444Y45958415D01*
X12682753Y45756240D01*
X12649500Y45546287D01*
X12649500Y45469808D01*
X12629815Y45402769D01*
X12577011Y45357014D01*
X12507853Y45347070D01*
X12444297Y45376095D01*
X12437819Y45382127D01*
X12186819Y45633127D01*
X12153334Y45694450D01*
X12150500Y45720808D01*
X12150500Y55383772D01*
X17649500Y55383772D01*
X17649500Y55216229D01*
X17682182Y55051926D01*
X17682184Y55051918D01*
X17746295Y54897140D01*
X17839373Y54757838D01*
X17957837Y54639374D01*
X18050494Y54577463D01*
X18097137Y54546297D01*
X18251918Y54482184D01*
X18416228Y54449501D01*
X18416232Y54449500D01*
X18416233Y54449500D01*
X18583768Y54449500D01*
X18583769Y54449501D01*
X18748082Y54482184D01*
X18902863Y54546297D01*
X19042162Y54639374D01*
X19160626Y54757838D01*
X19253703Y54897137D01*
X19317816Y55051918D01*
X19350500Y55216233D01*
X19350500Y55383767D01*
X19317816Y55548082D01*
X19256939Y55695051D01*
X19253704Y55702861D01*
X19229666Y55738836D01*
X19171398Y55826041D01*
X19150520Y55892719D01*
X19150500Y55894932D01*
X19150500Y61586234D01*
X21374500Y61586234D01*
X21374500Y50263767D01*
X21408143Y50094634D01*
X21408146Y50094622D01*
X21474138Y49935302D01*
X21474145Y49935289D01*
X21569954Y49791902D01*
X21569957Y49791898D01*
X26241897Y45119958D01*
X26241905Y45119952D01*
X26385293Y45024143D01*
X26385303Y45024139D01*
X26544626Y44958145D01*
X26713766Y44924501D01*
X26713769Y44924500D01*
X26713771Y44924500D01*
X26886231Y44924500D01*
X26886232Y44924501D01*
X27055374Y44958145D01*
X27214705Y45024142D01*
X27358099Y45119955D01*
X27480045Y45241901D01*
X27575858Y45385295D01*
X27641855Y45544626D01*
X27675500Y45713771D01*
X27675500Y45886229D01*
X27675500Y45886232D01*
X27675499Y45886234D01*
X27649641Y46016232D01*
X27641855Y46055374D01*
X27575858Y46214704D01*
X27575857Y46214706D01*
X27575857Y46214707D01*
X27480048Y46358095D01*
X27480042Y46358103D01*
X23161819Y50676326D01*
X23128334Y50737649D01*
X23125500Y50764007D01*
X23125500Y61586232D01*
X23125499Y61586234D01*
X23091856Y61755367D01*
X23091855Y61755374D01*
X23089819Y61760289D01*
X23025861Y61914699D01*
X23025854Y61914712D01*
X22930045Y62058099D01*
X22930042Y62058103D01*
X22808102Y62180043D01*
X22808098Y62180046D01*
X22664711Y62275855D01*
X22664698Y62275862D01*
X22505378Y62341854D01*
X22505366Y62341857D01*
X22336232Y62375500D01*
X22336229Y62375500D01*
X22163771Y62375500D01*
X22163768Y62375500D01*
X21994633Y62341857D01*
X21994621Y62341854D01*
X21835301Y62275862D01*
X21835288Y62275855D01*
X21691901Y62180046D01*
X21691897Y62180043D01*
X21569957Y62058103D01*
X21569954Y62058099D01*
X21474145Y61914712D01*
X21474138Y61914699D01*
X21408146Y61755379D01*
X21408143Y61755367D01*
X21374500Y61586234D01*
X19150500Y61586234D01*
X19150500Y68554192D01*
X19170185Y68621231D01*
X19186819Y68641873D01*
X23137819Y72592873D01*
X23199142Y72626358D01*
X23268834Y72621374D01*
X23324767Y72579502D01*
X23349184Y72514038D01*
X23349500Y72505192D01*
X23349500Y70235931D01*
X23349500Y70235929D01*
X23349499Y70235929D01*
X23371665Y70124502D01*
X23374497Y70110261D01*
X23374500Y70110254D01*
X23421702Y69996297D01*
X23423535Y69991873D01*
X23463418Y69932183D01*
X23494726Y69885327D01*
X23494727Y69885326D01*
X24513181Y68866873D01*
X24546666Y68805550D01*
X24549500Y68779192D01*
X24549500Y52594932D01*
X24529815Y52527893D01*
X24528602Y52526041D01*
X24446295Y52402861D01*
X24382184Y52248083D01*
X24382182Y52248075D01*
X24349500Y52083772D01*
X24349500Y51916229D01*
X24382182Y51751926D01*
X24382184Y51751918D01*
X24446295Y51597140D01*
X24539373Y51457838D01*
X24657837Y51339374D01*
X24750494Y51277463D01*
X24797137Y51246297D01*
X24951918Y51182184D01*
X25116228Y51149501D01*
X25116232Y51149500D01*
X25116233Y51149500D01*
X25283768Y51149500D01*
X25283769Y51149501D01*
X25448082Y51182184D01*
X25602863Y51246297D01*
X25742162Y51339374D01*
X25860626Y51457838D01*
X25953703Y51597137D01*
X26017816Y51751918D01*
X26050500Y51916233D01*
X26050500Y52083767D01*
X26017816Y52248082D01*
X25953703Y52402863D01*
X25888860Y52499907D01*
X25871398Y52526041D01*
X25850520Y52592719D01*
X25850500Y52594932D01*
X25850500Y58180192D01*
X25870185Y58247231D01*
X25922989Y58292986D01*
X25992147Y58302930D01*
X26055703Y58273905D01*
X26062181Y58267873D01*
X29813181Y54516873D01*
X29846666Y54455550D01*
X29849500Y54429192D01*
X29849500Y51754936D01*
X29829815Y51687897D01*
X29828606Y51686052D01*
X29824861Y51680447D01*
X29790608Y51629183D01*
X29790602Y51629172D01*
X29730264Y51483502D01*
X29730261Y51483490D01*
X29699500Y51328847D01*
X29699500Y51171154D01*
X29730261Y51016511D01*
X29730264Y51016499D01*
X29790602Y50870828D01*
X29790609Y50870815D01*
X29878210Y50739712D01*
X29878213Y50739708D01*
X29989707Y50628214D01*
X29989711Y50628211D01*
X30120814Y50540610D01*
X30120827Y50540603D01*
X30266498Y50480265D01*
X30266503Y50480263D01*
X30421153Y50449501D01*
X30421156Y50449500D01*
X30421158Y50449500D01*
X30578844Y50449500D01*
X30578845Y50449501D01*
X30733497Y50480263D01*
X30879179Y50540606D01*
X31010289Y50628211D01*
X31010292Y50628214D01*
X31037319Y50655240D01*
X31098642Y50688725D01*
X31168334Y50683741D01*
X31212681Y50655240D01*
X31239707Y50628214D01*
X31239711Y50628211D01*
X31370814Y50540610D01*
X31370827Y50540603D01*
X31516498Y50480265D01*
X31516503Y50480263D01*
X31671153Y50449501D01*
X31671156Y50449500D01*
X31671158Y50449500D01*
X31828844Y50449500D01*
X31828845Y50449501D01*
X31983497Y50480263D01*
X32129179Y50540606D01*
X32260289Y50628211D01*
X32260292Y50628214D01*
X32287319Y50655240D01*
X32348642Y50688725D01*
X32418334Y50683741D01*
X32462681Y50655240D01*
X32489707Y50628214D01*
X32489711Y50628211D01*
X32620814Y50540610D01*
X32620827Y50540603D01*
X32766498Y50480265D01*
X32766503Y50480263D01*
X32921153Y50449501D01*
X32921156Y50449500D01*
X32921158Y50449500D01*
X33078844Y50449500D01*
X33078845Y50449501D01*
X33233497Y50480263D01*
X33379179Y50540606D01*
X33510289Y50628211D01*
X33510292Y50628214D01*
X33537319Y50655240D01*
X33598642Y50688725D01*
X33668334Y50683741D01*
X33712681Y50655240D01*
X33739707Y50628214D01*
X33739711Y50628211D01*
X33870814Y50540610D01*
X33870827Y50540603D01*
X34016498Y50480265D01*
X34016503Y50480263D01*
X34171153Y50449501D01*
X34171156Y50449500D01*
X34171158Y50449500D01*
X34328844Y50449500D01*
X34328845Y50449501D01*
X34483497Y50480263D01*
X34629179Y50540606D01*
X34760289Y50628211D01*
X34799566Y50667488D01*
X34850919Y50718840D01*
X34871786Y50739708D01*
X34871789Y50739711D01*
X34959394Y50870821D01*
X35019737Y51016503D01*
X35050500Y51171158D01*
X35050500Y51328842D01*
X35050500Y51328845D01*
X35050499Y51328847D01*
X35036387Y51399792D01*
X35019737Y51483497D01*
X34989918Y51555487D01*
X34959397Y51629172D01*
X34959396Y51629173D01*
X34959394Y51629179D01*
X34921396Y51686047D01*
X34900520Y51752724D01*
X34900500Y51754936D01*
X34900500Y56564072D01*
X34875502Y56689739D01*
X34875501Y56689740D01*
X34875501Y56689744D01*
X34826465Y56808127D01*
X34826464Y56808130D01*
X34755277Y56914669D01*
X34755271Y56914676D01*
X30317015Y61352932D01*
X30283530Y61414255D01*
X30283079Y61416422D01*
X30269738Y61483490D01*
X30269737Y61483497D01*
X30245599Y61541770D01*
X30209397Y61629173D01*
X30209390Y61629186D01*
X30121789Y61760289D01*
X30121786Y61760293D01*
X30010292Y61871787D01*
X30010288Y61871790D01*
X29879185Y61959391D01*
X29879180Y61959393D01*
X29879179Y61959394D01*
X29868554Y61963795D01*
X29814151Y62007637D01*
X29792087Y62073931D01*
X29809367Y62141631D01*
X29812893Y62147227D01*
X29875465Y62240873D01*
X29924501Y62359256D01*
X29927732Y62375500D01*
X29949500Y62484931D01*
X29949500Y66515069D01*
X29949500Y66515072D01*
X29924502Y66640739D01*
X29924501Y66640740D01*
X29924501Y66640744D01*
X29875465Y66759127D01*
X29804277Y66865669D01*
X29804275Y66865671D01*
X29804273Y66865674D01*
X29804272Y66865675D01*
X28567014Y68102932D01*
X28533529Y68164255D01*
X28533105Y68166286D01*
X28519737Y68233497D01*
X28495599Y68291770D01*
X28459397Y68379173D01*
X28459390Y68379186D01*
X28371789Y68510289D01*
X28371786Y68510293D01*
X28260292Y68621787D01*
X28260288Y68621790D01*
X28129185Y68709391D01*
X28129172Y68709398D01*
X27983501Y68769736D01*
X27983489Y68769739D01*
X27828845Y68800500D01*
X27828842Y68800500D01*
X27671158Y68800500D01*
X27671155Y68800500D01*
X27516510Y68769739D01*
X27516498Y68769736D01*
X27370827Y68709398D01*
X27370816Y68709392D01*
X27343390Y68691066D01*
X27276712Y68670189D01*
X27209332Y68688674D01*
X27162643Y68740654D01*
X27150500Y68794169D01*
X27150500Y69264072D01*
X27125502Y69389739D01*
X27125501Y69389740D01*
X27125501Y69389744D01*
X27079624Y69500501D01*
X27076466Y69508126D01*
X27005277Y69614669D01*
X27005275Y69614672D01*
X25886819Y70733128D01*
X25853334Y70794451D01*
X25850500Y70820809D01*
X25850500Y71979192D01*
X25870185Y72046231D01*
X25886819Y72066873D01*
X26133127Y72313181D01*
X26160054Y72327885D01*
X26185873Y72344477D01*
X26192073Y72345369D01*
X26194450Y72346666D01*
X26220808Y72349500D01*
X26245065Y72349500D01*
X26312104Y72329815D01*
X26313909Y72328634D01*
X26370821Y72290606D01*
X26370823Y72290605D01*
X26370827Y72290603D01*
X26516498Y72230265D01*
X26516503Y72230263D01*
X26671153Y72199501D01*
X26671156Y72199500D01*
X26671158Y72199500D01*
X26828844Y72199500D01*
X26828845Y72199501D01*
X26983497Y72230263D01*
X27129179Y72290606D01*
X27260289Y72378211D01*
X27371789Y72489711D01*
X27459394Y72620821D01*
X27461688Y72626358D01*
X27473067Y72653834D01*
X27519737Y72766503D01*
X27550500Y72921158D01*
X27550500Y73078842D01*
X27550500Y73078845D01*
X27550499Y73078847D01*
X27535001Y73156761D01*
X27519737Y73233497D01*
X27519735Y73233502D01*
X27459397Y73379173D01*
X27459390Y73379186D01*
X27371789Y73510289D01*
X27371786Y73510293D01*
X27260291Y73621788D01*
X27259379Y73622397D01*
X27259008Y73622840D01*
X27255581Y73625653D01*
X27256114Y73626304D01*
X27237633Y73648417D01*
X27215475Y73673989D01*
X27215311Y73675127D01*
X27214573Y73676010D01*
X27210350Y73709626D01*
X27205531Y73743147D01*
X27206009Y73744195D01*
X27205866Y73745334D01*
X27220474Y73775869D01*
X27234556Y73806703D01*
X27235523Y73807326D01*
X27236020Y73808362D01*
X27264837Y73826164D01*
X27293334Y73844477D01*
X27294832Y73844693D01*
X27295463Y73845082D01*
X27328269Y73849500D01*
X27495065Y73849500D01*
X27562104Y73829815D01*
X27563909Y73828634D01*
X27620821Y73790606D01*
X27620823Y73790605D01*
X27620827Y73790603D01*
X27730118Y73745334D01*
X27766503Y73730263D01*
X27870252Y73709626D01*
X27921153Y73699501D01*
X27921156Y73699500D01*
X27921158Y73699500D01*
X28078844Y73699500D01*
X28078845Y73699501D01*
X28233497Y73730263D01*
X28379179Y73790606D01*
X28510289Y73878211D01*
X28621789Y73989711D01*
X28709394Y74120821D01*
X28769737Y74266503D01*
X28800500Y74421158D01*
X28800500Y74578842D01*
X28800500Y74578845D01*
X28800499Y74578847D01*
X28769738Y74733490D01*
X28769737Y74733497D01*
X28769735Y74733502D01*
X28709397Y74879173D01*
X28709390Y74879186D01*
X28621789Y75010289D01*
X28621786Y75010293D01*
X28510292Y75121787D01*
X28510288Y75121790D01*
X28379185Y75209391D01*
X28379172Y75209398D01*
X28233501Y75269736D01*
X28233489Y75269739D01*
X28078845Y75300500D01*
X28078842Y75300500D01*
X27921158Y75300500D01*
X27921155Y75300500D01*
X27766510Y75269739D01*
X27766498Y75269736D01*
X27620827Y75209398D01*
X27620820Y75209394D01*
X27591928Y75190089D01*
X27563955Y75171398D01*
X27497279Y75150520D01*
X27495065Y75150500D01*
X25799500Y75150500D01*
X25732461Y75170185D01*
X25686706Y75222989D01*
X25675500Y75274500D01*
X25675500Y75328845D01*
X25675499Y75328847D01*
X25644738Y75483490D01*
X25644738Y75483492D01*
X25644737Y75483497D01*
X25644735Y75483502D01*
X25584397Y75629173D01*
X25584390Y75629186D01*
X25496789Y75760289D01*
X25496786Y75760293D01*
X25385292Y75871787D01*
X25385288Y75871790D01*
X25254185Y75959391D01*
X25254172Y75959398D01*
X25108501Y76019736D01*
X25108489Y76019739D01*
X24953845Y76050500D01*
X24953842Y76050500D01*
X24796158Y76050500D01*
X24796155Y76050500D01*
X24641510Y76019739D01*
X24641498Y76019736D01*
X24495827Y75959398D01*
X24495814Y75959391D01*
X24364711Y75871790D01*
X24364707Y75871787D01*
X24253213Y75760293D01*
X24253210Y75760289D01*
X24165609Y75629186D01*
X24165602Y75629173D01*
X24105264Y75483502D01*
X24105261Y75483492D01*
X24091920Y75416421D01*
X24059535Y75354510D01*
X24057984Y75352932D01*
X17994722Y69289669D01*
X17982681Y69271648D01*
X17970692Y69253703D01*
X17951803Y69225434D01*
X17923534Y69183127D01*
X17874499Y69064745D01*
X17874497Y69064739D01*
X17849500Y68939072D01*
X17849500Y55894932D01*
X17829815Y55827893D01*
X17828602Y55826041D01*
X17746295Y55702861D01*
X17682184Y55548083D01*
X17682182Y55548075D01*
X17649500Y55383772D01*
X12150500Y55383772D01*
X12150500Y62814072D01*
X12125502Y62939739D01*
X12125501Y62939740D01*
X12125501Y62939744D01*
X12076465Y63058127D01*
X12076464Y63058128D01*
X12076461Y63058134D01*
X12005277Y63164668D01*
X12005276Y63164669D01*
X11914669Y63255276D01*
X9336215Y65833731D01*
X9302731Y65895052D01*
X9307715Y65964744D01*
X9349587Y66020677D01*
X9415051Y66045094D01*
X9448088Y66043027D01*
X9541228Y66024501D01*
X9541232Y66024500D01*
X9541233Y66024500D01*
X9708768Y66024500D01*
X9708769Y66024501D01*
X9873082Y66057184D01*
X10027863Y66121297D01*
X10167162Y66214374D01*
X10285626Y66332838D01*
X10378703Y66472137D01*
X10442816Y66626918D01*
X10475500Y66791233D01*
X10475500Y66958767D01*
X10442816Y67123082D01*
X10378703Y67277863D01*
X10344822Y67328570D01*
X10285626Y67417163D01*
X10167162Y67535627D01*
X10027860Y67628705D01*
X9873082Y67692816D01*
X9873074Y67692818D01*
X9727781Y67721719D01*
X9665870Y67754104D01*
X9664291Y67755655D01*
X8880654Y68539292D01*
X8847169Y68600615D01*
X8846718Y68602782D01*
X8825511Y68709394D01*
X8817816Y68748082D01*
X8753703Y68902863D01*
X8722537Y68949506D01*
X8660626Y69042163D01*
X8542162Y69160627D01*
X8402860Y69253705D01*
X8248082Y69317816D01*
X8248074Y69317818D01*
X8083771Y69350500D01*
X8083767Y69350500D01*
X7916233Y69350500D01*
X7916228Y69350500D01*
X7751925Y69317818D01*
X7751917Y69317816D01*
X7597139Y69253705D01*
X7457837Y69160627D01*
X7339373Y69042163D01*
X7246295Y68902861D01*
X7182184Y68748083D01*
X7182182Y68748075D01*
X7149499Y68583768D01*
X7149208Y68580810D01*
X7148623Y68579363D01*
X7148311Y68577792D01*
X7148012Y68577852D01*
X7123041Y68516025D01*
X7066002Y68475672D01*
X6996202Y68472562D01*
X6935800Y68507682D01*
X6922706Y68524083D01*
X6910626Y68542162D01*
X6910625Y68542164D01*
X6792162Y68660627D01*
X6652860Y68753705D01*
X6498082Y68817816D01*
X6498074Y68817818D01*
X6333771Y68850500D01*
X6333767Y68850500D01*
X6166233Y68850500D01*
X6166228Y68850500D01*
X6001925Y68817818D01*
X6001917Y68817816D01*
X5847139Y68753705D01*
X5707837Y68660627D01*
X5589373Y68542163D01*
X5496295Y68402861D01*
X5432184Y68248083D01*
X5432182Y68248075D01*
X5399500Y68083772D01*
X5399500Y67916229D01*
X5432182Y67751926D01*
X5432184Y67751918D01*
X5496295Y67597140D01*
X5589373Y67457838D01*
X5707837Y67339374D01*
X5799895Y67277863D01*
X5847137Y67246297D01*
X6001918Y67182184D01*
X6086011Y67165457D01*
X6147218Y67153282D01*
X6209129Y67120898D01*
X6210708Y67119346D01*
X10813181Y62516874D01*
X10846666Y62455551D01*
X10849500Y62429193D01*
X10849500Y56354302D01*
X10829815Y56287263D01*
X10777011Y56241508D01*
X10707853Y56231564D01*
X10656612Y56251198D01*
X10656482Y56251285D01*
X10652863Y56253703D01*
X10652858Y56253705D01*
X10498082Y56317816D01*
X10498074Y56317818D01*
X10333771Y56350500D01*
X10333767Y56350500D01*
X10166233Y56350500D01*
X10166228Y56350500D01*
X10001925Y56317818D01*
X10001917Y56317816D01*
X9847139Y56253705D01*
X9707837Y56160627D01*
X9589373Y56042163D01*
X9496295Y55902861D01*
X9432184Y55748083D01*
X9432182Y55748077D01*
X9403281Y55602781D01*
X9370896Y55540870D01*
X9369345Y55539292D01*
X3976873Y50146819D01*
X3915550Y50113334D01*
X3889192Y50110500D01*
X3259618Y50110500D01*
X3192579Y50130185D01*
X3158900Y50164592D01*
X3157915Y50163875D01*
X3030109Y50339787D01*
X2879786Y50490110D01*
X2707820Y50615049D01*
X2707115Y50615409D01*
X2699054Y50619515D01*
X2648259Y50667488D01*
X2631463Y50735308D01*
X2653999Y50801444D01*
X2699054Y50840485D01*
X2707816Y50844949D01*
X2780649Y50897865D01*
X2879786Y50969891D01*
X2879788Y50969894D01*
X2879792Y50969896D01*
X3030104Y51120208D01*
X3030106Y51120212D01*
X3030109Y51120214D01*
X3155048Y51292180D01*
X3155047Y51292180D01*
X3155051Y51292184D01*
X3251557Y51481588D01*
X3317246Y51683757D01*
X3350500Y51893713D01*
X3350500Y52106287D01*
X3317246Y52316243D01*
X3251557Y52518412D01*
X3155051Y52707816D01*
X3155049Y52707819D01*
X3155048Y52707821D01*
X3030109Y52879787D01*
X2879786Y53030110D01*
X2707820Y53155049D01*
X2707115Y53155409D01*
X2699054Y53159515D01*
X2648259Y53207488D01*
X2631463Y53275308D01*
X2653999Y53341444D01*
X2699054Y53380485D01*
X2707816Y53384949D01*
X2729789Y53400914D01*
X2879786Y53509891D01*
X2879788Y53509894D01*
X2879792Y53509896D01*
X3030104Y53660208D01*
X3030106Y53660212D01*
X3030109Y53660214D01*
X3155048Y53832180D01*
X3155047Y53832180D01*
X3155051Y53832184D01*
X3251557Y54021588D01*
X3317246Y54223757D01*
X3350500Y54433713D01*
X3350500Y54646287D01*
X3317246Y54856243D01*
X3251557Y55058412D01*
X3155051Y55247816D01*
X3155049Y55247819D01*
X3155048Y55247821D01*
X3030109Y55419787D01*
X2879786Y55570110D01*
X2707817Y55695051D01*
X2698504Y55699796D01*
X2647707Y55747770D01*
X2630912Y55815591D01*
X2653449Y55881726D01*
X2698507Y55920768D01*
X2707555Y55925378D01*
X2761716Y55964730D01*
X2761717Y55964730D01*
X2129408Y56597038D01*
X2192993Y56614075D01*
X2307007Y56679901D01*
X2400099Y56772993D01*
X2465925Y56887007D01*
X2482962Y56950592D01*
X3115270Y56318283D01*
X3115270Y56318284D01*
X3154622Y56372446D01*
X3251095Y56561783D01*
X3316757Y56763870D01*
X3316757Y56763873D01*
X3350000Y56973754D01*
X3350000Y57186247D01*
X3316757Y57396128D01*
X3316757Y57396131D01*
X3251095Y57598218D01*
X3154624Y57787551D01*
X3115270Y57841718D01*
X3115269Y57841718D01*
X2482962Y57209410D01*
X2465925Y57272993D01*
X2400099Y57387007D01*
X2307007Y57480099D01*
X2192993Y57545925D01*
X2129409Y57562963D01*
X2761716Y58195272D01*
X2707550Y58234625D01*
X2518217Y58331096D01*
X2316129Y58396758D01*
X2106246Y58430000D01*
X1893754Y58430000D01*
X1683872Y58396758D01*
X1683869Y58396758D01*
X1481782Y58331096D01*
X1292439Y58234620D01*
X1238282Y58195273D01*
X1238282Y58195272D01*
X1870591Y57562963D01*
X1807007Y57545925D01*
X1692993Y57480099D01*
X1599901Y57387007D01*
X1534075Y57272993D01*
X1517037Y57209409D01*
X884728Y57841718D01*
X884727Y57841718D01*
X845380Y57787561D01*
X748904Y57598218D01*
X742431Y57578294D01*
X702994Y57520619D01*
X638635Y57493420D01*
X569789Y57505335D01*
X518313Y57552579D01*
X500500Y57616612D01*
X500500Y70833772D01*
X16399500Y70833772D01*
X16399500Y70666229D01*
X16432182Y70501926D01*
X16432184Y70501918D01*
X16496295Y70347140D01*
X16589373Y70207838D01*
X16707837Y70089374D01*
X16800494Y70027463D01*
X16847137Y69996297D01*
X16847138Y69996297D01*
X16847139Y69996296D01*
X16857817Y69991873D01*
X17001918Y69932184D01*
X17166228Y69899501D01*
X17166232Y69899500D01*
X17166233Y69899500D01*
X17333768Y69899500D01*
X17333769Y69899501D01*
X17498082Y69932184D01*
X17652863Y69996297D01*
X17792162Y70089374D01*
X17910626Y70207838D01*
X18003703Y70347137D01*
X18061582Y70486870D01*
X18088458Y70527092D01*
X19882952Y72321584D01*
X19932186Y72395271D01*
X19965084Y72444505D01*
X20021658Y72581087D01*
X20049902Y72723075D01*
X20050500Y72726080D01*
X20050500Y73164739D01*
X20059939Y73212192D01*
X20068766Y73233502D01*
X20117816Y73351918D01*
X20150500Y73516233D01*
X20150500Y73683767D01*
X20117816Y73848082D01*
X20053703Y74002863D01*
X19974881Y74120828D01*
X19960626Y74142163D01*
X19842162Y74260627D01*
X19702860Y74353705D01*
X19548082Y74417816D01*
X19548074Y74417818D01*
X19383771Y74450500D01*
X19383767Y74450500D01*
X19216233Y74450500D01*
X19216228Y74450500D01*
X19051925Y74417818D01*
X19051917Y74417816D01*
X18897139Y74353705D01*
X18757837Y74260627D01*
X18639373Y74142163D01*
X18546295Y74002861D01*
X18482184Y73848083D01*
X18482182Y73848075D01*
X18449500Y73683772D01*
X18449500Y73516229D01*
X18482182Y73351926D01*
X18482184Y73351918D01*
X18540061Y73212192D01*
X18541687Y73204015D01*
X18544477Y73199674D01*
X18549500Y73164739D01*
X18549500Y73162231D01*
X18529815Y73095192D01*
X18513181Y73074550D01*
X17027090Y71588460D01*
X16986862Y71561580D01*
X16847139Y71503705D01*
X16707837Y71410627D01*
X16589373Y71292163D01*
X16496295Y71152861D01*
X16432184Y70998083D01*
X16432182Y70998075D01*
X16399500Y70833772D01*
X500500Y70833772D01*
X500500Y72558772D01*
X5349500Y72558772D01*
X5349500Y72391229D01*
X5382182Y72226926D01*
X5382184Y72226918D01*
X5446295Y72072140D01*
X5539373Y71932838D01*
X5657837Y71814374D01*
X5673959Y71803602D01*
X5797137Y71721297D01*
X5951918Y71657184D01*
X6116228Y71624501D01*
X6116232Y71624500D01*
X6116233Y71624500D01*
X6283768Y71624500D01*
X6283769Y71624501D01*
X6448082Y71657184D01*
X6602863Y71721297D01*
X6726041Y71803602D01*
X6792719Y71824480D01*
X6794932Y71824500D01*
X7642483Y71824500D01*
X7709522Y71804815D01*
X7711374Y71803602D01*
X7797137Y71746297D01*
X7951918Y71682184D01*
X8077598Y71657185D01*
X8116228Y71649501D01*
X8116232Y71649500D01*
X8116233Y71649500D01*
X8283768Y71649500D01*
X8283769Y71649501D01*
X8448082Y71682184D01*
X8602863Y71746297D01*
X8742162Y71839374D01*
X8860626Y71957838D01*
X8953703Y72097137D01*
X9017816Y72251918D01*
X9050500Y72416233D01*
X9050500Y72583767D01*
X9017816Y72748082D01*
X8953703Y72902863D01*
X8877330Y73017163D01*
X8860626Y73042163D01*
X8742162Y73160627D01*
X8602860Y73253705D01*
X8448082Y73317816D01*
X8448074Y73317818D01*
X8283771Y73350500D01*
X8283767Y73350500D01*
X8116233Y73350500D01*
X8116228Y73350500D01*
X7951925Y73317818D01*
X7951917Y73317816D01*
X7797139Y73253705D01*
X7657837Y73160627D01*
X7653128Y73156761D01*
X7652087Y73158029D01*
X7597707Y73128334D01*
X7571349Y73125500D01*
X6794932Y73125500D01*
X6727893Y73145185D01*
X6726041Y73146398D01*
X6602860Y73228705D01*
X6448082Y73292816D01*
X6448074Y73292818D01*
X6283771Y73325500D01*
X6283767Y73325500D01*
X6116233Y73325500D01*
X6116228Y73325500D01*
X5951925Y73292818D01*
X5951917Y73292816D01*
X5797139Y73228705D01*
X5657837Y73135627D01*
X5539373Y73017163D01*
X5446295Y72877861D01*
X5382184Y72723083D01*
X5382182Y72723075D01*
X5349500Y72558772D01*
X500500Y72558772D01*
X500500Y75995573D01*
X500816Y76004419D01*
X500816Y76004420D01*
X515131Y76204566D01*
X517646Y76222062D01*
X559356Y76413801D01*
X564333Y76430752D01*
X632911Y76614615D01*
X640259Y76630702D01*
X702815Y76745266D01*
X734291Y76802911D01*
X743845Y76817779D01*
X861448Y76974877D01*
X873020Y76988231D01*
X1011769Y77126980D01*
X1025123Y77138552D01*
X1182221Y77256155D01*
X1197089Y77265709D01*
X1369298Y77359742D01*
X1385385Y77367089D01*
X1569248Y77435667D01*
X1586199Y77440644D01*
X1777938Y77482354D01*
X1795436Y77484870D01*
X1995582Y77499184D01*
X2004428Y77499500D01*
X2065892Y77499500D01*
X54934108Y77499500D01*
X54995572Y77499500D01*
X55004418Y77499184D01*
G37*
%TD.AperFunction*%
%TA.AperFunction,Conductor*%
G36*
X1534075Y7267007D02*
G01*
X1599901Y7152993D01*
X1692993Y7059901D01*
X1807007Y6994075D01*
X1870590Y6977038D01*
X1200370Y6306819D01*
X1139047Y6273334D01*
X1112698Y6270500D01*
X1102134Y6270500D01*
X1102123Y6270499D01*
X1042516Y6264092D01*
X907671Y6213798D01*
X907664Y6213794D01*
X792455Y6127548D01*
X792452Y6127545D01*
X723766Y6035792D01*
X667832Y5993921D01*
X598141Y5988937D01*
X536818Y6022423D01*
X503334Y6083746D01*
X500500Y6110103D01*
X500500Y6923389D01*
X520185Y6990428D01*
X572989Y7036183D01*
X642147Y7046127D01*
X705703Y7017102D01*
X742432Y6961706D01*
X748906Y6941779D01*
X845375Y6752450D01*
X884728Y6698284D01*
X1517037Y7330592D01*
X1534075Y7267007D01*
G37*
%TD.AperFunction*%
%TA.AperFunction,Conductor*%
G36*
X705703Y9555487D02*
G01*
X742431Y9500092D01*
X748444Y9481586D01*
X844951Y9292180D01*
X969890Y9120214D01*
X1120213Y8969891D01*
X1292179Y8844952D01*
X1292181Y8844951D01*
X1292184Y8844949D01*
X1301493Y8840206D01*
X1352290Y8792234D01*
X1369087Y8724413D01*
X1346552Y8658278D01*
X1301505Y8619240D01*
X1292446Y8614624D01*
X1292440Y8614620D01*
X1238282Y8575273D01*
X1238282Y8575272D01*
X1870591Y7942963D01*
X1807007Y7925925D01*
X1692993Y7860099D01*
X1599901Y7767007D01*
X1534075Y7652993D01*
X1517037Y7589409D01*
X884728Y8221718D01*
X884727Y8221718D01*
X845380Y8167561D01*
X748904Y7978218D01*
X742431Y7958294D01*
X702994Y7900619D01*
X638635Y7873420D01*
X569789Y7885335D01*
X518313Y7932579D01*
X500500Y7996612D01*
X500500Y9461774D01*
X520185Y9528813D01*
X572989Y9574568D01*
X642147Y9584512D01*
X705703Y9555487D01*
G37*
%TD.AperFunction*%
%TA.AperFunction,Conductor*%
G36*
X10986231Y32289815D02*
G01*
X11006873Y32273181D01*
X12649342Y30630712D01*
X12682827Y30569389D01*
X12682319Y30521245D01*
X12683516Y30521055D01*
X12649500Y30306287D01*
X12649500Y30093714D01*
X12680518Y29897871D01*
X12682754Y29883757D01*
X12743561Y29696612D01*
X12748444Y29681586D01*
X12844951Y29492180D01*
X12969890Y29320214D01*
X13120213Y29169891D01*
X13292182Y29044950D01*
X13300946Y29040484D01*
X13351742Y28992509D01*
X13368536Y28924688D01*
X13345998Y28858553D01*
X13300946Y28819516D01*
X13292182Y28815051D01*
X13120213Y28690110D01*
X12969890Y28539787D01*
X12844951Y28367821D01*
X12748444Y28178415D01*
X12682753Y27976240D01*
X12649500Y27766287D01*
X12649500Y27553714D01*
X12680225Y27359721D01*
X12682754Y27343757D01*
X12745506Y27150626D01*
X12748444Y27141586D01*
X12844951Y26952180D01*
X12969890Y26780214D01*
X13120213Y26629891D01*
X13292182Y26504950D01*
X13300946Y26500484D01*
X13351742Y26452509D01*
X13368536Y26384688D01*
X13345998Y26318553D01*
X13300946Y26279516D01*
X13292182Y26275051D01*
X13120213Y26150110D01*
X12969890Y25999787D01*
X12844951Y25827821D01*
X12748444Y25638415D01*
X12748443Y25638413D01*
X12748443Y25638412D01*
X12729533Y25580214D01*
X12682753Y25436240D01*
X12649500Y25226287D01*
X12649500Y25013714D01*
X12682753Y24803761D01*
X12748444Y24601586D01*
X12844951Y24412180D01*
X12969890Y24240214D01*
X13120213Y24089891D01*
X13292182Y23964950D01*
X13300946Y23960484D01*
X13351742Y23912509D01*
X13368536Y23844688D01*
X13345998Y23778553D01*
X13300946Y23739516D01*
X13292182Y23735051D01*
X13120213Y23610110D01*
X12969890Y23459787D01*
X12844951Y23287821D01*
X12748444Y23098415D01*
X12748443Y23098413D01*
X12748443Y23098412D01*
X12719948Y23010713D01*
X12682753Y22896240D01*
X12649500Y22686287D01*
X12649500Y22473714D01*
X12682753Y22263761D01*
X12748444Y22061586D01*
X12844951Y21872180D01*
X12969890Y21700214D01*
X13120213Y21549891D01*
X13292179Y21424952D01*
X13292181Y21424951D01*
X13292184Y21424949D01*
X13301493Y21420206D01*
X13352290Y21372234D01*
X13369087Y21304413D01*
X13346552Y21238278D01*
X13301505Y21199240D01*
X13292446Y21194624D01*
X13292440Y21194620D01*
X13238282Y21155273D01*
X13238282Y21155272D01*
X13870591Y20522963D01*
X13807007Y20505925D01*
X13692993Y20440099D01*
X13599901Y20347007D01*
X13534075Y20232993D01*
X13517037Y20169409D01*
X12884728Y20801718D01*
X12884727Y20801718D01*
X12845380Y20747561D01*
X12748904Y20558218D01*
X12683242Y20356131D01*
X12683242Y20356128D01*
X12650000Y20146247D01*
X12650000Y19933754D01*
X12683242Y19723873D01*
X12683242Y19723870D01*
X12748904Y19521783D01*
X12845375Y19332450D01*
X12884728Y19278284D01*
X13517037Y19910592D01*
X13534075Y19847007D01*
X13599901Y19732993D01*
X13692993Y19639901D01*
X13807007Y19574075D01*
X13870590Y19557038D01*
X13238282Y18924731D01*
X13238282Y18924730D01*
X13292452Y18885374D01*
X13292451Y18885374D01*
X13301495Y18880766D01*
X13352292Y18832792D01*
X13369087Y18764971D01*
X13346550Y18698836D01*
X13301499Y18659798D01*
X13292182Y18655051D01*
X13120213Y18530110D01*
X12969890Y18379787D01*
X12844951Y18207821D01*
X12748444Y18018415D01*
X12682753Y17816240D01*
X12649500Y17606287D01*
X12649500Y17529809D01*
X12629815Y17462770D01*
X12577011Y17417015D01*
X12507853Y17407071D01*
X12444297Y17436096D01*
X12437819Y17442128D01*
X10374673Y19505274D01*
X10374669Y19505277D01*
X10268127Y19576465D01*
X10149744Y19625501D01*
X10149738Y19625503D01*
X10024071Y19650500D01*
X10024069Y19650500D01*
X3259618Y19650500D01*
X3192579Y19670185D01*
X3158900Y19704592D01*
X3157915Y19703875D01*
X3030109Y19879787D01*
X2879792Y20030104D01*
X2866171Y20040000D01*
X2707816Y20155051D01*
X2691183Y20163526D01*
X2683961Y20168611D01*
X2667495Y20189321D01*
X2648259Y20207488D01*
X2646090Y20216243D01*
X2640479Y20223301D01*
X2637823Y20249624D01*
X2631463Y20275308D01*
X2634372Y20283846D01*
X2633467Y20292818D01*
X2645464Y20316399D01*
X2653999Y20341444D01*
X2661526Y20347967D01*
X2665151Y20355090D01*
X2679273Y20363345D01*
X2699054Y20380485D01*
X2707816Y20384949D01*
X2783724Y20440099D01*
X2879786Y20509891D01*
X2879788Y20509894D01*
X2879792Y20509896D01*
X3030104Y20660208D01*
X3030106Y20660212D01*
X3030109Y20660214D01*
X3155048Y20832180D01*
X3155047Y20832180D01*
X3155051Y20832184D01*
X3251557Y21021588D01*
X3317246Y21223757D01*
X3350500Y21433713D01*
X3350500Y21646287D01*
X3317246Y21856243D01*
X3251557Y22058412D01*
X3155051Y22247816D01*
X3155049Y22247819D01*
X3155048Y22247821D01*
X3030109Y22419787D01*
X2879786Y22570110D01*
X2707820Y22695049D01*
X2707115Y22695409D01*
X2699054Y22699515D01*
X2648259Y22747488D01*
X2631463Y22815308D01*
X2653999Y22881444D01*
X2699054Y22920485D01*
X2707816Y22924949D01*
X2825861Y23010713D01*
X2879786Y23049891D01*
X2879788Y23049894D01*
X2879792Y23049896D01*
X3030104Y23200208D01*
X3030106Y23200212D01*
X3030109Y23200214D01*
X3155048Y23372180D01*
X3155047Y23372180D01*
X3155051Y23372184D01*
X3251557Y23561588D01*
X3317246Y23763757D01*
X3350500Y23973713D01*
X3350500Y24186287D01*
X3317246Y24396243D01*
X3316484Y24401055D01*
X3318123Y24401315D01*
X3321257Y24463874D01*
X3350655Y24510711D01*
X5153127Y26313181D01*
X5214450Y26346666D01*
X5240808Y26349500D01*
X9814071Y26349500D01*
X9898615Y26366318D01*
X9939744Y26374499D01*
X10058127Y26423535D01*
X10078646Y26437245D01*
X10078647Y26437245D01*
X10143017Y26480256D01*
X10164669Y26494723D01*
X11755276Y28085330D01*
X11826465Y28191873D01*
X11875501Y28310256D01*
X11885837Y28362218D01*
X11896581Y28416229D01*
X11900500Y28435930D01*
X11900500Y29195065D01*
X11920185Y29262104D01*
X11921366Y29263910D01*
X11959394Y29320821D01*
X12019737Y29466503D01*
X12050500Y29621158D01*
X12050500Y29778842D01*
X12050500Y29778845D01*
X12050499Y29778847D01*
X12019737Y29933497D01*
X12009801Y29957484D01*
X11959397Y30079173D01*
X11959390Y30079186D01*
X11871789Y30210289D01*
X11871786Y30210293D01*
X11760292Y30321787D01*
X11760288Y30321790D01*
X11629185Y30409391D01*
X11629172Y30409398D01*
X11483501Y30469736D01*
X11483489Y30469739D01*
X11328845Y30500500D01*
X11328842Y30500500D01*
X11171158Y30500500D01*
X11171155Y30500500D01*
X11016510Y30469739D01*
X11016498Y30469736D01*
X10870827Y30409398D01*
X10870814Y30409391D01*
X10739711Y30321790D01*
X10739707Y30321787D01*
X10628213Y30210293D01*
X10628210Y30210289D01*
X10540609Y30079186D01*
X10540602Y30079173D01*
X10480264Y29933502D01*
X10480261Y29933490D01*
X10449500Y29778847D01*
X10449500Y29621154D01*
X10480261Y29466511D01*
X10480264Y29466499D01*
X10540602Y29320828D01*
X10540606Y29320821D01*
X10578602Y29263956D01*
X10599480Y29197279D01*
X10599500Y29195065D01*
X10599500Y28820808D01*
X10579815Y28753769D01*
X10563181Y28733127D01*
X9516873Y27686819D01*
X9455550Y27653334D01*
X9429192Y27650500D01*
X4855929Y27650500D01*
X4730260Y27625503D01*
X4730253Y27625501D01*
X4718188Y27620502D01*
X4718183Y27620500D01*
X4611881Y27576470D01*
X4611863Y27576460D01*
X4505332Y27505279D01*
X4505325Y27505273D01*
X3562181Y26562128D01*
X3500858Y26528643D01*
X3431166Y26533627D01*
X3375233Y26575499D01*
X3350816Y26640963D01*
X3350500Y26649809D01*
X3350500Y26726287D01*
X3324117Y26892861D01*
X3317246Y26936243D01*
X3251557Y27138412D01*
X3155051Y27327816D01*
X3155049Y27327819D01*
X3155048Y27327821D01*
X3030109Y27499787D01*
X2879786Y27650110D01*
X2707817Y27775051D01*
X2698504Y27779796D01*
X2647707Y27827770D01*
X2630912Y27895591D01*
X2653449Y27961726D01*
X2698507Y28000768D01*
X2707555Y28005378D01*
X2761716Y28044730D01*
X2761717Y28044730D01*
X2129408Y28677038D01*
X2192993Y28694075D01*
X2307007Y28759901D01*
X2400099Y28852993D01*
X2465925Y28967007D01*
X2482962Y29030592D01*
X3115270Y28398283D01*
X3115270Y28398284D01*
X3154622Y28452446D01*
X3251095Y28641783D01*
X3316757Y28843870D01*
X3316757Y28843873D01*
X3350000Y29053754D01*
X3350000Y29266247D01*
X3316757Y29476128D01*
X3316757Y29476131D01*
X3251095Y29678218D01*
X3154624Y29867551D01*
X3115270Y29921718D01*
X3115269Y29921718D01*
X2482962Y29289410D01*
X2465925Y29352993D01*
X2400099Y29467007D01*
X2307007Y29560099D01*
X2192993Y29625925D01*
X2129409Y29642963D01*
X2761716Y30275272D01*
X2707550Y30314625D01*
X2518217Y30411096D01*
X2316129Y30476758D01*
X2106246Y30510000D01*
X1893754Y30510000D01*
X1683872Y30476758D01*
X1683869Y30476758D01*
X1481782Y30411096D01*
X1292439Y30314620D01*
X1238282Y30275273D01*
X1238282Y30275272D01*
X1870591Y29642963D01*
X1807007Y29625925D01*
X1692993Y29560099D01*
X1599901Y29467007D01*
X1534075Y29352993D01*
X1517037Y29289409D01*
X884728Y29921718D01*
X884727Y29921718D01*
X845380Y29867561D01*
X748904Y29678218D01*
X742431Y29658294D01*
X702994Y29600619D01*
X638635Y29573420D01*
X569789Y29585335D01*
X518313Y29632579D01*
X500500Y29696612D01*
X500500Y31769898D01*
X520185Y31836937D01*
X572989Y31882692D01*
X642147Y31892636D01*
X705703Y31863611D01*
X723762Y31844214D01*
X792454Y31752454D01*
X838643Y31717877D01*
X907664Y31666207D01*
X907671Y31666203D01*
X1042517Y31615909D01*
X1042516Y31615909D01*
X1049444Y31615165D01*
X1102127Y31609500D01*
X2897872Y31609501D01*
X2957483Y31615909D01*
X3092331Y31666204D01*
X3207546Y31752454D01*
X3293796Y31867669D01*
X3344091Y32002517D01*
X3350500Y32062127D01*
X3350500Y32185500D01*
X3370185Y32252539D01*
X3422989Y32298294D01*
X3474500Y32309500D01*
X10919192Y32309500D01*
X10986231Y32289815D01*
G37*
%TD.AperFunction*%
%TA.AperFunction,Conductor*%
G36*
X1534075Y28967007D02*
G01*
X1599901Y28852993D01*
X1692993Y28759901D01*
X1807007Y28694075D01*
X1870590Y28677038D01*
X1238282Y28044731D01*
X1238282Y28044730D01*
X1292452Y28005374D01*
X1292451Y28005374D01*
X1301495Y28000766D01*
X1352292Y27952792D01*
X1369087Y27884971D01*
X1346550Y27818836D01*
X1301499Y27779798D01*
X1292182Y27775051D01*
X1120213Y27650110D01*
X969890Y27499787D01*
X844951Y27327821D01*
X748445Y27138418D01*
X748443Y27138413D01*
X748443Y27138412D01*
X742429Y27119906D01*
X702992Y27062232D01*
X638633Y27035035D01*
X569787Y27046950D01*
X518312Y27094195D01*
X500500Y27158227D01*
X500500Y28623389D01*
X520185Y28690428D01*
X572989Y28736183D01*
X642147Y28746127D01*
X705703Y28717102D01*
X742432Y28661706D01*
X748906Y28641779D01*
X845375Y28452450D01*
X884728Y28398284D01*
X1517037Y29030592D01*
X1534075Y28967007D01*
G37*
%TD.AperFunction*%
%TA.AperFunction,Conductor*%
G36*
X1534075Y56887007D02*
G01*
X1599901Y56772993D01*
X1692993Y56679901D01*
X1807007Y56614075D01*
X1870590Y56597038D01*
X1238282Y55964731D01*
X1238282Y55964730D01*
X1292452Y55925374D01*
X1292451Y55925374D01*
X1301495Y55920766D01*
X1352292Y55872792D01*
X1369087Y55804971D01*
X1346550Y55738836D01*
X1301499Y55699798D01*
X1292182Y55695051D01*
X1120213Y55570110D01*
X969890Y55419787D01*
X844951Y55247821D01*
X748445Y55058418D01*
X748443Y55058413D01*
X748443Y55058412D01*
X742429Y55039906D01*
X702992Y54982232D01*
X638633Y54955035D01*
X569787Y54966950D01*
X518312Y55014195D01*
X500500Y55078227D01*
X500500Y56543389D01*
X520185Y56610428D01*
X572989Y56656183D01*
X642147Y56666127D01*
X705703Y56637102D01*
X742432Y56581706D01*
X748906Y56561779D01*
X845375Y56372450D01*
X884728Y56318284D01*
X1517037Y56950592D01*
X1534075Y56887007D01*
G37*
%TD.AperFunction*%
%TD*%
M02*
