%TF.GenerationSoftware,KiCad,Pcbnew,9.0.7*%
%TF.CreationDate,2026-03-04T17:47:10+01:00*%
%TF.ProjectId,haboxesp,6861626f-7865-4737-902e-6b696361645f,rev?*%
%TF.SameCoordinates,PX76bb820PY77afa60*%
%TF.FileFunction,Legend,Top*%
%TF.FilePolarity,Positive*%
%FSLAX46Y46*%
G04 Gerber Fmt 4.6, Leading zero omitted, Abs format (unit mm)*
G04 Created by KiCad (PCBNEW 9.0.7) date 2026-03-04 17:47:10*
%MOMM*%
%LPD*%
G01*
G04 APERTURE LIST*
%ADD10C,0.100000*%
%ADD11C,0.400000*%
%ADD12C,0.600000*%
%ADD13C,0.150000*%
%ADD14C,0.120000*%
%ADD15C,0.152400*%
G04 APERTURE END LIST*
D10*
X46732455Y72627581D02*
X46541979Y72627581D01*
X46541979Y72627581D02*
X46446741Y72579962D01*
X46446741Y72579962D02*
X46399122Y72532343D01*
X46399122Y72532343D02*
X46303884Y72389486D01*
X46303884Y72389486D02*
X46256265Y72199010D01*
X46256265Y72199010D02*
X46256265Y71818058D01*
X46256265Y71818058D02*
X46303884Y71722820D01*
X46303884Y71722820D02*
X46351503Y71675200D01*
X46351503Y71675200D02*
X46446741Y71627581D01*
X46446741Y71627581D02*
X46637217Y71627581D01*
X46637217Y71627581D02*
X46732455Y71675200D01*
X46732455Y71675200D02*
X46780074Y71722820D01*
X46780074Y71722820D02*
X46827693Y71818058D01*
X46827693Y71818058D02*
X46827693Y72056153D01*
X46827693Y72056153D02*
X46780074Y72151391D01*
X46780074Y72151391D02*
X46732455Y72199010D01*
X46732455Y72199010D02*
X46637217Y72246629D01*
X46637217Y72246629D02*
X46446741Y72246629D01*
X46446741Y72246629D02*
X46351503Y72199010D01*
X46351503Y72199010D02*
X46303884Y72151391D01*
X46303884Y72151391D02*
X46256265Y72056153D01*
X55327693Y71627581D02*
X54756265Y71627581D01*
X55041979Y71627581D02*
X55041979Y72627581D01*
X55041979Y72627581D02*
X54946741Y72484724D01*
X54946741Y72484724D02*
X54851503Y72389486D01*
X54851503Y72389486D02*
X54756265Y72341867D01*
X35756265Y71032343D02*
X35803884Y71079962D01*
X35803884Y71079962D02*
X35899122Y71127581D01*
X35899122Y71127581D02*
X36137217Y71127581D01*
X36137217Y71127581D02*
X36232455Y71079962D01*
X36232455Y71079962D02*
X36280074Y71032343D01*
X36280074Y71032343D02*
X36327693Y70937105D01*
X36327693Y70937105D02*
X36327693Y70841867D01*
X36327693Y70841867D02*
X36280074Y70699010D01*
X36280074Y70699010D02*
X35708646Y70127581D01*
X35708646Y70127581D02*
X36327693Y70127581D01*
X37184836Y70794248D02*
X37184836Y70127581D01*
X36946741Y71175200D02*
X36708646Y70460915D01*
X36708646Y70460915D02*
X37327693Y70460915D01*
X21327693Y70127581D02*
X20756265Y70127581D01*
X21041979Y70127581D02*
X21041979Y71127581D01*
X21041979Y71127581D02*
X20946741Y70984724D01*
X20946741Y70984724D02*
X20851503Y70889486D01*
X20851503Y70889486D02*
X20756265Y70841867D01*
X10732455Y72627581D02*
X10541979Y72627581D01*
X10541979Y72627581D02*
X10446741Y72579962D01*
X10446741Y72579962D02*
X10399122Y72532343D01*
X10399122Y72532343D02*
X10303884Y72389486D01*
X10303884Y72389486D02*
X10256265Y72199010D01*
X10256265Y72199010D02*
X10256265Y71818058D01*
X10256265Y71818058D02*
X10303884Y71722820D01*
X10303884Y71722820D02*
X10351503Y71675200D01*
X10351503Y71675200D02*
X10446741Y71627581D01*
X10446741Y71627581D02*
X10637217Y71627581D01*
X10637217Y71627581D02*
X10732455Y71675200D01*
X10732455Y71675200D02*
X10780074Y71722820D01*
X10780074Y71722820D02*
X10827693Y71818058D01*
X10827693Y71818058D02*
X10827693Y72056153D01*
X10827693Y72056153D02*
X10780074Y72151391D01*
X10780074Y72151391D02*
X10732455Y72199010D01*
X10732455Y72199010D02*
X10637217Y72246629D01*
X10637217Y72246629D02*
X10446741Y72246629D01*
X10446741Y72246629D02*
X10351503Y72199010D01*
X10351503Y72199010D02*
X10303884Y72151391D01*
X10303884Y72151391D02*
X10256265Y72056153D01*
X2827693Y71627581D02*
X2256265Y71627581D01*
X2541979Y71627581D02*
X2541979Y72627581D01*
X2541979Y72627581D02*
X2446741Y72484724D01*
X2446741Y72484724D02*
X2351503Y72389486D01*
X2351503Y72389486D02*
X2256265Y72341867D01*
X41380074Y51027581D02*
X40903884Y51027581D01*
X40903884Y51027581D02*
X40856265Y50551391D01*
X40856265Y50551391D02*
X40903884Y50599010D01*
X40903884Y50599010D02*
X40999122Y50646629D01*
X40999122Y50646629D02*
X41237217Y50646629D01*
X41237217Y50646629D02*
X41332455Y50599010D01*
X41332455Y50599010D02*
X41380074Y50551391D01*
X41380074Y50551391D02*
X41427693Y50456153D01*
X41427693Y50456153D02*
X41427693Y50218058D01*
X41427693Y50218058D02*
X41380074Y50122820D01*
X41380074Y50122820D02*
X41332455Y50075200D01*
X41332455Y50075200D02*
X41237217Y50027581D01*
X41237217Y50027581D02*
X40999122Y50027581D01*
X40999122Y50027581D02*
X40903884Y50075200D01*
X40903884Y50075200D02*
X40856265Y50122820D01*
X41713408Y51027581D02*
X42046741Y50027581D01*
X42046741Y50027581D02*
X42380074Y51027581D01*
X50627693Y47979962D02*
X50532455Y48027581D01*
X50532455Y48027581D02*
X50389598Y48027581D01*
X50389598Y48027581D02*
X50246741Y47979962D01*
X50246741Y47979962D02*
X50151503Y47884724D01*
X50151503Y47884724D02*
X50103884Y47789486D01*
X50103884Y47789486D02*
X50056265Y47599010D01*
X50056265Y47599010D02*
X50056265Y47456153D01*
X50056265Y47456153D02*
X50103884Y47265677D01*
X50103884Y47265677D02*
X50151503Y47170439D01*
X50151503Y47170439D02*
X50246741Y47075200D01*
X50246741Y47075200D02*
X50389598Y47027581D01*
X50389598Y47027581D02*
X50484836Y47027581D01*
X50484836Y47027581D02*
X50627693Y47075200D01*
X50627693Y47075200D02*
X50675312Y47122820D01*
X50675312Y47122820D02*
X50675312Y47456153D01*
X50675312Y47456153D02*
X50484836Y47456153D01*
X51103884Y47027581D02*
X51103884Y48027581D01*
X51103884Y48027581D02*
X51675312Y47027581D01*
X51675312Y47027581D02*
X51675312Y48027581D01*
X52151503Y47027581D02*
X52151503Y48027581D01*
X52151503Y48027581D02*
X52389598Y48027581D01*
X52389598Y48027581D02*
X52532455Y47979962D01*
X52532455Y47979962D02*
X52627693Y47884724D01*
X52627693Y47884724D02*
X52675312Y47789486D01*
X52675312Y47789486D02*
X52722931Y47599010D01*
X52722931Y47599010D02*
X52722931Y47456153D01*
X52722931Y47456153D02*
X52675312Y47265677D01*
X52675312Y47265677D02*
X52627693Y47170439D01*
X52627693Y47170439D02*
X52532455Y47075200D01*
X52532455Y47075200D02*
X52389598Y47027581D01*
X52389598Y47027581D02*
X52151503Y47027581D01*
X51580074Y50627581D02*
X51103884Y50627581D01*
X51103884Y50627581D02*
X51056265Y50151391D01*
X51056265Y50151391D02*
X51103884Y50199010D01*
X51103884Y50199010D02*
X51199122Y50246629D01*
X51199122Y50246629D02*
X51437217Y50246629D01*
X51437217Y50246629D02*
X51532455Y50199010D01*
X51532455Y50199010D02*
X51580074Y50151391D01*
X51580074Y50151391D02*
X51627693Y50056153D01*
X51627693Y50056153D02*
X51627693Y49818058D01*
X51627693Y49818058D02*
X51580074Y49722820D01*
X51580074Y49722820D02*
X51532455Y49675200D01*
X51532455Y49675200D02*
X51437217Y49627581D01*
X51437217Y49627581D02*
X51199122Y49627581D01*
X51199122Y49627581D02*
X51103884Y49675200D01*
X51103884Y49675200D02*
X51056265Y49722820D01*
X51913408Y50627581D02*
X52246741Y49627581D01*
X52246741Y49627581D02*
X52580074Y50627581D01*
X4427693Y57579962D02*
X4332455Y57627581D01*
X4332455Y57627581D02*
X4189598Y57627581D01*
X4189598Y57627581D02*
X4046741Y57579962D01*
X4046741Y57579962D02*
X3951503Y57484724D01*
X3951503Y57484724D02*
X3903884Y57389486D01*
X3903884Y57389486D02*
X3856265Y57199010D01*
X3856265Y57199010D02*
X3856265Y57056153D01*
X3856265Y57056153D02*
X3903884Y56865677D01*
X3903884Y56865677D02*
X3951503Y56770439D01*
X3951503Y56770439D02*
X4046741Y56675200D01*
X4046741Y56675200D02*
X4189598Y56627581D01*
X4189598Y56627581D02*
X4284836Y56627581D01*
X4284836Y56627581D02*
X4427693Y56675200D01*
X4427693Y56675200D02*
X4475312Y56722820D01*
X4475312Y56722820D02*
X4475312Y57056153D01*
X4475312Y57056153D02*
X4284836Y57056153D01*
X4903884Y56627581D02*
X4903884Y57627581D01*
X4903884Y57627581D02*
X5475312Y56627581D01*
X5475312Y56627581D02*
X5475312Y57627581D01*
X5951503Y56627581D02*
X5951503Y57627581D01*
X5951503Y57627581D02*
X6189598Y57627581D01*
X6189598Y57627581D02*
X6332455Y57579962D01*
X6332455Y57579962D02*
X6427693Y57484724D01*
X6427693Y57484724D02*
X6475312Y57389486D01*
X6475312Y57389486D02*
X6522931Y57199010D01*
X6522931Y57199010D02*
X6522931Y57056153D01*
X6522931Y57056153D02*
X6475312Y56865677D01*
X6475312Y56865677D02*
X6427693Y56770439D01*
X6427693Y56770439D02*
X6332455Y56675200D01*
X6332455Y56675200D02*
X6189598Y56627581D01*
X6189598Y56627581D02*
X5951503Y56627581D01*
X3808646Y55027581D02*
X4427693Y55027581D01*
X4427693Y55027581D02*
X4094360Y54646629D01*
X4094360Y54646629D02*
X4237217Y54646629D01*
X4237217Y54646629D02*
X4332455Y54599010D01*
X4332455Y54599010D02*
X4380074Y54551391D01*
X4380074Y54551391D02*
X4427693Y54456153D01*
X4427693Y54456153D02*
X4427693Y54218058D01*
X4427693Y54218058D02*
X4380074Y54122820D01*
X4380074Y54122820D02*
X4332455Y54075200D01*
X4332455Y54075200D02*
X4237217Y54027581D01*
X4237217Y54027581D02*
X3951503Y54027581D01*
X3951503Y54027581D02*
X3856265Y54075200D01*
X3856265Y54075200D02*
X3808646Y54122820D01*
X4713408Y55027581D02*
X5046741Y54027581D01*
X5046741Y54027581D02*
X5380074Y55027581D01*
X5618170Y55027581D02*
X6237217Y55027581D01*
X6237217Y55027581D02*
X5903884Y54646629D01*
X5903884Y54646629D02*
X6046741Y54646629D01*
X6046741Y54646629D02*
X6141979Y54599010D01*
X6141979Y54599010D02*
X6189598Y54551391D01*
X6189598Y54551391D02*
X6237217Y54456153D01*
X6237217Y54456153D02*
X6237217Y54218058D01*
X6237217Y54218058D02*
X6189598Y54122820D01*
X6189598Y54122820D02*
X6141979Y54075200D01*
X6141979Y54075200D02*
X6046741Y54027581D01*
X6046741Y54027581D02*
X5761027Y54027581D01*
X5761027Y54027581D02*
X5665789Y54075200D01*
X5665789Y54075200D02*
X5618170Y54122820D01*
X3761027Y52427581D02*
X4094360Y51427581D01*
X4094360Y51427581D02*
X4427693Y52427581D01*
X4761027Y51951391D02*
X5094360Y51951391D01*
X5237217Y51427581D02*
X4761027Y51427581D01*
X4761027Y51427581D02*
X4761027Y52427581D01*
X4761027Y52427581D02*
X5237217Y52427581D01*
X5665789Y51427581D02*
X5665789Y52427581D01*
X5665789Y52427581D02*
X6237217Y51427581D01*
X6237217Y51427581D02*
X6237217Y52427581D01*
X3903884Y49027581D02*
X3903884Y50027581D01*
X4951502Y49027581D02*
X4618169Y49503772D01*
X4380074Y49027581D02*
X4380074Y50027581D01*
X4380074Y50027581D02*
X4761026Y50027581D01*
X4761026Y50027581D02*
X4856264Y49979962D01*
X4856264Y49979962D02*
X4903883Y49932343D01*
X4903883Y49932343D02*
X4951502Y49837105D01*
X4951502Y49837105D02*
X4951502Y49694248D01*
X4951502Y49694248D02*
X4903883Y49599010D01*
X4903883Y49599010D02*
X4856264Y49551391D01*
X4856264Y49551391D02*
X4761026Y49503772D01*
X4761026Y49503772D02*
X4380074Y49503772D01*
X6046740Y48932343D02*
X5951502Y48979962D01*
X5951502Y48979962D02*
X5856264Y49075200D01*
X5856264Y49075200D02*
X5713407Y49218058D01*
X5713407Y49218058D02*
X5618169Y49265677D01*
X5618169Y49265677D02*
X5522931Y49265677D01*
X5570550Y49027581D02*
X5475312Y49075200D01*
X5475312Y49075200D02*
X5380074Y49170439D01*
X5380074Y49170439D02*
X5332455Y49360915D01*
X5332455Y49360915D02*
X5332455Y49694248D01*
X5332455Y49694248D02*
X5380074Y49884724D01*
X5380074Y49884724D02*
X5475312Y49979962D01*
X5475312Y49979962D02*
X5570550Y50027581D01*
X5570550Y50027581D02*
X5761026Y50027581D01*
X5761026Y50027581D02*
X5856264Y49979962D01*
X5856264Y49979962D02*
X5951502Y49884724D01*
X5951502Y49884724D02*
X5999121Y49694248D01*
X5999121Y49694248D02*
X5999121Y49360915D01*
X5999121Y49360915D02*
X5951502Y49170439D01*
X5951502Y49170439D02*
X5856264Y49075200D01*
X5856264Y49075200D02*
X5761026Y49027581D01*
X5761026Y49027581D02*
X5570550Y49027581D01*
X3856265Y46675200D02*
X3999122Y46627581D01*
X3999122Y46627581D02*
X4237217Y46627581D01*
X4237217Y46627581D02*
X4332455Y46675200D01*
X4332455Y46675200D02*
X4380074Y46722820D01*
X4380074Y46722820D02*
X4427693Y46818058D01*
X4427693Y46818058D02*
X4427693Y46913296D01*
X4427693Y46913296D02*
X4380074Y47008534D01*
X4380074Y47008534D02*
X4332455Y47056153D01*
X4332455Y47056153D02*
X4237217Y47103772D01*
X4237217Y47103772D02*
X4046741Y47151391D01*
X4046741Y47151391D02*
X3951503Y47199010D01*
X3951503Y47199010D02*
X3903884Y47246629D01*
X3903884Y47246629D02*
X3856265Y47341867D01*
X3856265Y47341867D02*
X3856265Y47437105D01*
X3856265Y47437105D02*
X3903884Y47532343D01*
X3903884Y47532343D02*
X3951503Y47579962D01*
X3951503Y47579962D02*
X4046741Y47627581D01*
X4046741Y47627581D02*
X4284836Y47627581D01*
X4284836Y47627581D02*
X4427693Y47579962D01*
X5427693Y46722820D02*
X5380074Y46675200D01*
X5380074Y46675200D02*
X5237217Y46627581D01*
X5237217Y46627581D02*
X5141979Y46627581D01*
X5141979Y46627581D02*
X4999122Y46675200D01*
X4999122Y46675200D02*
X4903884Y46770439D01*
X4903884Y46770439D02*
X4856265Y46865677D01*
X4856265Y46865677D02*
X4808646Y47056153D01*
X4808646Y47056153D02*
X4808646Y47199010D01*
X4808646Y47199010D02*
X4856265Y47389486D01*
X4856265Y47389486D02*
X4903884Y47484724D01*
X4903884Y47484724D02*
X4999122Y47579962D01*
X4999122Y47579962D02*
X5141979Y47627581D01*
X5141979Y47627581D02*
X5237217Y47627581D01*
X5237217Y47627581D02*
X5380074Y47579962D01*
X5380074Y47579962D02*
X5427693Y47532343D01*
X6332455Y46627581D02*
X5856265Y46627581D01*
X5856265Y46627581D02*
X5856265Y47627581D01*
X3856265Y44075200D02*
X3999122Y44027581D01*
X3999122Y44027581D02*
X4237217Y44027581D01*
X4237217Y44027581D02*
X4332455Y44075200D01*
X4332455Y44075200D02*
X4380074Y44122820D01*
X4380074Y44122820D02*
X4427693Y44218058D01*
X4427693Y44218058D02*
X4427693Y44313296D01*
X4427693Y44313296D02*
X4380074Y44408534D01*
X4380074Y44408534D02*
X4332455Y44456153D01*
X4332455Y44456153D02*
X4237217Y44503772D01*
X4237217Y44503772D02*
X4046741Y44551391D01*
X4046741Y44551391D02*
X3951503Y44599010D01*
X3951503Y44599010D02*
X3903884Y44646629D01*
X3903884Y44646629D02*
X3856265Y44741867D01*
X3856265Y44741867D02*
X3856265Y44837105D01*
X3856265Y44837105D02*
X3903884Y44932343D01*
X3903884Y44932343D02*
X3951503Y44979962D01*
X3951503Y44979962D02*
X4046741Y45027581D01*
X4046741Y45027581D02*
X4284836Y45027581D01*
X4284836Y45027581D02*
X4427693Y44979962D01*
X4856265Y44027581D02*
X4856265Y45027581D01*
X4856265Y45027581D02*
X5094360Y45027581D01*
X5094360Y45027581D02*
X5237217Y44979962D01*
X5237217Y44979962D02*
X5332455Y44884724D01*
X5332455Y44884724D02*
X5380074Y44789486D01*
X5380074Y44789486D02*
X5427693Y44599010D01*
X5427693Y44599010D02*
X5427693Y44456153D01*
X5427693Y44456153D02*
X5380074Y44265677D01*
X5380074Y44265677D02*
X5332455Y44170439D01*
X5332455Y44170439D02*
X5237217Y44075200D01*
X5237217Y44075200D02*
X5094360Y44027581D01*
X5094360Y44027581D02*
X4856265Y44027581D01*
X5808646Y44313296D02*
X6284836Y44313296D01*
X5713408Y44027581D02*
X6046741Y45027581D01*
X6046741Y45027581D02*
X6380074Y44027581D01*
X4475312Y35027581D02*
X4141979Y35503772D01*
X3903884Y35027581D02*
X3903884Y36027581D01*
X3903884Y36027581D02*
X4284836Y36027581D01*
X4284836Y36027581D02*
X4380074Y35979962D01*
X4380074Y35979962D02*
X4427693Y35932343D01*
X4427693Y35932343D02*
X4475312Y35837105D01*
X4475312Y35837105D02*
X4475312Y35694248D01*
X4475312Y35694248D02*
X4427693Y35599010D01*
X4427693Y35599010D02*
X4380074Y35551391D01*
X4380074Y35551391D02*
X4284836Y35503772D01*
X4284836Y35503772D02*
X3903884Y35503772D01*
X4808646Y36027581D02*
X5475312Y35027581D01*
X5475312Y36027581D02*
X4808646Y35027581D01*
X3961027Y33427581D02*
X4532455Y33427581D01*
X4246741Y32427581D02*
X4246741Y33427581D01*
X4770551Y33427581D02*
X5437217Y32427581D01*
X5437217Y33427581D02*
X4770551Y32427581D01*
X3808646Y5427581D02*
X4427693Y5427581D01*
X4427693Y5427581D02*
X4094360Y5046629D01*
X4094360Y5046629D02*
X4237217Y5046629D01*
X4237217Y5046629D02*
X4332455Y4999010D01*
X4332455Y4999010D02*
X4380074Y4951391D01*
X4380074Y4951391D02*
X4427693Y4856153D01*
X4427693Y4856153D02*
X4427693Y4618058D01*
X4427693Y4618058D02*
X4380074Y4522820D01*
X4380074Y4522820D02*
X4332455Y4475200D01*
X4332455Y4475200D02*
X4237217Y4427581D01*
X4237217Y4427581D02*
X3951503Y4427581D01*
X3951503Y4427581D02*
X3856265Y4475200D01*
X3856265Y4475200D02*
X3808646Y4522820D01*
X4713408Y5427581D02*
X5046741Y4427581D01*
X5046741Y4427581D02*
X5380074Y5427581D01*
X5618170Y5427581D02*
X6237217Y5427581D01*
X6237217Y5427581D02*
X5903884Y5046629D01*
X5903884Y5046629D02*
X6046741Y5046629D01*
X6046741Y5046629D02*
X6141979Y4999010D01*
X6141979Y4999010D02*
X6189598Y4951391D01*
X6189598Y4951391D02*
X6237217Y4856153D01*
X6237217Y4856153D02*
X6237217Y4618058D01*
X6237217Y4618058D02*
X6189598Y4522820D01*
X6189598Y4522820D02*
X6141979Y4475200D01*
X6141979Y4475200D02*
X6046741Y4427581D01*
X6046741Y4427581D02*
X5761027Y4427581D01*
X5761027Y4427581D02*
X5665789Y4475200D01*
X5665789Y4475200D02*
X5618170Y4522820D01*
X4427693Y7979962D02*
X4332455Y8027581D01*
X4332455Y8027581D02*
X4189598Y8027581D01*
X4189598Y8027581D02*
X4046741Y7979962D01*
X4046741Y7979962D02*
X3951503Y7884724D01*
X3951503Y7884724D02*
X3903884Y7789486D01*
X3903884Y7789486D02*
X3856265Y7599010D01*
X3856265Y7599010D02*
X3856265Y7456153D01*
X3856265Y7456153D02*
X3903884Y7265677D01*
X3903884Y7265677D02*
X3951503Y7170439D01*
X3951503Y7170439D02*
X4046741Y7075200D01*
X4046741Y7075200D02*
X4189598Y7027581D01*
X4189598Y7027581D02*
X4284836Y7027581D01*
X4284836Y7027581D02*
X4427693Y7075200D01*
X4427693Y7075200D02*
X4475312Y7122820D01*
X4475312Y7122820D02*
X4475312Y7456153D01*
X4475312Y7456153D02*
X4284836Y7456153D01*
X4903884Y7027581D02*
X4903884Y8027581D01*
X4903884Y8027581D02*
X5475312Y7027581D01*
X5475312Y7027581D02*
X5475312Y8027581D01*
X5951503Y7027581D02*
X5951503Y8027581D01*
X5951503Y8027581D02*
X6189598Y8027581D01*
X6189598Y8027581D02*
X6332455Y7979962D01*
X6332455Y7979962D02*
X6427693Y7884724D01*
X6427693Y7884724D02*
X6475312Y7789486D01*
X6475312Y7789486D02*
X6522931Y7599010D01*
X6522931Y7599010D02*
X6522931Y7456153D01*
X6522931Y7456153D02*
X6475312Y7265677D01*
X6475312Y7265677D02*
X6427693Y7170439D01*
X6427693Y7170439D02*
X6332455Y7075200D01*
X6332455Y7075200D02*
X6189598Y7027581D01*
X6189598Y7027581D02*
X5951503Y7027581D01*
X3856265Y9675200D02*
X3999122Y9627581D01*
X3999122Y9627581D02*
X4237217Y9627581D01*
X4237217Y9627581D02*
X4332455Y9675200D01*
X4332455Y9675200D02*
X4380074Y9722820D01*
X4380074Y9722820D02*
X4427693Y9818058D01*
X4427693Y9818058D02*
X4427693Y9913296D01*
X4427693Y9913296D02*
X4380074Y10008534D01*
X4380074Y10008534D02*
X4332455Y10056153D01*
X4332455Y10056153D02*
X4237217Y10103772D01*
X4237217Y10103772D02*
X4046741Y10151391D01*
X4046741Y10151391D02*
X3951503Y10199010D01*
X3951503Y10199010D02*
X3903884Y10246629D01*
X3903884Y10246629D02*
X3856265Y10341867D01*
X3856265Y10341867D02*
X3856265Y10437105D01*
X3856265Y10437105D02*
X3903884Y10532343D01*
X3903884Y10532343D02*
X3951503Y10579962D01*
X3951503Y10579962D02*
X4046741Y10627581D01*
X4046741Y10627581D02*
X4284836Y10627581D01*
X4284836Y10627581D02*
X4427693Y10579962D01*
X5427693Y9722820D02*
X5380074Y9675200D01*
X5380074Y9675200D02*
X5237217Y9627581D01*
X5237217Y9627581D02*
X5141979Y9627581D01*
X5141979Y9627581D02*
X4999122Y9675200D01*
X4999122Y9675200D02*
X4903884Y9770439D01*
X4903884Y9770439D02*
X4856265Y9865677D01*
X4856265Y9865677D02*
X4808646Y10056153D01*
X4808646Y10056153D02*
X4808646Y10199010D01*
X4808646Y10199010D02*
X4856265Y10389486D01*
X4856265Y10389486D02*
X4903884Y10484724D01*
X4903884Y10484724D02*
X4999122Y10579962D01*
X4999122Y10579962D02*
X5141979Y10627581D01*
X5141979Y10627581D02*
X5237217Y10627581D01*
X5237217Y10627581D02*
X5380074Y10579962D01*
X5380074Y10579962D02*
X5427693Y10532343D01*
X6332455Y9627581D02*
X5856265Y9627581D01*
X5856265Y9627581D02*
X5856265Y10627581D01*
X3856265Y12275200D02*
X3999122Y12227581D01*
X3999122Y12227581D02*
X4237217Y12227581D01*
X4237217Y12227581D02*
X4332455Y12275200D01*
X4332455Y12275200D02*
X4380074Y12322820D01*
X4380074Y12322820D02*
X4427693Y12418058D01*
X4427693Y12418058D02*
X4427693Y12513296D01*
X4427693Y12513296D02*
X4380074Y12608534D01*
X4380074Y12608534D02*
X4332455Y12656153D01*
X4332455Y12656153D02*
X4237217Y12703772D01*
X4237217Y12703772D02*
X4046741Y12751391D01*
X4046741Y12751391D02*
X3951503Y12799010D01*
X3951503Y12799010D02*
X3903884Y12846629D01*
X3903884Y12846629D02*
X3856265Y12941867D01*
X3856265Y12941867D02*
X3856265Y13037105D01*
X3856265Y13037105D02*
X3903884Y13132343D01*
X3903884Y13132343D02*
X3951503Y13179962D01*
X3951503Y13179962D02*
X4046741Y13227581D01*
X4046741Y13227581D02*
X4284836Y13227581D01*
X4284836Y13227581D02*
X4427693Y13179962D01*
X4856265Y12227581D02*
X4856265Y13227581D01*
X4856265Y13227581D02*
X5094360Y13227581D01*
X5094360Y13227581D02*
X5237217Y13179962D01*
X5237217Y13179962D02*
X5332455Y13084724D01*
X5332455Y13084724D02*
X5380074Y12989486D01*
X5380074Y12989486D02*
X5427693Y12799010D01*
X5427693Y12799010D02*
X5427693Y12656153D01*
X5427693Y12656153D02*
X5380074Y12465677D01*
X5380074Y12465677D02*
X5332455Y12370439D01*
X5332455Y12370439D02*
X5237217Y12275200D01*
X5237217Y12275200D02*
X5094360Y12227581D01*
X5094360Y12227581D02*
X4856265Y12227581D01*
X5808646Y12513296D02*
X6284836Y12513296D01*
X5713408Y12227581D02*
X6046741Y13227581D01*
X6046741Y13227581D02*
X6380074Y12227581D01*
X4427693Y29579962D02*
X4332455Y29627581D01*
X4332455Y29627581D02*
X4189598Y29627581D01*
X4189598Y29627581D02*
X4046741Y29579962D01*
X4046741Y29579962D02*
X3951503Y29484724D01*
X3951503Y29484724D02*
X3903884Y29389486D01*
X3903884Y29389486D02*
X3856265Y29199010D01*
X3856265Y29199010D02*
X3856265Y29056153D01*
X3856265Y29056153D02*
X3903884Y28865677D01*
X3903884Y28865677D02*
X3951503Y28770439D01*
X3951503Y28770439D02*
X4046741Y28675200D01*
X4046741Y28675200D02*
X4189598Y28627581D01*
X4189598Y28627581D02*
X4284836Y28627581D01*
X4284836Y28627581D02*
X4427693Y28675200D01*
X4427693Y28675200D02*
X4475312Y28722820D01*
X4475312Y28722820D02*
X4475312Y29056153D01*
X4475312Y29056153D02*
X4284836Y29056153D01*
X4903884Y28627581D02*
X4903884Y29627581D01*
X4903884Y29627581D02*
X5475312Y28627581D01*
X5475312Y28627581D02*
X5475312Y29627581D01*
X5951503Y28627581D02*
X5951503Y29627581D01*
X5951503Y29627581D02*
X6189598Y29627581D01*
X6189598Y29627581D02*
X6332455Y29579962D01*
X6332455Y29579962D02*
X6427693Y29484724D01*
X6427693Y29484724D02*
X6475312Y29389486D01*
X6475312Y29389486D02*
X6522931Y29199010D01*
X6522931Y29199010D02*
X6522931Y29056153D01*
X6522931Y29056153D02*
X6475312Y28865677D01*
X6475312Y28865677D02*
X6427693Y28770439D01*
X6427693Y28770439D02*
X6332455Y28675200D01*
X6332455Y28675200D02*
X6189598Y28627581D01*
X6189598Y28627581D02*
X5951503Y28627581D01*
X3808646Y27227581D02*
X4427693Y27227581D01*
X4427693Y27227581D02*
X4094360Y26846629D01*
X4094360Y26846629D02*
X4237217Y26846629D01*
X4237217Y26846629D02*
X4332455Y26799010D01*
X4332455Y26799010D02*
X4380074Y26751391D01*
X4380074Y26751391D02*
X4427693Y26656153D01*
X4427693Y26656153D02*
X4427693Y26418058D01*
X4427693Y26418058D02*
X4380074Y26322820D01*
X4380074Y26322820D02*
X4332455Y26275200D01*
X4332455Y26275200D02*
X4237217Y26227581D01*
X4237217Y26227581D02*
X3951503Y26227581D01*
X3951503Y26227581D02*
X3856265Y26275200D01*
X3856265Y26275200D02*
X3808646Y26322820D01*
X4713408Y27227581D02*
X5046741Y26227581D01*
X5046741Y26227581D02*
X5380074Y27227581D01*
X5618170Y27227581D02*
X6237217Y27227581D01*
X6237217Y27227581D02*
X5903884Y26846629D01*
X5903884Y26846629D02*
X6046741Y26846629D01*
X6046741Y26846629D02*
X6141979Y26799010D01*
X6141979Y26799010D02*
X6189598Y26751391D01*
X6189598Y26751391D02*
X6237217Y26656153D01*
X6237217Y26656153D02*
X6237217Y26418058D01*
X6237217Y26418058D02*
X6189598Y26322820D01*
X6189598Y26322820D02*
X6141979Y26275200D01*
X6141979Y26275200D02*
X6046741Y26227581D01*
X6046741Y26227581D02*
X5761027Y26227581D01*
X5761027Y26227581D02*
X5665789Y26275200D01*
X5665789Y26275200D02*
X5618170Y26322820D01*
X4427693Y24579962D02*
X4332455Y24627581D01*
X4332455Y24627581D02*
X4189598Y24627581D01*
X4189598Y24627581D02*
X4046741Y24579962D01*
X4046741Y24579962D02*
X3951503Y24484724D01*
X3951503Y24484724D02*
X3903884Y24389486D01*
X3903884Y24389486D02*
X3856265Y24199010D01*
X3856265Y24199010D02*
X3856265Y24056153D01*
X3856265Y24056153D02*
X3903884Y23865677D01*
X3903884Y23865677D02*
X3951503Y23770439D01*
X3951503Y23770439D02*
X4046741Y23675200D01*
X4046741Y23675200D02*
X4189598Y23627581D01*
X4189598Y23627581D02*
X4284836Y23627581D01*
X4284836Y23627581D02*
X4427693Y23675200D01*
X4427693Y23675200D02*
X4475312Y23722820D01*
X4475312Y23722820D02*
X4475312Y24056153D01*
X4475312Y24056153D02*
X4284836Y24056153D01*
X5094360Y24627581D02*
X5189598Y24627581D01*
X5189598Y24627581D02*
X5284836Y24579962D01*
X5284836Y24579962D02*
X5332455Y24532343D01*
X5332455Y24532343D02*
X5380074Y24437105D01*
X5380074Y24437105D02*
X5427693Y24246629D01*
X5427693Y24246629D02*
X5427693Y24008534D01*
X5427693Y24008534D02*
X5380074Y23818058D01*
X5380074Y23818058D02*
X5332455Y23722820D01*
X5332455Y23722820D02*
X5284836Y23675200D01*
X5284836Y23675200D02*
X5189598Y23627581D01*
X5189598Y23627581D02*
X5094360Y23627581D01*
X5094360Y23627581D02*
X4999122Y23675200D01*
X4999122Y23675200D02*
X4951503Y23722820D01*
X4951503Y23722820D02*
X4903884Y23818058D01*
X4903884Y23818058D02*
X4856265Y24008534D01*
X4856265Y24008534D02*
X4856265Y24246629D01*
X4856265Y24246629D02*
X4903884Y24437105D01*
X4903884Y24437105D02*
X4951503Y24532343D01*
X4951503Y24532343D02*
X4999122Y24579962D01*
X4999122Y24579962D02*
X5094360Y24627581D01*
X6046741Y24627581D02*
X6141979Y24627581D01*
X6141979Y24627581D02*
X6237217Y24579962D01*
X6237217Y24579962D02*
X6284836Y24532343D01*
X6284836Y24532343D02*
X6332455Y24437105D01*
X6332455Y24437105D02*
X6380074Y24246629D01*
X6380074Y24246629D02*
X6380074Y24008534D01*
X6380074Y24008534D02*
X6332455Y23818058D01*
X6332455Y23818058D02*
X6284836Y23722820D01*
X6284836Y23722820D02*
X6237217Y23675200D01*
X6237217Y23675200D02*
X6141979Y23627581D01*
X6141979Y23627581D02*
X6046741Y23627581D01*
X6046741Y23627581D02*
X5951503Y23675200D01*
X5951503Y23675200D02*
X5903884Y23722820D01*
X5903884Y23722820D02*
X5856265Y23818058D01*
X5856265Y23818058D02*
X5808646Y24008534D01*
X5808646Y24008534D02*
X5808646Y24246629D01*
X5808646Y24246629D02*
X5856265Y24437105D01*
X5856265Y24437105D02*
X5903884Y24532343D01*
X5903884Y24532343D02*
X5951503Y24579962D01*
X5951503Y24579962D02*
X6046741Y24627581D01*
X3903884Y21551391D02*
X4237217Y21551391D01*
X4380074Y21027581D02*
X3903884Y21027581D01*
X3903884Y21027581D02*
X3903884Y22027581D01*
X3903884Y22027581D02*
X4380074Y22027581D01*
X4808646Y21027581D02*
X4808646Y22027581D01*
X4808646Y22027581D02*
X5380074Y21027581D01*
X5380074Y21027581D02*
X5380074Y22027581D01*
X4475312Y18427581D02*
X4141979Y18903772D01*
X3903884Y18427581D02*
X3903884Y19427581D01*
X3903884Y19427581D02*
X4284836Y19427581D01*
X4284836Y19427581D02*
X4380074Y19379962D01*
X4380074Y19379962D02*
X4427693Y19332343D01*
X4427693Y19332343D02*
X4475312Y19237105D01*
X4475312Y19237105D02*
X4475312Y19094248D01*
X4475312Y19094248D02*
X4427693Y18999010D01*
X4427693Y18999010D02*
X4380074Y18951391D01*
X4380074Y18951391D02*
X4284836Y18903772D01*
X4284836Y18903772D02*
X3903884Y18903772D01*
X4808646Y19427581D02*
X5475312Y18427581D01*
X5475312Y19427581D02*
X4808646Y18427581D01*
X6046741Y19427581D02*
X6141979Y19427581D01*
X6141979Y19427581D02*
X6237217Y19379962D01*
X6237217Y19379962D02*
X6284836Y19332343D01*
X6284836Y19332343D02*
X6332455Y19237105D01*
X6332455Y19237105D02*
X6380074Y19046629D01*
X6380074Y19046629D02*
X6380074Y18808534D01*
X6380074Y18808534D02*
X6332455Y18618058D01*
X6332455Y18618058D02*
X6284836Y18522820D01*
X6284836Y18522820D02*
X6237217Y18475200D01*
X6237217Y18475200D02*
X6141979Y18427581D01*
X6141979Y18427581D02*
X6046741Y18427581D01*
X6046741Y18427581D02*
X5951503Y18475200D01*
X5951503Y18475200D02*
X5903884Y18522820D01*
X5903884Y18522820D02*
X5856265Y18618058D01*
X5856265Y18618058D02*
X5808646Y18808534D01*
X5808646Y18808534D02*
X5808646Y19046629D01*
X5808646Y19046629D02*
X5856265Y19237105D01*
X5856265Y19237105D02*
X5903884Y19332343D01*
X5903884Y19332343D02*
X5951503Y19379962D01*
X5951503Y19379962D02*
X6046741Y19427581D01*
X3961027Y16897581D02*
X4532455Y16897581D01*
X4246741Y15897581D02*
X4246741Y16897581D01*
X4770551Y16897581D02*
X5437217Y15897581D01*
X5437217Y16897581D02*
X4770551Y15897581D01*
X6008646Y16897581D02*
X6103884Y16897581D01*
X6103884Y16897581D02*
X6199122Y16849962D01*
X6199122Y16849962D02*
X6246741Y16802343D01*
X6246741Y16802343D02*
X6294360Y16707105D01*
X6294360Y16707105D02*
X6341979Y16516629D01*
X6341979Y16516629D02*
X6341979Y16278534D01*
X6341979Y16278534D02*
X6294360Y16088058D01*
X6294360Y16088058D02*
X6246741Y15992820D01*
X6246741Y15992820D02*
X6199122Y15945200D01*
X6199122Y15945200D02*
X6103884Y15897581D01*
X6103884Y15897581D02*
X6008646Y15897581D01*
X6008646Y15897581D02*
X5913408Y15945200D01*
X5913408Y15945200D02*
X5865789Y15992820D01*
X5865789Y15992820D02*
X5818170Y16088058D01*
X5818170Y16088058D02*
X5770551Y16278534D01*
X5770551Y16278534D02*
X5770551Y16516629D01*
X5770551Y16516629D02*
X5818170Y16707105D01*
X5818170Y16707105D02*
X5865789Y16802343D01*
X5865789Y16802343D02*
X5913408Y16849962D01*
X5913408Y16849962D02*
X6008646Y16897581D01*
D11*
X27234438Y12941729D02*
X27234438Y11989348D01*
X27234438Y11989348D02*
X25234438Y11989348D01*
X27139200Y14370301D02*
X27234438Y14179825D01*
X27234438Y14179825D02*
X27234438Y13798872D01*
X27234438Y13798872D02*
X27139200Y13608396D01*
X27139200Y13608396D02*
X26948723Y13513158D01*
X26948723Y13513158D02*
X26186819Y13513158D01*
X26186819Y13513158D02*
X25996342Y13608396D01*
X25996342Y13608396D02*
X25901104Y13798872D01*
X25901104Y13798872D02*
X25901104Y14179825D01*
X25901104Y14179825D02*
X25996342Y14370301D01*
X25996342Y14370301D02*
X26186819Y14465539D01*
X26186819Y14465539D02*
X26377295Y14465539D01*
X26377295Y14465539D02*
X26567771Y13513158D01*
X27234438Y15322682D02*
X25234438Y15322682D01*
X27234438Y16465539D02*
X26091580Y15608396D01*
X25234438Y16465539D02*
X26377295Y15322682D01*
X27234438Y18179825D02*
X26186819Y18179825D01*
X26186819Y18179825D02*
X25996342Y18084587D01*
X25996342Y18084587D02*
X25901104Y17894111D01*
X25901104Y17894111D02*
X25901104Y17513158D01*
X25901104Y17513158D02*
X25996342Y17322682D01*
X27139200Y18179825D02*
X27234438Y17989349D01*
X27234438Y17989349D02*
X27234438Y17513158D01*
X27234438Y17513158D02*
X27139200Y17322682D01*
X27139200Y17322682D02*
X26948723Y17227444D01*
X26948723Y17227444D02*
X26758247Y17227444D01*
X26758247Y17227444D02*
X26567771Y17322682D01*
X26567771Y17322682D02*
X26472533Y17513158D01*
X26472533Y17513158D02*
X26472533Y17989349D01*
X26472533Y17989349D02*
X26377295Y18179825D01*
X25234438Y18941730D02*
X25234438Y20275063D01*
X25234438Y20275063D02*
X27234438Y18941730D01*
X27234438Y18941730D02*
X27234438Y20275063D01*
X27139200Y21798873D02*
X27234438Y21608397D01*
X27234438Y21608397D02*
X27234438Y21227444D01*
X27234438Y21227444D02*
X27139200Y21036968D01*
X27139200Y21036968D02*
X26948723Y20941730D01*
X26948723Y20941730D02*
X26186819Y20941730D01*
X26186819Y20941730D02*
X25996342Y21036968D01*
X25996342Y21036968D02*
X25901104Y21227444D01*
X25901104Y21227444D02*
X25901104Y21608397D01*
X25901104Y21608397D02*
X25996342Y21798873D01*
X25996342Y21798873D02*
X26186819Y21894111D01*
X26186819Y21894111D02*
X26377295Y21894111D01*
X26377295Y21894111D02*
X26567771Y20941730D01*
X27234438Y22751254D02*
X25234438Y22751254D01*
X25234438Y22751254D02*
X25234438Y23227444D01*
X25234438Y23227444D02*
X25329676Y23513159D01*
X25329676Y23513159D02*
X25520152Y23703635D01*
X25520152Y23703635D02*
X25710628Y23798873D01*
X25710628Y23798873D02*
X26091580Y23894111D01*
X26091580Y23894111D02*
X26377295Y23894111D01*
X26377295Y23894111D02*
X26758247Y23798873D01*
X26758247Y23798873D02*
X26948723Y23703635D01*
X26948723Y23703635D02*
X27139200Y23513159D01*
X27139200Y23513159D02*
X27234438Y23227444D01*
X27234438Y23227444D02*
X27234438Y22751254D01*
D12*
X22979276Y12097117D02*
X18979276Y12097117D01*
X20884038Y12097117D02*
X20884038Y14382832D01*
X22979276Y14382832D02*
X18979276Y14382832D01*
X21836419Y16097117D02*
X21836419Y18001879D01*
X22979276Y15716165D02*
X18979276Y17049498D01*
X18979276Y17049498D02*
X22979276Y18382832D01*
X20884038Y24097117D02*
X21074514Y24668545D01*
X21074514Y24668545D02*
X21264990Y24859022D01*
X21264990Y24859022D02*
X21645942Y25049498D01*
X21645942Y25049498D02*
X22217371Y25049498D01*
X22217371Y25049498D02*
X22598323Y24859022D01*
X22598323Y24859022D02*
X22788800Y24668545D01*
X22788800Y24668545D02*
X22979276Y24287593D01*
X22979276Y24287593D02*
X22979276Y22763783D01*
X22979276Y22763783D02*
X18979276Y22763783D01*
X18979276Y22763783D02*
X18979276Y24097117D01*
X18979276Y24097117D02*
X19169752Y24478069D01*
X19169752Y24478069D02*
X19360228Y24668545D01*
X19360228Y24668545D02*
X19741180Y24859022D01*
X19741180Y24859022D02*
X20122133Y24859022D01*
X20122133Y24859022D02*
X20503085Y24668545D01*
X20503085Y24668545D02*
X20693561Y24478069D01*
X20693561Y24478069D02*
X20884038Y24097117D01*
X20884038Y24097117D02*
X20884038Y22763783D01*
X18979276Y27525688D02*
X18979276Y28287593D01*
X18979276Y28287593D02*
X19169752Y28668545D01*
X19169752Y28668545D02*
X19550704Y29049498D01*
X19550704Y29049498D02*
X20312609Y29239974D01*
X20312609Y29239974D02*
X21645942Y29239974D01*
X21645942Y29239974D02*
X22407847Y29049498D01*
X22407847Y29049498D02*
X22788800Y28668545D01*
X22788800Y28668545D02*
X22979276Y28287593D01*
X22979276Y28287593D02*
X22979276Y27525688D01*
X22979276Y27525688D02*
X22788800Y27144736D01*
X22788800Y27144736D02*
X22407847Y26763783D01*
X22407847Y26763783D02*
X21645942Y26573307D01*
X21645942Y26573307D02*
X20312609Y26573307D01*
X20312609Y26573307D02*
X19550704Y26763783D01*
X19550704Y26763783D02*
X19169752Y27144736D01*
X19169752Y27144736D02*
X18979276Y27525688D01*
X18979276Y30573307D02*
X22979276Y33239974D01*
X18979276Y33239974D02*
X22979276Y30573307D01*
X18979276Y37239974D02*
X22979276Y38573307D01*
X22979276Y38573307D02*
X18979276Y39906641D01*
X18979276Y42001878D02*
X18979276Y42382831D01*
X18979276Y42382831D02*
X19169752Y42763783D01*
X19169752Y42763783D02*
X19360228Y42954259D01*
X19360228Y42954259D02*
X19741180Y43144735D01*
X19741180Y43144735D02*
X20503085Y43335212D01*
X20503085Y43335212D02*
X21455466Y43335212D01*
X21455466Y43335212D02*
X22217371Y43144735D01*
X22217371Y43144735D02*
X22598323Y42954259D01*
X22598323Y42954259D02*
X22788800Y42763783D01*
X22788800Y42763783D02*
X22979276Y42382831D01*
X22979276Y42382831D02*
X22979276Y42001878D01*
X22979276Y42001878D02*
X22788800Y41620926D01*
X22788800Y41620926D02*
X22598323Y41430450D01*
X22598323Y41430450D02*
X22217371Y41239973D01*
X22217371Y41239973D02*
X21455466Y41049497D01*
X21455466Y41049497D02*
X20503085Y41049497D01*
X20503085Y41049497D02*
X19741180Y41239973D01*
X19741180Y41239973D02*
X19360228Y41430450D01*
X19360228Y41430450D02*
X19169752Y41620926D01*
X19169752Y41620926D02*
X18979276Y42001878D01*
X22598323Y45049497D02*
X22788800Y45239974D01*
X22788800Y45239974D02*
X22979276Y45049497D01*
X22979276Y45049497D02*
X22788800Y44859021D01*
X22788800Y44859021D02*
X22598323Y45049497D01*
X22598323Y45049497D02*
X22979276Y45049497D01*
X22979276Y49049498D02*
X22979276Y46763783D01*
X22979276Y47906640D02*
X18979276Y47906640D01*
X18979276Y47906640D02*
X19550704Y47525688D01*
X19550704Y47525688D02*
X19931657Y47144736D01*
X19931657Y47144736D02*
X20122133Y46763783D01*
D13*
X46919047Y21768991D02*
X47061904Y21721372D01*
X47061904Y21721372D02*
X47109523Y21673753D01*
X47109523Y21673753D02*
X47157142Y21578515D01*
X47157142Y21578515D02*
X47157142Y21435658D01*
X47157142Y21435658D02*
X47109523Y21340420D01*
X47109523Y21340420D02*
X47061904Y21292800D01*
X47061904Y21292800D02*
X46966666Y21245181D01*
X46966666Y21245181D02*
X46585714Y21245181D01*
X46585714Y21245181D02*
X46585714Y22245181D01*
X46585714Y22245181D02*
X46919047Y22245181D01*
X46919047Y22245181D02*
X47014285Y22197562D01*
X47014285Y22197562D02*
X47061904Y22149943D01*
X47061904Y22149943D02*
X47109523Y22054705D01*
X47109523Y22054705D02*
X47109523Y21959467D01*
X47109523Y21959467D02*
X47061904Y21864229D01*
X47061904Y21864229D02*
X47014285Y21816610D01*
X47014285Y21816610D02*
X46919047Y21768991D01*
X46919047Y21768991D02*
X46585714Y21768991D01*
X47490476Y22245181D02*
X48157142Y22245181D01*
X48157142Y22245181D02*
X47490476Y21245181D01*
X47490476Y21245181D02*
X48157142Y21245181D01*
X49061904Y21245181D02*
X48490476Y21245181D01*
X48776190Y21245181D02*
X48776190Y22245181D01*
X48776190Y22245181D02*
X48680952Y22102324D01*
X48680952Y22102324D02*
X48585714Y22007086D01*
X48585714Y22007086D02*
X48490476Y21959467D01*
X43609048Y16966134D02*
X44370953Y16966134D01*
X43990000Y16585181D02*
X43990000Y17347086D01*
X49109580Y46357143D02*
X49157200Y46309524D01*
X49157200Y46309524D02*
X49204819Y46166667D01*
X49204819Y46166667D02*
X49204819Y46071429D01*
X49204819Y46071429D02*
X49157200Y45928572D01*
X49157200Y45928572D02*
X49061961Y45833334D01*
X49061961Y45833334D02*
X48966723Y45785715D01*
X48966723Y45785715D02*
X48776247Y45738096D01*
X48776247Y45738096D02*
X48633390Y45738096D01*
X48633390Y45738096D02*
X48442914Y45785715D01*
X48442914Y45785715D02*
X48347676Y45833334D01*
X48347676Y45833334D02*
X48252438Y45928572D01*
X48252438Y45928572D02*
X48204819Y46071429D01*
X48204819Y46071429D02*
X48204819Y46166667D01*
X48204819Y46166667D02*
X48252438Y46309524D01*
X48252438Y46309524D02*
X48300057Y46357143D01*
X49204819Y47309524D02*
X49204819Y46738096D01*
X49204819Y47023810D02*
X48204819Y47023810D01*
X48204819Y47023810D02*
X48347676Y46928572D01*
X48347676Y46928572D02*
X48442914Y46833334D01*
X48442914Y46833334D02*
X48490533Y46738096D01*
X48633390Y47880953D02*
X48585771Y47785715D01*
X48585771Y47785715D02*
X48538152Y47738096D01*
X48538152Y47738096D02*
X48442914Y47690477D01*
X48442914Y47690477D02*
X48395295Y47690477D01*
X48395295Y47690477D02*
X48300057Y47738096D01*
X48300057Y47738096D02*
X48252438Y47785715D01*
X48252438Y47785715D02*
X48204819Y47880953D01*
X48204819Y47880953D02*
X48204819Y48071429D01*
X48204819Y48071429D02*
X48252438Y48166667D01*
X48252438Y48166667D02*
X48300057Y48214286D01*
X48300057Y48214286D02*
X48395295Y48261905D01*
X48395295Y48261905D02*
X48442914Y48261905D01*
X48442914Y48261905D02*
X48538152Y48214286D01*
X48538152Y48214286D02*
X48585771Y48166667D01*
X48585771Y48166667D02*
X48633390Y48071429D01*
X48633390Y48071429D02*
X48633390Y47880953D01*
X48633390Y47880953D02*
X48681009Y47785715D01*
X48681009Y47785715D02*
X48728628Y47738096D01*
X48728628Y47738096D02*
X48823866Y47690477D01*
X48823866Y47690477D02*
X49014342Y47690477D01*
X49014342Y47690477D02*
X49109580Y47738096D01*
X49109580Y47738096D02*
X49157200Y47785715D01*
X49157200Y47785715D02*
X49204819Y47880953D01*
X49204819Y47880953D02*
X49204819Y48071429D01*
X49204819Y48071429D02*
X49157200Y48166667D01*
X49157200Y48166667D02*
X49109580Y48214286D01*
X49109580Y48214286D02*
X49014342Y48261905D01*
X49014342Y48261905D02*
X48823866Y48261905D01*
X48823866Y48261905D02*
X48728628Y48214286D01*
X48728628Y48214286D02*
X48681009Y48166667D01*
X48681009Y48166667D02*
X48633390Y48071429D01*
X50761905Y31045181D02*
X50761905Y32045181D01*
X50761905Y32045181D02*
X51000000Y32045181D01*
X51000000Y32045181D02*
X51142857Y31997562D01*
X51142857Y31997562D02*
X51238095Y31902324D01*
X51238095Y31902324D02*
X51285714Y31807086D01*
X51285714Y31807086D02*
X51333333Y31616610D01*
X51333333Y31616610D02*
X51333333Y31473753D01*
X51333333Y31473753D02*
X51285714Y31283277D01*
X51285714Y31283277D02*
X51238095Y31188039D01*
X51238095Y31188039D02*
X51142857Y31092800D01*
X51142857Y31092800D02*
X51000000Y31045181D01*
X51000000Y31045181D02*
X50761905Y31045181D01*
X52190476Y31711848D02*
X52190476Y31045181D01*
X51952381Y32092800D02*
X51714286Y31378515D01*
X51714286Y31378515D02*
X52333333Y31378515D01*
X49126666Y6045181D02*
X49126666Y5330896D01*
X49126666Y5330896D02*
X49079047Y5188039D01*
X49079047Y5188039D02*
X48983809Y5092800D01*
X48983809Y5092800D02*
X48840952Y5045181D01*
X48840952Y5045181D02*
X48745714Y5045181D01*
X50126666Y5045181D02*
X49555238Y5045181D01*
X49840952Y5045181D02*
X49840952Y6045181D01*
X49840952Y6045181D02*
X49745714Y5902324D01*
X49745714Y5902324D02*
X49650476Y5807086D01*
X49650476Y5807086D02*
X49555238Y5759467D01*
X50859580Y64333334D02*
X50907200Y64285715D01*
X50907200Y64285715D02*
X50954819Y64142858D01*
X50954819Y64142858D02*
X50954819Y64047620D01*
X50954819Y64047620D02*
X50907200Y63904763D01*
X50907200Y63904763D02*
X50811961Y63809525D01*
X50811961Y63809525D02*
X50716723Y63761906D01*
X50716723Y63761906D02*
X50526247Y63714287D01*
X50526247Y63714287D02*
X50383390Y63714287D01*
X50383390Y63714287D02*
X50192914Y63761906D01*
X50192914Y63761906D02*
X50097676Y63809525D01*
X50097676Y63809525D02*
X50002438Y63904763D01*
X50002438Y63904763D02*
X49954819Y64047620D01*
X49954819Y64047620D02*
X49954819Y64142858D01*
X49954819Y64142858D02*
X50002438Y64285715D01*
X50002438Y64285715D02*
X50050057Y64333334D01*
X49954819Y65190477D02*
X49954819Y65000001D01*
X49954819Y65000001D02*
X50002438Y64904763D01*
X50002438Y64904763D02*
X50050057Y64857144D01*
X50050057Y64857144D02*
X50192914Y64761906D01*
X50192914Y64761906D02*
X50383390Y64714287D01*
X50383390Y64714287D02*
X50764342Y64714287D01*
X50764342Y64714287D02*
X50859580Y64761906D01*
X50859580Y64761906D02*
X50907200Y64809525D01*
X50907200Y64809525D02*
X50954819Y64904763D01*
X50954819Y64904763D02*
X50954819Y65095239D01*
X50954819Y65095239D02*
X50907200Y65190477D01*
X50907200Y65190477D02*
X50859580Y65238096D01*
X50859580Y65238096D02*
X50764342Y65285715D01*
X50764342Y65285715D02*
X50526247Y65285715D01*
X50526247Y65285715D02*
X50431009Y65238096D01*
X50431009Y65238096D02*
X50383390Y65190477D01*
X50383390Y65190477D02*
X50335771Y65095239D01*
X50335771Y65095239D02*
X50335771Y64904763D01*
X50335771Y64904763D02*
X50383390Y64809525D01*
X50383390Y64809525D02*
X50431009Y64761906D01*
X50431009Y64761906D02*
X50526247Y64714287D01*
X36359580Y62082143D02*
X36407200Y62034524D01*
X36407200Y62034524D02*
X36454819Y61891667D01*
X36454819Y61891667D02*
X36454819Y61796429D01*
X36454819Y61796429D02*
X36407200Y61653572D01*
X36407200Y61653572D02*
X36311961Y61558334D01*
X36311961Y61558334D02*
X36216723Y61510715D01*
X36216723Y61510715D02*
X36026247Y61463096D01*
X36026247Y61463096D02*
X35883390Y61463096D01*
X35883390Y61463096D02*
X35692914Y61510715D01*
X35692914Y61510715D02*
X35597676Y61558334D01*
X35597676Y61558334D02*
X35502438Y61653572D01*
X35502438Y61653572D02*
X35454819Y61796429D01*
X35454819Y61796429D02*
X35454819Y61891667D01*
X35454819Y61891667D02*
X35502438Y62034524D01*
X35502438Y62034524D02*
X35550057Y62082143D01*
X36454819Y63034524D02*
X36454819Y62463096D01*
X36454819Y62748810D02*
X35454819Y62748810D01*
X35454819Y62748810D02*
X35597676Y62653572D01*
X35597676Y62653572D02*
X35692914Y62558334D01*
X35692914Y62558334D02*
X35740533Y62463096D01*
X35788152Y63891667D02*
X36454819Y63891667D01*
X35407200Y63653572D02*
X36121485Y63415477D01*
X36121485Y63415477D02*
X36121485Y64034524D01*
X28933333Y76445181D02*
X28933333Y75730896D01*
X28933333Y75730896D02*
X28885714Y75588039D01*
X28885714Y75588039D02*
X28790476Y75492800D01*
X28790476Y75492800D02*
X28647619Y75445181D01*
X28647619Y75445181D02*
X28552381Y75445181D01*
X29171429Y75349943D02*
X29933333Y75349943D01*
X30171429Y75968991D02*
X30504762Y75968991D01*
X30647619Y75445181D02*
X30171429Y75445181D01*
X30171429Y75445181D02*
X30171429Y76445181D01*
X30171429Y76445181D02*
X30647619Y76445181D01*
X31076191Y75445181D02*
X31076191Y76445181D01*
X31076191Y76445181D02*
X31457143Y76445181D01*
X31457143Y76445181D02*
X31552381Y76397562D01*
X31552381Y76397562D02*
X31600000Y76349943D01*
X31600000Y76349943D02*
X31647619Y76254705D01*
X31647619Y76254705D02*
X31647619Y76111848D01*
X31647619Y76111848D02*
X31600000Y76016610D01*
X31600000Y76016610D02*
X31552381Y75968991D01*
X31552381Y75968991D02*
X31457143Y75921372D01*
X31457143Y75921372D02*
X31076191Y75921372D01*
X32600000Y75445181D02*
X32028572Y75445181D01*
X32314286Y75445181D02*
X32314286Y76445181D01*
X32314286Y76445181D02*
X32219048Y76302324D01*
X32219048Y76302324D02*
X32123810Y76207086D01*
X32123810Y76207086D02*
X32028572Y76159467D01*
X44702380Y71295181D02*
X44702380Y70580896D01*
X44702380Y70580896D02*
X44654761Y70438039D01*
X44654761Y70438039D02*
X44559523Y70342800D01*
X44559523Y70342800D02*
X44416666Y70295181D01*
X44416666Y70295181D02*
X44321428Y70295181D01*
X44940476Y70199943D02*
X45702380Y70199943D01*
X46273809Y70818991D02*
X45940476Y70818991D01*
X45940476Y70295181D02*
X45940476Y71295181D01*
X45940476Y71295181D02*
X46416666Y71295181D01*
X47273809Y70295181D02*
X46797619Y70295181D01*
X46797619Y70295181D02*
X46797619Y71295181D01*
X48130952Y70295181D02*
X47559524Y70295181D01*
X47845238Y70295181D02*
X47845238Y71295181D01*
X47845238Y71295181D02*
X47750000Y71152324D01*
X47750000Y71152324D02*
X47654762Y71057086D01*
X47654762Y71057086D02*
X47559524Y71009467D01*
X37859580Y62082143D02*
X37907200Y62034524D01*
X37907200Y62034524D02*
X37954819Y61891667D01*
X37954819Y61891667D02*
X37954819Y61796429D01*
X37954819Y61796429D02*
X37907200Y61653572D01*
X37907200Y61653572D02*
X37811961Y61558334D01*
X37811961Y61558334D02*
X37716723Y61510715D01*
X37716723Y61510715D02*
X37526247Y61463096D01*
X37526247Y61463096D02*
X37383390Y61463096D01*
X37383390Y61463096D02*
X37192914Y61510715D01*
X37192914Y61510715D02*
X37097676Y61558334D01*
X37097676Y61558334D02*
X37002438Y61653572D01*
X37002438Y61653572D02*
X36954819Y61796429D01*
X36954819Y61796429D02*
X36954819Y61891667D01*
X36954819Y61891667D02*
X37002438Y62034524D01*
X37002438Y62034524D02*
X37050057Y62082143D01*
X37954819Y63034524D02*
X37954819Y62463096D01*
X37954819Y62748810D02*
X36954819Y62748810D01*
X36954819Y62748810D02*
X37097676Y62653572D01*
X37097676Y62653572D02*
X37192914Y62558334D01*
X37192914Y62558334D02*
X37240533Y62463096D01*
X37954819Y63986905D02*
X37954819Y63415477D01*
X37954819Y63701191D02*
X36954819Y63701191D01*
X36954819Y63701191D02*
X37097676Y63605953D01*
X37097676Y63605953D02*
X37192914Y63510715D01*
X37192914Y63510715D02*
X37240533Y63415477D01*
X43609580Y4333334D02*
X43657200Y4285715D01*
X43657200Y4285715D02*
X43704819Y4142858D01*
X43704819Y4142858D02*
X43704819Y4047620D01*
X43704819Y4047620D02*
X43657200Y3904763D01*
X43657200Y3904763D02*
X43561961Y3809525D01*
X43561961Y3809525D02*
X43466723Y3761906D01*
X43466723Y3761906D02*
X43276247Y3714287D01*
X43276247Y3714287D02*
X43133390Y3714287D01*
X43133390Y3714287D02*
X42942914Y3761906D01*
X42942914Y3761906D02*
X42847676Y3809525D01*
X42847676Y3809525D02*
X42752438Y3904763D01*
X42752438Y3904763D02*
X42704819Y4047620D01*
X42704819Y4047620D02*
X42704819Y4142858D01*
X42704819Y4142858D02*
X42752438Y4285715D01*
X42752438Y4285715D02*
X42800057Y4333334D01*
X42704819Y4666668D02*
X42704819Y5285715D01*
X42704819Y5285715D02*
X43085771Y4952382D01*
X43085771Y4952382D02*
X43085771Y5095239D01*
X43085771Y5095239D02*
X43133390Y5190477D01*
X43133390Y5190477D02*
X43181009Y5238096D01*
X43181009Y5238096D02*
X43276247Y5285715D01*
X43276247Y5285715D02*
X43514342Y5285715D01*
X43514342Y5285715D02*
X43609580Y5238096D01*
X43609580Y5238096D02*
X43657200Y5190477D01*
X43657200Y5190477D02*
X43704819Y5095239D01*
X43704819Y5095239D02*
X43704819Y4809525D01*
X43704819Y4809525D02*
X43657200Y4714287D01*
X43657200Y4714287D02*
X43609580Y4666668D01*
X39359580Y63083334D02*
X39407200Y63035715D01*
X39407200Y63035715D02*
X39454819Y62892858D01*
X39454819Y62892858D02*
X39454819Y62797620D01*
X39454819Y62797620D02*
X39407200Y62654763D01*
X39407200Y62654763D02*
X39311961Y62559525D01*
X39311961Y62559525D02*
X39216723Y62511906D01*
X39216723Y62511906D02*
X39026247Y62464287D01*
X39026247Y62464287D02*
X38883390Y62464287D01*
X38883390Y62464287D02*
X38692914Y62511906D01*
X38692914Y62511906D02*
X38597676Y62559525D01*
X38597676Y62559525D02*
X38502438Y62654763D01*
X38502438Y62654763D02*
X38454819Y62797620D01*
X38454819Y62797620D02*
X38454819Y62892858D01*
X38454819Y62892858D02*
X38502438Y63035715D01*
X38502438Y63035715D02*
X38550057Y63083334D01*
X38454819Y63416668D02*
X38454819Y64083334D01*
X38454819Y64083334D02*
X39454819Y63654763D01*
X17900057Y62279762D02*
X17852438Y62184524D01*
X17852438Y62184524D02*
X17757200Y62089286D01*
X17757200Y62089286D02*
X17614342Y61946429D01*
X17614342Y61946429D02*
X17566723Y61851191D01*
X17566723Y61851191D02*
X17566723Y61755953D01*
X17804819Y61803572D02*
X17757200Y61708334D01*
X17757200Y61708334D02*
X17661961Y61613096D01*
X17661961Y61613096D02*
X17471485Y61565477D01*
X17471485Y61565477D02*
X17138152Y61565477D01*
X17138152Y61565477D02*
X16947676Y61613096D01*
X16947676Y61613096D02*
X16852438Y61708334D01*
X16852438Y61708334D02*
X16804819Y61803572D01*
X16804819Y61803572D02*
X16804819Y61994048D01*
X16804819Y61994048D02*
X16852438Y62089286D01*
X16852438Y62089286D02*
X16947676Y62184524D01*
X16947676Y62184524D02*
X17138152Y62232143D01*
X17138152Y62232143D02*
X17471485Y62232143D01*
X17471485Y62232143D02*
X17661961Y62184524D01*
X17661961Y62184524D02*
X17757200Y62089286D01*
X17757200Y62089286D02*
X17804819Y61994048D01*
X17804819Y61994048D02*
X17804819Y61803572D01*
X17804819Y63184524D02*
X17804819Y62613096D01*
X17804819Y62898810D02*
X16804819Y62898810D01*
X16804819Y62898810D02*
X16947676Y62803572D01*
X16947676Y62803572D02*
X17042914Y62708334D01*
X17042914Y62708334D02*
X17090533Y62613096D01*
X39902438Y52261905D02*
X39854819Y52166667D01*
X39854819Y52166667D02*
X39854819Y52023810D01*
X39854819Y52023810D02*
X39902438Y51880953D01*
X39902438Y51880953D02*
X39997676Y51785715D01*
X39997676Y51785715D02*
X40092914Y51738096D01*
X40092914Y51738096D02*
X40283390Y51690477D01*
X40283390Y51690477D02*
X40426247Y51690477D01*
X40426247Y51690477D02*
X40616723Y51738096D01*
X40616723Y51738096D02*
X40711961Y51785715D01*
X40711961Y51785715D02*
X40807200Y51880953D01*
X40807200Y51880953D02*
X40854819Y52023810D01*
X40854819Y52023810D02*
X40854819Y52119048D01*
X40854819Y52119048D02*
X40807200Y52261905D01*
X40807200Y52261905D02*
X40759580Y52309524D01*
X40759580Y52309524D02*
X40426247Y52309524D01*
X40426247Y52309524D02*
X40426247Y52119048D01*
X40854819Y52738096D02*
X39854819Y52738096D01*
X39854819Y52738096D02*
X40854819Y53309524D01*
X40854819Y53309524D02*
X39854819Y53309524D01*
X40854819Y53785715D02*
X39854819Y53785715D01*
X39854819Y53785715D02*
X39854819Y54023810D01*
X39854819Y54023810D02*
X39902438Y54166667D01*
X39902438Y54166667D02*
X39997676Y54261905D01*
X39997676Y54261905D02*
X40092914Y54309524D01*
X40092914Y54309524D02*
X40283390Y54357143D01*
X40283390Y54357143D02*
X40426247Y54357143D01*
X40426247Y54357143D02*
X40616723Y54309524D01*
X40616723Y54309524D02*
X40711961Y54261905D01*
X40711961Y54261905D02*
X40807200Y54166667D01*
X40807200Y54166667D02*
X40854819Y54023810D01*
X40854819Y54023810D02*
X40854819Y53785715D01*
X40854819Y55309524D02*
X40854819Y54738096D01*
X40854819Y55023810D02*
X39854819Y55023810D01*
X39854819Y55023810D02*
X39997676Y54928572D01*
X39997676Y54928572D02*
X40092914Y54833334D01*
X40092914Y54833334D02*
X40140533Y54738096D01*
X53738580Y64333334D02*
X53786200Y64285715D01*
X53786200Y64285715D02*
X53833819Y64142858D01*
X53833819Y64142858D02*
X53833819Y64047620D01*
X53833819Y64047620D02*
X53786200Y63904763D01*
X53786200Y63904763D02*
X53690961Y63809525D01*
X53690961Y63809525D02*
X53595723Y63761906D01*
X53595723Y63761906D02*
X53405247Y63714287D01*
X53405247Y63714287D02*
X53262390Y63714287D01*
X53262390Y63714287D02*
X53071914Y63761906D01*
X53071914Y63761906D02*
X52976676Y63809525D01*
X52976676Y63809525D02*
X52881438Y63904763D01*
X52881438Y63904763D02*
X52833819Y64047620D01*
X52833819Y64047620D02*
X52833819Y64142858D01*
X52833819Y64142858D02*
X52881438Y64285715D01*
X52881438Y64285715D02*
X52929057Y64333334D01*
X52833819Y65238096D02*
X52833819Y64761906D01*
X52833819Y64761906D02*
X53310009Y64714287D01*
X53310009Y64714287D02*
X53262390Y64761906D01*
X53262390Y64761906D02*
X53214771Y64857144D01*
X53214771Y64857144D02*
X53214771Y65095239D01*
X53214771Y65095239D02*
X53262390Y65190477D01*
X53262390Y65190477D02*
X53310009Y65238096D01*
X53310009Y65238096D02*
X53405247Y65285715D01*
X53405247Y65285715D02*
X53643342Y65285715D01*
X53643342Y65285715D02*
X53738580Y65238096D01*
X53738580Y65238096D02*
X53786200Y65190477D01*
X53786200Y65190477D02*
X53833819Y65095239D01*
X53833819Y65095239D02*
X53833819Y64857144D01*
X53833819Y64857144D02*
X53786200Y64761906D01*
X53786200Y64761906D02*
X53738580Y64714287D01*
X15804819Y62908334D02*
X15328628Y62575001D01*
X15804819Y62336906D02*
X14804819Y62336906D01*
X14804819Y62336906D02*
X14804819Y62717858D01*
X14804819Y62717858D02*
X14852438Y62813096D01*
X14852438Y62813096D02*
X14900057Y62860715D01*
X14900057Y62860715D02*
X14995295Y62908334D01*
X14995295Y62908334D02*
X15138152Y62908334D01*
X15138152Y62908334D02*
X15233390Y62860715D01*
X15233390Y62860715D02*
X15281009Y62813096D01*
X15281009Y62813096D02*
X15328628Y62717858D01*
X15328628Y62717858D02*
X15328628Y62336906D01*
X14804819Y63241668D02*
X14804819Y63860715D01*
X14804819Y63860715D02*
X15185771Y63527382D01*
X15185771Y63527382D02*
X15185771Y63670239D01*
X15185771Y63670239D02*
X15233390Y63765477D01*
X15233390Y63765477D02*
X15281009Y63813096D01*
X15281009Y63813096D02*
X15376247Y63860715D01*
X15376247Y63860715D02*
X15614342Y63860715D01*
X15614342Y63860715D02*
X15709580Y63813096D01*
X15709580Y63813096D02*
X15757200Y63765477D01*
X15757200Y63765477D02*
X15804819Y63670239D01*
X15804819Y63670239D02*
X15804819Y63384525D01*
X15804819Y63384525D02*
X15757200Y63289287D01*
X15757200Y63289287D02*
X15709580Y63241668D01*
X30859580Y60333334D02*
X30907200Y60285715D01*
X30907200Y60285715D02*
X30954819Y60142858D01*
X30954819Y60142858D02*
X30954819Y60047620D01*
X30954819Y60047620D02*
X30907200Y59904763D01*
X30907200Y59904763D02*
X30811961Y59809525D01*
X30811961Y59809525D02*
X30716723Y59761906D01*
X30716723Y59761906D02*
X30526247Y59714287D01*
X30526247Y59714287D02*
X30383390Y59714287D01*
X30383390Y59714287D02*
X30192914Y59761906D01*
X30192914Y59761906D02*
X30097676Y59809525D01*
X30097676Y59809525D02*
X30002438Y59904763D01*
X30002438Y59904763D02*
X29954819Y60047620D01*
X29954819Y60047620D02*
X29954819Y60142858D01*
X29954819Y60142858D02*
X30002438Y60285715D01*
X30002438Y60285715D02*
X30050057Y60333334D01*
X30288152Y61190477D02*
X30954819Y61190477D01*
X29907200Y60952382D02*
X30621485Y60714287D01*
X30621485Y60714287D02*
X30621485Y61333334D01*
X46607142Y26680420D02*
X46559523Y26632800D01*
X46559523Y26632800D02*
X46416666Y26585181D01*
X46416666Y26585181D02*
X46321428Y26585181D01*
X46321428Y26585181D02*
X46178571Y26632800D01*
X46178571Y26632800D02*
X46083333Y26728039D01*
X46083333Y26728039D02*
X46035714Y26823277D01*
X46035714Y26823277D02*
X45988095Y27013753D01*
X45988095Y27013753D02*
X45988095Y27156610D01*
X45988095Y27156610D02*
X46035714Y27347086D01*
X46035714Y27347086D02*
X46083333Y27442324D01*
X46083333Y27442324D02*
X46178571Y27537562D01*
X46178571Y27537562D02*
X46321428Y27585181D01*
X46321428Y27585181D02*
X46416666Y27585181D01*
X46416666Y27585181D02*
X46559523Y27537562D01*
X46559523Y27537562D02*
X46607142Y27489943D01*
X47559523Y26585181D02*
X46988095Y26585181D01*
X47273809Y26585181D02*
X47273809Y27585181D01*
X47273809Y27585181D02*
X47178571Y27442324D01*
X47178571Y27442324D02*
X47083333Y27347086D01*
X47083333Y27347086D02*
X46988095Y27299467D01*
X48416666Y27585181D02*
X48226190Y27585181D01*
X48226190Y27585181D02*
X48130952Y27537562D01*
X48130952Y27537562D02*
X48083333Y27489943D01*
X48083333Y27489943D02*
X47988095Y27347086D01*
X47988095Y27347086D02*
X47940476Y27156610D01*
X47940476Y27156610D02*
X47940476Y26775658D01*
X47940476Y26775658D02*
X47988095Y26680420D01*
X47988095Y26680420D02*
X48035714Y26632800D01*
X48035714Y26632800D02*
X48130952Y26585181D01*
X48130952Y26585181D02*
X48321428Y26585181D01*
X48321428Y26585181D02*
X48416666Y26632800D01*
X48416666Y26632800D02*
X48464285Y26680420D01*
X48464285Y26680420D02*
X48511904Y26775658D01*
X48511904Y26775658D02*
X48511904Y27013753D01*
X48511904Y27013753D02*
X48464285Y27108991D01*
X48464285Y27108991D02*
X48416666Y27156610D01*
X48416666Y27156610D02*
X48321428Y27204229D01*
X48321428Y27204229D02*
X48130952Y27204229D01*
X48130952Y27204229D02*
X48035714Y27156610D01*
X48035714Y27156610D02*
X47988095Y27108991D01*
X47988095Y27108991D02*
X47940476Y27013753D01*
X8904761Y71295181D02*
X8904761Y70580896D01*
X8904761Y70580896D02*
X8857142Y70438039D01*
X8857142Y70438039D02*
X8761904Y70342800D01*
X8761904Y70342800D02*
X8619047Y70295181D01*
X8619047Y70295181D02*
X8523809Y70295181D01*
X9142857Y70199943D02*
X9904761Y70199943D01*
X10000000Y71295181D02*
X10571428Y71295181D01*
X10285714Y70295181D02*
X10285714Y71295181D01*
X10904762Y70295181D02*
X10904762Y71295181D01*
X10904762Y71295181D02*
X11285714Y71295181D01*
X11285714Y71295181D02*
X11380952Y71247562D01*
X11380952Y71247562D02*
X11428571Y71199943D01*
X11428571Y71199943D02*
X11476190Y71104705D01*
X11476190Y71104705D02*
X11476190Y70961848D01*
X11476190Y70961848D02*
X11428571Y70866610D01*
X11428571Y70866610D02*
X11380952Y70818991D01*
X11380952Y70818991D02*
X11285714Y70771372D01*
X11285714Y70771372D02*
X10904762Y70771372D01*
X12428571Y70295181D02*
X11857143Y70295181D01*
X12142857Y70295181D02*
X12142857Y71295181D01*
X12142857Y71295181D02*
X12047619Y71152324D01*
X12047619Y71152324D02*
X11952381Y71057086D01*
X11952381Y71057086D02*
X11857143Y71009467D01*
X47704819Y35107143D02*
X47228628Y34773810D01*
X47704819Y34535715D02*
X46704819Y34535715D01*
X46704819Y34535715D02*
X46704819Y34916667D01*
X46704819Y34916667D02*
X46752438Y35011905D01*
X46752438Y35011905D02*
X46800057Y35059524D01*
X46800057Y35059524D02*
X46895295Y35107143D01*
X46895295Y35107143D02*
X47038152Y35107143D01*
X47038152Y35107143D02*
X47133390Y35059524D01*
X47133390Y35059524D02*
X47181009Y35011905D01*
X47181009Y35011905D02*
X47228628Y34916667D01*
X47228628Y34916667D02*
X47228628Y34535715D01*
X47704819Y36059524D02*
X47704819Y35488096D01*
X47704819Y35773810D02*
X46704819Y35773810D01*
X46704819Y35773810D02*
X46847676Y35678572D01*
X46847676Y35678572D02*
X46942914Y35583334D01*
X46942914Y35583334D02*
X46990533Y35488096D01*
X47133390Y36630953D02*
X47085771Y36535715D01*
X47085771Y36535715D02*
X47038152Y36488096D01*
X47038152Y36488096D02*
X46942914Y36440477D01*
X46942914Y36440477D02*
X46895295Y36440477D01*
X46895295Y36440477D02*
X46800057Y36488096D01*
X46800057Y36488096D02*
X46752438Y36535715D01*
X46752438Y36535715D02*
X46704819Y36630953D01*
X46704819Y36630953D02*
X46704819Y36821429D01*
X46704819Y36821429D02*
X46752438Y36916667D01*
X46752438Y36916667D02*
X46800057Y36964286D01*
X46800057Y36964286D02*
X46895295Y37011905D01*
X46895295Y37011905D02*
X46942914Y37011905D01*
X46942914Y37011905D02*
X47038152Y36964286D01*
X47038152Y36964286D02*
X47085771Y36916667D01*
X47085771Y36916667D02*
X47133390Y36821429D01*
X47133390Y36821429D02*
X47133390Y36630953D01*
X47133390Y36630953D02*
X47181009Y36535715D01*
X47181009Y36535715D02*
X47228628Y36488096D01*
X47228628Y36488096D02*
X47323866Y36440477D01*
X47323866Y36440477D02*
X47514342Y36440477D01*
X47514342Y36440477D02*
X47609580Y36488096D01*
X47609580Y36488096D02*
X47657200Y36535715D01*
X47657200Y36535715D02*
X47704819Y36630953D01*
X47704819Y36630953D02*
X47704819Y36821429D01*
X47704819Y36821429D02*
X47657200Y36916667D01*
X47657200Y36916667D02*
X47609580Y36964286D01*
X47609580Y36964286D02*
X47514342Y37011905D01*
X47514342Y37011905D02*
X47323866Y37011905D01*
X47323866Y37011905D02*
X47228628Y36964286D01*
X47228628Y36964286D02*
X47181009Y36916667D01*
X47181009Y36916667D02*
X47133390Y36821429D01*
X26204819Y62107143D02*
X25728628Y61773810D01*
X26204819Y61535715D02*
X25204819Y61535715D01*
X25204819Y61535715D02*
X25204819Y61916667D01*
X25204819Y61916667D02*
X25252438Y62011905D01*
X25252438Y62011905D02*
X25300057Y62059524D01*
X25300057Y62059524D02*
X25395295Y62107143D01*
X25395295Y62107143D02*
X25538152Y62107143D01*
X25538152Y62107143D02*
X25633390Y62059524D01*
X25633390Y62059524D02*
X25681009Y62011905D01*
X25681009Y62011905D02*
X25728628Y61916667D01*
X25728628Y61916667D02*
X25728628Y61535715D01*
X26204819Y63059524D02*
X26204819Y62488096D01*
X26204819Y62773810D02*
X25204819Y62773810D01*
X25204819Y62773810D02*
X25347676Y62678572D01*
X25347676Y62678572D02*
X25442914Y62583334D01*
X25442914Y62583334D02*
X25490533Y62488096D01*
X26204819Y64011905D02*
X26204819Y63440477D01*
X26204819Y63726191D02*
X25204819Y63726191D01*
X25204819Y63726191D02*
X25347676Y63630953D01*
X25347676Y63630953D02*
X25442914Y63535715D01*
X25442914Y63535715D02*
X25490533Y63440477D01*
X35454819Y53011906D02*
X34454819Y53011906D01*
X34454819Y53011906D02*
X34454819Y53250001D01*
X34454819Y53250001D02*
X34502438Y53392858D01*
X34502438Y53392858D02*
X34597676Y53488096D01*
X34597676Y53488096D02*
X34692914Y53535715D01*
X34692914Y53535715D02*
X34883390Y53583334D01*
X34883390Y53583334D02*
X35026247Y53583334D01*
X35026247Y53583334D02*
X35216723Y53535715D01*
X35216723Y53535715D02*
X35311961Y53488096D01*
X35311961Y53488096D02*
X35407200Y53392858D01*
X35407200Y53392858D02*
X35454819Y53250001D01*
X35454819Y53250001D02*
X35454819Y53011906D01*
X35454819Y54535715D02*
X35454819Y53964287D01*
X35454819Y54250001D02*
X34454819Y54250001D01*
X34454819Y54250001D02*
X34597676Y54154763D01*
X34597676Y54154763D02*
X34692914Y54059525D01*
X34692914Y54059525D02*
X34740533Y53964287D01*
X46988095Y29295181D02*
X46988095Y28485658D01*
X46988095Y28485658D02*
X47035714Y28390420D01*
X47035714Y28390420D02*
X47083333Y28342800D01*
X47083333Y28342800D02*
X47178571Y28295181D01*
X47178571Y28295181D02*
X47369047Y28295181D01*
X47369047Y28295181D02*
X47464285Y28342800D01*
X47464285Y28342800D02*
X47511904Y28390420D01*
X47511904Y28390420D02*
X47559523Y28485658D01*
X47559523Y28485658D02*
X47559523Y29295181D01*
X47988095Y29199943D02*
X48035714Y29247562D01*
X48035714Y29247562D02*
X48130952Y29295181D01*
X48130952Y29295181D02*
X48369047Y29295181D01*
X48369047Y29295181D02*
X48464285Y29247562D01*
X48464285Y29247562D02*
X48511904Y29199943D01*
X48511904Y29199943D02*
X48559523Y29104705D01*
X48559523Y29104705D02*
X48559523Y29009467D01*
X48559523Y29009467D02*
X48511904Y28866610D01*
X48511904Y28866610D02*
X47940476Y28295181D01*
X47940476Y28295181D02*
X48559523Y28295181D01*
X44357142Y63045181D02*
X44023809Y63521372D01*
X43785714Y63045181D02*
X43785714Y64045181D01*
X43785714Y64045181D02*
X44166666Y64045181D01*
X44166666Y64045181D02*
X44261904Y63997562D01*
X44261904Y63997562D02*
X44309523Y63949943D01*
X44309523Y63949943D02*
X44357142Y63854705D01*
X44357142Y63854705D02*
X44357142Y63711848D01*
X44357142Y63711848D02*
X44309523Y63616610D01*
X44309523Y63616610D02*
X44261904Y63568991D01*
X44261904Y63568991D02*
X44166666Y63521372D01*
X44166666Y63521372D02*
X43785714Y63521372D01*
X45309523Y63045181D02*
X44738095Y63045181D01*
X45023809Y63045181D02*
X45023809Y64045181D01*
X45023809Y64045181D02*
X44928571Y63902324D01*
X44928571Y63902324D02*
X44833333Y63807086D01*
X44833333Y63807086D02*
X44738095Y63759467D01*
X45928571Y64045181D02*
X46023809Y64045181D01*
X46023809Y64045181D02*
X46119047Y63997562D01*
X46119047Y63997562D02*
X46166666Y63949943D01*
X46166666Y63949943D02*
X46214285Y63854705D01*
X46214285Y63854705D02*
X46261904Y63664229D01*
X46261904Y63664229D02*
X46261904Y63426134D01*
X46261904Y63426134D02*
X46214285Y63235658D01*
X46214285Y63235658D02*
X46166666Y63140420D01*
X46166666Y63140420D02*
X46119047Y63092800D01*
X46119047Y63092800D02*
X46023809Y63045181D01*
X46023809Y63045181D02*
X45928571Y63045181D01*
X45928571Y63045181D02*
X45833333Y63092800D01*
X45833333Y63092800D02*
X45785714Y63140420D01*
X45785714Y63140420D02*
X45738095Y63235658D01*
X45738095Y63235658D02*
X45690476Y63426134D01*
X45690476Y63426134D02*
X45690476Y63664229D01*
X45690476Y63664229D02*
X45738095Y63854705D01*
X45738095Y63854705D02*
X45785714Y63949943D01*
X45785714Y63949943D02*
X45833333Y63997562D01*
X45833333Y63997562D02*
X45928571Y64045181D01*
X24704819Y62107143D02*
X24228628Y61773810D01*
X24704819Y61535715D02*
X23704819Y61535715D01*
X23704819Y61535715D02*
X23704819Y61916667D01*
X23704819Y61916667D02*
X23752438Y62011905D01*
X23752438Y62011905D02*
X23800057Y62059524D01*
X23800057Y62059524D02*
X23895295Y62107143D01*
X23895295Y62107143D02*
X24038152Y62107143D01*
X24038152Y62107143D02*
X24133390Y62059524D01*
X24133390Y62059524D02*
X24181009Y62011905D01*
X24181009Y62011905D02*
X24228628Y61916667D01*
X24228628Y61916667D02*
X24228628Y61535715D01*
X24704819Y63059524D02*
X24704819Y62488096D01*
X24704819Y62773810D02*
X23704819Y62773810D01*
X23704819Y62773810D02*
X23847676Y62678572D01*
X23847676Y62678572D02*
X23942914Y62583334D01*
X23942914Y62583334D02*
X23990533Y62488096D01*
X23800057Y63440477D02*
X23752438Y63488096D01*
X23752438Y63488096D02*
X23704819Y63583334D01*
X23704819Y63583334D02*
X23704819Y63821429D01*
X23704819Y63821429D02*
X23752438Y63916667D01*
X23752438Y63916667D02*
X23800057Y63964286D01*
X23800057Y63964286D02*
X23895295Y64011905D01*
X23895295Y64011905D02*
X23990533Y64011905D01*
X23990533Y64011905D02*
X24133390Y63964286D01*
X24133390Y63964286D02*
X24704819Y63392858D01*
X24704819Y63392858D02*
X24704819Y64011905D01*
X51954819Y6083334D02*
X51478628Y5750001D01*
X51954819Y5511906D02*
X50954819Y5511906D01*
X50954819Y5511906D02*
X50954819Y5892858D01*
X50954819Y5892858D02*
X51002438Y5988096D01*
X51002438Y5988096D02*
X51050057Y6035715D01*
X51050057Y6035715D02*
X51145295Y6083334D01*
X51145295Y6083334D02*
X51288152Y6083334D01*
X51288152Y6083334D02*
X51383390Y6035715D01*
X51383390Y6035715D02*
X51431009Y5988096D01*
X51431009Y5988096D02*
X51478628Y5892858D01*
X51478628Y5892858D02*
X51478628Y5511906D01*
X51288152Y6940477D02*
X51954819Y6940477D01*
X50907200Y6702382D02*
X51621485Y6464287D01*
X51621485Y6464287D02*
X51621485Y7083334D01*
X56109580Y5607143D02*
X56157200Y5559524D01*
X56157200Y5559524D02*
X56204819Y5416667D01*
X56204819Y5416667D02*
X56204819Y5321429D01*
X56204819Y5321429D02*
X56157200Y5178572D01*
X56157200Y5178572D02*
X56061961Y5083334D01*
X56061961Y5083334D02*
X55966723Y5035715D01*
X55966723Y5035715D02*
X55776247Y4988096D01*
X55776247Y4988096D02*
X55633390Y4988096D01*
X55633390Y4988096D02*
X55442914Y5035715D01*
X55442914Y5035715D02*
X55347676Y5083334D01*
X55347676Y5083334D02*
X55252438Y5178572D01*
X55252438Y5178572D02*
X55204819Y5321429D01*
X55204819Y5321429D02*
X55204819Y5416667D01*
X55204819Y5416667D02*
X55252438Y5559524D01*
X55252438Y5559524D02*
X55300057Y5607143D01*
X56204819Y6559524D02*
X56204819Y5988096D01*
X56204819Y6273810D02*
X55204819Y6273810D01*
X55204819Y6273810D02*
X55347676Y6178572D01*
X55347676Y6178572D02*
X55442914Y6083334D01*
X55442914Y6083334D02*
X55490533Y5988096D01*
X55204819Y6892858D02*
X55204819Y7559524D01*
X55204819Y7559524D02*
X56204819Y7130953D01*
X50182142Y32545181D02*
X49848809Y33021372D01*
X49610714Y32545181D02*
X49610714Y33545181D01*
X49610714Y33545181D02*
X49991666Y33545181D01*
X49991666Y33545181D02*
X50086904Y33497562D01*
X50086904Y33497562D02*
X50134523Y33449943D01*
X50134523Y33449943D02*
X50182142Y33354705D01*
X50182142Y33354705D02*
X50182142Y33211848D01*
X50182142Y33211848D02*
X50134523Y33116610D01*
X50134523Y33116610D02*
X50086904Y33068991D01*
X50086904Y33068991D02*
X49991666Y33021372D01*
X49991666Y33021372D02*
X49610714Y33021372D01*
X51134523Y32545181D02*
X50563095Y32545181D01*
X50848809Y32545181D02*
X50848809Y33545181D01*
X50848809Y33545181D02*
X50753571Y33402324D01*
X50753571Y33402324D02*
X50658333Y33307086D01*
X50658333Y33307086D02*
X50563095Y33259467D01*
X51991666Y33545181D02*
X51801190Y33545181D01*
X51801190Y33545181D02*
X51705952Y33497562D01*
X51705952Y33497562D02*
X51658333Y33449943D01*
X51658333Y33449943D02*
X51563095Y33307086D01*
X51563095Y33307086D02*
X51515476Y33116610D01*
X51515476Y33116610D02*
X51515476Y32735658D01*
X51515476Y32735658D02*
X51563095Y32640420D01*
X51563095Y32640420D02*
X51610714Y32592800D01*
X51610714Y32592800D02*
X51705952Y32545181D01*
X51705952Y32545181D02*
X51896428Y32545181D01*
X51896428Y32545181D02*
X51991666Y32592800D01*
X51991666Y32592800D02*
X52039285Y32640420D01*
X52039285Y32640420D02*
X52086904Y32735658D01*
X52086904Y32735658D02*
X52086904Y32973753D01*
X52086904Y32973753D02*
X52039285Y33068991D01*
X52039285Y33068991D02*
X51991666Y33116610D01*
X51991666Y33116610D02*
X51896428Y33164229D01*
X51896428Y33164229D02*
X51705952Y33164229D01*
X51705952Y33164229D02*
X51610714Y33116610D01*
X51610714Y33116610D02*
X51563095Y33068991D01*
X51563095Y33068991D02*
X51515476Y32973753D01*
X12833333Y64615181D02*
X12500000Y65091372D01*
X12261905Y64615181D02*
X12261905Y65615181D01*
X12261905Y65615181D02*
X12642857Y65615181D01*
X12642857Y65615181D02*
X12738095Y65567562D01*
X12738095Y65567562D02*
X12785714Y65519943D01*
X12785714Y65519943D02*
X12833333Y65424705D01*
X12833333Y65424705D02*
X12833333Y65281848D01*
X12833333Y65281848D02*
X12785714Y65186610D01*
X12785714Y65186610D02*
X12738095Y65138991D01*
X12738095Y65138991D02*
X12642857Y65091372D01*
X12642857Y65091372D02*
X12261905Y65091372D01*
X13404762Y65186610D02*
X13309524Y65234229D01*
X13309524Y65234229D02*
X13261905Y65281848D01*
X13261905Y65281848D02*
X13214286Y65377086D01*
X13214286Y65377086D02*
X13214286Y65424705D01*
X13214286Y65424705D02*
X13261905Y65519943D01*
X13261905Y65519943D02*
X13309524Y65567562D01*
X13309524Y65567562D02*
X13404762Y65615181D01*
X13404762Y65615181D02*
X13595238Y65615181D01*
X13595238Y65615181D02*
X13690476Y65567562D01*
X13690476Y65567562D02*
X13738095Y65519943D01*
X13738095Y65519943D02*
X13785714Y65424705D01*
X13785714Y65424705D02*
X13785714Y65377086D01*
X13785714Y65377086D02*
X13738095Y65281848D01*
X13738095Y65281848D02*
X13690476Y65234229D01*
X13690476Y65234229D02*
X13595238Y65186610D01*
X13595238Y65186610D02*
X13404762Y65186610D01*
X13404762Y65186610D02*
X13309524Y65138991D01*
X13309524Y65138991D02*
X13261905Y65091372D01*
X13261905Y65091372D02*
X13214286Y64996134D01*
X13214286Y64996134D02*
X13214286Y64805658D01*
X13214286Y64805658D02*
X13261905Y64710420D01*
X13261905Y64710420D02*
X13309524Y64662800D01*
X13309524Y64662800D02*
X13404762Y64615181D01*
X13404762Y64615181D02*
X13595238Y64615181D01*
X13595238Y64615181D02*
X13690476Y64662800D01*
X13690476Y64662800D02*
X13738095Y64710420D01*
X13738095Y64710420D02*
X13785714Y64805658D01*
X13785714Y64805658D02*
X13785714Y64996134D01*
X13785714Y64996134D02*
X13738095Y65091372D01*
X13738095Y65091372D02*
X13690476Y65138991D01*
X13690476Y65138991D02*
X13595238Y65186610D01*
X49359580Y58058334D02*
X49407200Y58010715D01*
X49407200Y58010715D02*
X49454819Y57867858D01*
X49454819Y57867858D02*
X49454819Y57772620D01*
X49454819Y57772620D02*
X49407200Y57629763D01*
X49407200Y57629763D02*
X49311961Y57534525D01*
X49311961Y57534525D02*
X49216723Y57486906D01*
X49216723Y57486906D02*
X49026247Y57439287D01*
X49026247Y57439287D02*
X48883390Y57439287D01*
X48883390Y57439287D02*
X48692914Y57486906D01*
X48692914Y57486906D02*
X48597676Y57534525D01*
X48597676Y57534525D02*
X48502438Y57629763D01*
X48502438Y57629763D02*
X48454819Y57772620D01*
X48454819Y57772620D02*
X48454819Y57867858D01*
X48454819Y57867858D02*
X48502438Y58010715D01*
X48502438Y58010715D02*
X48550057Y58058334D01*
X49454819Y59010715D02*
X49454819Y58439287D01*
X49454819Y58725001D02*
X48454819Y58725001D01*
X48454819Y58725001D02*
X48597676Y58629763D01*
X48597676Y58629763D02*
X48692914Y58534525D01*
X48692914Y58534525D02*
X48740533Y58439287D01*
X4266666Y15445181D02*
X4266666Y14730896D01*
X4266666Y14730896D02*
X4219047Y14588039D01*
X4219047Y14588039D02*
X4123809Y14492800D01*
X4123809Y14492800D02*
X3980952Y14445181D01*
X3980952Y14445181D02*
X3885714Y14445181D01*
X5171428Y15111848D02*
X5171428Y14445181D01*
X4933333Y15492800D02*
X4695238Y14778515D01*
X4695238Y14778515D02*
X5314285Y14778515D01*
X46359580Y37357143D02*
X46407200Y37309524D01*
X46407200Y37309524D02*
X46454819Y37166667D01*
X46454819Y37166667D02*
X46454819Y37071429D01*
X46454819Y37071429D02*
X46407200Y36928572D01*
X46407200Y36928572D02*
X46311961Y36833334D01*
X46311961Y36833334D02*
X46216723Y36785715D01*
X46216723Y36785715D02*
X46026247Y36738096D01*
X46026247Y36738096D02*
X45883390Y36738096D01*
X45883390Y36738096D02*
X45692914Y36785715D01*
X45692914Y36785715D02*
X45597676Y36833334D01*
X45597676Y36833334D02*
X45502438Y36928572D01*
X45502438Y36928572D02*
X45454819Y37071429D01*
X45454819Y37071429D02*
X45454819Y37166667D01*
X45454819Y37166667D02*
X45502438Y37309524D01*
X45502438Y37309524D02*
X45550057Y37357143D01*
X46454819Y38309524D02*
X46454819Y37738096D01*
X46454819Y38023810D02*
X45454819Y38023810D01*
X45454819Y38023810D02*
X45597676Y37928572D01*
X45597676Y37928572D02*
X45692914Y37833334D01*
X45692914Y37833334D02*
X45740533Y37738096D01*
X46454819Y38785715D02*
X46454819Y38976191D01*
X46454819Y38976191D02*
X46407200Y39071429D01*
X46407200Y39071429D02*
X46359580Y39119048D01*
X46359580Y39119048D02*
X46216723Y39214286D01*
X46216723Y39214286D02*
X46026247Y39261905D01*
X46026247Y39261905D02*
X45645295Y39261905D01*
X45645295Y39261905D02*
X45550057Y39214286D01*
X45550057Y39214286D02*
X45502438Y39166667D01*
X45502438Y39166667D02*
X45454819Y39071429D01*
X45454819Y39071429D02*
X45454819Y38880953D01*
X45454819Y38880953D02*
X45502438Y38785715D01*
X45502438Y38785715D02*
X45550057Y38738096D01*
X45550057Y38738096D02*
X45645295Y38690477D01*
X45645295Y38690477D02*
X45883390Y38690477D01*
X45883390Y38690477D02*
X45978628Y38738096D01*
X45978628Y38738096D02*
X46026247Y38785715D01*
X46026247Y38785715D02*
X46073866Y38880953D01*
X46073866Y38880953D02*
X46073866Y39071429D01*
X46073866Y39071429D02*
X46026247Y39166667D01*
X46026247Y39166667D02*
X45978628Y39214286D01*
X45978628Y39214286D02*
X45883390Y39261905D01*
X50190476Y45545181D02*
X50190476Y46545181D01*
X50190476Y46545181D02*
X50523809Y45830896D01*
X50523809Y45830896D02*
X50857142Y46545181D01*
X50857142Y46545181D02*
X50857142Y45545181D01*
X51857142Y45545181D02*
X51285714Y45545181D01*
X51571428Y45545181D02*
X51571428Y46545181D01*
X51571428Y46545181D02*
X51476190Y46402324D01*
X51476190Y46402324D02*
X51380952Y46307086D01*
X51380952Y46307086D02*
X51285714Y46259467D01*
X14954819Y70738096D02*
X15764342Y70738096D01*
X15764342Y70738096D02*
X15859580Y70785715D01*
X15859580Y70785715D02*
X15907200Y70833334D01*
X15907200Y70833334D02*
X15954819Y70928572D01*
X15954819Y70928572D02*
X15954819Y71119048D01*
X15954819Y71119048D02*
X15907200Y71214286D01*
X15907200Y71214286D02*
X15859580Y71261905D01*
X15859580Y71261905D02*
X15764342Y71309524D01*
X15764342Y71309524D02*
X14954819Y71309524D01*
X14954819Y71690477D02*
X14954819Y72309524D01*
X14954819Y72309524D02*
X15335771Y71976191D01*
X15335771Y71976191D02*
X15335771Y72119048D01*
X15335771Y72119048D02*
X15383390Y72214286D01*
X15383390Y72214286D02*
X15431009Y72261905D01*
X15431009Y72261905D02*
X15526247Y72309524D01*
X15526247Y72309524D02*
X15764342Y72309524D01*
X15764342Y72309524D02*
X15859580Y72261905D01*
X15859580Y72261905D02*
X15907200Y72214286D01*
X15907200Y72214286D02*
X15954819Y72119048D01*
X15954819Y72119048D02*
X15954819Y71833334D01*
X15954819Y71833334D02*
X15907200Y71738096D01*
X15907200Y71738096D02*
X15859580Y71690477D01*
X21609580Y62107143D02*
X21657200Y62059524D01*
X21657200Y62059524D02*
X21704819Y61916667D01*
X21704819Y61916667D02*
X21704819Y61821429D01*
X21704819Y61821429D02*
X21657200Y61678572D01*
X21657200Y61678572D02*
X21561961Y61583334D01*
X21561961Y61583334D02*
X21466723Y61535715D01*
X21466723Y61535715D02*
X21276247Y61488096D01*
X21276247Y61488096D02*
X21133390Y61488096D01*
X21133390Y61488096D02*
X20942914Y61535715D01*
X20942914Y61535715D02*
X20847676Y61583334D01*
X20847676Y61583334D02*
X20752438Y61678572D01*
X20752438Y61678572D02*
X20704819Y61821429D01*
X20704819Y61821429D02*
X20704819Y61916667D01*
X20704819Y61916667D02*
X20752438Y62059524D01*
X20752438Y62059524D02*
X20800057Y62107143D01*
X21704819Y63059524D02*
X21704819Y62488096D01*
X21704819Y62773810D02*
X20704819Y62773810D01*
X20704819Y62773810D02*
X20847676Y62678572D01*
X20847676Y62678572D02*
X20942914Y62583334D01*
X20942914Y62583334D02*
X20990533Y62488096D01*
X20704819Y63964286D02*
X20704819Y63488096D01*
X20704819Y63488096D02*
X21181009Y63440477D01*
X21181009Y63440477D02*
X21133390Y63488096D01*
X21133390Y63488096D02*
X21085771Y63583334D01*
X21085771Y63583334D02*
X21085771Y63821429D01*
X21085771Y63821429D02*
X21133390Y63916667D01*
X21133390Y63916667D02*
X21181009Y63964286D01*
X21181009Y63964286D02*
X21276247Y64011905D01*
X21276247Y64011905D02*
X21514342Y64011905D01*
X21514342Y64011905D02*
X21609580Y63964286D01*
X21609580Y63964286D02*
X21657200Y63916667D01*
X21657200Y63916667D02*
X21704819Y63821429D01*
X21704819Y63821429D02*
X21704819Y63583334D01*
X21704819Y63583334D02*
X21657200Y63488096D01*
X21657200Y63488096D02*
X21609580Y63440477D01*
X51454819Y57238096D02*
X52264342Y57238096D01*
X52264342Y57238096D02*
X52359580Y57285715D01*
X52359580Y57285715D02*
X52407200Y57333334D01*
X52407200Y57333334D02*
X52454819Y57428572D01*
X52454819Y57428572D02*
X52454819Y57619048D01*
X52454819Y57619048D02*
X52407200Y57714286D01*
X52407200Y57714286D02*
X52359580Y57761905D01*
X52359580Y57761905D02*
X52264342Y57809524D01*
X52264342Y57809524D02*
X51454819Y57809524D01*
X52454819Y58809524D02*
X52454819Y58238096D01*
X52454819Y58523810D02*
X51454819Y58523810D01*
X51454819Y58523810D02*
X51597676Y58428572D01*
X51597676Y58428572D02*
X51692914Y58333334D01*
X51692914Y58333334D02*
X51740533Y58238096D01*
X15880952Y5545181D02*
X15880952Y4830896D01*
X15880952Y4830896D02*
X15833333Y4688039D01*
X15833333Y4688039D02*
X15738095Y4592800D01*
X15738095Y4592800D02*
X15595238Y4545181D01*
X15595238Y4545181D02*
X15500000Y4545181D01*
X16738095Y4592800D02*
X16642857Y4545181D01*
X16642857Y4545181D02*
X16452381Y4545181D01*
X16452381Y4545181D02*
X16357143Y4592800D01*
X16357143Y4592800D02*
X16309524Y4688039D01*
X16309524Y4688039D02*
X16309524Y5068991D01*
X16309524Y5068991D02*
X16357143Y5164229D01*
X16357143Y5164229D02*
X16452381Y5211848D01*
X16452381Y5211848D02*
X16642857Y5211848D01*
X16642857Y5211848D02*
X16738095Y5164229D01*
X16738095Y5164229D02*
X16785714Y5068991D01*
X16785714Y5068991D02*
X16785714Y4973753D01*
X16785714Y4973753D02*
X16309524Y4878515D01*
X17166667Y4592800D02*
X17261905Y4545181D01*
X17261905Y4545181D02*
X17452381Y4545181D01*
X17452381Y4545181D02*
X17547619Y4592800D01*
X17547619Y4592800D02*
X17595238Y4688039D01*
X17595238Y4688039D02*
X17595238Y4735658D01*
X17595238Y4735658D02*
X17547619Y4830896D01*
X17547619Y4830896D02*
X17452381Y4878515D01*
X17452381Y4878515D02*
X17309524Y4878515D01*
X17309524Y4878515D02*
X17214286Y4926134D01*
X17214286Y4926134D02*
X17166667Y5021372D01*
X17166667Y5021372D02*
X17166667Y5068991D01*
X17166667Y5068991D02*
X17214286Y5164229D01*
X17214286Y5164229D02*
X17309524Y5211848D01*
X17309524Y5211848D02*
X17452381Y5211848D01*
X17452381Y5211848D02*
X17547619Y5164229D01*
X18023810Y5211848D02*
X18023810Y4211848D01*
X18023810Y5164229D02*
X18119048Y5211848D01*
X18119048Y5211848D02*
X18309524Y5211848D01*
X18309524Y5211848D02*
X18404762Y5164229D01*
X18404762Y5164229D02*
X18452381Y5116610D01*
X18452381Y5116610D02*
X18500000Y5021372D01*
X18500000Y5021372D02*
X18500000Y4735658D01*
X18500000Y4735658D02*
X18452381Y4640420D01*
X18452381Y4640420D02*
X18404762Y4592800D01*
X18404762Y4592800D02*
X18309524Y4545181D01*
X18309524Y4545181D02*
X18119048Y4545181D01*
X18119048Y4545181D02*
X18023810Y4592800D01*
X18880953Y5449943D02*
X18928572Y5497562D01*
X18928572Y5497562D02*
X19023810Y5545181D01*
X19023810Y5545181D02*
X19261905Y5545181D01*
X19261905Y5545181D02*
X19357143Y5497562D01*
X19357143Y5497562D02*
X19404762Y5449943D01*
X19404762Y5449943D02*
X19452381Y5354705D01*
X19452381Y5354705D02*
X19452381Y5259467D01*
X19452381Y5259467D02*
X19404762Y5116610D01*
X19404762Y5116610D02*
X18833334Y4545181D01*
X18833334Y4545181D02*
X19452381Y4545181D01*
X32880952Y5345181D02*
X32880952Y4630896D01*
X32880952Y4630896D02*
X32833333Y4488039D01*
X32833333Y4488039D02*
X32738095Y4392800D01*
X32738095Y4392800D02*
X32595238Y4345181D01*
X32595238Y4345181D02*
X32500000Y4345181D01*
X33738095Y4392800D02*
X33642857Y4345181D01*
X33642857Y4345181D02*
X33452381Y4345181D01*
X33452381Y4345181D02*
X33357143Y4392800D01*
X33357143Y4392800D02*
X33309524Y4488039D01*
X33309524Y4488039D02*
X33309524Y4868991D01*
X33309524Y4868991D02*
X33357143Y4964229D01*
X33357143Y4964229D02*
X33452381Y5011848D01*
X33452381Y5011848D02*
X33642857Y5011848D01*
X33642857Y5011848D02*
X33738095Y4964229D01*
X33738095Y4964229D02*
X33785714Y4868991D01*
X33785714Y4868991D02*
X33785714Y4773753D01*
X33785714Y4773753D02*
X33309524Y4678515D01*
X34166667Y4392800D02*
X34261905Y4345181D01*
X34261905Y4345181D02*
X34452381Y4345181D01*
X34452381Y4345181D02*
X34547619Y4392800D01*
X34547619Y4392800D02*
X34595238Y4488039D01*
X34595238Y4488039D02*
X34595238Y4535658D01*
X34595238Y4535658D02*
X34547619Y4630896D01*
X34547619Y4630896D02*
X34452381Y4678515D01*
X34452381Y4678515D02*
X34309524Y4678515D01*
X34309524Y4678515D02*
X34214286Y4726134D01*
X34214286Y4726134D02*
X34166667Y4821372D01*
X34166667Y4821372D02*
X34166667Y4868991D01*
X34166667Y4868991D02*
X34214286Y4964229D01*
X34214286Y4964229D02*
X34309524Y5011848D01*
X34309524Y5011848D02*
X34452381Y5011848D01*
X34452381Y5011848D02*
X34547619Y4964229D01*
X35023810Y5011848D02*
X35023810Y4011848D01*
X35023810Y4964229D02*
X35119048Y5011848D01*
X35119048Y5011848D02*
X35309524Y5011848D01*
X35309524Y5011848D02*
X35404762Y4964229D01*
X35404762Y4964229D02*
X35452381Y4916610D01*
X35452381Y4916610D02*
X35500000Y4821372D01*
X35500000Y4821372D02*
X35500000Y4535658D01*
X35500000Y4535658D02*
X35452381Y4440420D01*
X35452381Y4440420D02*
X35404762Y4392800D01*
X35404762Y4392800D02*
X35309524Y4345181D01*
X35309524Y4345181D02*
X35119048Y4345181D01*
X35119048Y4345181D02*
X35023810Y4392800D01*
X36452381Y4345181D02*
X35880953Y4345181D01*
X36166667Y4345181D02*
X36166667Y5345181D01*
X36166667Y5345181D02*
X36071429Y5202324D01*
X36071429Y5202324D02*
X35976191Y5107086D01*
X35976191Y5107086D02*
X35880953Y5059467D01*
X55454819Y58008334D02*
X54978628Y57675001D01*
X55454819Y57436906D02*
X54454819Y57436906D01*
X54454819Y57436906D02*
X54454819Y57817858D01*
X54454819Y57817858D02*
X54502438Y57913096D01*
X54502438Y57913096D02*
X54550057Y57960715D01*
X54550057Y57960715D02*
X54645295Y58008334D01*
X54645295Y58008334D02*
X54788152Y58008334D01*
X54788152Y58008334D02*
X54883390Y57960715D01*
X54883390Y57960715D02*
X54931009Y57913096D01*
X54931009Y57913096D02*
X54978628Y57817858D01*
X54978628Y57817858D02*
X54978628Y57436906D01*
X55454819Y58960715D02*
X55454819Y58389287D01*
X55454819Y58675001D02*
X54454819Y58675001D01*
X54454819Y58675001D02*
X54597676Y58579763D01*
X54597676Y58579763D02*
X54692914Y58484525D01*
X54692914Y58484525D02*
X54740533Y58389287D01*
X45404761Y68199943D02*
X45309523Y68247562D01*
X45309523Y68247562D02*
X45214285Y68342800D01*
X45214285Y68342800D02*
X45071428Y68485658D01*
X45071428Y68485658D02*
X44976190Y68533277D01*
X44976190Y68533277D02*
X44880952Y68533277D01*
X44928571Y68295181D02*
X44833333Y68342800D01*
X44833333Y68342800D02*
X44738095Y68438039D01*
X44738095Y68438039D02*
X44690476Y68628515D01*
X44690476Y68628515D02*
X44690476Y68961848D01*
X44690476Y68961848D02*
X44738095Y69152324D01*
X44738095Y69152324D02*
X44833333Y69247562D01*
X44833333Y69247562D02*
X44928571Y69295181D01*
X44928571Y69295181D02*
X45119047Y69295181D01*
X45119047Y69295181D02*
X45214285Y69247562D01*
X45214285Y69247562D02*
X45309523Y69152324D01*
X45309523Y69152324D02*
X45357142Y68961848D01*
X45357142Y68961848D02*
X45357142Y68628515D01*
X45357142Y68628515D02*
X45309523Y68438039D01*
X45309523Y68438039D02*
X45214285Y68342800D01*
X45214285Y68342800D02*
X45119047Y68295181D01*
X45119047Y68295181D02*
X44928571Y68295181D01*
X45738095Y69199943D02*
X45785714Y69247562D01*
X45785714Y69247562D02*
X45880952Y69295181D01*
X45880952Y69295181D02*
X46119047Y69295181D01*
X46119047Y69295181D02*
X46214285Y69247562D01*
X46214285Y69247562D02*
X46261904Y69199943D01*
X46261904Y69199943D02*
X46309523Y69104705D01*
X46309523Y69104705D02*
X46309523Y69009467D01*
X46309523Y69009467D02*
X46261904Y68866610D01*
X46261904Y68866610D02*
X45690476Y68295181D01*
X45690476Y68295181D02*
X46309523Y68295181D01*
X52333819Y64433334D02*
X51857628Y64100001D01*
X52333819Y63861906D02*
X51333819Y63861906D01*
X51333819Y63861906D02*
X51333819Y64242858D01*
X51333819Y64242858D02*
X51381438Y64338096D01*
X51381438Y64338096D02*
X51429057Y64385715D01*
X51429057Y64385715D02*
X51524295Y64433334D01*
X51524295Y64433334D02*
X51667152Y64433334D01*
X51667152Y64433334D02*
X51762390Y64385715D01*
X51762390Y64385715D02*
X51810009Y64338096D01*
X51810009Y64338096D02*
X51857628Y64242858D01*
X51857628Y64242858D02*
X51857628Y63861906D01*
X51333819Y64766668D02*
X51333819Y65433334D01*
X51333819Y65433334D02*
X52333819Y65004763D01*
X33359580Y62082143D02*
X33407200Y62034524D01*
X33407200Y62034524D02*
X33454819Y61891667D01*
X33454819Y61891667D02*
X33454819Y61796429D01*
X33454819Y61796429D02*
X33407200Y61653572D01*
X33407200Y61653572D02*
X33311961Y61558334D01*
X33311961Y61558334D02*
X33216723Y61510715D01*
X33216723Y61510715D02*
X33026247Y61463096D01*
X33026247Y61463096D02*
X32883390Y61463096D01*
X32883390Y61463096D02*
X32692914Y61510715D01*
X32692914Y61510715D02*
X32597676Y61558334D01*
X32597676Y61558334D02*
X32502438Y61653572D01*
X32502438Y61653572D02*
X32454819Y61796429D01*
X32454819Y61796429D02*
X32454819Y61891667D01*
X32454819Y61891667D02*
X32502438Y62034524D01*
X32502438Y62034524D02*
X32550057Y62082143D01*
X33454819Y63034524D02*
X33454819Y62463096D01*
X33454819Y62748810D02*
X32454819Y62748810D01*
X32454819Y62748810D02*
X32597676Y62653572D01*
X32597676Y62653572D02*
X32692914Y62558334D01*
X32692914Y62558334D02*
X32740533Y62463096D01*
X32454819Y63367858D02*
X32454819Y63986905D01*
X32454819Y63986905D02*
X32835771Y63653572D01*
X32835771Y63653572D02*
X32835771Y63796429D01*
X32835771Y63796429D02*
X32883390Y63891667D01*
X32883390Y63891667D02*
X32931009Y63939286D01*
X32931009Y63939286D02*
X33026247Y63986905D01*
X33026247Y63986905D02*
X33264342Y63986905D01*
X33264342Y63986905D02*
X33359580Y63939286D01*
X33359580Y63939286D02*
X33407200Y63891667D01*
X33407200Y63891667D02*
X33454819Y63796429D01*
X33454819Y63796429D02*
X33454819Y63510715D01*
X33454819Y63510715D02*
X33407200Y63415477D01*
X33407200Y63415477D02*
X33359580Y63367858D01*
X45333333Y64545181D02*
X45000000Y65021372D01*
X44761905Y64545181D02*
X44761905Y65545181D01*
X44761905Y65545181D02*
X45142857Y65545181D01*
X45142857Y65545181D02*
X45238095Y65497562D01*
X45238095Y65497562D02*
X45285714Y65449943D01*
X45285714Y65449943D02*
X45333333Y65354705D01*
X45333333Y65354705D02*
X45333333Y65211848D01*
X45333333Y65211848D02*
X45285714Y65116610D01*
X45285714Y65116610D02*
X45238095Y65068991D01*
X45238095Y65068991D02*
X45142857Y65021372D01*
X45142857Y65021372D02*
X44761905Y65021372D01*
X46190476Y65545181D02*
X46000000Y65545181D01*
X46000000Y65545181D02*
X45904762Y65497562D01*
X45904762Y65497562D02*
X45857143Y65449943D01*
X45857143Y65449943D02*
X45761905Y65307086D01*
X45761905Y65307086D02*
X45714286Y65116610D01*
X45714286Y65116610D02*
X45714286Y64735658D01*
X45714286Y64735658D02*
X45761905Y64640420D01*
X45761905Y64640420D02*
X45809524Y64592800D01*
X45809524Y64592800D02*
X45904762Y64545181D01*
X45904762Y64545181D02*
X46095238Y64545181D01*
X46095238Y64545181D02*
X46190476Y64592800D01*
X46190476Y64592800D02*
X46238095Y64640420D01*
X46238095Y64640420D02*
X46285714Y64735658D01*
X46285714Y64735658D02*
X46285714Y64973753D01*
X46285714Y64973753D02*
X46238095Y65068991D01*
X46238095Y65068991D02*
X46190476Y65116610D01*
X46190476Y65116610D02*
X46095238Y65164229D01*
X46095238Y65164229D02*
X45904762Y65164229D01*
X45904762Y65164229D02*
X45809524Y65116610D01*
X45809524Y65116610D02*
X45761905Y65068991D01*
X45761905Y65068991D02*
X45714286Y64973753D01*
X39859580Y60333334D02*
X39907200Y60285715D01*
X39907200Y60285715D02*
X39954819Y60142858D01*
X39954819Y60142858D02*
X39954819Y60047620D01*
X39954819Y60047620D02*
X39907200Y59904763D01*
X39907200Y59904763D02*
X39811961Y59809525D01*
X39811961Y59809525D02*
X39716723Y59761906D01*
X39716723Y59761906D02*
X39526247Y59714287D01*
X39526247Y59714287D02*
X39383390Y59714287D01*
X39383390Y59714287D02*
X39192914Y59761906D01*
X39192914Y59761906D02*
X39097676Y59809525D01*
X39097676Y59809525D02*
X39002438Y59904763D01*
X39002438Y59904763D02*
X38954819Y60047620D01*
X38954819Y60047620D02*
X38954819Y60142858D01*
X38954819Y60142858D02*
X39002438Y60285715D01*
X39002438Y60285715D02*
X39050057Y60333334D01*
X39383390Y60904763D02*
X39335771Y60809525D01*
X39335771Y60809525D02*
X39288152Y60761906D01*
X39288152Y60761906D02*
X39192914Y60714287D01*
X39192914Y60714287D02*
X39145295Y60714287D01*
X39145295Y60714287D02*
X39050057Y60761906D01*
X39050057Y60761906D02*
X39002438Y60809525D01*
X39002438Y60809525D02*
X38954819Y60904763D01*
X38954819Y60904763D02*
X38954819Y61095239D01*
X38954819Y61095239D02*
X39002438Y61190477D01*
X39002438Y61190477D02*
X39050057Y61238096D01*
X39050057Y61238096D02*
X39145295Y61285715D01*
X39145295Y61285715D02*
X39192914Y61285715D01*
X39192914Y61285715D02*
X39288152Y61238096D01*
X39288152Y61238096D02*
X39335771Y61190477D01*
X39335771Y61190477D02*
X39383390Y61095239D01*
X39383390Y61095239D02*
X39383390Y60904763D01*
X39383390Y60904763D02*
X39431009Y60809525D01*
X39431009Y60809525D02*
X39478628Y60761906D01*
X39478628Y60761906D02*
X39573866Y60714287D01*
X39573866Y60714287D02*
X39764342Y60714287D01*
X39764342Y60714287D02*
X39859580Y60761906D01*
X39859580Y60761906D02*
X39907200Y60809525D01*
X39907200Y60809525D02*
X39954819Y60904763D01*
X39954819Y60904763D02*
X39954819Y61095239D01*
X39954819Y61095239D02*
X39907200Y61190477D01*
X39907200Y61190477D02*
X39859580Y61238096D01*
X39859580Y61238096D02*
X39764342Y61285715D01*
X39764342Y61285715D02*
X39573866Y61285715D01*
X39573866Y61285715D02*
X39478628Y61238096D01*
X39478628Y61238096D02*
X39431009Y61190477D01*
X39431009Y61190477D02*
X39383390Y61095239D01*
X1233333Y42445181D02*
X1233333Y41730896D01*
X1233333Y41730896D02*
X1185714Y41588039D01*
X1185714Y41588039D02*
X1090476Y41492800D01*
X1090476Y41492800D02*
X947619Y41445181D01*
X947619Y41445181D02*
X852381Y41445181D01*
X1471429Y41349943D02*
X2233333Y41349943D01*
X2471429Y41445181D02*
X2471429Y42445181D01*
X2471429Y42445181D02*
X3042857Y41445181D01*
X3042857Y41445181D02*
X3042857Y42445181D01*
X3852381Y41968991D02*
X3519048Y41968991D01*
X3519048Y41445181D02*
X3519048Y42445181D01*
X3519048Y42445181D02*
X3995238Y42445181D01*
X4947619Y41540420D02*
X4900000Y41492800D01*
X4900000Y41492800D02*
X4757143Y41445181D01*
X4757143Y41445181D02*
X4661905Y41445181D01*
X4661905Y41445181D02*
X4519048Y41492800D01*
X4519048Y41492800D02*
X4423810Y41588039D01*
X4423810Y41588039D02*
X4376191Y41683277D01*
X4376191Y41683277D02*
X4328572Y41873753D01*
X4328572Y41873753D02*
X4328572Y42016610D01*
X4328572Y42016610D02*
X4376191Y42207086D01*
X4376191Y42207086D02*
X4423810Y42302324D01*
X4423810Y42302324D02*
X4519048Y42397562D01*
X4519048Y42397562D02*
X4661905Y42445181D01*
X4661905Y42445181D02*
X4757143Y42445181D01*
X4757143Y42445181D02*
X4900000Y42397562D01*
X4900000Y42397562D02*
X4947619Y42349943D01*
X5900000Y41445181D02*
X5328572Y41445181D01*
X5614286Y41445181D02*
X5614286Y42445181D01*
X5614286Y42445181D02*
X5519048Y42302324D01*
X5519048Y42302324D02*
X5423810Y42207086D01*
X5423810Y42207086D02*
X5328572Y42159467D01*
X4011904Y3295181D02*
X4011904Y2580896D01*
X4011904Y2580896D02*
X3964285Y2438039D01*
X3964285Y2438039D02*
X3869047Y2342800D01*
X3869047Y2342800D02*
X3726190Y2295181D01*
X3726190Y2295181D02*
X3630952Y2295181D01*
X4250000Y2199943D02*
X5011904Y2199943D01*
X5583333Y2818991D02*
X5726190Y2771372D01*
X5726190Y2771372D02*
X5773809Y2723753D01*
X5773809Y2723753D02*
X5821428Y2628515D01*
X5821428Y2628515D02*
X5821428Y2485658D01*
X5821428Y2485658D02*
X5773809Y2390420D01*
X5773809Y2390420D02*
X5726190Y2342800D01*
X5726190Y2342800D02*
X5630952Y2295181D01*
X5630952Y2295181D02*
X5250000Y2295181D01*
X5250000Y2295181D02*
X5250000Y3295181D01*
X5250000Y3295181D02*
X5583333Y3295181D01*
X5583333Y3295181D02*
X5678571Y3247562D01*
X5678571Y3247562D02*
X5726190Y3199943D01*
X5726190Y3199943D02*
X5773809Y3104705D01*
X5773809Y3104705D02*
X5773809Y3009467D01*
X5773809Y3009467D02*
X5726190Y2914229D01*
X5726190Y2914229D02*
X5678571Y2866610D01*
X5678571Y2866610D02*
X5583333Y2818991D01*
X5583333Y2818991D02*
X5250000Y2818991D01*
X6250000Y2295181D02*
X6250000Y3295181D01*
X6250000Y3295181D02*
X6583333Y2580896D01*
X6583333Y2580896D02*
X6916666Y3295181D01*
X6916666Y3295181D02*
X6916666Y2295181D01*
X7392857Y2818991D02*
X7726190Y2818991D01*
X7869047Y2295181D02*
X7392857Y2295181D01*
X7392857Y2295181D02*
X7392857Y3295181D01*
X7392857Y3295181D02*
X7869047Y3295181D01*
X8821428Y2295181D02*
X8250000Y2295181D01*
X8535714Y2295181D02*
X8535714Y3295181D01*
X8535714Y3295181D02*
X8440476Y3152324D01*
X8440476Y3152324D02*
X8345238Y3057086D01*
X8345238Y3057086D02*
X8250000Y3009467D01*
X45254819Y54157144D02*
X44254819Y54157144D01*
X44254819Y54157144D02*
X44254819Y54538096D01*
X44254819Y54538096D02*
X44302438Y54633334D01*
X44302438Y54633334D02*
X44350057Y54680953D01*
X44350057Y54680953D02*
X44445295Y54728572D01*
X44445295Y54728572D02*
X44588152Y54728572D01*
X44588152Y54728572D02*
X44683390Y54680953D01*
X44683390Y54680953D02*
X44731009Y54633334D01*
X44731009Y54633334D02*
X44778628Y54538096D01*
X44778628Y54538096D02*
X44778628Y54157144D01*
X45254819Y55728572D02*
X44778628Y55395239D01*
X45254819Y55157144D02*
X44254819Y55157144D01*
X44254819Y55157144D02*
X44254819Y55538096D01*
X44254819Y55538096D02*
X44302438Y55633334D01*
X44302438Y55633334D02*
X44350057Y55680953D01*
X44350057Y55680953D02*
X44445295Y55728572D01*
X44445295Y55728572D02*
X44588152Y55728572D01*
X44588152Y55728572D02*
X44683390Y55680953D01*
X44683390Y55680953D02*
X44731009Y55633334D01*
X44731009Y55633334D02*
X44778628Y55538096D01*
X44778628Y55538096D02*
X44778628Y55157144D01*
X44731009Y56157144D02*
X44731009Y56490477D01*
X45254819Y56633334D02*
X45254819Y56157144D01*
X45254819Y56157144D02*
X44254819Y56157144D01*
X44254819Y56157144D02*
X44254819Y56633334D01*
X44254819Y56919049D02*
X45254819Y57252382D01*
X45254819Y57252382D02*
X44254819Y57585715D01*
X44302438Y58442858D02*
X44254819Y58347620D01*
X44254819Y58347620D02*
X44254819Y58204763D01*
X44254819Y58204763D02*
X44302438Y58061906D01*
X44302438Y58061906D02*
X44397676Y57966668D01*
X44397676Y57966668D02*
X44492914Y57919049D01*
X44492914Y57919049D02*
X44683390Y57871430D01*
X44683390Y57871430D02*
X44826247Y57871430D01*
X44826247Y57871430D02*
X45016723Y57919049D01*
X45016723Y57919049D02*
X45111961Y57966668D01*
X45111961Y57966668D02*
X45207200Y58061906D01*
X45207200Y58061906D02*
X45254819Y58204763D01*
X45254819Y58204763D02*
X45254819Y58300001D01*
X45254819Y58300001D02*
X45207200Y58442858D01*
X45207200Y58442858D02*
X45159580Y58490477D01*
X45159580Y58490477D02*
X44826247Y58490477D01*
X44826247Y58490477D02*
X44826247Y58300001D01*
X45254819Y58919049D02*
X44254819Y58919049D01*
X44731009Y58919049D02*
X44731009Y59490477D01*
X45254819Y59490477D02*
X44254819Y59490477D01*
X45254819Y60490477D02*
X45254819Y59919049D01*
X45254819Y60204763D02*
X44254819Y60204763D01*
X44254819Y60204763D02*
X44397676Y60109525D01*
X44397676Y60109525D02*
X44492914Y60014287D01*
X44492914Y60014287D02*
X44540533Y59919049D01*
X54166666Y52925181D02*
X54166666Y52210896D01*
X54166666Y52210896D02*
X54119047Y52068039D01*
X54119047Y52068039D02*
X54023809Y51972800D01*
X54023809Y51972800D02*
X53880952Y51925181D01*
X53880952Y51925181D02*
X53785714Y51925181D01*
X55071428Y52925181D02*
X54880952Y52925181D01*
X54880952Y52925181D02*
X54785714Y52877562D01*
X54785714Y52877562D02*
X54738095Y52829943D01*
X54738095Y52829943D02*
X54642857Y52687086D01*
X54642857Y52687086D02*
X54595238Y52496610D01*
X54595238Y52496610D02*
X54595238Y52115658D01*
X54595238Y52115658D02*
X54642857Y52020420D01*
X54642857Y52020420D02*
X54690476Y51972800D01*
X54690476Y51972800D02*
X54785714Y51925181D01*
X54785714Y51925181D02*
X54976190Y51925181D01*
X54976190Y51925181D02*
X55071428Y51972800D01*
X55071428Y51972800D02*
X55119047Y52020420D01*
X55119047Y52020420D02*
X55166666Y52115658D01*
X55166666Y52115658D02*
X55166666Y52353753D01*
X55166666Y52353753D02*
X55119047Y52448991D01*
X55119047Y52448991D02*
X55071428Y52496610D01*
X55071428Y52496610D02*
X54976190Y52544229D01*
X54976190Y52544229D02*
X54785714Y52544229D01*
X54785714Y52544229D02*
X54690476Y52496610D01*
X54690476Y52496610D02*
X54642857Y52448991D01*
X54642857Y52448991D02*
X54595238Y52353753D01*
X9957142Y12045181D02*
X9623809Y12521372D01*
X9385714Y12045181D02*
X9385714Y13045181D01*
X9385714Y13045181D02*
X9766666Y13045181D01*
X9766666Y13045181D02*
X9861904Y12997562D01*
X9861904Y12997562D02*
X9909523Y12949943D01*
X9909523Y12949943D02*
X9957142Y12854705D01*
X9957142Y12854705D02*
X9957142Y12711848D01*
X9957142Y12711848D02*
X9909523Y12616610D01*
X9909523Y12616610D02*
X9861904Y12568991D01*
X9861904Y12568991D02*
X9766666Y12521372D01*
X9766666Y12521372D02*
X9385714Y12521372D01*
X10909523Y12045181D02*
X10338095Y12045181D01*
X10623809Y12045181D02*
X10623809Y13045181D01*
X10623809Y13045181D02*
X10528571Y12902324D01*
X10528571Y12902324D02*
X10433333Y12807086D01*
X10433333Y12807086D02*
X10338095Y12759467D01*
X11766666Y12711848D02*
X11766666Y12045181D01*
X11528571Y13092800D02*
X11290476Y12378515D01*
X11290476Y12378515D02*
X11909523Y12378515D01*
X29454819Y59833334D02*
X29454819Y59357144D01*
X29454819Y59357144D02*
X28454819Y59357144D01*
X29454819Y60690477D02*
X29454819Y60119049D01*
X29454819Y60404763D02*
X28454819Y60404763D01*
X28454819Y60404763D02*
X28597676Y60309525D01*
X28597676Y60309525D02*
X28692914Y60214287D01*
X28692914Y60214287D02*
X28740533Y60119049D01*
X9957142Y6645181D02*
X9623809Y7121372D01*
X9385714Y6645181D02*
X9385714Y7645181D01*
X9385714Y7645181D02*
X9766666Y7645181D01*
X9766666Y7645181D02*
X9861904Y7597562D01*
X9861904Y7597562D02*
X9909523Y7549943D01*
X9909523Y7549943D02*
X9957142Y7454705D01*
X9957142Y7454705D02*
X9957142Y7311848D01*
X9957142Y7311848D02*
X9909523Y7216610D01*
X9909523Y7216610D02*
X9861904Y7168991D01*
X9861904Y7168991D02*
X9766666Y7121372D01*
X9766666Y7121372D02*
X9385714Y7121372D01*
X10909523Y6645181D02*
X10338095Y6645181D01*
X10623809Y6645181D02*
X10623809Y7645181D01*
X10623809Y7645181D02*
X10528571Y7502324D01*
X10528571Y7502324D02*
X10433333Y7407086D01*
X10433333Y7407086D02*
X10338095Y7359467D01*
X11242857Y7645181D02*
X11861904Y7645181D01*
X11861904Y7645181D02*
X11528571Y7264229D01*
X11528571Y7264229D02*
X11671428Y7264229D01*
X11671428Y7264229D02*
X11766666Y7216610D01*
X11766666Y7216610D02*
X11814285Y7168991D01*
X11814285Y7168991D02*
X11861904Y7073753D01*
X11861904Y7073753D02*
X11861904Y6835658D01*
X11861904Y6835658D02*
X11814285Y6740420D01*
X11814285Y6740420D02*
X11766666Y6692800D01*
X11766666Y6692800D02*
X11671428Y6645181D01*
X11671428Y6645181D02*
X11385714Y6645181D01*
X11385714Y6645181D02*
X11290476Y6692800D01*
X11290476Y6692800D02*
X11242857Y6740420D01*
X54206666Y24545181D02*
X54206666Y23830896D01*
X54206666Y23830896D02*
X54159047Y23688039D01*
X54159047Y23688039D02*
X54063809Y23592800D01*
X54063809Y23592800D02*
X53920952Y23545181D01*
X53920952Y23545181D02*
X53825714Y23545181D01*
X54635238Y24449943D02*
X54682857Y24497562D01*
X54682857Y24497562D02*
X54778095Y24545181D01*
X54778095Y24545181D02*
X55016190Y24545181D01*
X55016190Y24545181D02*
X55111428Y24497562D01*
X55111428Y24497562D02*
X55159047Y24449943D01*
X55159047Y24449943D02*
X55206666Y24354705D01*
X55206666Y24354705D02*
X55206666Y24259467D01*
X55206666Y24259467D02*
X55159047Y24116610D01*
X55159047Y24116610D02*
X54587619Y23545181D01*
X54587619Y23545181D02*
X55206666Y23545181D01*
X24109580Y56833334D02*
X24157200Y56785715D01*
X24157200Y56785715D02*
X24204819Y56642858D01*
X24204819Y56642858D02*
X24204819Y56547620D01*
X24204819Y56547620D02*
X24157200Y56404763D01*
X24157200Y56404763D02*
X24061961Y56309525D01*
X24061961Y56309525D02*
X23966723Y56261906D01*
X23966723Y56261906D02*
X23776247Y56214287D01*
X23776247Y56214287D02*
X23633390Y56214287D01*
X23633390Y56214287D02*
X23442914Y56261906D01*
X23442914Y56261906D02*
X23347676Y56309525D01*
X23347676Y56309525D02*
X23252438Y56404763D01*
X23252438Y56404763D02*
X23204819Y56547620D01*
X23204819Y56547620D02*
X23204819Y56642858D01*
X23204819Y56642858D02*
X23252438Y56785715D01*
X23252438Y56785715D02*
X23300057Y56833334D01*
X23300057Y57214287D02*
X23252438Y57261906D01*
X23252438Y57261906D02*
X23204819Y57357144D01*
X23204819Y57357144D02*
X23204819Y57595239D01*
X23204819Y57595239D02*
X23252438Y57690477D01*
X23252438Y57690477D02*
X23300057Y57738096D01*
X23300057Y57738096D02*
X23395295Y57785715D01*
X23395295Y57785715D02*
X23490533Y57785715D01*
X23490533Y57785715D02*
X23633390Y57738096D01*
X23633390Y57738096D02*
X24204819Y57166668D01*
X24204819Y57166668D02*
X24204819Y57785715D01*
X37954819Y53011906D02*
X36954819Y53011906D01*
X36954819Y53011906D02*
X36954819Y53250001D01*
X36954819Y53250001D02*
X37002438Y53392858D01*
X37002438Y53392858D02*
X37097676Y53488096D01*
X37097676Y53488096D02*
X37192914Y53535715D01*
X37192914Y53535715D02*
X37383390Y53583334D01*
X37383390Y53583334D02*
X37526247Y53583334D01*
X37526247Y53583334D02*
X37716723Y53535715D01*
X37716723Y53535715D02*
X37811961Y53488096D01*
X37811961Y53488096D02*
X37907200Y53392858D01*
X37907200Y53392858D02*
X37954819Y53250001D01*
X37954819Y53250001D02*
X37954819Y53011906D01*
X36954819Y53916668D02*
X36954819Y54535715D01*
X36954819Y54535715D02*
X37335771Y54202382D01*
X37335771Y54202382D02*
X37335771Y54345239D01*
X37335771Y54345239D02*
X37383390Y54440477D01*
X37383390Y54440477D02*
X37431009Y54488096D01*
X37431009Y54488096D02*
X37526247Y54535715D01*
X37526247Y54535715D02*
X37764342Y54535715D01*
X37764342Y54535715D02*
X37859580Y54488096D01*
X37859580Y54488096D02*
X37907200Y54440477D01*
X37907200Y54440477D02*
X37954819Y54345239D01*
X37954819Y54345239D02*
X37954819Y54059525D01*
X37954819Y54059525D02*
X37907200Y53964287D01*
X37907200Y53964287D02*
X37859580Y53916668D01*
X30359580Y63058334D02*
X30407200Y63010715D01*
X30407200Y63010715D02*
X30454819Y62867858D01*
X30454819Y62867858D02*
X30454819Y62772620D01*
X30454819Y62772620D02*
X30407200Y62629763D01*
X30407200Y62629763D02*
X30311961Y62534525D01*
X30311961Y62534525D02*
X30216723Y62486906D01*
X30216723Y62486906D02*
X30026247Y62439287D01*
X30026247Y62439287D02*
X29883390Y62439287D01*
X29883390Y62439287D02*
X29692914Y62486906D01*
X29692914Y62486906D02*
X29597676Y62534525D01*
X29597676Y62534525D02*
X29502438Y62629763D01*
X29502438Y62629763D02*
X29454819Y62772620D01*
X29454819Y62772620D02*
X29454819Y62867858D01*
X29454819Y62867858D02*
X29502438Y63010715D01*
X29502438Y63010715D02*
X29550057Y63058334D01*
X30454819Y63534525D02*
X30454819Y63725001D01*
X30454819Y63725001D02*
X30407200Y63820239D01*
X30407200Y63820239D02*
X30359580Y63867858D01*
X30359580Y63867858D02*
X30216723Y63963096D01*
X30216723Y63963096D02*
X30026247Y64010715D01*
X30026247Y64010715D02*
X29645295Y64010715D01*
X29645295Y64010715D02*
X29550057Y63963096D01*
X29550057Y63963096D02*
X29502438Y63915477D01*
X29502438Y63915477D02*
X29454819Y63820239D01*
X29454819Y63820239D02*
X29454819Y63629763D01*
X29454819Y63629763D02*
X29502438Y63534525D01*
X29502438Y63534525D02*
X29550057Y63486906D01*
X29550057Y63486906D02*
X29645295Y63439287D01*
X29645295Y63439287D02*
X29883390Y63439287D01*
X29883390Y63439287D02*
X29978628Y63486906D01*
X29978628Y63486906D02*
X30026247Y63534525D01*
X30026247Y63534525D02*
X30073866Y63629763D01*
X30073866Y63629763D02*
X30073866Y63820239D01*
X30073866Y63820239D02*
X30026247Y63915477D01*
X30026247Y63915477D02*
X29978628Y63963096D01*
X29978628Y63963096D02*
X29883390Y64010715D01*
X32954819Y53011906D02*
X31954819Y53011906D01*
X31954819Y53011906D02*
X31954819Y53250001D01*
X31954819Y53250001D02*
X32002438Y53392858D01*
X32002438Y53392858D02*
X32097676Y53488096D01*
X32097676Y53488096D02*
X32192914Y53535715D01*
X32192914Y53535715D02*
X32383390Y53583334D01*
X32383390Y53583334D02*
X32526247Y53583334D01*
X32526247Y53583334D02*
X32716723Y53535715D01*
X32716723Y53535715D02*
X32811961Y53488096D01*
X32811961Y53488096D02*
X32907200Y53392858D01*
X32907200Y53392858D02*
X32954819Y53250001D01*
X32954819Y53250001D02*
X32954819Y53011906D01*
X32050057Y53964287D02*
X32002438Y54011906D01*
X32002438Y54011906D02*
X31954819Y54107144D01*
X31954819Y54107144D02*
X31954819Y54345239D01*
X31954819Y54345239D02*
X32002438Y54440477D01*
X32002438Y54440477D02*
X32050057Y54488096D01*
X32050057Y54488096D02*
X32145295Y54535715D01*
X32145295Y54535715D02*
X32240533Y54535715D01*
X32240533Y54535715D02*
X32383390Y54488096D01*
X32383390Y54488096D02*
X32954819Y53916668D01*
X32954819Y53916668D02*
X32954819Y54535715D01*
X19804819Y62908334D02*
X19328628Y62575001D01*
X19804819Y62336906D02*
X18804819Y62336906D01*
X18804819Y62336906D02*
X18804819Y62717858D01*
X18804819Y62717858D02*
X18852438Y62813096D01*
X18852438Y62813096D02*
X18900057Y62860715D01*
X18900057Y62860715D02*
X18995295Y62908334D01*
X18995295Y62908334D02*
X19138152Y62908334D01*
X19138152Y62908334D02*
X19233390Y62860715D01*
X19233390Y62860715D02*
X19281009Y62813096D01*
X19281009Y62813096D02*
X19328628Y62717858D01*
X19328628Y62717858D02*
X19328628Y62336906D01*
X18900057Y63289287D02*
X18852438Y63336906D01*
X18852438Y63336906D02*
X18804819Y63432144D01*
X18804819Y63432144D02*
X18804819Y63670239D01*
X18804819Y63670239D02*
X18852438Y63765477D01*
X18852438Y63765477D02*
X18900057Y63813096D01*
X18900057Y63813096D02*
X18995295Y63860715D01*
X18995295Y63860715D02*
X19090533Y63860715D01*
X19090533Y63860715D02*
X19233390Y63813096D01*
X19233390Y63813096D02*
X19804819Y63241668D01*
X19804819Y63241668D02*
X19804819Y63860715D01*
X28954819Y62082143D02*
X28478628Y61748810D01*
X28954819Y61510715D02*
X27954819Y61510715D01*
X27954819Y61510715D02*
X27954819Y61891667D01*
X27954819Y61891667D02*
X28002438Y61986905D01*
X28002438Y61986905D02*
X28050057Y62034524D01*
X28050057Y62034524D02*
X28145295Y62082143D01*
X28145295Y62082143D02*
X28288152Y62082143D01*
X28288152Y62082143D02*
X28383390Y62034524D01*
X28383390Y62034524D02*
X28431009Y61986905D01*
X28431009Y61986905D02*
X28478628Y61891667D01*
X28478628Y61891667D02*
X28478628Y61510715D01*
X28954819Y63034524D02*
X28954819Y62463096D01*
X28954819Y62748810D02*
X27954819Y62748810D01*
X27954819Y62748810D02*
X28097676Y62653572D01*
X28097676Y62653572D02*
X28192914Y62558334D01*
X28192914Y62558334D02*
X28240533Y62463096D01*
X27954819Y63939286D02*
X27954819Y63463096D01*
X27954819Y63463096D02*
X28431009Y63415477D01*
X28431009Y63415477D02*
X28383390Y63463096D01*
X28383390Y63463096D02*
X28335771Y63558334D01*
X28335771Y63558334D02*
X28335771Y63796429D01*
X28335771Y63796429D02*
X28383390Y63891667D01*
X28383390Y63891667D02*
X28431009Y63939286D01*
X28431009Y63939286D02*
X28526247Y63986905D01*
X28526247Y63986905D02*
X28764342Y63986905D01*
X28764342Y63986905D02*
X28859580Y63939286D01*
X28859580Y63939286D02*
X28907200Y63891667D01*
X28907200Y63891667D02*
X28954819Y63796429D01*
X28954819Y63796429D02*
X28954819Y63558334D01*
X28954819Y63558334D02*
X28907200Y63463096D01*
X28907200Y63463096D02*
X28859580Y63415477D01*
X17859580Y70357143D02*
X17907200Y70309524D01*
X17907200Y70309524D02*
X17954819Y70166667D01*
X17954819Y70166667D02*
X17954819Y70071429D01*
X17954819Y70071429D02*
X17907200Y69928572D01*
X17907200Y69928572D02*
X17811961Y69833334D01*
X17811961Y69833334D02*
X17716723Y69785715D01*
X17716723Y69785715D02*
X17526247Y69738096D01*
X17526247Y69738096D02*
X17383390Y69738096D01*
X17383390Y69738096D02*
X17192914Y69785715D01*
X17192914Y69785715D02*
X17097676Y69833334D01*
X17097676Y69833334D02*
X17002438Y69928572D01*
X17002438Y69928572D02*
X16954819Y70071429D01*
X16954819Y70071429D02*
X16954819Y70166667D01*
X16954819Y70166667D02*
X17002438Y70309524D01*
X17002438Y70309524D02*
X17050057Y70357143D01*
X17050057Y70738096D02*
X17002438Y70785715D01*
X17002438Y70785715D02*
X16954819Y70880953D01*
X16954819Y70880953D02*
X16954819Y71119048D01*
X16954819Y71119048D02*
X17002438Y71214286D01*
X17002438Y71214286D02*
X17050057Y71261905D01*
X17050057Y71261905D02*
X17145295Y71309524D01*
X17145295Y71309524D02*
X17240533Y71309524D01*
X17240533Y71309524D02*
X17383390Y71261905D01*
X17383390Y71261905D02*
X17954819Y70690477D01*
X17954819Y70690477D02*
X17954819Y71309524D01*
X16954819Y71928572D02*
X16954819Y72023810D01*
X16954819Y72023810D02*
X17002438Y72119048D01*
X17002438Y72119048D02*
X17050057Y72166667D01*
X17050057Y72166667D02*
X17145295Y72214286D01*
X17145295Y72214286D02*
X17335771Y72261905D01*
X17335771Y72261905D02*
X17573866Y72261905D01*
X17573866Y72261905D02*
X17764342Y72214286D01*
X17764342Y72214286D02*
X17859580Y72166667D01*
X17859580Y72166667D02*
X17907200Y72119048D01*
X17907200Y72119048D02*
X17954819Y72023810D01*
X17954819Y72023810D02*
X17954819Y71928572D01*
X17954819Y71928572D02*
X17907200Y71833334D01*
X17907200Y71833334D02*
X17859580Y71785715D01*
X17859580Y71785715D02*
X17764342Y71738096D01*
X17764342Y71738096D02*
X17573866Y71690477D01*
X17573866Y71690477D02*
X17335771Y71690477D01*
X17335771Y71690477D02*
X17145295Y71738096D01*
X17145295Y71738096D02*
X17050057Y71785715D01*
X17050057Y71785715D02*
X17002438Y71833334D01*
X17002438Y71833334D02*
X16954819Y71928572D01*
X34859580Y62082143D02*
X34907200Y62034524D01*
X34907200Y62034524D02*
X34954819Y61891667D01*
X34954819Y61891667D02*
X34954819Y61796429D01*
X34954819Y61796429D02*
X34907200Y61653572D01*
X34907200Y61653572D02*
X34811961Y61558334D01*
X34811961Y61558334D02*
X34716723Y61510715D01*
X34716723Y61510715D02*
X34526247Y61463096D01*
X34526247Y61463096D02*
X34383390Y61463096D01*
X34383390Y61463096D02*
X34192914Y61510715D01*
X34192914Y61510715D02*
X34097676Y61558334D01*
X34097676Y61558334D02*
X34002438Y61653572D01*
X34002438Y61653572D02*
X33954819Y61796429D01*
X33954819Y61796429D02*
X33954819Y61891667D01*
X33954819Y61891667D02*
X34002438Y62034524D01*
X34002438Y62034524D02*
X34050057Y62082143D01*
X34954819Y63034524D02*
X34954819Y62463096D01*
X34954819Y62748810D02*
X33954819Y62748810D01*
X33954819Y62748810D02*
X34097676Y62653572D01*
X34097676Y62653572D02*
X34192914Y62558334D01*
X34192914Y62558334D02*
X34240533Y62463096D01*
X33954819Y63653572D02*
X33954819Y63748810D01*
X33954819Y63748810D02*
X34002438Y63844048D01*
X34002438Y63844048D02*
X34050057Y63891667D01*
X34050057Y63891667D02*
X34145295Y63939286D01*
X34145295Y63939286D02*
X34335771Y63986905D01*
X34335771Y63986905D02*
X34573866Y63986905D01*
X34573866Y63986905D02*
X34764342Y63939286D01*
X34764342Y63939286D02*
X34859580Y63891667D01*
X34859580Y63891667D02*
X34907200Y63844048D01*
X34907200Y63844048D02*
X34954819Y63748810D01*
X34954819Y63748810D02*
X34954819Y63653572D01*
X34954819Y63653572D02*
X34907200Y63558334D01*
X34907200Y63558334D02*
X34859580Y63510715D01*
X34859580Y63510715D02*
X34764342Y63463096D01*
X34764342Y63463096D02*
X34573866Y63415477D01*
X34573866Y63415477D02*
X34335771Y63415477D01*
X34335771Y63415477D02*
X34145295Y63463096D01*
X34145295Y63463096D02*
X34050057Y63510715D01*
X34050057Y63510715D02*
X34002438Y63558334D01*
X34002438Y63558334D02*
X33954819Y63653572D01*
X23109580Y62107143D02*
X23157200Y62059524D01*
X23157200Y62059524D02*
X23204819Y61916667D01*
X23204819Y61916667D02*
X23204819Y61821429D01*
X23204819Y61821429D02*
X23157200Y61678572D01*
X23157200Y61678572D02*
X23061961Y61583334D01*
X23061961Y61583334D02*
X22966723Y61535715D01*
X22966723Y61535715D02*
X22776247Y61488096D01*
X22776247Y61488096D02*
X22633390Y61488096D01*
X22633390Y61488096D02*
X22442914Y61535715D01*
X22442914Y61535715D02*
X22347676Y61583334D01*
X22347676Y61583334D02*
X22252438Y61678572D01*
X22252438Y61678572D02*
X22204819Y61821429D01*
X22204819Y61821429D02*
X22204819Y61916667D01*
X22204819Y61916667D02*
X22252438Y62059524D01*
X22252438Y62059524D02*
X22300057Y62107143D01*
X23204819Y63059524D02*
X23204819Y62488096D01*
X23204819Y62773810D02*
X22204819Y62773810D01*
X22204819Y62773810D02*
X22347676Y62678572D01*
X22347676Y62678572D02*
X22442914Y62583334D01*
X22442914Y62583334D02*
X22490533Y62488096D01*
X22300057Y63440477D02*
X22252438Y63488096D01*
X22252438Y63488096D02*
X22204819Y63583334D01*
X22204819Y63583334D02*
X22204819Y63821429D01*
X22204819Y63821429D02*
X22252438Y63916667D01*
X22252438Y63916667D02*
X22300057Y63964286D01*
X22300057Y63964286D02*
X22395295Y64011905D01*
X22395295Y64011905D02*
X22490533Y64011905D01*
X22490533Y64011905D02*
X22633390Y63964286D01*
X22633390Y63964286D02*
X23204819Y63392858D01*
X23204819Y63392858D02*
X23204819Y64011905D01*
X42854819Y62276191D02*
X41854819Y62276191D01*
X41854819Y62276191D02*
X41854819Y62657143D01*
X41854819Y62657143D02*
X41902438Y62752381D01*
X41902438Y62752381D02*
X41950057Y62800000D01*
X41950057Y62800000D02*
X42045295Y62847619D01*
X42045295Y62847619D02*
X42188152Y62847619D01*
X42188152Y62847619D02*
X42283390Y62800000D01*
X42283390Y62800000D02*
X42331009Y62752381D01*
X42331009Y62752381D02*
X42378628Y62657143D01*
X42378628Y62657143D02*
X42378628Y62276191D01*
X42854819Y63847619D02*
X42378628Y63514286D01*
X42854819Y63276191D02*
X41854819Y63276191D01*
X41854819Y63276191D02*
X41854819Y63657143D01*
X41854819Y63657143D02*
X41902438Y63752381D01*
X41902438Y63752381D02*
X41950057Y63800000D01*
X41950057Y63800000D02*
X42045295Y63847619D01*
X42045295Y63847619D02*
X42188152Y63847619D01*
X42188152Y63847619D02*
X42283390Y63800000D01*
X42283390Y63800000D02*
X42331009Y63752381D01*
X42331009Y63752381D02*
X42378628Y63657143D01*
X42378628Y63657143D02*
X42378628Y63276191D01*
X42331009Y64276191D02*
X42331009Y64609524D01*
X42854819Y64752381D02*
X42854819Y64276191D01*
X42854819Y64276191D02*
X41854819Y64276191D01*
X41854819Y64276191D02*
X41854819Y64752381D01*
X41854819Y65038096D02*
X42854819Y65371429D01*
X42854819Y65371429D02*
X41854819Y65704762D01*
X41902438Y66561905D02*
X41854819Y66466667D01*
X41854819Y66466667D02*
X41854819Y66323810D01*
X41854819Y66323810D02*
X41902438Y66180953D01*
X41902438Y66180953D02*
X41997676Y66085715D01*
X41997676Y66085715D02*
X42092914Y66038096D01*
X42092914Y66038096D02*
X42283390Y65990477D01*
X42283390Y65990477D02*
X42426247Y65990477D01*
X42426247Y65990477D02*
X42616723Y66038096D01*
X42616723Y66038096D02*
X42711961Y66085715D01*
X42711961Y66085715D02*
X42807200Y66180953D01*
X42807200Y66180953D02*
X42854819Y66323810D01*
X42854819Y66323810D02*
X42854819Y66419048D01*
X42854819Y66419048D02*
X42807200Y66561905D01*
X42807200Y66561905D02*
X42759580Y66609524D01*
X42759580Y66609524D02*
X42426247Y66609524D01*
X42426247Y66609524D02*
X42426247Y66419048D01*
X42854819Y67514286D02*
X42854819Y67038096D01*
X42854819Y67038096D02*
X41854819Y67038096D01*
X42854819Y68371429D02*
X42854819Y67800001D01*
X42854819Y68085715D02*
X41854819Y68085715D01*
X41854819Y68085715D02*
X41997676Y67990477D01*
X41997676Y67990477D02*
X42092914Y67895239D01*
X42092914Y67895239D02*
X42140533Y67800001D01*
X21391667Y9095181D02*
X21391667Y10095181D01*
X21391667Y10095181D02*
X21725000Y9380896D01*
X21725000Y9380896D02*
X22058333Y10095181D01*
X22058333Y10095181D02*
X22058333Y9095181D01*
X22534524Y9095181D02*
X22534524Y10095181D01*
X22534524Y9618991D02*
X23105952Y9618991D01*
X23105952Y9095181D02*
X23105952Y10095181D01*
X23534524Y9999943D02*
X23582143Y10047562D01*
X23582143Y10047562D02*
X23677381Y10095181D01*
X23677381Y10095181D02*
X23915476Y10095181D01*
X23915476Y10095181D02*
X24010714Y10047562D01*
X24010714Y10047562D02*
X24058333Y9999943D01*
X24058333Y9999943D02*
X24105952Y9904705D01*
X24105952Y9904705D02*
X24105952Y9809467D01*
X24105952Y9809467D02*
X24058333Y9666610D01*
X24058333Y9666610D02*
X23486905Y9095181D01*
X23486905Y9095181D02*
X24105952Y9095181D01*
X1666666Y38445181D02*
X1666666Y37730896D01*
X1666666Y37730896D02*
X1619047Y37588039D01*
X1619047Y37588039D02*
X1523809Y37492800D01*
X1523809Y37492800D02*
X1380952Y37445181D01*
X1380952Y37445181D02*
X1285714Y37445181D01*
X2619047Y38445181D02*
X2142857Y38445181D01*
X2142857Y38445181D02*
X2095238Y37968991D01*
X2095238Y37968991D02*
X2142857Y38016610D01*
X2142857Y38016610D02*
X2238095Y38064229D01*
X2238095Y38064229D02*
X2476190Y38064229D01*
X2476190Y38064229D02*
X2571428Y38016610D01*
X2571428Y38016610D02*
X2619047Y37968991D01*
X2619047Y37968991D02*
X2666666Y37873753D01*
X2666666Y37873753D02*
X2666666Y37635658D01*
X2666666Y37635658D02*
X2619047Y37540420D01*
X2619047Y37540420D02*
X2571428Y37492800D01*
X2571428Y37492800D02*
X2476190Y37445181D01*
X2476190Y37445181D02*
X2238095Y37445181D01*
X2238095Y37445181D02*
X2142857Y37492800D01*
X2142857Y37492800D02*
X2095238Y37540420D01*
D14*
%TO.C,BZ1*%
X53900000Y14500000D02*
G75*
G02*
X41700000Y14500000I-6100000J0D01*
G01*
X41700000Y14500000D02*
G75*
G02*
X53900000Y14500000I6100000J0D01*
G01*
%TO.C,C18*%
X42659350Y40120296D02*
X42659350Y40907796D01*
X42265600Y40514046D02*
X43053100Y40514046D01*
X42161287Y41147796D02*
X43446850Y41147796D01*
X42161287Y41147796D02*
X41096850Y42212233D01*
X46852413Y41147796D02*
X45566850Y41147796D01*
X46852413Y41147796D02*
X47916850Y42212233D01*
X41096850Y42212233D02*
X41096850Y47967796D01*
X47916850Y42212233D02*
X47916850Y47967796D01*
X41096850Y47967796D02*
X43446850Y47967796D01*
X47916850Y47967796D02*
X45566850Y47967796D01*
%TO.C,D4*%
X55485000Y30765000D02*
X55485000Y32235000D01*
X55485000Y32235000D02*
X53200000Y32235000D01*
X53200000Y30765000D02*
X55485000Y30765000D01*
%TO.C,J1*%
X49080000Y4380000D02*
X49080000Y1620000D01*
X51730000Y4380000D02*
X49080000Y4380000D01*
X51730000Y4380000D02*
X51730000Y1620000D01*
X51730000Y1620000D02*
X49080000Y1620000D01*
X53000000Y4380000D02*
X54380000Y4380000D01*
X54380000Y4380000D02*
X54380000Y3000000D01*
%TO.C,C6*%
X49990000Y67134420D02*
X49990000Y67415580D01*
X51010000Y67134420D02*
X51010000Y67415580D01*
%TO.C,C14*%
X35490000Y65865580D02*
X35490000Y65584420D01*
X36510000Y65865580D02*
X36510000Y65584420D01*
%TO.C,J_EP1*%
X20850000Y77550000D02*
X36150000Y77550000D01*
X20850000Y75810000D02*
X20850000Y77550000D01*
X20850000Y71750000D02*
X20850000Y73090000D01*
X22340000Y71750000D02*
X20850000Y71750000D01*
X22340000Y71750000D02*
X22340000Y70550000D01*
X34660000Y71750000D02*
X36150000Y71750000D01*
X36150000Y77550000D02*
X36150000Y75810000D01*
X36150000Y71750000D02*
X36150000Y73090000D01*
%TO.C,J_FL1*%
X47350000Y77550000D02*
X47350000Y75810000D01*
X47350000Y71750000D02*
X47350000Y73090000D01*
X48840000Y71750000D02*
X47350000Y71750000D01*
X52160000Y71750000D02*
X52160000Y70550000D01*
X52160000Y71750000D02*
X53650000Y71750000D01*
X53650000Y77550000D02*
X47350000Y77550000D01*
X53650000Y75810000D02*
X53650000Y77550000D01*
X53650000Y71750000D02*
X53650000Y73090000D01*
%TO.C,C11*%
X36990000Y65584420D02*
X36990000Y65865580D01*
X38010000Y65584420D02*
X38010000Y65865580D01*
%TO.C,C3*%
X41240000Y4640580D02*
X41240000Y4359420D01*
X42260000Y4640580D02*
X42260000Y4359420D01*
%TO.C,C7*%
X38490000Y65890580D02*
X38490000Y65609420D01*
X39510000Y65890580D02*
X39510000Y65609420D01*
%TO.C,Q1*%
X16190000Y64577500D02*
X16190000Y66047500D01*
X16840000Y64577500D02*
X16190000Y64577500D01*
X17210000Y66047500D02*
X17490000Y66047500D01*
X18510000Y65961752D02*
X18510000Y64577500D01*
X18510000Y64577500D02*
X17860000Y64577500D01*
X18710000Y66112500D02*
X18520000Y66252500D01*
X18710000Y66392500D01*
X18710000Y66112500D01*
G36*
X18710000Y66112500D02*
G01*
X18520000Y66252500D01*
X18710000Y66392500D01*
X18710000Y66112500D01*
G37*
%TO.C,GND1*%
X43700000Y53500000D02*
G75*
G02*
X41300000Y53500000I-1200000J0D01*
G01*
X41300000Y53500000D02*
G75*
G02*
X43700000Y53500000I1200000J0D01*
G01*
%TO.C,C5*%
X52990000Y67134420D02*
X52990000Y67415580D01*
X54010000Y67134420D02*
X54010000Y67415580D01*
%TO.C,R3*%
X14827500Y65987258D02*
X14827500Y65512742D01*
X15872500Y65987258D02*
X15872500Y65512742D01*
%TO.C,C4*%
X29990000Y57859420D02*
X29990000Y58140580D01*
X31010000Y57859420D02*
X31010000Y58140580D01*
%TO.C,C16*%
X50399420Y27510000D02*
X50680580Y27510000D01*
X50399420Y26490000D02*
X50680580Y26490000D01*
%TO.C,J_TP1*%
X3350000Y77550000D02*
X9650000Y77550000D01*
X3350000Y75810000D02*
X3350000Y77550000D01*
X3350000Y71750000D02*
X3350000Y73090000D01*
X4840000Y71750000D02*
X3350000Y71750000D01*
X4840000Y71750000D02*
X4840000Y70550000D01*
X8160000Y71750000D02*
X9650000Y71750000D01*
X9650000Y77550000D02*
X9650000Y75810000D01*
X9650000Y71750000D02*
X9650000Y73090000D01*
%TO.C,R18*%
X48227500Y35512742D02*
X48227500Y35987258D01*
X49272500Y35512742D02*
X49272500Y35987258D01*
%TO.C,R11*%
X25227500Y65512742D02*
X25227500Y65987258D01*
X26272500Y65512742D02*
X26272500Y65987258D01*
%TO.C,D1*%
X34000000Y54890000D02*
X34000000Y58900000D01*
X34000000Y54890000D02*
X36000000Y54890000D01*
X36000000Y54890000D02*
X36000000Y58900000D01*
%TO.C,U2*%
X49805000Y30110000D02*
X51275000Y30110000D01*
X49805000Y28810000D02*
X49805000Y29190000D01*
X51139252Y27890000D02*
X49805000Y27890000D01*
X51570000Y27690000D02*
X51290000Y27690000D01*
X51430000Y27880000D01*
X51570000Y27690000D01*
G36*
X51570000Y27690000D02*
G01*
X51290000Y27690000D01*
X51430000Y27880000D01*
X51570000Y27690000D01*
G37*
%TO.C,R10*%
X47762742Y64022500D02*
X48237258Y64022500D01*
X47762742Y62977500D02*
X48237258Y62977500D01*
%TO.C,R12*%
X23727500Y65987258D02*
X23727500Y65512742D01*
X24772500Y65987258D02*
X24772500Y65512742D01*
%TO.C,R4*%
X52477500Y6487258D02*
X52477500Y6012742D01*
X53522500Y6487258D02*
X53522500Y6012742D01*
%TO.C,C17*%
X53990000Y6109420D02*
X53990000Y6390580D01*
X55010000Y6109420D02*
X55010000Y6390580D01*
%TO.C,R16*%
X54237258Y33522500D02*
X53762742Y33522500D01*
X54237258Y32477500D02*
X53762742Y32477500D01*
%TO.C,R8*%
X13237258Y67022500D02*
X12762742Y67022500D01*
X13237258Y65977500D02*
X12762742Y65977500D01*
%TO.C,C1*%
X48490000Y60359420D02*
X48490000Y60640580D01*
X49510000Y60359420D02*
X49510000Y60640580D01*
%TO.C,J4*%
X620000Y17730000D02*
X620000Y30540000D01*
X3380000Y30540000D02*
X620000Y30540000D01*
X3380000Y17730000D02*
X620000Y17730000D01*
X3380000Y17730000D02*
X3380000Y30540000D01*
X3380000Y16460000D02*
X3380000Y15080000D01*
X3380000Y15080000D02*
X2000000Y15080000D01*
%TO.C,C19*%
X43982147Y38130248D02*
X43982147Y37849088D01*
X45002147Y38130248D02*
X45002147Y37849088D01*
%TO.C,M1*%
X49940000Y44890000D02*
X55940000Y44890000D01*
X49940000Y34590000D02*
X49940000Y44890000D01*
X50040000Y43540000D02*
X51050000Y43540000D01*
X51050000Y43540000D02*
X51050000Y38460000D01*
X51050000Y38460000D02*
X50040000Y38460000D01*
X55890000Y37790000D02*
X55890000Y34590000D01*
X55890000Y34590000D02*
X49940000Y34590000D01*
X55940000Y44890000D02*
X55940000Y39140000D01*
%TO.C,U3*%
X14565000Y73786932D02*
X14565000Y74922500D01*
X16435000Y74922500D02*
X16435000Y73502500D01*
X14560000Y73492500D02*
X14370000Y73352500D01*
X14370000Y73632500D01*
X14560000Y73492500D01*
G36*
X14560000Y73492500D02*
G01*
X14370000Y73352500D01*
X14370000Y73632500D01*
X14560000Y73492500D01*
G37*
%TO.C,C15*%
X20740000Y65609420D02*
X20740000Y65890580D01*
X21760000Y65609420D02*
X21760000Y65890580D01*
D15*
%TO.C,U1*%
X50323600Y62028700D02*
X50323600Y59971300D01*
X52327360Y62028700D02*
X51672640Y62028700D01*
X53676400Y59971300D02*
X53676400Y62028700D01*
D14*
%TO.C,Jesp2*%
X12670000Y6070000D02*
X12670000Y51850000D01*
X12670000Y3470000D02*
X12670000Y4800000D01*
X14000000Y3470000D02*
X12670000Y3470000D01*
X15330000Y51850000D02*
X12670000Y51850000D01*
X15330000Y6070000D02*
X12670000Y6070000D01*
X15330000Y6070000D02*
X15330000Y51850000D01*
%TO.C,Jesp1*%
X37670000Y6070000D02*
X37670000Y51850000D01*
X37670000Y3470000D02*
X37670000Y4800000D01*
X39000000Y3470000D02*
X37670000Y3470000D01*
X40330000Y51850000D02*
X37670000Y51850000D01*
X40330000Y6070000D02*
X37670000Y6070000D01*
X40330000Y6070000D02*
X40330000Y51850000D01*
%TO.C,R1*%
X54477500Y60262742D02*
X54477500Y60737258D01*
X55522500Y60262742D02*
X55522500Y60737258D01*
%TO.C,Q2*%
X46740000Y69060000D02*
X48260000Y69060000D01*
X46740000Y68060000D02*
X46740000Y69060000D01*
X46740000Y65940000D02*
X46740000Y66940000D01*
X48260000Y69060000D02*
X48260000Y69010000D01*
X48260000Y67890000D02*
X48260000Y67110000D01*
X48260000Y65990000D02*
X48260000Y65940000D01*
X48260000Y65940000D02*
X46740000Y65940000D01*
X48800000Y67120000D02*
X48560000Y67450000D01*
X49040000Y67450000D01*
X48800000Y67120000D01*
G36*
X48800000Y67120000D02*
G01*
X48560000Y67450000D01*
X49040000Y67450000D01*
X48800000Y67120000D01*
G37*
%TO.C,R7*%
X51477500Y67037742D02*
X51477500Y67512258D01*
X52522500Y67037742D02*
X52522500Y67512258D01*
%TO.C,C13*%
X32490000Y65584420D02*
X32490000Y65865580D01*
X33510000Y65584420D02*
X33510000Y65865580D01*
%TO.C,R6*%
X47762742Y65522500D02*
X48237258Y65522500D01*
X47762742Y64477500D02*
X48237258Y64477500D01*
%TO.C,C8*%
X38990000Y58140580D02*
X38990000Y57859420D01*
X40010000Y58140580D02*
X40010000Y57859420D01*
%TO.C,J_NFC1*%
X620000Y45650000D02*
X620000Y58460000D01*
X3380000Y58460000D02*
X620000Y58460000D01*
X3380000Y45650000D02*
X620000Y45650000D01*
X3380000Y45650000D02*
X3380000Y58460000D01*
X3380000Y44380000D02*
X3380000Y43000000D01*
X3380000Y43000000D02*
X2000000Y43000000D01*
%TO.C,J_BME1*%
X620000Y6190000D02*
X620000Y13920000D01*
X3380000Y13920000D02*
X620000Y13920000D01*
X3380000Y6190000D02*
X620000Y6190000D01*
X3380000Y6190000D02*
X3380000Y13920000D01*
X3380000Y4920000D02*
X3380000Y3540000D01*
X3380000Y3540000D02*
X2000000Y3540000D01*
%TO.C,PREVGH1*%
X43700000Y57250000D02*
G75*
G02*
X41300000Y57250000I-1200000J0D01*
G01*
X41300000Y57250000D02*
G75*
G02*
X43700000Y57250000I1200000J0D01*
G01*
%TO.C,J6*%
X53120000Y51380000D02*
X54500000Y51380000D01*
X53120000Y50000000D02*
X53120000Y51380000D01*
X53120000Y48730000D02*
X53120000Y46080000D01*
X53120000Y48730000D02*
X55880000Y48730000D01*
X53120000Y46080000D02*
X55880000Y46080000D01*
X55880000Y48730000D02*
X55880000Y46080000D01*
%TO.C,R14*%
X10262742Y11522500D02*
X10737258Y11522500D01*
X10262742Y10477500D02*
X10737258Y10477500D01*
%TO.C,L1*%
X24790000Y59386252D02*
X24790000Y56613748D01*
X28210000Y59386252D02*
X28210000Y56613748D01*
%TO.C,R13*%
X10262742Y9272500D02*
X10737258Y9272500D01*
X10262742Y8227500D02*
X10737258Y8227500D01*
%TO.C,J2*%
X53160000Y30380000D02*
X54540000Y30380000D01*
X53160000Y29000000D02*
X53160000Y30380000D01*
X53160000Y27730000D02*
X53160000Y25080000D01*
X53160000Y27730000D02*
X55920000Y27730000D01*
X53160000Y25080000D02*
X55920000Y25080000D01*
X55920000Y27730000D02*
X55920000Y25080000D01*
%TO.C,C2*%
X23240000Y59640580D02*
X23240000Y59359420D01*
X24260000Y59640580D02*
X24260000Y59359420D01*
%TO.C,D3*%
X36500000Y59610000D02*
X36500000Y55600000D01*
X38500000Y59610000D02*
X36500000Y59610000D01*
X38500000Y59610000D02*
X38500000Y55600000D01*
%TO.C,C9*%
X29490000Y65584420D02*
X29490000Y65865580D01*
X30510000Y65584420D02*
X30510000Y65865580D01*
%TO.C,D2*%
X31500000Y59610000D02*
X31500000Y55600000D01*
X33500000Y59610000D02*
X31500000Y59610000D01*
X33500000Y59610000D02*
X33500000Y55600000D01*
%TO.C,R2*%
X18827500Y65987258D02*
X18827500Y65512742D01*
X19872500Y65987258D02*
X19872500Y65512742D01*
%TO.C,R15*%
X27977500Y65487742D02*
X27977500Y65962258D01*
X29022500Y65487742D02*
X29022500Y65962258D01*
%TO.C,C20*%
X16990000Y74365580D02*
X16990000Y74084420D01*
X18010000Y74365580D02*
X18010000Y74084420D01*
%TO.C,C10*%
X33990000Y65584420D02*
X33990000Y65865580D01*
X35010000Y65584420D02*
X35010000Y65865580D01*
%TO.C,C12*%
X22240000Y65609420D02*
X22240000Y65890580D01*
X23260000Y65609420D02*
X23260000Y65890580D01*
%TO.C,PREVGL1*%
X43450000Y60750000D02*
G75*
G02*
X41050000Y60750000I-1200000J0D01*
G01*
X41050000Y60750000D02*
G75*
G02*
X43450000Y60750000I1200000J0D01*
G01*
%TO.C,J5*%
X620000Y34230000D02*
X620000Y36880000D01*
X3380000Y36880000D02*
X620000Y36880000D01*
X3380000Y34230000D02*
X620000Y34230000D01*
X3380000Y34230000D02*
X3380000Y36880000D01*
X3380000Y32960000D02*
X3380000Y31580000D01*
X3380000Y31580000D02*
X2000000Y31580000D01*
%TD*%
M02*
