ISO-10303-21;
HEADER;
/* Generated by software containing ST-Developer
 * from STEP Tools, Inc. (www.steptools.com) 
 */

FILE_DESCRIPTION(
/* description */ (''),
/* implementation_level */ '2;1');

FILE_NAME(
/* name */ 'BOUTONPLEIN_FLAT.step',
/* time_stamp */ '2026-04-14T16:50:18+02:00',
/* author */ (''),
/* organization */ (''),
/* preprocessor_version */ 'ST-DEVELOPER v20.1',
/* originating_system */ 'Autodesk Translation Framework v14.24.0.0',
/* authorisation */ '');

FILE_SCHEMA (('AUTOMOTIVE_DESIGN { 1 0 10303 214 3 1 1 }'));
ENDSEC;

DATA;
#10=MECHANICAL_DESIGN_GEOMETRIC_PRESENTATION_REPRESENTATION('',(#24,#25),
#415);
#11=CONTEXT_DEPENDENT_OVER_RIDING_STYLED_ITEM('',(#451),#429,#25,(#17));
#12=MAPPED_ITEM('',#13,#271);
#13=REPRESENTATION_MAP(#271,#428);
#14=ITEM_DEFINED_TRANSFORMATION($,$,#250,#269);
#15=ITEM_DEFINED_TRANSFORMATION($,$,#249,#270);
#16=(
REPRESENTATION_RELATIONSHIP($,$,#430,#429)
REPRESENTATION_RELATIONSHIP_WITH_TRANSFORMATION(#14)
SHAPE_REPRESENTATION_RELATIONSHIP()
);
#17=(
REPRESENTATION_RELATIONSHIP($,$,#429,#428)
REPRESENTATION_RELATIONSHIP_WITH_TRANSFORMATION(#15)
SHAPE_REPRESENTATION_RELATIONSHIP()
);
#18=CONTEXT_DEPENDENT_SHAPE_REPRESENTATION(#16,#426);
#19=CONTEXT_DEPENDENT_SHAPE_REPRESENTATION(#17,#427);
#20=NEXT_ASSEMBLY_USAGE_OCCURRENCE('bouton solide:1','bouton solide:1',
'bouton solide:1',#433,#434,'bouton solide:1');
#21=NEXT_ASSEMBLY_USAGE_OCCURRENCE('Steel cover:1','Steel cover:1',
'Steel cover:1',#432,#433,'Steel cover:1');
#22=SHAPE_REPRESENTATION_RELATIONSHIP('SRR','None',#430,#23);
#23=ADVANCED_BREP_SHAPE_REPRESENTATION('',(#26),#414);
#24=STYLED_ITEM('',(#451),#26);
#25=STYLED_ITEM('',(#454),#12);
#26=MANIFOLD_SOLID_BREP('Body2',#235);
#27=PLANE('',#254);
#28=PLANE('',#255);
#29=PLANE('',#256);
#30=PLANE('',#258);
#31=PLANE('',#260);
#32=PLANE('',#261);
#33=PLANE('',#263);
#34=PLANE('',#264);
#35=PLANE('',#265);
#36=PLANE('',#266);
#37=PLANE('',#267);
#38=PLANE('',#268);
#39=FACE_OUTER_BOUND('',#53,.T.);
#40=FACE_OUTER_BOUND('',#54,.T.);
#41=FACE_OUTER_BOUND('',#55,.T.);
#42=FACE_OUTER_BOUND('',#56,.T.);
#43=FACE_OUTER_BOUND('',#57,.T.);
#44=FACE_OUTER_BOUND('',#58,.T.);
#45=FACE_OUTER_BOUND('',#59,.T.);
#46=FACE_OUTER_BOUND('',#60,.T.);
#47=FACE_OUTER_BOUND('',#61,.T.);
#48=FACE_OUTER_BOUND('',#62,.T.);
#49=FACE_OUTER_BOUND('',#63,.T.);
#50=FACE_OUTER_BOUND('',#64,.T.);
#51=FACE_OUTER_BOUND('',#65,.T.);
#52=FACE_OUTER_BOUND('',#66,.T.);
#53=EDGE_LOOP('',(#163,#164,#165,#166));
#54=EDGE_LOOP('',(#167,#168,#169,#170));
#55=EDGE_LOOP('',(#171,#172,#173,#174));
#56=EDGE_LOOP('',(#175,#176,#177,#178));
#57=EDGE_LOOP('',(#179,#180,#181,#182));
#58=EDGE_LOOP('',(#183,#184,#185,#186));
#59=EDGE_LOOP('',(#187,#188,#189,#190));
#60=EDGE_LOOP('',(#191,#192,#193,#194));
#61=EDGE_LOOP('',(#195,#196,#197,#198));
#62=EDGE_LOOP('',(#199,#200,#201,#202));
#63=EDGE_LOOP('',(#203,#204,#205,#206));
#64=EDGE_LOOP('',(#207,#208,#209,#210));
#65=EDGE_LOOP('',(#211,#212,#213,#214));
#66=EDGE_LOOP('',(#215,#216,#217,#218));
#67=CIRCLE('',#252,0.51);
#68=CIRCLE('',#253,0.51);
#69=CIRCLE('',#257,0.00999999999999987);
#70=CIRCLE('',#259,0.00999999999999987);
#71=LINE('',#350,#95);
#72=LINE('',#354,#96);
#73=LINE('',#358,#97);
#74=LINE('',#360,#98);
#75=LINE('',#362,#99);
#76=LINE('',#363,#100);
#77=LINE('',#366,#101);
#78=LINE('',#368,#102);
#79=LINE('',#369,#103);
#80=LINE('',#371,#104);
#81=LINE('',#374,#105);
#82=LINE('',#377,#106);
#83=LINE('',#381,#107);
#84=LINE('',#382,#108);
#85=LINE('',#384,#109);
#86=LINE('',#386,#110);
#87=LINE('',#390,#111);
#88=LINE('',#392,#112);
#89=LINE('',#393,#113);
#90=LINE('',#396,#114);
#91=LINE('',#398,#115);
#92=LINE('',#399,#116);
#93=LINE('',#401,#117);
#94=LINE('',#402,#118);
#95=VECTOR('',#280,10.);
#96=VECTOR('',#283,10.);
#97=VECTOR('',#288,10.);
#98=VECTOR('',#289,0.23);
#99=VECTOR('',#290,10.);
#100=VECTOR('',#291,0.23);
#101=VECTOR('',#294,10.);
#102=VECTOR('',#295,0.23);
#103=VECTOR('',#296,10.);
#104=VECTOR('',#299,10.);
#105=VECTOR('',#302,10.);
#106=VECTOR('',#305,10.);
#107=VECTOR('',#310,10.);
#108=VECTOR('',#311,10.);
#109=VECTOR('',#314,10.);
#110=VECTOR('',#317,10.);
#111=VECTOR('',#322,10.);
#112=VECTOR('',#323,10.);
#113=VECTOR('',#324,10.);
#114=VECTOR('',#327,10.);
#115=VECTOR('',#328,10.);
#116=VECTOR('',#329,10.);
#117=VECTOR('',#332,10.);
#118=VECTOR('',#333,10.);
#119=VERTEX_POINT('',#348);
#120=VERTEX_POINT('',#349);
#121=VERTEX_POINT('',#351);
#122=VERTEX_POINT('',#353);
#123=VERTEX_POINT('',#357);
#124=VERTEX_POINT('',#359);
#125=VERTEX_POINT('',#361);
#126=VERTEX_POINT('',#365);
#127=VERTEX_POINT('',#367);
#128=VERTEX_POINT('',#372);
#129=VERTEX_POINT('',#376);
#130=VERTEX_POINT('',#380);
#131=VERTEX_POINT('',#389);
#132=VERTEX_POINT('',#391);
#133=VERTEX_POINT('',#395);
#134=VERTEX_POINT('',#397);
#135=EDGE_CURVE('',#119,#120,#71,.T.);
#136=EDGE_CURVE('',#119,#121,#67,.T.);
#137=EDGE_CURVE('',#122,#121,#72,.T.);
#138=EDGE_CURVE('',#122,#120,#68,.T.);
#139=EDGE_CURVE('',#120,#123,#73,.T.);
#140=EDGE_CURVE('',#124,#123,#74,.T.);
#141=EDGE_CURVE('',#124,#125,#75,.T.);
#142=EDGE_CURVE('',#120,#125,#76,.T.);
#143=EDGE_CURVE('',#123,#126,#77,.T.);
#144=EDGE_CURVE('',#127,#126,#78,.T.);
#145=EDGE_CURVE('',#127,#124,#79,.T.);
#146=EDGE_CURVE('',#126,#119,#80,.T.);
#147=EDGE_CURVE('',#126,#128,#69,.T.);
#148=EDGE_CURVE('',#121,#128,#81,.T.);
#149=EDGE_CURVE('',#122,#129,#82,.T.);
#150=EDGE_CURVE('',#123,#129,#70,.T.);
#151=EDGE_CURVE('',#130,#119,#83,.T.);
#152=EDGE_CURVE('',#127,#130,#84,.T.);
#153=EDGE_CURVE('',#125,#130,#85,.T.);
#154=EDGE_CURVE('',#128,#129,#86,.T.);
#155=EDGE_CURVE('',#121,#131,#87,.T.);
#156=EDGE_CURVE('',#132,#128,#88,.T.);
#157=EDGE_CURVE('',#131,#132,#89,.T.);
#158=EDGE_CURVE('',#131,#133,#90,.T.);
#159=EDGE_CURVE('',#134,#132,#91,.T.);
#160=EDGE_CURVE('',#133,#134,#92,.T.);
#161=EDGE_CURVE('',#133,#122,#93,.T.);
#162=EDGE_CURVE('',#129,#134,#94,.T.);
#163=ORIENTED_EDGE('',*,*,#135,.F.);
#164=ORIENTED_EDGE('',*,*,#136,.T.);
#165=ORIENTED_EDGE('',*,*,#137,.F.);
#166=ORIENTED_EDGE('',*,*,#138,.T.);
#167=ORIENTED_EDGE('',*,*,#139,.T.);
#168=ORIENTED_EDGE('',*,*,#140,.F.);
#169=ORIENTED_EDGE('',*,*,#141,.T.);
#170=ORIENTED_EDGE('',*,*,#142,.F.);
#171=ORIENTED_EDGE('',*,*,#143,.T.);
#172=ORIENTED_EDGE('',*,*,#144,.F.);
#173=ORIENTED_EDGE('',*,*,#145,.T.);
#174=ORIENTED_EDGE('',*,*,#140,.T.);
#175=ORIENTED_EDGE('',*,*,#146,.F.);
#176=ORIENTED_EDGE('',*,*,#147,.T.);
#177=ORIENTED_EDGE('',*,*,#148,.F.);
#178=ORIENTED_EDGE('',*,*,#136,.F.);
#179=ORIENTED_EDGE('',*,*,#139,.F.);
#180=ORIENTED_EDGE('',*,*,#138,.F.);
#181=ORIENTED_EDGE('',*,*,#149,.T.);
#182=ORIENTED_EDGE('',*,*,#150,.F.);
#183=ORIENTED_EDGE('',*,*,#146,.T.);
#184=ORIENTED_EDGE('',*,*,#151,.F.);
#185=ORIENTED_EDGE('',*,*,#152,.F.);
#186=ORIENTED_EDGE('',*,*,#144,.T.);
#187=ORIENTED_EDGE('',*,*,#145,.F.);
#188=ORIENTED_EDGE('',*,*,#152,.T.);
#189=ORIENTED_EDGE('',*,*,#153,.F.);
#190=ORIENTED_EDGE('',*,*,#141,.F.);
#191=ORIENTED_EDGE('',*,*,#143,.F.);
#192=ORIENTED_EDGE('',*,*,#150,.T.);
#193=ORIENTED_EDGE('',*,*,#154,.F.);
#194=ORIENTED_EDGE('',*,*,#147,.F.);
#195=ORIENTED_EDGE('',*,*,#135,.T.);
#196=ORIENTED_EDGE('',*,*,#142,.T.);
#197=ORIENTED_EDGE('',*,*,#153,.T.);
#198=ORIENTED_EDGE('',*,*,#151,.T.);
#199=ORIENTED_EDGE('',*,*,#155,.F.);
#200=ORIENTED_EDGE('',*,*,#148,.T.);
#201=ORIENTED_EDGE('',*,*,#156,.F.);
#202=ORIENTED_EDGE('',*,*,#157,.F.);
#203=ORIENTED_EDGE('',*,*,#158,.F.);
#204=ORIENTED_EDGE('',*,*,#157,.T.);
#205=ORIENTED_EDGE('',*,*,#159,.F.);
#206=ORIENTED_EDGE('',*,*,#160,.F.);
#207=ORIENTED_EDGE('',*,*,#161,.F.);
#208=ORIENTED_EDGE('',*,*,#160,.T.);
#209=ORIENTED_EDGE('',*,*,#162,.F.);
#210=ORIENTED_EDGE('',*,*,#149,.F.);
#211=ORIENTED_EDGE('',*,*,#154,.T.);
#212=ORIENTED_EDGE('',*,*,#162,.T.);
#213=ORIENTED_EDGE('',*,*,#159,.T.);
#214=ORIENTED_EDGE('',*,*,#156,.T.);
#215=ORIENTED_EDGE('',*,*,#137,.T.);
#216=ORIENTED_EDGE('',*,*,#155,.T.);
#217=ORIENTED_EDGE('',*,*,#158,.T.);
#218=ORIENTED_EDGE('',*,*,#161,.T.);
#219=CYLINDRICAL_SURFACE('',#251,0.51);
#220=CYLINDRICAL_SURFACE('',#262,0.0099999999999998);
#221=ADVANCED_FACE('',(#39),#219,.T.);
#222=ADVANCED_FACE('',(#40),#27,.T.);
#223=ADVANCED_FACE('',(#41),#28,.F.);
#224=ADVANCED_FACE('',(#42),#29,.T.);
#225=ADVANCED_FACE('',(#43),#30,.T.);
#226=ADVANCED_FACE('',(#44),#31,.T.);
#227=ADVANCED_FACE('',(#45),#32,.T.);
#228=ADVANCED_FACE('',(#46),#220,.F.);
#229=ADVANCED_FACE('',(#47),#33,.T.);
#230=ADVANCED_FACE('',(#48),#34,.T.);
#231=ADVANCED_FACE('',(#49),#35,.T.);
#232=ADVANCED_FACE('',(#50),#36,.T.);
#233=ADVANCED_FACE('',(#51),#37,.T.);
#234=ADVANCED_FACE('',(#52),#38,.F.);
#235=CLOSED_SHELL('',(#221,#222,#223,#224,#225,#226,#227,#228,#229,#230,
#231,#232,#233,#234));
#236=DERIVED_UNIT_ELEMENT(#238,1.);
#237=DERIVED_UNIT_ELEMENT(#417,-3.);
#238=(
MASS_UNIT()
NAMED_UNIT(*)
SI_UNIT(.KILO.,.GRAM.)
);
#239=DERIVED_UNIT((#236,#237));
#240=MEASURE_REPRESENTATION_ITEM('density measure',
POSITIVE_RATIO_MEASURE(7850.),#239);
#241=PROPERTY_DEFINITION_REPRESENTATION(#246,#243);
#242=PROPERTY_DEFINITION_REPRESENTATION(#247,#244);
#243=REPRESENTATION('material name',(#245),#414);
#244=REPRESENTATION('density',(#240),#414);
#245=DESCRIPTIVE_REPRESENTATION_ITEM('Steel','Steel');
#246=PROPERTY_DEFINITION('material property','material name',#434);
#247=PROPERTY_DEFINITION('material property','density of part',#434);
#248=AXIS2_PLACEMENT_3D('',#344,#272,#273);
#249=AXIS2_PLACEMENT_3D('',#345,#274,#275);
#250=AXIS2_PLACEMENT_3D('',#346,#276,#277);
#251=AXIS2_PLACEMENT_3D('',#347,#278,#279);
#252=AXIS2_PLACEMENT_3D('',#352,#281,#282);
#253=AXIS2_PLACEMENT_3D('',#355,#284,#285);
#254=AXIS2_PLACEMENT_3D('',#356,#286,#287);
#255=AXIS2_PLACEMENT_3D('',#364,#292,#293);
#256=AXIS2_PLACEMENT_3D('',#370,#297,#298);
#257=AXIS2_PLACEMENT_3D('',#373,#300,#301);
#258=AXIS2_PLACEMENT_3D('',#375,#303,#304);
#259=AXIS2_PLACEMENT_3D('',#378,#306,#307);
#260=AXIS2_PLACEMENT_3D('',#379,#308,#309);
#261=AXIS2_PLACEMENT_3D('',#383,#312,#313);
#262=AXIS2_PLACEMENT_3D('',#385,#315,#316);
#263=AXIS2_PLACEMENT_3D('',#387,#318,#319);
#264=AXIS2_PLACEMENT_3D('',#388,#320,#321);
#265=AXIS2_PLACEMENT_3D('',#394,#325,#326);
#266=AXIS2_PLACEMENT_3D('',#400,#330,#331);
#267=AXIS2_PLACEMENT_3D('',#403,#334,#335);
#268=AXIS2_PLACEMENT_3D('',#404,#336,#337);
#269=AXIS2_PLACEMENT_3D('',#405,#338,#339);
#270=AXIS2_PLACEMENT_3D('',#406,#340,#341);
#271=AXIS2_PLACEMENT_3D('',#407,#342,#343);
#272=DIRECTION('axis',(0.,0.,1.));
#273=DIRECTION('refdir',(1.,0.,0.));
#274=DIRECTION('axis',(0.,0.,1.));
#275=DIRECTION('refdir',(1.,0.,0.));
#276=DIRECTION('axis',(0.,0.,1.));
#277=DIRECTION('refdir',(1.,0.,0.));
#278=DIRECTION('center_axis',(-1.,0.,0.));
#279=DIRECTION('ref_axis',(0.,-1.,0.));
#280=DIRECTION('',(1.,0.,0.));
#281=DIRECTION('center_axis',(1.,0.,0.));
#282=DIRECTION('ref_axis',(0.,1.,8.70763156568751E-15));
#283=DIRECTION('',(-1.,0.,0.));
#284=DIRECTION('center_axis',(-1.,0.,0.));
#285=DIRECTION('ref_axis',(0.,-1.,0.));
#286=DIRECTION('center_axis',(1.,0.,0.));
#287=DIRECTION('ref_axis',(0.,1.05969086964441E-14,-1.));
#288=DIRECTION('',(0.,-1.,-1.07806057163162E-14));
#289=DIRECTION('',(0.,-1.05969086964441E-14,1.));
#290=DIRECTION('',(0.,1.,1.07806057163162E-14));
#291=DIRECTION('',(0.,1.05969086964441E-14,-1.));
#292=DIRECTION('center_axis',(0.,1.,1.06887572063802E-14));
#293=DIRECTION('ref_axis',(0.,-1.06887572063802E-14,1.));
#294=DIRECTION('',(-1.,0.,0.));
#295=DIRECTION('',(0.,-1.05969086964441E-14,1.));
#296=DIRECTION('',(1.,0.,0.));
#297=DIRECTION('center_axis',(-1.,0.,0.));
#298=DIRECTION('ref_axis',(0.,0.,1.));
#299=DIRECTION('',(0.,1.,1.07806057163162E-14));
#300=DIRECTION('center_axis',(1.,0.,0.));
#301=DIRECTION('ref_axis',(0.,1.,0.));
#302=DIRECTION('',(0.,1.,0.));
#303=DIRECTION('center_axis',(1.,0.,0.));
#304=DIRECTION('ref_axis',(0.,0.,-1.));
#305=DIRECTION('',(0.,1.,0.));
#306=DIRECTION('center_axis',(1.,0.,0.));
#307=DIRECTION('ref_axis',(0.,1.,0.));
#308=DIRECTION('center_axis',(-1.,0.,0.));
#309=DIRECTION('ref_axis',(0.,-1.07806057163162E-14,1.));
#310=DIRECTION('',(0.,-1.07806057163162E-14,1.));
#311=DIRECTION('',(0.,1.,1.07806057163162E-14));
#312=DIRECTION('center_axis',(0.,1.07806057163162E-14,-1.));
#313=DIRECTION('ref_axis',(-1.,0.,0.));
#314=DIRECTION('',(-1.,0.,0.));
#315=DIRECTION('center_axis',(-1.,0.,0.));
#316=DIRECTION('ref_axis',(0.,-1.,0.));
#317=DIRECTION('',(1.,0.,0.));
#318=DIRECTION('center_axis',(0.,1.,1.07806057163162E-14));
#319=DIRECTION('ref_axis',(0.,-1.07806057163162E-14,1.));
#320=DIRECTION('center_axis',(-1.,0.,-1.38271893443186E-33));
#321=DIRECTION('ref_axis',(-1.38271893443186E-33,0.,1.));
#322=DIRECTION('',(1.38271893443186E-33,0.,-1.));
#323=DIRECTION('',(-1.38271893443186E-33,0.,1.));
#324=DIRECTION('',(0.,1.,0.));
#325=DIRECTION('center_axis',(3.38963670212154E-33,0.,-1.));
#326=DIRECTION('ref_axis',(-1.,0.,-3.38963670212154E-33));
#327=DIRECTION('',(1.,0.,3.38963670212154E-33));
#328=DIRECTION('',(-1.,0.,-3.38963670212154E-33));
#329=DIRECTION('',(0.,1.,0.));
#330=DIRECTION('center_axis',(1.,0.,0.));
#331=DIRECTION('ref_axis',(0.,0.,-1.));
#332=DIRECTION('',(0.,0.,1.));
#333=DIRECTION('',(0.,0.,-1.));
#334=DIRECTION('center_axis',(0.,1.,0.));
#335=DIRECTION('ref_axis',(0.,0.,1.));
#336=DIRECTION('center_axis',(0.,1.,0.));
#337=DIRECTION('ref_axis',(1.,0.,0.));
#338=DIRECTION('',(0.,0.,1.));
#339=DIRECTION('',(1.,0.,0.));
#340=DIRECTION('',(0.,0.,1.));
#341=DIRECTION('',(1.,0.,0.));
#342=DIRECTION('center_axis',(0.,0.,1.));
#343=DIRECTION('ref_axis',(1.,0.,0.));
#344=CARTESIAN_POINT('',(0.,0.,0.));
#345=CARTESIAN_POINT('',(0.,0.,0.));
#346=CARTESIAN_POINT('',(0.,0.,0.));
#347=CARTESIAN_POINT('Origin',(12.5,0.510000000000001,19.5));
#348=CARTESIAN_POINT('',(0.,1.02,19.5));
#349=CARTESIAN_POINT('',(25.,1.02,19.5));
#350=CARTESIAN_POINT('',(12.5,1.02,19.5));
#351=CARTESIAN_POINT('',(-2.69630192214213E-32,0.,19.5));
#352=CARTESIAN_POINT('Origin',(0.,0.510000000000001,19.5));
#353=CARTESIAN_POINT('',(25.,0.,19.5));
#354=CARTESIAN_POINT('',(25.,0.,19.5));
#355=CARTESIAN_POINT('Origin',(25.,0.510000000000001,19.5));
#356=CARTESIAN_POINT('Origin',(25.,0.519999999999993,20.2225663103257));
#357=CARTESIAN_POINT('',(25.,0.520000000000001,19.5));
#358=CARTESIAN_POINT('',(25.,0.630000000000001,19.5));
#359=CARTESIAN_POINT('',(25.,0.520000000000211,0.0099999999999989));
#360=CARTESIAN_POINT('',(25.,0.519999999999997,19.8612831551628));
#361=CARTESIAN_POINT('',(25.,1.02000000000021,0.0100000000000033));
#362=CARTESIAN_POINT('',(25.,0.520000000000211,0.0099999999999989));
#363=CARTESIAN_POINT('',(25.,1.02,19.8612831551628));
#364=CARTESIAN_POINT('Origin',(12.5,0.520000000000102,10.1162831551628));
#365=CARTESIAN_POINT('',(0.,0.520000000000001,19.5));
#366=CARTESIAN_POINT('',(12.5,0.520000000000002,19.5));
#367=CARTESIAN_POINT('',(0.,0.520000000000211,0.0099999999999989));
#368=CARTESIAN_POINT('',(0.,0.519999999999997,19.8612831551628));
#369=CARTESIAN_POINT('',(0.,0.520000000000211,0.0099999999999989));
#370=CARTESIAN_POINT('Origin',(0.,0.520000000000001,19.5));
#371=CARTESIAN_POINT('',(0.,0.630000000000001,19.5));
#372=CARTESIAN_POINT('',(0.,0.5,19.5));
#373=CARTESIAN_POINT('Origin',(0.,0.510000000000001,19.5));
#374=CARTESIAN_POINT('',(-2.69630192214213E-32,0.,19.5));
#375=CARTESIAN_POINT('Origin',(25.,1.02,19.5));
#376=CARTESIAN_POINT('',(25.,0.5,19.5));
#377=CARTESIAN_POINT('',(25.,0.,19.5));
#378=CARTESIAN_POINT('Origin',(25.,0.510000000000001,19.5));
#379=CARTESIAN_POINT('Origin',(0.,0.520000000000211,0.0099999999999989));
#380=CARTESIAN_POINT('',(0.,1.02000000000021,0.0100000000000033));
#381=CARTESIAN_POINT('',(0.,1.02,19.5));
#382=CARTESIAN_POINT('',(0.,0.520000000000211,0.0099999999999989));
#383=CARTESIAN_POINT('Origin',(25.,0.520000000000211,0.0099999999999989));
#384=CARTESIAN_POINT('',(0.,1.02000000000021,0.0100000000000033));
#385=CARTESIAN_POINT('Origin',(12.5,0.510000000000001,19.5));
#386=CARTESIAN_POINT('',(25.,0.5,19.5));
#387=CARTESIAN_POINT('Origin',(12.5,1.0200000000001,10.1162831551628));
#388=CARTESIAN_POINT('Origin',(0.,0.,0.));
#389=CARTESIAN_POINT('',(0.,0.,0.));
#390=CARTESIAN_POINT('',(-2.69630192214213E-32,0.,19.5));
#391=CARTESIAN_POINT('',(0.,0.5,0.));
#392=CARTESIAN_POINT('',(-2.69630192214213E-32,0.5,19.5));
#393=CARTESIAN_POINT('',(0.,0.,0.));
#394=CARTESIAN_POINT('Origin',(25.,0.,8.47409175530384E-32));
#395=CARTESIAN_POINT('',(25.,0.,8.47409175530384E-32));
#396=CARTESIAN_POINT('',(0.,0.,0.));
#397=CARTESIAN_POINT('',(25.,0.5,0.));
#398=CARTESIAN_POINT('',(0.,0.5,0.));
#399=CARTESIAN_POINT('',(25.,0.,8.47409175530384E-32));
#400=CARTESIAN_POINT('Origin',(25.,0.,19.5));
#401=CARTESIAN_POINT('',(25.,0.,8.47409175530384E-32));
#402=CARTESIAN_POINT('',(25.,0.5,8.47409175530384E-32));
#403=CARTESIAN_POINT('Origin',(12.5,0.5,9.75));
#404=CARTESIAN_POINT('Origin',(12.5,0.,9.75));
#405=CARTESIAN_POINT('',(-8.74999999999999,-76.,39.2));
#406=CARTESIAN_POINT('',(0.,0.,0.));
#407=CARTESIAN_POINT('Origin',(0.,0.,0.));
#408=UNCERTAINTY_MEASURE_WITH_UNIT(LENGTH_MEASURE(0.01),#416,
'DISTANCE_ACCURACY_VALUE',
'Maximum model space distance between geometric entities at asserted c
onnectivities');
#409=UNCERTAINTY_MEASURE_WITH_UNIT(LENGTH_MEASURE(0.01),#416,
'DISTANCE_ACCURACY_VALUE',
'Maximum model space distance between geometric entities at asserted c
onnectivities');
#410=UNCERTAINTY_MEASURE_WITH_UNIT(LENGTH_MEASURE(0.01),#416,
'DISTANCE_ACCURACY_VALUE',
'Maximum model space distance between geometric entities at asserted c
onnectivities');
#411=UNCERTAINTY_MEASURE_WITH_UNIT(LENGTH_MEASURE(0.01),#416,
'DISTANCE_ACCURACY_VALUE',
'Maximum model space distance between geometric entities at asserted c
onnectivities');
#412=(
GEOMETRIC_REPRESENTATION_CONTEXT(3)
GLOBAL_UNCERTAINTY_ASSIGNED_CONTEXT((#408))
GLOBAL_UNIT_ASSIGNED_CONTEXT((#416,#418,#419))
REPRESENTATION_CONTEXT('','3D')
);
#413=(
GEOMETRIC_REPRESENTATION_CONTEXT(3)
GLOBAL_UNCERTAINTY_ASSIGNED_CONTEXT((#409))
GLOBAL_UNIT_ASSIGNED_CONTEXT((#416,#418,#419))
REPRESENTATION_CONTEXT('','3D')
);
#414=(
GEOMETRIC_REPRESENTATION_CONTEXT(3)
GLOBAL_UNCERTAINTY_ASSIGNED_CONTEXT((#410))
GLOBAL_UNIT_ASSIGNED_CONTEXT((#416,#418,#419))
REPRESENTATION_CONTEXT('','3D')
);
#415=(
GEOMETRIC_REPRESENTATION_CONTEXT(3)
GLOBAL_UNCERTAINTY_ASSIGNED_CONTEXT((#411))
GLOBAL_UNIT_ASSIGNED_CONTEXT((#416,#418,#419))
REPRESENTATION_CONTEXT('','3D')
);
#416=(
LENGTH_UNIT()
NAMED_UNIT(*)
SI_UNIT(.MILLI.,.METRE.)
);
#417=(
LENGTH_UNIT()
NAMED_UNIT(*)
SI_UNIT($,.METRE.)
);
#418=(
NAMED_UNIT(*)
PLANE_ANGLE_UNIT()
SI_UNIT($,.RADIAN.)
);
#419=(
NAMED_UNIT(*)
SI_UNIT($,.STERADIAN.)
SOLID_ANGLE_UNIT()
);
#420=SHAPE_DEFINITION_REPRESENTATION(#423,#428);
#421=SHAPE_DEFINITION_REPRESENTATION(#424,#429);
#422=SHAPE_DEFINITION_REPRESENTATION(#425,#430);
#423=PRODUCT_DEFINITION_SHAPE('',$,#432);
#424=PRODUCT_DEFINITION_SHAPE('',$,#433);
#425=PRODUCT_DEFINITION_SHAPE('',$,#434);
#426=PRODUCT_DEFINITION_SHAPE($,$,#20);
#427=PRODUCT_DEFINITION_SHAPE($,$,#21);
#428=SHAPE_REPRESENTATION('',(#248,#270),#412);
#429=SHAPE_REPRESENTATION('',(#249,#269),#413);
#430=SHAPE_REPRESENTATION('',(#250),#414);
#431=PRODUCT_DEFINITION_CONTEXT('part definition',#442,'design');
#432=PRODUCT_DEFINITION('Home assistant box','Home assistant box v43',#435,
#431);
#433=PRODUCT_DEFINITION('Steel cover','Steel cover',#436,#431);
#434=PRODUCT_DEFINITION('bouton solide','bouton solide',#437,#431);
#435=PRODUCT_DEFINITION_FORMATION('',$,#444);
#436=PRODUCT_DEFINITION_FORMATION('',$,#445);
#437=PRODUCT_DEFINITION_FORMATION('',$,#446);
#438=PRODUCT_RELATED_PRODUCT_CATEGORY('Home assistant box v43',
'Home assistant box v43',(#444));
#439=PRODUCT_RELATED_PRODUCT_CATEGORY('Steel cover','Steel cover',(#445));
#440=PRODUCT_RELATED_PRODUCT_CATEGORY('bouton solide','bouton solide',(#446));
#441=APPLICATION_PROTOCOL_DEFINITION('international standard',
'automotive_design',2009,#442);
#442=APPLICATION_CONTEXT(
'Core Data for Automotive Mechanical Design Process');
#443=PRODUCT_CONTEXT('part definition',#442,'mechanical');
#444=PRODUCT('Home assistant box','Home assistant box v43',$,(#443));
#445=PRODUCT('Steel cover','Steel cover',$,(#443));
#446=PRODUCT('bouton solide','bouton solide',$,(#443));
#447=PRESENTATION_STYLE_ASSIGNMENT((#455));
#448=PRESENTATION_STYLE_ASSIGNMENT((#456));
#449=PRESENTATION_STYLE_ASSIGNMENT((#457));
#450=PRESENTATION_STYLE_ASSIGNMENT((#458));
#451=PRESENTATION_STYLE_ASSIGNMENT((#459));
#452=PRESENTATION_STYLE_ASSIGNMENT((#460));
#453=PRESENTATION_STYLE_ASSIGNMENT((#461));
#454=PRESENTATION_STYLE_ASSIGNMENT((NULL_STYLE(.NULL.)));
#455=SURFACE_STYLE_USAGE(.BOTH.,#462);
#456=SURFACE_STYLE_USAGE(.BOTH.,#463);
#457=SURFACE_STYLE_USAGE(.BOTH.,#464);
#458=SURFACE_STYLE_USAGE(.BOTH.,#465);
#459=SURFACE_STYLE_USAGE(.BOTH.,#466);
#460=SURFACE_STYLE_USAGE(.BOTH.,#467);
#461=SURFACE_STYLE_USAGE(.BOTH.,#468);
#462=SURFACE_SIDE_STYLE('',(#469));
#463=SURFACE_SIDE_STYLE('',(#470));
#464=SURFACE_SIDE_STYLE('',(#471));
#465=SURFACE_SIDE_STYLE('',(#472));
#466=SURFACE_SIDE_STYLE('',(#473));
#467=SURFACE_SIDE_STYLE('',(#474));
#468=SURFACE_SIDE_STYLE('',(#475));
#469=SURFACE_STYLE_FILL_AREA(#476);
#470=SURFACE_STYLE_FILL_AREA(#477);
#471=SURFACE_STYLE_FILL_AREA(#478);
#472=SURFACE_STYLE_FILL_AREA(#479);
#473=SURFACE_STYLE_FILL_AREA(#480);
#474=SURFACE_STYLE_FILL_AREA(#481);
#475=SURFACE_STYLE_FILL_AREA(#482);
#476=FILL_AREA_STYLE('Oak',(#483));
#477=FILL_AREA_STYLE('Plastic - Translucent Matte (White)',(#484));
#478=FILL_AREA_STYLE('Steel - Satin',(#485));
#479=FILL_AREA_STYLE('Paint - Metallic (Black)',(#486));
#480=FILL_AREA_STYLE('Paint - Metal Flake (Silver)',(#487));
#481=FILL_AREA_STYLE('Walnut',(#488));
#482=FILL_AREA_STYLE('Glass - Frosted',(#489));
#483=FILL_AREA_STYLE_COLOUR('Oak',#490);
#484=FILL_AREA_STYLE_COLOUR('Plastic - Translucent Matte (White)',#491);
#485=FILL_AREA_STYLE_COLOUR('Steel - Satin',#492);
#486=FILL_AREA_STYLE_COLOUR('Paint - Metallic (Black)',#493);
#487=FILL_AREA_STYLE_COLOUR('Paint - Metal Flake (Silver)',#494);
#488=FILL_AREA_STYLE_COLOUR('Walnut',#495);
#489=FILL_AREA_STYLE_COLOUR('Glass - Frosted',#496);
#490=COLOUR_RGB('Oak',0.,0.,0.);
#491=COLOUR_RGB('Plastic - Translucent Matte (White)',0.964705882352941,
0.964705882352941,0.952941176470588);
#492=COLOUR_RGB('Steel - Satin',0.627450980392157,0.627450980392157,0.627450980392157);
#493=COLOUR_RGB('Paint - Metallic (Black)',0.0980392156862745,0.0980392156862745,
0.0980392156862745);
#494=COLOUR_RGB('Paint - Metal Flake (Silver)',1.,1.,1.);
#495=COLOUR_RGB('Walnut',0.,0.,0.);
#496=COLOUR_RGB('Glass - Frosted',0.964705882352941,0.964705882352941,0.952941176470588);
ENDSEC;
END-ISO-10303-21;
