ISO-10303-21;
HEADER;
/* Generated by software containing ST-Developer
 * from STEP Tools, Inc. (www.steptools.com) 
 */

FILE_DESCRIPTION(
/* description */ (''),
/* implementation_level */ '2;1');

FILE_NAME(
/* name */ 'BOUTON.step',
/* time_stamp */ '2026-03-25T23:30:39+01:00',
/* author */ (''),
/* organization */ (''),
/* preprocessor_version */ 'ST-DEVELOPER v20.1',
/* originating_system */ 'Autodesk Translation Framework v14.24.0.0',
/* authorisation */ '');

FILE_SCHEMA (('AUTOMOTIVE_DESIGN { 1 0 10303 214 3 1 1 }'));
ENDSEC;

DATA;
#10=MECHANICAL_DESIGN_GEOMETRIC_PRESENTATION_REPRESENTATION('',(#13),#459);
#11=SHAPE_REPRESENTATION_RELATIONSHIP('SRR','None',#466,#12);
#12=ADVANCED_BREP_SHAPE_REPRESENTATION('',(#14),#458);
#13=STYLED_ITEM('',(#475),#14);
#14=MANIFOLD_SOLID_BREP('Body3',#279);
#15=FACE_BOUND('',#52,.T.);
#16=FACE_BOUND('',#53,.T.);
#17=FACE_BOUND('',#55,.T.);
#18=FACE_BOUND('',#56,.T.);
#19=CIRCLE('',#295,5.);
#20=CIRCLE('',#296,5.);
#21=CIRCLE('',#299,6.);
#22=CIRCLE('',#300,6.);
#23=CYLINDRICAL_SURFACE('',#294,5.);
#24=CYLINDRICAL_SURFACE('',#298,6.);
#25=FACE_OUTER_BOUND('',#39,.T.);
#26=FACE_OUTER_BOUND('',#40,.T.);
#27=FACE_OUTER_BOUND('',#41,.T.);
#28=FACE_OUTER_BOUND('',#42,.T.);
#29=FACE_OUTER_BOUND('',#43,.T.);
#30=FACE_OUTER_BOUND('',#44,.T.);
#31=FACE_OUTER_BOUND('',#45,.T.);
#32=FACE_OUTER_BOUND('',#46,.T.);
#33=FACE_OUTER_BOUND('',#47,.T.);
#34=FACE_OUTER_BOUND('',#48,.T.);
#35=FACE_OUTER_BOUND('',#49,.T.);
#36=FACE_OUTER_BOUND('',#50,.T.);
#37=FACE_OUTER_BOUND('',#51,.T.);
#38=FACE_OUTER_BOUND('',#54,.T.);
#39=EDGE_LOOP('',(#181,#182,#183,#184));
#40=EDGE_LOOP('',(#185,#186,#187,#188));
#41=EDGE_LOOP('',(#189,#190,#191,#192));
#42=EDGE_LOOP('',(#193,#194,#195,#196));
#43=EDGE_LOOP('',(#197,#198,#199,#200));
#44=EDGE_LOOP('',(#201,#202,#203,#204));
#45=EDGE_LOOP('',(#205,#206,#207,#208));
#46=EDGE_LOOP('',(#209,#210,#211,#212));
#47=EDGE_LOOP('',(#213,#214,#215,#216));
#48=EDGE_LOOP('',(#217,#218,#219,#220));
#49=EDGE_LOOP('',(#221,#222,#223,#224));
#50=EDGE_LOOP('',(#225,#226,#227,#228));
#51=EDGE_LOOP('',(#229,#230,#231,#232));
#52=EDGE_LOOP('',(#233,#234,#235,#236));
#53=EDGE_LOOP('',(#237,#238,#239,#240));
#54=EDGE_LOOP('',(#241,#242,#243,#244));
#55=EDGE_LOOP('',(#245,#246,#247,#248));
#56=EDGE_LOOP('',(#249,#250,#251,#252));
#57=LINE('',#385,#89);
#58=LINE('',#387,#90);
#59=LINE('',#389,#91);
#60=LINE('',#390,#92);
#61=LINE('',#395,#93);
#62=LINE('',#399,#94);
#63=LINE('',#401,#95);
#64=LINE('',#402,#96);
#65=LINE('',#409,#97);
#66=LINE('',#411,#98);
#67=LINE('',#413,#99);
#68=LINE('',#414,#100);
#69=LINE('',#417,#101);
#70=LINE('',#419,#102);
#71=LINE('',#420,#103);
#72=LINE('',#424,#104);
#73=LINE('',#426,#105);
#74=LINE('',#428,#106);
#75=LINE('',#429,#107);
#76=LINE('',#432,#108);
#77=LINE('',#434,#109);
#78=LINE('',#435,#110);
#79=LINE('',#438,#111);
#80=LINE('',#440,#112);
#81=LINE('',#441,#113);
#82=LINE('',#443,#114);
#83=LINE('',#444,#115);
#84=LINE('',#447,#116);
#85=LINE('',#449,#117);
#86=LINE('',#450,#118);
#87=LINE('',#452,#119);
#88=LINE('',#453,#120);
#89=VECTOR('',#315,10.);
#90=VECTOR('',#316,10.);
#91=VECTOR('',#317,10.);
#92=VECTOR('',#318,10.);
#93=VECTOR('',#323,10.);
#94=VECTOR('',#328,10.);
#95=VECTOR('',#329,10.);
#96=VECTOR('',#330,10.);
#97=VECTOR('',#339,10.);
#98=VECTOR('',#340,10.);
#99=VECTOR('',#341,10.);
#100=VECTOR('',#342,10.);
#101=VECTOR('',#345,10.);
#102=VECTOR('',#346,10.);
#103=VECTOR('',#347,10.);
#104=VECTOR('',#350,10.);
#105=VECTOR('',#351,10.);
#106=VECTOR('',#352,10.);
#107=VECTOR('',#353,10.);
#108=VECTOR('',#356,10.);
#109=VECTOR('',#357,10.);
#110=VECTOR('',#358,10.);
#111=VECTOR('',#361,10.);
#112=VECTOR('',#362,10.);
#113=VECTOR('',#363,10.);
#114=VECTOR('',#366,10.);
#115=VECTOR('',#367,10.);
#116=VECTOR('',#370,10.);
#117=VECTOR('',#371,10.);
#118=VECTOR('',#372,10.);
#119=VECTOR('',#375,10.);
#120=VECTOR('',#376,10.);
#121=VERTEX_POINT('',#383);
#122=VERTEX_POINT('',#384);
#123=VERTEX_POINT('',#386);
#124=VERTEX_POINT('',#388);
#125=VERTEX_POINT('',#392);
#126=VERTEX_POINT('',#394);
#127=VERTEX_POINT('',#398);
#128=VERTEX_POINT('',#400);
#129=VERTEX_POINT('',#407);
#130=VERTEX_POINT('',#408);
#131=VERTEX_POINT('',#410);
#132=VERTEX_POINT('',#412);
#133=VERTEX_POINT('',#416);
#134=VERTEX_POINT('',#418);
#135=VERTEX_POINT('',#422);
#136=VERTEX_POINT('',#423);
#137=VERTEX_POINT('',#425);
#138=VERTEX_POINT('',#427);
#139=VERTEX_POINT('',#431);
#140=VERTEX_POINT('',#433);
#141=VERTEX_POINT('',#437);
#142=VERTEX_POINT('',#439);
#143=VERTEX_POINT('',#446);
#144=VERTEX_POINT('',#448);
#145=EDGE_CURVE('',#121,#122,#57,.T.);
#146=EDGE_CURVE('',#123,#121,#58,.T.);
#147=EDGE_CURVE('',#124,#123,#59,.T.);
#148=EDGE_CURVE('',#122,#124,#60,.T.);
#149=EDGE_CURVE('',#125,#124,#19,.T.);
#150=EDGE_CURVE('',#125,#126,#61,.T.);
#151=EDGE_CURVE('',#122,#126,#20,.T.);
#152=EDGE_CURVE('',#126,#127,#62,.T.);
#153=EDGE_CURVE('',#128,#125,#63,.T.);
#154=EDGE_CURVE('',#127,#128,#64,.T.);
#155=EDGE_CURVE('',#127,#121,#21,.T.);
#156=EDGE_CURVE('',#123,#128,#22,.T.);
#157=EDGE_CURVE('',#129,#130,#65,.T.);
#158=EDGE_CURVE('',#129,#131,#66,.T.);
#159=EDGE_CURVE('',#132,#131,#67,.T.);
#160=EDGE_CURVE('',#130,#132,#68,.T.);
#161=EDGE_CURVE('',#130,#133,#69,.T.);
#162=EDGE_CURVE('',#134,#132,#70,.T.);
#163=EDGE_CURVE('',#133,#134,#71,.T.);
#164=EDGE_CURVE('',#135,#136,#72,.T.);
#165=EDGE_CURVE('',#136,#137,#73,.T.);
#166=EDGE_CURVE('',#138,#137,#74,.T.);
#167=EDGE_CURVE('',#135,#138,#75,.T.);
#168=EDGE_CURVE('',#139,#135,#76,.T.);
#169=EDGE_CURVE('',#140,#138,#77,.T.);
#170=EDGE_CURVE('',#139,#140,#78,.T.);
#171=EDGE_CURVE('',#141,#139,#79,.T.);
#172=EDGE_CURVE('',#142,#140,#80,.T.);
#173=EDGE_CURVE('',#141,#142,#81,.T.);
#174=EDGE_CURVE('',#136,#141,#82,.T.);
#175=EDGE_CURVE('',#137,#142,#83,.T.);
#176=EDGE_CURVE('',#143,#133,#84,.T.);
#177=EDGE_CURVE('',#144,#134,#85,.T.);
#178=EDGE_CURVE('',#143,#144,#86,.T.);
#179=EDGE_CURVE('',#129,#143,#87,.T.);
#180=EDGE_CURVE('',#131,#144,#88,.T.);
#181=ORIENTED_EDGE('',*,*,#145,.F.);
#182=ORIENTED_EDGE('',*,*,#146,.F.);
#183=ORIENTED_EDGE('',*,*,#147,.F.);
#184=ORIENTED_EDGE('',*,*,#148,.F.);
#185=ORIENTED_EDGE('',*,*,#148,.T.);
#186=ORIENTED_EDGE('',*,*,#149,.F.);
#187=ORIENTED_EDGE('',*,*,#150,.T.);
#188=ORIENTED_EDGE('',*,*,#151,.F.);
#189=ORIENTED_EDGE('',*,*,#152,.F.);
#190=ORIENTED_EDGE('',*,*,#150,.F.);
#191=ORIENTED_EDGE('',*,*,#153,.F.);
#192=ORIENTED_EDGE('',*,*,#154,.F.);
#193=ORIENTED_EDGE('',*,*,#146,.T.);
#194=ORIENTED_EDGE('',*,*,#155,.F.);
#195=ORIENTED_EDGE('',*,*,#154,.T.);
#196=ORIENTED_EDGE('',*,*,#156,.F.);
#197=ORIENTED_EDGE('',*,*,#157,.F.);
#198=ORIENTED_EDGE('',*,*,#158,.T.);
#199=ORIENTED_EDGE('',*,*,#159,.F.);
#200=ORIENTED_EDGE('',*,*,#160,.F.);
#201=ORIENTED_EDGE('',*,*,#161,.F.);
#202=ORIENTED_EDGE('',*,*,#160,.T.);
#203=ORIENTED_EDGE('',*,*,#162,.F.);
#204=ORIENTED_EDGE('',*,*,#163,.F.);
#205=ORIENTED_EDGE('',*,*,#164,.T.);
#206=ORIENTED_EDGE('',*,*,#165,.T.);
#207=ORIENTED_EDGE('',*,*,#166,.F.);
#208=ORIENTED_EDGE('',*,*,#167,.F.);
#209=ORIENTED_EDGE('',*,*,#168,.T.);
#210=ORIENTED_EDGE('',*,*,#167,.T.);
#211=ORIENTED_EDGE('',*,*,#169,.F.);
#212=ORIENTED_EDGE('',*,*,#170,.F.);
#213=ORIENTED_EDGE('',*,*,#171,.T.);
#214=ORIENTED_EDGE('',*,*,#170,.T.);
#215=ORIENTED_EDGE('',*,*,#172,.F.);
#216=ORIENTED_EDGE('',*,*,#173,.F.);
#217=ORIENTED_EDGE('',*,*,#174,.T.);
#218=ORIENTED_EDGE('',*,*,#173,.T.);
#219=ORIENTED_EDGE('',*,*,#175,.F.);
#220=ORIENTED_EDGE('',*,*,#165,.F.);
#221=ORIENTED_EDGE('',*,*,#176,.T.);
#222=ORIENTED_EDGE('',*,*,#163,.T.);
#223=ORIENTED_EDGE('',*,*,#177,.F.);
#224=ORIENTED_EDGE('',*,*,#178,.F.);
#225=ORIENTED_EDGE('',*,*,#179,.T.);
#226=ORIENTED_EDGE('',*,*,#178,.T.);
#227=ORIENTED_EDGE('',*,*,#180,.F.);
#228=ORIENTED_EDGE('',*,*,#158,.F.);
#229=ORIENTED_EDGE('',*,*,#174,.F.);
#230=ORIENTED_EDGE('',*,*,#164,.F.);
#231=ORIENTED_EDGE('',*,*,#168,.F.);
#232=ORIENTED_EDGE('',*,*,#171,.F.);
#233=ORIENTED_EDGE('',*,*,#157,.T.);
#234=ORIENTED_EDGE('',*,*,#161,.T.);
#235=ORIENTED_EDGE('',*,*,#176,.F.);
#236=ORIENTED_EDGE('',*,*,#179,.F.);
#237=ORIENTED_EDGE('',*,*,#145,.T.);
#238=ORIENTED_EDGE('',*,*,#151,.T.);
#239=ORIENTED_EDGE('',*,*,#152,.T.);
#240=ORIENTED_EDGE('',*,*,#155,.T.);
#241=ORIENTED_EDGE('',*,*,#175,.T.);
#242=ORIENTED_EDGE('',*,*,#172,.T.);
#243=ORIENTED_EDGE('',*,*,#169,.T.);
#244=ORIENTED_EDGE('',*,*,#166,.T.);
#245=ORIENTED_EDGE('',*,*,#156,.T.);
#246=ORIENTED_EDGE('',*,*,#153,.T.);
#247=ORIENTED_EDGE('',*,*,#149,.T.);
#248=ORIENTED_EDGE('',*,*,#147,.T.);
#249=ORIENTED_EDGE('',*,*,#159,.T.);
#250=ORIENTED_EDGE('',*,*,#180,.T.);
#251=ORIENTED_EDGE('',*,*,#177,.T.);
#252=ORIENTED_EDGE('',*,*,#162,.T.);
#253=PLANE('',#293);
#254=PLANE('',#297);
#255=PLANE('',#301);
#256=PLANE('',#302);
#257=PLANE('',#303);
#258=PLANE('',#304);
#259=PLANE('',#305);
#260=PLANE('',#306);
#261=PLANE('',#307);
#262=PLANE('',#308);
#263=PLANE('',#309);
#264=PLANE('',#310);
#265=ADVANCED_FACE('',(#25),#253,.T.);
#266=ADVANCED_FACE('',(#26),#23,.T.);
#267=ADVANCED_FACE('',(#27),#254,.T.);
#268=ADVANCED_FACE('',(#28),#24,.F.);
#269=ADVANCED_FACE('',(#29),#255,.T.);
#270=ADVANCED_FACE('',(#30),#256,.T.);
#271=ADVANCED_FACE('',(#31),#257,.T.);
#272=ADVANCED_FACE('',(#32),#258,.T.);
#273=ADVANCED_FACE('',(#33),#259,.T.);
#274=ADVANCED_FACE('',(#34),#260,.T.);
#275=ADVANCED_FACE('',(#35),#261,.T.);
#276=ADVANCED_FACE('',(#36),#262,.T.);
#277=ADVANCED_FACE('',(#37,#15,#16),#263,.T.);
#278=ADVANCED_FACE('',(#38,#17,#18),#264,.F.);
#279=CLOSED_SHELL('',(#265,#266,#267,#268,#269,#270,#271,#272,#273,#274,
#275,#276,#277,#278));
#280=DERIVED_UNIT_ELEMENT(#282,1.);
#281=DERIVED_UNIT_ELEMENT(#461,-3.);
#282=(
MASS_UNIT()
NAMED_UNIT(*)
SI_UNIT(.KILO.,.GRAM.)
);
#283=DERIVED_UNIT((#280,#281));
#284=MEASURE_REPRESENTATION_ITEM('density measure',
POSITIVE_RATIO_MEASURE(7850.),#283);
#285=PROPERTY_DEFINITION_REPRESENTATION(#290,#287);
#286=PROPERTY_DEFINITION_REPRESENTATION(#291,#288);
#287=REPRESENTATION('material name',(#289),#458);
#288=REPRESENTATION('density',(#284),#458);
#289=DESCRIPTIVE_REPRESENTATION_ITEM('Steel','Steel');
#290=PROPERTY_DEFINITION('material property','material name',#468);
#291=PROPERTY_DEFINITION('material property','density of part',#468);
#292=AXIS2_PLACEMENT_3D('',#381,#311,#312);
#293=AXIS2_PLACEMENT_3D('',#382,#313,#314);
#294=AXIS2_PLACEMENT_3D('',#391,#319,#320);
#295=AXIS2_PLACEMENT_3D('',#393,#321,#322);
#296=AXIS2_PLACEMENT_3D('',#396,#324,#325);
#297=AXIS2_PLACEMENT_3D('',#397,#326,#327);
#298=AXIS2_PLACEMENT_3D('',#403,#331,#332);
#299=AXIS2_PLACEMENT_3D('',#404,#333,#334);
#300=AXIS2_PLACEMENT_3D('',#405,#335,#336);
#301=AXIS2_PLACEMENT_3D('',#406,#337,#338);
#302=AXIS2_PLACEMENT_3D('',#415,#343,#344);
#303=AXIS2_PLACEMENT_3D('',#421,#348,#349);
#304=AXIS2_PLACEMENT_3D('',#430,#354,#355);
#305=AXIS2_PLACEMENT_3D('',#436,#359,#360);
#306=AXIS2_PLACEMENT_3D('',#442,#364,#365);
#307=AXIS2_PLACEMENT_3D('',#445,#368,#369);
#308=AXIS2_PLACEMENT_3D('',#451,#373,#374);
#309=AXIS2_PLACEMENT_3D('',#454,#377,#378);
#310=AXIS2_PLACEMENT_3D('',#455,#379,#380);
#311=DIRECTION('axis',(0.,0.,1.));
#312=DIRECTION('refdir',(1.,0.,0.));
#313=DIRECTION('center_axis',(0.,-0.573576436350826,-0.819152044289146));
#314=DIRECTION('ref_axis',(0.,0.819152044289146,-0.573576436350826));
#315=DIRECTION('',(0.,-0.819152044289146,0.573576436350826));
#316=DIRECTION('',(-1.,0.,0.));
#317=DIRECTION('',(0.,0.819152044289146,-0.573576436350826));
#318=DIRECTION('',(1.,0.,0.));
#319=DIRECTION('center_axis',(1.,0.,0.));
#320=DIRECTION('ref_axis',(0.,-0.999999999999995,9.92805144149308E-8));
#321=DIRECTION('center_axis',(1.,0.,0.));
#322=DIRECTION('ref_axis',(0.,0.,-1.));
#323=DIRECTION('',(-1.,0.,0.));
#324=DIRECTION('center_axis',(-1.,0.,0.));
#325=DIRECTION('ref_axis',(0.,0.,-1.));
#326=DIRECTION('center_axis',(0.,-0.573576436350923,0.819152044289078));
#327=DIRECTION('ref_axis',(0.,-0.819152044289078,-0.573576436350923));
#328=DIRECTION('',(0.,0.819152044289078,0.573576436350923));
#329=DIRECTION('',(0.,-0.819152044289078,-0.573576436350923));
#330=DIRECTION('',(1.,0.,0.));
#331=DIRECTION('center_axis',(1.,0.,0.));
#332=DIRECTION('ref_axis',(0.,-0.999999999999997,8.27337522322743E-8));
#333=DIRECTION('center_axis',(1.,0.,0.));
#334=DIRECTION('ref_axis',(0.,0.,-1.));
#335=DIRECTION('center_axis',(-1.,0.,0.));
#336=DIRECTION('ref_axis',(0.,0.,-1.));
#337=DIRECTION('center_axis',(0.,-2.61228946970623E-15,1.));
#338=DIRECTION('ref_axis',(0.,-1.,-2.61228946970623E-15));
#339=DIRECTION('',(0.,1.,2.61228946970623E-15));
#340=DIRECTION('',(1.,0.,0.));
#341=DIRECTION('',(0.,-1.,-2.61228946970623E-15));
#342=DIRECTION('',(1.,0.,0.));
#343=DIRECTION('center_axis',(0.,-1.,-8.88178419700144E-15));
#344=DIRECTION('ref_axis',(0.,8.88178419700144E-15,-1.));
#345=DIRECTION('',(0.,-8.88178419700144E-15,1.));
#346=DIRECTION('',(0.,8.88178419700144E-15,-1.));
#347=DIRECTION('',(1.,0.,0.));
#348=DIRECTION('center_axis',(0.,1.,0.));
#349=DIRECTION('ref_axis',(0.,0.,1.));
#350=DIRECTION('',(0.,0.,1.));
#351=DIRECTION('',(1.,0.,0.));
#352=DIRECTION('',(0.,0.,1.));
#353=DIRECTION('',(1.,0.,0.));
#354=DIRECTION('center_axis',(0.,0.,-1.));
#355=DIRECTION('ref_axis',(0.,1.,0.));
#356=DIRECTION('',(0.,1.,0.));
#357=DIRECTION('',(0.,1.,0.));
#358=DIRECTION('',(1.,0.,0.));
#359=DIRECTION('center_axis',(0.,-1.,-8.88178419700125E-16));
#360=DIRECTION('ref_axis',(0.,8.88178419700125E-16,-1.));
#361=DIRECTION('',(0.,8.88178419700125E-16,-1.));
#362=DIRECTION('',(0.,8.88178419700125E-16,-1.));
#363=DIRECTION('',(1.,0.,0.));
#364=DIRECTION('center_axis',(0.,0.,1.));
#365=DIRECTION('ref_axis',(0.,-1.,0.));
#366=DIRECTION('',(0.,-1.,0.));
#367=DIRECTION('',(0.,-1.,0.));
#368=DIRECTION('center_axis',(0.,0.,-1.));
#369=DIRECTION('ref_axis',(0.,1.,0.));
#370=DIRECTION('',(0.,1.,0.));
#371=DIRECTION('',(0.,1.,0.));
#372=DIRECTION('',(1.,0.,0.));
#373=DIRECTION('center_axis',(0.,1.,-1.77635683940026E-14));
#374=DIRECTION('ref_axis',(0.,1.77635683940026E-14,1.));
#375=DIRECTION('',(0.,1.77635683940026E-14,1.));
#376=DIRECTION('',(0.,1.77635683940026E-14,1.));
#377=DIRECTION('center_axis',(-1.,0.,0.));
#378=DIRECTION('ref_axis',(0.,-1.,0.));
#379=DIRECTION('center_axis',(-1.,0.,0.));
#380=DIRECTION('ref_axis',(0.,-1.,0.));
#381=CARTESIAN_POINT('',(0.,0.,0.));
#382=CARTESIAN_POINT('Origin',(150.5,53.795758377972,58.1321151854942));
#383=CARTESIAN_POINT('',(150.5,54.6149104222604,57.5585387491439));
#384=CARTESIAN_POINT('',(150.5,53.795758377972,58.1321151854942));
#385=CARTESIAN_POINT('',(150.5,53.795758377972,58.1321151854942));
#386=CARTESIAN_POINT('',(151.,54.6149104222604,57.5585387491439));
#387=CARTESIAN_POINT('',(150.5,54.6149104222604,57.5585387491439));
#388=CARTESIAN_POINT('',(151.,53.795758377972,58.1321151854942));
#389=CARTESIAN_POINT('',(151.,53.795758377972,58.1321151854942));
#390=CARTESIAN_POINT('',(150.5,53.7957583779711,58.1321151854948));
#391=CARTESIAN_POINT('Origin',(150.5,49.7,61.0000000000017));
#392=CARTESIAN_POINT('',(151.,53.7957589474216,63.8678840012508));
#393=CARTESIAN_POINT('Origin',(151.,49.7,61.0000000000017));
#394=CARTESIAN_POINT('',(150.5,53.7957589474216,63.8678840012508));
#395=CARTESIAN_POINT('',(150.5,53.7957589474212,63.8678840012505));
#396=CARTESIAN_POINT('Origin',(150.5,49.7,61.0000000000017));
#397=CARTESIAN_POINT('Origin',(150.5,54.6149109917104,64.4414604376015));
#398=CARTESIAN_POINT('',(150.5,54.6149109917104,64.4414604376015));
#399=CARTESIAN_POINT('',(150.5,53.7957589474216,63.8678840012508));
#400=CARTESIAN_POINT('',(151.,54.6149109917104,64.4414604376015));
#401=CARTESIAN_POINT('',(151.,53.7957589474216,63.8678840012508));
#402=CARTESIAN_POINT('',(150.5,54.6149109917104,64.4414604376015));
#403=CARTESIAN_POINT('Origin',(150.5,49.7,61.0000000000017));
#404=CARTESIAN_POINT('Origin',(150.5,49.7,61.0000000000017));
#405=CARTESIAN_POINT('Origin',(151.,49.7,61.0000000000017));
#406=CARTESIAN_POINT('Origin',(150.5,56.5,60.5000000000017));
#407=CARTESIAN_POINT('',(150.5,49.7,60.5000000000017));
#408=CARTESIAN_POINT('',(150.5,56.5,60.5000000000017));
#409=CARTESIAN_POINT('',(150.5,56.5,60.5000000000017));
#410=CARTESIAN_POINT('',(151.,49.7,60.5000000000017));
#411=CARTESIAN_POINT('',(150.5,49.7,60.5000000000017));
#412=CARTESIAN_POINT('',(151.,56.5,60.5000000000017));
#413=CARTESIAN_POINT('',(151.,56.5,60.5000000000017));
#414=CARTESIAN_POINT('',(150.5,56.5,60.5000000000017));
#415=CARTESIAN_POINT('Origin',(150.5,56.5,61.5000000000017));
#416=CARTESIAN_POINT('',(150.5,56.5,61.5000000000017));
#417=CARTESIAN_POINT('',(150.5,56.5,61.5000000000017));
#418=CARTESIAN_POINT('',(151.,56.5,61.5000000000017));
#419=CARTESIAN_POINT('',(151.,56.5,61.5000000000017));
#420=CARTESIAN_POINT('',(150.5,56.5,61.5000000000017));
#421=CARTESIAN_POINT('Origin',(150.5,60.2,51.0000000000017));
#422=CARTESIAN_POINT('',(150.5,60.2,51.0000000000017));
#423=CARTESIAN_POINT('',(150.5,60.2,71.0000000000017));
#424=CARTESIAN_POINT('',(150.5,60.2,51.0000000000017));
#425=CARTESIAN_POINT('',(151.,60.2,71.0000000000017));
#426=CARTESIAN_POINT('',(150.5,60.2,71.0000000000017));
#427=CARTESIAN_POINT('',(151.,60.2,51.0000000000017));
#428=CARTESIAN_POINT('',(151.,60.2,51.0000000000017));
#429=CARTESIAN_POINT('',(150.5,60.2,51.0000000000017));
#430=CARTESIAN_POINT('Origin',(150.5,40.2,51.0000000000017));
#431=CARTESIAN_POINT('',(150.5,40.2,51.0000000000017));
#432=CARTESIAN_POINT('',(150.5,40.2,51.0000000000017));
#433=CARTESIAN_POINT('',(151.,40.2,51.0000000000017));
#434=CARTESIAN_POINT('',(151.,40.2,51.0000000000017));
#435=CARTESIAN_POINT('',(150.5,40.2,51.0000000000017));
#436=CARTESIAN_POINT('Origin',(150.5,40.2,71.0000000000017));
#437=CARTESIAN_POINT('',(150.5,40.2,71.0000000000017));
#438=CARTESIAN_POINT('',(150.5,40.2,71.0000000000017));
#439=CARTESIAN_POINT('',(151.,40.2,71.0000000000017));
#440=CARTESIAN_POINT('',(151.,40.2,71.0000000000017));
#441=CARTESIAN_POINT('',(150.5,40.2,71.0000000000017));
#442=CARTESIAN_POINT('Origin',(150.5,60.2,71.0000000000017));
#443=CARTESIAN_POINT('',(150.5,60.2,71.0000000000017));
#444=CARTESIAN_POINT('',(151.,60.2,71.0000000000017));
#445=CARTESIAN_POINT('Origin',(150.5,49.7,61.5000000000017));
#446=CARTESIAN_POINT('',(150.5,49.7,61.5000000000017));
#447=CARTESIAN_POINT('',(150.5,49.7,61.5000000000017));
#448=CARTESIAN_POINT('',(151.,49.7,61.5000000000017));
#449=CARTESIAN_POINT('',(151.,49.7,61.5000000000017));
#450=CARTESIAN_POINT('',(150.5,49.7,61.5000000000017));
#451=CARTESIAN_POINT('Origin',(150.5,49.7,60.5000000000017));
#452=CARTESIAN_POINT('',(150.5,49.7,60.5000000000017));
#453=CARTESIAN_POINT('',(151.,49.7,60.5000000000017));
#454=CARTESIAN_POINT('Origin',(150.5,49.6874685927665,61.0000000000017));
#455=CARTESIAN_POINT('Origin',(151.,49.6874685927665,61.0000000000017));
#456=UNCERTAINTY_MEASURE_WITH_UNIT(LENGTH_MEASURE(0.01),#460,
'DISTANCE_ACCURACY_VALUE',
'Maximum model space distance between geometric entities at asserted c
onnectivities');
#457=UNCERTAINTY_MEASURE_WITH_UNIT(LENGTH_MEASURE(0.01),#460,
'DISTANCE_ACCURACY_VALUE',
'Maximum model space distance between geometric entities at asserted c
onnectivities');
#458=(
GEOMETRIC_REPRESENTATION_CONTEXT(3)
GLOBAL_UNCERTAINTY_ASSIGNED_CONTEXT((#456))
GLOBAL_UNIT_ASSIGNED_CONTEXT((#460,#462,#463))
REPRESENTATION_CONTEXT('','3D')
);
#459=(
GEOMETRIC_REPRESENTATION_CONTEXT(3)
GLOBAL_UNCERTAINTY_ASSIGNED_CONTEXT((#457))
GLOBAL_UNIT_ASSIGNED_CONTEXT((#460,#462,#463))
REPRESENTATION_CONTEXT('','3D')
);
#460=(
LENGTH_UNIT()
NAMED_UNIT(*)
SI_UNIT(.MILLI.,.METRE.)
);
#461=(
LENGTH_UNIT()
NAMED_UNIT(*)
SI_UNIT($,.METRE.)
);
#462=(
NAMED_UNIT(*)
PLANE_ANGLE_UNIT()
SI_UNIT($,.RADIAN.)
);
#463=(
NAMED_UNIT(*)
SI_UNIT($,.STERADIAN.)
SOLID_ANGLE_UNIT()
);
#464=SHAPE_DEFINITION_REPRESENTATION(#465,#466);
#465=PRODUCT_DEFINITION_SHAPE('',$,#468);
#466=SHAPE_REPRESENTATION('',(#292),#458);
#467=PRODUCT_DEFINITION_CONTEXT('part definition',#472,'design');
#468=PRODUCT_DEFINITION('Metalsheet','Metalsheet v1',#469,#467);
#469=PRODUCT_DEFINITION_FORMATION('',$,#474);
#470=PRODUCT_RELATED_PRODUCT_CATEGORY('Metalsheet v1','Metalsheet v1',(#474));
#471=APPLICATION_PROTOCOL_DEFINITION('international standard',
'automotive_design',2009,#472);
#472=APPLICATION_CONTEXT(
'Core Data for Automotive Mechanical Design Process');
#473=PRODUCT_CONTEXT('part definition',#472,'mechanical');
#474=PRODUCT('Metalsheet','Metalsheet v1',$,(#473));
#475=PRESENTATION_STYLE_ASSIGNMENT((#476));
#476=SURFACE_STYLE_USAGE(.BOTH.,#477);
#477=SURFACE_SIDE_STYLE('',(#478));
#478=SURFACE_STYLE_FILL_AREA(#479);
#479=FILL_AREA_STYLE('Steel - Satin',(#480));
#480=FILL_AREA_STYLE_COLOUR('Steel - Satin',#481);
#481=COLOUR_RGB('Steel - Satin',0.627450980392157,0.627450980392157,0.627450980392157);
ENDSEC;
END-ISO-10303-21;
