ISO-10303-21;
HEADER;
/* Generated by software containing ST-Developer
 * from STEP Tools, Inc. (www.steptools.com) 
 */

FILE_DESCRIPTION(
/* description */ (''),
/* implementation_level */ '2;1');

FILE_NAME(
/* name */ 'BOUTONPLEIN.step',
/* time_stamp */ '2026-03-25T23:31:07+01:00',
/* author */ (''),
/* organization */ (''),
/* preprocessor_version */ 'ST-DEVELOPER v20.1',
/* originating_system */ 'Autodesk Translation Framework v14.24.0.0',
/* authorisation */ '');

FILE_SCHEMA (('AUTOMOTIVE_DESIGN { 1 0 10303 214 3 1 1 }'));
ENDSEC;

DATA;
#10=MECHANICAL_DESIGN_GEOMETRIC_PRESENTATION_REPRESENTATION('',(#13),#379);
#11=SHAPE_REPRESENTATION_RELATIONSHIP('SRR','None',#386,#12);
#12=ADVANCED_BREP_SHAPE_REPRESENTATION('',(#14),#378);
#13=STYLED_ITEM('',(#395),#14);
#14=MANIFOLD_SOLID_BREP('Body2',#223);
#15=PLANE('',#240);
#16=PLANE('',#241);
#17=PLANE('',#242);
#18=PLANE('',#244);
#19=PLANE('',#246);
#20=PLANE('',#247);
#21=PLANE('',#249);
#22=PLANE('',#250);
#23=PLANE('',#251);
#24=PLANE('',#252);
#25=PLANE('',#253);
#26=PLANE('',#254);
#27=FACE_OUTER_BOUND('',#41,.T.);
#28=FACE_OUTER_BOUND('',#42,.T.);
#29=FACE_OUTER_BOUND('',#43,.T.);
#30=FACE_OUTER_BOUND('',#44,.T.);
#31=FACE_OUTER_BOUND('',#45,.T.);
#32=FACE_OUTER_BOUND('',#46,.T.);
#33=FACE_OUTER_BOUND('',#47,.T.);
#34=FACE_OUTER_BOUND('',#48,.T.);
#35=FACE_OUTER_BOUND('',#49,.T.);
#36=FACE_OUTER_BOUND('',#50,.T.);
#37=FACE_OUTER_BOUND('',#51,.T.);
#38=FACE_OUTER_BOUND('',#52,.T.);
#39=FACE_OUTER_BOUND('',#53,.T.);
#40=FACE_OUTER_BOUND('',#54,.T.);
#41=EDGE_LOOP('',(#151,#152,#153,#154));
#42=EDGE_LOOP('',(#155,#156,#157,#158));
#43=EDGE_LOOP('',(#159,#160,#161,#162));
#44=EDGE_LOOP('',(#163,#164,#165,#166));
#45=EDGE_LOOP('',(#167,#168,#169,#170));
#46=EDGE_LOOP('',(#171,#172,#173,#174));
#47=EDGE_LOOP('',(#175,#176,#177,#178));
#48=EDGE_LOOP('',(#179,#180,#181,#182));
#49=EDGE_LOOP('',(#183,#184,#185,#186));
#50=EDGE_LOOP('',(#187,#188,#189,#190));
#51=EDGE_LOOP('',(#191,#192,#193,#194));
#52=EDGE_LOOP('',(#195,#196,#197,#198));
#53=EDGE_LOOP('',(#199,#200,#201,#202));
#54=EDGE_LOOP('',(#203,#204,#205,#206));
#55=CIRCLE('',#238,0.509999999999984);
#56=CIRCLE('',#239,0.510000000000019);
#57=CIRCLE('',#243,0.00999999999997669);
#58=CIRCLE('',#245,0.00999999999997669);
#59=LINE('',#321,#83);
#60=LINE('',#325,#84);
#61=LINE('',#329,#85);
#62=LINE('',#331,#86);
#63=LINE('',#333,#87);
#64=LINE('',#334,#88);
#65=LINE('',#337,#89);
#66=LINE('',#339,#90);
#67=LINE('',#340,#91);
#68=LINE('',#342,#92);
#69=LINE('',#345,#93);
#70=LINE('',#348,#94);
#71=LINE('',#352,#95);
#72=LINE('',#353,#96);
#73=LINE('',#355,#97);
#74=LINE('',#357,#98);
#75=LINE('',#361,#99);
#76=LINE('',#363,#100);
#77=LINE('',#364,#101);
#78=LINE('',#367,#102);
#79=LINE('',#369,#103);
#80=LINE('',#370,#104);
#81=LINE('',#372,#105);
#82=LINE('',#373,#106);
#83=VECTOR('',#259,10.);
#84=VECTOR('',#262,10.);
#85=VECTOR('',#267,10.);
#86=VECTOR('',#268,0.23);
#87=VECTOR('',#269,10.);
#88=VECTOR('',#270,0.23);
#89=VECTOR('',#273,10.);
#90=VECTOR('',#274,0.23);
#91=VECTOR('',#275,10.);
#92=VECTOR('',#278,10.);
#93=VECTOR('',#281,10.);
#94=VECTOR('',#284,10.);
#95=VECTOR('',#289,10.);
#96=VECTOR('',#290,10.);
#97=VECTOR('',#293,10.);
#98=VECTOR('',#296,10.);
#99=VECTOR('',#301,10.);
#100=VECTOR('',#302,10.);
#101=VECTOR('',#303,10.);
#102=VECTOR('',#306,10.);
#103=VECTOR('',#307,10.);
#104=VECTOR('',#308,10.);
#105=VECTOR('',#311,10.);
#106=VECTOR('',#312,10.);
#107=VERTEX_POINT('',#319);
#108=VERTEX_POINT('',#320);
#109=VERTEX_POINT('',#322);
#110=VERTEX_POINT('',#324);
#111=VERTEX_POINT('',#328);
#112=VERTEX_POINT('',#330);
#113=VERTEX_POINT('',#332);
#114=VERTEX_POINT('',#336);
#115=VERTEX_POINT('',#338);
#116=VERTEX_POINT('',#343);
#117=VERTEX_POINT('',#347);
#118=VERTEX_POINT('',#351);
#119=VERTEX_POINT('',#360);
#120=VERTEX_POINT('',#362);
#121=VERTEX_POINT('',#366);
#122=VERTEX_POINT('',#368);
#123=EDGE_CURVE('',#107,#108,#59,.T.);
#124=EDGE_CURVE('',#107,#109,#55,.T.);
#125=EDGE_CURVE('',#110,#109,#60,.T.);
#126=EDGE_CURVE('',#110,#108,#56,.T.);
#127=EDGE_CURVE('',#108,#111,#61,.T.);
#128=EDGE_CURVE('',#112,#111,#62,.T.);
#129=EDGE_CURVE('',#112,#113,#63,.T.);
#130=EDGE_CURVE('',#108,#113,#64,.T.);
#131=EDGE_CURVE('',#111,#114,#65,.T.);
#132=EDGE_CURVE('',#115,#114,#66,.T.);
#133=EDGE_CURVE('',#115,#112,#67,.T.);
#134=EDGE_CURVE('',#114,#107,#68,.T.);
#135=EDGE_CURVE('',#114,#116,#57,.T.);
#136=EDGE_CURVE('',#116,#109,#69,.T.);
#137=EDGE_CURVE('',#117,#110,#70,.T.);
#138=EDGE_CURVE('',#111,#117,#58,.T.);
#139=EDGE_CURVE('',#118,#107,#71,.T.);
#140=EDGE_CURVE('',#115,#118,#72,.T.);
#141=EDGE_CURVE('',#113,#118,#73,.T.);
#142=EDGE_CURVE('',#117,#116,#74,.T.);
#143=EDGE_CURVE('',#116,#119,#75,.T.);
#144=EDGE_CURVE('',#119,#120,#76,.T.);
#145=EDGE_CURVE('',#109,#120,#77,.T.);
#146=EDGE_CURVE('',#121,#117,#78,.T.);
#147=EDGE_CURVE('',#122,#110,#79,.T.);
#148=EDGE_CURVE('',#121,#122,#80,.T.);
#149=EDGE_CURVE('',#119,#121,#81,.T.);
#150=EDGE_CURVE('',#120,#122,#82,.T.);
#151=ORIENTED_EDGE('',*,*,#123,.F.);
#152=ORIENTED_EDGE('',*,*,#124,.T.);
#153=ORIENTED_EDGE('',*,*,#125,.F.);
#154=ORIENTED_EDGE('',*,*,#126,.T.);
#155=ORIENTED_EDGE('',*,*,#127,.T.);
#156=ORIENTED_EDGE('',*,*,#128,.F.);
#157=ORIENTED_EDGE('',*,*,#129,.T.);
#158=ORIENTED_EDGE('',*,*,#130,.F.);
#159=ORIENTED_EDGE('',*,*,#131,.T.);
#160=ORIENTED_EDGE('',*,*,#132,.F.);
#161=ORIENTED_EDGE('',*,*,#133,.T.);
#162=ORIENTED_EDGE('',*,*,#128,.T.);
#163=ORIENTED_EDGE('',*,*,#134,.F.);
#164=ORIENTED_EDGE('',*,*,#135,.T.);
#165=ORIENTED_EDGE('',*,*,#136,.T.);
#166=ORIENTED_EDGE('',*,*,#124,.F.);
#167=ORIENTED_EDGE('',*,*,#127,.F.);
#168=ORIENTED_EDGE('',*,*,#126,.F.);
#169=ORIENTED_EDGE('',*,*,#137,.F.);
#170=ORIENTED_EDGE('',*,*,#138,.F.);
#171=ORIENTED_EDGE('',*,*,#134,.T.);
#172=ORIENTED_EDGE('',*,*,#139,.F.);
#173=ORIENTED_EDGE('',*,*,#140,.F.);
#174=ORIENTED_EDGE('',*,*,#132,.T.);
#175=ORIENTED_EDGE('',*,*,#133,.F.);
#176=ORIENTED_EDGE('',*,*,#140,.T.);
#177=ORIENTED_EDGE('',*,*,#141,.F.);
#178=ORIENTED_EDGE('',*,*,#129,.F.);
#179=ORIENTED_EDGE('',*,*,#131,.F.);
#180=ORIENTED_EDGE('',*,*,#138,.T.);
#181=ORIENTED_EDGE('',*,*,#142,.T.);
#182=ORIENTED_EDGE('',*,*,#135,.F.);
#183=ORIENTED_EDGE('',*,*,#123,.T.);
#184=ORIENTED_EDGE('',*,*,#130,.T.);
#185=ORIENTED_EDGE('',*,*,#141,.T.);
#186=ORIENTED_EDGE('',*,*,#139,.T.);
#187=ORIENTED_EDGE('',*,*,#143,.T.);
#188=ORIENTED_EDGE('',*,*,#144,.T.);
#189=ORIENTED_EDGE('',*,*,#145,.F.);
#190=ORIENTED_EDGE('',*,*,#136,.F.);
#191=ORIENTED_EDGE('',*,*,#146,.T.);
#192=ORIENTED_EDGE('',*,*,#137,.T.);
#193=ORIENTED_EDGE('',*,*,#147,.F.);
#194=ORIENTED_EDGE('',*,*,#148,.F.);
#195=ORIENTED_EDGE('',*,*,#149,.T.);
#196=ORIENTED_EDGE('',*,*,#148,.T.);
#197=ORIENTED_EDGE('',*,*,#150,.F.);
#198=ORIENTED_EDGE('',*,*,#144,.F.);
#199=ORIENTED_EDGE('',*,*,#149,.F.);
#200=ORIENTED_EDGE('',*,*,#143,.F.);
#201=ORIENTED_EDGE('',*,*,#142,.F.);
#202=ORIENTED_EDGE('',*,*,#146,.F.);
#203=ORIENTED_EDGE('',*,*,#150,.T.);
#204=ORIENTED_EDGE('',*,*,#147,.T.);
#205=ORIENTED_EDGE('',*,*,#125,.T.);
#206=ORIENTED_EDGE('',*,*,#145,.T.);
#207=CYLINDRICAL_SURFACE('',#237,0.509999999999987);
#208=CYLINDRICAL_SURFACE('',#248,0.00999999999997985);
#209=ADVANCED_FACE('',(#27),#207,.T.);
#210=ADVANCED_FACE('',(#28),#15,.T.);
#211=ADVANCED_FACE('',(#29),#16,.T.);
#212=ADVANCED_FACE('',(#30),#17,.T.);
#213=ADVANCED_FACE('',(#31),#18,.T.);
#214=ADVANCED_FACE('',(#32),#19,.T.);
#215=ADVANCED_FACE('',(#33),#20,.T.);
#216=ADVANCED_FACE('',(#34),#208,.F.);
#217=ADVANCED_FACE('',(#35),#21,.T.);
#218=ADVANCED_FACE('',(#36),#22,.T.);
#219=ADVANCED_FACE('',(#37),#23,.T.);
#220=ADVANCED_FACE('',(#38),#24,.T.);
#221=ADVANCED_FACE('',(#39),#25,.T.);
#222=ADVANCED_FACE('',(#40),#26,.T.);
#223=CLOSED_SHELL('',(#209,#210,#211,#212,#213,#214,#215,#216,#217,#218,
#219,#220,#221,#222));
#224=DERIVED_UNIT_ELEMENT(#226,1.);
#225=DERIVED_UNIT_ELEMENT(#381,-3.);
#226=(
MASS_UNIT()
NAMED_UNIT(*)
SI_UNIT(.KILO.,.GRAM.)
);
#227=DERIVED_UNIT((#224,#225));
#228=MEASURE_REPRESENTATION_ITEM('density measure',
POSITIVE_RATIO_MEASURE(7850.),#227);
#229=PROPERTY_DEFINITION_REPRESENTATION(#234,#231);
#230=PROPERTY_DEFINITION_REPRESENTATION(#235,#232);
#231=REPRESENTATION('material name',(#233),#378);
#232=REPRESENTATION('density',(#228),#378);
#233=DESCRIPTIVE_REPRESENTATION_ITEM('Steel','Steel');
#234=PROPERTY_DEFINITION('material property','material name',#388);
#235=PROPERTY_DEFINITION('material property','density of part',#388);
#236=AXIS2_PLACEMENT_3D('',#317,#255,#256);
#237=AXIS2_PLACEMENT_3D('',#318,#257,#258);
#238=AXIS2_PLACEMENT_3D('',#323,#260,#261);
#239=AXIS2_PLACEMENT_3D('',#326,#263,#264);
#240=AXIS2_PLACEMENT_3D('',#327,#265,#266);
#241=AXIS2_PLACEMENT_3D('',#335,#271,#272);
#242=AXIS2_PLACEMENT_3D('',#341,#276,#277);
#243=AXIS2_PLACEMENT_3D('',#344,#279,#280);
#244=AXIS2_PLACEMENT_3D('',#346,#282,#283);
#245=AXIS2_PLACEMENT_3D('',#349,#285,#286);
#246=AXIS2_PLACEMENT_3D('',#350,#287,#288);
#247=AXIS2_PLACEMENT_3D('',#354,#291,#292);
#248=AXIS2_PLACEMENT_3D('',#356,#294,#295);
#249=AXIS2_PLACEMENT_3D('',#358,#297,#298);
#250=AXIS2_PLACEMENT_3D('',#359,#299,#300);
#251=AXIS2_PLACEMENT_3D('',#365,#304,#305);
#252=AXIS2_PLACEMENT_3D('',#371,#309,#310);
#253=AXIS2_PLACEMENT_3D('',#374,#313,#314);
#254=AXIS2_PLACEMENT_3D('',#375,#315,#316);
#255=DIRECTION('axis',(0.,0.,1.));
#256=DIRECTION('refdir',(1.,0.,0.));
#257=DIRECTION('center_axis',(0.,3.5527136788005E-16,1.));
#258=DIRECTION('ref_axis',(1.,0.,0.));
#259=DIRECTION('',(0.,-3.5527136788005E-16,-1.));
#260=DIRECTION('center_axis',(0.,-3.5527136788005E-16,-1.));
#261=DIRECTION('ref_axis',(-1.,-3.48305262627511E-14,0.));
#262=DIRECTION('',(0.,3.5527136788005E-16,1.));
#263=DIRECTION('center_axis',(0.,3.5527136788005E-16,1.));
#264=DIRECTION('ref_axis',(1.,0.,0.));
#265=DIRECTION('center_axis',(0.,-3.5527136788005E-16,-1.));
#266=DIRECTION('ref_axis',(8.48629631948041E-14,-1.,3.5527136788005E-16));
#267=DIRECTION('',(1.,4.60628131444918E-14,-1.63647986342467E-29));
#268=DIRECTION('',(-8.48629631948041E-14,1.,-3.5527136788005E-16));
#269=DIRECTION('',(-1.,-4.60628131444918E-14,1.63647986342467E-29));
#270=DIRECTION('',(8.48629631948041E-14,-1.,3.5527136788005E-16));
#271=DIRECTION('center_axis',(1.,6.55472272266633E-14,-3.55271367880062E-16));
#272=DIRECTION('ref_axis',(3.55271367880015E-16,7.10542735760116E-16,1.));
#273=DIRECTION('',(3.55271367880038E-16,3.55271367880066E-16,1.));
#274=DIRECTION('',(-8.48629631948041E-14,1.,-3.5527136788005E-16));
#275=DIRECTION('',(-6.54591945369869E-29,1.06581410364015E-15,-1.));
#276=DIRECTION('center_axis',(0.,3.5527136788005E-16,1.));
#277=DIRECTION('ref_axis',(1.,0.,0.));
#278=DIRECTION('',(-1.,-4.60628131444918E-14,1.63647986342467E-29));
#279=DIRECTION('center_axis',(0.,-3.5527136788005E-16,-1.));
#280=DIRECTION('ref_axis',(-1.,0.,0.));
#281=DIRECTION('',(1.,0.,0.));
#282=DIRECTION('center_axis',(0.,-3.5527136788005E-16,-1.));
#283=DIRECTION('ref_axis',(-1.,0.,0.));
#284=DIRECTION('',(1.,0.,0.));
#285=DIRECTION('center_axis',(0.,-3.5527136788005E-16,-1.));
#286=DIRECTION('ref_axis',(-1.,-8.88178419702195E-13,0.));
#287=DIRECTION('center_axis',(8.4077907859489E-45,3.5527136788005E-16,1.));
#288=DIRECTION('ref_axis',(-4.60628131444918E-14,1.,-3.5527136788005E-16));
#289=DIRECTION('',(-4.60628131444918E-14,1.,-3.5527136788005E-16));
#290=DIRECTION('',(-1.,-4.60628131444918E-14,1.63647986342467E-29));
#291=DIRECTION('center_axis',(4.60628131444918E-14,-1.,-1.06581410364015E-15));
#292=DIRECTION('ref_axis',(6.54591945369869E-29,-1.06581410364015E-15,1.));
#293=DIRECTION('',(6.54591945369869E-29,-1.06581410364015E-15,1.));
#294=DIRECTION('center_axis',(0.,3.5527136788005E-16,1.));
#295=DIRECTION('ref_axis',(1.,0.,0.));
#296=DIRECTION('',(0.,3.5527136788005E-16,1.));
#297=DIRECTION('center_axis',(-1.,-4.60628131444918E-14,1.63647986342467E-29));
#298=DIRECTION('ref_axis',(1.63647986342467E-29,-7.105427357601E-16,-1.));
#299=DIRECTION('center_axis',(0.,0.,1.));
#300=DIRECTION('ref_axis',(0.,-1.,0.));
#301=DIRECTION('',(0.,-1.,0.));
#302=DIRECTION('',(1.,0.,0.));
#303=DIRECTION('',(0.,-1.,0.));
#304=DIRECTION('center_axis',(0.,-4.55476112666731E-16,-1.));
#305=DIRECTION('ref_axis',(0.,1.,-4.55476112666731E-16));
#306=DIRECTION('',(0.,1.,-4.55476112666731E-16));
#307=DIRECTION('',(0.,1.,-4.55476112666731E-16));
#308=DIRECTION('',(1.,0.,0.));
#309=DIRECTION('center_axis',(0.,-1.,-3.5527136788005E-16));
#310=DIRECTION('ref_axis',(0.,3.5527136788005E-16,-1.));
#311=DIRECTION('',(0.,3.5527136788005E-16,-1.));
#312=DIRECTION('',(0.,3.5527136788005E-16,-1.));
#313=DIRECTION('center_axis',(-1.,0.,0.));
#314=DIRECTION('ref_axis',(0.,-1.,0.));
#315=DIRECTION('center_axis',(1.,0.,0.));
#316=DIRECTION('ref_axis',(0.,0.,-1.));
#317=CARTESIAN_POINT('',(0.,0.,0.));
#318=CARTESIAN_POINT('Origin',(150.49,59.7,37.5000000000017));
#319=CARTESIAN_POINT('',(149.98,59.7,50.0000000000017));
#320=CARTESIAN_POINT('',(149.98,59.7,25.0000000000017));
#321=CARTESIAN_POINT('',(149.98,59.7,37.5000000000017));
#322=CARTESIAN_POINT('',(151.,59.7,50.0000000000017));
#323=CARTESIAN_POINT('Origin',(150.49,59.7,50.0000000000017));
#324=CARTESIAN_POINT('',(151.,59.7,25.0000000000017));
#325=CARTESIAN_POINT('',(151.,59.7,25.0000000000017));
#326=CARTESIAN_POINT('Origin',(150.49,59.7,25.0000000000017));
#327=CARTESIAN_POINT('Origin',(150.48,60.4225663103256,25.0000000000017));
#328=CARTESIAN_POINT('',(150.48,59.7,25.0000000000017));
#329=CARTESIAN_POINT('',(150.37,59.7,25.0000000000017));
#330=CARTESIAN_POINT('',(150.480000000001,40.21,25.0000000000017));
#331=CARTESIAN_POINT('',(150.48,60.0612831551628,25.0000000000017));
#332=CARTESIAN_POINT('',(149.980000000001,40.21,25.0000000000017));
#333=CARTESIAN_POINT('',(150.480000000001,40.21,25.0000000000017));
#334=CARTESIAN_POINT('',(149.98,60.0612831551628,25.0000000000017));
#335=CARTESIAN_POINT('Origin',(150.480000000001,50.3162831551628,37.5000000000017));
#336=CARTESIAN_POINT('',(150.48,59.7,50.0000000000017));
#337=CARTESIAN_POINT('',(150.48,59.7,37.5000000000017));
#338=CARTESIAN_POINT('',(150.480000000001,40.21,50.0000000000017));
#339=CARTESIAN_POINT('',(150.48,60.0612831551628,50.0000000000017));
#340=CARTESIAN_POINT('',(150.480000000001,40.21,50.0000000000017));
#341=CARTESIAN_POINT('Origin',(150.48,59.7,50.0000000000017));
#342=CARTESIAN_POINT('',(150.37,59.7,50.0000000000017));
#343=CARTESIAN_POINT('',(150.5,59.7,50.0000000000017));
#344=CARTESIAN_POINT('Origin',(150.49,59.7,50.0000000000017));
#345=CARTESIAN_POINT('',(150.5,59.7,50.0000000000017));
#346=CARTESIAN_POINT('Origin',(149.98,59.7,25.0000000000017));
#347=CARTESIAN_POINT('',(150.5,59.7,25.0000000000017));
#348=CARTESIAN_POINT('',(150.5,59.7,25.0000000000017));
#349=CARTESIAN_POINT('Origin',(150.49,59.7,25.0000000000017));
#350=CARTESIAN_POINT('Origin',(150.480000000001,40.21,50.0000000000017));
#351=CARTESIAN_POINT('',(149.980000000001,40.21,50.0000000000017));
#352=CARTESIAN_POINT('',(149.98,59.7,50.0000000000017));
#353=CARTESIAN_POINT('',(150.480000000001,40.21,50.0000000000017));
#354=CARTESIAN_POINT('Origin',(150.480000000001,40.21,25.0000000000017));
#355=CARTESIAN_POINT('',(149.980000000001,40.21,50.0000000000017));
#356=CARTESIAN_POINT('Origin',(150.49,59.7,37.5000000000017));
#357=CARTESIAN_POINT('',(150.5,59.7,25.0000000000017));
#358=CARTESIAN_POINT('Origin',(149.980000000001,50.3162831551628,37.5000000000017));
#359=CARTESIAN_POINT('Origin',(150.5,59.7,50.0000000000017));
#360=CARTESIAN_POINT('',(150.5,40.2,50.0000000000017));
#361=CARTESIAN_POINT('',(150.5,59.7,50.0000000000017));
#362=CARTESIAN_POINT('',(151.,40.2,50.0000000000017));
#363=CARTESIAN_POINT('',(150.5,40.2,50.0000000000017));
#364=CARTESIAN_POINT('',(151.,59.7,50.0000000000017));
#365=CARTESIAN_POINT('Origin',(150.5,40.2,25.0000000000017));
#366=CARTESIAN_POINT('',(150.5,40.2,25.0000000000017));
#367=CARTESIAN_POINT('',(150.5,40.2,25.0000000000017));
#368=CARTESIAN_POINT('',(151.,40.2,25.0000000000017));
#369=CARTESIAN_POINT('',(151.,40.2,25.0000000000017));
#370=CARTESIAN_POINT('',(150.5,40.2,25.0000000000017));
#371=CARTESIAN_POINT('Origin',(150.5,40.2,50.0000000000017));
#372=CARTESIAN_POINT('',(150.5,40.2,50.0000000000017));
#373=CARTESIAN_POINT('',(151.,40.2,50.0000000000017));
#374=CARTESIAN_POINT('Origin',(150.5,49.95,37.5000000000017));
#375=CARTESIAN_POINT('Origin',(151.,49.95,37.5000000000017));
#376=UNCERTAINTY_MEASURE_WITH_UNIT(LENGTH_MEASURE(0.01),#380,
'DISTANCE_ACCURACY_VALUE',
'Maximum model space distance between geometric entities at asserted c
onnectivities');
#377=UNCERTAINTY_MEASURE_WITH_UNIT(LENGTH_MEASURE(0.01),#380,
'DISTANCE_ACCURACY_VALUE',
'Maximum model space distance between geometric entities at asserted c
onnectivities');
#378=(
GEOMETRIC_REPRESENTATION_CONTEXT(3)
GLOBAL_UNCERTAINTY_ASSIGNED_CONTEXT((#376))
GLOBAL_UNIT_ASSIGNED_CONTEXT((#380,#382,#383))
REPRESENTATION_CONTEXT('','3D')
);
#379=(
GEOMETRIC_REPRESENTATION_CONTEXT(3)
GLOBAL_UNCERTAINTY_ASSIGNED_CONTEXT((#377))
GLOBAL_UNIT_ASSIGNED_CONTEXT((#380,#382,#383))
REPRESENTATION_CONTEXT('','3D')
);
#380=(
LENGTH_UNIT()
NAMED_UNIT(*)
SI_UNIT(.MILLI.,.METRE.)
);
#381=(
LENGTH_UNIT()
NAMED_UNIT(*)
SI_UNIT($,.METRE.)
);
#382=(
NAMED_UNIT(*)
PLANE_ANGLE_UNIT()
SI_UNIT($,.RADIAN.)
);
#383=(
NAMED_UNIT(*)
SI_UNIT($,.STERADIAN.)
SOLID_ANGLE_UNIT()
);
#384=SHAPE_DEFINITION_REPRESENTATION(#385,#386);
#385=PRODUCT_DEFINITION_SHAPE('',$,#388);
#386=SHAPE_REPRESENTATION('',(#236),#378);
#387=PRODUCT_DEFINITION_CONTEXT('part definition',#392,'design');
#388=PRODUCT_DEFINITION('Metalsheet','Metalsheet v1',#389,#387);
#389=PRODUCT_DEFINITION_FORMATION('',$,#394);
#390=PRODUCT_RELATED_PRODUCT_CATEGORY('Metalsheet v1','Metalsheet v1',(#394));
#391=APPLICATION_PROTOCOL_DEFINITION('international standard',
'automotive_design',2009,#392);
#392=APPLICATION_CONTEXT(
'Core Data for Automotive Mechanical Design Process');
#393=PRODUCT_CONTEXT('part definition',#392,'mechanical');
#394=PRODUCT('Metalsheet','Metalsheet v1',$,(#393));
#395=PRESENTATION_STYLE_ASSIGNMENT((#396));
#396=SURFACE_STYLE_USAGE(.BOTH.,#397);
#397=SURFACE_SIDE_STYLE('',(#398));
#398=SURFACE_STYLE_FILL_AREA(#399);
#399=FILL_AREA_STYLE('Steel - Satin',(#400));
#400=FILL_AREA_STYLE_COLOUR('Steel - Satin',#401);
#401=COLOUR_RGB('Steel - Satin',0.627450980392157,0.627450980392157,0.627450980392157);
ENDSEC;
END-ISO-10303-21;
