ISO-10303-21;
HEADER;
/* Generated by software containing ST-Developer
 * from STEP Tools, Inc. (www.steptools.com) 
 */

FILE_DESCRIPTION(
/* description */ (''),
/* implementation_level */ '2;1');

FILE_NAME(
/* name */ 'Cover.step',
/* time_stamp */ '2026-05-06T10:38:20+02:00',
/* author */ (''),
/* organization */ (''),
/* preprocessor_version */ 'ST-DEVELOPER v20.1',
/* originating_system */ 'Autodesk Translation Framework v15.8.0.0',
/* authorisation */ '');

FILE_SCHEMA (('AUTOMOTIVE_DESIGN { 1 0 10303 214 3 1 1 }'));
ENDSEC;

DATA;
#10=MECHANICAL_DESIGN_GEOMETRIC_PRESENTATION_REPRESENTATION('',(#24,#25),
#939);
#11=CONTEXT_DEPENDENT_OVER_RIDING_STYLED_ITEM('',(#975),#953,#25,(#17));
#12=MAPPED_ITEM('',#13,#615);
#13=REPRESENTATION_MAP(#615,#952);
#14=ITEM_DEFINED_TRANSFORMATION($,$,#566,#613);
#15=ITEM_DEFINED_TRANSFORMATION($,$,#565,#614);
#16=(
REPRESENTATION_RELATIONSHIP($,$,#954,#953)
REPRESENTATION_RELATIONSHIP_WITH_TRANSFORMATION(#14)
SHAPE_REPRESENTATION_RELATIONSHIP()
);
#17=(
REPRESENTATION_RELATIONSHIP($,$,#953,#952)
REPRESENTATION_RELATIONSHIP_WITH_TRANSFORMATION(#15)
SHAPE_REPRESENTATION_RELATIONSHIP()
);
#18=CONTEXT_DEPENDENT_SHAPE_REPRESENTATION(#16,#950);
#19=CONTEXT_DEPENDENT_SHAPE_REPRESENTATION(#17,#951);
#20=NEXT_ASSEMBLY_USAGE_OCCURRENCE('Cover:1','Cover:1','Cover:1',#957,#958,
'Cover:1');
#21=NEXT_ASSEMBLY_USAGE_OCCURRENCE('Steel cover:1','Steel cover:1',
'Steel cover:1',#956,#957,'Steel cover:1');
#22=SHAPE_REPRESENTATION_RELATIONSHIP('SRR','None',#954,#23);
#23=ADVANCED_BREP_SHAPE_REPRESENTATION('',(#26),#938);
#24=STYLED_ITEM('',(#975),#26);
#25=STYLED_ITEM('',(#978),#12);
#26=MANIFOLD_SOLID_BREP('Body1',#551);
#27=PLANE('',#570);
#28=PLANE('',#571);
#29=PLANE('',#572);
#30=PLANE('',#574);
#31=PLANE('',#576);
#32=PLANE('',#577);
#33=PLANE('',#579);
#34=PLANE('',#583);
#35=PLANE('',#584);
#36=PLANE('',#585);
#37=PLANE('',#587);
#38=PLANE('',#589);
#39=PLANE('',#590);
#40=PLANE('',#592);
#41=PLANE('',#593);
#42=PLANE('',#594);
#43=PLANE('',#595);
#44=PLANE('',#596);
#45=PLANE('',#600);
#46=PLANE('',#601);
#47=PLANE('',#603);
#48=PLANE('',#605);
#49=PLANE('',#607);
#50=PLANE('',#608);
#51=PLANE('',#609);
#52=PLANE('',#610);
#53=PLANE('',#611);
#54=PLANE('',#612);
#55=FACE_OUTER_BOUND('',#89,.T.);
#56=FACE_OUTER_BOUND('',#90,.T.);
#57=FACE_OUTER_BOUND('',#91,.T.);
#58=FACE_OUTER_BOUND('',#92,.T.);
#59=FACE_OUTER_BOUND('',#93,.T.);
#60=FACE_OUTER_BOUND('',#94,.T.);
#61=FACE_OUTER_BOUND('',#95,.T.);
#62=FACE_OUTER_BOUND('',#96,.T.);
#63=FACE_OUTER_BOUND('',#97,.T.);
#64=FACE_OUTER_BOUND('',#98,.T.);
#65=FACE_OUTER_BOUND('',#99,.T.);
#66=FACE_OUTER_BOUND('',#100,.T.);
#67=FACE_OUTER_BOUND('',#101,.T.);
#68=FACE_OUTER_BOUND('',#102,.T.);
#69=FACE_OUTER_BOUND('',#103,.T.);
#70=FACE_OUTER_BOUND('',#104,.T.);
#71=FACE_OUTER_BOUND('',#105,.T.);
#72=FACE_OUTER_BOUND('',#106,.T.);
#73=FACE_OUTER_BOUND('',#107,.T.);
#74=FACE_OUTER_BOUND('',#108,.T.);
#75=FACE_OUTER_BOUND('',#109,.T.);
#76=FACE_OUTER_BOUND('',#110,.T.);
#77=FACE_OUTER_BOUND('',#111,.T.);
#78=FACE_OUTER_BOUND('',#112,.T.);
#79=FACE_OUTER_BOUND('',#113,.T.);
#80=FACE_OUTER_BOUND('',#114,.T.);
#81=FACE_OUTER_BOUND('',#115,.T.);
#82=FACE_OUTER_BOUND('',#116,.T.);
#83=FACE_OUTER_BOUND('',#117,.T.);
#84=FACE_OUTER_BOUND('',#118,.T.);
#85=FACE_OUTER_BOUND('',#119,.T.);
#86=FACE_OUTER_BOUND('',#120,.T.);
#87=FACE_OUTER_BOUND('',#121,.T.);
#88=FACE_OUTER_BOUND('',#122,.T.);
#89=EDGE_LOOP('',(#367,#368,#369,#370));
#90=EDGE_LOOP('',(#371,#372,#373,#374));
#91=EDGE_LOOP('',(#375,#376,#377,#378));
#92=EDGE_LOOP('',(#379,#380,#381,#382));
#93=EDGE_LOOP('',(#383,#384,#385,#386));
#94=EDGE_LOOP('',(#387,#388,#389,#390));
#95=EDGE_LOOP('',(#391,#392,#393,#394));
#96=EDGE_LOOP('',(#395,#396,#397,#398));
#97=EDGE_LOOP('',(#399,#400,#401,#402));
#98=EDGE_LOOP('',(#403,#404,#405,#406));
#99=EDGE_LOOP('',(#407,#408,#409,#410));
#100=EDGE_LOOP('',(#411,#412,#413,#414));
#101=EDGE_LOOP('',(#415,#416,#417,#418));
#102=EDGE_LOOP('',(#419,#420,#421,#422));
#103=EDGE_LOOP('',(#423,#424,#425,#426));
#104=EDGE_LOOP('',(#427,#428,#429,#430));
#105=EDGE_LOOP('',(#431,#432,#433,#434));
#106=EDGE_LOOP('',(#435,#436,#437,#438));
#107=EDGE_LOOP('',(#439,#440,#441,#442));
#108=EDGE_LOOP('',(#443,#444,#445,#446));
#109=EDGE_LOOP('',(#447,#448,#449,#450));
#110=EDGE_LOOP('',(#451,#452,#453,#454,#455,#456,#457,#458));
#111=EDGE_LOOP('',(#459,#460,#461,#462));
#112=EDGE_LOOP('',(#463,#464,#465,#466));
#113=EDGE_LOOP('',(#467,#468,#469,#470));
#114=EDGE_LOOP('',(#471,#472,#473,#474));
#115=EDGE_LOOP('',(#475,#476,#477,#478));
#116=EDGE_LOOP('',(#479,#480,#481,#482));
#117=EDGE_LOOP('',(#483,#484,#485,#486,#487,#488,#489,#490));
#118=EDGE_LOOP('',(#491,#492,#493,#494));
#119=EDGE_LOOP('',(#495,#496,#497,#498));
#120=EDGE_LOOP('',(#499,#500,#501,#502));
#121=EDGE_LOOP('',(#503,#504,#505,#506));
#122=EDGE_LOOP('',(#507,#508,#509,#510));
#123=CIRCLE('',#568,0.509999999999993);
#124=CIRCLE('',#569,0.509999999999993);
#125=CIRCLE('',#573,0.0100000000000033);
#126=CIRCLE('',#575,0.0100000000000033);
#127=CIRCLE('',#581,0.509999999999993);
#128=CIRCLE('',#582,0.509999999999993);
#129=CIRCLE('',#586,0.0100000000000033);
#130=CIRCLE('',#588,0.0100000000000033);
#131=CIRCLE('',#598,0.999999999999996);
#132=CIRCLE('',#599,0.999999999999992);
#133=CIRCLE('',#602,0.499999999999989);
#134=CIRCLE('',#604,0.499999999999989);
#135=LINE('',#786,#195);
#136=LINE('',#790,#196);
#137=LINE('',#794,#197);
#138=LINE('',#796,#198);
#139=LINE('',#798,#199);
#140=LINE('',#799,#200);
#141=LINE('',#802,#201);
#142=LINE('',#804,#202);
#143=LINE('',#805,#203);
#144=LINE('',#807,#204);
#145=LINE('',#810,#205);
#146=LINE('',#813,#206);
#147=LINE('',#817,#207);
#148=LINE('',#818,#208);
#149=LINE('',#820,#209);
#150=LINE('',#822,#210);
#151=LINE('',#827,#211);
#152=LINE('',#831,#212);
#153=LINE('',#835,#213);
#154=LINE('',#837,#214);
#155=LINE('',#839,#215);
#156=LINE('',#840,#216);
#157=LINE('',#843,#217);
#158=LINE('',#845,#218);
#159=LINE('',#846,#219);
#160=LINE('',#848,#220);
#161=LINE('',#851,#221);
#162=LINE('',#854,#222);
#163=LINE('',#858,#223);
#164=LINE('',#859,#224);
#165=LINE('',#861,#225);
#166=LINE('',#863,#226);
#167=LINE('',#868,#227);
#168=LINE('',#870,#228);
#169=LINE('',#872,#229);
#170=LINE('',#873,#230);
#171=LINE('',#875,#231);
#172=LINE('',#876,#232);
#173=LINE('',#878,#233);
#174=LINE('',#879,#234);
#175=LINE('',#882,#235);
#176=LINE('',#884,#236);
#177=LINE('',#885,#237);
#178=LINE('',#889,#238);
#179=LINE('',#893,#239);
#180=LINE('',#896,#240);
#181=LINE('',#897,#241);
#182=LINE('',#899,#242);
#183=LINE('',#902,#243);
#184=LINE('',#905,#244);
#185=LINE('',#908,#245);
#186=LINE('',#910,#246);
#187=LINE('',#914,#247);
#188=LINE('',#916,#248);
#189=LINE('',#917,#249);
#190=LINE('',#920,#250);
#191=LINE('',#921,#251);
#192=LINE('',#924,#252);
#193=LINE('',#925,#253);
#194=LINE('',#927,#254);
#195=VECTOR('',#624,10.);
#196=VECTOR('',#627,10.);
#197=VECTOR('',#632,10.);
#198=VECTOR('',#633,0.23);
#199=VECTOR('',#634,10.);
#200=VECTOR('',#635,0.23);
#201=VECTOR('',#638,10.);
#202=VECTOR('',#639,0.23);
#203=VECTOR('',#640,10.);
#204=VECTOR('',#643,10.);
#205=VECTOR('',#646,10.);
#206=VECTOR('',#649,10.);
#207=VECTOR('',#654,10.);
#208=VECTOR('',#655,10.);
#209=VECTOR('',#658,10.);
#210=VECTOR('',#661,10.);
#211=VECTOR('',#666,10.);
#212=VECTOR('',#669,10.);
#213=VECTOR('',#674,10.);
#214=VECTOR('',#675,0.23);
#215=VECTOR('',#676,10.);
#216=VECTOR('',#677,0.23);
#217=VECTOR('',#680,10.);
#218=VECTOR('',#681,0.23);
#219=VECTOR('',#682,10.);
#220=VECTOR('',#685,10.);
#221=VECTOR('',#688,10.);
#222=VECTOR('',#691,10.);
#223=VECTOR('',#696,10.);
#224=VECTOR('',#697,10.);
#225=VECTOR('',#700,10.);
#226=VECTOR('',#703,10.);
#227=VECTOR('',#708,10.);
#228=VECTOR('',#709,10.);
#229=VECTOR('',#710,10.);
#230=VECTOR('',#711,10.);
#231=VECTOR('',#714,10.);
#232=VECTOR('',#715,10.);
#233=VECTOR('',#718,10.);
#234=VECTOR('',#719,10.);
#235=VECTOR('',#722,0.719999999999998);
#236=VECTOR('',#723,10.);
#237=VECTOR('',#724,0.719999999999998);
#238=VECTOR('',#727,10.);
#239=VECTOR('',#730,10.);
#240=VECTOR('',#735,10.);
#241=VECTOR('',#736,0.719999999999998);
#242=VECTOR('',#739,10.);
#243=VECTOR('',#742,10.);
#244=VECTOR('',#745,10.);
#245=VECTOR('',#750,10.);
#246=VECTOR('',#753,10.);
#247=VECTOR('',#758,10.);
#248=VECTOR('',#759,10.);
#249=VECTOR('',#760,10.);
#250=VECTOR('',#763,10.);
#251=VECTOR('',#764,10.);
#252=VECTOR('',#767,10.);
#253=VECTOR('',#768,10.);
#254=VECTOR('',#771,10.);
#255=VERTEX_POINT('',#784);
#256=VERTEX_POINT('',#785);
#257=VERTEX_POINT('',#787);
#258=VERTEX_POINT('',#789);
#259=VERTEX_POINT('',#793);
#260=VERTEX_POINT('',#795);
#261=VERTEX_POINT('',#797);
#262=VERTEX_POINT('',#801);
#263=VERTEX_POINT('',#803);
#264=VERTEX_POINT('',#808);
#265=VERTEX_POINT('',#812);
#266=VERTEX_POINT('',#816);
#267=VERTEX_POINT('',#825);
#268=VERTEX_POINT('',#826);
#269=VERTEX_POINT('',#828);
#270=VERTEX_POINT('',#830);
#271=VERTEX_POINT('',#834);
#272=VERTEX_POINT('',#836);
#273=VERTEX_POINT('',#838);
#274=VERTEX_POINT('',#842);
#275=VERTEX_POINT('',#844);
#276=VERTEX_POINT('',#849);
#277=VERTEX_POINT('',#853);
#278=VERTEX_POINT('',#857);
#279=VERTEX_POINT('',#866);
#280=VERTEX_POINT('',#867);
#281=VERTEX_POINT('',#869);
#282=VERTEX_POINT('',#871);
#283=VERTEX_POINT('',#881);
#284=VERTEX_POINT('',#883);
#285=VERTEX_POINT('',#887);
#286=VERTEX_POINT('',#888);
#287=VERTEX_POINT('',#890);
#288=VERTEX_POINT('',#892);
#289=VERTEX_POINT('',#900);
#290=VERTEX_POINT('',#904);
#291=VERTEX_POINT('',#913);
#292=VERTEX_POINT('',#915);
#293=VERTEX_POINT('',#919);
#294=VERTEX_POINT('',#923);
#295=EDGE_CURVE('',#255,#256,#135,.T.);
#296=EDGE_CURVE('',#255,#257,#123,.T.);
#297=EDGE_CURVE('',#258,#257,#136,.T.);
#298=EDGE_CURVE('',#258,#256,#124,.T.);
#299=EDGE_CURVE('',#256,#259,#137,.T.);
#300=EDGE_CURVE('',#260,#259,#138,.T.);
#301=EDGE_CURVE('',#260,#261,#139,.T.);
#302=EDGE_CURVE('',#256,#261,#140,.T.);
#303=EDGE_CURVE('',#259,#262,#141,.T.);
#304=EDGE_CURVE('',#263,#262,#142,.T.);
#305=EDGE_CURVE('',#263,#260,#143,.T.);
#306=EDGE_CURVE('',#262,#255,#144,.T.);
#307=EDGE_CURVE('',#262,#264,#125,.T.);
#308=EDGE_CURVE('',#264,#257,#145,.T.);
#309=EDGE_CURVE('',#258,#265,#146,.T.);
#310=EDGE_CURVE('',#259,#265,#126,.T.);
#311=EDGE_CURVE('',#266,#255,#147,.T.);
#312=EDGE_CURVE('',#263,#266,#148,.T.);
#313=EDGE_CURVE('',#261,#266,#149,.T.);
#314=EDGE_CURVE('',#264,#265,#150,.T.);
#315=EDGE_CURVE('',#267,#268,#151,.T.);
#316=EDGE_CURVE('',#267,#269,#127,.T.);
#317=EDGE_CURVE('',#270,#269,#152,.T.);
#318=EDGE_CURVE('',#270,#268,#128,.T.);
#319=EDGE_CURVE('',#268,#271,#153,.T.);
#320=EDGE_CURVE('',#272,#271,#154,.T.);
#321=EDGE_CURVE('',#272,#273,#155,.T.);
#322=EDGE_CURVE('',#268,#273,#156,.T.);
#323=EDGE_CURVE('',#271,#274,#157,.T.);
#324=EDGE_CURVE('',#275,#274,#158,.T.);
#325=EDGE_CURVE('',#275,#272,#159,.T.);
#326=EDGE_CURVE('',#274,#267,#160,.T.);
#327=EDGE_CURVE('',#274,#276,#129,.T.);
#328=EDGE_CURVE('',#276,#269,#161,.T.);
#329=EDGE_CURVE('',#277,#270,#162,.T.);
#330=EDGE_CURVE('',#271,#277,#130,.T.);
#331=EDGE_CURVE('',#278,#267,#163,.T.);
#332=EDGE_CURVE('',#275,#278,#164,.T.);
#333=EDGE_CURVE('',#273,#278,#165,.T.);
#334=EDGE_CURVE('',#276,#277,#166,.T.);
#335=EDGE_CURVE('',#279,#280,#167,.T.);
#336=EDGE_CURVE('',#279,#281,#168,.T.);
#337=EDGE_CURVE('',#282,#281,#169,.T.);
#338=EDGE_CURVE('',#280,#282,#170,.T.);
#339=EDGE_CURVE('',#269,#279,#171,.T.);
#340=EDGE_CURVE('',#281,#276,#172,.T.);
#341=EDGE_CURVE('',#280,#258,#173,.T.);
#342=EDGE_CURVE('',#265,#282,#174,.T.);
#343=EDGE_CURVE('',#277,#283,#175,.T.);
#344=EDGE_CURVE('',#283,#284,#176,.T.);
#345=EDGE_CURVE('',#264,#284,#177,.T.);
#346=EDGE_CURVE('',#285,#286,#178,.T.);
#347=EDGE_CURVE('',#285,#287,#131,.T.);
#348=EDGE_CURVE('',#288,#287,#179,.T.);
#349=EDGE_CURVE('',#288,#286,#132,.T.);
#350=EDGE_CURVE('',#286,#283,#180,.T.);
#351=EDGE_CURVE('',#286,#270,#181,.T.);
#352=EDGE_CURVE('',#284,#285,#182,.T.);
#353=EDGE_CURVE('',#284,#289,#133,.T.);
#354=EDGE_CURVE('',#287,#289,#183,.T.);
#355=EDGE_CURVE('',#290,#288,#184,.T.);
#356=EDGE_CURVE('',#283,#290,#134,.T.);
#357=EDGE_CURVE('',#257,#285,#185,.T.);
#358=EDGE_CURVE('',#289,#290,#186,.T.);
#359=EDGE_CURVE('',#291,#288,#187,.T.);
#360=EDGE_CURVE('',#292,#291,#188,.T.);
#361=EDGE_CURVE('',#292,#290,#189,.T.);
#362=EDGE_CURVE('',#287,#293,#190,.T.);
#363=EDGE_CURVE('',#293,#291,#191,.T.);
#364=EDGE_CURVE('',#294,#292,#192,.T.);
#365=EDGE_CURVE('',#294,#293,#193,.T.);
#366=EDGE_CURVE('',#289,#294,#194,.T.);
#367=ORIENTED_EDGE('',*,*,#295,.F.);
#368=ORIENTED_EDGE('',*,*,#296,.T.);
#369=ORIENTED_EDGE('',*,*,#297,.F.);
#370=ORIENTED_EDGE('',*,*,#298,.T.);
#371=ORIENTED_EDGE('',*,*,#299,.T.);
#372=ORIENTED_EDGE('',*,*,#300,.F.);
#373=ORIENTED_EDGE('',*,*,#301,.T.);
#374=ORIENTED_EDGE('',*,*,#302,.F.);
#375=ORIENTED_EDGE('',*,*,#303,.T.);
#376=ORIENTED_EDGE('',*,*,#304,.F.);
#377=ORIENTED_EDGE('',*,*,#305,.T.);
#378=ORIENTED_EDGE('',*,*,#300,.T.);
#379=ORIENTED_EDGE('',*,*,#306,.F.);
#380=ORIENTED_EDGE('',*,*,#307,.T.);
#381=ORIENTED_EDGE('',*,*,#308,.T.);
#382=ORIENTED_EDGE('',*,*,#296,.F.);
#383=ORIENTED_EDGE('',*,*,#299,.F.);
#384=ORIENTED_EDGE('',*,*,#298,.F.);
#385=ORIENTED_EDGE('',*,*,#309,.T.);
#386=ORIENTED_EDGE('',*,*,#310,.F.);
#387=ORIENTED_EDGE('',*,*,#306,.T.);
#388=ORIENTED_EDGE('',*,*,#311,.F.);
#389=ORIENTED_EDGE('',*,*,#312,.F.);
#390=ORIENTED_EDGE('',*,*,#304,.T.);
#391=ORIENTED_EDGE('',*,*,#305,.F.);
#392=ORIENTED_EDGE('',*,*,#312,.T.);
#393=ORIENTED_EDGE('',*,*,#313,.F.);
#394=ORIENTED_EDGE('',*,*,#301,.F.);
#395=ORIENTED_EDGE('',*,*,#303,.F.);
#396=ORIENTED_EDGE('',*,*,#310,.T.);
#397=ORIENTED_EDGE('',*,*,#314,.F.);
#398=ORIENTED_EDGE('',*,*,#307,.F.);
#399=ORIENTED_EDGE('',*,*,#295,.T.);
#400=ORIENTED_EDGE('',*,*,#302,.T.);
#401=ORIENTED_EDGE('',*,*,#313,.T.);
#402=ORIENTED_EDGE('',*,*,#311,.T.);
#403=ORIENTED_EDGE('',*,*,#315,.F.);
#404=ORIENTED_EDGE('',*,*,#316,.T.);
#405=ORIENTED_EDGE('',*,*,#317,.F.);
#406=ORIENTED_EDGE('',*,*,#318,.T.);
#407=ORIENTED_EDGE('',*,*,#319,.T.);
#408=ORIENTED_EDGE('',*,*,#320,.F.);
#409=ORIENTED_EDGE('',*,*,#321,.T.);
#410=ORIENTED_EDGE('',*,*,#322,.F.);
#411=ORIENTED_EDGE('',*,*,#323,.T.);
#412=ORIENTED_EDGE('',*,*,#324,.F.);
#413=ORIENTED_EDGE('',*,*,#325,.T.);
#414=ORIENTED_EDGE('',*,*,#320,.T.);
#415=ORIENTED_EDGE('',*,*,#326,.F.);
#416=ORIENTED_EDGE('',*,*,#327,.T.);
#417=ORIENTED_EDGE('',*,*,#328,.T.);
#418=ORIENTED_EDGE('',*,*,#316,.F.);
#419=ORIENTED_EDGE('',*,*,#319,.F.);
#420=ORIENTED_EDGE('',*,*,#318,.F.);
#421=ORIENTED_EDGE('',*,*,#329,.F.);
#422=ORIENTED_EDGE('',*,*,#330,.F.);
#423=ORIENTED_EDGE('',*,*,#326,.T.);
#424=ORIENTED_EDGE('',*,*,#331,.F.);
#425=ORIENTED_EDGE('',*,*,#332,.F.);
#426=ORIENTED_EDGE('',*,*,#324,.T.);
#427=ORIENTED_EDGE('',*,*,#325,.F.);
#428=ORIENTED_EDGE('',*,*,#332,.T.);
#429=ORIENTED_EDGE('',*,*,#333,.F.);
#430=ORIENTED_EDGE('',*,*,#321,.F.);
#431=ORIENTED_EDGE('',*,*,#323,.F.);
#432=ORIENTED_EDGE('',*,*,#330,.T.);
#433=ORIENTED_EDGE('',*,*,#334,.F.);
#434=ORIENTED_EDGE('',*,*,#327,.F.);
#435=ORIENTED_EDGE('',*,*,#315,.T.);
#436=ORIENTED_EDGE('',*,*,#322,.T.);
#437=ORIENTED_EDGE('',*,*,#333,.T.);
#438=ORIENTED_EDGE('',*,*,#331,.T.);
#439=ORIENTED_EDGE('',*,*,#335,.F.);
#440=ORIENTED_EDGE('',*,*,#336,.T.);
#441=ORIENTED_EDGE('',*,*,#337,.F.);
#442=ORIENTED_EDGE('',*,*,#338,.F.);
#443=ORIENTED_EDGE('',*,*,#339,.F.);
#444=ORIENTED_EDGE('',*,*,#328,.F.);
#445=ORIENTED_EDGE('',*,*,#340,.F.);
#446=ORIENTED_EDGE('',*,*,#336,.F.);
#447=ORIENTED_EDGE('',*,*,#341,.F.);
#448=ORIENTED_EDGE('',*,*,#338,.T.);
#449=ORIENTED_EDGE('',*,*,#342,.F.);
#450=ORIENTED_EDGE('',*,*,#309,.F.);
#451=ORIENTED_EDGE('',*,*,#342,.T.);
#452=ORIENTED_EDGE('',*,*,#337,.T.);
#453=ORIENTED_EDGE('',*,*,#340,.T.);
#454=ORIENTED_EDGE('',*,*,#334,.T.);
#455=ORIENTED_EDGE('',*,*,#343,.T.);
#456=ORIENTED_EDGE('',*,*,#344,.T.);
#457=ORIENTED_EDGE('',*,*,#345,.F.);
#458=ORIENTED_EDGE('',*,*,#314,.T.);
#459=ORIENTED_EDGE('',*,*,#346,.F.);
#460=ORIENTED_EDGE('',*,*,#347,.T.);
#461=ORIENTED_EDGE('',*,*,#348,.F.);
#462=ORIENTED_EDGE('',*,*,#349,.T.);
#463=ORIENTED_EDGE('',*,*,#350,.T.);
#464=ORIENTED_EDGE('',*,*,#343,.F.);
#465=ORIENTED_EDGE('',*,*,#329,.T.);
#466=ORIENTED_EDGE('',*,*,#351,.F.);
#467=ORIENTED_EDGE('',*,*,#352,.F.);
#468=ORIENTED_EDGE('',*,*,#353,.T.);
#469=ORIENTED_EDGE('',*,*,#354,.F.);
#470=ORIENTED_EDGE('',*,*,#347,.F.);
#471=ORIENTED_EDGE('',*,*,#350,.F.);
#472=ORIENTED_EDGE('',*,*,#349,.F.);
#473=ORIENTED_EDGE('',*,*,#355,.F.);
#474=ORIENTED_EDGE('',*,*,#356,.F.);
#475=ORIENTED_EDGE('',*,*,#352,.T.);
#476=ORIENTED_EDGE('',*,*,#357,.F.);
#477=ORIENTED_EDGE('',*,*,#308,.F.);
#478=ORIENTED_EDGE('',*,*,#345,.T.);
#479=ORIENTED_EDGE('',*,*,#344,.F.);
#480=ORIENTED_EDGE('',*,*,#356,.T.);
#481=ORIENTED_EDGE('',*,*,#358,.F.);
#482=ORIENTED_EDGE('',*,*,#353,.F.);
#483=ORIENTED_EDGE('',*,*,#341,.T.);
#484=ORIENTED_EDGE('',*,*,#297,.T.);
#485=ORIENTED_EDGE('',*,*,#357,.T.);
#486=ORIENTED_EDGE('',*,*,#346,.T.);
#487=ORIENTED_EDGE('',*,*,#351,.T.);
#488=ORIENTED_EDGE('',*,*,#317,.T.);
#489=ORIENTED_EDGE('',*,*,#339,.T.);
#490=ORIENTED_EDGE('',*,*,#335,.T.);
#491=ORIENTED_EDGE('',*,*,#355,.T.);
#492=ORIENTED_EDGE('',*,*,#359,.F.);
#493=ORIENTED_EDGE('',*,*,#360,.F.);
#494=ORIENTED_EDGE('',*,*,#361,.T.);
#495=ORIENTED_EDGE('',*,*,#348,.T.);
#496=ORIENTED_EDGE('',*,*,#362,.T.);
#497=ORIENTED_EDGE('',*,*,#363,.T.);
#498=ORIENTED_EDGE('',*,*,#359,.T.);
#499=ORIENTED_EDGE('',*,*,#364,.T.);
#500=ORIENTED_EDGE('',*,*,#360,.T.);
#501=ORIENTED_EDGE('',*,*,#363,.F.);
#502=ORIENTED_EDGE('',*,*,#365,.F.);
#503=ORIENTED_EDGE('',*,*,#354,.T.);
#504=ORIENTED_EDGE('',*,*,#366,.T.);
#505=ORIENTED_EDGE('',*,*,#365,.T.);
#506=ORIENTED_EDGE('',*,*,#362,.F.);
#507=ORIENTED_EDGE('',*,*,#358,.T.);
#508=ORIENTED_EDGE('',*,*,#361,.F.);
#509=ORIENTED_EDGE('',*,*,#364,.F.);
#510=ORIENTED_EDGE('',*,*,#366,.F.);
#511=CYLINDRICAL_SURFACE('',#567,0.509999999999925);
#512=CYLINDRICAL_SURFACE('',#578,0.0100000000000065);
#513=CYLINDRICAL_SURFACE('',#580,0.509999999999925);
#514=CYLINDRICAL_SURFACE('',#591,0.00999999999999761);
#515=CYLINDRICAL_SURFACE('',#597,0.999999999999994);
#516=CYLINDRICAL_SURFACE('',#606,0.499999999999996);
#517=ADVANCED_FACE('',(#55),#511,.T.);
#518=ADVANCED_FACE('',(#56),#27,.T.);
#519=ADVANCED_FACE('',(#57),#28,.F.);
#520=ADVANCED_FACE('',(#58),#29,.T.);
#521=ADVANCED_FACE('',(#59),#30,.T.);
#522=ADVANCED_FACE('',(#60),#31,.T.);
#523=ADVANCED_FACE('',(#61),#32,.T.);
#524=ADVANCED_FACE('',(#62),#512,.F.);
#525=ADVANCED_FACE('',(#63),#33,.T.);
#526=ADVANCED_FACE('',(#64),#513,.T.);
#527=ADVANCED_FACE('',(#65),#34,.T.);
#528=ADVANCED_FACE('',(#66),#35,.F.);
#529=ADVANCED_FACE('',(#67),#36,.T.);
#530=ADVANCED_FACE('',(#68),#37,.T.);
#531=ADVANCED_FACE('',(#69),#38,.T.);
#532=ADVANCED_FACE('',(#70),#39,.T.);
#533=ADVANCED_FACE('',(#71),#514,.F.);
#534=ADVANCED_FACE('',(#72),#40,.T.);
#535=ADVANCED_FACE('',(#73),#41,.F.);
#536=ADVANCED_FACE('',(#74),#42,.F.);
#537=ADVANCED_FACE('',(#75),#43,.F.);
#538=ADVANCED_FACE('',(#76),#44,.T.);
#539=ADVANCED_FACE('',(#77),#515,.T.);
#540=ADVANCED_FACE('',(#78),#45,.T.);
#541=ADVANCED_FACE('',(#79),#46,.T.);
#542=ADVANCED_FACE('',(#80),#47,.T.);
#543=ADVANCED_FACE('',(#81),#48,.T.);
#544=ADVANCED_FACE('',(#82),#516,.F.);
#545=ADVANCED_FACE('',(#83),#49,.T.);
#546=ADVANCED_FACE('',(#84),#50,.T.);
#547=ADVANCED_FACE('',(#85),#51,.T.);
#548=ADVANCED_FACE('',(#86),#52,.T.);
#549=ADVANCED_FACE('',(#87),#53,.T.);
#550=ADVANCED_FACE('',(#88),#54,.F.);
#551=CLOSED_SHELL('',(#517,#518,#519,#520,#521,#522,#523,#524,#525,#526,
#527,#528,#529,#530,#531,#532,#533,#534,#535,#536,#537,#538,#539,#540,#541,
#542,#543,#544,#545,#546,#547,#548,#549,#550));
#552=DERIVED_UNIT_ELEMENT(#554,1.);
#553=DERIVED_UNIT_ELEMENT(#941,-3.);
#554=(
MASS_UNIT()
NAMED_UNIT(*)
SI_UNIT(.KILO.,.GRAM.)
);
#555=DERIVED_UNIT((#552,#553));
#556=MEASURE_REPRESENTATION_ITEM('density measure',
POSITIVE_RATIO_MEASURE(7850.),#555);
#557=PROPERTY_DEFINITION_REPRESENTATION(#562,#559);
#558=PROPERTY_DEFINITION_REPRESENTATION(#563,#560);
#559=REPRESENTATION('material name',(#561),#938);
#560=REPRESENTATION('density',(#556),#938);
#561=DESCRIPTIVE_REPRESENTATION_ITEM('Steel','Steel');
#562=PROPERTY_DEFINITION('material property','material name',#958);
#563=PROPERTY_DEFINITION('material property','density of part',#958);
#564=AXIS2_PLACEMENT_3D('',#780,#616,#617);
#565=AXIS2_PLACEMENT_3D('',#781,#618,#619);
#566=AXIS2_PLACEMENT_3D('',#782,#620,#621);
#567=AXIS2_PLACEMENT_3D('',#783,#622,#623);
#568=AXIS2_PLACEMENT_3D('',#788,#625,#626);
#569=AXIS2_PLACEMENT_3D('',#791,#628,#629);
#570=AXIS2_PLACEMENT_3D('',#792,#630,#631);
#571=AXIS2_PLACEMENT_3D('',#800,#636,#637);
#572=AXIS2_PLACEMENT_3D('',#806,#641,#642);
#573=AXIS2_PLACEMENT_3D('',#809,#644,#645);
#574=AXIS2_PLACEMENT_3D('',#811,#647,#648);
#575=AXIS2_PLACEMENT_3D('',#814,#650,#651);
#576=AXIS2_PLACEMENT_3D('',#815,#652,#653);
#577=AXIS2_PLACEMENT_3D('',#819,#656,#657);
#578=AXIS2_PLACEMENT_3D('',#821,#659,#660);
#579=AXIS2_PLACEMENT_3D('',#823,#662,#663);
#580=AXIS2_PLACEMENT_3D('',#824,#664,#665);
#581=AXIS2_PLACEMENT_3D('',#829,#667,#668);
#582=AXIS2_PLACEMENT_3D('',#832,#670,#671);
#583=AXIS2_PLACEMENT_3D('',#833,#672,#673);
#584=AXIS2_PLACEMENT_3D('',#841,#678,#679);
#585=AXIS2_PLACEMENT_3D('',#847,#683,#684);
#586=AXIS2_PLACEMENT_3D('',#850,#686,#687);
#587=AXIS2_PLACEMENT_3D('',#852,#689,#690);
#588=AXIS2_PLACEMENT_3D('',#855,#692,#693);
#589=AXIS2_PLACEMENT_3D('',#856,#694,#695);
#590=AXIS2_PLACEMENT_3D('',#860,#698,#699);
#591=AXIS2_PLACEMENT_3D('',#862,#701,#702);
#592=AXIS2_PLACEMENT_3D('',#864,#704,#705);
#593=AXIS2_PLACEMENT_3D('',#865,#706,#707);
#594=AXIS2_PLACEMENT_3D('',#874,#712,#713);
#595=AXIS2_PLACEMENT_3D('',#877,#716,#717);
#596=AXIS2_PLACEMENT_3D('',#880,#720,#721);
#597=AXIS2_PLACEMENT_3D('',#886,#725,#726);
#598=AXIS2_PLACEMENT_3D('',#891,#728,#729);
#599=AXIS2_PLACEMENT_3D('',#894,#731,#732);
#600=AXIS2_PLACEMENT_3D('',#895,#733,#734);
#601=AXIS2_PLACEMENT_3D('',#898,#737,#738);
#602=AXIS2_PLACEMENT_3D('',#901,#740,#741);
#603=AXIS2_PLACEMENT_3D('',#903,#743,#744);
#604=AXIS2_PLACEMENT_3D('',#906,#746,#747);
#605=AXIS2_PLACEMENT_3D('',#907,#748,#749);
#606=AXIS2_PLACEMENT_3D('',#909,#751,#752);
#607=AXIS2_PLACEMENT_3D('',#911,#754,#755);
#608=AXIS2_PLACEMENT_3D('',#912,#756,#757);
#609=AXIS2_PLACEMENT_3D('',#918,#761,#762);
#610=AXIS2_PLACEMENT_3D('',#922,#765,#766);
#611=AXIS2_PLACEMENT_3D('',#926,#769,#770);
#612=AXIS2_PLACEMENT_3D('',#928,#772,#773);
#613=AXIS2_PLACEMENT_3D('',#929,#774,#775);
#614=AXIS2_PLACEMENT_3D('',#930,#776,#777);
#615=AXIS2_PLACEMENT_3D('',#931,#778,#779);
#616=DIRECTION('axis',(0.,0.,1.));
#617=DIRECTION('refdir',(1.,0.,0.));
#618=DIRECTION('axis',(0.,0.,1.));
#619=DIRECTION('refdir',(1.,0.,0.));
#620=DIRECTION('axis',(0.,0.,1.));
#621=DIRECTION('refdir',(1.,0.,0.));
#622=DIRECTION('center_axis',(0.,0.,-1.));
#623=DIRECTION('ref_axis',(-8.85116802702257E-15,-1.,0.));
#624=DIRECTION('',(0.,0.,1.));
#625=DIRECTION('center_axis',(0.,0.,1.));
#626=DIRECTION('ref_axis',(0.,1.,0.));
#627=DIRECTION('',(0.,0.,-1.));
#628=DIRECTION('center_axis',(0.,0.,-1.));
#629=DIRECTION('ref_axis',(1.74152631313753E-14,-1.,0.));
#630=DIRECTION('center_axis',(0.,0.,1.));
#631=DIRECTION('ref_axis',(1.,1.01827902718114E-14,0.));
#632=DIRECTION('',(1.92943768929367E-15,-1.,0.));
#633=DIRECTION('',(-1.,-1.01827902718114E-14,0.));
#634=DIRECTION('',(-1.07806057163162E-14,1.,0.));
#635=DIRECTION('',(1.,1.01827902718114E-14,0.));
#636=DIRECTION('center_axis',(-6.05611398055254E-15,1.,0.));
#637=DIRECTION('ref_axis',(0.,0.,-1.));
#638=DIRECTION('',(0.,0.,-1.));
#639=DIRECTION('',(-1.,-1.01827902718114E-14,0.));
#640=DIRECTION('',(0.,0.,1.));
#641=DIRECTION('center_axis',(0.,0.,-1.));
#642=DIRECTION('ref_axis',(-1.,0.,0.));
#643=DIRECTION('',(-1.92943768929367E-15,1.,0.));
#644=DIRECTION('center_axis',(0.,0.,1.));
#645=DIRECTION('ref_axis',(0.,1.,0.));
#646=DIRECTION('',(-8.82055185704389E-15,-1.,0.));
#647=DIRECTION('center_axis',(0.,0.,1.));
#648=DIRECTION('ref_axis',(1.,0.,0.));
#649=DIRECTION('',(8.82055185704389E-15,1.,0.));
#650=DIRECTION('center_axis',(0.,0.,1.));
#651=DIRECTION('ref_axis',(0.,1.,0.));
#652=DIRECTION('center_axis',(0.,0.,-1.));
#653=DIRECTION('ref_axis',(-1.,-1.92943768929367E-15,0.));
#654=DIRECTION('',(-1.,-1.92943768929367E-15,0.));
#655=DIRECTION('',(-1.07806057163162E-14,1.,0.));
#656=DIRECTION('center_axis',(1.,1.07806057163162E-14,0.));
#657=DIRECTION('ref_axis',(0.,0.,-1.));
#658=DIRECTION('',(0.,0.,-1.));
#659=DIRECTION('center_axis',(0.,0.,-1.));
#660=DIRECTION('ref_axis',(-8.85116802702257E-15,-1.,0.));
#661=DIRECTION('',(0.,0.,1.));
#662=DIRECTION('center_axis',(-1.07806057163162E-14,1.,0.));
#663=DIRECTION('ref_axis',(0.,0.,-1.));
#664=DIRECTION('center_axis',(0.,0.,-1.));
#665=DIRECTION('ref_axis',(-8.85116802702257E-15,-1.,0.));
#666=DIRECTION('',(0.,0.,1.));
#667=DIRECTION('center_axis',(0.,0.,1.));
#668=DIRECTION('ref_axis',(0.,1.,0.));
#669=DIRECTION('',(0.,0.,-1.));
#670=DIRECTION('center_axis',(0.,0.,-1.));
#671=DIRECTION('ref_axis',(1.74152631313753E-14,-1.,0.));
#672=DIRECTION('center_axis',(0.,0.,1.));
#673=DIRECTION('ref_axis',(1.,1.01827902718114E-14,0.));
#674=DIRECTION('',(1.92943768929367E-15,-1.,0.));
#675=DIRECTION('',(-1.,-1.01827902718114E-14,0.));
#676=DIRECTION('',(-1.07806057163162E-14,1.,0.));
#677=DIRECTION('',(1.,1.01827902718114E-14,0.));
#678=DIRECTION('center_axis',(-6.05611398055254E-15,1.,0.));
#679=DIRECTION('ref_axis',(0.,0.,-1.));
#680=DIRECTION('',(0.,0.,-1.));
#681=DIRECTION('',(-1.,-1.01827902718114E-14,0.));
#682=DIRECTION('',(0.,0.,1.));
#683=DIRECTION('center_axis',(0.,0.,-1.));
#684=DIRECTION('ref_axis',(-1.,0.,0.));
#685=DIRECTION('',(-1.92943768929367E-15,1.,0.));
#686=DIRECTION('center_axis',(0.,0.,1.));
#687=DIRECTION('ref_axis',(0.,1.,0.));
#688=DIRECTION('',(-8.82055185704389E-15,-1.,0.));
#689=DIRECTION('center_axis',(0.,0.,1.));
#690=DIRECTION('ref_axis',(1.,0.,0.));
#691=DIRECTION('',(-8.82055185704389E-15,-1.,0.));
#692=DIRECTION('center_axis',(0.,0.,1.));
#693=DIRECTION('ref_axis',(0.,1.,0.));
#694=DIRECTION('center_axis',(0.,0.,-1.));
#695=DIRECTION('ref_axis',(-1.,-1.92943768929367E-15,0.));
#696=DIRECTION('',(-1.,-1.92943768929367E-15,0.));
#697=DIRECTION('',(-1.07806057163162E-14,1.,0.));
#698=DIRECTION('center_axis',(1.,1.07806057163162E-14,0.));
#699=DIRECTION('ref_axis',(0.,0.,-1.));
#700=DIRECTION('',(0.,0.,-1.));
#701=DIRECTION('center_axis',(0.,0.,-1.));
#702=DIRECTION('ref_axis',(-8.85116802702257E-15,-1.,0.));
#703=DIRECTION('',(0.,0.,1.));
#704=DIRECTION('center_axis',(-1.07806057163162E-14,1.,0.));
#705=DIRECTION('ref_axis',(0.,0.,-1.));
#706=DIRECTION('center_axis',(1.,0.,0.));
#707=DIRECTION('ref_axis',(0.,0.,-1.));
#708=DIRECTION('',(0.,0.,-1.));
#709=DIRECTION('',(0.,1.,0.));
#710=DIRECTION('',(0.,0.,1.));
#711=DIRECTION('',(0.,1.,0.));
#712=DIRECTION('center_axis',(0.,0.,1.));
#713=DIRECTION('ref_axis',(1.,0.,0.));
#714=DIRECTION('',(1.,-8.82055185704389E-15,0.));
#715=DIRECTION('',(-1.,8.85116802702257E-15,0.));
#716=DIRECTION('center_axis',(0.,0.,-1.));
#717=DIRECTION('ref_axis',(-1.,0.,0.));
#718=DIRECTION('',(-1.,8.82055185704389E-15,0.));
#719=DIRECTION('',(1.,-8.85116802702257E-15,0.));
#720=DIRECTION('center_axis',(8.85116802702257E-15,1.,0.));
#721=DIRECTION('ref_axis',(0.,0.,1.));
#722=DIRECTION('',(1.,-8.88178419700125E-15,0.));
#723=DIRECTION('',(0.,0.,-1.));
#724=DIRECTION('',(1.,-8.88178419700125E-15,0.));
#725=DIRECTION('center_axis',(0.,0.,-1.));
#726=DIRECTION('ref_axis',(1.,0.,0.));
#727=DIRECTION('',(0.,0.,1.));
#728=DIRECTION('center_axis',(0.,0.,1.));
#729=DIRECTION('ref_axis',(-8.88178419700128E-15,-1.,0.));
#730=DIRECTION('',(0.,0.,-1.));
#731=DIRECTION('center_axis',(0.,0.,-1.));
#732=DIRECTION('ref_axis',(1.,0.,0.));
#733=DIRECTION('center_axis',(0.,0.,1.));
#734=DIRECTION('ref_axis',(-1.,8.88178419700125E-15,0.));
#735=DIRECTION('',(8.82055185704389E-15,1.,0.));
#736=DIRECTION('',(-1.,8.88178419700125E-15,0.));
#737=DIRECTION('center_axis',(0.,0.,-1.));
#738=DIRECTION('ref_axis',(-1.,0.,0.));
#739=DIRECTION('',(-8.82055185704389E-15,-1.,0.));
#740=DIRECTION('center_axis',(0.,0.,1.));
#741=DIRECTION('ref_axis',(-8.88178419700144E-15,-1.,0.));
#742=DIRECTION('',(-1.,0.,0.));
#743=DIRECTION('center_axis',(0.,0.,1.));
#744=DIRECTION('ref_axis',(1.,0.,0.));
#745=DIRECTION('',(1.,0.,0.));
#746=DIRECTION('center_axis',(0.,0.,1.));
#747=DIRECTION('ref_axis',(-8.88178419700144E-15,-1.,0.));
#748=DIRECTION('center_axis',(0.,0.,-1.));
#749=DIRECTION('ref_axis',(1.,-8.82055185704389E-15,0.));
#750=DIRECTION('',(1.,-8.82055185704389E-15,0.));
#751=DIRECTION('center_axis',(0.,0.,-1.));
#752=DIRECTION('ref_axis',(1.,0.,0.));
#753=DIRECTION('',(0.,0.,1.));
#754=DIRECTION('center_axis',(-8.82055185704389E-15,-1.,0.));
#755=DIRECTION('ref_axis',(0.,0.,-1.));
#756=DIRECTION('center_axis',(0.,0.,1.));
#757=DIRECTION('ref_axis',(0.,-1.,0.));
#758=DIRECTION('',(0.,-1.,0.));
#759=DIRECTION('',(1.,0.,0.));
#760=DIRECTION('',(0.,-1.,0.));
#761=DIRECTION('center_axis',(1.,0.,0.));
#762=DIRECTION('ref_axis',(0.,0.,-1.));
#763=DIRECTION('',(0.,1.,0.));
#764=DIRECTION('',(0.,0.,1.));
#765=DIRECTION('center_axis',(0.,1.,0.));
#766=DIRECTION('ref_axis',(0.,0.,1.));
#767=DIRECTION('',(0.,0.,1.));
#768=DIRECTION('',(1.,0.,0.));
#769=DIRECTION('center_axis',(0.,0.,-1.));
#770=DIRECTION('ref_axis',(0.,1.,0.));
#771=DIRECTION('',(0.,1.,0.));
#772=DIRECTION('center_axis',(1.,0.,0.));
#773=DIRECTION('ref_axis',(0.,1.,0.));
#774=DIRECTION('',(0.,0.,1.));
#775=DIRECTION('',(1.,0.,0.));
#776=DIRECTION('',(0.,0.,1.));
#777=DIRECTION('',(1.,0.,0.));
#778=DIRECTION('center_axis',(0.,0.,1.));
#779=DIRECTION('ref_axis',(1.,0.,0.));
#780=CARTESIAN_POINT('',(0.,0.,0.));
#781=CARTESIAN_POINT('',(0.,0.,0.));
#782=CARTESIAN_POINT('',(0.,0.,0.));
#783=CARTESIAN_POINT('Origin',(-69.5,0.510000000000614,19.1));
#784=CARTESIAN_POINT('',(-69.5,1.02000000000061,0.));
#785=CARTESIAN_POINT('',(-69.5,1.02000000000062,38.2));
#786=CARTESIAN_POINT('',(-69.5,1.02000000000047,19.1));
#787=CARTESIAN_POINT('',(-69.5,6.12843109593086E-13,0.));
#788=CARTESIAN_POINT('Origin',(-69.5,0.510000000000614,0.));
#789=CARTESIAN_POINT('',(-69.5,0.,38.2));
#790=CARTESIAN_POINT('',(-69.5,6.12843109593086E-13,0.));
#791=CARTESIAN_POINT('Origin',(-69.5,0.510000000000614,38.2));
#792=CARTESIAN_POINT('Origin',(-70.2225663103256,0.520000000000609,38.2));
#793=CARTESIAN_POINT('',(-69.5,0.520000000000618,38.2));
#794=CARTESIAN_POINT('',(-69.5,0.630000000000619,38.2));
#795=CARTESIAN_POINT('',(-55.01,0.520000000000627,38.2));
#796=CARTESIAN_POINT('',(-69.8612831551628,0.520000000000609,38.2));
#797=CARTESIAN_POINT('',(-55.01,1.02000000000062,38.2));
#798=CARTESIAN_POINT('',(-55.01,0.520000000000627,38.2));
#799=CARTESIAN_POINT('',(-69.8612831551628,1.02000000000061,38.2));
#800=CARTESIAN_POINT('Origin',(-62.6162831551628,0.520000000000627,19.1));
#801=CARTESIAN_POINT('',(-69.5,0.520000000000618,0.));
#802=CARTESIAN_POINT('',(-69.5,0.520000000000591,19.1));
#803=CARTESIAN_POINT('',(-55.01,0.520000000000627,0.));
#804=CARTESIAN_POINT('',(-69.8612831551628,0.520000000000609,0.));
#805=CARTESIAN_POINT('',(-55.01,0.520000000000627,0.));
#806=CARTESIAN_POINT('Origin',(-69.5,0.520000000000618,0.));
#807=CARTESIAN_POINT('',(-69.5,0.63000000000061,0.));
#808=CARTESIAN_POINT('',(-69.5,0.500000000000611,0.));
#809=CARTESIAN_POINT('Origin',(-69.5,0.510000000000614,0.));
#810=CARTESIAN_POINT('',(-69.5,0.500000000000611,0.));
#811=CARTESIAN_POINT('Origin',(-69.5,1.02000000000062,38.2));
#812=CARTESIAN_POINT('',(-69.5,0.499999999999998,38.2));
#813=CARTESIAN_POINT('',(-69.5,0.25000000000051,38.2));
#814=CARTESIAN_POINT('Origin',(-69.5,0.510000000000614,38.2));
#815=CARTESIAN_POINT('Origin',(-55.01,0.520000000000636,0.));
#816=CARTESIAN_POINT('',(-55.01,1.02000000000062,0.));
#817=CARTESIAN_POINT('',(-69.5,1.02000000000061,0.));
#818=CARTESIAN_POINT('',(-55.01,0.520000000000627,0.));
#819=CARTESIAN_POINT('Origin',(-55.01,0.520000000000627,38.2));
#820=CARTESIAN_POINT('',(-55.01,1.02000000000062,0.));
#821=CARTESIAN_POINT('Origin',(-69.5,0.510000000000614,19.1));
#822=CARTESIAN_POINT('',(-69.5,0.500000000000611,0.));
#823=CARTESIAN_POINT('Origin',(-62.6162831551628,1.02000000000054,19.1));
#824=CARTESIAN_POINT('Origin',(-69.5,0.510000000000614,170.4));
#825=CARTESIAN_POINT('',(-69.5,1.02000000000061,140.8));
#826=CARTESIAN_POINT('',(-69.5,1.02000000000062,200.));
#827=CARTESIAN_POINT('',(-69.5,1.02000000000047,170.4));
#828=CARTESIAN_POINT('',(-69.5,0.,140.8));
#829=CARTESIAN_POINT('Origin',(-69.5,0.510000000000614,140.8));
#830=CARTESIAN_POINT('',(-69.5,6.12843109593086E-13,200.));
#831=CARTESIAN_POINT('',(-69.5,6.12843109593086E-13,0.));
#832=CARTESIAN_POINT('Origin',(-69.5,0.510000000000614,200.));
#833=CARTESIAN_POINT('Origin',(-70.2225663103256,0.520000000000609,200.));
#834=CARTESIAN_POINT('',(-69.5,0.520000000000618,200.));
#835=CARTESIAN_POINT('',(-69.5,0.630000000000619,200.));
#836=CARTESIAN_POINT('',(-55.01,0.520000000000627,200.));
#837=CARTESIAN_POINT('',(-69.8612831551628,0.520000000000609,200.));
#838=CARTESIAN_POINT('',(-55.01,1.02000000000062,200.));
#839=CARTESIAN_POINT('',(-55.01,0.520000000000627,200.));
#840=CARTESIAN_POINT('',(-69.8612831551628,1.02000000000061,200.));
#841=CARTESIAN_POINT('Origin',(-62.6162831551628,0.520000000000618,170.4));
#842=CARTESIAN_POINT('',(-69.5,0.520000000000618,140.8));
#843=CARTESIAN_POINT('',(-69.5,0.520000000000582,170.4));
#844=CARTESIAN_POINT('',(-55.01,0.520000000000627,140.8));
#845=CARTESIAN_POINT('',(-69.8612831551628,0.520000000000609,140.8));
#846=CARTESIAN_POINT('',(-55.01,0.520000000000627,140.8));
#847=CARTESIAN_POINT('Origin',(-69.5,0.520000000000618,140.8));
#848=CARTESIAN_POINT('',(-69.5,0.63000000000061,140.8));
#849=CARTESIAN_POINT('',(-69.5,0.499999999999998,140.8));
#850=CARTESIAN_POINT('Origin',(-69.5,0.510000000000614,140.8));
#851=CARTESIAN_POINT('',(-69.5,0.250000000000306,140.8));
#852=CARTESIAN_POINT('Origin',(-69.5,1.02000000000062,200.));
#853=CARTESIAN_POINT('',(-69.5,0.500000000000611,200.));
#854=CARTESIAN_POINT('',(-69.5,0.500000000000611,200.));
#855=CARTESIAN_POINT('Origin',(-69.5,0.510000000000614,200.));
#856=CARTESIAN_POINT('Origin',(-55.01,0.520000000000636,140.8));
#857=CARTESIAN_POINT('',(-55.01,1.02000000000062,140.8));
#858=CARTESIAN_POINT('',(-69.5,1.02000000000061,140.8));
#859=CARTESIAN_POINT('',(-55.01,0.520000000000627,140.8));
#860=CARTESIAN_POINT('Origin',(-55.01,0.520000000000627,200.));
#861=CARTESIAN_POINT('',(-55.01,1.02000000000062,140.8));
#862=CARTESIAN_POINT('Origin',(-69.5,0.510000000000614,170.4));
#863=CARTESIAN_POINT('',(-69.5,0.500000000000611,0.));
#864=CARTESIAN_POINT('Origin',(-62.6162831551628,1.02000000000054,170.4));
#865=CARTESIAN_POINT('Origin',(-22.5,0.,140.8));
#866=CARTESIAN_POINT('',(-22.5,0.,140.8));
#867=CARTESIAN_POINT('',(-22.5,0.,38.2));
#868=CARTESIAN_POINT('',(-22.5,1.95399252334028E-13,120.4));
#869=CARTESIAN_POINT('',(-22.5,0.499999999999998,140.8));
#870=CARTESIAN_POINT('',(-22.5,0.,140.8));
#871=CARTESIAN_POINT('',(-22.5,0.499999999999998,38.2));
#872=CARTESIAN_POINT('',(-22.5,0.500000000000203,120.4));
#873=CARTESIAN_POINT('',(-22.5,0.,38.2));
#874=CARTESIAN_POINT('Origin',(-69.5,0.,140.8));
#875=CARTESIAN_POINT('',(-51.9672566611769,4.52970994047064E-13,140.8));
#876=CARTESIAN_POINT('',(-51.9672566611769,0.50000000000046,140.8));
#877=CARTESIAN_POINT('Origin',(-22.5,0.,38.2));
#878=CARTESIAN_POINT('',(-28.4672566611769,2.48689957516035E-13,38.2));
#879=CARTESIAN_POINT('',(-28.4672566611769,0.500000000000256,38.2));
#880=CARTESIAN_POINT('Origin',(-34.4345133223538,0.500000000000309,100.));
#881=CARTESIAN_POINT('',(-0.499999999999998,0.500000000000007,200.));
#882=CARTESIAN_POINT('',(1.76194671058465,0.499999999999989,200.));
#883=CARTESIAN_POINT('',(-0.499999999999998,0.500000000000007,0.));
#884=CARTESIAN_POINT('',(-0.500000000000007,0.500000000000007,100.));
#885=CARTESIAN_POINT('',(1.76194671058465,0.499999999999989,0.));
#886=CARTESIAN_POINT('Origin',(-0.499999999999994,0.999999999999996,100.));
#887=CARTESIAN_POINT('',(-0.499999999999998,8.88178419700125E-15,0.));
#888=CARTESIAN_POINT('',(-0.499999999999998,8.88178419700125E-15,200.));
#889=CARTESIAN_POINT('',(-0.500000000000007,8.88178419700125E-15,100.));
#890=CARTESIAN_POINT('',(0.499999999999998,0.999999999999996,0.));
#891=CARTESIAN_POINT('Origin',(-0.499999999999994,0.999999999999996,0.));
#892=CARTESIAN_POINT('',(0.499999999999998,0.999999999999996,200.));
#893=CARTESIAN_POINT('',(0.499999999999998,0.999999999999996,50.));
#894=CARTESIAN_POINT('Origin',(-0.499999999999994,0.999999999999996,200.));
#895=CARTESIAN_POINT('Origin',(0.630973355292328,0.499999999999989,200.));
#896=CARTESIAN_POINT('',(-0.499999999999998,0.390000000000006,200.));
#897=CARTESIAN_POINT('',(1.76194671058465,-1.77635683940025E-14,200.));
#898=CARTESIAN_POINT('Origin',(-0.499999999999998,0.500000000000007,0.));
#899=CARTESIAN_POINT('',(-0.499999999999989,0.390000000000006,0.));
#900=CARTESIAN_POINT('',(0.,0.999999999999996,0.));
#901=CARTESIAN_POINT('Origin',(-0.499999999999994,0.999999999999996,0.));
#902=CARTESIAN_POINT('',(0.,0.999999999999996,0.));
#903=CARTESIAN_POINT('Origin',(-0.500000000000003,0.,200.));
#904=CARTESIAN_POINT('',(0.,0.999999999999996,200.));
#905=CARTESIAN_POINT('',(0.,0.999999999999996,200.));
#906=CARTESIAN_POINT('Origin',(-0.499999999999994,0.999999999999996,200.));
#907=CARTESIAN_POINT('Origin',(-69.5,0.500000000000611,0.));
#908=CARTESIAN_POINT('',(-0.499999999999998,8.88178419700125E-15,0.));
#909=CARTESIAN_POINT('Origin',(-0.499999999999994,0.999999999999996,100.));
#910=CARTESIAN_POINT('',(0.,0.999999999999996,50.));
#911=CARTESIAN_POINT('Origin',(-34.4345133223538,3.01980662698043E-13,100.));
#912=CARTESIAN_POINT('Origin',(0.,151.,200.));
#913=CARTESIAN_POINT('',(0.499999999999998,151.,200.));
#914=CARTESIAN_POINT('',(0.499999999999998,151.,200.));
#915=CARTESIAN_POINT('',(0.,151.,200.));
#916=CARTESIAN_POINT('',(0.,151.,200.));
#917=CARTESIAN_POINT('',(0.,151.,200.));
#918=CARTESIAN_POINT('Origin',(0.499999999999998,75.5,100.));
#919=CARTESIAN_POINT('',(0.499999999999998,151.,0.));
#920=CARTESIAN_POINT('',(0.499999999999998,0.,0.));
#921=CARTESIAN_POINT('',(0.499999999999998,151.,0.));
#922=CARTESIAN_POINT('Origin',(0.,151.,0.));
#923=CARTESIAN_POINT('',(0.,151.,0.));
#924=CARTESIAN_POINT('',(0.,151.,0.));
#925=CARTESIAN_POINT('',(0.,151.,0.));
#926=CARTESIAN_POINT('Origin',(0.,0.,0.));
#927=CARTESIAN_POINT('',(0.,0.,0.));
#928=CARTESIAN_POINT('Origin',(0.,75.5,100.));
#929=CARTESIAN_POINT('',(40.,-76.,0.));
#930=CARTESIAN_POINT('',(0.,0.,0.));
#931=CARTESIAN_POINT('Origin',(0.,0.,0.));
#932=UNCERTAINTY_MEASURE_WITH_UNIT(LENGTH_MEASURE(0.01),#940,
'DISTANCE_ACCURACY_VALUE',
'Maximum model space distance between geometric entities at asserted c
onnectivities');
#933=UNCERTAINTY_MEASURE_WITH_UNIT(LENGTH_MEASURE(0.01),#940,
'DISTANCE_ACCURACY_VALUE',
'Maximum model space distance between geometric entities at asserted c
onnectivities');
#934=UNCERTAINTY_MEASURE_WITH_UNIT(LENGTH_MEASURE(0.01),#940,
'DISTANCE_ACCURACY_VALUE',
'Maximum model space distance between geometric entities at asserted c
onnectivities');
#935=UNCERTAINTY_MEASURE_WITH_UNIT(LENGTH_MEASURE(0.01),#940,
'DISTANCE_ACCURACY_VALUE',
'Maximum model space distance between geometric entities at asserted c
onnectivities');
#936=(
GEOMETRIC_REPRESENTATION_CONTEXT(3)
GLOBAL_UNCERTAINTY_ASSIGNED_CONTEXT((#932))
GLOBAL_UNIT_ASSIGNED_CONTEXT((#940,#942,#943))
REPRESENTATION_CONTEXT('','3D')
);
#937=(
GEOMETRIC_REPRESENTATION_CONTEXT(3)
GLOBAL_UNCERTAINTY_ASSIGNED_CONTEXT((#933))
GLOBAL_UNIT_ASSIGNED_CONTEXT((#940,#942,#943))
REPRESENTATION_CONTEXT('','3D')
);
#938=(
GEOMETRIC_REPRESENTATION_CONTEXT(3)
GLOBAL_UNCERTAINTY_ASSIGNED_CONTEXT((#934))
GLOBAL_UNIT_ASSIGNED_CONTEXT((#940,#942,#943))
REPRESENTATION_CONTEXT('','3D')
);
#939=(
GEOMETRIC_REPRESENTATION_CONTEXT(3)
GLOBAL_UNCERTAINTY_ASSIGNED_CONTEXT((#935))
GLOBAL_UNIT_ASSIGNED_CONTEXT((#940,#942,#943))
REPRESENTATION_CONTEXT('','3D')
);
#940=(
LENGTH_UNIT()
NAMED_UNIT(*)
SI_UNIT(.MILLI.,.METRE.)
);
#941=(
LENGTH_UNIT()
NAMED_UNIT(*)
SI_UNIT($,.METRE.)
);
#942=(
NAMED_UNIT(*)
PLANE_ANGLE_UNIT()
SI_UNIT($,.RADIAN.)
);
#943=(
NAMED_UNIT(*)
SI_UNIT($,.STERADIAN.)
SOLID_ANGLE_UNIT()
);
#944=SHAPE_DEFINITION_REPRESENTATION(#947,#952);
#945=SHAPE_DEFINITION_REPRESENTATION(#948,#953);
#946=SHAPE_DEFINITION_REPRESENTATION(#949,#954);
#947=PRODUCT_DEFINITION_SHAPE('',$,#956);
#948=PRODUCT_DEFINITION_SHAPE('',$,#957);
#949=PRODUCT_DEFINITION_SHAPE('',$,#958);
#950=PRODUCT_DEFINITION_SHAPE($,$,#20);
#951=PRODUCT_DEFINITION_SHAPE($,$,#21);
#952=SHAPE_REPRESENTATION('',(#564,#614),#936);
#953=SHAPE_REPRESENTATION('',(#565,#613),#937);
#954=SHAPE_REPRESENTATION('',(#566),#938);
#955=PRODUCT_DEFINITION_CONTEXT('part definition',#966,'design');
#956=PRODUCT_DEFINITION('Home assistant box','Home assistant box v46',#959,
#955);
#957=PRODUCT_DEFINITION('Steel cover','Steel cover',#960,#955);
#958=PRODUCT_DEFINITION('Cover','Cover',#961,#955);
#959=PRODUCT_DEFINITION_FORMATION('',$,#968);
#960=PRODUCT_DEFINITION_FORMATION('',$,#969);
#961=PRODUCT_DEFINITION_FORMATION('',$,#970);
#962=PRODUCT_RELATED_PRODUCT_CATEGORY('Home assistant box v46',
'Home assistant box v46',(#968));
#963=PRODUCT_RELATED_PRODUCT_CATEGORY('Steel cover','Steel cover',(#969));
#964=PRODUCT_RELATED_PRODUCT_CATEGORY('Cover','Cover',(#970));
#965=APPLICATION_PROTOCOL_DEFINITION('international standard',
'automotive_design',2009,#966);
#966=APPLICATION_CONTEXT(
'Core Data for Automotive Mechanical Design Process');
#967=PRODUCT_CONTEXT('part definition',#966,'mechanical');
#968=PRODUCT('Home assistant box','Home assistant box v46',$,(#967));
#969=PRODUCT('Steel cover','Steel cover',$,(#967));
#970=PRODUCT('Cover','Cover',$,(#967));
#971=PRESENTATION_STYLE_ASSIGNMENT((#979));
#972=PRESENTATION_STYLE_ASSIGNMENT((#980));
#973=PRESENTATION_STYLE_ASSIGNMENT((#981));
#974=PRESENTATION_STYLE_ASSIGNMENT((#982));
#975=PRESENTATION_STYLE_ASSIGNMENT((#983));
#976=PRESENTATION_STYLE_ASSIGNMENT((#984));
#977=PRESENTATION_STYLE_ASSIGNMENT((#985));
#978=PRESENTATION_STYLE_ASSIGNMENT((NULL_STYLE(.NULL.)));
#979=SURFACE_STYLE_USAGE(.BOTH.,#986);
#980=SURFACE_STYLE_USAGE(.BOTH.,#987);
#981=SURFACE_STYLE_USAGE(.BOTH.,#988);
#982=SURFACE_STYLE_USAGE(.BOTH.,#989);
#983=SURFACE_STYLE_USAGE(.BOTH.,#990);
#984=SURFACE_STYLE_USAGE(.BOTH.,#991);
#985=SURFACE_STYLE_USAGE(.BOTH.,#992);
#986=SURFACE_SIDE_STYLE('',(#993));
#987=SURFACE_SIDE_STYLE('',(#994));
#988=SURFACE_SIDE_STYLE('',(#995));
#989=SURFACE_SIDE_STYLE('',(#996));
#990=SURFACE_SIDE_STYLE('',(#997));
#991=SURFACE_SIDE_STYLE('',(#998));
#992=SURFACE_SIDE_STYLE('',(#999));
#993=SURFACE_STYLE_FILL_AREA(#1000);
#994=SURFACE_STYLE_FILL_AREA(#1001);
#995=SURFACE_STYLE_FILL_AREA(#1002);
#996=SURFACE_STYLE_FILL_AREA(#1003);
#997=SURFACE_STYLE_FILL_AREA(#1004);
#998=SURFACE_STYLE_FILL_AREA(#1005);
#999=SURFACE_STYLE_FILL_AREA(#1006);
#1000=FILL_AREA_STYLE('Oak',(#1007));
#1001=FILL_AREA_STYLE('Plastic - Translucent Matte (White)',(#1008));
#1002=FILL_AREA_STYLE('Steel - Satin',(#1009));
#1003=FILL_AREA_STYLE('Paint - Metallic (Black)',(#1010));
#1004=FILL_AREA_STYLE('Paint - Metal Flake (Silver)',(#1011));
#1005=FILL_AREA_STYLE('Walnut',(#1012));
#1006=FILL_AREA_STYLE('Glass - Frosted',(#1013));
#1007=FILL_AREA_STYLE_COLOUR('Oak',#1014);
#1008=FILL_AREA_STYLE_COLOUR('Plastic - Translucent Matte (White)',#1015);
#1009=FILL_AREA_STYLE_COLOUR('Steel - Satin',#1016);
#1010=FILL_AREA_STYLE_COLOUR('Paint - Metallic (Black)',#1017);
#1011=FILL_AREA_STYLE_COLOUR('Paint - Metal Flake (Silver)',#1018);
#1012=FILL_AREA_STYLE_COLOUR('Walnut',#1019);
#1013=FILL_AREA_STYLE_COLOUR('Glass - Frosted',#1020);
#1014=COLOUR_RGB('Oak',0.,0.,0.);
#1015=COLOUR_RGB('Plastic - Translucent Matte (White)',0.964705882352941,
0.964705882352941,0.952941176470588);
#1016=COLOUR_RGB('Steel - Satin',0.627450980392157,0.627450980392157,0.627450980392157);
#1017=COLOUR_RGB('Paint - Metallic (Black)',0.0980392156862745,0.0980392156862745,
0.0980392156862745);
#1018=COLOUR_RGB('Paint - Metal Flake (Silver)',1.,1.,1.);
#1019=COLOUR_RGB('Walnut',0.,0.,0.);
#1020=COLOUR_RGB('Glass - Frosted',0.964705882352941,0.964705882352941,
0.952941176470588);
ENDSEC;
END-ISO-10303-21;
