ISO-10303-21;
HEADER;
/* Generated by software containing ST-Developer
 * from STEP Tools, Inc. (www.steptools.com) 
 */

FILE_DESCRIPTION(
/* description */ (''),
/* implementation_level */ '2;1');

FILE_NAME(
/* name */ 'Button.step',
/* time_stamp */ '2026-03-27T13:45:45+01:00',
/* author */ (''),
/* organization */ (''),
/* preprocessor_version */ 'ST-DEVELOPER v20.1',
/* originating_system */ 'Autodesk Translation Framework v14.24.0.0',
/* authorisation */ '');

FILE_SCHEMA (('AUTOMOTIVE_DESIGN { 1 0 10303 214 3 1 1 }'));
ENDSEC;

DATA;
#10=MECHANICAL_DESIGN_GEOMETRIC_PRESENTATION_REPRESENTATION('',(#20,#21),
#1771);
#11=CONTEXT_DEPENDENT_OVER_RIDING_STYLED_ITEM('',(#1798),#1782,#21,(#15));
#12=MAPPED_ITEM('',#13,#1190);
#13=REPRESENTATION_MAP(#1190,#1781);
#14=ITEM_DEFINED_TRANSFORMATION($,$,#1139,#1189);
#15=(
REPRESENTATION_RELATIONSHIP($,$,#1782,#1781)
REPRESENTATION_RELATIONSHIP_WITH_TRANSFORMATION(#14)
SHAPE_REPRESENTATION_RELATIONSHIP()
);
#16=CONTEXT_DEPENDENT_SHAPE_REPRESENTATION(#15,#1780);
#17=NEXT_ASSEMBLY_USAGE_OCCURRENCE('Box (left):1','Box (left):1',
'Box (left):1',#1784,#1785,'Box (left):1');
#18=SHAPE_REPRESENTATION_RELATIONSHIP('SRR','None',#1782,#19);
#19=ADVANCED_BREP_SHAPE_REPRESENTATION('',(#22),#1770);
#20=STYLED_ITEM('',(#1798),#22);
#21=STYLED_ITEM('',(#1802),#12);
#22=MANIFOLD_SOLID_BREP('Button',#1125);
#23=FACE_BOUND('',#85,.T.);
#24=FACE_BOUND('',#86,.T.);
#25=FACE_BOUND('',#87,.T.);
#26=FACE_BOUND('',#88,.T.);
#27=FACE_BOUND('',#89,.T.);
#28=FACE_BOUND('',#112,.T.);
#29=FACE_BOUND('',#115,.T.);
#30=FACE_BOUND('',#117,.T.);
#31=FACE_BOUND('',#120,.T.);
#32=FACE_BOUND('',#132,.T.);
#33=FACE_BOUND('',#142,.T.);
#34=FACE_OUTER_BOUND('',#83,.T.);
#35=FACE_OUTER_BOUND('',#84,.T.);
#36=FACE_OUTER_BOUND('',#90,.T.);
#37=FACE_OUTER_BOUND('',#91,.T.);
#38=FACE_OUTER_BOUND('',#92,.T.);
#39=FACE_OUTER_BOUND('',#93,.T.);
#40=FACE_OUTER_BOUND('',#94,.T.);
#41=FACE_OUTER_BOUND('',#95,.T.);
#42=FACE_OUTER_BOUND('',#96,.T.);
#43=FACE_OUTER_BOUND('',#97,.T.);
#44=FACE_OUTER_BOUND('',#98,.T.);
#45=FACE_OUTER_BOUND('',#99,.T.);
#46=FACE_OUTER_BOUND('',#100,.T.);
#47=FACE_OUTER_BOUND('',#101,.T.);
#48=FACE_OUTER_BOUND('',#102,.T.);
#49=FACE_OUTER_BOUND('',#103,.T.);
#50=FACE_OUTER_BOUND('',#104,.T.);
#51=FACE_OUTER_BOUND('',#105,.T.);
#52=FACE_OUTER_BOUND('',#106,.T.);
#53=FACE_OUTER_BOUND('',#107,.T.);
#54=FACE_OUTER_BOUND('',#108,.T.);
#55=FACE_OUTER_BOUND('',#109,.T.);
#56=FACE_OUTER_BOUND('',#110,.T.);
#57=FACE_OUTER_BOUND('',#111,.T.);
#58=FACE_OUTER_BOUND('',#113,.T.);
#59=FACE_OUTER_BOUND('',#114,.T.);
#60=FACE_OUTER_BOUND('',#116,.T.);
#61=FACE_OUTER_BOUND('',#118,.T.);
#62=FACE_OUTER_BOUND('',#119,.T.);
#63=FACE_OUTER_BOUND('',#121,.T.);
#64=FACE_OUTER_BOUND('',#122,.T.);
#65=FACE_OUTER_BOUND('',#123,.T.);
#66=FACE_OUTER_BOUND('',#124,.T.);
#67=FACE_OUTER_BOUND('',#125,.T.);
#68=FACE_OUTER_BOUND('',#126,.T.);
#69=FACE_OUTER_BOUND('',#127,.T.);
#70=FACE_OUTER_BOUND('',#128,.T.);
#71=FACE_OUTER_BOUND('',#129,.T.);
#72=FACE_OUTER_BOUND('',#130,.T.);
#73=FACE_OUTER_BOUND('',#131,.T.);
#74=FACE_OUTER_BOUND('',#133,.T.);
#75=FACE_OUTER_BOUND('',#134,.T.);
#76=FACE_OUTER_BOUND('',#135,.T.);
#77=FACE_OUTER_BOUND('',#136,.T.);
#78=FACE_OUTER_BOUND('',#137,.T.);
#79=FACE_OUTER_BOUND('',#138,.T.);
#80=FACE_OUTER_BOUND('',#139,.T.);
#81=FACE_OUTER_BOUND('',#140,.T.);
#82=FACE_OUTER_BOUND('',#141,.T.);
#83=EDGE_LOOP('',(#715,#716,#717,#718));
#84=EDGE_LOOP('',(#719,#720,#721,#722));
#85=EDGE_LOOP('',(#723,#724,#725,#726,#727,#728));
#86=EDGE_LOOP('',(#729,#730,#731,#732,#733,#734));
#87=EDGE_LOOP('',(#735,#736,#737,#738,#739,#740));
#88=EDGE_LOOP('',(#741,#742,#743,#744,#745,#746,#747,#748,#749,#750,#751,
#752,#753,#754,#755,#756,#757,#758,#759,#760));
#89=EDGE_LOOP('',(#761,#762,#763,#764,#765,#766));
#90=EDGE_LOOP('',(#767,#768,#769,#770));
#91=EDGE_LOOP('',(#771,#772,#773,#774));
#92=EDGE_LOOP('',(#775,#776,#777,#778));
#93=EDGE_LOOP('',(#779,#780,#781,#782));
#94=EDGE_LOOP('',(#783,#784,#785,#786));
#95=EDGE_LOOP('',(#787,#788,#789,#790));
#96=EDGE_LOOP('',(#791,#792,#793,#794));
#97=EDGE_LOOP('',(#795,#796,#797,#798));
#98=EDGE_LOOP('',(#799,#800,#801,#802));
#99=EDGE_LOOP('',(#803,#804,#805,#806));
#100=EDGE_LOOP('',(#807,#808,#809,#810));
#101=EDGE_LOOP('',(#811,#812,#813,#814));
#102=EDGE_LOOP('',(#815,#816,#817,#818));
#103=EDGE_LOOP('',(#819,#820,#821,#822));
#104=EDGE_LOOP('',(#823,#824,#825,#826));
#105=EDGE_LOOP('',(#827,#828,#829,#830));
#106=EDGE_LOOP('',(#831,#832,#833,#834));
#107=EDGE_LOOP('',(#835,#836,#837,#838));
#108=EDGE_LOOP('',(#839,#840,#841,#842));
#109=EDGE_LOOP('',(#843,#844,#845,#846));
#110=EDGE_LOOP('',(#847,#848,#849,#850));
#111=EDGE_LOOP('',(#851,#852,#853,#854));
#112=EDGE_LOOP('',(#855,#856,#857,#858));
#113=EDGE_LOOP('',(#859,#860,#861,#862));
#114=EDGE_LOOP('',(#863,#864,#865,#866));
#115=EDGE_LOOP('',(#867,#868,#869,#870));
#116=EDGE_LOOP('',(#871,#872,#873,#874));
#117=EDGE_LOOP('',(#875,#876,#877,#878));
#118=EDGE_LOOP('',(#879,#880,#881,#882));
#119=EDGE_LOOP('',(#883,#884,#885,#886));
#120=EDGE_LOOP('',(#887,#888,#889,#890));
#121=EDGE_LOOP('',(#891,#892,#893,#894));
#122=EDGE_LOOP('',(#895,#896,#897,#898));
#123=EDGE_LOOP('',(#899,#900,#901,#902,#903,#904,#905,#906));
#124=EDGE_LOOP('',(#907,#908,#909,#910,#911,#912,#913,#914));
#125=EDGE_LOOP('',(#915,#916,#917,#918,#919,#920,#921,#922));
#126=EDGE_LOOP('',(#923,#924,#925,#926,#927,#928,#929,#930));
#127=EDGE_LOOP('',(#931,#932,#933,#934,#935,#936,#937,#938));
#128=EDGE_LOOP('',(#939,#940,#941,#942,#943,#944,#945,#946));
#129=EDGE_LOOP('',(#947,#948,#949,#950,#951,#952,#953,#954));
#130=EDGE_LOOP('',(#955,#956,#957,#958,#959,#960,#961,#962));
#131=EDGE_LOOP('',(#963,#964,#965,#966));
#132=EDGE_LOOP('',(#967,#968,#969,#970));
#133=EDGE_LOOP('',(#971,#972,#973,#974,#975,#976,#977,#978));
#134=EDGE_LOOP('',(#979,#980,#981,#982,#983,#984,#985,#986));
#135=EDGE_LOOP('',(#987,#988,#989,#990,#991,#992,#993,#994));
#136=EDGE_LOOP('',(#995,#996,#997,#998,#999,#1000,#1001,#1002));
#137=EDGE_LOOP('',(#1003,#1004,#1005,#1006));
#138=EDGE_LOOP('',(#1007,#1008,#1009,#1010));
#139=EDGE_LOOP('',(#1011,#1012,#1013,#1014));
#140=EDGE_LOOP('',(#1015,#1016,#1017,#1018));
#141=EDGE_LOOP('',(#1019,#1020,#1021,#1022));
#142=EDGE_LOOP('',(#1023,#1024,#1025,#1026));
#143=LINE('',#1458,#299);
#144=LINE('',#1460,#300);
#145=LINE('',#1462,#301);
#146=LINE('',#1463,#302);
#147=LINE('',#1467,#303);
#148=LINE('',#1469,#304);
#149=LINE('',#1471,#305);
#150=LINE('',#1472,#306);
#151=LINE('',#1475,#307);
#152=LINE('',#1477,#308);
#153=LINE('',#1479,#309);
#154=LINE('',#1481,#310);
#155=LINE('',#1483,#311);
#156=LINE('',#1484,#312);
#157=LINE('',#1487,#313);
#158=LINE('',#1489,#314);
#159=LINE('',#1491,#315);
#160=LINE('',#1493,#316);
#161=LINE('',#1495,#317);
#162=LINE('',#1496,#318);
#163=LINE('',#1499,#319);
#164=LINE('',#1501,#320);
#165=LINE('',#1503,#321);
#166=LINE('',#1505,#322);
#167=LINE('',#1507,#323);
#168=LINE('',#1508,#324);
#169=LINE('',#1511,#325);
#170=LINE('',#1513,#326);
#171=LINE('',#1515,#327);
#172=LINE('',#1517,#328);
#173=LINE('',#1519,#329);
#174=LINE('',#1521,#330);
#175=LINE('',#1523,#331);
#176=LINE('',#1525,#332);
#177=LINE('',#1527,#333);
#178=LINE('',#1529,#334);
#179=LINE('',#1531,#335);
#180=LINE('',#1533,#336);
#181=LINE('',#1535,#337);
#182=LINE('',#1537,#338);
#183=LINE('',#1539,#339);
#184=LINE('',#1541,#340);
#185=LINE('',#1543,#341);
#186=LINE('',#1545,#342);
#187=LINE('',#1547,#343);
#188=LINE('',#1548,#344);
#189=LINE('',#1551,#345);
#190=LINE('',#1553,#346);
#191=LINE('',#1555,#347);
#192=LINE('',#1557,#348);
#193=LINE('',#1559,#349);
#194=LINE('',#1560,#350);
#195=LINE('',#1564,#351);
#196=LINE('',#1566,#352);
#197=LINE('',#1568,#353);
#198=LINE('',#1569,#354);
#199=LINE('',#1573,#355);
#200=LINE('',#1575,#356);
#201=LINE('',#1577,#357);
#202=LINE('',#1578,#358);
#203=LINE('',#1582,#359);
#204=LINE('',#1584,#360);
#205=LINE('',#1586,#361);
#206=LINE('',#1587,#362);
#207=LINE('',#1591,#363);
#208=LINE('',#1593,#364);
#209=LINE('',#1595,#365);
#210=LINE('',#1596,#366);
#211=LINE('',#1599,#367);
#212=LINE('',#1601,#368);
#213=LINE('',#1602,#369);
#214=LINE('',#1604,#370);
#215=LINE('',#1605,#371);
#216=LINE('',#1608,#372);
#217=LINE('',#1610,#373);
#218=LINE('',#1611,#374);
#219=LINE('',#1614,#375);
#220=LINE('',#1616,#376);
#221=LINE('',#1617,#377);
#222=LINE('',#1620,#378);
#223=LINE('',#1622,#379);
#224=LINE('',#1623,#380);
#225=LINE('',#1626,#381);
#226=LINE('',#1628,#382);
#227=LINE('',#1629,#383);
#228=LINE('',#1632,#384);
#229=LINE('',#1634,#385);
#230=LINE('',#1635,#386);
#231=LINE('',#1637,#387);
#232=LINE('',#1638,#388);
#233=LINE('',#1641,#389);
#234=LINE('',#1643,#390);
#235=LINE('',#1644,#391);
#236=LINE('',#1647,#392);
#237=LINE('',#1649,#393);
#238=LINE('',#1650,#394);
#239=LINE('',#1652,#395);
#240=LINE('',#1653,#396);
#241=LINE('',#1656,#397);
#242=LINE('',#1658,#398);
#243=LINE('',#1659,#399);
#244=LINE('',#1661,#400);
#245=LINE('',#1662,#401);
#246=LINE('',#1664,#402);
#247=LINE('',#1665,#403);
#248=LINE('',#1667,#404);
#249=LINE('',#1668,#405);
#250=LINE('',#1670,#406);
#251=LINE('',#1671,#407);
#252=LINE('',#1673,#408);
#253=LINE('',#1674,#409);
#254=LINE('',#1676,#410);
#255=LINE('',#1677,#411);
#256=LINE('',#1680,#412);
#257=LINE('',#1682,#413);
#258=LINE('',#1683,#414);
#259=LINE('',#1685,#415);
#260=LINE('',#1686,#416);
#261=LINE('',#1688,#417);
#262=LINE('',#1689,#418);
#263=LINE('',#1691,#419);
#264=LINE('',#1693,#420);
#265=LINE('',#1695,#421);
#266=LINE('',#1697,#422);
#267=LINE('',#1700,#423);
#268=LINE('',#1702,#424);
#269=LINE('',#1703,#425);
#270=LINE('',#1706,#426);
#271=LINE('',#1707,#427);
#272=LINE('',#1710,#428);
#273=LINE('',#1711,#429);
#274=LINE('',#1713,#430);
#275=LINE('',#1716,#431);
#276=LINE('',#1718,#432);
#277=LINE('',#1719,#433);
#278=LINE('',#1722,#434);
#279=LINE('',#1723,#435);
#280=LINE('',#1726,#436);
#281=LINE('',#1727,#437);
#282=LINE('',#1729,#438);
#283=LINE('',#1733,#439);
#284=LINE('',#1735,#440);
#285=LINE('',#1736,#441);
#286=LINE('',#1739,#442);
#287=LINE('',#1740,#443);
#288=LINE('',#1743,#444);
#289=LINE('',#1744,#445);
#290=LINE('',#1746,#446);
#291=LINE('',#1749,#447);
#292=LINE('',#1751,#448);
#293=LINE('',#1752,#449);
#294=LINE('',#1755,#450);
#295=LINE('',#1756,#451);
#296=LINE('',#1759,#452);
#297=LINE('',#1760,#453);
#298=LINE('',#1762,#454);
#299=VECTOR('',#1197,10.);
#300=VECTOR('',#1198,10.);
#301=VECTOR('',#1199,10.);
#302=VECTOR('',#1200,10.);
#303=VECTOR('',#1203,10.);
#304=VECTOR('',#1204,10.);
#305=VECTOR('',#1205,10.);
#306=VECTOR('',#1206,10.);
#307=VECTOR('',#1207,10.);
#308=VECTOR('',#1208,10.);
#309=VECTOR('',#1209,10.);
#310=VECTOR('',#1210,10.);
#311=VECTOR('',#1211,10.);
#312=VECTOR('',#1212,10.);
#313=VECTOR('',#1213,10.);
#314=VECTOR('',#1214,10.);
#315=VECTOR('',#1215,10.);
#316=VECTOR('',#1216,10.);
#317=VECTOR('',#1217,10.);
#318=VECTOR('',#1218,10.);
#319=VECTOR('',#1219,10.);
#320=VECTOR('',#1220,10.);
#321=VECTOR('',#1221,10.);
#322=VECTOR('',#1222,10.);
#323=VECTOR('',#1223,10.);
#324=VECTOR('',#1224,10.);
#325=VECTOR('',#1225,10.);
#326=VECTOR('',#1226,10.);
#327=VECTOR('',#1227,10.);
#328=VECTOR('',#1228,10.);
#329=VECTOR('',#1229,10.);
#330=VECTOR('',#1230,10.);
#331=VECTOR('',#1231,10.);
#332=VECTOR('',#1232,10.);
#333=VECTOR('',#1233,10.);
#334=VECTOR('',#1234,10.);
#335=VECTOR('',#1235,10.);
#336=VECTOR('',#1236,10.);
#337=VECTOR('',#1237,10.);
#338=VECTOR('',#1238,10.);
#339=VECTOR('',#1239,10.);
#340=VECTOR('',#1240,10.);
#341=VECTOR('',#1241,10.);
#342=VECTOR('',#1242,10.);
#343=VECTOR('',#1243,10.);
#344=VECTOR('',#1244,10.);
#345=VECTOR('',#1245,10.);
#346=VECTOR('',#1246,10.);
#347=VECTOR('',#1247,10.);
#348=VECTOR('',#1248,10.);
#349=VECTOR('',#1249,10.);
#350=VECTOR('',#1250,10.);
#351=VECTOR('',#1253,10.);
#352=VECTOR('',#1254,10.);
#353=VECTOR('',#1255,10.);
#354=VECTOR('',#1256,10.);
#355=VECTOR('',#1259,10.);
#356=VECTOR('',#1260,10.);
#357=VECTOR('',#1261,10.);
#358=VECTOR('',#1262,10.);
#359=VECTOR('',#1265,10.);
#360=VECTOR('',#1266,10.);
#361=VECTOR('',#1267,10.);
#362=VECTOR('',#1268,10.);
#363=VECTOR('',#1271,10.);
#364=VECTOR('',#1272,10.);
#365=VECTOR('',#1273,10.);
#366=VECTOR('',#1274,10.);
#367=VECTOR('',#1277,10.);
#368=VECTOR('',#1278,10.);
#369=VECTOR('',#1279,10.);
#370=VECTOR('',#1282,10.);
#371=VECTOR('',#1283,10.);
#372=VECTOR('',#1286,10.);
#373=VECTOR('',#1287,10.);
#374=VECTOR('',#1288,10.);
#375=VECTOR('',#1291,10.);
#376=VECTOR('',#1292,10.);
#377=VECTOR('',#1293,10.);
#378=VECTOR('',#1296,10.);
#379=VECTOR('',#1297,10.);
#380=VECTOR('',#1298,10.);
#381=VECTOR('',#1301,10.);
#382=VECTOR('',#1302,10.);
#383=VECTOR('',#1303,10.);
#384=VECTOR('',#1306,10.);
#385=VECTOR('',#1307,10.);
#386=VECTOR('',#1308,10.);
#387=VECTOR('',#1311,10.);
#388=VECTOR('',#1312,10.);
#389=VECTOR('',#1315,10.);
#390=VECTOR('',#1316,10.);
#391=VECTOR('',#1317,10.);
#392=VECTOR('',#1320,10.);
#393=VECTOR('',#1321,10.);
#394=VECTOR('',#1322,10.);
#395=VECTOR('',#1325,10.);
#396=VECTOR('',#1326,10.);
#397=VECTOR('',#1329,10.);
#398=VECTOR('',#1330,10.);
#399=VECTOR('',#1331,10.);
#400=VECTOR('',#1334,10.);
#401=VECTOR('',#1335,10.);
#402=VECTOR('',#1338,10.);
#403=VECTOR('',#1339,10.);
#404=VECTOR('',#1342,10.);
#405=VECTOR('',#1343,10.);
#406=VECTOR('',#1346,10.);
#407=VECTOR('',#1347,10.);
#408=VECTOR('',#1350,10.);
#409=VECTOR('',#1351,10.);
#410=VECTOR('',#1354,10.);
#411=VECTOR('',#1355,10.);
#412=VECTOR('',#1358,10.);
#413=VECTOR('',#1359,10.);
#414=VECTOR('',#1360,10.);
#415=VECTOR('',#1363,10.);
#416=VECTOR('',#1364,10.);
#417=VECTOR('',#1367,10.);
#418=VECTOR('',#1368,10.);
#419=VECTOR('',#1371,10.);
#420=VECTOR('',#1374,10.);
#421=VECTOR('',#1377,10.);
#422=VECTOR('',#1380,10.);
#423=VECTOR('',#1383,10.);
#424=VECTOR('',#1384,10.);
#425=VECTOR('',#1385,10.);
#426=VECTOR('',#1388,10.);
#427=VECTOR('',#1389,10.);
#428=VECTOR('',#1392,10.);
#429=VECTOR('',#1393,10.);
#430=VECTOR('',#1396,10.);
#431=VECTOR('',#1399,10.);
#432=VECTOR('',#1400,10.);
#433=VECTOR('',#1401,10.);
#434=VECTOR('',#1404,10.);
#435=VECTOR('',#1405,10.);
#436=VECTOR('',#1408,10.);
#437=VECTOR('',#1409,10.);
#438=VECTOR('',#1412,10.);
#439=VECTOR('',#1417,10.);
#440=VECTOR('',#1418,10.);
#441=VECTOR('',#1419,10.);
#442=VECTOR('',#1422,10.);
#443=VECTOR('',#1423,10.);
#444=VECTOR('',#1426,10.);
#445=VECTOR('',#1427,10.);
#446=VECTOR('',#1430,10.);
#447=VECTOR('',#1433,10.);
#448=VECTOR('',#1434,10.);
#449=VECTOR('',#1435,10.);
#450=VECTOR('',#1438,10.);
#451=VECTOR('',#1439,10.);
#452=VECTOR('',#1442,10.);
#453=VECTOR('',#1443,10.);
#454=VECTOR('',#1446,10.);
#455=VERTEX_POINT('',#1456);
#456=VERTEX_POINT('',#1457);
#457=VERTEX_POINT('',#1459);
#458=VERTEX_POINT('',#1461);
#459=VERTEX_POINT('',#1465);
#460=VERTEX_POINT('',#1466);
#461=VERTEX_POINT('',#1468);
#462=VERTEX_POINT('',#1470);
#463=VERTEX_POINT('',#1473);
#464=VERTEX_POINT('',#1474);
#465=VERTEX_POINT('',#1476);
#466=VERTEX_POINT('',#1478);
#467=VERTEX_POINT('',#1480);
#468=VERTEX_POINT('',#1482);
#469=VERTEX_POINT('',#1485);
#470=VERTEX_POINT('',#1486);
#471=VERTEX_POINT('',#1488);
#472=VERTEX_POINT('',#1490);
#473=VERTEX_POINT('',#1492);
#474=VERTEX_POINT('',#1494);
#475=VERTEX_POINT('',#1497);
#476=VERTEX_POINT('',#1498);
#477=VERTEX_POINT('',#1500);
#478=VERTEX_POINT('',#1502);
#479=VERTEX_POINT('',#1504);
#480=VERTEX_POINT('',#1506);
#481=VERTEX_POINT('',#1509);
#482=VERTEX_POINT('',#1510);
#483=VERTEX_POINT('',#1512);
#484=VERTEX_POINT('',#1514);
#485=VERTEX_POINT('',#1516);
#486=VERTEX_POINT('',#1518);
#487=VERTEX_POINT('',#1520);
#488=VERTEX_POINT('',#1522);
#489=VERTEX_POINT('',#1524);
#490=VERTEX_POINT('',#1526);
#491=VERTEX_POINT('',#1528);
#492=VERTEX_POINT('',#1530);
#493=VERTEX_POINT('',#1532);
#494=VERTEX_POINT('',#1534);
#495=VERTEX_POINT('',#1536);
#496=VERTEX_POINT('',#1538);
#497=VERTEX_POINT('',#1540);
#498=VERTEX_POINT('',#1542);
#499=VERTEX_POINT('',#1544);
#500=VERTEX_POINT('',#1546);
#501=VERTEX_POINT('',#1549);
#502=VERTEX_POINT('',#1550);
#503=VERTEX_POINT('',#1552);
#504=VERTEX_POINT('',#1554);
#505=VERTEX_POINT('',#1556);
#506=VERTEX_POINT('',#1558);
#507=VERTEX_POINT('',#1562);
#508=VERTEX_POINT('',#1563);
#509=VERTEX_POINT('',#1565);
#510=VERTEX_POINT('',#1567);
#511=VERTEX_POINT('',#1571);
#512=VERTEX_POINT('',#1572);
#513=VERTEX_POINT('',#1574);
#514=VERTEX_POINT('',#1576);
#515=VERTEX_POINT('',#1580);
#516=VERTEX_POINT('',#1581);
#517=VERTEX_POINT('',#1583);
#518=VERTEX_POINT('',#1585);
#519=VERTEX_POINT('',#1589);
#520=VERTEX_POINT('',#1590);
#521=VERTEX_POINT('',#1592);
#522=VERTEX_POINT('',#1594);
#523=VERTEX_POINT('',#1598);
#524=VERTEX_POINT('',#1600);
#525=VERTEX_POINT('',#1607);
#526=VERTEX_POINT('',#1609);
#527=VERTEX_POINT('',#1613);
#528=VERTEX_POINT('',#1615);
#529=VERTEX_POINT('',#1619);
#530=VERTEX_POINT('',#1621);
#531=VERTEX_POINT('',#1625);
#532=VERTEX_POINT('',#1627);
#533=VERTEX_POINT('',#1631);
#534=VERTEX_POINT('',#1633);
#535=VERTEX_POINT('',#1640);
#536=VERTEX_POINT('',#1642);
#537=VERTEX_POINT('',#1646);
#538=VERTEX_POINT('',#1648);
#539=VERTEX_POINT('',#1655);
#540=VERTEX_POINT('',#1657);
#541=VERTEX_POINT('',#1679);
#542=VERTEX_POINT('',#1681);
#543=VERTEX_POINT('',#1699);
#544=VERTEX_POINT('',#1701);
#545=VERTEX_POINT('',#1705);
#546=VERTEX_POINT('',#1709);
#547=VERTEX_POINT('',#1715);
#548=VERTEX_POINT('',#1717);
#549=VERTEX_POINT('',#1721);
#550=VERTEX_POINT('',#1725);
#551=VERTEX_POINT('',#1732);
#552=VERTEX_POINT('',#1734);
#553=VERTEX_POINT('',#1738);
#554=VERTEX_POINT('',#1742);
#555=VERTEX_POINT('',#1748);
#556=VERTEX_POINT('',#1750);
#557=VERTEX_POINT('',#1754);
#558=VERTEX_POINT('',#1758);
#559=EDGE_CURVE('',#455,#456,#143,.T.);
#560=EDGE_CURVE('',#456,#457,#144,.T.);
#561=EDGE_CURVE('',#457,#458,#145,.T.);
#562=EDGE_CURVE('',#458,#455,#146,.T.);
#563=EDGE_CURVE('',#459,#460,#147,.T.);
#564=EDGE_CURVE('',#460,#461,#148,.T.);
#565=EDGE_CURVE('',#461,#462,#149,.T.);
#566=EDGE_CURVE('',#462,#459,#150,.T.);
#567=EDGE_CURVE('',#463,#464,#151,.T.);
#568=EDGE_CURVE('',#464,#465,#152,.T.);
#569=EDGE_CURVE('',#466,#465,#153,.T.);
#570=EDGE_CURVE('',#467,#466,#154,.T.);
#571=EDGE_CURVE('',#468,#467,#155,.T.);
#572=EDGE_CURVE('',#463,#468,#156,.T.);
#573=EDGE_CURVE('',#469,#470,#157,.T.);
#574=EDGE_CURVE('',#471,#469,#158,.T.);
#575=EDGE_CURVE('',#472,#471,#159,.T.);
#576=EDGE_CURVE('',#473,#472,#160,.T.);
#577=EDGE_CURVE('',#473,#474,#161,.T.);
#578=EDGE_CURVE('',#474,#470,#162,.T.);
#579=EDGE_CURVE('',#475,#476,#163,.T.);
#580=EDGE_CURVE('',#477,#475,#164,.T.);
#581=EDGE_CURVE('',#478,#477,#165,.T.);
#582=EDGE_CURVE('',#479,#478,#166,.T.);
#583=EDGE_CURVE('',#479,#480,#167,.T.);
#584=EDGE_CURVE('',#480,#476,#168,.T.);
#585=EDGE_CURVE('',#481,#482,#169,.T.);
#586=EDGE_CURVE('',#483,#482,#170,.T.);
#587=EDGE_CURVE('',#483,#484,#171,.T.);
#588=EDGE_CURVE('',#484,#485,#172,.T.);
#589=EDGE_CURVE('',#486,#485,#173,.T.);
#590=EDGE_CURVE('',#486,#487,#174,.T.);
#591=EDGE_CURVE('',#488,#487,#175,.T.);
#592=EDGE_CURVE('',#488,#489,#176,.T.);
#593=EDGE_CURVE('',#489,#490,#177,.T.);
#594=EDGE_CURVE('',#491,#490,#178,.T.);
#595=EDGE_CURVE('',#491,#492,#179,.T.);
#596=EDGE_CURVE('',#493,#492,#180,.T.);
#597=EDGE_CURVE('',#493,#494,#181,.T.);
#598=EDGE_CURVE('',#494,#495,#182,.T.);
#599=EDGE_CURVE('',#496,#495,#183,.T.);
#600=EDGE_CURVE('',#496,#497,#184,.T.);
#601=EDGE_CURVE('',#498,#497,#185,.T.);
#602=EDGE_CURVE('',#498,#499,#186,.T.);
#603=EDGE_CURVE('',#499,#500,#187,.T.);
#604=EDGE_CURVE('',#481,#500,#188,.T.);
#605=EDGE_CURVE('',#501,#502,#189,.T.);
#606=EDGE_CURVE('',#503,#501,#190,.T.);
#607=EDGE_CURVE('',#504,#503,#191,.T.);
#608=EDGE_CURVE('',#505,#504,#192,.T.);
#609=EDGE_CURVE('',#505,#506,#193,.T.);
#610=EDGE_CURVE('',#506,#502,#194,.T.);
#611=EDGE_CURVE('',#507,#508,#195,.T.);
#612=EDGE_CURVE('',#508,#509,#196,.T.);
#613=EDGE_CURVE('',#509,#510,#197,.T.);
#614=EDGE_CURVE('',#510,#507,#198,.T.);
#615=EDGE_CURVE('',#511,#512,#199,.T.);
#616=EDGE_CURVE('',#512,#513,#200,.T.);
#617=EDGE_CURVE('',#514,#513,#201,.T.);
#618=EDGE_CURVE('',#514,#511,#202,.T.);
#619=EDGE_CURVE('',#515,#516,#203,.T.);
#620=EDGE_CURVE('',#516,#517,#204,.T.);
#621=EDGE_CURVE('',#518,#517,#205,.T.);
#622=EDGE_CURVE('',#518,#515,#206,.T.);
#623=EDGE_CURVE('',#519,#520,#207,.T.);
#624=EDGE_CURVE('',#520,#521,#208,.T.);
#625=EDGE_CURVE('',#522,#521,#209,.T.);
#626=EDGE_CURVE('',#522,#519,#210,.T.);
#627=EDGE_CURVE('',#523,#468,#211,.T.);
#628=EDGE_CURVE('',#524,#523,#212,.T.);
#629=EDGE_CURVE('',#463,#524,#213,.T.);
#630=EDGE_CURVE('',#483,#522,#214,.T.);
#631=EDGE_CURVE('',#482,#519,#215,.T.);
#632=EDGE_CURVE('',#469,#525,#216,.T.);
#633=EDGE_CURVE('',#526,#470,#217,.T.);
#634=EDGE_CURVE('',#525,#526,#218,.T.);
#635=EDGE_CURVE('',#527,#472,#219,.T.);
#636=EDGE_CURVE('',#528,#527,#220,.T.);
#637=EDGE_CURVE('',#473,#528,#221,.T.);
#638=EDGE_CURVE('',#498,#529,#222,.T.);
#639=EDGE_CURVE('',#497,#530,#223,.T.);
#640=EDGE_CURVE('',#529,#530,#224,.T.);
#641=EDGE_CURVE('',#475,#531,#225,.T.);
#642=EDGE_CURVE('',#532,#476,#226,.T.);
#643=EDGE_CURVE('',#531,#532,#227,.T.);
#644=EDGE_CURVE('',#533,#478,#228,.T.);
#645=EDGE_CURVE('',#534,#533,#229,.T.);
#646=EDGE_CURVE('',#479,#534,#230,.T.);
#647=EDGE_CURVE('',#493,#518,#231,.T.);
#648=EDGE_CURVE('',#492,#515,#232,.T.);
#649=EDGE_CURVE('',#501,#535,#233,.T.);
#650=EDGE_CURVE('',#536,#502,#234,.T.);
#651=EDGE_CURVE('',#535,#536,#235,.T.);
#652=EDGE_CURVE('',#537,#504,#236,.T.);
#653=EDGE_CURVE('',#538,#537,#237,.T.);
#654=EDGE_CURVE('',#505,#538,#238,.T.);
#655=EDGE_CURVE('',#488,#514,#239,.T.);
#656=EDGE_CURVE('',#487,#511,#240,.T.);
#657=EDGE_CURVE('',#539,#537,#241,.T.);
#658=EDGE_CURVE('',#539,#540,#242,.T.);
#659=EDGE_CURVE('',#538,#540,#243,.T.);
#660=EDGE_CURVE('',#535,#533,#244,.T.);
#661=EDGE_CURVE('',#534,#536,#245,.T.);
#662=EDGE_CURVE('',#531,#527,#246,.T.);
#663=EDGE_CURVE('',#528,#532,#247,.T.);
#664=EDGE_CURVE('',#525,#523,#248,.T.);
#665=EDGE_CURVE('',#524,#526,#249,.T.);
#666=EDGE_CURVE('',#466,#539,#250,.T.);
#667=EDGE_CURVE('',#540,#465,#251,.T.);
#668=EDGE_CURVE('',#521,#500,#252,.T.);
#669=EDGE_CURVE('',#481,#520,#253,.T.);
#670=EDGE_CURVE('',#510,#457,#254,.T.);
#671=EDGE_CURVE('',#507,#456,#255,.T.);
#672=EDGE_CURVE('',#541,#495,#256,.T.);
#673=EDGE_CURVE('',#542,#541,#257,.T.);
#674=EDGE_CURVE('',#496,#542,#258,.T.);
#675=EDGE_CURVE('',#509,#458,#259,.T.);
#676=EDGE_CURVE('',#530,#542,#260,.T.);
#677=EDGE_CURVE('',#508,#455,#261,.T.);
#678=EDGE_CURVE('',#491,#516,#262,.T.);
#679=EDGE_CURVE('',#517,#490,#263,.T.);
#680=EDGE_CURVE('',#486,#512,#264,.T.);
#681=EDGE_CURVE('',#513,#485,#265,.T.);
#682=EDGE_CURVE('',#529,#541,#266,.T.);
#683=EDGE_CURVE('',#499,#543,#267,.T.);
#684=EDGE_CURVE('',#544,#543,#268,.T.);
#685=EDGE_CURVE('',#484,#544,#269,.T.);
#686=EDGE_CURVE('',#494,#545,#270,.T.);
#687=EDGE_CURVE('',#543,#545,#271,.T.);
#688=EDGE_CURVE('',#489,#546,#272,.T.);
#689=EDGE_CURVE('',#545,#546,#273,.T.);
#690=EDGE_CURVE('',#546,#544,#274,.T.);
#691=EDGE_CURVE('',#477,#547,#275,.T.);
#692=EDGE_CURVE('',#548,#547,#276,.T.);
#693=EDGE_CURVE('',#503,#548,#277,.T.);
#694=EDGE_CURVE('',#549,#548,#278,.T.);
#695=EDGE_CURVE('',#467,#549,#279,.T.);
#696=EDGE_CURVE('',#550,#549,#280,.T.);
#697=EDGE_CURVE('',#471,#550,#281,.T.);
#698=EDGE_CURVE('',#547,#550,#282,.T.);
#699=EDGE_CURVE('',#480,#551,#283,.T.);
#700=EDGE_CURVE('',#552,#551,#284,.T.);
#701=EDGE_CURVE('',#474,#552,#285,.T.);
#702=EDGE_CURVE('',#553,#552,#286,.T.);
#703=EDGE_CURVE('',#464,#553,#287,.T.);
#704=EDGE_CURVE('',#554,#553,#288,.T.);
#705=EDGE_CURVE('',#506,#554,#289,.T.);
#706=EDGE_CURVE('',#551,#554,#290,.T.);
#707=EDGE_CURVE('',#460,#555,#291,.T.);
#708=EDGE_CURVE('',#556,#555,#292,.T.);
#709=EDGE_CURVE('',#461,#556,#293,.T.);
#710=EDGE_CURVE('',#557,#556,#294,.T.);
#711=EDGE_CURVE('',#462,#557,#295,.T.);
#712=EDGE_CURVE('',#558,#557,#296,.T.);
#713=EDGE_CURVE('',#459,#558,#297,.T.);
#714=EDGE_CURVE('',#555,#558,#298,.T.);
#715=ORIENTED_EDGE('',*,*,#559,.T.);
#716=ORIENTED_EDGE('',*,*,#560,.T.);
#717=ORIENTED_EDGE('',*,*,#561,.T.);
#718=ORIENTED_EDGE('',*,*,#562,.T.);
#719=ORIENTED_EDGE('',*,*,#563,.T.);
#720=ORIENTED_EDGE('',*,*,#564,.T.);
#721=ORIENTED_EDGE('',*,*,#565,.T.);
#722=ORIENTED_EDGE('',*,*,#566,.T.);
#723=ORIENTED_EDGE('',*,*,#567,.T.);
#724=ORIENTED_EDGE('',*,*,#568,.T.);
#725=ORIENTED_EDGE('',*,*,#569,.F.);
#726=ORIENTED_EDGE('',*,*,#570,.F.);
#727=ORIENTED_EDGE('',*,*,#571,.F.);
#728=ORIENTED_EDGE('',*,*,#572,.F.);
#729=ORIENTED_EDGE('',*,*,#573,.F.);
#730=ORIENTED_EDGE('',*,*,#574,.F.);
#731=ORIENTED_EDGE('',*,*,#575,.F.);
#732=ORIENTED_EDGE('',*,*,#576,.F.);
#733=ORIENTED_EDGE('',*,*,#577,.T.);
#734=ORIENTED_EDGE('',*,*,#578,.T.);
#735=ORIENTED_EDGE('',*,*,#579,.F.);
#736=ORIENTED_EDGE('',*,*,#580,.F.);
#737=ORIENTED_EDGE('',*,*,#581,.F.);
#738=ORIENTED_EDGE('',*,*,#582,.F.);
#739=ORIENTED_EDGE('',*,*,#583,.T.);
#740=ORIENTED_EDGE('',*,*,#584,.T.);
#741=ORIENTED_EDGE('',*,*,#585,.T.);
#742=ORIENTED_EDGE('',*,*,#586,.F.);
#743=ORIENTED_EDGE('',*,*,#587,.T.);
#744=ORIENTED_EDGE('',*,*,#588,.T.);
#745=ORIENTED_EDGE('',*,*,#589,.F.);
#746=ORIENTED_EDGE('',*,*,#590,.T.);
#747=ORIENTED_EDGE('',*,*,#591,.F.);
#748=ORIENTED_EDGE('',*,*,#592,.T.);
#749=ORIENTED_EDGE('',*,*,#593,.T.);
#750=ORIENTED_EDGE('',*,*,#594,.F.);
#751=ORIENTED_EDGE('',*,*,#595,.T.);
#752=ORIENTED_EDGE('',*,*,#596,.F.);
#753=ORIENTED_EDGE('',*,*,#597,.T.);
#754=ORIENTED_EDGE('',*,*,#598,.T.);
#755=ORIENTED_EDGE('',*,*,#599,.F.);
#756=ORIENTED_EDGE('',*,*,#600,.T.);
#757=ORIENTED_EDGE('',*,*,#601,.F.);
#758=ORIENTED_EDGE('',*,*,#602,.T.);
#759=ORIENTED_EDGE('',*,*,#603,.T.);
#760=ORIENTED_EDGE('',*,*,#604,.F.);
#761=ORIENTED_EDGE('',*,*,#605,.F.);
#762=ORIENTED_EDGE('',*,*,#606,.F.);
#763=ORIENTED_EDGE('',*,*,#607,.F.);
#764=ORIENTED_EDGE('',*,*,#608,.F.);
#765=ORIENTED_EDGE('',*,*,#609,.T.);
#766=ORIENTED_EDGE('',*,*,#610,.T.);
#767=ORIENTED_EDGE('',*,*,#611,.T.);
#768=ORIENTED_EDGE('',*,*,#612,.T.);
#769=ORIENTED_EDGE('',*,*,#613,.T.);
#770=ORIENTED_EDGE('',*,*,#614,.T.);
#771=ORIENTED_EDGE('',*,*,#615,.T.);
#772=ORIENTED_EDGE('',*,*,#616,.T.);
#773=ORIENTED_EDGE('',*,*,#617,.F.);
#774=ORIENTED_EDGE('',*,*,#618,.T.);
#775=ORIENTED_EDGE('',*,*,#619,.T.);
#776=ORIENTED_EDGE('',*,*,#620,.T.);
#777=ORIENTED_EDGE('',*,*,#621,.F.);
#778=ORIENTED_EDGE('',*,*,#622,.T.);
#779=ORIENTED_EDGE('',*,*,#623,.T.);
#780=ORIENTED_EDGE('',*,*,#624,.T.);
#781=ORIENTED_EDGE('',*,*,#625,.F.);
#782=ORIENTED_EDGE('',*,*,#626,.T.);
#783=ORIENTED_EDGE('',*,*,#627,.F.);
#784=ORIENTED_EDGE('',*,*,#628,.F.);
#785=ORIENTED_EDGE('',*,*,#629,.F.);
#786=ORIENTED_EDGE('',*,*,#572,.T.);
#787=ORIENTED_EDGE('',*,*,#630,.F.);
#788=ORIENTED_EDGE('',*,*,#586,.T.);
#789=ORIENTED_EDGE('',*,*,#631,.T.);
#790=ORIENTED_EDGE('',*,*,#626,.F.);
#791=ORIENTED_EDGE('',*,*,#632,.F.);
#792=ORIENTED_EDGE('',*,*,#573,.T.);
#793=ORIENTED_EDGE('',*,*,#633,.F.);
#794=ORIENTED_EDGE('',*,*,#634,.F.);
#795=ORIENTED_EDGE('',*,*,#635,.F.);
#796=ORIENTED_EDGE('',*,*,#636,.F.);
#797=ORIENTED_EDGE('',*,*,#637,.F.);
#798=ORIENTED_EDGE('',*,*,#576,.T.);
#799=ORIENTED_EDGE('',*,*,#638,.F.);
#800=ORIENTED_EDGE('',*,*,#601,.T.);
#801=ORIENTED_EDGE('',*,*,#639,.T.);
#802=ORIENTED_EDGE('',*,*,#640,.F.);
#803=ORIENTED_EDGE('',*,*,#641,.F.);
#804=ORIENTED_EDGE('',*,*,#579,.T.);
#805=ORIENTED_EDGE('',*,*,#642,.F.);
#806=ORIENTED_EDGE('',*,*,#643,.F.);
#807=ORIENTED_EDGE('',*,*,#644,.F.);
#808=ORIENTED_EDGE('',*,*,#645,.F.);
#809=ORIENTED_EDGE('',*,*,#646,.F.);
#810=ORIENTED_EDGE('',*,*,#582,.T.);
#811=ORIENTED_EDGE('',*,*,#647,.F.);
#812=ORIENTED_EDGE('',*,*,#596,.T.);
#813=ORIENTED_EDGE('',*,*,#648,.T.);
#814=ORIENTED_EDGE('',*,*,#622,.F.);
#815=ORIENTED_EDGE('',*,*,#649,.F.);
#816=ORIENTED_EDGE('',*,*,#605,.T.);
#817=ORIENTED_EDGE('',*,*,#650,.F.);
#818=ORIENTED_EDGE('',*,*,#651,.F.);
#819=ORIENTED_EDGE('',*,*,#652,.F.);
#820=ORIENTED_EDGE('',*,*,#653,.F.);
#821=ORIENTED_EDGE('',*,*,#654,.F.);
#822=ORIENTED_EDGE('',*,*,#608,.T.);
#823=ORIENTED_EDGE('',*,*,#655,.F.);
#824=ORIENTED_EDGE('',*,*,#591,.T.);
#825=ORIENTED_EDGE('',*,*,#656,.T.);
#826=ORIENTED_EDGE('',*,*,#618,.F.);
#827=ORIENTED_EDGE('',*,*,#657,.F.);
#828=ORIENTED_EDGE('',*,*,#658,.T.);
#829=ORIENTED_EDGE('',*,*,#659,.F.);
#830=ORIENTED_EDGE('',*,*,#653,.T.);
#831=ORIENTED_EDGE('',*,*,#660,.F.);
#832=ORIENTED_EDGE('',*,*,#651,.T.);
#833=ORIENTED_EDGE('',*,*,#661,.F.);
#834=ORIENTED_EDGE('',*,*,#645,.T.);
#835=ORIENTED_EDGE('',*,*,#662,.F.);
#836=ORIENTED_EDGE('',*,*,#643,.T.);
#837=ORIENTED_EDGE('',*,*,#663,.F.);
#838=ORIENTED_EDGE('',*,*,#636,.T.);
#839=ORIENTED_EDGE('',*,*,#664,.F.);
#840=ORIENTED_EDGE('',*,*,#634,.T.);
#841=ORIENTED_EDGE('',*,*,#665,.F.);
#842=ORIENTED_EDGE('',*,*,#628,.T.);
#843=ORIENTED_EDGE('',*,*,#666,.F.);
#844=ORIENTED_EDGE('',*,*,#569,.T.);
#845=ORIENTED_EDGE('',*,*,#667,.F.);
#846=ORIENTED_EDGE('',*,*,#658,.F.);
#847=ORIENTED_EDGE('',*,*,#668,.F.);
#848=ORIENTED_EDGE('',*,*,#624,.F.);
#849=ORIENTED_EDGE('',*,*,#669,.F.);
#850=ORIENTED_EDGE('',*,*,#604,.T.);
#851=ORIENTED_EDGE('',*,*,#670,.T.);
#852=ORIENTED_EDGE('',*,*,#560,.F.);
#853=ORIENTED_EDGE('',*,*,#671,.F.);
#854=ORIENTED_EDGE('',*,*,#614,.F.);
#855=ORIENTED_EDGE('',*,*,#669,.T.);
#856=ORIENTED_EDGE('',*,*,#623,.F.);
#857=ORIENTED_EDGE('',*,*,#631,.F.);
#858=ORIENTED_EDGE('',*,*,#585,.F.);
#859=ORIENTED_EDGE('',*,*,#672,.F.);
#860=ORIENTED_EDGE('',*,*,#673,.F.);
#861=ORIENTED_EDGE('',*,*,#674,.F.);
#862=ORIENTED_EDGE('',*,*,#599,.T.);
#863=ORIENTED_EDGE('',*,*,#670,.F.);
#864=ORIENTED_EDGE('',*,*,#613,.F.);
#865=ORIENTED_EDGE('',*,*,#675,.T.);
#866=ORIENTED_EDGE('',*,*,#561,.F.);
#867=ORIENTED_EDGE('',*,*,#600,.F.);
#868=ORIENTED_EDGE('',*,*,#674,.T.);
#869=ORIENTED_EDGE('',*,*,#676,.F.);
#870=ORIENTED_EDGE('',*,*,#639,.F.);
#871=ORIENTED_EDGE('',*,*,#675,.F.);
#872=ORIENTED_EDGE('',*,*,#612,.F.);
#873=ORIENTED_EDGE('',*,*,#677,.T.);
#874=ORIENTED_EDGE('',*,*,#562,.F.);
#875=ORIENTED_EDGE('',*,*,#595,.F.);
#876=ORIENTED_EDGE('',*,*,#678,.T.);
#877=ORIENTED_EDGE('',*,*,#619,.F.);
#878=ORIENTED_EDGE('',*,*,#648,.F.);
#879=ORIENTED_EDGE('',*,*,#679,.F.);
#880=ORIENTED_EDGE('',*,*,#620,.F.);
#881=ORIENTED_EDGE('',*,*,#678,.F.);
#882=ORIENTED_EDGE('',*,*,#594,.T.);
#883=ORIENTED_EDGE('',*,*,#671,.T.);
#884=ORIENTED_EDGE('',*,*,#559,.F.);
#885=ORIENTED_EDGE('',*,*,#677,.F.);
#886=ORIENTED_EDGE('',*,*,#611,.F.);
#887=ORIENTED_EDGE('',*,*,#680,.T.);
#888=ORIENTED_EDGE('',*,*,#615,.F.);
#889=ORIENTED_EDGE('',*,*,#656,.F.);
#890=ORIENTED_EDGE('',*,*,#590,.F.);
#891=ORIENTED_EDGE('',*,*,#681,.F.);
#892=ORIENTED_EDGE('',*,*,#616,.F.);
#893=ORIENTED_EDGE('',*,*,#680,.F.);
#894=ORIENTED_EDGE('',*,*,#589,.T.);
#895=ORIENTED_EDGE('',*,*,#676,.T.);
#896=ORIENTED_EDGE('',*,*,#673,.T.);
#897=ORIENTED_EDGE('',*,*,#682,.F.);
#898=ORIENTED_EDGE('',*,*,#640,.T.);
#899=ORIENTED_EDGE('',*,*,#630,.T.);
#900=ORIENTED_EDGE('',*,*,#625,.T.);
#901=ORIENTED_EDGE('',*,*,#668,.T.);
#902=ORIENTED_EDGE('',*,*,#603,.F.);
#903=ORIENTED_EDGE('',*,*,#683,.T.);
#904=ORIENTED_EDGE('',*,*,#684,.F.);
#905=ORIENTED_EDGE('',*,*,#685,.F.);
#906=ORIENTED_EDGE('',*,*,#587,.F.);
#907=ORIENTED_EDGE('',*,*,#638,.T.);
#908=ORIENTED_EDGE('',*,*,#682,.T.);
#909=ORIENTED_EDGE('',*,*,#672,.T.);
#910=ORIENTED_EDGE('',*,*,#598,.F.);
#911=ORIENTED_EDGE('',*,*,#686,.T.);
#912=ORIENTED_EDGE('',*,*,#687,.F.);
#913=ORIENTED_EDGE('',*,*,#683,.F.);
#914=ORIENTED_EDGE('',*,*,#602,.F.);
#915=ORIENTED_EDGE('',*,*,#647,.T.);
#916=ORIENTED_EDGE('',*,*,#621,.T.);
#917=ORIENTED_EDGE('',*,*,#679,.T.);
#918=ORIENTED_EDGE('',*,*,#593,.F.);
#919=ORIENTED_EDGE('',*,*,#688,.T.);
#920=ORIENTED_EDGE('',*,*,#689,.F.);
#921=ORIENTED_EDGE('',*,*,#686,.F.);
#922=ORIENTED_EDGE('',*,*,#597,.F.);
#923=ORIENTED_EDGE('',*,*,#655,.T.);
#924=ORIENTED_EDGE('',*,*,#617,.T.);
#925=ORIENTED_EDGE('',*,*,#681,.T.);
#926=ORIENTED_EDGE('',*,*,#588,.F.);
#927=ORIENTED_EDGE('',*,*,#685,.T.);
#928=ORIENTED_EDGE('',*,*,#690,.F.);
#929=ORIENTED_EDGE('',*,*,#688,.F.);
#930=ORIENTED_EDGE('',*,*,#592,.F.);
#931=ORIENTED_EDGE('',*,*,#644,.T.);
#932=ORIENTED_EDGE('',*,*,#581,.T.);
#933=ORIENTED_EDGE('',*,*,#691,.T.);
#934=ORIENTED_EDGE('',*,*,#692,.F.);
#935=ORIENTED_EDGE('',*,*,#693,.F.);
#936=ORIENTED_EDGE('',*,*,#606,.T.);
#937=ORIENTED_EDGE('',*,*,#649,.T.);
#938=ORIENTED_EDGE('',*,*,#660,.T.);
#939=ORIENTED_EDGE('',*,*,#652,.T.);
#940=ORIENTED_EDGE('',*,*,#607,.T.);
#941=ORIENTED_EDGE('',*,*,#693,.T.);
#942=ORIENTED_EDGE('',*,*,#694,.F.);
#943=ORIENTED_EDGE('',*,*,#695,.F.);
#944=ORIENTED_EDGE('',*,*,#570,.T.);
#945=ORIENTED_EDGE('',*,*,#666,.T.);
#946=ORIENTED_EDGE('',*,*,#657,.T.);
#947=ORIENTED_EDGE('',*,*,#627,.T.);
#948=ORIENTED_EDGE('',*,*,#571,.T.);
#949=ORIENTED_EDGE('',*,*,#695,.T.);
#950=ORIENTED_EDGE('',*,*,#696,.F.);
#951=ORIENTED_EDGE('',*,*,#697,.F.);
#952=ORIENTED_EDGE('',*,*,#574,.T.);
#953=ORIENTED_EDGE('',*,*,#632,.T.);
#954=ORIENTED_EDGE('',*,*,#664,.T.);
#955=ORIENTED_EDGE('',*,*,#635,.T.);
#956=ORIENTED_EDGE('',*,*,#575,.T.);
#957=ORIENTED_EDGE('',*,*,#697,.T.);
#958=ORIENTED_EDGE('',*,*,#698,.F.);
#959=ORIENTED_EDGE('',*,*,#691,.F.);
#960=ORIENTED_EDGE('',*,*,#580,.T.);
#961=ORIENTED_EDGE('',*,*,#641,.T.);
#962=ORIENTED_EDGE('',*,*,#662,.T.);
#963=ORIENTED_EDGE('',*,*,#698,.T.);
#964=ORIENTED_EDGE('',*,*,#696,.T.);
#965=ORIENTED_EDGE('',*,*,#694,.T.);
#966=ORIENTED_EDGE('',*,*,#692,.T.);
#967=ORIENTED_EDGE('',*,*,#689,.T.);
#968=ORIENTED_EDGE('',*,*,#690,.T.);
#969=ORIENTED_EDGE('',*,*,#684,.T.);
#970=ORIENTED_EDGE('',*,*,#687,.T.);
#971=ORIENTED_EDGE('',*,*,#642,.T.);
#972=ORIENTED_EDGE('',*,*,#584,.F.);
#973=ORIENTED_EDGE('',*,*,#699,.T.);
#974=ORIENTED_EDGE('',*,*,#700,.F.);
#975=ORIENTED_EDGE('',*,*,#701,.F.);
#976=ORIENTED_EDGE('',*,*,#577,.F.);
#977=ORIENTED_EDGE('',*,*,#637,.T.);
#978=ORIENTED_EDGE('',*,*,#663,.T.);
#979=ORIENTED_EDGE('',*,*,#633,.T.);
#980=ORIENTED_EDGE('',*,*,#578,.F.);
#981=ORIENTED_EDGE('',*,*,#701,.T.);
#982=ORIENTED_EDGE('',*,*,#702,.F.);
#983=ORIENTED_EDGE('',*,*,#703,.F.);
#984=ORIENTED_EDGE('',*,*,#567,.F.);
#985=ORIENTED_EDGE('',*,*,#629,.T.);
#986=ORIENTED_EDGE('',*,*,#665,.T.);
#987=ORIENTED_EDGE('',*,*,#667,.T.);
#988=ORIENTED_EDGE('',*,*,#568,.F.);
#989=ORIENTED_EDGE('',*,*,#703,.T.);
#990=ORIENTED_EDGE('',*,*,#704,.F.);
#991=ORIENTED_EDGE('',*,*,#705,.F.);
#992=ORIENTED_EDGE('',*,*,#609,.F.);
#993=ORIENTED_EDGE('',*,*,#654,.T.);
#994=ORIENTED_EDGE('',*,*,#659,.T.);
#995=ORIENTED_EDGE('',*,*,#650,.T.);
#996=ORIENTED_EDGE('',*,*,#610,.F.);
#997=ORIENTED_EDGE('',*,*,#705,.T.);
#998=ORIENTED_EDGE('',*,*,#706,.F.);
#999=ORIENTED_EDGE('',*,*,#699,.F.);
#1000=ORIENTED_EDGE('',*,*,#583,.F.);
#1001=ORIENTED_EDGE('',*,*,#646,.T.);
#1002=ORIENTED_EDGE('',*,*,#661,.T.);
#1003=ORIENTED_EDGE('',*,*,#564,.F.);
#1004=ORIENTED_EDGE('',*,*,#707,.T.);
#1005=ORIENTED_EDGE('',*,*,#708,.F.);
#1006=ORIENTED_EDGE('',*,*,#709,.F.);
#1007=ORIENTED_EDGE('',*,*,#565,.F.);
#1008=ORIENTED_EDGE('',*,*,#709,.T.);
#1009=ORIENTED_EDGE('',*,*,#710,.F.);
#1010=ORIENTED_EDGE('',*,*,#711,.F.);
#1011=ORIENTED_EDGE('',*,*,#566,.F.);
#1012=ORIENTED_EDGE('',*,*,#711,.T.);
#1013=ORIENTED_EDGE('',*,*,#712,.F.);
#1014=ORIENTED_EDGE('',*,*,#713,.F.);
#1015=ORIENTED_EDGE('',*,*,#563,.F.);
#1016=ORIENTED_EDGE('',*,*,#713,.T.);
#1017=ORIENTED_EDGE('',*,*,#714,.F.);
#1018=ORIENTED_EDGE('',*,*,#707,.F.);
#1019=ORIENTED_EDGE('',*,*,#714,.T.);
#1020=ORIENTED_EDGE('',*,*,#712,.T.);
#1021=ORIENTED_EDGE('',*,*,#710,.T.);
#1022=ORIENTED_EDGE('',*,*,#708,.T.);
#1023=ORIENTED_EDGE('',*,*,#706,.T.);
#1024=ORIENTED_EDGE('',*,*,#704,.T.);
#1025=ORIENTED_EDGE('',*,*,#702,.T.);
#1026=ORIENTED_EDGE('',*,*,#700,.T.);
#1027=PLANE('',#1140);
#1028=PLANE('',#1141);
#1029=PLANE('',#1142);
#1030=PLANE('',#1143);
#1031=PLANE('',#1144);
#1032=PLANE('',#1145);
#1033=PLANE('',#1146);
#1034=PLANE('',#1147);
#1035=PLANE('',#1148);
#1036=PLANE('',#1149);
#1037=PLANE('',#1150);
#1038=PLANE('',#1151);
#1039=PLANE('',#1152);
#1040=PLANE('',#1153);
#1041=PLANE('',#1154);
#1042=PLANE('',#1155);
#1043=PLANE('',#1156);
#1044=PLANE('',#1157);
#1045=PLANE('',#1158);
#1046=PLANE('',#1159);
#1047=PLANE('',#1160);
#1048=PLANE('',#1161);
#1049=PLANE('',#1162);
#1050=PLANE('',#1163);
#1051=PLANE('',#1164);
#1052=PLANE('',#1165);
#1053=PLANE('',#1166);
#1054=PLANE('',#1167);
#1055=PLANE('',#1168);
#1056=PLANE('',#1169);
#1057=PLANE('',#1170);
#1058=PLANE('',#1171);
#1059=PLANE('',#1172);
#1060=PLANE('',#1173);
#1061=PLANE('',#1174);
#1062=PLANE('',#1175);
#1063=PLANE('',#1176);
#1064=PLANE('',#1177);
#1065=PLANE('',#1178);
#1066=PLANE('',#1179);
#1067=PLANE('',#1180);
#1068=PLANE('',#1181);
#1069=PLANE('',#1182);
#1070=PLANE('',#1183);
#1071=PLANE('',#1184);
#1072=PLANE('',#1185);
#1073=PLANE('',#1186);
#1074=PLANE('',#1187);
#1075=PLANE('',#1188);
#1076=ADVANCED_FACE('',(#34),#1027,.T.);
#1077=ADVANCED_FACE('',(#35,#23,#24,#25,#26,#27),#1028,.T.);
#1078=ADVANCED_FACE('',(#36),#1029,.T.);
#1079=ADVANCED_FACE('',(#37),#1030,.T.);
#1080=ADVANCED_FACE('',(#38),#1031,.T.);
#1081=ADVANCED_FACE('',(#39),#1032,.T.);
#1082=ADVANCED_FACE('',(#40),#1033,.T.);
#1083=ADVANCED_FACE('',(#41),#1034,.T.);
#1084=ADVANCED_FACE('',(#42),#1035,.T.);
#1085=ADVANCED_FACE('',(#43),#1036,.T.);
#1086=ADVANCED_FACE('',(#44),#1037,.T.);
#1087=ADVANCED_FACE('',(#45),#1038,.T.);
#1088=ADVANCED_FACE('',(#46),#1039,.T.);
#1089=ADVANCED_FACE('',(#47),#1040,.T.);
#1090=ADVANCED_FACE('',(#48),#1041,.T.);
#1091=ADVANCED_FACE('',(#49),#1042,.T.);
#1092=ADVANCED_FACE('',(#50),#1043,.T.);
#1093=ADVANCED_FACE('',(#51),#1044,.T.);
#1094=ADVANCED_FACE('',(#52),#1045,.T.);
#1095=ADVANCED_FACE('',(#53),#1046,.T.);
#1096=ADVANCED_FACE('',(#54),#1047,.T.);
#1097=ADVANCED_FACE('',(#55),#1048,.T.);
#1098=ADVANCED_FACE('',(#56),#1049,.T.);
#1099=ADVANCED_FACE('',(#57,#28),#1050,.T.);
#1100=ADVANCED_FACE('',(#58),#1051,.T.);
#1101=ADVANCED_FACE('',(#59,#29),#1052,.T.);
#1102=ADVANCED_FACE('',(#60,#30),#1053,.T.);
#1103=ADVANCED_FACE('',(#61),#1054,.T.);
#1104=ADVANCED_FACE('',(#62,#31),#1055,.T.);
#1105=ADVANCED_FACE('',(#63),#1056,.T.);
#1106=ADVANCED_FACE('',(#64),#1057,.T.);
#1107=ADVANCED_FACE('',(#65),#1058,.T.);
#1108=ADVANCED_FACE('',(#66),#1059,.T.);
#1109=ADVANCED_FACE('',(#67),#1060,.T.);
#1110=ADVANCED_FACE('',(#68),#1061,.T.);
#1111=ADVANCED_FACE('',(#69),#1062,.T.);
#1112=ADVANCED_FACE('',(#70),#1063,.T.);
#1113=ADVANCED_FACE('',(#71),#1064,.T.);
#1114=ADVANCED_FACE('',(#72),#1065,.T.);
#1115=ADVANCED_FACE('',(#73,#32),#1066,.T.);
#1116=ADVANCED_FACE('',(#74),#1067,.T.);
#1117=ADVANCED_FACE('',(#75),#1068,.T.);
#1118=ADVANCED_FACE('',(#76),#1069,.T.);
#1119=ADVANCED_FACE('',(#77),#1070,.T.);
#1120=ADVANCED_FACE('',(#78),#1071,.T.);
#1121=ADVANCED_FACE('',(#79),#1072,.T.);
#1122=ADVANCED_FACE('',(#80),#1073,.T.);
#1123=ADVANCED_FACE('',(#81),#1074,.T.);
#1124=ADVANCED_FACE('',(#82,#33),#1075,.T.);
#1125=CLOSED_SHELL('',(#1076,#1077,#1078,#1079,#1080,#1081,#1082,#1083,
#1084,#1085,#1086,#1087,#1088,#1089,#1090,#1091,#1092,#1093,#1094,#1095,
#1096,#1097,#1098,#1099,#1100,#1101,#1102,#1103,#1104,#1105,#1106,#1107,
#1108,#1109,#1110,#1111,#1112,#1113,#1114,#1115,#1116,#1117,#1118,#1119,
#1120,#1121,#1122,#1123,#1124));
#1126=DERIVED_UNIT_ELEMENT(#1128,1.);
#1127=DERIVED_UNIT_ELEMENT(#1773,-3.);
#1128=(
MASS_UNIT()
NAMED_UNIT(*)
SI_UNIT(.KILO.,.GRAM.)
);
#1129=DERIVED_UNIT((#1126,#1127));
#1130=MEASURE_REPRESENTATION_ITEM('density measure',
POSITIVE_RATIO_MEASURE(7850.),#1129);
#1131=PROPERTY_DEFINITION_REPRESENTATION(#1136,#1133);
#1132=PROPERTY_DEFINITION_REPRESENTATION(#1137,#1134);
#1133=REPRESENTATION('material name',(#1135),#1770);
#1134=REPRESENTATION('density',(#1130),#1770);
#1135=DESCRIPTIVE_REPRESENTATION_ITEM('Steel','Steel');
#1136=PROPERTY_DEFINITION('material property','material name',#1785);
#1137=PROPERTY_DEFINITION('material property','density of part',#1785);
#1138=AXIS2_PLACEMENT_3D('',#1453,#1191,#1192);
#1139=AXIS2_PLACEMENT_3D('',#1454,#1193,#1194);
#1140=AXIS2_PLACEMENT_3D('',#1455,#1195,#1196);
#1141=AXIS2_PLACEMENT_3D('',#1464,#1201,#1202);
#1142=AXIS2_PLACEMENT_3D('',#1561,#1251,#1252);
#1143=AXIS2_PLACEMENT_3D('',#1570,#1257,#1258);
#1144=AXIS2_PLACEMENT_3D('',#1579,#1263,#1264);
#1145=AXIS2_PLACEMENT_3D('',#1588,#1269,#1270);
#1146=AXIS2_PLACEMENT_3D('',#1597,#1275,#1276);
#1147=AXIS2_PLACEMENT_3D('',#1603,#1280,#1281);
#1148=AXIS2_PLACEMENT_3D('',#1606,#1284,#1285);
#1149=AXIS2_PLACEMENT_3D('',#1612,#1289,#1290);
#1150=AXIS2_PLACEMENT_3D('',#1618,#1294,#1295);
#1151=AXIS2_PLACEMENT_3D('',#1624,#1299,#1300);
#1152=AXIS2_PLACEMENT_3D('',#1630,#1304,#1305);
#1153=AXIS2_PLACEMENT_3D('',#1636,#1309,#1310);
#1154=AXIS2_PLACEMENT_3D('',#1639,#1313,#1314);
#1155=AXIS2_PLACEMENT_3D('',#1645,#1318,#1319);
#1156=AXIS2_PLACEMENT_3D('',#1651,#1323,#1324);
#1157=AXIS2_PLACEMENT_3D('',#1654,#1327,#1328);
#1158=AXIS2_PLACEMENT_3D('',#1660,#1332,#1333);
#1159=AXIS2_PLACEMENT_3D('',#1663,#1336,#1337);
#1160=AXIS2_PLACEMENT_3D('',#1666,#1340,#1341);
#1161=AXIS2_PLACEMENT_3D('',#1669,#1344,#1345);
#1162=AXIS2_PLACEMENT_3D('',#1672,#1348,#1349);
#1163=AXIS2_PLACEMENT_3D('',#1675,#1352,#1353);
#1164=AXIS2_PLACEMENT_3D('',#1678,#1356,#1357);
#1165=AXIS2_PLACEMENT_3D('',#1684,#1361,#1362);
#1166=AXIS2_PLACEMENT_3D('',#1687,#1365,#1366);
#1167=AXIS2_PLACEMENT_3D('',#1690,#1369,#1370);
#1168=AXIS2_PLACEMENT_3D('',#1692,#1372,#1373);
#1169=AXIS2_PLACEMENT_3D('',#1694,#1375,#1376);
#1170=AXIS2_PLACEMENT_3D('',#1696,#1378,#1379);
#1171=AXIS2_PLACEMENT_3D('',#1698,#1381,#1382);
#1172=AXIS2_PLACEMENT_3D('',#1704,#1386,#1387);
#1173=AXIS2_PLACEMENT_3D('',#1708,#1390,#1391);
#1174=AXIS2_PLACEMENT_3D('',#1712,#1394,#1395);
#1175=AXIS2_PLACEMENT_3D('',#1714,#1397,#1398);
#1176=AXIS2_PLACEMENT_3D('',#1720,#1402,#1403);
#1177=AXIS2_PLACEMENT_3D('',#1724,#1406,#1407);
#1178=AXIS2_PLACEMENT_3D('',#1728,#1410,#1411);
#1179=AXIS2_PLACEMENT_3D('',#1730,#1413,#1414);
#1180=AXIS2_PLACEMENT_3D('',#1731,#1415,#1416);
#1181=AXIS2_PLACEMENT_3D('',#1737,#1420,#1421);
#1182=AXIS2_PLACEMENT_3D('',#1741,#1424,#1425);
#1183=AXIS2_PLACEMENT_3D('',#1745,#1428,#1429);
#1184=AXIS2_PLACEMENT_3D('',#1747,#1431,#1432);
#1185=AXIS2_PLACEMENT_3D('',#1753,#1436,#1437);
#1186=AXIS2_PLACEMENT_3D('',#1757,#1440,#1441);
#1187=AXIS2_PLACEMENT_3D('',#1761,#1444,#1445);
#1188=AXIS2_PLACEMENT_3D('',#1763,#1447,#1448);
#1189=AXIS2_PLACEMENT_3D('',#1764,#1449,#1450);
#1190=AXIS2_PLACEMENT_3D('',#1765,#1451,#1452);
#1191=DIRECTION('axis',(0.,0.,1.));
#1192=DIRECTION('refdir',(1.,0.,0.));
#1193=DIRECTION('axis',(0.,0.,1.));
#1194=DIRECTION('refdir',(1.,0.,0.));
#1195=DIRECTION('center_axis',(0.,-1.,0.));
#1196=DIRECTION('ref_axis',(0.,0.,-1.));
#1197=DIRECTION('',(1.,0.,0.));
#1198=DIRECTION('',(2.33731163078981E-16,0.,1.));
#1199=DIRECTION('',(-1.,0.,0.));
#1200=DIRECTION('',(0.,0.,-1.));
#1201=DIRECTION('center_axis',(0.,-1.,0.));
#1202=DIRECTION('ref_axis',(1.,0.,0.));
#1203=DIRECTION('',(-1.,0.,0.));
#1204=DIRECTION('',(0.,0.,-1.));
#1205=DIRECTION('',(1.,0.,0.));
#1206=DIRECTION('',(0.,0.,1.));
#1207=DIRECTION('',(0.,0.,-1.));
#1208=DIRECTION('',(-1.,0.,0.));
#1209=DIRECTION('',(3.28954970259304E-15,0.,-1.));
#1210=DIRECTION('',(-1.,0.,0.));
#1211=DIRECTION('',(0.,0.,-1.));
#1212=DIRECTION('',(-1.,0.,0.));
#1213=DIRECTION('',(1.,0.,0.));
#1214=DIRECTION('',(0.,0.,-1.));
#1215=DIRECTION('',(1.,0.,0.));
#1216=DIRECTION('',(8.22387425648263E-16,0.,-1.));
#1217=DIRECTION('',(1.,0.,0.));
#1218=DIRECTION('',(0.,0.,-1.));
#1219=DIRECTION('',(0.,0.,1.));
#1220=DIRECTION('',(1.,0.,0.));
#1221=DIRECTION('',(0.,0.,1.));
#1222=DIRECTION('',(1.,0.,0.));
#1223=DIRECTION('',(0.,0.,1.));
#1224=DIRECTION('',(1.,0.,0.));
#1225=DIRECTION('',(-2.33731163078981E-16,0.,-1.));
#1226=DIRECTION('',(-1.,0.,0.));
#1227=DIRECTION('',(0.,0.,-1.));
#1228=DIRECTION('',(-1.,0.,0.));
#1229=DIRECTION('',(3.28954970259304E-15,0.,-1.));
#1230=DIRECTION('',(-1.,0.,0.));
#1231=DIRECTION('',(0.,0.,1.));
#1232=DIRECTION('',(-1.,0.,0.));
#1233=DIRECTION('',(-4.00080369234291E-16,0.,1.));
#1234=DIRECTION('',(-1.,0.,0.));
#1235=DIRECTION('',(0.,0.,1.));
#1236=DIRECTION('',(1.,0.,0.));
#1237=DIRECTION('',(-4.00080369234291E-16,0.,1.));
#1238=DIRECTION('',(1.,0.,0.));
#1239=DIRECTION('',(0.,0.,1.));
#1240=DIRECTION('',(1.,0.,0.));
#1241=DIRECTION('',(8.22387425648263E-16,0.,-1.));
#1242=DIRECTION('',(1.,0.,0.));
#1243=DIRECTION('',(0.,0.,-1.));
#1244=DIRECTION('',(1.,0.,0.));
#1245=DIRECTION('',(-1.,0.,0.));
#1246=DIRECTION('',(0.,0.,1.));
#1247=DIRECTION('',(-1.,0.,0.));
#1248=DIRECTION('',(0.,0.,1.));
#1249=DIRECTION('',(-1.,0.,0.));
#1250=DIRECTION('',(0.,0.,1.));
#1251=DIRECTION('center_axis',(0.,1.,0.));
#1252=DIRECTION('ref_axis',(0.,0.,1.));
#1253=DIRECTION('',(-1.,0.,0.));
#1254=DIRECTION('',(0.,0.,1.));
#1255=DIRECTION('',(1.,0.,0.));
#1256=DIRECTION('',(-2.33731163078981E-16,0.,-1.));
#1257=DIRECTION('center_axis',(0.,1.,0.));
#1258=DIRECTION('ref_axis',(0.,0.,1.));
#1259=DIRECTION('',(1.,0.,0.));
#1260=DIRECTION('',(3.28954970259304E-15,0.,-1.));
#1261=DIRECTION('',(1.,0.,0.));
#1262=DIRECTION('',(0.,0.,1.));
#1263=DIRECTION('center_axis',(0.,1.,0.));
#1264=DIRECTION('ref_axis',(0.,0.,1.));
#1265=DIRECTION('',(0.,0.,-1.));
#1266=DIRECTION('',(-1.,0.,0.));
#1267=DIRECTION('',(4.00080369234291E-16,0.,-1.));
#1268=DIRECTION('',(1.,0.,0.));
#1269=DIRECTION('center_axis',(0.,1.,0.));
#1270=DIRECTION('ref_axis',(0.,0.,1.));
#1271=DIRECTION('',(2.33731163078981E-16,0.,1.));
#1272=DIRECTION('',(1.,0.,0.));
#1273=DIRECTION('',(0.,0.,1.));
#1274=DIRECTION('',(-1.,0.,0.));
#1275=DIRECTION('center_axis',(0.,0.,-1.));
#1276=DIRECTION('ref_axis',(-1.,0.,0.));
#1277=DIRECTION('',(0.,-1.,0.));
#1278=DIRECTION('',(-1.,0.,0.));
#1279=DIRECTION('',(0.,1.,0.));
#1280=DIRECTION('center_axis',(0.,0.,-1.));
#1281=DIRECTION('ref_axis',(-1.,0.,0.));
#1282=DIRECTION('',(0.,1.,0.));
#1283=DIRECTION('',(0.,1.,0.));
#1284=DIRECTION('center_axis',(0.,0.,1.));
#1285=DIRECTION('ref_axis',(1.,0.,0.));
#1286=DIRECTION('',(0.,1.,0.));
#1287=DIRECTION('',(0.,-1.,0.));
#1288=DIRECTION('',(1.,0.,0.));
#1289=DIRECTION('center_axis',(1.,0.,8.22387425648263E-16));
#1290=DIRECTION('ref_axis',(8.22387425648263E-16,0.,-1.));
#1291=DIRECTION('',(0.,-1.,0.));
#1292=DIRECTION('',(8.22387425648263E-16,0.,-1.));
#1293=DIRECTION('',(0.,1.,0.));
#1294=DIRECTION('center_axis',(1.,0.,8.22387425648263E-16));
#1295=DIRECTION('ref_axis',(8.22387425648263E-16,0.,-1.));
#1296=DIRECTION('',(0.,1.,0.));
#1297=DIRECTION('',(0.,1.,0.));
#1298=DIRECTION('',(8.22387425648263E-16,0.,-1.));
#1299=DIRECTION('center_axis',(-1.,0.,0.));
#1300=DIRECTION('ref_axis',(0.,0.,1.));
#1301=DIRECTION('',(0.,1.,0.));
#1302=DIRECTION('',(0.,-1.,0.));
#1303=DIRECTION('',(0.,0.,1.));
#1304=DIRECTION('center_axis',(0.,0.,1.));
#1305=DIRECTION('ref_axis',(1.,0.,0.));
#1306=DIRECTION('',(0.,-1.,0.));
#1307=DIRECTION('',(1.,0.,0.));
#1308=DIRECTION('',(0.,1.,0.));
#1309=DIRECTION('center_axis',(0.,0.,1.));
#1310=DIRECTION('ref_axis',(1.,0.,0.));
#1311=DIRECTION('',(0.,1.,0.));
#1312=DIRECTION('',(0.,1.,0.));
#1313=DIRECTION('center_axis',(0.,0.,-1.));
#1314=DIRECTION('ref_axis',(-1.,0.,0.));
#1315=DIRECTION('',(0.,1.,0.));
#1316=DIRECTION('',(0.,-1.,0.));
#1317=DIRECTION('',(-1.,0.,0.));
#1318=DIRECTION('center_axis',(-1.,0.,0.));
#1319=DIRECTION('ref_axis',(0.,0.,1.));
#1320=DIRECTION('',(0.,-1.,0.));
#1321=DIRECTION('',(0.,0.,1.));
#1322=DIRECTION('',(0.,1.,0.));
#1323=DIRECTION('center_axis',(-1.,0.,0.));
#1324=DIRECTION('ref_axis',(0.,0.,1.));
#1325=DIRECTION('',(0.,1.,0.));
#1326=DIRECTION('',(0.,1.,0.));
#1327=DIRECTION('center_axis',(0.,1.,0.));
#1328=DIRECTION('ref_axis',(0.,0.,1.));
#1329=DIRECTION('',(-1.,0.,0.));
#1330=DIRECTION('',(3.28954970259304E-15,0.,-1.));
#1331=DIRECTION('',(1.,0.,0.));
#1332=DIRECTION('center_axis',(0.,1.,0.));
#1333=DIRECTION('ref_axis',(0.,0.,1.));
#1334=DIRECTION('',(0.,0.,1.));
#1335=DIRECTION('',(0.,0.,-1.));
#1336=DIRECTION('center_axis',(0.,1.,0.));
#1337=DIRECTION('ref_axis',(0.,0.,1.));
#1338=DIRECTION('',(1.,0.,0.));
#1339=DIRECTION('',(-1.,0.,0.));
#1340=DIRECTION('center_axis',(0.,1.,0.));
#1341=DIRECTION('ref_axis',(0.,0.,1.));
#1342=DIRECTION('',(0.,0.,-1.));
#1343=DIRECTION('',(0.,0.,1.));
#1344=DIRECTION('center_axis',(1.,0.,3.28954970259304E-15));
#1345=DIRECTION('ref_axis',(3.28954970259304E-15,0.,-1.));
#1346=DIRECTION('',(0.,1.,0.));
#1347=DIRECTION('',(0.,-1.,0.));
#1348=DIRECTION('center_axis',(0.,0.,1.));
#1349=DIRECTION('ref_axis',(1.,0.,0.));
#1350=DIRECTION('',(0.,-1.,0.));
#1351=DIRECTION('',(0.,1.,0.));
#1352=DIRECTION('center_axis',(1.,0.,-2.33731163078981E-16));
#1353=DIRECTION('ref_axis',(-2.33731163078981E-16,0.,-1.));
#1354=DIRECTION('',(0.,-1.,0.));
#1355=DIRECTION('',(0.,-1.,0.));
#1356=DIRECTION('center_axis',(-1.,0.,0.));
#1357=DIRECTION('ref_axis',(0.,0.,1.));
#1358=DIRECTION('',(0.,-1.,0.));
#1359=DIRECTION('',(0.,0.,1.));
#1360=DIRECTION('',(0.,1.,0.));
#1361=DIRECTION('center_axis',(0.,0.,1.));
#1362=DIRECTION('ref_axis',(1.,0.,0.));
#1363=DIRECTION('',(0.,-1.,0.));
#1364=DIRECTION('',(-1.,0.,0.));
#1365=DIRECTION('center_axis',(-1.,0.,0.));
#1366=DIRECTION('ref_axis',(0.,0.,1.));
#1367=DIRECTION('',(0.,-1.,0.));
#1368=DIRECTION('',(0.,1.,0.));
#1369=DIRECTION('center_axis',(0.,0.,-1.));
#1370=DIRECTION('ref_axis',(-1.,0.,0.));
#1371=DIRECTION('',(0.,-1.,0.));
#1372=DIRECTION('center_axis',(0.,0.,-1.));
#1373=DIRECTION('ref_axis',(-1.,0.,0.));
#1374=DIRECTION('',(0.,1.,0.));
#1375=DIRECTION('center_axis',(1.,0.,3.28954970259304E-15));
#1376=DIRECTION('ref_axis',(3.28954970259304E-15,0.,-1.));
#1377=DIRECTION('',(0.,-1.,0.));
#1378=DIRECTION('center_axis',(0.,1.,0.));
#1379=DIRECTION('ref_axis',(0.,0.,1.));
#1380=DIRECTION('',(-1.,0.,0.));
#1381=DIRECTION('center_axis',(-1.,0.,0.));
#1382=DIRECTION('ref_axis',(0.,0.,1.));
#1383=DIRECTION('',(0.,1.,0.));
#1384=DIRECTION('',(0.,0.,1.));
#1385=DIRECTION('',(0.,1.,0.));
#1386=DIRECTION('center_axis',(0.,0.,-1.));
#1387=DIRECTION('ref_axis',(-1.,0.,0.));
#1388=DIRECTION('',(0.,1.,0.));
#1389=DIRECTION('',(-1.,0.,0.));
#1390=DIRECTION('center_axis',(1.,0.,4.00080369234291E-16));
#1391=DIRECTION('ref_axis',(4.00080369234291E-16,0.,-1.));
#1392=DIRECTION('',(0.,1.,0.));
#1393=DIRECTION('',(4.00080369234291E-16,0.,-1.));
#1394=DIRECTION('center_axis',(0.,0.,1.));
#1395=DIRECTION('ref_axis',(1.,0.,0.));
#1396=DIRECTION('',(1.,0.,0.));
#1397=DIRECTION('center_axis',(-1.,0.,0.));
#1398=DIRECTION('ref_axis',(0.,0.,1.));
#1399=DIRECTION('',(0.,1.,0.));
#1400=DIRECTION('',(0.,0.,1.));
#1401=DIRECTION('',(0.,1.,0.));
#1402=DIRECTION('center_axis',(0.,0.,-1.));
#1403=DIRECTION('ref_axis',(-1.,0.,0.));
#1404=DIRECTION('',(-1.,0.,0.));
#1405=DIRECTION('',(0.,1.,0.));
#1406=DIRECTION('center_axis',(1.,0.,0.));
#1407=DIRECTION('ref_axis',(0.,0.,-1.));
#1408=DIRECTION('',(0.,0.,-1.));
#1409=DIRECTION('',(0.,1.,0.));
#1410=DIRECTION('center_axis',(0.,0.,1.));
#1411=DIRECTION('ref_axis',(1.,0.,0.));
#1412=DIRECTION('',(1.,0.,0.));
#1413=DIRECTION('center_axis',(0.,1.,0.));
#1414=DIRECTION('ref_axis',(0.,0.,1.));
#1415=DIRECTION('center_axis',(0.,0.,-1.));
#1416=DIRECTION('ref_axis',(-1.,0.,0.));
#1417=DIRECTION('',(0.,1.,0.));
#1418=DIRECTION('',(-1.,0.,0.));
#1419=DIRECTION('',(0.,1.,0.));
#1420=DIRECTION('center_axis',(-1.,0.,0.));
#1421=DIRECTION('ref_axis',(0.,0.,1.));
#1422=DIRECTION('',(0.,0.,1.));
#1423=DIRECTION('',(0.,1.,0.));
#1424=DIRECTION('center_axis',(0.,0.,1.));
#1425=DIRECTION('ref_axis',(1.,0.,0.));
#1426=DIRECTION('',(1.,0.,0.));
#1427=DIRECTION('',(0.,1.,0.));
#1428=DIRECTION('center_axis',(1.,0.,0.));
#1429=DIRECTION('ref_axis',(0.,0.,-1.));
#1430=DIRECTION('',(0.,0.,-1.));
#1431=DIRECTION('center_axis',(-1.,0.,0.));
#1432=DIRECTION('ref_axis',(0.,0.,1.));
#1433=DIRECTION('',(0.,1.,0.));
#1434=DIRECTION('',(0.,0.,1.));
#1435=DIRECTION('',(0.,1.,0.));
#1436=DIRECTION('center_axis',(0.,0.,-1.));
#1437=DIRECTION('ref_axis',(-1.,0.,0.));
#1438=DIRECTION('',(-1.,0.,0.));
#1439=DIRECTION('',(0.,1.,0.));
#1440=DIRECTION('center_axis',(1.,0.,0.));
#1441=DIRECTION('ref_axis',(0.,0.,-1.));
#1442=DIRECTION('',(0.,0.,-1.));
#1443=DIRECTION('',(0.,1.,0.));
#1444=DIRECTION('center_axis',(0.,0.,1.));
#1445=DIRECTION('ref_axis',(1.,0.,0.));
#1446=DIRECTION('',(1.,0.,0.));
#1447=DIRECTION('center_axis',(0.,1.,0.));
#1448=DIRECTION('ref_axis',(0.,0.,1.));
#1449=DIRECTION('',(0.,0.,1.));
#1450=DIRECTION('',(1.,0.,0.));
#1451=DIRECTION('center_axis',(0.,0.,1.));
#1452=DIRECTION('ref_axis',(1.,0.,0.));
#1453=CARTESIAN_POINT('',(0.,0.,0.));
#1454=CARTESIAN_POINT('',(0.,0.,0.));
#1455=CARTESIAN_POINT('Origin',(-20.,-75.5,47.7));
#1456=CARTESIAN_POINT('',(-24.75,-75.5,42.95));
#1457=CARTESIAN_POINT('',(-15.25,-75.5,42.95));
#1458=CARTESIAN_POINT('',(-21.,-75.5,42.95));
#1459=CARTESIAN_POINT('',(-15.25,-75.5,52.45));
#1460=CARTESIAN_POINT('',(-15.25,-75.5,42.95));
#1461=CARTESIAN_POINT('',(-24.75,-75.5,52.45));
#1462=CARTESIAN_POINT('',(-15.25,-75.5,52.45));
#1463=CARTESIAN_POINT('',(-24.75,-75.5,52.45));
#1464=CARTESIAN_POINT('Origin',(-20.,-75.,47.7));
#1465=CARTESIAN_POINT('',(-10.25,-75.,55.95));
#1466=CARTESIAN_POINT('',(-29.75,-75.,55.95));
#1467=CARTESIAN_POINT('',(-10.25,-75.,55.95));
#1468=CARTESIAN_POINT('',(-29.75,-75.,39.45));
#1469=CARTESIAN_POINT('',(-29.75,-75.,55.95));
#1470=CARTESIAN_POINT('',(-10.25,-75.,39.45));
#1471=CARTESIAN_POINT('',(-29.75,-75.,39.45));
#1472=CARTESIAN_POINT('',(-10.25,-75.,39.45));
#1473=CARTESIAN_POINT('',(-11.05,-75.,46.7));
#1474=CARTESIAN_POINT('',(-11.05,-75.,40.25));
#1475=CARTESIAN_POINT('',(-11.05,-75.,40.25));
#1476=CARTESIAN_POINT('',(-19.,-75.,40.25));
#1477=CARTESIAN_POINT('',(-28.95,-75.,40.25));
#1478=CARTESIAN_POINT('',(-19.,-75.,41.75));
#1479=CARTESIAN_POINT('',(-19.,-75.,42.95));
#1480=CARTESIAN_POINT('',(-13.05,-75.,41.75));
#1481=CARTESIAN_POINT('',(-13.05,-75.,41.75));
#1482=CARTESIAN_POINT('',(-13.05,-75.,46.7));
#1483=CARTESIAN_POINT('',(-13.05,-75.,53.65));
#1484=CARTESIAN_POINT('',(-11.05,-75.,46.7));
#1485=CARTESIAN_POINT('',(-13.05,-75.,48.7));
#1486=CARTESIAN_POINT('',(-11.05,-75.,48.7));
#1487=CARTESIAN_POINT('',(-15.25,-75.,48.7));
#1488=CARTESIAN_POINT('',(-13.05,-75.,53.65));
#1489=CARTESIAN_POINT('',(-13.05,-75.,53.65));
#1490=CARTESIAN_POINT('',(-19.,-75.,53.65));
#1491=CARTESIAN_POINT('',(-26.95,-75.,53.65));
#1492=CARTESIAN_POINT('',(-19.,-75.,55.15));
#1493=CARTESIAN_POINT('',(-19.,-75.,55.15));
#1494=CARTESIAN_POINT('',(-11.05,-75.,55.15));
#1495=CARTESIAN_POINT('',(-11.05,-75.,55.15));
#1496=CARTESIAN_POINT('',(-11.05,-75.,40.25));
#1497=CARTESIAN_POINT('',(-21.,-75.,53.65));
#1498=CARTESIAN_POINT('',(-21.,-75.,55.15));
#1499=CARTESIAN_POINT('',(-21.,-75.,52.45));
#1500=CARTESIAN_POINT('',(-26.95,-75.,53.65));
#1501=CARTESIAN_POINT('',(-26.95,-75.,53.65));
#1502=CARTESIAN_POINT('',(-26.95,-75.,48.7));
#1503=CARTESIAN_POINT('',(-26.95,-75.,41.75));
#1504=CARTESIAN_POINT('',(-28.95,-75.,48.7));
#1505=CARTESIAN_POINT('',(-28.95,-75.,48.7));
#1506=CARTESIAN_POINT('',(-28.95,-75.,55.15));
#1507=CARTESIAN_POINT('',(-28.95,-75.,55.15));
#1508=CARTESIAN_POINT('',(-11.05,-75.,55.15));
#1509=CARTESIAN_POINT('',(-15.25,-75.,48.7));
#1510=CARTESIAN_POINT('',(-15.25,-75.,46.7));
#1511=CARTESIAN_POINT('',(-15.25,-75.,45.325));
#1512=CARTESIAN_POINT('',(-13.45,-75.,46.7));
#1513=CARTESIAN_POINT('',(-11.05,-75.,46.7));
#1514=CARTESIAN_POINT('',(-13.45,-75.,42.15));
#1515=CARTESIAN_POINT('',(-13.45,-75.,53.25));
#1516=CARTESIAN_POINT('',(-19.,-75.,42.15));
#1517=CARTESIAN_POINT('',(-13.45,-75.,42.15));
#1518=CARTESIAN_POINT('',(-19.,-75.,42.95));
#1519=CARTESIAN_POINT('',(-19.,-75.,42.95));
#1520=CARTESIAN_POINT('',(-21.,-75.,42.95));
#1521=CARTESIAN_POINT('',(-22.375,-75.,42.95));
#1522=CARTESIAN_POINT('',(-21.,-75.,42.15));
#1523=CARTESIAN_POINT('',(-21.,-75.,40.25));
#1524=CARTESIAN_POINT('',(-26.55,-75.,42.15));
#1525=CARTESIAN_POINT('',(-13.45,-75.,42.15));
#1526=CARTESIAN_POINT('',(-26.55,-75.,46.7));
#1527=CARTESIAN_POINT('',(-26.55,-75.,42.15));
#1528=CARTESIAN_POINT('',(-24.75,-75.,46.7));
#1529=CARTESIAN_POINT('',(-24.75,-75.,46.7));
#1530=CARTESIAN_POINT('',(-24.75,-75.,48.7));
#1531=CARTESIAN_POINT('',(-24.75,-75.,50.075));
#1532=CARTESIAN_POINT('',(-26.55,-75.,48.7));
#1533=CARTESIAN_POINT('',(-28.95,-75.,48.7));
#1534=CARTESIAN_POINT('',(-26.55,-75.,53.25));
#1535=CARTESIAN_POINT('',(-26.55,-75.,42.15));
#1536=CARTESIAN_POINT('',(-21.,-75.,53.25));
#1537=CARTESIAN_POINT('',(-26.55,-75.,53.25));
#1538=CARTESIAN_POINT('',(-21.,-75.,52.45));
#1539=CARTESIAN_POINT('',(-21.,-75.,52.45));
#1540=CARTESIAN_POINT('',(-19.,-75.,52.45));
#1541=CARTESIAN_POINT('',(-17.625,-75.,52.45));
#1542=CARTESIAN_POINT('',(-19.,-75.,53.25));
#1543=CARTESIAN_POINT('',(-19.,-75.,55.15));
#1544=CARTESIAN_POINT('',(-13.45,-75.,53.25));
#1545=CARTESIAN_POINT('',(-26.55,-75.,53.25));
#1546=CARTESIAN_POINT('',(-13.45,-75.,48.7));
#1547=CARTESIAN_POINT('',(-13.45,-75.,53.25));
#1548=CARTESIAN_POINT('',(-15.25,-75.,48.7));
#1549=CARTESIAN_POINT('',(-26.95,-75.,46.7));
#1550=CARTESIAN_POINT('',(-28.95,-75.,46.7));
#1551=CARTESIAN_POINT('',(-24.75,-75.,46.7));
#1552=CARTESIAN_POINT('',(-26.95,-75.,41.75));
#1553=CARTESIAN_POINT('',(-26.95,-75.,41.75));
#1554=CARTESIAN_POINT('',(-21.,-75.,41.75));
#1555=CARTESIAN_POINT('',(-13.05,-75.,41.75));
#1556=CARTESIAN_POINT('',(-21.,-75.,40.25));
#1557=CARTESIAN_POINT('',(-21.,-75.,40.25));
#1558=CARTESIAN_POINT('',(-28.95,-75.,40.25));
#1559=CARTESIAN_POINT('',(-28.95,-75.,40.25));
#1560=CARTESIAN_POINT('',(-28.95,-75.,55.15));
#1561=CARTESIAN_POINT('Origin',(-20.,-70.5,47.7));
#1562=CARTESIAN_POINT('',(-15.25,-70.5,42.95));
#1563=CARTESIAN_POINT('',(-24.75,-70.5,42.95));
#1564=CARTESIAN_POINT('',(-21.,-70.5,42.95));
#1565=CARTESIAN_POINT('',(-24.75,-70.5,52.45));
#1566=CARTESIAN_POINT('',(-24.75,-70.5,52.45));
#1567=CARTESIAN_POINT('',(-15.25,-70.5,52.45));
#1568=CARTESIAN_POINT('',(-15.25,-70.5,52.45));
#1569=CARTESIAN_POINT('',(-15.25,-70.5,42.95));
#1570=CARTESIAN_POINT('Origin',(-20.,-74.4,47.7));
#1571=CARTESIAN_POINT('',(-21.,-74.4,42.95));
#1572=CARTESIAN_POINT('',(-19.,-74.4,42.95));
#1573=CARTESIAN_POINT('',(-17.625,-74.4,42.95));
#1574=CARTESIAN_POINT('',(-19.,-74.4,42.15));
#1575=CARTESIAN_POINT('',(-19.,-74.4,42.95));
#1576=CARTESIAN_POINT('',(-21.,-74.4,42.15));
#1577=CARTESIAN_POINT('',(-23.275,-74.4,42.15));
#1578=CARTESIAN_POINT('',(-21.,-74.4,40.25));
#1579=CARTESIAN_POINT('Origin',(-20.,-74.4,47.7));
#1580=CARTESIAN_POINT('',(-24.75,-74.4,48.7));
#1581=CARTESIAN_POINT('',(-24.75,-74.4,46.7));
#1582=CARTESIAN_POINT('',(-24.75,-74.4,45.325));
#1583=CARTESIAN_POINT('',(-26.55,-74.4,46.7));
#1584=CARTESIAN_POINT('',(-24.75,-74.4,46.7));
#1585=CARTESIAN_POINT('',(-26.55,-74.4,48.7));
#1586=CARTESIAN_POINT('',(-26.55,-74.4,50.475));
#1587=CARTESIAN_POINT('',(-28.95,-74.4,48.7));
#1588=CARTESIAN_POINT('Origin',(-20.,-74.4,47.7));
#1589=CARTESIAN_POINT('',(-15.25,-74.4,46.7));
#1590=CARTESIAN_POINT('',(-15.25,-74.4,48.7));
#1591=CARTESIAN_POINT('',(-15.25,-74.4,50.075));
#1592=CARTESIAN_POINT('',(-13.45,-74.4,48.7));
#1593=CARTESIAN_POINT('',(-15.25,-74.4,48.7));
#1594=CARTESIAN_POINT('',(-13.45,-74.4,46.7));
#1595=CARTESIAN_POINT('',(-13.45,-74.4,44.925));
#1596=CARTESIAN_POINT('',(-11.05,-74.4,46.7));
#1597=CARTESIAN_POINT('Origin',(-11.05,-75.,46.7));
#1598=CARTESIAN_POINT('',(-13.05,-74.4,46.7));
#1599=CARTESIAN_POINT('',(-13.05,-75.,46.7));
#1600=CARTESIAN_POINT('',(-11.05,-74.4,46.7));
#1601=CARTESIAN_POINT('',(-11.05,-74.4,46.7));
#1602=CARTESIAN_POINT('',(-11.05,-75.,46.7));
#1603=CARTESIAN_POINT('Origin',(-11.05,-75.,46.7));
#1604=CARTESIAN_POINT('',(-13.45,-75.,46.7));
#1605=CARTESIAN_POINT('',(-15.25,-75.,46.7));
#1606=CARTESIAN_POINT('Origin',(-15.25,-75.,48.7));
#1607=CARTESIAN_POINT('',(-13.05,-74.4,48.7));
#1608=CARTESIAN_POINT('',(-13.05,-75.,48.7));
#1609=CARTESIAN_POINT('',(-11.05,-74.4,48.7));
#1610=CARTESIAN_POINT('',(-11.05,-75.,48.7));
#1611=CARTESIAN_POINT('',(-15.25,-74.4,48.7));
#1612=CARTESIAN_POINT('Origin',(-19.,-75.,55.15));
#1613=CARTESIAN_POINT('',(-19.,-74.4,53.65));
#1614=CARTESIAN_POINT('',(-19.,-75.,53.65));
#1615=CARTESIAN_POINT('',(-19.,-74.4,55.15));
#1616=CARTESIAN_POINT('',(-19.,-74.4,55.15));
#1617=CARTESIAN_POINT('',(-19.,-75.,55.15));
#1618=CARTESIAN_POINT('Origin',(-19.,-75.,55.15));
#1619=CARTESIAN_POINT('',(-19.,-74.4,53.25));
#1620=CARTESIAN_POINT('',(-19.,-75.,53.25));
#1621=CARTESIAN_POINT('',(-19.,-74.4,52.45));
#1622=CARTESIAN_POINT('',(-19.,-75.,52.45));
#1623=CARTESIAN_POINT('',(-19.,-74.4,55.15));
#1624=CARTESIAN_POINT('Origin',(-21.,-75.,52.45));
#1625=CARTESIAN_POINT('',(-21.,-74.4,53.65));
#1626=CARTESIAN_POINT('',(-21.,-75.,53.65));
#1627=CARTESIAN_POINT('',(-21.,-74.4,55.15));
#1628=CARTESIAN_POINT('',(-21.,-75.,55.15));
#1629=CARTESIAN_POINT('',(-21.,-74.4,52.45));
#1630=CARTESIAN_POINT('Origin',(-28.95,-75.,48.7));
#1631=CARTESIAN_POINT('',(-26.95,-74.4,48.7));
#1632=CARTESIAN_POINT('',(-26.95,-75.,48.7));
#1633=CARTESIAN_POINT('',(-28.95,-74.4,48.7));
#1634=CARTESIAN_POINT('',(-28.95,-74.4,48.7));
#1635=CARTESIAN_POINT('',(-28.95,-75.,48.7));
#1636=CARTESIAN_POINT('Origin',(-28.95,-75.,48.7));
#1637=CARTESIAN_POINT('',(-26.55,-75.,48.7));
#1638=CARTESIAN_POINT('',(-24.75,-75.,48.7));
#1639=CARTESIAN_POINT('Origin',(-24.75,-75.,46.7));
#1640=CARTESIAN_POINT('',(-26.95,-74.4,46.7));
#1641=CARTESIAN_POINT('',(-26.95,-75.,46.7));
#1642=CARTESIAN_POINT('',(-28.95,-74.4,46.7));
#1643=CARTESIAN_POINT('',(-28.95,-75.,46.7));
#1644=CARTESIAN_POINT('',(-24.75,-74.4,46.7));
#1645=CARTESIAN_POINT('Origin',(-21.,-75.,40.25));
#1646=CARTESIAN_POINT('',(-21.,-74.4,41.75));
#1647=CARTESIAN_POINT('',(-21.,-75.,41.75));
#1648=CARTESIAN_POINT('',(-21.,-74.4,40.25));
#1649=CARTESIAN_POINT('',(-21.,-74.4,40.25));
#1650=CARTESIAN_POINT('',(-21.,-75.,40.25));
#1651=CARTESIAN_POINT('Origin',(-21.,-75.,40.25));
#1652=CARTESIAN_POINT('',(-21.,-75.,42.15));
#1653=CARTESIAN_POINT('',(-21.,-75.,42.95));
#1654=CARTESIAN_POINT('Origin',(-20.,-74.4,47.7));
#1655=CARTESIAN_POINT('',(-19.,-74.4,41.75));
#1656=CARTESIAN_POINT('',(-16.525,-74.4,41.75));
#1657=CARTESIAN_POINT('',(-19.,-74.4,40.25));
#1658=CARTESIAN_POINT('',(-19.,-74.4,42.95));
#1659=CARTESIAN_POINT('',(-24.475,-74.4,40.25));
#1660=CARTESIAN_POINT('Origin',(-20.,-74.4,47.7));
#1661=CARTESIAN_POINT('',(-26.95,-74.4,44.725));
#1662=CARTESIAN_POINT('',(-28.95,-74.4,51.425));
#1663=CARTESIAN_POINT('Origin',(-20.,-74.4,47.7));
#1664=CARTESIAN_POINT('',(-23.475,-74.4,53.65));
#1665=CARTESIAN_POINT('',(-15.525,-74.4,55.15));
#1666=CARTESIAN_POINT('Origin',(-20.,-74.4,47.7));
#1667=CARTESIAN_POINT('',(-13.05,-74.4,50.675));
#1668=CARTESIAN_POINT('',(-11.05,-74.4,43.975));
#1669=CARTESIAN_POINT('Origin',(-19.,-75.,42.95));
#1670=CARTESIAN_POINT('',(-19.,-75.,41.75));
#1671=CARTESIAN_POINT('',(-19.,-75.,40.25));
#1672=CARTESIAN_POINT('Origin',(-15.25,-75.,48.7));
#1673=CARTESIAN_POINT('',(-13.45,-75.,48.7));
#1674=CARTESIAN_POINT('',(-15.25,-75.,48.7));
#1675=CARTESIAN_POINT('Origin',(-15.25,-75.,52.45));
#1676=CARTESIAN_POINT('',(-15.25,-75.,52.45));
#1677=CARTESIAN_POINT('',(-15.25,-75.,42.95));
#1678=CARTESIAN_POINT('Origin',(-21.,-75.,52.45));
#1679=CARTESIAN_POINT('',(-21.,-74.4,53.25));
#1680=CARTESIAN_POINT('',(-21.,-75.,53.25));
#1681=CARTESIAN_POINT('',(-21.,-74.4,52.45));
#1682=CARTESIAN_POINT('',(-21.,-74.4,52.45));
#1683=CARTESIAN_POINT('',(-21.,-75.,52.45));
#1684=CARTESIAN_POINT('Origin',(-24.75,-75.,52.45));
#1685=CARTESIAN_POINT('',(-24.75,-75.,52.45));
#1686=CARTESIAN_POINT('',(-22.375,-74.4,52.45));
#1687=CARTESIAN_POINT('Origin',(-24.75,-75.,48.7));
#1688=CARTESIAN_POINT('',(-24.75,-75.,42.95));
#1689=CARTESIAN_POINT('',(-24.75,-75.,46.7));
#1690=CARTESIAN_POINT('Origin',(-24.75,-75.,46.7));
#1691=CARTESIAN_POINT('',(-26.55,-75.,46.7));
#1692=CARTESIAN_POINT('Origin',(-21.,-75.,42.95));
#1693=CARTESIAN_POINT('',(-19.,-75.,42.95));
#1694=CARTESIAN_POINT('Origin',(-19.,-75.,42.95));
#1695=CARTESIAN_POINT('',(-19.,-75.,42.15));
#1696=CARTESIAN_POINT('Origin',(-20.,-74.4,47.7));
#1697=CARTESIAN_POINT('',(-16.725,-74.4,53.25));
#1698=CARTESIAN_POINT('Origin',(-13.45,-75.,42.15));
#1699=CARTESIAN_POINT('',(-13.45,-74.,53.25));
#1700=CARTESIAN_POINT('',(-13.45,-75.,53.25));
#1701=CARTESIAN_POINT('',(-13.45,-74.,42.15));
#1702=CARTESIAN_POINT('',(-13.45,-74.,53.25));
#1703=CARTESIAN_POINT('',(-13.45,-75.,42.15));
#1704=CARTESIAN_POINT('Origin',(-13.45,-75.,53.25));
#1705=CARTESIAN_POINT('',(-26.55,-74.,53.25));
#1706=CARTESIAN_POINT('',(-26.55,-75.,53.25));
#1707=CARTESIAN_POINT('',(-26.55,-74.,53.25));
#1708=CARTESIAN_POINT('Origin',(-26.55,-75.,53.25));
#1709=CARTESIAN_POINT('',(-26.55,-74.,42.15));
#1710=CARTESIAN_POINT('',(-26.55,-75.,42.15));
#1711=CARTESIAN_POINT('',(-26.55,-74.,42.15));
#1712=CARTESIAN_POINT('Origin',(-26.55,-75.,42.15));
#1713=CARTESIAN_POINT('',(-13.45,-74.,42.15));
#1714=CARTESIAN_POINT('Origin',(-26.95,-75.,41.75));
#1715=CARTESIAN_POINT('',(-26.95,-74.,53.65));
#1716=CARTESIAN_POINT('',(-26.95,-75.,53.65));
#1717=CARTESIAN_POINT('',(-26.95,-74.,41.75));
#1718=CARTESIAN_POINT('',(-26.95,-74.,41.75));
#1719=CARTESIAN_POINT('',(-26.95,-75.,41.75));
#1720=CARTESIAN_POINT('Origin',(-13.05,-75.,41.75));
#1721=CARTESIAN_POINT('',(-13.05,-74.,41.75));
#1722=CARTESIAN_POINT('',(-13.05,-74.,41.75));
#1723=CARTESIAN_POINT('',(-13.05,-75.,41.75));
#1724=CARTESIAN_POINT('Origin',(-13.05,-75.,53.65));
#1725=CARTESIAN_POINT('',(-13.05,-74.,53.65));
#1726=CARTESIAN_POINT('',(-13.05,-74.,53.65));
#1727=CARTESIAN_POINT('',(-13.05,-75.,53.65));
#1728=CARTESIAN_POINT('Origin',(-26.95,-75.,53.65));
#1729=CARTESIAN_POINT('',(-26.95,-74.,53.65));
#1730=CARTESIAN_POINT('Origin',(-20.,-74.,47.7));
#1731=CARTESIAN_POINT('Origin',(-11.05,-75.,55.15));
#1732=CARTESIAN_POINT('',(-28.95,-72.,55.15));
#1733=CARTESIAN_POINT('',(-28.95,-75.,55.15));
#1734=CARTESIAN_POINT('',(-11.05,-72.,55.15));
#1735=CARTESIAN_POINT('',(-11.05,-72.,55.15));
#1736=CARTESIAN_POINT('',(-11.05,-75.,55.15));
#1737=CARTESIAN_POINT('Origin',(-11.05,-75.,40.25));
#1738=CARTESIAN_POINT('',(-11.05,-72.,40.25));
#1739=CARTESIAN_POINT('',(-11.05,-72.,40.25));
#1740=CARTESIAN_POINT('',(-11.05,-75.,40.25));
#1741=CARTESIAN_POINT('Origin',(-28.95,-75.,40.25));
#1742=CARTESIAN_POINT('',(-28.95,-72.,40.25));
#1743=CARTESIAN_POINT('',(-28.95,-72.,40.25));
#1744=CARTESIAN_POINT('',(-28.95,-75.,40.25));
#1745=CARTESIAN_POINT('Origin',(-28.95,-75.,55.15));
#1746=CARTESIAN_POINT('',(-28.95,-72.,55.15));
#1747=CARTESIAN_POINT('Origin',(-29.75,-75.,39.45));
#1748=CARTESIAN_POINT('',(-29.75,-72.,55.95));
#1749=CARTESIAN_POINT('',(-29.75,-75.,55.95));
#1750=CARTESIAN_POINT('',(-29.75,-72.,39.45));
#1751=CARTESIAN_POINT('',(-29.75,-72.,55.95));
#1752=CARTESIAN_POINT('',(-29.75,-75.,39.45));
#1753=CARTESIAN_POINT('Origin',(-10.25,-75.,39.45));
#1754=CARTESIAN_POINT('',(-10.25,-72.,39.45));
#1755=CARTESIAN_POINT('',(-29.75,-72.,39.45));
#1756=CARTESIAN_POINT('',(-10.25,-75.,39.45));
#1757=CARTESIAN_POINT('Origin',(-10.25,-75.,55.95));
#1758=CARTESIAN_POINT('',(-10.25,-72.,55.95));
#1759=CARTESIAN_POINT('',(-10.25,-72.,39.45));
#1760=CARTESIAN_POINT('',(-10.25,-75.,55.95));
#1761=CARTESIAN_POINT('Origin',(-29.75,-75.,55.95));
#1762=CARTESIAN_POINT('',(-10.25,-72.,55.95));
#1763=CARTESIAN_POINT('Origin',(-20.,-72.,47.7));
#1764=CARTESIAN_POINT('',(0.,0.,0.));
#1765=CARTESIAN_POINT('Origin',(0.,0.,0.));
#1766=UNCERTAINTY_MEASURE_WITH_UNIT(LENGTH_MEASURE(0.01),#1772,
'DISTANCE_ACCURACY_VALUE',
'Maximum model space distance between geometric entities at asserted c
onnectivities');
#1767=UNCERTAINTY_MEASURE_WITH_UNIT(LENGTH_MEASURE(0.01),#1772,
'DISTANCE_ACCURACY_VALUE',
'Maximum model space distance between geometric entities at asserted c
onnectivities');
#1768=UNCERTAINTY_MEASURE_WITH_UNIT(LENGTH_MEASURE(0.01),#1772,
'DISTANCE_ACCURACY_VALUE',
'Maximum model space distance between geometric entities at asserted c
onnectivities');
#1769=(
GEOMETRIC_REPRESENTATION_CONTEXT(3)
GLOBAL_UNCERTAINTY_ASSIGNED_CONTEXT((#1766))
GLOBAL_UNIT_ASSIGNED_CONTEXT((#1772,#1774,#1775))
REPRESENTATION_CONTEXT('','3D')
);
#1770=(
GEOMETRIC_REPRESENTATION_CONTEXT(3)
GLOBAL_UNCERTAINTY_ASSIGNED_CONTEXT((#1767))
GLOBAL_UNIT_ASSIGNED_CONTEXT((#1772,#1774,#1775))
REPRESENTATION_CONTEXT('','3D')
);
#1771=(
GEOMETRIC_REPRESENTATION_CONTEXT(3)
GLOBAL_UNCERTAINTY_ASSIGNED_CONTEXT((#1768))
GLOBAL_UNIT_ASSIGNED_CONTEXT((#1772,#1774,#1775))
REPRESENTATION_CONTEXT('','3D')
);
#1772=(
LENGTH_UNIT()
NAMED_UNIT(*)
SI_UNIT(.MILLI.,.METRE.)
);
#1773=(
LENGTH_UNIT()
NAMED_UNIT(*)
SI_UNIT($,.METRE.)
);
#1774=(
NAMED_UNIT(*)
PLANE_ANGLE_UNIT()
SI_UNIT($,.RADIAN.)
);
#1775=(
NAMED_UNIT(*)
SI_UNIT($,.STERADIAN.)
SOLID_ANGLE_UNIT()
);
#1776=SHAPE_DEFINITION_REPRESENTATION(#1778,#1781);
#1777=SHAPE_DEFINITION_REPRESENTATION(#1779,#1782);
#1778=PRODUCT_DEFINITION_SHAPE('',$,#1784);
#1779=PRODUCT_DEFINITION_SHAPE('',$,#1785);
#1780=PRODUCT_DEFINITION_SHAPE($,$,#17);
#1781=SHAPE_REPRESENTATION('',(#1138,#1189),#1769);
#1782=SHAPE_REPRESENTATION('',(#1139),#1770);
#1783=PRODUCT_DEFINITION_CONTEXT('part definition',#1791,'design');
#1784=PRODUCT_DEFINITION('Home assistant box','Home assistant box v41',
#1786,#1783);
#1785=PRODUCT_DEFINITION('Box (left)','Box (left)',#1787,#1783);
#1786=PRODUCT_DEFINITION_FORMATION('',$,#1793);
#1787=PRODUCT_DEFINITION_FORMATION('',$,#1794);
#1788=PRODUCT_RELATED_PRODUCT_CATEGORY('Home assistant box v41',
'Home assistant box v41',(#1793));
#1789=PRODUCT_RELATED_PRODUCT_CATEGORY('Box (left)','Box (left)',(#1794));
#1790=APPLICATION_PROTOCOL_DEFINITION('international standard',
'automotive_design',2009,#1791);
#1791=APPLICATION_CONTEXT(
'Core Data for Automotive Mechanical Design Process');
#1792=PRODUCT_CONTEXT('part definition',#1791,'mechanical');
#1793=PRODUCT('Home assistant box','Home assistant box v41',$,(#1792));
#1794=PRODUCT('Box (left)','Box (left)',$,(#1792));
#1795=PRESENTATION_STYLE_ASSIGNMENT((#1803));
#1796=PRESENTATION_STYLE_ASSIGNMENT((#1804));
#1797=PRESENTATION_STYLE_ASSIGNMENT((#1805));
#1798=PRESENTATION_STYLE_ASSIGNMENT((#1806));
#1799=PRESENTATION_STYLE_ASSIGNMENT((#1807));
#1800=PRESENTATION_STYLE_ASSIGNMENT((#1808));
#1801=PRESENTATION_STYLE_ASSIGNMENT((#1809));
#1802=PRESENTATION_STYLE_ASSIGNMENT((NULL_STYLE(.NULL.)));
#1803=SURFACE_STYLE_USAGE(.BOTH.,#1810);
#1804=SURFACE_STYLE_USAGE(.BOTH.,#1811);
#1805=SURFACE_STYLE_USAGE(.BOTH.,#1812);
#1806=SURFACE_STYLE_USAGE(.BOTH.,#1813);
#1807=SURFACE_STYLE_USAGE(.BOTH.,#1814);
#1808=SURFACE_STYLE_USAGE(.BOTH.,#1815);
#1809=SURFACE_STYLE_USAGE(.BOTH.,#1816);
#1810=SURFACE_SIDE_STYLE('',(#1817));
#1811=SURFACE_SIDE_STYLE('',(#1818));
#1812=SURFACE_SIDE_STYLE('',(#1819));
#1813=SURFACE_SIDE_STYLE('',(#1820));
#1814=SURFACE_SIDE_STYLE('',(#1821));
#1815=SURFACE_SIDE_STYLE('',(#1822));
#1816=SURFACE_SIDE_STYLE('',(#1823));
#1817=SURFACE_STYLE_FILL_AREA(#1824);
#1818=SURFACE_STYLE_FILL_AREA(#1825);
#1819=SURFACE_STYLE_FILL_AREA(#1826);
#1820=SURFACE_STYLE_FILL_AREA(#1827);
#1821=SURFACE_STYLE_FILL_AREA(#1828);
#1822=SURFACE_STYLE_FILL_AREA(#1829);
#1823=SURFACE_STYLE_FILL_AREA(#1830);
#1824=FILL_AREA_STYLE('Oak',(#1831));
#1825=FILL_AREA_STYLE('Plastic - Translucent Matte (White)',(#1832));
#1826=FILL_AREA_STYLE('Steel - Satin',(#1833));
#1827=FILL_AREA_STYLE('Paint - Metallic (Black)',(#1834));
#1828=FILL_AREA_STYLE('Paint - Metal Flake (Silver)',(#1835));
#1829=FILL_AREA_STYLE('Walnut',(#1836));
#1830=FILL_AREA_STYLE('Glass - Frosted',(#1837));
#1831=FILL_AREA_STYLE_COLOUR('Oak',#1838);
#1832=FILL_AREA_STYLE_COLOUR('Plastic - Translucent Matte (White)',#1839);
#1833=FILL_AREA_STYLE_COLOUR('Steel - Satin',#1840);
#1834=FILL_AREA_STYLE_COLOUR('Paint - Metallic (Black)',#1841);
#1835=FILL_AREA_STYLE_COLOUR('Paint - Metal Flake (Silver)',#1842);
#1836=FILL_AREA_STYLE_COLOUR('Walnut',#1843);
#1837=FILL_AREA_STYLE_COLOUR('Glass - Frosted',#1844);
#1838=COLOUR_RGB('Oak',0.,0.,0.);
#1839=COLOUR_RGB('Plastic - Translucent Matte (White)',0.964705882352941,
0.964705882352941,0.952941176470588);
#1840=COLOUR_RGB('Steel - Satin',0.627450980392157,0.627450980392157,0.627450980392157);
#1841=COLOUR_RGB('Paint - Metallic (Black)',0.0980392156862745,0.0980392156862745,
0.0980392156862745);
#1842=COLOUR_RGB('Paint - Metal Flake (Silver)',1.,1.,1.);
#1843=COLOUR_RGB('Walnut',0.,0.,0.);
#1844=COLOUR_RGB('Glass - Frosted',0.964705882352941,0.964705882352941,
0.952941176470588);
ENDSEC;
END-ISO-10303-21;
