ISO-10303-21;
HEADER;
/* Generated by software containing ST-Developer
 * from STEP Tools, Inc. (www.steptools.com) 
 */

FILE_DESCRIPTION(
/* description */ (''),
/* implementation_level */ '2;1');

FILE_NAME(
/* name */ 'Support.step',
/* time_stamp */ '2026-03-27T13:43:34+01:00',
/* author */ (''),
/* organization */ (''),
/* preprocessor_version */ 'ST-DEVELOPER v20.1',
/* originating_system */ 'Autodesk Translation Framework v14.24.0.0',
/* authorisation */ '');

FILE_SCHEMA (('AUTOMOTIVE_DESIGN { 1 0 10303 214 3 1 1 }'));
ENDSEC;

DATA;
#10=MECHANICAL_DESIGN_GEOMETRIC_PRESENTATION_REPRESENTATION('',(#20,#21),
#1964);
#11=CONTEXT_DEPENDENT_OVER_RIDING_STYLED_ITEM('',(#1991),#1975,#21,(#15));
#12=MAPPED_ITEM('',#13,#1283);
#13=REPRESENTATION_MAP(#1283,#1974);
#14=ITEM_DEFINED_TRANSFORMATION($,$,#1148,#1282);
#15=(
REPRESENTATION_RELATIONSHIP($,$,#1975,#1974)
REPRESENTATION_RELATIONSHIP_WITH_TRANSFORMATION(#14)
SHAPE_REPRESENTATION_RELATIONSHIP()
);
#16=CONTEXT_DEPENDENT_SHAPE_REPRESENTATION(#15,#1973);
#17=NEXT_ASSEMBLY_USAGE_OCCURRENCE('Support PI:1','Support PI:1',
'Support PI:1',#1977,#1978,'Support PI:1');
#18=SHAPE_REPRESENTATION_RELATIONSHIP('SRR','None',#1975,#19);
#19=ADVANCED_BREP_SHAPE_REPRESENTATION('',(#22),#1963);
#20=STYLED_ITEM('',(#1991),#22);
#21=STYLED_ITEM('',(#1995),#12);
#22=MANIFOLD_SOLID_BREP('Body1',#1134);
#23=FACE_BOUND('',#148,.T.);
#24=FACE_BOUND('',#149,.T.);
#25=FACE_BOUND('',#150,.T.);
#26=FACE_BOUND('',#151,.T.);
#27=FACE_BOUND('',#152,.T.);
#28=FACE_BOUND('',#153,.T.);
#29=FACE_BOUND('',#154,.T.);
#30=FACE_BOUND('',#155,.T.);
#31=FACE_BOUND('',#156,.T.);
#32=FACE_BOUND('',#157,.T.);
#33=FACE_BOUND('',#158,.T.);
#34=FACE_BOUND('',#159,.T.);
#35=FACE_BOUND('',#160,.T.);
#36=FACE_BOUND('',#161,.T.);
#37=FACE_BOUND('',#165,.T.);
#38=FACE_BOUND('',#166,.T.);
#39=FACE_BOUND('',#167,.T.);
#40=FACE_BOUND('',#168,.T.);
#41=FACE_BOUND('',#169,.T.);
#42=FACE_BOUND('',#170,.T.);
#43=FACE_BOUND('',#171,.T.);
#44=FACE_BOUND('',#172,.T.);
#45=FACE_BOUND('',#173,.T.);
#46=FACE_BOUND('',#174,.T.);
#47=FACE_BOUND('',#175,.T.);
#48=FACE_BOUND('',#176,.T.);
#49=FACE_BOUND('',#177,.T.);
#50=FACE_BOUND('',#178,.T.);
#51=FACE_BOUND('',#205,.T.);
#52=FACE_BOUND('',#209,.T.);
#53=FACE_BOUND('',#213,.T.);
#54=FACE_BOUND('',#217,.T.);
#55=FACE_BOUND('',#221,.T.);
#56=FACE_BOUND('',#225,.T.);
#57=FACE_BOUND('',#229,.T.);
#58=FACE_BOUND('',#233,.T.);
#59=PLANE('',#1152);
#60=PLANE('',#1153);
#61=PLANE('',#1183);
#62=PLANE('',#1184);
#63=PLANE('',#1212);
#64=PLANE('',#1215);
#65=PLANE('',#1217);
#66=PLANE('',#1219);
#67=PLANE('',#1221);
#68=PLANE('',#1223);
#69=PLANE('',#1225);
#70=PLANE('',#1227);
#71=PLANE('',#1229);
#72=PLANE('',#1232);
#73=PLANE('',#1238);
#74=PLANE('',#1243);
#75=PLANE('',#1248);
#76=PLANE('',#1253);
#77=PLANE('',#1258);
#78=PLANE('',#1263);
#79=PLANE('',#1268);
#80=PLANE('',#1273);
#81=PLANE('',#1279);
#82=PLANE('',#1280);
#83=PLANE('',#1281);
#84=FACE_OUTER_BOUND('',#145,.T.);
#85=FACE_OUTER_BOUND('',#146,.T.);
#86=FACE_OUTER_BOUND('',#147,.T.);
#87=FACE_OUTER_BOUND('',#162,.T.);
#88=FACE_OUTER_BOUND('',#163,.T.);
#89=FACE_OUTER_BOUND('',#164,.T.);
#90=FACE_OUTER_BOUND('',#179,.T.);
#91=FACE_OUTER_BOUND('',#180,.T.);
#92=FACE_OUTER_BOUND('',#181,.T.);
#93=FACE_OUTER_BOUND('',#182,.T.);
#94=FACE_OUTER_BOUND('',#183,.T.);
#95=FACE_OUTER_BOUND('',#184,.T.);
#96=FACE_OUTER_BOUND('',#185,.T.);
#97=FACE_OUTER_BOUND('',#186,.T.);
#98=FACE_OUTER_BOUND('',#187,.T.);
#99=FACE_OUTER_BOUND('',#188,.T.);
#100=FACE_OUTER_BOUND('',#189,.T.);
#101=FACE_OUTER_BOUND('',#190,.T.);
#102=FACE_OUTER_BOUND('',#191,.T.);
#103=FACE_OUTER_BOUND('',#192,.T.);
#104=FACE_OUTER_BOUND('',#193,.T.);
#105=FACE_OUTER_BOUND('',#194,.T.);
#106=FACE_OUTER_BOUND('',#195,.T.);
#107=FACE_OUTER_BOUND('',#196,.T.);
#108=FACE_OUTER_BOUND('',#197,.T.);
#109=FACE_OUTER_BOUND('',#198,.T.);
#110=FACE_OUTER_BOUND('',#199,.T.);
#111=FACE_OUTER_BOUND('',#200,.T.);
#112=FACE_OUTER_BOUND('',#201,.T.);
#113=FACE_OUTER_BOUND('',#202,.T.);
#114=FACE_OUTER_BOUND('',#203,.T.);
#115=FACE_OUTER_BOUND('',#204,.T.);
#116=FACE_OUTER_BOUND('',#206,.T.);
#117=FACE_OUTER_BOUND('',#207,.T.);
#118=FACE_OUTER_BOUND('',#208,.T.);
#119=FACE_OUTER_BOUND('',#210,.T.);
#120=FACE_OUTER_BOUND('',#211,.T.);
#121=FACE_OUTER_BOUND('',#212,.T.);
#122=FACE_OUTER_BOUND('',#214,.T.);
#123=FACE_OUTER_BOUND('',#215,.T.);
#124=FACE_OUTER_BOUND('',#216,.T.);
#125=FACE_OUTER_BOUND('',#218,.T.);
#126=FACE_OUTER_BOUND('',#219,.T.);
#127=FACE_OUTER_BOUND('',#220,.T.);
#128=FACE_OUTER_BOUND('',#222,.T.);
#129=FACE_OUTER_BOUND('',#223,.T.);
#130=FACE_OUTER_BOUND('',#224,.T.);
#131=FACE_OUTER_BOUND('',#226,.T.);
#132=FACE_OUTER_BOUND('',#227,.T.);
#133=FACE_OUTER_BOUND('',#228,.T.);
#134=FACE_OUTER_BOUND('',#230,.T.);
#135=FACE_OUTER_BOUND('',#231,.T.);
#136=FACE_OUTER_BOUND('',#232,.T.);
#137=FACE_OUTER_BOUND('',#234,.T.);
#138=FACE_OUTER_BOUND('',#235,.T.);
#139=FACE_OUTER_BOUND('',#236,.T.);
#140=FACE_OUTER_BOUND('',#237,.T.);
#141=FACE_OUTER_BOUND('',#238,.T.);
#142=FACE_OUTER_BOUND('',#239,.T.);
#143=FACE_OUTER_BOUND('',#240,.T.);
#144=FACE_OUTER_BOUND('',#241,.T.);
#145=EDGE_LOOP('',(#731,#732,#733,#734));
#146=EDGE_LOOP('',(#735,#736,#737,#738));
#147=EDGE_LOOP('',(#739,#740,#741,#742,#743,#744,#745,#746,#747,#748,#749,
#750,#751,#752,#753,#754));
#148=EDGE_LOOP('',(#755));
#149=EDGE_LOOP('',(#756));
#150=EDGE_LOOP('',(#757));
#151=EDGE_LOOP('',(#758));
#152=EDGE_LOOP('',(#759));
#153=EDGE_LOOP('',(#760));
#154=EDGE_LOOP('',(#761));
#155=EDGE_LOOP('',(#762));
#156=EDGE_LOOP('',(#763));
#157=EDGE_LOOP('',(#764));
#158=EDGE_LOOP('',(#765));
#159=EDGE_LOOP('',(#766));
#160=EDGE_LOOP('',(#767));
#161=EDGE_LOOP('',(#768,#769,#770,#771,#772,#773,#774,#775,#776,#777,#778,
#779,#780,#781));
#162=EDGE_LOOP('',(#782,#783,#784,#785));
#163=EDGE_LOOP('',(#786,#787,#788,#789));
#164=EDGE_LOOP('',(#790,#791,#792,#793,#794,#795,#796,#797,#798,#799,#800,
#801,#802,#803,#804,#805));
#165=EDGE_LOOP('',(#806,#807,#808,#809,#810,#811,#812,#813,#814,#815,#816,
#817,#818,#819));
#166=EDGE_LOOP('',(#820));
#167=EDGE_LOOP('',(#821));
#168=EDGE_LOOP('',(#822));
#169=EDGE_LOOP('',(#823));
#170=EDGE_LOOP('',(#824));
#171=EDGE_LOOP('',(#825));
#172=EDGE_LOOP('',(#826));
#173=EDGE_LOOP('',(#827));
#174=EDGE_LOOP('',(#828));
#175=EDGE_LOOP('',(#829));
#176=EDGE_LOOP('',(#830));
#177=EDGE_LOOP('',(#831));
#178=EDGE_LOOP('',(#832));
#179=EDGE_LOOP('',(#833,#834,#835,#836));
#180=EDGE_LOOP('',(#837,#838,#839,#840));
#181=EDGE_LOOP('',(#841,#842,#843,#844));
#182=EDGE_LOOP('',(#845,#846,#847,#848));
#183=EDGE_LOOP('',(#849,#850,#851,#852));
#184=EDGE_LOOP('',(#853,#854,#855,#856));
#185=EDGE_LOOP('',(#857,#858,#859,#860));
#186=EDGE_LOOP('',(#861,#862,#863,#864));
#187=EDGE_LOOP('',(#865,#866,#867,#868));
#188=EDGE_LOOP('',(#869,#870,#871,#872));
#189=EDGE_LOOP('',(#873,#874,#875,#876));
#190=EDGE_LOOP('',(#877,#878,#879,#880));
#191=EDGE_LOOP('',(#881,#882,#883,#884));
#192=EDGE_LOOP('',(#885,#886,#887,#888));
#193=EDGE_LOOP('',(#889,#890,#891,#892));
#194=EDGE_LOOP('',(#893,#894,#895,#896));
#195=EDGE_LOOP('',(#897,#898,#899,#900));
#196=EDGE_LOOP('',(#901,#902,#903,#904));
#197=EDGE_LOOP('',(#905,#906,#907,#908));
#198=EDGE_LOOP('',(#909,#910,#911,#912));
#199=EDGE_LOOP('',(#913,#914,#915,#916));
#200=EDGE_LOOP('',(#917,#918,#919,#920));
#201=EDGE_LOOP('',(#921,#922,#923,#924));
#202=EDGE_LOOP('',(#925,#926,#927,#928));
#203=EDGE_LOOP('',(#929,#930,#931,#932));
#204=EDGE_LOOP('',(#933));
#205=EDGE_LOOP('',(#934));
#206=EDGE_LOOP('',(#935,#936,#937,#938));
#207=EDGE_LOOP('',(#939,#940,#941,#942));
#208=EDGE_LOOP('',(#943));
#209=EDGE_LOOP('',(#944));
#210=EDGE_LOOP('',(#945,#946,#947,#948));
#211=EDGE_LOOP('',(#949,#950,#951,#952));
#212=EDGE_LOOP('',(#953));
#213=EDGE_LOOP('',(#954));
#214=EDGE_LOOP('',(#955,#956,#957,#958));
#215=EDGE_LOOP('',(#959,#960,#961,#962));
#216=EDGE_LOOP('',(#963));
#217=EDGE_LOOP('',(#964));
#218=EDGE_LOOP('',(#965,#966,#967,#968));
#219=EDGE_LOOP('',(#969,#970,#971,#972));
#220=EDGE_LOOP('',(#973));
#221=EDGE_LOOP('',(#974));
#222=EDGE_LOOP('',(#975,#976,#977,#978));
#223=EDGE_LOOP('',(#979,#980,#981,#982));
#224=EDGE_LOOP('',(#983));
#225=EDGE_LOOP('',(#984));
#226=EDGE_LOOP('',(#985,#986,#987,#988));
#227=EDGE_LOOP('',(#989,#990,#991,#992));
#228=EDGE_LOOP('',(#993));
#229=EDGE_LOOP('',(#994));
#230=EDGE_LOOP('',(#995,#996,#997,#998));
#231=EDGE_LOOP('',(#999,#1000,#1001,#1002));
#232=EDGE_LOOP('',(#1003));
#233=EDGE_LOOP('',(#1004));
#234=EDGE_LOOP('',(#1005,#1006,#1007,#1008));
#235=EDGE_LOOP('',(#1009,#1010,#1011,#1012));
#236=EDGE_LOOP('',(#1013,#1014,#1015,#1016));
#237=EDGE_LOOP('',(#1017,#1018,#1019,#1020));
#238=EDGE_LOOP('',(#1021,#1022,#1023,#1024));
#239=EDGE_LOOP('',(#1025,#1026,#1027,#1028));
#240=EDGE_LOOP('',(#1029,#1030,#1031,#1032));
#241=EDGE_LOOP('',(#1033,#1034,#1035,#1036));
#242=LINE('',#1646,#323);
#243=LINE('',#1649,#324);
#244=LINE('',#1652,#325);
#245=LINE('',#1654,#326);
#246=LINE('',#1655,#327);
#247=LINE('',#1658,#328);
#248=LINE('',#1662,#329);
#249=LINE('',#1666,#330);
#250=LINE('',#1670,#331);
#251=LINE('',#1674,#332);
#252=LINE('',#1678,#333);
#253=LINE('',#1682,#334);
#254=LINE('',#1714,#335);
#255=LINE('',#1718,#336);
#256=LINE('',#1722,#337);
#257=LINE('',#1726,#338);
#258=LINE('',#1730,#339);
#259=LINE('',#1734,#340);
#260=LINE('',#1737,#341);
#261=LINE('',#1740,#342);
#262=LINE('',#1743,#343);
#263=LINE('',#1746,#344);
#264=LINE('',#1747,#345);
#265=LINE('',#1752,#346);
#266=LINE('',#1756,#347);
#267=LINE('',#1760,#348);
#268=LINE('',#1764,#349);
#269=LINE('',#1768,#350);
#270=LINE('',#1770,#351);
#271=LINE('',#1775,#352);
#272=LINE('',#1779,#353);
#273=LINE('',#1783,#354);
#274=LINE('',#1787,#355);
#275=LINE('',#1791,#356);
#276=LINE('',#1795,#357);
#277=LINE('',#1798,#358);
#278=LINE('',#1826,#359);
#279=LINE('',#1828,#360);
#280=LINE('',#1830,#361);
#281=LINE('',#1832,#362);
#282=LINE('',#1833,#363);
#283=LINE('',#1835,#364);
#284=LINE('',#1837,#365);
#285=LINE('',#1838,#366);
#286=LINE('',#1840,#367);
#287=LINE('',#1842,#368);
#288=LINE('',#1844,#369);
#289=LINE('',#1846,#370);
#290=LINE('',#1848,#371);
#291=LINE('',#1850,#372);
#292=LINE('',#1851,#373);
#293=LINE('',#1854,#374);
#294=LINE('',#1855,#375);
#295=LINE('',#1858,#376);
#296=LINE('',#1860,#377);
#297=LINE('',#1862,#378);
#298=LINE('',#1865,#379);
#299=LINE('',#1867,#380);
#300=LINE('',#1869,#381);
#301=LINE('',#1871,#382);
#302=LINE('',#1875,#383);
#303=LINE('',#1879,#384);
#304=LINE('',#1884,#385);
#305=LINE('',#1888,#386);
#306=LINE('',#1893,#387);
#307=LINE('',#1897,#388);
#308=LINE('',#1902,#389);
#309=LINE('',#1906,#390);
#310=LINE('',#1911,#391);
#311=LINE('',#1915,#392);
#312=LINE('',#1920,#393);
#313=LINE('',#1924,#394);
#314=LINE('',#1929,#395);
#315=LINE('',#1933,#396);
#316=LINE('',#1938,#397);
#317=LINE('',#1942,#398);
#318=LINE('',#1945,#399);
#319=LINE('',#1947,#400);
#320=LINE('',#1949,#401);
#321=LINE('',#1951,#402);
#322=LINE('',#1953,#403);
#323=VECTOR('',#1292,10.);
#324=VECTOR('',#1295,10.);
#325=VECTOR('',#1298,10.);
#326=VECTOR('',#1299,10.);
#327=VECTOR('',#1300,10.);
#328=VECTOR('',#1303,10.);
#329=VECTOR('',#1306,10.);
#330=VECTOR('',#1309,10.);
#331=VECTOR('',#1312,10.);
#332=VECTOR('',#1315,10.);
#333=VECTOR('',#1318,10.);
#334=VECTOR('',#1321,10.);
#335=VECTOR('',#1352,10.);
#336=VECTOR('',#1355,10.);
#337=VECTOR('',#1358,10.);
#338=VECTOR('',#1361,10.);
#339=VECTOR('',#1364,10.);
#340=VECTOR('',#1367,10.);
#341=VECTOR('',#1370,10.);
#342=VECTOR('',#1373,10.);
#343=VECTOR('',#1376,10.);
#344=VECTOR('',#1379,10.);
#345=VECTOR('',#1380,10.);
#346=VECTOR('',#1385,10.);
#347=VECTOR('',#1388,10.);
#348=VECTOR('',#1391,10.);
#349=VECTOR('',#1394,10.);
#350=VECTOR('',#1397,10.);
#351=VECTOR('',#1400,10.);
#352=VECTOR('',#1403,10.);
#353=VECTOR('',#1406,10.);
#354=VECTOR('',#1409,10.);
#355=VECTOR('',#1412,10.);
#356=VECTOR('',#1415,10.);
#357=VECTOR('',#1418,10.);
#358=VECTOR('',#1421,10.);
#359=VECTOR('',#1450,10.);
#360=VECTOR('',#1453,10.);
#361=VECTOR('',#1456,10.);
#362=VECTOR('',#1459,10.);
#363=VECTOR('',#1460,10.);
#364=VECTOR('',#1463,10.);
#365=VECTOR('',#1466,10.);
#366=VECTOR('',#1467,10.);
#367=VECTOR('',#1470,10.);
#368=VECTOR('',#1473,10.);
#369=VECTOR('',#1476,10.);
#370=VECTOR('',#1479,10.);
#371=VECTOR('',#1482,10.);
#372=VECTOR('',#1485,10.);
#373=VECTOR('',#1486,10.);
#374=VECTOR('',#1491,10.);
#375=VECTOR('',#1492,10.);
#376=VECTOR('',#1497,10.);
#377=VECTOR('',#1500,10.);
#378=VECTOR('',#1503,10.);
#379=VECTOR('',#1508,10.);
#380=VECTOR('',#1511,10.);
#381=VECTOR('',#1514,10.);
#382=VECTOR('',#1517,10.);
#383=VECTOR('',#1522,3.);
#384=VECTOR('',#1527,1.75);
#385=VECTOR('',#1534,3.);
#386=VECTOR('',#1539,1.75);
#387=VECTOR('',#1546,3.);
#388=VECTOR('',#1551,1.75);
#389=VECTOR('',#1558,3.);
#390=VECTOR('',#1563,1.75);
#391=VECTOR('',#1570,3.00000000000001);
#392=VECTOR('',#1575,1.75);
#393=VECTOR('',#1582,3.00000000000001);
#394=VECTOR('',#1587,1.75);
#395=VECTOR('',#1594,3.00000000000002);
#396=VECTOR('',#1599,1.75);
#397=VECTOR('',#1606,3.);
#398=VECTOR('',#1611,1.75);
#399=VECTOR('',#1616,1.25);
#400=VECTOR('',#1619,1.25);
#401=VECTOR('',#1622,1.25);
#402=VECTOR('',#1625,1.25);
#403=VECTOR('',#1628,1.25);
#404=CIRCLE('',#1150,5.);
#405=CIRCLE('',#1151,5.);
#406=CIRCLE('',#1154,5.);
#407=CIRCLE('',#1155,5.);
#408=CIRCLE('',#1156,5.);
#409=CIRCLE('',#1157,5.);
#410=CIRCLE('',#1158,5.);
#411=CIRCLE('',#1159,5.);
#412=CIRCLE('',#1160,5.);
#413=CIRCLE('',#1161,3.00000000000002);
#414=CIRCLE('',#1162,3.);
#415=CIRCLE('',#1163,3.00000000000001);
#416=CIRCLE('',#1164,1.25);
#417=CIRCLE('',#1165,1.25);
#418=CIRCLE('',#1166,3.);
#419=CIRCLE('',#1167,3.);
#420=CIRCLE('',#1168,1.25);
#421=CIRCLE('',#1169,3.);
#422=CIRCLE('',#1170,1.25);
#423=CIRCLE('',#1171,3.);
#424=CIRCLE('',#1172,3.00000000000001);
#425=CIRCLE('',#1173,1.25);
#426=CIRCLE('',#1174,5.);
#427=CIRCLE('',#1175,5.);
#428=CIRCLE('',#1176,5.);
#429=CIRCLE('',#1177,5.);
#430=CIRCLE('',#1178,5.);
#431=CIRCLE('',#1179,5.);
#432=CIRCLE('',#1180,5.);
#433=CIRCLE('',#1182,5.);
#434=CIRCLE('',#1185,5.);
#435=CIRCLE('',#1186,5.);
#436=CIRCLE('',#1187,5.);
#437=CIRCLE('',#1188,5.);
#438=CIRCLE('',#1189,5.);
#439=CIRCLE('',#1190,5.);
#440=CIRCLE('',#1191,5.);
#441=CIRCLE('',#1192,5.);
#442=CIRCLE('',#1193,5.);
#443=CIRCLE('',#1194,5.);
#444=CIRCLE('',#1195,5.);
#445=CIRCLE('',#1196,5.);
#446=CIRCLE('',#1197,5.);
#447=CIRCLE('',#1198,1.25);
#448=CIRCLE('',#1199,1.25);
#449=CIRCLE('',#1200,1.25);
#450=CIRCLE('',#1201,1.25);
#451=CIRCLE('',#1202,1.25);
#452=CIRCLE('',#1203,1.75);
#453=CIRCLE('',#1204,1.75);
#454=CIRCLE('',#1205,1.75);
#455=CIRCLE('',#1206,1.75);
#456=CIRCLE('',#1207,1.75);
#457=CIRCLE('',#1208,1.75);
#458=CIRCLE('',#1209,1.75);
#459=CIRCLE('',#1210,1.75);
#460=CIRCLE('',#1235,3.);
#461=CIRCLE('',#1237,1.75);
#462=CIRCLE('',#1240,3.);
#463=CIRCLE('',#1242,1.75);
#464=CIRCLE('',#1245,3.);
#465=CIRCLE('',#1247,1.75);
#466=CIRCLE('',#1250,3.);
#467=CIRCLE('',#1252,1.75);
#468=CIRCLE('',#1255,3.00000000000001);
#469=CIRCLE('',#1257,1.75);
#470=CIRCLE('',#1260,3.00000000000001);
#471=CIRCLE('',#1262,1.75);
#472=CIRCLE('',#1265,3.00000000000002);
#473=CIRCLE('',#1267,1.75);
#474=CIRCLE('',#1270,3.);
#475=CIRCLE('',#1272,1.75);
#476=VERTEX_POINT('',#1642);
#477=VERTEX_POINT('',#1643);
#478=VERTEX_POINT('',#1645);
#479=VERTEX_POINT('',#1647);
#480=VERTEX_POINT('',#1651);
#481=VERTEX_POINT('',#1653);
#482=VERTEX_POINT('',#1657);
#483=VERTEX_POINT('',#1659);
#484=VERTEX_POINT('',#1661);
#485=VERTEX_POINT('',#1663);
#486=VERTEX_POINT('',#1665);
#487=VERTEX_POINT('',#1667);
#488=VERTEX_POINT('',#1669);
#489=VERTEX_POINT('',#1671);
#490=VERTEX_POINT('',#1673);
#491=VERTEX_POINT('',#1675);
#492=VERTEX_POINT('',#1677);
#493=VERTEX_POINT('',#1679);
#494=VERTEX_POINT('',#1681);
#495=VERTEX_POINT('',#1684);
#496=VERTEX_POINT('',#1686);
#497=VERTEX_POINT('',#1688);
#498=VERTEX_POINT('',#1690);
#499=VERTEX_POINT('',#1692);
#500=VERTEX_POINT('',#1694);
#501=VERTEX_POINT('',#1696);
#502=VERTEX_POINT('',#1698);
#503=VERTEX_POINT('',#1700);
#504=VERTEX_POINT('',#1702);
#505=VERTEX_POINT('',#1704);
#506=VERTEX_POINT('',#1706);
#507=VERTEX_POINT('',#1708);
#508=VERTEX_POINT('',#1710);
#509=VERTEX_POINT('',#1711);
#510=VERTEX_POINT('',#1713);
#511=VERTEX_POINT('',#1715);
#512=VERTEX_POINT('',#1717);
#513=VERTEX_POINT('',#1719);
#514=VERTEX_POINT('',#1721);
#515=VERTEX_POINT('',#1723);
#516=VERTEX_POINT('',#1725);
#517=VERTEX_POINT('',#1727);
#518=VERTEX_POINT('',#1729);
#519=VERTEX_POINT('',#1731);
#520=VERTEX_POINT('',#1733);
#521=VERTEX_POINT('',#1735);
#522=VERTEX_POINT('',#1739);
#523=VERTEX_POINT('',#1741);
#524=VERTEX_POINT('',#1745);
#525=VERTEX_POINT('',#1749);
#526=VERTEX_POINT('',#1751);
#527=VERTEX_POINT('',#1753);
#528=VERTEX_POINT('',#1755);
#529=VERTEX_POINT('',#1757);
#530=VERTEX_POINT('',#1759);
#531=VERTEX_POINT('',#1761);
#532=VERTEX_POINT('',#1763);
#533=VERTEX_POINT('',#1765);
#534=VERTEX_POINT('',#1767);
#535=VERTEX_POINT('',#1771);
#536=VERTEX_POINT('',#1772);
#537=VERTEX_POINT('',#1774);
#538=VERTEX_POINT('',#1776);
#539=VERTEX_POINT('',#1778);
#540=VERTEX_POINT('',#1780);
#541=VERTEX_POINT('',#1782);
#542=VERTEX_POINT('',#1784);
#543=VERTEX_POINT('',#1786);
#544=VERTEX_POINT('',#1788);
#545=VERTEX_POINT('',#1790);
#546=VERTEX_POINT('',#1792);
#547=VERTEX_POINT('',#1794);
#548=VERTEX_POINT('',#1796);
#549=VERTEX_POINT('',#1799);
#550=VERTEX_POINT('',#1801);
#551=VERTEX_POINT('',#1803);
#552=VERTEX_POINT('',#1805);
#553=VERTEX_POINT('',#1807);
#554=VERTEX_POINT('',#1809);
#555=VERTEX_POINT('',#1811);
#556=VERTEX_POINT('',#1813);
#557=VERTEX_POINT('',#1815);
#558=VERTEX_POINT('',#1817);
#559=VERTEX_POINT('',#1819);
#560=VERTEX_POINT('',#1821);
#561=VERTEX_POINT('',#1823);
#562=VERTEX_POINT('',#1873);
#563=VERTEX_POINT('',#1877);
#564=VERTEX_POINT('',#1882);
#565=VERTEX_POINT('',#1886);
#566=VERTEX_POINT('',#1891);
#567=VERTEX_POINT('',#1895);
#568=VERTEX_POINT('',#1900);
#569=VERTEX_POINT('',#1904);
#570=VERTEX_POINT('',#1909);
#571=VERTEX_POINT('',#1913);
#572=VERTEX_POINT('',#1918);
#573=VERTEX_POINT('',#1922);
#574=VERTEX_POINT('',#1927);
#575=VERTEX_POINT('',#1931);
#576=VERTEX_POINT('',#1936);
#577=VERTEX_POINT('',#1940);
#578=EDGE_CURVE('',#476,#477,#404,.T.);
#579=EDGE_CURVE('',#477,#478,#242,.T.);
#580=EDGE_CURVE('',#478,#479,#405,.T.);
#581=EDGE_CURVE('',#479,#476,#243,.T.);
#582=EDGE_CURVE('',#480,#477,#244,.T.);
#583=EDGE_CURVE('',#481,#480,#245,.T.);
#584=EDGE_CURVE('',#478,#481,#246,.T.);
#585=EDGE_CURVE('',#476,#482,#247,.T.);
#586=EDGE_CURVE('',#483,#482,#406,.T.);
#587=EDGE_CURVE('',#483,#484,#248,.T.);
#588=EDGE_CURVE('',#485,#484,#407,.T.);
#589=EDGE_CURVE('',#485,#486,#249,.T.);
#590=EDGE_CURVE('',#487,#486,#408,.T.);
#591=EDGE_CURVE('',#487,#488,#250,.T.);
#592=EDGE_CURVE('',#489,#488,#409,.T.);
#593=EDGE_CURVE('',#489,#490,#251,.T.);
#594=EDGE_CURVE('',#491,#490,#410,.T.);
#595=EDGE_CURVE('',#491,#492,#252,.T.);
#596=EDGE_CURVE('',#493,#492,#411,.T.);
#597=EDGE_CURVE('',#493,#494,#253,.T.);
#598=EDGE_CURVE('',#480,#494,#412,.T.);
#599=EDGE_CURVE('',#495,#495,#413,.T.);
#600=EDGE_CURVE('',#496,#496,#414,.T.);
#601=EDGE_CURVE('',#497,#497,#415,.T.);
#602=EDGE_CURVE('',#498,#498,#416,.T.);
#603=EDGE_CURVE('',#499,#499,#417,.T.);
#604=EDGE_CURVE('',#500,#500,#418,.T.);
#605=EDGE_CURVE('',#501,#501,#419,.T.);
#606=EDGE_CURVE('',#502,#502,#420,.T.);
#607=EDGE_CURVE('',#503,#503,#421,.T.);
#608=EDGE_CURVE('',#504,#504,#422,.T.);
#609=EDGE_CURVE('',#505,#505,#423,.T.);
#610=EDGE_CURVE('',#506,#506,#424,.T.);
#611=EDGE_CURVE('',#507,#507,#425,.T.);
#612=EDGE_CURVE('',#508,#509,#426,.T.);
#613=EDGE_CURVE('',#508,#510,#254,.T.);
#614=EDGE_CURVE('',#511,#510,#427,.T.);
#615=EDGE_CURVE('',#511,#512,#255,.T.);
#616=EDGE_CURVE('',#513,#512,#428,.T.);
#617=EDGE_CURVE('',#513,#514,#256,.T.);
#618=EDGE_CURVE('',#515,#514,#429,.T.);
#619=EDGE_CURVE('',#515,#516,#257,.T.);
#620=EDGE_CURVE('',#517,#516,#430,.T.);
#621=EDGE_CURVE('',#517,#518,#258,.T.);
#622=EDGE_CURVE('',#519,#518,#431,.T.);
#623=EDGE_CURVE('',#519,#520,#259,.T.);
#624=EDGE_CURVE('',#521,#520,#432,.T.);
#625=EDGE_CURVE('',#521,#509,#260,.T.);
#626=EDGE_CURVE('',#482,#522,#261,.T.);
#627=EDGE_CURVE('',#522,#523,#433,.T.);
#628=EDGE_CURVE('',#523,#483,#262,.T.);
#629=EDGE_CURVE('',#524,#523,#263,.T.);
#630=EDGE_CURVE('',#484,#524,#264,.T.);
#631=EDGE_CURVE('',#525,#481,#434,.T.);
#632=EDGE_CURVE('',#525,#526,#265,.T.);
#633=EDGE_CURVE('',#527,#526,#435,.T.);
#634=EDGE_CURVE('',#527,#528,#266,.T.);
#635=EDGE_CURVE('',#529,#528,#436,.T.);
#636=EDGE_CURVE('',#529,#530,#267,.T.);
#637=EDGE_CURVE('',#531,#530,#437,.T.);
#638=EDGE_CURVE('',#531,#532,#268,.T.);
#639=EDGE_CURVE('',#533,#532,#438,.T.);
#640=EDGE_CURVE('',#533,#534,#269,.T.);
#641=EDGE_CURVE('',#524,#534,#439,.T.);
#642=EDGE_CURVE('',#522,#479,#270,.T.);
#643=EDGE_CURVE('',#535,#536,#440,.T.);
#644=EDGE_CURVE('',#537,#535,#271,.T.);
#645=EDGE_CURVE('',#538,#537,#441,.T.);
#646=EDGE_CURVE('',#539,#538,#272,.T.);
#647=EDGE_CURVE('',#540,#539,#442,.T.);
#648=EDGE_CURVE('',#541,#540,#273,.T.);
#649=EDGE_CURVE('',#542,#541,#443,.T.);
#650=EDGE_CURVE('',#543,#542,#274,.T.);
#651=EDGE_CURVE('',#544,#543,#444,.T.);
#652=EDGE_CURVE('',#545,#544,#275,.T.);
#653=EDGE_CURVE('',#546,#545,#445,.T.);
#654=EDGE_CURVE('',#547,#546,#276,.T.);
#655=EDGE_CURVE('',#548,#547,#446,.T.);
#656=EDGE_CURVE('',#536,#548,#277,.T.);
#657=EDGE_CURVE('',#549,#549,#447,.T.);
#658=EDGE_CURVE('',#550,#550,#448,.T.);
#659=EDGE_CURVE('',#551,#551,#449,.T.);
#660=EDGE_CURVE('',#552,#552,#450,.T.);
#661=EDGE_CURVE('',#553,#553,#451,.T.);
#662=EDGE_CURVE('',#554,#554,#452,.T.);
#663=EDGE_CURVE('',#555,#555,#453,.T.);
#664=EDGE_CURVE('',#556,#556,#454,.T.);
#665=EDGE_CURVE('',#557,#557,#455,.T.);
#666=EDGE_CURVE('',#558,#558,#456,.T.);
#667=EDGE_CURVE('',#559,#559,#457,.T.);
#668=EDGE_CURVE('',#560,#560,#458,.T.);
#669=EDGE_CURVE('',#561,#561,#459,.T.);
#670=EDGE_CURVE('',#534,#485,#278,.T.);
#671=EDGE_CURVE('',#486,#533,#279,.T.);
#672=EDGE_CURVE('',#532,#487,#280,.T.);
#673=EDGE_CURVE('',#488,#531,#281,.T.);
#674=EDGE_CURVE('',#530,#489,#282,.T.);
#675=EDGE_CURVE('',#490,#529,#283,.T.);
#676=EDGE_CURVE('',#541,#517,#284,.T.);
#677=EDGE_CURVE('',#516,#542,#285,.T.);
#678=EDGE_CURVE('',#518,#540,#286,.T.);
#679=EDGE_CURVE('',#539,#519,#287,.T.);
#680=EDGE_CURVE('',#520,#538,#288,.T.);
#681=EDGE_CURVE('',#537,#521,#289,.T.);
#682=EDGE_CURVE('',#509,#535,#290,.T.);
#683=EDGE_CURVE('',#543,#515,#291,.T.);
#684=EDGE_CURVE('',#514,#544,#292,.T.);
#685=EDGE_CURVE('',#545,#513,#293,.T.);
#686=EDGE_CURVE('',#512,#546,#294,.T.);
#687=EDGE_CURVE('',#536,#508,#295,.T.);
#688=EDGE_CURVE('',#510,#548,#296,.T.);
#689=EDGE_CURVE('',#547,#511,#297,.T.);
#690=EDGE_CURVE('',#494,#525,#298,.T.);
#691=EDGE_CURVE('',#528,#491,#299,.T.);
#692=EDGE_CURVE('',#492,#527,#300,.T.);
#693=EDGE_CURVE('',#526,#493,#301,.T.);
#694=EDGE_CURVE('',#562,#562,#460,.T.);
#695=EDGE_CURVE('',#562,#503,#302,.T.);
#696=EDGE_CURVE('',#563,#563,#461,.T.);
#697=EDGE_CURVE('',#563,#561,#303,.T.);
#698=EDGE_CURVE('',#564,#564,#462,.T.);
#699=EDGE_CURVE('',#564,#501,#304,.T.);
#700=EDGE_CURVE('',#565,#565,#463,.T.);
#701=EDGE_CURVE('',#565,#560,#305,.T.);
#702=EDGE_CURVE('',#566,#566,#464,.T.);
#703=EDGE_CURVE('',#566,#500,#306,.T.);
#704=EDGE_CURVE('',#567,#567,#465,.T.);
#705=EDGE_CURVE('',#567,#559,#307,.T.);
#706=EDGE_CURVE('',#568,#568,#466,.T.);
#707=EDGE_CURVE('',#568,#505,#308,.T.);
#708=EDGE_CURVE('',#569,#569,#467,.T.);
#709=EDGE_CURVE('',#569,#558,#309,.T.);
#710=EDGE_CURVE('',#570,#570,#468,.T.);
#711=EDGE_CURVE('',#570,#497,#310,.T.);
#712=EDGE_CURVE('',#571,#571,#469,.T.);
#713=EDGE_CURVE('',#571,#557,#311,.T.);
#714=EDGE_CURVE('',#572,#572,#470,.T.);
#715=EDGE_CURVE('',#572,#506,#312,.T.);
#716=EDGE_CURVE('',#573,#573,#471,.T.);
#717=EDGE_CURVE('',#573,#556,#313,.T.);
#718=EDGE_CURVE('',#574,#574,#472,.T.);
#719=EDGE_CURVE('',#574,#495,#314,.T.);
#720=EDGE_CURVE('',#575,#575,#473,.T.);
#721=EDGE_CURVE('',#575,#555,#315,.T.);
#722=EDGE_CURVE('',#576,#576,#474,.T.);
#723=EDGE_CURVE('',#576,#496,#316,.T.);
#724=EDGE_CURVE('',#577,#577,#475,.T.);
#725=EDGE_CURVE('',#577,#554,#317,.T.);
#726=EDGE_CURVE('',#498,#549,#318,.T.);
#727=EDGE_CURVE('',#499,#550,#319,.T.);
#728=EDGE_CURVE('',#502,#551,#320,.T.);
#729=EDGE_CURVE('',#504,#552,#321,.T.);
#730=EDGE_CURVE('',#507,#553,#322,.T.);
#731=ORIENTED_EDGE('',*,*,#578,.T.);
#732=ORIENTED_EDGE('',*,*,#579,.T.);
#733=ORIENTED_EDGE('',*,*,#580,.T.);
#734=ORIENTED_EDGE('',*,*,#581,.T.);
#735=ORIENTED_EDGE('',*,*,#579,.F.);
#736=ORIENTED_EDGE('',*,*,#582,.F.);
#737=ORIENTED_EDGE('',*,*,#583,.F.);
#738=ORIENTED_EDGE('',*,*,#584,.F.);
#739=ORIENTED_EDGE('',*,*,#578,.F.);
#740=ORIENTED_EDGE('',*,*,#585,.T.);
#741=ORIENTED_EDGE('',*,*,#586,.F.);
#742=ORIENTED_EDGE('',*,*,#587,.T.);
#743=ORIENTED_EDGE('',*,*,#588,.F.);
#744=ORIENTED_EDGE('',*,*,#589,.T.);
#745=ORIENTED_EDGE('',*,*,#590,.F.);
#746=ORIENTED_EDGE('',*,*,#591,.T.);
#747=ORIENTED_EDGE('',*,*,#592,.F.);
#748=ORIENTED_EDGE('',*,*,#593,.T.);
#749=ORIENTED_EDGE('',*,*,#594,.F.);
#750=ORIENTED_EDGE('',*,*,#595,.T.);
#751=ORIENTED_EDGE('',*,*,#596,.F.);
#752=ORIENTED_EDGE('',*,*,#597,.T.);
#753=ORIENTED_EDGE('',*,*,#598,.F.);
#754=ORIENTED_EDGE('',*,*,#582,.T.);
#755=ORIENTED_EDGE('',*,*,#599,.T.);
#756=ORIENTED_EDGE('',*,*,#600,.T.);
#757=ORIENTED_EDGE('',*,*,#601,.T.);
#758=ORIENTED_EDGE('',*,*,#602,.T.);
#759=ORIENTED_EDGE('',*,*,#603,.T.);
#760=ORIENTED_EDGE('',*,*,#604,.T.);
#761=ORIENTED_EDGE('',*,*,#605,.T.);
#762=ORIENTED_EDGE('',*,*,#606,.T.);
#763=ORIENTED_EDGE('',*,*,#607,.T.);
#764=ORIENTED_EDGE('',*,*,#608,.T.);
#765=ORIENTED_EDGE('',*,*,#609,.T.);
#766=ORIENTED_EDGE('',*,*,#610,.T.);
#767=ORIENTED_EDGE('',*,*,#611,.T.);
#768=ORIENTED_EDGE('',*,*,#612,.F.);
#769=ORIENTED_EDGE('',*,*,#613,.T.);
#770=ORIENTED_EDGE('',*,*,#614,.F.);
#771=ORIENTED_EDGE('',*,*,#615,.T.);
#772=ORIENTED_EDGE('',*,*,#616,.F.);
#773=ORIENTED_EDGE('',*,*,#617,.T.);
#774=ORIENTED_EDGE('',*,*,#618,.F.);
#775=ORIENTED_EDGE('',*,*,#619,.T.);
#776=ORIENTED_EDGE('',*,*,#620,.F.);
#777=ORIENTED_EDGE('',*,*,#621,.T.);
#778=ORIENTED_EDGE('',*,*,#622,.F.);
#779=ORIENTED_EDGE('',*,*,#623,.T.);
#780=ORIENTED_EDGE('',*,*,#624,.F.);
#781=ORIENTED_EDGE('',*,*,#625,.T.);
#782=ORIENTED_EDGE('',*,*,#586,.T.);
#783=ORIENTED_EDGE('',*,*,#626,.T.);
#784=ORIENTED_EDGE('',*,*,#627,.T.);
#785=ORIENTED_EDGE('',*,*,#628,.T.);
#786=ORIENTED_EDGE('',*,*,#628,.F.);
#787=ORIENTED_EDGE('',*,*,#629,.F.);
#788=ORIENTED_EDGE('',*,*,#630,.F.);
#789=ORIENTED_EDGE('',*,*,#587,.F.);
#790=ORIENTED_EDGE('',*,*,#580,.F.);
#791=ORIENTED_EDGE('',*,*,#584,.T.);
#792=ORIENTED_EDGE('',*,*,#631,.F.);
#793=ORIENTED_EDGE('',*,*,#632,.T.);
#794=ORIENTED_EDGE('',*,*,#633,.F.);
#795=ORIENTED_EDGE('',*,*,#634,.T.);
#796=ORIENTED_EDGE('',*,*,#635,.F.);
#797=ORIENTED_EDGE('',*,*,#636,.T.);
#798=ORIENTED_EDGE('',*,*,#637,.F.);
#799=ORIENTED_EDGE('',*,*,#638,.T.);
#800=ORIENTED_EDGE('',*,*,#639,.F.);
#801=ORIENTED_EDGE('',*,*,#640,.T.);
#802=ORIENTED_EDGE('',*,*,#641,.F.);
#803=ORIENTED_EDGE('',*,*,#629,.T.);
#804=ORIENTED_EDGE('',*,*,#627,.F.);
#805=ORIENTED_EDGE('',*,*,#642,.T.);
#806=ORIENTED_EDGE('',*,*,#643,.F.);
#807=ORIENTED_EDGE('',*,*,#644,.F.);
#808=ORIENTED_EDGE('',*,*,#645,.F.);
#809=ORIENTED_EDGE('',*,*,#646,.F.);
#810=ORIENTED_EDGE('',*,*,#647,.F.);
#811=ORIENTED_EDGE('',*,*,#648,.F.);
#812=ORIENTED_EDGE('',*,*,#649,.F.);
#813=ORIENTED_EDGE('',*,*,#650,.F.);
#814=ORIENTED_EDGE('',*,*,#651,.F.);
#815=ORIENTED_EDGE('',*,*,#652,.F.);
#816=ORIENTED_EDGE('',*,*,#653,.F.);
#817=ORIENTED_EDGE('',*,*,#654,.F.);
#818=ORIENTED_EDGE('',*,*,#655,.F.);
#819=ORIENTED_EDGE('',*,*,#656,.F.);
#820=ORIENTED_EDGE('',*,*,#657,.F.);
#821=ORIENTED_EDGE('',*,*,#658,.F.);
#822=ORIENTED_EDGE('',*,*,#659,.F.);
#823=ORIENTED_EDGE('',*,*,#660,.F.);
#824=ORIENTED_EDGE('',*,*,#661,.F.);
#825=ORIENTED_EDGE('',*,*,#662,.F.);
#826=ORIENTED_EDGE('',*,*,#663,.F.);
#827=ORIENTED_EDGE('',*,*,#664,.F.);
#828=ORIENTED_EDGE('',*,*,#665,.F.);
#829=ORIENTED_EDGE('',*,*,#666,.F.);
#830=ORIENTED_EDGE('',*,*,#667,.F.);
#831=ORIENTED_EDGE('',*,*,#668,.F.);
#832=ORIENTED_EDGE('',*,*,#669,.F.);
#833=ORIENTED_EDGE('',*,*,#641,.T.);
#834=ORIENTED_EDGE('',*,*,#670,.T.);
#835=ORIENTED_EDGE('',*,*,#588,.T.);
#836=ORIENTED_EDGE('',*,*,#630,.T.);
#837=ORIENTED_EDGE('',*,*,#670,.F.);
#838=ORIENTED_EDGE('',*,*,#640,.F.);
#839=ORIENTED_EDGE('',*,*,#671,.F.);
#840=ORIENTED_EDGE('',*,*,#589,.F.);
#841=ORIENTED_EDGE('',*,*,#590,.T.);
#842=ORIENTED_EDGE('',*,*,#671,.T.);
#843=ORIENTED_EDGE('',*,*,#639,.T.);
#844=ORIENTED_EDGE('',*,*,#672,.T.);
#845=ORIENTED_EDGE('',*,*,#592,.T.);
#846=ORIENTED_EDGE('',*,*,#673,.T.);
#847=ORIENTED_EDGE('',*,*,#637,.T.);
#848=ORIENTED_EDGE('',*,*,#674,.T.);
#849=ORIENTED_EDGE('',*,*,#674,.F.);
#850=ORIENTED_EDGE('',*,*,#636,.F.);
#851=ORIENTED_EDGE('',*,*,#675,.F.);
#852=ORIENTED_EDGE('',*,*,#593,.F.);
#853=ORIENTED_EDGE('',*,*,#649,.T.);
#854=ORIENTED_EDGE('',*,*,#676,.T.);
#855=ORIENTED_EDGE('',*,*,#620,.T.);
#856=ORIENTED_EDGE('',*,*,#677,.T.);
#857=ORIENTED_EDGE('',*,*,#676,.F.);
#858=ORIENTED_EDGE('',*,*,#648,.T.);
#859=ORIENTED_EDGE('',*,*,#678,.F.);
#860=ORIENTED_EDGE('',*,*,#621,.F.);
#861=ORIENTED_EDGE('',*,*,#647,.T.);
#862=ORIENTED_EDGE('',*,*,#679,.T.);
#863=ORIENTED_EDGE('',*,*,#622,.T.);
#864=ORIENTED_EDGE('',*,*,#678,.T.);
#865=ORIENTED_EDGE('',*,*,#679,.F.);
#866=ORIENTED_EDGE('',*,*,#646,.T.);
#867=ORIENTED_EDGE('',*,*,#680,.F.);
#868=ORIENTED_EDGE('',*,*,#623,.F.);
#869=ORIENTED_EDGE('',*,*,#645,.T.);
#870=ORIENTED_EDGE('',*,*,#681,.T.);
#871=ORIENTED_EDGE('',*,*,#624,.T.);
#872=ORIENTED_EDGE('',*,*,#680,.T.);
#873=ORIENTED_EDGE('',*,*,#681,.F.);
#874=ORIENTED_EDGE('',*,*,#644,.T.);
#875=ORIENTED_EDGE('',*,*,#682,.F.);
#876=ORIENTED_EDGE('',*,*,#625,.F.);
#877=ORIENTED_EDGE('',*,*,#651,.T.);
#878=ORIENTED_EDGE('',*,*,#683,.T.);
#879=ORIENTED_EDGE('',*,*,#618,.T.);
#880=ORIENTED_EDGE('',*,*,#684,.T.);
#881=ORIENTED_EDGE('',*,*,#677,.F.);
#882=ORIENTED_EDGE('',*,*,#619,.F.);
#883=ORIENTED_EDGE('',*,*,#683,.F.);
#884=ORIENTED_EDGE('',*,*,#650,.T.);
#885=ORIENTED_EDGE('',*,*,#653,.T.);
#886=ORIENTED_EDGE('',*,*,#685,.T.);
#887=ORIENTED_EDGE('',*,*,#616,.T.);
#888=ORIENTED_EDGE('',*,*,#686,.T.);
#889=ORIENTED_EDGE('',*,*,#684,.F.);
#890=ORIENTED_EDGE('',*,*,#617,.F.);
#891=ORIENTED_EDGE('',*,*,#685,.F.);
#892=ORIENTED_EDGE('',*,*,#652,.T.);
#893=ORIENTED_EDGE('',*,*,#612,.T.);
#894=ORIENTED_EDGE('',*,*,#682,.T.);
#895=ORIENTED_EDGE('',*,*,#643,.T.);
#896=ORIENTED_EDGE('',*,*,#687,.T.);
#897=ORIENTED_EDGE('',*,*,#687,.F.);
#898=ORIENTED_EDGE('',*,*,#656,.T.);
#899=ORIENTED_EDGE('',*,*,#688,.F.);
#900=ORIENTED_EDGE('',*,*,#613,.F.);
#901=ORIENTED_EDGE('',*,*,#655,.T.);
#902=ORIENTED_EDGE('',*,*,#689,.T.);
#903=ORIENTED_EDGE('',*,*,#614,.T.);
#904=ORIENTED_EDGE('',*,*,#688,.T.);
#905=ORIENTED_EDGE('',*,*,#686,.F.);
#906=ORIENTED_EDGE('',*,*,#615,.F.);
#907=ORIENTED_EDGE('',*,*,#689,.F.);
#908=ORIENTED_EDGE('',*,*,#654,.T.);
#909=ORIENTED_EDGE('',*,*,#598,.T.);
#910=ORIENTED_EDGE('',*,*,#690,.T.);
#911=ORIENTED_EDGE('',*,*,#631,.T.);
#912=ORIENTED_EDGE('',*,*,#583,.T.);
#913=ORIENTED_EDGE('',*,*,#635,.T.);
#914=ORIENTED_EDGE('',*,*,#691,.T.);
#915=ORIENTED_EDGE('',*,*,#594,.T.);
#916=ORIENTED_EDGE('',*,*,#675,.T.);
#917=ORIENTED_EDGE('',*,*,#691,.F.);
#918=ORIENTED_EDGE('',*,*,#634,.F.);
#919=ORIENTED_EDGE('',*,*,#692,.F.);
#920=ORIENTED_EDGE('',*,*,#595,.F.);
#921=ORIENTED_EDGE('',*,*,#596,.T.);
#922=ORIENTED_EDGE('',*,*,#692,.T.);
#923=ORIENTED_EDGE('',*,*,#633,.T.);
#924=ORIENTED_EDGE('',*,*,#693,.T.);
#925=ORIENTED_EDGE('',*,*,#694,.F.);
#926=ORIENTED_EDGE('',*,*,#695,.T.);
#927=ORIENTED_EDGE('',*,*,#607,.F.);
#928=ORIENTED_EDGE('',*,*,#695,.F.);
#929=ORIENTED_EDGE('',*,*,#696,.F.);
#930=ORIENTED_EDGE('',*,*,#697,.T.);
#931=ORIENTED_EDGE('',*,*,#669,.T.);
#932=ORIENTED_EDGE('',*,*,#697,.F.);
#933=ORIENTED_EDGE('',*,*,#694,.T.);
#934=ORIENTED_EDGE('',*,*,#696,.T.);
#935=ORIENTED_EDGE('',*,*,#698,.F.);
#936=ORIENTED_EDGE('',*,*,#699,.T.);
#937=ORIENTED_EDGE('',*,*,#605,.F.);
#938=ORIENTED_EDGE('',*,*,#699,.F.);
#939=ORIENTED_EDGE('',*,*,#700,.F.);
#940=ORIENTED_EDGE('',*,*,#701,.T.);
#941=ORIENTED_EDGE('',*,*,#668,.T.);
#942=ORIENTED_EDGE('',*,*,#701,.F.);
#943=ORIENTED_EDGE('',*,*,#698,.T.);
#944=ORIENTED_EDGE('',*,*,#700,.T.);
#945=ORIENTED_EDGE('',*,*,#702,.F.);
#946=ORIENTED_EDGE('',*,*,#703,.T.);
#947=ORIENTED_EDGE('',*,*,#604,.F.);
#948=ORIENTED_EDGE('',*,*,#703,.F.);
#949=ORIENTED_EDGE('',*,*,#704,.F.);
#950=ORIENTED_EDGE('',*,*,#705,.T.);
#951=ORIENTED_EDGE('',*,*,#667,.T.);
#952=ORIENTED_EDGE('',*,*,#705,.F.);
#953=ORIENTED_EDGE('',*,*,#702,.T.);
#954=ORIENTED_EDGE('',*,*,#704,.T.);
#955=ORIENTED_EDGE('',*,*,#706,.F.);
#956=ORIENTED_EDGE('',*,*,#707,.T.);
#957=ORIENTED_EDGE('',*,*,#609,.F.);
#958=ORIENTED_EDGE('',*,*,#707,.F.);
#959=ORIENTED_EDGE('',*,*,#708,.F.);
#960=ORIENTED_EDGE('',*,*,#709,.T.);
#961=ORIENTED_EDGE('',*,*,#666,.T.);
#962=ORIENTED_EDGE('',*,*,#709,.F.);
#963=ORIENTED_EDGE('',*,*,#706,.T.);
#964=ORIENTED_EDGE('',*,*,#708,.T.);
#965=ORIENTED_EDGE('',*,*,#710,.F.);
#966=ORIENTED_EDGE('',*,*,#711,.T.);
#967=ORIENTED_EDGE('',*,*,#601,.F.);
#968=ORIENTED_EDGE('',*,*,#711,.F.);
#969=ORIENTED_EDGE('',*,*,#712,.F.);
#970=ORIENTED_EDGE('',*,*,#713,.T.);
#971=ORIENTED_EDGE('',*,*,#665,.T.);
#972=ORIENTED_EDGE('',*,*,#713,.F.);
#973=ORIENTED_EDGE('',*,*,#710,.T.);
#974=ORIENTED_EDGE('',*,*,#712,.T.);
#975=ORIENTED_EDGE('',*,*,#714,.F.);
#976=ORIENTED_EDGE('',*,*,#715,.T.);
#977=ORIENTED_EDGE('',*,*,#610,.F.);
#978=ORIENTED_EDGE('',*,*,#715,.F.);
#979=ORIENTED_EDGE('',*,*,#716,.F.);
#980=ORIENTED_EDGE('',*,*,#717,.T.);
#981=ORIENTED_EDGE('',*,*,#664,.T.);
#982=ORIENTED_EDGE('',*,*,#717,.F.);
#983=ORIENTED_EDGE('',*,*,#714,.T.);
#984=ORIENTED_EDGE('',*,*,#716,.T.);
#985=ORIENTED_EDGE('',*,*,#718,.F.);
#986=ORIENTED_EDGE('',*,*,#719,.T.);
#987=ORIENTED_EDGE('',*,*,#599,.F.);
#988=ORIENTED_EDGE('',*,*,#719,.F.);
#989=ORIENTED_EDGE('',*,*,#720,.F.);
#990=ORIENTED_EDGE('',*,*,#721,.T.);
#991=ORIENTED_EDGE('',*,*,#663,.T.);
#992=ORIENTED_EDGE('',*,*,#721,.F.);
#993=ORIENTED_EDGE('',*,*,#718,.T.);
#994=ORIENTED_EDGE('',*,*,#720,.T.);
#995=ORIENTED_EDGE('',*,*,#722,.F.);
#996=ORIENTED_EDGE('',*,*,#723,.T.);
#997=ORIENTED_EDGE('',*,*,#600,.F.);
#998=ORIENTED_EDGE('',*,*,#723,.F.);
#999=ORIENTED_EDGE('',*,*,#724,.F.);
#1000=ORIENTED_EDGE('',*,*,#725,.T.);
#1001=ORIENTED_EDGE('',*,*,#662,.T.);
#1002=ORIENTED_EDGE('',*,*,#725,.F.);
#1003=ORIENTED_EDGE('',*,*,#722,.T.);
#1004=ORIENTED_EDGE('',*,*,#724,.T.);
#1005=ORIENTED_EDGE('',*,*,#602,.F.);
#1006=ORIENTED_EDGE('',*,*,#726,.T.);
#1007=ORIENTED_EDGE('',*,*,#657,.T.);
#1008=ORIENTED_EDGE('',*,*,#726,.F.);
#1009=ORIENTED_EDGE('',*,*,#603,.F.);
#1010=ORIENTED_EDGE('',*,*,#727,.T.);
#1011=ORIENTED_EDGE('',*,*,#658,.T.);
#1012=ORIENTED_EDGE('',*,*,#727,.F.);
#1013=ORIENTED_EDGE('',*,*,#606,.F.);
#1014=ORIENTED_EDGE('',*,*,#728,.T.);
#1015=ORIENTED_EDGE('',*,*,#659,.T.);
#1016=ORIENTED_EDGE('',*,*,#728,.F.);
#1017=ORIENTED_EDGE('',*,*,#608,.F.);
#1018=ORIENTED_EDGE('',*,*,#729,.T.);
#1019=ORIENTED_EDGE('',*,*,#660,.T.);
#1020=ORIENTED_EDGE('',*,*,#729,.F.);
#1021=ORIENTED_EDGE('',*,*,#611,.F.);
#1022=ORIENTED_EDGE('',*,*,#730,.T.);
#1023=ORIENTED_EDGE('',*,*,#661,.T.);
#1024=ORIENTED_EDGE('',*,*,#730,.F.);
#1025=ORIENTED_EDGE('',*,*,#581,.F.);
#1026=ORIENTED_EDGE('',*,*,#642,.F.);
#1027=ORIENTED_EDGE('',*,*,#626,.F.);
#1028=ORIENTED_EDGE('',*,*,#585,.F.);
#1029=ORIENTED_EDGE('',*,*,#690,.F.);
#1030=ORIENTED_EDGE('',*,*,#597,.F.);
#1031=ORIENTED_EDGE('',*,*,#693,.F.);
#1032=ORIENTED_EDGE('',*,*,#632,.F.);
#1033=ORIENTED_EDGE('',*,*,#672,.F.);
#1034=ORIENTED_EDGE('',*,*,#638,.F.);
#1035=ORIENTED_EDGE('',*,*,#673,.F.);
#1036=ORIENTED_EDGE('',*,*,#591,.F.);
#1037=CYLINDRICAL_SURFACE('',#1149,5.);
#1038=CYLINDRICAL_SURFACE('',#1181,5.);
#1039=CYLINDRICAL_SURFACE('',#1211,5.);
#1040=CYLINDRICAL_SURFACE('',#1213,5.);
#1041=CYLINDRICAL_SURFACE('',#1214,5.);
#1042=CYLINDRICAL_SURFACE('',#1216,5.);
#1043=CYLINDRICAL_SURFACE('',#1218,5.);
#1044=CYLINDRICAL_SURFACE('',#1220,5.);
#1045=CYLINDRICAL_SURFACE('',#1222,5.);
#1046=CYLINDRICAL_SURFACE('',#1224,5.);
#1047=CYLINDRICAL_SURFACE('',#1226,5.);
#1048=CYLINDRICAL_SURFACE('',#1228,5.);
#1049=CYLINDRICAL_SURFACE('',#1230,5.);
#1050=CYLINDRICAL_SURFACE('',#1231,5.);
#1051=CYLINDRICAL_SURFACE('',#1233,5.);
#1052=CYLINDRICAL_SURFACE('',#1234,3.);
#1053=CYLINDRICAL_SURFACE('',#1236,1.75);
#1054=CYLINDRICAL_SURFACE('',#1239,3.);
#1055=CYLINDRICAL_SURFACE('',#1241,1.75);
#1056=CYLINDRICAL_SURFACE('',#1244,3.);
#1057=CYLINDRICAL_SURFACE('',#1246,1.75);
#1058=CYLINDRICAL_SURFACE('',#1249,3.);
#1059=CYLINDRICAL_SURFACE('',#1251,1.75);
#1060=CYLINDRICAL_SURFACE('',#1254,3.00000000000001);
#1061=CYLINDRICAL_SURFACE('',#1256,1.75);
#1062=CYLINDRICAL_SURFACE('',#1259,3.00000000000001);
#1063=CYLINDRICAL_SURFACE('',#1261,1.75);
#1064=CYLINDRICAL_SURFACE('',#1264,3.00000000000002);
#1065=CYLINDRICAL_SURFACE('',#1266,1.75);
#1066=CYLINDRICAL_SURFACE('',#1269,3.);
#1067=CYLINDRICAL_SURFACE('',#1271,1.75);
#1068=CYLINDRICAL_SURFACE('',#1274,1.25);
#1069=CYLINDRICAL_SURFACE('',#1275,1.25);
#1070=CYLINDRICAL_SURFACE('',#1276,1.25);
#1071=CYLINDRICAL_SURFACE('',#1277,1.25);
#1072=CYLINDRICAL_SURFACE('',#1278,1.25);
#1073=ADVANCED_FACE('',(#84),#1037,.T.);
#1074=ADVANCED_FACE('',(#85),#59,.T.);
#1075=ADVANCED_FACE('',(#86,#23,#24,#25,#26,#27,#28,#29,#30,#31,#32,#33,
#34,#35,#36),#60,.T.);
#1076=ADVANCED_FACE('',(#87),#1038,.T.);
#1077=ADVANCED_FACE('',(#88),#61,.T.);
#1078=ADVANCED_FACE('',(#89,#37,#38,#39,#40,#41,#42,#43,#44,#45,#46,#47,
#48,#49,#50),#62,.F.);
#1079=ADVANCED_FACE('',(#90),#1039,.F.);
#1080=ADVANCED_FACE('',(#91),#63,.T.);
#1081=ADVANCED_FACE('',(#92),#1040,.T.);
#1082=ADVANCED_FACE('',(#93),#1041,.T.);
#1083=ADVANCED_FACE('',(#94),#64,.T.);
#1084=ADVANCED_FACE('',(#95),#1042,.F.);
#1085=ADVANCED_FACE('',(#96),#65,.T.);
#1086=ADVANCED_FACE('',(#97),#1043,.F.);
#1087=ADVANCED_FACE('',(#98),#66,.T.);
#1088=ADVANCED_FACE('',(#99),#1044,.F.);
#1089=ADVANCED_FACE('',(#100),#67,.T.);
#1090=ADVANCED_FACE('',(#101),#1045,.F.);
#1091=ADVANCED_FACE('',(#102),#68,.T.);
#1092=ADVANCED_FACE('',(#103),#1046,.F.);
#1093=ADVANCED_FACE('',(#104),#69,.T.);
#1094=ADVANCED_FACE('',(#105),#1047,.T.);
#1095=ADVANCED_FACE('',(#106),#70,.T.);
#1096=ADVANCED_FACE('',(#107),#1048,.F.);
#1097=ADVANCED_FACE('',(#108),#71,.T.);
#1098=ADVANCED_FACE('',(#109),#1049,.T.);
#1099=ADVANCED_FACE('',(#110),#1050,.F.);
#1100=ADVANCED_FACE('',(#111),#72,.T.);
#1101=ADVANCED_FACE('',(#112),#1051,.T.);
#1102=ADVANCED_FACE('',(#113),#1052,.T.);
#1103=ADVANCED_FACE('',(#114),#1053,.F.);
#1104=ADVANCED_FACE('',(#115,#51),#73,.T.);
#1105=ADVANCED_FACE('',(#116),#1054,.T.);
#1106=ADVANCED_FACE('',(#117),#1055,.F.);
#1107=ADVANCED_FACE('',(#118,#52),#74,.T.);
#1108=ADVANCED_FACE('',(#119),#1056,.T.);
#1109=ADVANCED_FACE('',(#120),#1057,.F.);
#1110=ADVANCED_FACE('',(#121,#53),#75,.T.);
#1111=ADVANCED_FACE('',(#122),#1058,.T.);
#1112=ADVANCED_FACE('',(#123),#1059,.F.);
#1113=ADVANCED_FACE('',(#124,#54),#76,.T.);
#1114=ADVANCED_FACE('',(#125),#1060,.T.);
#1115=ADVANCED_FACE('',(#126),#1061,.F.);
#1116=ADVANCED_FACE('',(#127,#55),#77,.T.);
#1117=ADVANCED_FACE('',(#128),#1062,.T.);
#1118=ADVANCED_FACE('',(#129),#1063,.F.);
#1119=ADVANCED_FACE('',(#130,#56),#78,.T.);
#1120=ADVANCED_FACE('',(#131),#1064,.T.);
#1121=ADVANCED_FACE('',(#132),#1065,.F.);
#1122=ADVANCED_FACE('',(#133,#57),#79,.T.);
#1123=ADVANCED_FACE('',(#134),#1066,.T.);
#1124=ADVANCED_FACE('',(#135),#1067,.F.);
#1125=ADVANCED_FACE('',(#136,#58),#80,.T.);
#1126=ADVANCED_FACE('',(#137),#1068,.F.);
#1127=ADVANCED_FACE('',(#138),#1069,.F.);
#1128=ADVANCED_FACE('',(#139),#1070,.F.);
#1129=ADVANCED_FACE('',(#140),#1071,.F.);
#1130=ADVANCED_FACE('',(#141),#1072,.F.);
#1131=ADVANCED_FACE('',(#142),#81,.T.);
#1132=ADVANCED_FACE('',(#143),#82,.T.);
#1133=ADVANCED_FACE('',(#144),#83,.T.);
#1134=CLOSED_SHELL('',(#1073,#1074,#1075,#1076,#1077,#1078,#1079,#1080,
#1081,#1082,#1083,#1084,#1085,#1086,#1087,#1088,#1089,#1090,#1091,#1092,
#1093,#1094,#1095,#1096,#1097,#1098,#1099,#1100,#1101,#1102,#1103,#1104,
#1105,#1106,#1107,#1108,#1109,#1110,#1111,#1112,#1113,#1114,#1115,#1116,
#1117,#1118,#1119,#1120,#1121,#1122,#1123,#1124,#1125,#1126,#1127,#1128,
#1129,#1130,#1131,#1132,#1133));
#1135=DERIVED_UNIT_ELEMENT(#1137,1.);
#1136=DERIVED_UNIT_ELEMENT(#1966,-3.);
#1137=(
MASS_UNIT()
NAMED_UNIT(*)
SI_UNIT(.KILO.,.GRAM.)
);
#1138=DERIVED_UNIT((#1135,#1136));
#1139=MEASURE_REPRESENTATION_ITEM('density measure',
POSITIVE_RATIO_MEASURE(7850.),#1138);
#1140=PROPERTY_DEFINITION_REPRESENTATION(#1145,#1142);
#1141=PROPERTY_DEFINITION_REPRESENTATION(#1146,#1143);
#1142=REPRESENTATION('material name',(#1144),#1963);
#1143=REPRESENTATION('density',(#1139),#1963);
#1144=DESCRIPTIVE_REPRESENTATION_ITEM('Steel','Steel');
#1145=PROPERTY_DEFINITION('material property','material name',#1978);
#1146=PROPERTY_DEFINITION('material property','density of part',#1978);
#1147=AXIS2_PLACEMENT_3D('',#1639,#1284,#1285);
#1148=AXIS2_PLACEMENT_3D('',#1640,#1286,#1287);
#1149=AXIS2_PLACEMENT_3D('',#1641,#1288,#1289);
#1150=AXIS2_PLACEMENT_3D('',#1644,#1290,#1291);
#1151=AXIS2_PLACEMENT_3D('',#1648,#1293,#1294);
#1152=AXIS2_PLACEMENT_3D('',#1650,#1296,#1297);
#1153=AXIS2_PLACEMENT_3D('',#1656,#1301,#1302);
#1154=AXIS2_PLACEMENT_3D('',#1660,#1304,#1305);
#1155=AXIS2_PLACEMENT_3D('',#1664,#1307,#1308);
#1156=AXIS2_PLACEMENT_3D('',#1668,#1310,#1311);
#1157=AXIS2_PLACEMENT_3D('',#1672,#1313,#1314);
#1158=AXIS2_PLACEMENT_3D('',#1676,#1316,#1317);
#1159=AXIS2_PLACEMENT_3D('',#1680,#1319,#1320);
#1160=AXIS2_PLACEMENT_3D('',#1683,#1322,#1323);
#1161=AXIS2_PLACEMENT_3D('',#1685,#1324,#1325);
#1162=AXIS2_PLACEMENT_3D('',#1687,#1326,#1327);
#1163=AXIS2_PLACEMENT_3D('',#1689,#1328,#1329);
#1164=AXIS2_PLACEMENT_3D('',#1691,#1330,#1331);
#1165=AXIS2_PLACEMENT_3D('',#1693,#1332,#1333);
#1166=AXIS2_PLACEMENT_3D('',#1695,#1334,#1335);
#1167=AXIS2_PLACEMENT_3D('',#1697,#1336,#1337);
#1168=AXIS2_PLACEMENT_3D('',#1699,#1338,#1339);
#1169=AXIS2_PLACEMENT_3D('',#1701,#1340,#1341);
#1170=AXIS2_PLACEMENT_3D('',#1703,#1342,#1343);
#1171=AXIS2_PLACEMENT_3D('',#1705,#1344,#1345);
#1172=AXIS2_PLACEMENT_3D('',#1707,#1346,#1347);
#1173=AXIS2_PLACEMENT_3D('',#1709,#1348,#1349);
#1174=AXIS2_PLACEMENT_3D('',#1712,#1350,#1351);
#1175=AXIS2_PLACEMENT_3D('',#1716,#1353,#1354);
#1176=AXIS2_PLACEMENT_3D('',#1720,#1356,#1357);
#1177=AXIS2_PLACEMENT_3D('',#1724,#1359,#1360);
#1178=AXIS2_PLACEMENT_3D('',#1728,#1362,#1363);
#1179=AXIS2_PLACEMENT_3D('',#1732,#1365,#1366);
#1180=AXIS2_PLACEMENT_3D('',#1736,#1368,#1369);
#1181=AXIS2_PLACEMENT_3D('',#1738,#1371,#1372);
#1182=AXIS2_PLACEMENT_3D('',#1742,#1374,#1375);
#1183=AXIS2_PLACEMENT_3D('',#1744,#1377,#1378);
#1184=AXIS2_PLACEMENT_3D('',#1748,#1381,#1382);
#1185=AXIS2_PLACEMENT_3D('',#1750,#1383,#1384);
#1186=AXIS2_PLACEMENT_3D('',#1754,#1386,#1387);
#1187=AXIS2_PLACEMENT_3D('',#1758,#1389,#1390);
#1188=AXIS2_PLACEMENT_3D('',#1762,#1392,#1393);
#1189=AXIS2_PLACEMENT_3D('',#1766,#1395,#1396);
#1190=AXIS2_PLACEMENT_3D('',#1769,#1398,#1399);
#1191=AXIS2_PLACEMENT_3D('',#1773,#1401,#1402);
#1192=AXIS2_PLACEMENT_3D('',#1777,#1404,#1405);
#1193=AXIS2_PLACEMENT_3D('',#1781,#1407,#1408);
#1194=AXIS2_PLACEMENT_3D('',#1785,#1410,#1411);
#1195=AXIS2_PLACEMENT_3D('',#1789,#1413,#1414);
#1196=AXIS2_PLACEMENT_3D('',#1793,#1416,#1417);
#1197=AXIS2_PLACEMENT_3D('',#1797,#1419,#1420);
#1198=AXIS2_PLACEMENT_3D('',#1800,#1422,#1423);
#1199=AXIS2_PLACEMENT_3D('',#1802,#1424,#1425);
#1200=AXIS2_PLACEMENT_3D('',#1804,#1426,#1427);
#1201=AXIS2_PLACEMENT_3D('',#1806,#1428,#1429);
#1202=AXIS2_PLACEMENT_3D('',#1808,#1430,#1431);
#1203=AXIS2_PLACEMENT_3D('',#1810,#1432,#1433);
#1204=AXIS2_PLACEMENT_3D('',#1812,#1434,#1435);
#1205=AXIS2_PLACEMENT_3D('',#1814,#1436,#1437);
#1206=AXIS2_PLACEMENT_3D('',#1816,#1438,#1439);
#1207=AXIS2_PLACEMENT_3D('',#1818,#1440,#1441);
#1208=AXIS2_PLACEMENT_3D('',#1820,#1442,#1443);
#1209=AXIS2_PLACEMENT_3D('',#1822,#1444,#1445);
#1210=AXIS2_PLACEMENT_3D('',#1824,#1446,#1447);
#1211=AXIS2_PLACEMENT_3D('',#1825,#1448,#1449);
#1212=AXIS2_PLACEMENT_3D('',#1827,#1451,#1452);
#1213=AXIS2_PLACEMENT_3D('',#1829,#1454,#1455);
#1214=AXIS2_PLACEMENT_3D('',#1831,#1457,#1458);
#1215=AXIS2_PLACEMENT_3D('',#1834,#1461,#1462);
#1216=AXIS2_PLACEMENT_3D('',#1836,#1464,#1465);
#1217=AXIS2_PLACEMENT_3D('',#1839,#1468,#1469);
#1218=AXIS2_PLACEMENT_3D('',#1841,#1471,#1472);
#1219=AXIS2_PLACEMENT_3D('',#1843,#1474,#1475);
#1220=AXIS2_PLACEMENT_3D('',#1845,#1477,#1478);
#1221=AXIS2_PLACEMENT_3D('',#1847,#1480,#1481);
#1222=AXIS2_PLACEMENT_3D('',#1849,#1483,#1484);
#1223=AXIS2_PLACEMENT_3D('',#1852,#1487,#1488);
#1224=AXIS2_PLACEMENT_3D('',#1853,#1489,#1490);
#1225=AXIS2_PLACEMENT_3D('',#1856,#1493,#1494);
#1226=AXIS2_PLACEMENT_3D('',#1857,#1495,#1496);
#1227=AXIS2_PLACEMENT_3D('',#1859,#1498,#1499);
#1228=AXIS2_PLACEMENT_3D('',#1861,#1501,#1502);
#1229=AXIS2_PLACEMENT_3D('',#1863,#1504,#1505);
#1230=AXIS2_PLACEMENT_3D('',#1864,#1506,#1507);
#1231=AXIS2_PLACEMENT_3D('',#1866,#1509,#1510);
#1232=AXIS2_PLACEMENT_3D('',#1868,#1512,#1513);
#1233=AXIS2_PLACEMENT_3D('',#1870,#1515,#1516);
#1234=AXIS2_PLACEMENT_3D('',#1872,#1518,#1519);
#1235=AXIS2_PLACEMENT_3D('',#1874,#1520,#1521);
#1236=AXIS2_PLACEMENT_3D('',#1876,#1523,#1524);
#1237=AXIS2_PLACEMENT_3D('',#1878,#1525,#1526);
#1238=AXIS2_PLACEMENT_3D('',#1880,#1528,#1529);
#1239=AXIS2_PLACEMENT_3D('',#1881,#1530,#1531);
#1240=AXIS2_PLACEMENT_3D('',#1883,#1532,#1533);
#1241=AXIS2_PLACEMENT_3D('',#1885,#1535,#1536);
#1242=AXIS2_PLACEMENT_3D('',#1887,#1537,#1538);
#1243=AXIS2_PLACEMENT_3D('',#1889,#1540,#1541);
#1244=AXIS2_PLACEMENT_3D('',#1890,#1542,#1543);
#1245=AXIS2_PLACEMENT_3D('',#1892,#1544,#1545);
#1246=AXIS2_PLACEMENT_3D('',#1894,#1547,#1548);
#1247=AXIS2_PLACEMENT_3D('',#1896,#1549,#1550);
#1248=AXIS2_PLACEMENT_3D('',#1898,#1552,#1553);
#1249=AXIS2_PLACEMENT_3D('',#1899,#1554,#1555);
#1250=AXIS2_PLACEMENT_3D('',#1901,#1556,#1557);
#1251=AXIS2_PLACEMENT_3D('',#1903,#1559,#1560);
#1252=AXIS2_PLACEMENT_3D('',#1905,#1561,#1562);
#1253=AXIS2_PLACEMENT_3D('',#1907,#1564,#1565);
#1254=AXIS2_PLACEMENT_3D('',#1908,#1566,#1567);
#1255=AXIS2_PLACEMENT_3D('',#1910,#1568,#1569);
#1256=AXIS2_PLACEMENT_3D('',#1912,#1571,#1572);
#1257=AXIS2_PLACEMENT_3D('',#1914,#1573,#1574);
#1258=AXIS2_PLACEMENT_3D('',#1916,#1576,#1577);
#1259=AXIS2_PLACEMENT_3D('',#1917,#1578,#1579);
#1260=AXIS2_PLACEMENT_3D('',#1919,#1580,#1581);
#1261=AXIS2_PLACEMENT_3D('',#1921,#1583,#1584);
#1262=AXIS2_PLACEMENT_3D('',#1923,#1585,#1586);
#1263=AXIS2_PLACEMENT_3D('',#1925,#1588,#1589);
#1264=AXIS2_PLACEMENT_3D('',#1926,#1590,#1591);
#1265=AXIS2_PLACEMENT_3D('',#1928,#1592,#1593);
#1266=AXIS2_PLACEMENT_3D('',#1930,#1595,#1596);
#1267=AXIS2_PLACEMENT_3D('',#1932,#1597,#1598);
#1268=AXIS2_PLACEMENT_3D('',#1934,#1600,#1601);
#1269=AXIS2_PLACEMENT_3D('',#1935,#1602,#1603);
#1270=AXIS2_PLACEMENT_3D('',#1937,#1604,#1605);
#1271=AXIS2_PLACEMENT_3D('',#1939,#1607,#1608);
#1272=AXIS2_PLACEMENT_3D('',#1941,#1609,#1610);
#1273=AXIS2_PLACEMENT_3D('',#1943,#1612,#1613);
#1274=AXIS2_PLACEMENT_3D('',#1944,#1614,#1615);
#1275=AXIS2_PLACEMENT_3D('',#1946,#1617,#1618);
#1276=AXIS2_PLACEMENT_3D('',#1948,#1620,#1621);
#1277=AXIS2_PLACEMENT_3D('',#1950,#1623,#1624);
#1278=AXIS2_PLACEMENT_3D('',#1952,#1626,#1627);
#1279=AXIS2_PLACEMENT_3D('',#1954,#1629,#1630);
#1280=AXIS2_PLACEMENT_3D('',#1955,#1631,#1632);
#1281=AXIS2_PLACEMENT_3D('',#1956,#1633,#1634);
#1282=AXIS2_PLACEMENT_3D('',#1957,#1635,#1636);
#1283=AXIS2_PLACEMENT_3D('',#1958,#1637,#1638);
#1284=DIRECTION('axis',(0.,0.,1.));
#1285=DIRECTION('refdir',(1.,0.,0.));
#1286=DIRECTION('axis',(0.,0.,1.));
#1287=DIRECTION('refdir',(1.,0.,0.));
#1288=DIRECTION('center_axis',(1.,0.,0.));
#1289=DIRECTION('ref_axis',(0.,-0.707106781186547,-0.707106781186547));
#1290=DIRECTION('center_axis',(-1.,0.,0.));
#1291=DIRECTION('ref_axis',(0.,-0.707106781186547,-0.707106781186547));
#1292=DIRECTION('',(-1.,0.,0.));
#1293=DIRECTION('center_axis',(1.,0.,0.));
#1294=DIRECTION('ref_axis',(0.,-0.707106781186547,-0.707106781186547));
#1295=DIRECTION('',(1.,0.,0.));
#1296=DIRECTION('center_axis',(0.,-1.,0.));
#1297=DIRECTION('ref_axis',(0.,0.,-1.));
#1298=DIRECTION('',(0.,0.,-1.));
#1299=DIRECTION('',(1.,0.,0.));
#1300=DIRECTION('',(0.,0.,1.));
#1301=DIRECTION('center_axis',(1.,0.,0.));
#1302=DIRECTION('ref_axis',(0.,1.,0.));
#1303=DIRECTION('',(0.,1.,0.));
#1304=DIRECTION('center_axis',(-1.,0.,0.));
#1305=DIRECTION('ref_axis',(0.,0.707106781186547,-0.707106781186547));
#1306=DIRECTION('',(0.,0.,1.));
#1307=DIRECTION('center_axis',(1.,0.,0.));
#1308=DIRECTION('ref_axis',(0.,-0.707106781186547,0.707106781186547));
#1309=DIRECTION('',(0.,1.,0.));
#1310=DIRECTION('center_axis',(-1.,0.,0.));
#1311=DIRECTION('ref_axis',(0.,0.707106781186547,-0.707106781186547));
#1312=DIRECTION('',(0.,0.,1.));
#1313=DIRECTION('center_axis',(-1.,0.,0.));
#1314=DIRECTION('ref_axis',(0.,0.707106781186547,0.707106781186547));
#1315=DIRECTION('',(0.,-1.,0.));
#1316=DIRECTION('center_axis',(1.,0.,0.));
#1317=DIRECTION('ref_axis',(0.,-0.707106781186547,-0.707106781186547));
#1318=DIRECTION('',(0.,0.,1.));
#1319=DIRECTION('center_axis',(-1.,0.,0.));
#1320=DIRECTION('ref_axis',(0.,0.707106781186547,0.707106781186547));
#1321=DIRECTION('',(0.,-1.,0.));
#1322=DIRECTION('center_axis',(-1.,0.,0.));
#1323=DIRECTION('ref_axis',(0.,-0.707106781186547,0.707106781186547));
#1324=DIRECTION('center_axis',(-1.,0.,0.));
#1325=DIRECTION('ref_axis',(0.,1.,0.));
#1326=DIRECTION('center_axis',(-1.,0.,0.));
#1327=DIRECTION('ref_axis',(0.,1.,0.));
#1328=DIRECTION('center_axis',(-1.,0.,0.));
#1329=DIRECTION('ref_axis',(0.,1.,0.));
#1330=DIRECTION('center_axis',(-1.,0.,0.));
#1331=DIRECTION('ref_axis',(0.,1.,0.));
#1332=DIRECTION('center_axis',(-1.,0.,0.));
#1333=DIRECTION('ref_axis',(0.,1.,0.));
#1334=DIRECTION('center_axis',(-1.,0.,0.));
#1335=DIRECTION('ref_axis',(0.,1.,0.));
#1336=DIRECTION('center_axis',(-1.,0.,0.));
#1337=DIRECTION('ref_axis',(0.,1.,0.));
#1338=DIRECTION('center_axis',(-1.,0.,0.));
#1339=DIRECTION('ref_axis',(0.,1.,0.));
#1340=DIRECTION('center_axis',(-1.,0.,0.));
#1341=DIRECTION('ref_axis',(0.,1.,0.));
#1342=DIRECTION('center_axis',(-1.,0.,0.));
#1343=DIRECTION('ref_axis',(0.,1.,0.));
#1344=DIRECTION('center_axis',(-1.,0.,0.));
#1345=DIRECTION('ref_axis',(0.,1.,0.));
#1346=DIRECTION('center_axis',(-1.,0.,0.));
#1347=DIRECTION('ref_axis',(0.,1.,0.));
#1348=DIRECTION('center_axis',(-1.,0.,0.));
#1349=DIRECTION('ref_axis',(0.,1.,0.));
#1350=DIRECTION('center_axis',(-1.,0.,0.));
#1351=DIRECTION('ref_axis',(0.,0.707106781186547,-0.707106781186547));
#1352=DIRECTION('',(0.,-1.,0.));
#1353=DIRECTION('center_axis',(1.,0.,0.));
#1354=DIRECTION('ref_axis',(0.,-0.707106781186547,-0.707106781186547));
#1355=DIRECTION('',(0.,0.,1.));
#1356=DIRECTION('center_axis',(1.,0.,0.));
#1357=DIRECTION('ref_axis',(0.,-0.707106781186547,0.707106781186547));
#1358=DIRECTION('',(0.,1.,0.));
#1359=DIRECTION('center_axis',(1.,0.,0.));
#1360=DIRECTION('ref_axis',(0.,0.707106781186547,0.707106781186547));
#1361=DIRECTION('',(0.,0.,-1.));
#1362=DIRECTION('center_axis',(1.,0.,0.));
#1363=DIRECTION('ref_axis',(0.,0.707106781186547,-0.707106781186547));
#1364=DIRECTION('',(0.,-1.,0.));
#1365=DIRECTION('center_axis',(1.,0.,0.));
#1366=DIRECTION('ref_axis',(0.,-0.707106781186547,-0.707106781186547));
#1367=DIRECTION('',(0.,0.,1.));
#1368=DIRECTION('center_axis',(1.,0.,0.));
#1369=DIRECTION('ref_axis',(0.,-0.707106781186547,0.707106781186547));
#1370=DIRECTION('',(0.,1.,0.));
#1371=DIRECTION('center_axis',(1.,0.,0.));
#1372=DIRECTION('ref_axis',(0.,0.707106781186547,-0.707106781186547));
#1373=DIRECTION('',(-1.,0.,0.));
#1374=DIRECTION('center_axis',(1.,0.,0.));
#1375=DIRECTION('ref_axis',(0.,0.707106781186547,-0.707106781186547));
#1376=DIRECTION('',(1.,0.,0.));
#1377=DIRECTION('center_axis',(0.,1.,0.));
#1378=DIRECTION('ref_axis',(0.,0.,1.));
#1379=DIRECTION('',(0.,0.,-1.));
#1380=DIRECTION('',(-1.,0.,0.));
#1381=DIRECTION('center_axis',(1.,0.,0.));
#1382=DIRECTION('ref_axis',(0.,1.,0.));
#1383=DIRECTION('center_axis',(1.,0.,0.));
#1384=DIRECTION('ref_axis',(0.,-0.707106781186547,0.707106781186547));
#1385=DIRECTION('',(0.,1.,0.));
#1386=DIRECTION('center_axis',(1.,0.,0.));
#1387=DIRECTION('ref_axis',(0.,0.707106781186547,0.707106781186547));
#1388=DIRECTION('',(0.,0.,-1.));
#1389=DIRECTION('center_axis',(-1.,0.,0.));
#1390=DIRECTION('ref_axis',(0.,-0.707106781186547,-0.707106781186547));
#1391=DIRECTION('',(0.,1.,0.));
#1392=DIRECTION('center_axis',(1.,0.,0.));
#1393=DIRECTION('ref_axis',(0.,0.707106781186547,0.707106781186547));
#1394=DIRECTION('',(0.,0.,-1.));
#1395=DIRECTION('center_axis',(1.,0.,0.));
#1396=DIRECTION('ref_axis',(0.,0.707106781186547,-0.707106781186547));
#1397=DIRECTION('',(0.,-1.,0.));
#1398=DIRECTION('center_axis',(-1.,0.,0.));
#1399=DIRECTION('ref_axis',(0.,-0.707106781186547,0.707106781186547));
#1400=DIRECTION('',(0.,-1.,0.));
#1401=DIRECTION('center_axis',(1.,0.,0.));
#1402=DIRECTION('ref_axis',(0.,0.707106781186547,0.707106781186548));
#1403=DIRECTION('',(0.,1.,0.));
#1404=DIRECTION('center_axis',(-1.,0.,0.));
#1405=DIRECTION('ref_axis',(0.,-0.707106781186547,0.707106781186547));
#1406=DIRECTION('',(0.,0.,1.));
#1407=DIRECTION('center_axis',(-1.,0.,0.));
#1408=DIRECTION('ref_axis',(0.,-0.707106781186547,-0.707106781186547));
#1409=DIRECTION('',(0.,-1.,0.));
#1410=DIRECTION('center_axis',(-1.,0.,0.));
#1411=DIRECTION('ref_axis',(0.,0.707106781186547,-0.707106781186547));
#1412=DIRECTION('',(0.,0.,-1.));
#1413=DIRECTION('center_axis',(-1.,0.,0.));
#1414=DIRECTION('ref_axis',(0.,0.707106781186547,0.707106781186547));
#1415=DIRECTION('',(0.,1.,0.));
#1416=DIRECTION('center_axis',(-1.,0.,0.));
#1417=DIRECTION('ref_axis',(0.,-0.707106781186547,0.707106781186547));
#1418=DIRECTION('',(0.,0.,1.));
#1419=DIRECTION('center_axis',(-1.,0.,0.));
#1420=DIRECTION('ref_axis',(0.,-0.707106781186547,-0.707106781186547));
#1421=DIRECTION('',(0.,-1.,0.));
#1422=DIRECTION('center_axis',(-1.,0.,0.));
#1423=DIRECTION('ref_axis',(0.,1.,0.));
#1424=DIRECTION('center_axis',(-1.,0.,0.));
#1425=DIRECTION('ref_axis',(0.,1.,0.));
#1426=DIRECTION('center_axis',(-1.,0.,0.));
#1427=DIRECTION('ref_axis',(0.,1.,0.));
#1428=DIRECTION('center_axis',(-1.,0.,0.));
#1429=DIRECTION('ref_axis',(0.,1.,0.));
#1430=DIRECTION('center_axis',(-1.,0.,0.));
#1431=DIRECTION('ref_axis',(0.,1.,0.));
#1432=DIRECTION('center_axis',(-1.,0.,0.));
#1433=DIRECTION('ref_axis',(0.,1.,0.));
#1434=DIRECTION('center_axis',(-1.,0.,0.));
#1435=DIRECTION('ref_axis',(0.,1.,0.));
#1436=DIRECTION('center_axis',(-1.,0.,0.));
#1437=DIRECTION('ref_axis',(0.,1.,0.));
#1438=DIRECTION('center_axis',(-1.,0.,0.));
#1439=DIRECTION('ref_axis',(0.,1.,0.));
#1440=DIRECTION('center_axis',(-1.,0.,0.));
#1441=DIRECTION('ref_axis',(0.,1.,0.));
#1442=DIRECTION('center_axis',(-1.,0.,0.));
#1443=DIRECTION('ref_axis',(0.,1.,0.));
#1444=DIRECTION('center_axis',(-1.,0.,0.));
#1445=DIRECTION('ref_axis',(0.,1.,0.));
#1446=DIRECTION('center_axis',(-1.,0.,0.));
#1447=DIRECTION('ref_axis',(0.,1.,0.));
#1448=DIRECTION('center_axis',(1.,0.,0.));
#1449=DIRECTION('ref_axis',(0.,-0.707106781186547,0.707106781186547));
#1450=DIRECTION('',(1.,0.,0.));
#1451=DIRECTION('center_axis',(0.,0.,-1.));
#1452=DIRECTION('ref_axis',(0.,1.,0.));
#1453=DIRECTION('',(-1.,0.,0.));
#1454=DIRECTION('center_axis',(1.,0.,0.));
#1455=DIRECTION('ref_axis',(0.,0.707106781186547,-0.707106781186547));
#1456=DIRECTION('',(1.,0.,0.));
#1457=DIRECTION('center_axis',(1.,0.,0.));
#1458=DIRECTION('ref_axis',(0.,0.707106781186547,0.707106781186547));
#1459=DIRECTION('',(-1.,0.,0.));
#1460=DIRECTION('',(1.,0.,0.));
#1461=DIRECTION('center_axis',(0.,0.,1.));
#1462=DIRECTION('ref_axis',(0.,-1.,0.));
#1463=DIRECTION('',(-1.,0.,0.));
#1464=DIRECTION('center_axis',(1.,0.,0.));
#1465=DIRECTION('ref_axis',(0.,0.707106781186547,-0.707106781186547));
#1466=DIRECTION('',(1.,0.,0.));
#1467=DIRECTION('',(-1.,0.,0.));
#1468=DIRECTION('center_axis',(0.,0.,1.));
#1469=DIRECTION('ref_axis',(0.,-1.,0.));
#1470=DIRECTION('',(-1.,0.,0.));
#1471=DIRECTION('center_axis',(1.,0.,0.));
#1472=DIRECTION('ref_axis',(0.,-0.707106781186547,-0.707106781186547));
#1473=DIRECTION('',(1.,0.,0.));
#1474=DIRECTION('center_axis',(0.,1.,0.));
#1475=DIRECTION('ref_axis',(0.,0.,1.));
#1476=DIRECTION('',(-1.,0.,0.));
#1477=DIRECTION('center_axis',(1.,0.,0.));
#1478=DIRECTION('ref_axis',(0.,-0.707106781186547,0.707106781186547));
#1479=DIRECTION('',(1.,0.,0.));
#1480=DIRECTION('center_axis',(0.,0.,-1.));
#1481=DIRECTION('ref_axis',(0.,1.,0.));
#1482=DIRECTION('',(-1.,0.,0.));
#1483=DIRECTION('center_axis',(1.,0.,0.));
#1484=DIRECTION('ref_axis',(0.,0.707106781186547,0.707106781186547));
#1485=DIRECTION('',(1.,0.,0.));
#1486=DIRECTION('',(-1.,0.,0.));
#1487=DIRECTION('center_axis',(0.,-1.,0.));
#1488=DIRECTION('ref_axis',(0.,0.,-1.));
#1489=DIRECTION('center_axis',(1.,0.,0.));
#1490=DIRECTION('ref_axis',(0.,-0.707106781186547,0.707106781186547));
#1491=DIRECTION('',(1.,0.,0.));
#1492=DIRECTION('',(-1.,0.,0.));
#1493=DIRECTION('center_axis',(0.,0.,-1.));
#1494=DIRECTION('ref_axis',(0.,1.,0.));
#1495=DIRECTION('center_axis',(1.,0.,0.));
#1496=DIRECTION('ref_axis',(0.,0.707106781186547,0.707106781186548));
#1497=DIRECTION('',(1.,0.,0.));
#1498=DIRECTION('center_axis',(0.,0.,1.));
#1499=DIRECTION('ref_axis',(0.,-1.,0.));
#1500=DIRECTION('',(-1.,0.,0.));
#1501=DIRECTION('center_axis',(1.,0.,0.));
#1502=DIRECTION('ref_axis',(0.,-0.707106781186547,-0.707106781186547));
#1503=DIRECTION('',(1.,0.,0.));
#1504=DIRECTION('center_axis',(0.,1.,0.));
#1505=DIRECTION('ref_axis',(0.,0.,1.));
#1506=DIRECTION('center_axis',(1.,0.,0.));
#1507=DIRECTION('ref_axis',(0.,-0.707106781186547,0.707106781186547));
#1508=DIRECTION('',(-1.,0.,0.));
#1509=DIRECTION('center_axis',(1.,0.,0.));
#1510=DIRECTION('ref_axis',(0.,-0.707106781186547,-0.707106781186547));
#1511=DIRECTION('',(1.,0.,0.));
#1512=DIRECTION('center_axis',(0.,1.,0.));
#1513=DIRECTION('ref_axis',(0.,0.,1.));
#1514=DIRECTION('',(-1.,0.,0.));
#1515=DIRECTION('center_axis',(1.,0.,0.));
#1516=DIRECTION('ref_axis',(0.,0.707106781186547,0.707106781186547));
#1517=DIRECTION('',(1.,0.,0.));
#1518=DIRECTION('center_axis',(1.,0.,0.));
#1519=DIRECTION('ref_axis',(0.,1.,0.));
#1520=DIRECTION('center_axis',(1.,0.,0.));
#1521=DIRECTION('ref_axis',(0.,1.,0.));
#1522=DIRECTION('',(-1.,0.,0.));
#1523=DIRECTION('center_axis',(1.,0.,0.));
#1524=DIRECTION('ref_axis',(0.,1.,0.));
#1525=DIRECTION('center_axis',(-1.,0.,0.));
#1526=DIRECTION('ref_axis',(0.,1.,0.));
#1527=DIRECTION('',(-1.,0.,0.));
#1528=DIRECTION('center_axis',(1.,0.,0.));
#1529=DIRECTION('ref_axis',(0.,1.,0.));
#1530=DIRECTION('center_axis',(1.,0.,0.));
#1531=DIRECTION('ref_axis',(0.,1.,0.));
#1532=DIRECTION('center_axis',(1.,0.,0.));
#1533=DIRECTION('ref_axis',(0.,1.,0.));
#1534=DIRECTION('',(-1.,0.,0.));
#1535=DIRECTION('center_axis',(1.,0.,0.));
#1536=DIRECTION('ref_axis',(0.,1.,0.));
#1537=DIRECTION('center_axis',(-1.,0.,0.));
#1538=DIRECTION('ref_axis',(0.,1.,0.));
#1539=DIRECTION('',(-1.,0.,0.));
#1540=DIRECTION('center_axis',(1.,0.,0.));
#1541=DIRECTION('ref_axis',(0.,1.,0.));
#1542=DIRECTION('center_axis',(1.,0.,0.));
#1543=DIRECTION('ref_axis',(0.,1.,0.));
#1544=DIRECTION('center_axis',(1.,0.,0.));
#1545=DIRECTION('ref_axis',(0.,1.,0.));
#1546=DIRECTION('',(-1.,0.,0.));
#1547=DIRECTION('center_axis',(1.,0.,0.));
#1548=DIRECTION('ref_axis',(0.,1.,0.));
#1549=DIRECTION('center_axis',(-1.,0.,0.));
#1550=DIRECTION('ref_axis',(0.,1.,0.));
#1551=DIRECTION('',(-1.,0.,0.));
#1552=DIRECTION('center_axis',(1.,0.,0.));
#1553=DIRECTION('ref_axis',(0.,1.,0.));
#1554=DIRECTION('center_axis',(1.,0.,0.));
#1555=DIRECTION('ref_axis',(0.,1.,0.));
#1556=DIRECTION('center_axis',(1.,0.,0.));
#1557=DIRECTION('ref_axis',(0.,1.,0.));
#1558=DIRECTION('',(-1.,0.,0.));
#1559=DIRECTION('center_axis',(1.,0.,0.));
#1560=DIRECTION('ref_axis',(0.,1.,0.));
#1561=DIRECTION('center_axis',(-1.,0.,0.));
#1562=DIRECTION('ref_axis',(0.,1.,0.));
#1563=DIRECTION('',(-1.,0.,0.));
#1564=DIRECTION('center_axis',(1.,0.,0.));
#1565=DIRECTION('ref_axis',(0.,1.,0.));
#1566=DIRECTION('center_axis',(1.,0.,0.));
#1567=DIRECTION('ref_axis',(0.,1.,0.));
#1568=DIRECTION('center_axis',(1.,0.,0.));
#1569=DIRECTION('ref_axis',(0.,1.,0.));
#1570=DIRECTION('',(-1.,0.,0.));
#1571=DIRECTION('center_axis',(1.,0.,0.));
#1572=DIRECTION('ref_axis',(0.,1.,0.));
#1573=DIRECTION('center_axis',(-1.,0.,0.));
#1574=DIRECTION('ref_axis',(0.,1.,0.));
#1575=DIRECTION('',(-1.,0.,0.));
#1576=DIRECTION('center_axis',(1.,0.,0.));
#1577=DIRECTION('ref_axis',(0.,1.,0.));
#1578=DIRECTION('center_axis',(1.,0.,0.));
#1579=DIRECTION('ref_axis',(0.,1.,0.));
#1580=DIRECTION('center_axis',(1.,0.,0.));
#1581=DIRECTION('ref_axis',(0.,1.,0.));
#1582=DIRECTION('',(-1.,0.,0.));
#1583=DIRECTION('center_axis',(1.,0.,0.));
#1584=DIRECTION('ref_axis',(0.,1.,0.));
#1585=DIRECTION('center_axis',(-1.,0.,0.));
#1586=DIRECTION('ref_axis',(0.,1.,0.));
#1587=DIRECTION('',(-1.,0.,0.));
#1588=DIRECTION('center_axis',(1.,0.,0.));
#1589=DIRECTION('ref_axis',(0.,1.,0.));
#1590=DIRECTION('center_axis',(1.,0.,0.));
#1591=DIRECTION('ref_axis',(0.,1.,0.));
#1592=DIRECTION('center_axis',(1.,0.,0.));
#1593=DIRECTION('ref_axis',(0.,1.,0.));
#1594=DIRECTION('',(-1.,0.,0.));
#1595=DIRECTION('center_axis',(1.,0.,0.));
#1596=DIRECTION('ref_axis',(0.,1.,0.));
#1597=DIRECTION('center_axis',(-1.,0.,0.));
#1598=DIRECTION('ref_axis',(0.,1.,0.));
#1599=DIRECTION('',(-1.,0.,0.));
#1600=DIRECTION('center_axis',(1.,0.,0.));
#1601=DIRECTION('ref_axis',(0.,1.,0.));
#1602=DIRECTION('center_axis',(1.,0.,0.));
#1603=DIRECTION('ref_axis',(0.,1.,0.));
#1604=DIRECTION('center_axis',(1.,0.,0.));
#1605=DIRECTION('ref_axis',(0.,1.,0.));
#1606=DIRECTION('',(-1.,0.,0.));
#1607=DIRECTION('center_axis',(1.,0.,0.));
#1608=DIRECTION('ref_axis',(0.,1.,0.));
#1609=DIRECTION('center_axis',(-1.,0.,0.));
#1610=DIRECTION('ref_axis',(0.,1.,0.));
#1611=DIRECTION('',(-1.,0.,0.));
#1612=DIRECTION('center_axis',(1.,0.,0.));
#1613=DIRECTION('ref_axis',(0.,1.,0.));
#1614=DIRECTION('center_axis',(1.,0.,0.));
#1615=DIRECTION('ref_axis',(0.,1.,0.));
#1616=DIRECTION('',(-1.,0.,0.));
#1617=DIRECTION('center_axis',(1.,0.,0.));
#1618=DIRECTION('ref_axis',(0.,1.,0.));
#1619=DIRECTION('',(-1.,0.,0.));
#1620=DIRECTION('center_axis',(1.,0.,0.));
#1621=DIRECTION('ref_axis',(0.,1.,0.));
#1622=DIRECTION('',(-1.,0.,0.));
#1623=DIRECTION('center_axis',(1.,0.,0.));
#1624=DIRECTION('ref_axis',(0.,1.,0.));
#1625=DIRECTION('',(-1.,0.,0.));
#1626=DIRECTION('center_axis',(1.,0.,0.));
#1627=DIRECTION('ref_axis',(0.,1.,0.));
#1628=DIRECTION('',(-1.,0.,0.));
#1629=DIRECTION('center_axis',(0.,0.,-1.));
#1630=DIRECTION('ref_axis',(0.,1.,0.));
#1631=DIRECTION('center_axis',(0.,0.,1.));
#1632=DIRECTION('ref_axis',(0.,-1.,0.));
#1633=DIRECTION('center_axis',(0.,1.,0.));
#1634=DIRECTION('ref_axis',(0.,0.,1.));
#1635=DIRECTION('',(5.39260384428286E-33,4.16333634234433E-17,1.));
#1636=DIRECTION('',(1.,3.77629580359506E-46,-1.09537265587168E-32));
#1637=DIRECTION('center_axis',(0.,0.,1.));
#1638=DIRECTION('ref_axis',(1.,0.,0.));
#1639=CARTESIAN_POINT('',(0.,0.,0.));
#1640=CARTESIAN_POINT('',(0.,0.,0.));
#1641=CARTESIAN_POINT('Origin',(0.,-19.0000000000004,29.097454960004));
#1642=CARTESIAN_POINT('',(3.,-19.0000000000004,24.097454960004));
#1643=CARTESIAN_POINT('',(3.,-24.0000000000004,29.097454960004));
#1644=CARTESIAN_POINT('Origin',(3.,-19.0000000000004,29.097454960004));
#1645=CARTESIAN_POINT('',(0.,-24.0000000000004,29.097454960004));
#1646=CARTESIAN_POINT('',(0.,-24.0000000000004,29.097454960004));
#1647=CARTESIAN_POINT('',(0.,-19.0000000000004,24.097454960004));
#1648=CARTESIAN_POINT('Origin',(0.,-19.0000000000004,29.097454960004));
#1649=CARTESIAN_POINT('',(0.,-19.0000000000004,24.097454960004));
#1650=CARTESIAN_POINT('Origin',(0.,-24.0000000000004,119.499999999999));
#1651=CARTESIAN_POINT('',(3.,-24.0000000000004,114.499999999999));
#1652=CARTESIAN_POINT('',(3.,-24.0000000000004,24.097454960004));
#1653=CARTESIAN_POINT('',(0.,-24.0000000000004,114.499999999999));
#1654=CARTESIAN_POINT('',(0.,-24.0000000000004,114.499999999999));
#1655=CARTESIAN_POINT('',(0.,-24.0000000000004,24.097454960004));
#1656=CARTESIAN_POINT('Origin',(3.,17.4999999999997,71.7987274800017));
#1657=CARTESIAN_POINT('',(3.,38.9999999999997,24.097454960004));
#1658=CARTESIAN_POINT('',(3.,43.9999999999997,24.097454960004));
#1659=CARTESIAN_POINT('',(3.,43.9999999999997,29.097454960004));
#1660=CARTESIAN_POINT('Origin',(3.,38.9999999999997,29.097454960004));
#1661=CARTESIAN_POINT('',(3.,43.9999999999997,39.097454960004));
#1662=CARTESIAN_POINT('',(3.,43.9999999999997,119.499999999999));
#1663=CARTESIAN_POINT('',(3.,48.9999999999997,44.097454960004));
#1664=CARTESIAN_POINT('Origin',(3.,48.9999999999997,39.097454960004));
#1665=CARTESIAN_POINT('',(3.,53.9999999999997,44.097454960004));
#1666=CARTESIAN_POINT('',(3.,58.9999999999997,44.097454960004));
#1667=CARTESIAN_POINT('',(3.,58.9999999999997,49.097454960004));
#1668=CARTESIAN_POINT('Origin',(3.,53.9999999999997,49.097454960004));
#1669=CARTESIAN_POINT('',(3.,58.9999999999997,94.4999999999994));
#1670=CARTESIAN_POINT('',(3.,58.9999999999997,99.4999999999994));
#1671=CARTESIAN_POINT('',(3.,53.9999999999997,99.4999999999994));
#1672=CARTESIAN_POINT('Origin',(3.,53.9999999999997,94.4999999999994));
#1673=CARTESIAN_POINT('',(3.,48.9999999999997,99.4999999999994));
#1674=CARTESIAN_POINT('',(3.,43.9999999999997,99.4999999999994));
#1675=CARTESIAN_POINT('',(3.,43.9999999999997,104.499999999999));
#1676=CARTESIAN_POINT('Origin',(3.,48.9999999999997,104.499999999999));
#1677=CARTESIAN_POINT('',(3.,43.9999999999997,114.499999999999));
#1678=CARTESIAN_POINT('',(3.,43.9999999999997,119.499999999999));
#1679=CARTESIAN_POINT('',(3.,38.9999999999997,119.499999999999));
#1680=CARTESIAN_POINT('Origin',(3.,38.9999999999997,114.499999999999));
#1681=CARTESIAN_POINT('',(3.,-19.0000000000004,119.499999999999));
#1682=CARTESIAN_POINT('',(3.,-24.0000000000004,119.499999999999));
#1683=CARTESIAN_POINT('Origin',(3.,-19.0000000000004,114.499999999999));
#1684=CARTESIAN_POINT('',(3.,35.9999999999997,114.5));
#1685=CARTESIAN_POINT('Origin',(3.,38.9999999999997,114.5));
#1686=CARTESIAN_POINT('',(3.,-22.0000000000004,114.499999999999));
#1687=CARTESIAN_POINT('Origin',(3.,-19.0000000000004,114.499999999999));
#1688=CARTESIAN_POINT('',(3.,36.0000000000003,65.5000000000002));
#1689=CARTESIAN_POINT('Origin',(3.,39.0000000000003,65.5000000000002));
#1690=CARTESIAN_POINT('',(3.,50.2499999999997,89.4999999999994));
#1691=CARTESIAN_POINT('Origin',(3.,51.4999999999997,89.4999999999994));
#1692=CARTESIAN_POINT('',(3.,8.74999999999964,114.5));
#1693=CARTESIAN_POINT('Origin',(3.,9.99999999999964,114.5));
#1694=CARTESIAN_POINT('',(3.,36.100044279996,29.097454960004));
#1695=CARTESIAN_POINT('Origin',(3.,39.100044279996,29.097454960004));
#1696=CARTESIAN_POINT('',(3.,-21.89995572,56.59745496));
#1697=CARTESIAN_POINT('Origin',(3.,-18.89995572,56.59745496));
#1698=CARTESIAN_POINT('',(3.,-5.25000000000036,71.7999999999994));
#1699=CARTESIAN_POINT('Origin',(3.,-4.00000000000036,71.7999999999994));
#1700=CARTESIAN_POINT('',(3.,36.100044279996,56.59745496));
#1701=CARTESIAN_POINT('Origin',(3.,39.100044279996,56.59745496));
#1702=CARTESIAN_POINT('',(3.,8.74999999999967,29.097454960004));
#1703=CARTESIAN_POINT('Origin',(3.,9.99999999999967,29.097454960004));
#1704=CARTESIAN_POINT('',(3.,-21.89995572,29.097454960004));
#1705=CARTESIAN_POINT('Origin',(3.,-18.89995572,29.097454960004));
#1706=CARTESIAN_POINT('',(3.,-21.9999999999996,65.4999999999994));
#1707=CARTESIAN_POINT('Origin',(3.,-18.9999999999996,65.4999999999994));
#1708=CARTESIAN_POINT('',(3.,50.2499999999997,54.097454960004));
#1709=CARTESIAN_POINT('Origin',(3.,51.4999999999997,54.097454960004));
#1710=CARTESIAN_POINT('',(3.,-4.00000000000036,76.7999999999994));
#1711=CARTESIAN_POINT('',(3.,-4.00000000000036,66.7999999999994));
#1712=CARTESIAN_POINT('Origin',(3.,-4.00000000000036,71.7999999999994));
#1713=CARTESIAN_POINT('',(3.,-9.00000000000036,76.7999999999994));
#1714=CARTESIAN_POINT('',(3.,-14.0000000000004,76.7999999999994));
#1715=CARTESIAN_POINT('',(3.,-14.0000000000004,81.7999999999994));
#1716=CARTESIAN_POINT('Origin',(3.,-9.00000000000036,81.7999999999994));
#1717=CARTESIAN_POINT('',(3.,-14.0000000000004,104.499999999999));
#1718=CARTESIAN_POINT('',(3.,-14.0000000000004,34.097454960004));
#1719=CARTESIAN_POINT('',(3.,-9.00000000000036,109.499999999999));
#1720=CARTESIAN_POINT('Origin',(3.,-9.00000000000036,104.499999999999));
#1721=CARTESIAN_POINT('',(3.,28.9999999999997,109.499999999999));
#1722=CARTESIAN_POINT('',(3.,-14.0000000000004,109.499999999999));
#1723=CARTESIAN_POINT('',(3.,33.9999999999997,104.499999999999));
#1724=CARTESIAN_POINT('Origin',(3.,28.9999999999997,104.499999999999));
#1725=CARTESIAN_POINT('',(3.,33.9999999999997,39.097454960004));
#1726=CARTESIAN_POINT('',(3.,33.9999999999997,109.499999999999));
#1727=CARTESIAN_POINT('',(3.,28.9999999999997,34.097454960004));
#1728=CARTESIAN_POINT('Origin',(3.,28.9999999999997,39.097454960004));
#1729=CARTESIAN_POINT('',(3.,-9.00000000000036,34.097454960004));
#1730=CARTESIAN_POINT('',(3.,33.9999999999997,34.097454960004));
#1731=CARTESIAN_POINT('',(3.,-14.0000000000004,39.097454960004));
#1732=CARTESIAN_POINT('Origin',(3.,-9.00000000000036,39.097454960004));
#1733=CARTESIAN_POINT('',(3.,-14.0000000000004,61.7999999999994));
#1734=CARTESIAN_POINT('',(3.,-14.0000000000004,34.097454960004));
#1735=CARTESIAN_POINT('',(3.,-9.00000000000036,66.7999999999994));
#1736=CARTESIAN_POINT('Origin',(3.,-9.00000000000036,61.7999999999994));
#1737=CARTESIAN_POINT('',(3.,0.999999999999641,66.7999999999994));
#1738=CARTESIAN_POINT('Origin',(0.,38.9999999999997,29.097454960004));
#1739=CARTESIAN_POINT('',(0.,38.9999999999997,24.097454960004));
#1740=CARTESIAN_POINT('',(0.,38.9999999999997,24.097454960004));
#1741=CARTESIAN_POINT('',(0.,43.9999999999997,29.097454960004));
#1742=CARTESIAN_POINT('Origin',(0.,38.9999999999997,29.097454960004));
#1743=CARTESIAN_POINT('',(0.,43.9999999999997,29.097454960004));
#1744=CARTESIAN_POINT('Origin',(0.,43.9999999999997,24.097454960004));
#1745=CARTESIAN_POINT('',(0.,43.9999999999997,39.097454960004));
#1746=CARTESIAN_POINT('',(0.,43.9999999999997,119.499999999999));
#1747=CARTESIAN_POINT('',(0.,43.9999999999997,39.097454960004));
#1748=CARTESIAN_POINT('Origin',(0.,17.4999999999997,71.7987274800017));
#1749=CARTESIAN_POINT('',(0.,-19.0000000000004,119.499999999999));
#1750=CARTESIAN_POINT('Origin',(0.,-19.0000000000004,114.499999999999));
#1751=CARTESIAN_POINT('',(0.,38.9999999999997,119.499999999999));
#1752=CARTESIAN_POINT('',(0.,-24.0000000000004,119.499999999999));
#1753=CARTESIAN_POINT('',(0.,43.9999999999997,114.499999999999));
#1754=CARTESIAN_POINT('Origin',(0.,38.9999999999997,114.499999999999));
#1755=CARTESIAN_POINT('',(0.,43.9999999999997,104.499999999999));
#1756=CARTESIAN_POINT('',(0.,43.9999999999997,119.499999999999));
#1757=CARTESIAN_POINT('',(0.,48.9999999999997,99.4999999999994));
#1758=CARTESIAN_POINT('Origin',(0.,48.9999999999997,104.499999999999));
#1759=CARTESIAN_POINT('',(0.,53.9999999999997,99.4999999999994));
#1760=CARTESIAN_POINT('',(0.,43.9999999999997,99.4999999999994));
#1761=CARTESIAN_POINT('',(0.,58.9999999999997,94.4999999999994));
#1762=CARTESIAN_POINT('Origin',(0.,53.9999999999997,94.4999999999994));
#1763=CARTESIAN_POINT('',(0.,58.9999999999997,49.097454960004));
#1764=CARTESIAN_POINT('',(0.,58.9999999999997,99.4999999999994));
#1765=CARTESIAN_POINT('',(0.,53.9999999999997,44.097454960004));
#1766=CARTESIAN_POINT('Origin',(0.,53.9999999999997,49.097454960004));
#1767=CARTESIAN_POINT('',(0.,48.9999999999997,44.097454960004));
#1768=CARTESIAN_POINT('',(0.,58.9999999999997,44.097454960004));
#1769=CARTESIAN_POINT('Origin',(0.,48.9999999999997,39.097454960004));
#1770=CARTESIAN_POINT('',(0.,43.9999999999997,24.097454960004));
#1771=CARTESIAN_POINT('',(0.,-4.00000000000036,66.7999999999994));
#1772=CARTESIAN_POINT('',(0.,-4.00000000000036,76.7999999999994));
#1773=CARTESIAN_POINT('Origin',(0.,-4.00000000000036,71.7999999999994));
#1774=CARTESIAN_POINT('',(0.,-9.00000000000036,66.7999999999994));
#1775=CARTESIAN_POINT('',(0.,0.999999999999641,66.7999999999994));
#1776=CARTESIAN_POINT('',(0.,-14.0000000000004,61.7999999999994));
#1777=CARTESIAN_POINT('Origin',(0.,-9.00000000000036,61.7999999999994));
#1778=CARTESIAN_POINT('',(0.,-14.0000000000004,39.097454960004));
#1779=CARTESIAN_POINT('',(0.,-14.0000000000004,34.097454960004));
#1780=CARTESIAN_POINT('',(0.,-9.00000000000036,34.097454960004));
#1781=CARTESIAN_POINT('Origin',(0.,-9.00000000000036,39.097454960004));
#1782=CARTESIAN_POINT('',(0.,28.9999999999997,34.097454960004));
#1783=CARTESIAN_POINT('',(0.,33.9999999999997,34.097454960004));
#1784=CARTESIAN_POINT('',(0.,33.9999999999997,39.097454960004));
#1785=CARTESIAN_POINT('Origin',(0.,28.9999999999997,39.097454960004));
#1786=CARTESIAN_POINT('',(0.,33.9999999999997,104.499999999999));
#1787=CARTESIAN_POINT('',(0.,33.9999999999997,109.499999999999));
#1788=CARTESIAN_POINT('',(0.,28.9999999999997,109.499999999999));
#1789=CARTESIAN_POINT('Origin',(0.,28.9999999999997,104.499999999999));
#1790=CARTESIAN_POINT('',(0.,-9.00000000000036,109.499999999999));
#1791=CARTESIAN_POINT('',(0.,-14.0000000000004,109.499999999999));
#1792=CARTESIAN_POINT('',(0.,-14.0000000000004,104.499999999999));
#1793=CARTESIAN_POINT('Origin',(0.,-9.00000000000036,104.499999999999));
#1794=CARTESIAN_POINT('',(0.,-14.0000000000004,81.7999999999994));
#1795=CARTESIAN_POINT('',(0.,-14.0000000000004,34.097454960004));
#1796=CARTESIAN_POINT('',(0.,-9.00000000000036,76.7999999999994));
#1797=CARTESIAN_POINT('Origin',(0.,-9.00000000000036,81.7999999999994));
#1798=CARTESIAN_POINT('',(0.,-14.0000000000004,76.7999999999994));
#1799=CARTESIAN_POINT('',(0.,50.2499999999997,89.4999999999994));
#1800=CARTESIAN_POINT('Origin',(0.,51.4999999999997,89.4999999999994));
#1801=CARTESIAN_POINT('',(0.,8.74999999999964,114.5));
#1802=CARTESIAN_POINT('Origin',(0.,9.99999999999964,114.5));
#1803=CARTESIAN_POINT('',(0.,-5.25000000000036,71.7999999999994));
#1804=CARTESIAN_POINT('Origin',(0.,-4.00000000000036,71.7999999999994));
#1805=CARTESIAN_POINT('',(0.,8.74999999999967,29.097454960004));
#1806=CARTESIAN_POINT('Origin',(0.,9.99999999999967,29.097454960004));
#1807=CARTESIAN_POINT('',(0.,50.2499999999997,54.097454960004));
#1808=CARTESIAN_POINT('Origin',(0.,51.4999999999997,54.097454960004));
#1809=CARTESIAN_POINT('',(0.,-20.7500000000004,114.499999999999));
#1810=CARTESIAN_POINT('Origin',(0.,-19.0000000000004,114.499999999999));
#1811=CARTESIAN_POINT('',(0.,37.2499999999997,114.5));
#1812=CARTESIAN_POINT('Origin',(0.,38.9999999999997,114.5));
#1813=CARTESIAN_POINT('',(0.,-20.7499999999996,65.4999999999994));
#1814=CARTESIAN_POINT('Origin',(0.,-18.9999999999996,65.4999999999994));
#1815=CARTESIAN_POINT('',(0.,37.2500000000003,65.5000000000002));
#1816=CARTESIAN_POINT('Origin',(0.,39.0000000000003,65.5000000000002));
#1817=CARTESIAN_POINT('',(0.,-20.64995572,29.097454960004));
#1818=CARTESIAN_POINT('Origin',(0.,-18.89995572,29.097454960004));
#1819=CARTESIAN_POINT('',(0.,37.350044279996,29.097454960004));
#1820=CARTESIAN_POINT('Origin',(0.,39.100044279996,29.097454960004));
#1821=CARTESIAN_POINT('',(0.,-20.64995572,56.59745496));
#1822=CARTESIAN_POINT('Origin',(0.,-18.89995572,56.59745496));
#1823=CARTESIAN_POINT('',(0.,37.350044279996,56.59745496));
#1824=CARTESIAN_POINT('Origin',(0.,39.100044279996,56.59745496));
#1825=CARTESIAN_POINT('Origin',(0.,48.9999999999997,39.097454960004));
#1826=CARTESIAN_POINT('',(0.,48.9999999999997,44.097454960004));
#1827=CARTESIAN_POINT('Origin',(0.,43.9999999999997,44.097454960004));
#1828=CARTESIAN_POINT('',(0.,53.9999999999997,44.097454960004));
#1829=CARTESIAN_POINT('Origin',(0.,53.9999999999997,49.097454960004));
#1830=CARTESIAN_POINT('',(0.,58.9999999999997,49.097454960004));
#1831=CARTESIAN_POINT('Origin',(0.,53.9999999999997,94.4999999999994));
#1832=CARTESIAN_POINT('',(0.,58.9999999999997,94.4999999999994));
#1833=CARTESIAN_POINT('',(0.,53.9999999999997,99.4999999999994));
#1834=CARTESIAN_POINT('Origin',(0.,58.9999999999997,99.4999999999994));
#1835=CARTESIAN_POINT('',(0.,48.9999999999997,99.4999999999994));
#1836=CARTESIAN_POINT('Origin',(0.,28.9999999999997,39.097454960004));
#1837=CARTESIAN_POINT('',(0.,28.9999999999997,34.097454960004));
#1838=CARTESIAN_POINT('',(0.,33.9999999999997,39.097454960004));
#1839=CARTESIAN_POINT('Origin',(0.,33.9999999999997,34.097454960004));
#1840=CARTESIAN_POINT('',(0.,-9.00000000000036,34.097454960004));
#1841=CARTESIAN_POINT('Origin',(0.,-9.00000000000036,39.097454960004));
#1842=CARTESIAN_POINT('',(0.,-14.0000000000004,39.097454960004));
#1843=CARTESIAN_POINT('Origin',(0.,-14.0000000000004,34.097454960004));
#1844=CARTESIAN_POINT('',(0.,-14.0000000000004,61.7999999999994));
#1845=CARTESIAN_POINT('Origin',(0.,-9.00000000000036,61.7999999999994));
#1846=CARTESIAN_POINT('',(0.,-9.00000000000036,66.7999999999994));
#1847=CARTESIAN_POINT('Origin',(0.,-14.0000000000004,66.7999999999994));
#1848=CARTESIAN_POINT('',(0.,-4.00000000000036,66.7999999999994));
#1849=CARTESIAN_POINT('Origin',(0.,28.9999999999997,104.499999999999));
#1850=CARTESIAN_POINT('',(0.,33.9999999999997,104.499999999999));
#1851=CARTESIAN_POINT('',(0.,28.9999999999997,109.499999999999));
#1852=CARTESIAN_POINT('Origin',(0.,33.9999999999997,109.499999999999));
#1853=CARTESIAN_POINT('Origin',(0.,-9.00000000000036,104.499999999999));
#1854=CARTESIAN_POINT('',(0.,-9.00000000000036,109.499999999999));
#1855=CARTESIAN_POINT('',(0.,-14.0000000000004,104.499999999999));
#1856=CARTESIAN_POINT('Origin',(0.,-14.0000000000004,109.499999999999));
#1857=CARTESIAN_POINT('Origin',(0.,-4.00000000000036,71.7999999999994));
#1858=CARTESIAN_POINT('',(0.,-4.00000000000036,76.7999999999994));
#1859=CARTESIAN_POINT('Origin',(0.,0.999999999999641,76.7999999999994));
#1860=CARTESIAN_POINT('',(0.,-9.00000000000036,76.7999999999994));
#1861=CARTESIAN_POINT('Origin',(0.,-9.00000000000036,81.7999999999994));
#1862=CARTESIAN_POINT('',(0.,-14.0000000000004,81.7999999999994));
#1863=CARTESIAN_POINT('Origin',(0.,-14.0000000000004,76.7999999999994));
#1864=CARTESIAN_POINT('Origin',(0.,-19.0000000000004,114.499999999999));
#1865=CARTESIAN_POINT('',(0.,-19.0000000000004,119.499999999999));
#1866=CARTESIAN_POINT('Origin',(0.,48.9999999999997,104.499999999999));
#1867=CARTESIAN_POINT('',(0.,43.9999999999997,104.499999999999));
#1868=CARTESIAN_POINT('Origin',(0.,43.9999999999997,99.4999999999994));
#1869=CARTESIAN_POINT('',(0.,43.9999999999997,114.499999999999));
#1870=CARTESIAN_POINT('Origin',(0.,38.9999999999997,114.499999999999));
#1871=CARTESIAN_POINT('',(0.,38.9999999999997,119.499999999999));
#1872=CARTESIAN_POINT('Origin',(0.,39.100044279996,56.59745496));
#1873=CARTESIAN_POINT('',(10.6,36.100044279996,56.59745496));
#1874=CARTESIAN_POINT('Origin',(10.6,39.100044279996,56.59745496));
#1875=CARTESIAN_POINT('',(0.,36.100044279996,56.59745496));
#1876=CARTESIAN_POINT('Origin',(0.,39.100044279996,56.59745496));
#1877=CARTESIAN_POINT('',(10.6,37.350044279996,56.59745496));
#1878=CARTESIAN_POINT('Origin',(10.6,39.100044279996,56.59745496));
#1879=CARTESIAN_POINT('',(0.,37.350044279996,56.59745496));
#1880=CARTESIAN_POINT('Origin',(10.6,39.100044279996,56.59745496));
#1881=CARTESIAN_POINT('Origin',(0.,-18.89995572,56.59745496));
#1882=CARTESIAN_POINT('',(10.6,-21.89995572,56.59745496));
#1883=CARTESIAN_POINT('Origin',(10.6,-18.89995572,56.59745496));
#1884=CARTESIAN_POINT('',(0.,-21.89995572,56.59745496));
#1885=CARTESIAN_POINT('Origin',(0.,-18.89995572,56.59745496));
#1886=CARTESIAN_POINT('',(10.6,-20.64995572,56.59745496));
#1887=CARTESIAN_POINT('Origin',(10.6,-18.89995572,56.59745496));
#1888=CARTESIAN_POINT('',(0.,-20.64995572,56.59745496));
#1889=CARTESIAN_POINT('Origin',(10.6,-18.89995572,56.59745496));
#1890=CARTESIAN_POINT('Origin',(0.,39.100044279996,29.097454960004));
#1891=CARTESIAN_POINT('',(10.6,36.100044279996,29.097454960004));
#1892=CARTESIAN_POINT('Origin',(10.6,39.100044279996,29.097454960004));
#1893=CARTESIAN_POINT('',(0.,36.100044279996,29.097454960004));
#1894=CARTESIAN_POINT('Origin',(0.,39.100044279996,29.097454960004));
#1895=CARTESIAN_POINT('',(10.6,37.350044279996,29.097454960004));
#1896=CARTESIAN_POINT('Origin',(10.6,39.100044279996,29.097454960004));
#1897=CARTESIAN_POINT('',(0.,37.350044279996,29.097454960004));
#1898=CARTESIAN_POINT('Origin',(10.6,39.100044279996,29.097454960004));
#1899=CARTESIAN_POINT('Origin',(0.,-18.89995572,29.097454960004));
#1900=CARTESIAN_POINT('',(10.6,-21.89995572,29.097454960004));
#1901=CARTESIAN_POINT('Origin',(10.6,-18.89995572,29.097454960004));
#1902=CARTESIAN_POINT('',(0.,-21.89995572,29.097454960004));
#1903=CARTESIAN_POINT('Origin',(0.,-18.89995572,29.097454960004));
#1904=CARTESIAN_POINT('',(10.6,-20.64995572,29.097454960004));
#1905=CARTESIAN_POINT('Origin',(10.6,-18.89995572,29.097454960004));
#1906=CARTESIAN_POINT('',(0.,-20.64995572,29.097454960004));
#1907=CARTESIAN_POINT('Origin',(10.6,-18.89995572,29.097454960004));
#1908=CARTESIAN_POINT('Origin',(0.,39.0000000000003,65.5000000000002));
#1909=CARTESIAN_POINT('',(7.9,36.0000000000003,65.5000000000002));
#1910=CARTESIAN_POINT('Origin',(7.9,39.0000000000003,65.5000000000002));
#1911=CARTESIAN_POINT('',(0.,36.0000000000003,65.5000000000002));
#1912=CARTESIAN_POINT('Origin',(0.,39.0000000000003,65.5000000000002));
#1913=CARTESIAN_POINT('',(7.9,37.2500000000003,65.5000000000002));
#1914=CARTESIAN_POINT('Origin',(7.9,39.0000000000003,65.5000000000002));
#1915=CARTESIAN_POINT('',(0.,37.2500000000003,65.5000000000002));
#1916=CARTESIAN_POINT('Origin',(7.9,39.0000000000003,65.5000000000002));
#1917=CARTESIAN_POINT('Origin',(0.,-18.9999999999996,65.4999999999994));
#1918=CARTESIAN_POINT('',(7.9,-21.9999999999997,65.4999999999994));
#1919=CARTESIAN_POINT('Origin',(7.9,-18.9999999999996,65.4999999999994));
#1920=CARTESIAN_POINT('',(0.,-21.9999999999997,65.4999999999994));
#1921=CARTESIAN_POINT('Origin',(0.,-18.9999999999996,65.4999999999994));
#1922=CARTESIAN_POINT('',(7.9,-20.7499999999996,65.4999999999994));
#1923=CARTESIAN_POINT('Origin',(7.9,-18.9999999999996,65.4999999999994));
#1924=CARTESIAN_POINT('',(0.,-20.7499999999996,65.4999999999994));
#1925=CARTESIAN_POINT('Origin',(7.9,-18.9999999999996,65.4999999999994));
#1926=CARTESIAN_POINT('Origin',(0.,38.9999999999997,114.5));
#1927=CARTESIAN_POINT('',(7.9,35.9999999999997,114.5));
#1928=CARTESIAN_POINT('Origin',(7.9,38.9999999999997,114.5));
#1929=CARTESIAN_POINT('',(0.,35.9999999999997,114.5));
#1930=CARTESIAN_POINT('Origin',(0.,38.9999999999997,114.5));
#1931=CARTESIAN_POINT('',(7.9,37.2499999999997,114.5));
#1932=CARTESIAN_POINT('Origin',(7.9,38.9999999999997,114.5));
#1933=CARTESIAN_POINT('',(0.,37.2499999999997,114.5));
#1934=CARTESIAN_POINT('Origin',(7.9,38.9999999999997,114.5));
#1935=CARTESIAN_POINT('Origin',(0.,-19.0000000000004,114.499999999999));
#1936=CARTESIAN_POINT('',(7.9,-22.0000000000004,114.499999999999));
#1937=CARTESIAN_POINT('Origin',(7.9,-19.0000000000004,114.499999999999));
#1938=CARTESIAN_POINT('',(0.,-22.0000000000004,114.499999999999));
#1939=CARTESIAN_POINT('Origin',(0.,-19.0000000000004,114.499999999999));
#1940=CARTESIAN_POINT('',(7.9,-20.7500000000004,114.499999999999));
#1941=CARTESIAN_POINT('Origin',(7.9,-19.0000000000004,114.499999999999));
#1942=CARTESIAN_POINT('',(0.,-20.7500000000004,114.499999999999));
#1943=CARTESIAN_POINT('Origin',(7.9,-19.0000000000004,114.499999999999));
#1944=CARTESIAN_POINT('Origin',(0.,51.4999999999997,89.4999999999994));
#1945=CARTESIAN_POINT('',(0.,50.2499999999997,89.4999999999994));
#1946=CARTESIAN_POINT('Origin',(0.,9.99999999999964,114.5));
#1947=CARTESIAN_POINT('',(0.,8.74999999999964,114.5));
#1948=CARTESIAN_POINT('Origin',(0.,-4.00000000000036,71.7999999999994));
#1949=CARTESIAN_POINT('',(0.,-5.25000000000036,71.7999999999994));
#1950=CARTESIAN_POINT('Origin',(0.,9.99999999999967,29.097454960004));
#1951=CARTESIAN_POINT('',(0.,8.74999999999967,29.097454960004));
#1952=CARTESIAN_POINT('Origin',(0.,51.4999999999997,54.097454960004));
#1953=CARTESIAN_POINT('',(0.,50.2499999999997,54.097454960004));
#1954=CARTESIAN_POINT('Origin',(0.,-24.0000000000004,24.097454960004));
#1955=CARTESIAN_POINT('Origin',(0.,43.9999999999997,119.499999999999));
#1956=CARTESIAN_POINT('Origin',(0.,58.9999999999997,44.097454960004));
#1957=CARTESIAN_POINT('',(-30.,10.,-5.00000000000002));
#1958=CARTESIAN_POINT('Origin',(0.,0.,0.));
#1959=UNCERTAINTY_MEASURE_WITH_UNIT(LENGTH_MEASURE(0.01),#1965,
'DISTANCE_ACCURACY_VALUE',
'Maximum model space distance between geometric entities at asserted c
onnectivities');
#1960=UNCERTAINTY_MEASURE_WITH_UNIT(LENGTH_MEASURE(0.01),#1965,
'DISTANCE_ACCURACY_VALUE',
'Maximum model space distance between geometric entities at asserted c
onnectivities');
#1961=UNCERTAINTY_MEASURE_WITH_UNIT(LENGTH_MEASURE(0.01),#1965,
'DISTANCE_ACCURACY_VALUE',
'Maximum model space distance between geometric entities at asserted c
onnectivities');
#1962=(
GEOMETRIC_REPRESENTATION_CONTEXT(3)
GLOBAL_UNCERTAINTY_ASSIGNED_CONTEXT((#1959))
GLOBAL_UNIT_ASSIGNED_CONTEXT((#1965,#1967,#1968))
REPRESENTATION_CONTEXT('','3D')
);
#1963=(
GEOMETRIC_REPRESENTATION_CONTEXT(3)
GLOBAL_UNCERTAINTY_ASSIGNED_CONTEXT((#1960))
GLOBAL_UNIT_ASSIGNED_CONTEXT((#1965,#1967,#1968))
REPRESENTATION_CONTEXT('','3D')
);
#1964=(
GEOMETRIC_REPRESENTATION_CONTEXT(3)
GLOBAL_UNCERTAINTY_ASSIGNED_CONTEXT((#1961))
GLOBAL_UNIT_ASSIGNED_CONTEXT((#1965,#1967,#1968))
REPRESENTATION_CONTEXT('','3D')
);
#1965=(
LENGTH_UNIT()
NAMED_UNIT(*)
SI_UNIT(.MILLI.,.METRE.)
);
#1966=(
LENGTH_UNIT()
NAMED_UNIT(*)
SI_UNIT($,.METRE.)
);
#1967=(
NAMED_UNIT(*)
PLANE_ANGLE_UNIT()
SI_UNIT($,.RADIAN.)
);
#1968=(
NAMED_UNIT(*)
SI_UNIT($,.STERADIAN.)
SOLID_ANGLE_UNIT()
);
#1969=SHAPE_DEFINITION_REPRESENTATION(#1971,#1974);
#1970=SHAPE_DEFINITION_REPRESENTATION(#1972,#1975);
#1971=PRODUCT_DEFINITION_SHAPE('',$,#1977);
#1972=PRODUCT_DEFINITION_SHAPE('',$,#1978);
#1973=PRODUCT_DEFINITION_SHAPE($,$,#17);
#1974=SHAPE_REPRESENTATION('',(#1147,#1282),#1962);
#1975=SHAPE_REPRESENTATION('',(#1148),#1963);
#1976=PRODUCT_DEFINITION_CONTEXT('part definition',#1984,'design');
#1977=PRODUCT_DEFINITION('Home assistant box','Home assistant box v41',
#1979,#1976);
#1978=PRODUCT_DEFINITION('Support PI','Support PI',#1980,#1976);
#1979=PRODUCT_DEFINITION_FORMATION('',$,#1986);
#1980=PRODUCT_DEFINITION_FORMATION('',$,#1987);
#1981=PRODUCT_RELATED_PRODUCT_CATEGORY('Home assistant box v41',
'Home assistant box v41',(#1986));
#1982=PRODUCT_RELATED_PRODUCT_CATEGORY('Support PI','Support PI',(#1987));
#1983=APPLICATION_PROTOCOL_DEFINITION('international standard',
'automotive_design',2009,#1984);
#1984=APPLICATION_CONTEXT(
'Core Data for Automotive Mechanical Design Process');
#1985=PRODUCT_CONTEXT('part definition',#1984,'mechanical');
#1986=PRODUCT('Home assistant box','Home assistant box v41',$,(#1985));
#1987=PRODUCT('Support PI','Support PI',$,(#1985));
#1988=PRESENTATION_STYLE_ASSIGNMENT((#1996));
#1989=PRESENTATION_STYLE_ASSIGNMENT((#1997));
#1990=PRESENTATION_STYLE_ASSIGNMENT((#1998));
#1991=PRESENTATION_STYLE_ASSIGNMENT((#1999));
#1992=PRESENTATION_STYLE_ASSIGNMENT((#2000));
#1993=PRESENTATION_STYLE_ASSIGNMENT((#2001));
#1994=PRESENTATION_STYLE_ASSIGNMENT((#2002));
#1995=PRESENTATION_STYLE_ASSIGNMENT((NULL_STYLE(.NULL.)));
#1996=SURFACE_STYLE_USAGE(.BOTH.,#2003);
#1997=SURFACE_STYLE_USAGE(.BOTH.,#2004);
#1998=SURFACE_STYLE_USAGE(.BOTH.,#2005);
#1999=SURFACE_STYLE_USAGE(.BOTH.,#2006);
#2000=SURFACE_STYLE_USAGE(.BOTH.,#2007);
#2001=SURFACE_STYLE_USAGE(.BOTH.,#2008);
#2002=SURFACE_STYLE_USAGE(.BOTH.,#2009);
#2003=SURFACE_SIDE_STYLE('',(#2010));
#2004=SURFACE_SIDE_STYLE('',(#2011));
#2005=SURFACE_SIDE_STYLE('',(#2012));
#2006=SURFACE_SIDE_STYLE('',(#2013));
#2007=SURFACE_SIDE_STYLE('',(#2014));
#2008=SURFACE_SIDE_STYLE('',(#2015));
#2009=SURFACE_SIDE_STYLE('',(#2016));
#2010=SURFACE_STYLE_FILL_AREA(#2017);
#2011=SURFACE_STYLE_FILL_AREA(#2018);
#2012=SURFACE_STYLE_FILL_AREA(#2019);
#2013=SURFACE_STYLE_FILL_AREA(#2020);
#2014=SURFACE_STYLE_FILL_AREA(#2021);
#2015=SURFACE_STYLE_FILL_AREA(#2022);
#2016=SURFACE_STYLE_FILL_AREA(#2023);
#2017=FILL_AREA_STYLE('Oak',(#2024));
#2018=FILL_AREA_STYLE('Plastic - Translucent Matte (White)',(#2025));
#2019=FILL_AREA_STYLE('Steel - Satin',(#2026));
#2020=FILL_AREA_STYLE('Paint - Metallic (Black)',(#2027));
#2021=FILL_AREA_STYLE('Paint - Metal Flake (Silver)',(#2028));
#2022=FILL_AREA_STYLE('Walnut',(#2029));
#2023=FILL_AREA_STYLE('Glass - Frosted',(#2030));
#2024=FILL_AREA_STYLE_COLOUR('Oak',#2031);
#2025=FILL_AREA_STYLE_COLOUR('Plastic - Translucent Matte (White)',#2032);
#2026=FILL_AREA_STYLE_COLOUR('Steel - Satin',#2033);
#2027=FILL_AREA_STYLE_COLOUR('Paint - Metallic (Black)',#2034);
#2028=FILL_AREA_STYLE_COLOUR('Paint - Metal Flake (Silver)',#2035);
#2029=FILL_AREA_STYLE_COLOUR('Walnut',#2036);
#2030=FILL_AREA_STYLE_COLOUR('Glass - Frosted',#2037);
#2031=COLOUR_RGB('Oak',0.,0.,0.);
#2032=COLOUR_RGB('Plastic - Translucent Matte (White)',0.964705882352941,
0.964705882352941,0.952941176470588);
#2033=COLOUR_RGB('Steel - Satin',0.627450980392157,0.627450980392157,0.627450980392157);
#2034=COLOUR_RGB('Paint - Metallic (Black)',0.0980392156862745,0.0980392156862745,
0.0980392156862745);
#2035=COLOUR_RGB('Paint - Metal Flake (Silver)',1.,1.,1.);
#2036=COLOUR_RGB('Walnut',0.,0.,0.);
#2037=COLOUR_RGB('Glass - Frosted',0.964705882352941,0.964705882352941,
0.952941176470588);
ENDSEC;
END-ISO-10303-21;
